<?xml version="1.0" encoding="UTF-8"?>
<svg id="Noun_Glasses" xmlns="http://www.w3.org/2000/svg" xmlns:xlink="http://www.w3.org/1999/xlink" viewBox="0 0 500 500">
  <defs>
    <style>
      .cls-1 {
        fill: url(#New_Gradient_Swatch_44);
      }

      .cls-1, .cls-2, .cls-3, .cls-4, .cls-5, .cls-6, .cls-7 {
        stroke: #000;
        stroke-miterlimit: 10;
        stroke-width: 1.89px;
      }

      .cls-8 {
        fill: #fff;
      }

      .cls-9 {
        fill: red;
      }

      .cls-2 {
        fill: url(#New_Gradient_Swatch_44-7);
      }

      .cls-3 {
        fill: url(#New_Gradient_Swatch_44-4);
      }

      .cls-4 {
        fill: url(#New_Gradient_Swatch_44-2);
      }

      .cls-5 {
        fill: url(#New_Gradient_Swatch_44-3);
      }

      .cls-6 {
        fill: url(#New_Gradient_Swatch_44-6);
      }

      .cls-7 {
        fill: url(#New_Gradient_Swatch_44-5);
      }
    </style>
    <linearGradient id="New_Gradient_Swatch_44" data-name="New Gradient Swatch 44" x1="289.08" y1="232.85" x2="332" y2="232.85" gradientTransform="matrix(1, 0, 0, 1, 0, 0)" gradientUnits="userSpaceOnUse">
      <stop offset="0" stop-color="#000"/>
      <stop offset=".36" stop-color="#333"/>
      <stop offset="1" stop-color="#000"/>
    </linearGradient>
    <linearGradient id="New_Gradient_Swatch_44-2" data-name="New Gradient Swatch 44" x1="194.21" y1="207.92" x2="206.68" y2="207.92" gradientTransform="translate(-325.65 -3.01) scale(2.62 .99)" xlink:href="#New_Gradient_Swatch_44"/>
    <linearGradient id="New_Gradient_Swatch_44-3" data-name="New Gradient Swatch 44" x1="213.57" y1="208.47" x2="293.02" y2="208.47" gradientTransform="translate(40.71 -38.54) rotate(10.6)" xlink:href="#New_Gradient_Swatch_44"/>
    <linearGradient id="New_Gradient_Swatch_44-4" data-name="New Gradient Swatch 44" x1="106.68" y1="207.09" x2="183.55" y2="207.09" gradientTransform="translate(40.71 -38.54) rotate(10.6)" xlink:href="#New_Gradient_Swatch_44"/>
    <linearGradient id="New_Gradient_Swatch_44-5" data-name="New Gradient Swatch 44" x1="194.21" y1="207.92" x2="206.68" y2="207.92" gradientTransform="translate(-325.65 -3.01) scale(2.62 .99)" xlink:href="#New_Gradient_Swatch_44"/>
    <linearGradient id="New_Gradient_Swatch_44-6" data-name="New Gradient Swatch 44" x1="213.57" y1="208.47" x2="293.02" y2="208.47" gradientTransform="translate(40.71 -38.54) rotate(10.6)" xlink:href="#New_Gradient_Swatch_44"/>
    <linearGradient id="New_Gradient_Swatch_44-7" data-name="New Gradient Swatch 44" x1="106.68" y1="207.09" x2="183.55" y2="207.09" gradientTransform="translate(40.71 -38.54) rotate(10.6)" xlink:href="#New_Gradient_Swatch_44"/>
  </defs>
  <g id="Hip_bat">
    <polygon class="cls-1" points="315.65 213.6 292.15 209.2 289.08 225.55 312.59 229.95 308.19 253.45 324.54 256.51 328.94 233.01 332 216.66 315.65 213.6"/>
    <rect class="cls-4" x="182.53" y="193.66" width="32.65" height="17.46" transform="translate(40.63 -33.13) rotate(10.6)"/>
    <g>
      <rect class="cls-8" x="216.49" y="185.85" width="61.34" height="61.34" transform="translate(43.21 -41.11) rotate(10.41)"/>
      <rect x="215.47" y="182.38" width="31.63" height="61.85" transform="translate(42.37 -38.29) rotate(10.41)"/>
    </g>
    <g>
      <rect class="cls-8" x="221.68" y="186.82" width="61.34" height="61.34" transform="translate(43.47 -42.03) rotate(10.41)"/>
      <rect class="cls-9" x="217.43" y="177.5" width="33.48" height="66.24" transform="translate(41.93 -38.86) rotate(10.41)"/>
    </g>
    <path class="cls-5" d="M219.67,166.14l-14.8,79.04,78.1,14.62,14.8-79.04-78.1-14.62Zm51.86,76.73l-49.87-9.34,9.45-50.47,49.87,9.34-9.45,50.47Z"/>
    <g>
      <rect class="cls-8" x="114.06" y="165.75" width="61.34" height="61.34" transform="translate(37.89 -22.93) rotate(10.41)"/>
      <rect class="cls-9" x="109.81" y="156.43" width="33.48" height="66.24" transform="translate(36.35 -19.75) rotate(10.41)"/>
    </g>
    <path class="cls-3" d="M114.88,145.02l-14.83,79.24,75.56,14.14,14.83-79.24-75.56-14.14Zm49.75,76.5l-48.25-9.03,9.47-50.6,48.25,9.03-9.47,50.6Z"/>
    <polygon class="cls-1" points="315.65 213.6 292.15 209.2 289.08 225.55 312.59 229.95 308.19 253.45 324.54 256.51 328.94 233.01 332 216.66 315.65 213.6"/>
    <rect class="cls-7" x="182.53" y="193.66" width="32.65" height="17.46" transform="translate(40.63 -33.13) rotate(10.6)"/>
    <g>
      <rect class="cls-8" x="216.49" y="185.85" width="61.34" height="61.34" transform="translate(43.21 -41.11) rotate(10.41)"/>
      <rect x="215.47" y="182.38" width="31.63" height="61.85" transform="translate(42.37 -38.29) rotate(10.41)"/>
    </g>
    <rect class="cls-9" x="221.68" y="186.82" width="61.34" height="61.34" transform="translate(43.47 -42.03) rotate(10.41)"/>
    <rect x="217.43" y="177.5" width="33.48" height="66.24" transform="translate(41.93 -38.86) rotate(10.41)"/>
    <path class="cls-6" d="M219.67,166.14l-14.8,79.04,78.1,14.62,14.8-79.04-78.1-14.62Zm51.86,76.73l-49.87-9.34,9.45-50.47,49.87,9.34-9.45,50.47Z"/>
    <rect class="cls-9" x="114.06" y="165.75" width="61.34" height="61.34" transform="translate(37.89 -22.93) rotate(10.41)"/>
    <rect x="109.81" y="156.43" width="33.48" height="66.24" transform="translate(36.35 -19.75) rotate(10.41)"/>
    <path class="cls-2" d="M114.88,145.02l-14.83,79.24,75.56,14.14,14.83-79.24-75.56-14.14Zm49.75,76.5l-48.25-9.03,9.47-50.6,48.25,9.03-9.47,50.6Z"/>
  </g>
</svg>