<?xml version="1.0" encoding="UTF-8"?>
<svg id="Noun_Glasses" xmlns="http://www.w3.org/2000/svg" xmlns:xlink="http://www.w3.org/1999/xlink" viewBox="0 0 500 500">
  <defs>
    <style>
      .cls-1 {
        fill: #fff;
      }

      .cls-2 {
        fill: #8b6239;
      }

      .cls-3 {
        fill: url(#New_Gradient_Swatch_8);
        stroke-width: 2.08px;
      }

      .cls-3, .cls-4 {
        stroke: #000;
        stroke-miterlimit: 10;
      }

      .cls-4 {
        fill: url(#New_Gradient_Swatch_5);
        stroke-width: 2px;
      }
    </style>
    <linearGradient id="New_Gradient_Swatch_8" data-name="New Gradient Swatch 8" x1="289.08" y1="232.85" x2="332" y2="232.85" gradientTransform="matrix(1, 0, 0, 1, 0, 0)" gradientUnits="userSpaceOnUse">
      <stop offset="0" stop-color="#ff8796"/>
      <stop offset="1" stop-color="#ff5e6e"/>
    </linearGradient>
    <linearGradient id="New_Gradient_Swatch_5" data-name="New Gradient Swatch 5" x1="100.05" y1="201.91" x2="298.77" y2="201.91" gradientTransform="matrix(1, 0, 0, 1, 0, 0)" gradientUnits="userSpaceOnUse">
      <stop offset="0" stop-color="#ffaeb8"/>
      <stop offset="1" stop-color="#ff808c"/>
    </linearGradient>
  </defs>
  <g id="Loverboy">
    <polygon class="cls-3" points="315.65 213.6 292.15 209.2 289.08 225.55 312.59 229.95 308.19 253.45 324.54 256.51 328.94 233.01 332 216.66 315.65 213.6"/>
    <g>
      <rect class="cls-1" x="216.49" y="185.85" width="61.34" height="61.34" transform="translate(43.21 -41.11) rotate(10.41)"/>
      <rect class="cls-2" x="219.47" y="182.38" width="31.63" height="61.85" transform="translate(42.43 -39.01) rotate(10.41)"/>
    </g>
    <g>
      <rect class="cls-1" x="114.06" y="165.75" width="61.34" height="61.34" transform="translate(37.89 -22.93) rotate(10.41)"/>
      <rect class="cls-2" x="113.03" y="162.27" width="31.63" height="61.85" transform="translate(37.04 -20.11) rotate(10.41)"/>
    </g>
    <path class="cls-4" d="M221.99,165.07c-3.34-.67-6.68-1.33-10.01-1.95-3.29-.62-6.58-1.23-9.87-1.85l-12.12-2.27v.07l-75.12-14.06-14.83,79.24,75.56,14.14,6.78-36.21,30.29,5.67-6.8,36.32,78.1,14.62,14.8-79.04-1.12-.21-19.59-3.67-30.24-5.66c-8.63-1.62-17.24-3.43-25.83-5.15Zm-57.36,56.45l-48.25-9.03,9.47-50.6,48.25,9.03-9.47,50.6Zm107.9,20.35l-49.87-9.34,9.45-50.47,49.87,9.34-9.45,50.47Z"/>
  </g>
</svg>