<?xml version="1.0" encoding="UTF-8"?>
<svg id="Noun_Glasses" xmlns="http://www.w3.org/2000/svg" xmlns:xlink="http://www.w3.org/1999/xlink" viewBox="0 0 500 500">
  <defs>
    <style>
      .cls-1 {
        fill: url(#New_Gradient_Swatch_50);
      }

      .cls-1, .cls-2, .cls-3, .cls-4 {
        stroke: #000;
        stroke-miterlimit: 10;
        stroke-width: 1.89px;
      }

      .cls-5 {
        fill: #faaf3b;
      }

      .cls-6 {
        fill: #fff;
      }

      .cls-7 {
        fill: #f6921e;
      }

      .cls-8 {
        fill: #ff0;
      }

      .cls-9 {
        fill: red;
      }

      .cls-10 {
        fill: #662d90;
      }

      .cls-11 {
        fill: #2e56e7;
      }

      .cls-12 {
        fill: #7ac843;
      }

      .cls-2 {
        fill: url(#New_Gradient_Swatch_50-2);
      }

      .cls-3 {
        fill: url(#New_Gradient_Swatch_50-4);
      }

      .cls-4 {
        fill: url(#New_Gradient_Swatch_50-3);
      }
    </style>
    <linearGradient id="New_Gradient_Swatch_50" data-name="New Gradient Swatch 50" x1="289.08" y1="232.85" x2="332" y2="232.85" gradientTransform="matrix(1, 0, 0, 1, 0, 0)" gradientUnits="userSpaceOnUse">
      <stop offset="0" stop-color="#f1f1f1"/>
      <stop offset=".36" stop-color="#efeeed"/>
      <stop offset="1" stop-color="#f1f1f1"/>
    </linearGradient>
    <linearGradient id="New_Gradient_Swatch_50-2" data-name="New Gradient Swatch 50" x1="194.21" y1="207.92" x2="206.68" y2="207.92" gradientTransform="translate(-325.65 -3.01) scale(2.62 .99)" xlink:href="#New_Gradient_Swatch_50"/>
    <linearGradient id="New_Gradient_Swatch_50-3" data-name="New Gradient Swatch 50" x1="213.57" y1="208.47" x2="293.02" y2="208.47" gradientTransform="translate(40.71 -38.54) rotate(10.6)" xlink:href="#New_Gradient_Swatch_50"/>
    <linearGradient id="New_Gradient_Swatch_50-4" data-name="New Gradient Swatch 50" x1="106.68" y1="207.09" x2="183.55" y2="207.09" gradientTransform="translate(40.71 -38.54) rotate(10.6)" xlink:href="#New_Gradient_Swatch_50"/>
  </defs>
  <g id="White_rainbow">
    <polygon class="cls-1" points="315.65 213.6 292.15 209.2 289.08 225.55 312.59 229.95 308.19 253.45 324.54 256.51 328.94 233.01 332 216.66 315.65 213.6"/>
    <rect class="cls-2" x="182.53" y="193.66" width="32.65" height="17.46" transform="translate(40.63 -33.13) rotate(10.6)"/>
    <g>
      <rect class="cls-6" x="216.49" y="185.85" width="61.34" height="61.34" transform="translate(43.21 -41.11) rotate(10.41)"/>
      <rect x="215.47" y="182.38" width="31.63" height="61.85" transform="translate(42.37 -38.29) rotate(10.41)"/>
    </g>
    <g>
      <rect class="cls-8" x="221.68" y="186.82" width="61.34" height="61.34" transform="translate(43.47 -42.03) rotate(10.41)"/>
      <rect class="cls-7" x="219.45" y="211.32" width="60.36" height="36.55" transform="translate(45.61 -41.34) rotate(10.41)"/>
      <rect class="cls-9" x="218.35" y="223.4" width="60.57" height="24.39" transform="translate(46.68 -41.06) rotate(10.41)"/>
      <rect x="217.43" y="177.5" width="33.48" height="66.24" transform="translate(41.93 -38.86) rotate(10.41)"/>
    </g>
    <g>
      <rect class="cls-10" x="225.56" y="188.14" width="51.97" height="51.37" transform="translate(42.79 -41.95) rotate(10.41)"/>
      <rect class="cls-11" x="224.71" y="197.5" width="50.28" height="41.78" transform="translate(43.59 -41.56) rotate(10.41)"/>
      <rect class="cls-12" x="223.89" y="206.52" width="50.92" height="32.74" transform="translate(44.4 -41.4) rotate(10.41)"/>
      <rect class="cls-8" x="217.98" y="214.8" width="58.76" height="34.22" transform="translate(45.99 -40.89) rotate(10.41)"/>
      <rect class="cls-5" x="217.18" y="223.63" width="61.37" height="25.55" transform="translate(46.81 -40.91) rotate(10.41)"/>
      <rect class="cls-9" x="216.52" y="230.85" width="59.68" height="18.12" transform="translate(47.42 -40.58) rotate(10.41)"/>
    </g>
    <path class="cls-4" d="M219.67,166.14l-14.8,79.04,78.1,14.62,14.8-79.04-78.1-14.62Zm51.86,76.73l-49.87-9.34,9.45-50.47,49.87,9.34-9.45,50.47Z"/>
    <g>
      <rect class="cls-10" x="119.21" y="165.75" width="51.97" height="51.37" transform="translate(36.99 -23.09) rotate(10.41)"/>
      <rect class="cls-11" x="118.36" y="175.11" width="50.28" height="41.78" transform="translate(37.79 -22.71) rotate(10.41)"/>
      <rect class="cls-12" x="117.54" y="184.13" width="50.92" height="32.74" transform="translate(38.6 -22.55) rotate(10.41)"/>
      <rect class="cls-8" x="111.63" y="192.41" width="58.76" height="34.22" transform="translate(40.19 -22.04) rotate(10.41)"/>
      <rect class="cls-5" x="110.83" y="201.24" width="61.37" height="25.55" transform="translate(41.02 -22.05) rotate(10.41)"/>
      <rect class="cls-9" x="110.17" y="208.46" width="59.68" height="18.12" transform="translate(41.62 -21.73) rotate(10.41)"/>
    </g>
    <path class="cls-3" d="M114.88,145.02l-14.83,79.24,75.56,14.14,14.83-79.24-75.56-14.14Zm49.75,76.5l-48.25-9.03,9.47-50.6,48.25,9.03-9.47,50.6Z"/>
  </g>
</svg>