<?xml version="1.0" encoding="UTF-8"?>
<svg id="Ears" xmlns="http://www.w3.org/2000/svg" viewBox="0 0 500 500">
  <defs>
    <style>
      .cls-1 {
        fill: #a7a7a7;
      }

      .cls-2 {
        fill: #dcdbda;
      }
    </style>
  </defs>
  <g id="__grey" data-name="1_grey">
    <g>
      <path class="cls-2" d="M162.56,123.34c.29,.12,.61,.17,.91,.24,4.09,.87,8.16,.34,12.17-.47,5.14-1.04,10.24-.9,15.28-2.23,.06-.02,.12-.03,.18-.05,4.77-1.3,14.42-2.14,17.13-7.08,1.37-2.5-.42-7.05-1.32-9.56-1.4-3.93-4.53-8.48-8.68-9.37-4.32-.93-8.63,1.89-12.12,4-4.49,2.71-8.7,5.85-12.91,8.98-1.87,1.39-3.83,3.53-5.48,5.21-2.26,2.32-4.28,4.84-6.03,7.58-.99,1.56-.88,2.05,.86,2.75Z"/>
      <path class="cls-1" d="M177.65,113.98c3.82-8.24,12.06-12.11,17.23-19.11,.03-.04,.07-.07,.1-.11-3.19,.51-6.26,2.48-8.86,4.06-4.49,2.71-8.7,5.85-12.91,8.98-1.87,1.39-3.83,3.53-5.48,5.21-2.26,2.32-4.28,4.84-6.03,7.58-.99,1.56-.88,2.05,.86,2.75,.29,.12,.61,.17,.91,.24,4.09,.87,8.16,.34,12.17-.47,1.51-.3,3.01-.5,4.51-.67-3.01-1.22-4.61-3.89-2.5-8.46Z"/>
      <path class="cls-2" d="M360.04,143.24c-.99-4.51-3.15-9.52-4.07-11.2-3.28-5.99-5-13.09-9.19-18.61-1.53-2.02-3.77-3.64-6.3-3.83-2.16-.16-4.25,.72-6.23,1.58-5.33,2.32-11.63,6.07-15.19,10.77-2.95,1.2-3.18,6.13-1.58,8.42,1.36,1.95,3.29,3.61,4.75,5.5,1.85,2.38,4.69,4.08,7.31,5.48,8.13,4.35,19.02,12.99,28.95,9.93,2.37-.73,2.38-4.21,1.54-8.05Z"/>
      <path class="cls-1" d="M360.04,143.24c-.99-4.51-3.15-9.52-4.07-11.2-3.28-5.99-5-13.09-9.19-18.61-.41-.53-.86-1.04-1.36-1.5,1.29,2.07,1.72,5.12,2.09,7.31,1.28,7.56,2.64,16.16,1.11,23.78-.52,2.58-1.69,4.8-4.36,5.55-.54,.15-1.07,.21-1.59,.2,5.18,2.51,10.63,4.11,15.82,2.51,2.37-.73,2.38-4.21,1.54-8.05Z"/>
    </g>
    <g>
      <path d="M364.17,146.67c-.21-8.3-5.86-15.31-8.83-22.74-1.51-3.76-2.54-7.78-4.81-11.13-2.89-4.26-10.09-7.63-15.01-4.94-.61,.34-1.14,.82-1.89,.94-4.45,.72-8.08,3.09-11.46,5.86-3.69,3.02-7.24,6.61-8.52,11.35-.07,.26-.13,.52-.19,.78-.24,1.14-.31,2.31-.07,3.44,.41,1.97,2.52,4.3,4.08,5.56,3.12,2.51,6.42,4.82,9.7,7.13,1.99,1.4,4.14,2.58,6.21,3.86,1.84,1.14,3.59,2.45,5.58,3.29,5.24,2.23,10.9,4.85,16.8,5.27,6.17,.44,8.57-2.58,8.42-8.67Zm-34.62-5.32c-2.62-1.4-5.46-3.09-7.31-5.48-1.47-1.89-3.39-3.55-4.75-5.5-1.6-2.3-1.38-7.22,1.58-8.42,3.56-4.7,9.85-8.45,15.19-10.77,1.99-.86,4.07-1.74,6.23-1.58,2.53,.19,4.77,1.81,6.3,3.83,4.18,5.52,5.91,12.62,9.19,18.61,.92,1.68,3.08,6.69,4.07,11.2,.84,3.84,.83,7.32-1.54,8.05-9.93,3.06-20.82-5.57-28.95-9.93Z"/>
      <path d="M161.9,126.64c1.7,.51,3.38,.79,4.79,.64,3.46,.05,6.54-.29,9.53-1.01,2.37-.57,4.73-1.14,7.16-1.36,5.27-.47,10.65-1.67,15.71-3.12,3.57-1.03,11.31-1.59,13.4-5.14,1.89-3.21-1.31-7.77-2.06-10.84-1.08-4.42-3.63-8.05-6.35-11.5-2.67-3.38-8.72-4.27-12.56-2.22-3.57,1.91-7.28,3.46-10.57,5.98-3.86,2.95-7.68,5.96-11.55,8.9-3.38,2.57-6.05,5.94-8.68,9.3-1.11,1.42-1.82,3.09-3.19,4.36-1.09,1.01-.8,1.8,.18,3.12,1.08,1.46,2.45,2.36,4.2,2.89Zm-.21-6.05c1.75-2.74,3.77-5.26,6.03-7.58,1.64-1.69,3.61-3.82,5.48-5.21,4.2-3.13,8.42-6.26,12.91-8.98,3.48-2.11,7.79-4.93,12.12-4,4.15,.89,7.27,5.44,8.68,9.37,.9,2.51,2.7,7.06,1.32,9.56-2.71,4.93-12.36,5.78-17.13,7.08-.06,.02-.12,.03-.18,.05-5.04,1.33-10.14,1.2-15.28,2.23-4,.81-8.07,1.34-12.17,.47-.31-.07-.62-.12-.91-.24-1.74-.7-1.86-1.19-.86-2.75Z"/>
    </g>
  </g>
</svg>