<?xml version="1.0" encoding="UTF-8"?>
<svg id="Headwear" xmlns="http://www.w3.org/2000/svg" viewBox="0 0 500 500">
  <defs>
    <style>
      .cls-1 {
        fill: #f8ccd4;
      }

      .cls-2 {
        fill: #fff;
      }

      .cls-3 {
        fill: #fbfaf9;
      }

      .cls-4 {
        fill: #dcdbda;
      }
    </style>
  </defs>
  <g>
    <path class="cls-3" d="M385.69,139.99c-.52-4.8-1.07-9.6-1.39-14.37-.8-12.01-5.34-20.97-12.53-30.28-1.7-2.2-3.98-3.86-6.27-5.44-4.73-3.27-9.68-6.35-15.16-8.09-12.67-4.01-26.5-.31-38.68,5.03-3.42,1.5-4.56,.24-7.55-1.18-17.26-8.2-37.18-16.12-56.29-18.1-13.09-1.36-27.57-1.24-40.58,.78-2.03,.32-4.07,.68-6.05,1.26-1.66,.49-3.94,2.17-5.55,2.3-3.22,.27-8.24-3.02-11.44-3.97-16.34-4.83-34.97,.66-47.03,12.7-7.17,7.16-12.03,16.44-14.39,26.26-1.18,4.93-1.75,10.03-1.65,15.1,.04,1.97,.86,4.41,.58,6.32-.32,2.2-2.39,4.27-3.61,6.05-6.1,8.89-10.47,18.82-14.27,28.87-2.73,7.21-5.09,14.64-7.15,22.06-.58,2.09-1.15,4.39-.24,6.36,.39,.85,1.16,1.63,2.1,1.67,1.27,.06,2.19-1.18,2.72-2.34,1.56-3.45,1.41-7.17,2.87-10.73,1.74-4.24,3.87-8.32,6.35-12.17,7.27-11.25,17.64-20.42,29.82-26.02,31.18-14.35,68.59-9.37,101.23-3.64,18.45,3.24,35.66,8.31,51.44,18.6,10.21,6.66,20.08,12.16,28.74,21.01,16.04,16.41,26.53,37.94,29.22,60.76,.38,3.25,.61,6.52,.68,9.8,.27,12.45-1.47,24.96-5.26,36.83-2.34,7.3-5.14,14.57-9.26,21.07-4.1,6.46-8.8,10.47-15.24,14.33-4.34,2.6-8.78,5.04-13.3,7.3-17.3,8.65-35.9,14.51-54.85,18.24-8.99,1.77-17.94,2.33-26.89,3.79-9.45,1.54-19.1,2.24-28.67,1.53-15.47-1.15-28.16-7.3-41.77-14.17-2.67-1.35-5.23-2.9-7.82-4.4-1.26-.73-2.53-1.46-3.81-2.14-.78-.41-1.73-.83-2.39-1.41s-.96-1.16-1.81-1.5c-.23-.09-.5-.17-.73-.06-.48,.23-.31,.95-.07,1.42,2.93,5.77,6.36,11.51,11.35,15.74,2.54,2.15,5.93,3.59,8.9,5.03,3.23,1.56,6.54,2.98,9.89,4.26,5.11,1.96,10.33,3.64,15.6,5.13,45.47,12.82,91.59,2.21,135.05-13.65,7.76-2.83,15.51-5.86,22.48-10.29,4.99-3.18,10.81-7.29,13.69-12.64s5.27-11.75,8.38-17.49c7.19-13.26,13.95-26.82,19.11-41.01,5.76-15.86,7.3-33.87,7.56-50.62,.16-10.27-.21-20.56-1.47-30.76-1.15-9.36-3.19-18.04-3.4-27.48-.11-5.2-.63-10.43-1.2-15.66Z"/>
    <path class="cls-4" d="M287.52,109c6.48-6.54,14.29-11.89,20.88-18.3,1.48-1.43,3.18-3.08,5.03-4.61-.59,.25-1.19,.5-1.77,.76-1.69,.74-2.82,.81-3.89,.52-5.66,3.06-11.49,5.8-16.98,9.2-.41,.26-.85,.53-1.3,.81-.91,1.03-1.77,2.09-2.55,3.18-.72,1.01-1.78,2.45-2.43,3.92-.22,.74-.4,1.48-.55,2.22,0,.16-.02,.33,0,.48,.08,.66,.36,1.16,.74,1.57,.84,.3,1.83,.33,2.82,.26Z"/>
    <path class="cls-4" d="M241.54,138.44c18.45,3.24,35.66,8.31,51.44,18.6,10.21,6.66,20.08,12.16,28.74,21.01,16.04,16.41,26.53,37.94,29.22,60.76,.38,3.25,.61,6.52,.68,9.8,.27,12.45-1.47,24.96-5.26,36.83-2.34,7.3-5.14,14.57-9.26,21.07-2.57,4.06-5.39,7.15-8.72,9.84,12.05-7.84,22-20.98,27.13-33.52,7.73-18.87,3.3-37.65,.78-57.07-.06-.43-.02-.8,.05-1.15-1.88-8.77-4.41-17.42-8.03-25.57-10.07-22.66-31.09-40.04-52.25-51.98-13.57-7.65-28.41-14.15-43.86-17-14.29-2.64-28.8-3.71-43.27-4.75-18.78-1.35-38.05-1.59-56.09,4.58-13.79,4.72-25.89,13.53-36.09,23.81-10.16,10.25-19.33,23.23-19.63,38.17,0,.24-.04,.46-.09,.68,.4,.44,.92,.76,1.51,.78,1.27,.06,2.19-1.18,2.72-2.34,1.56-3.45,1.41-7.17,2.87-10.73,1.74-4.24,3.87-8.32,6.35-12.17,7.27-11.25,17.64-20.42,29.82-26.02,31.18-14.35,68.59-9.37,101.23-3.64Z"/>
    <g>
      <path class="cls-4" d="M307.94,325.7c-1.91,1.16-3.71,2.55-6.01,3.8-4.46,2.42-9.33,3.98-14.06,5.77-7.37,2.8-15.33,4.95-22.84,6.49-12.5,2.57-25.08,4.9-37.77,6.3-18.08,1.99-35.34,2.77-52.94-2.98-11.14-3.64-21.8-9.08-30.24-17.33-2.3-2.25-5.84,1.28-3.54,3.54,16.26,15.9,39.57,22.02,61.49,25,6.58,.89,13.21,1.44,19.85,1.36,6.52-.08,13.03-.71,19.47-1.69,12.23-1.85,24.34-4.96,36.09-8.79,7.47-2.44,14.83-5.38,21.64-9.32,4.76-2.75,15.87-8.12,15.56-14.61-2.76,.35-4.79,1.29-6.72,2.47Z"/>
      <path class="cls-4" d="M143.57,74.83c-2.69,1.88-5.82,5.64-6.68,6.58-4.06,4.39-7.76,9.09-10.45,14.46-3.5,7-5.46,14.77-5.66,22.59-.05,2.1-.51,6.96,2.9,6.91,2.93-.04,3.65-5.47,4.06-7.6,2.86-14.75,7.72-29.34,18.19-40.49,.63-.67,1.31-1.41,1.34-2.33,.1-2.63-2.81-.74-3.7-.12Z"/>
      <path class="cls-4" d="M306.78,88.44c-1.07-3.5-8.02-6.08-12.05-7.45-10.68-3.64-21.86-9.27-33.23-10.01-11.2-.73-22.07-3.23-33.42-3.63-7.55-.27-15.11-.03-22.64,.69-1.34,.13-2.5,1.06-2.5,2.5,0,1.25,1.15,2.63,2.5,2.5,14.21-1.35,28.59-1.01,42.71,1.13,15.83,2.4,34.26,7.47,47.92,16.02,1.16,.73,4.69,4.32,5.97,4.28,.83-.03,1.55-.55,2.21-1.06,2.37-1.81,2.98-3.47,2.52-4.97Z"/>
      <path class="cls-4" d="M386.25,138.86c-.71-9.25-2.57-18.42-5.7-27.16-.42-1.16-9.02-18.49-10.86-13.81-.12,.31-.05,.66,.02,.99,1.07,4.68,3.19,7.95,5.17,12.09,2.21,4.62,2.88,10.62,3.32,15.66,.91,10.42-.49,20.98-3.25,31.04-1.37,5-3.09,9.9-5.09,14.69-.42,1.02,.29,2.3,1.15,2.82,2.11,1.29,3.78,3.03,5,5.18,1.59,2.8,5.91,.28,4.32-2.52,0-.01-.02-.02-.02-.04,.44-.18,.85-.49,1.18-.97,3.33-4.82,3.76-11.16,4.39-16.81,.78-6.99,.92-14.1,.38-21.17Z"/>
      <path class="cls-4" d="M393.09,224.79c.03-.99,.06-1.97,.09-2.96,0-6.59,1.37-12.73,1.24-19.36-.04-2.31-.09-4.62-.35-6.92-.25-2.26-.71-4.48-1.17-6.71l-3.79-18.41c-.1-.51-.22-1.04-.59-1.41s-1.06-.45-1.36-.03c.68,21.53-2.44,41.54-5.96,62.66-2.85,17.12-8.19,33.81-15.33,49.61-3.12,6.91-7.29,12.82-10.8,19.49-7.36,14.01-16.57,25.29-27.26,36.74-.94,1.01-1.94,2.15-1.95,3.53,3.59,.75,7.23-.79,10.5-2.46,9.35-4.78,17.91-12.63,23.6-21.58,3.85-6.05,6.35-12.88,10.07-19.03,3.14-5.18,6.57-10.28,9.53-15.65,9.75-17.72,12.83-37.58,13.52-57.51Z"/>
    </g>
    <path d="M395.43,198.57c-.09-9.36-1.98-18.53-3.46-27.74-.43-2.68-1.02-5.32-1.73-7.94-.52-1.92-1.98-4.19-2.07-6.09-.96-18.94,.17-39.93-10.56-56.54-11.34-17.54-33.71-25.24-53.66-19.88-5.18,1.39-10.13,3.59-14.68,6.42-11.99-6.93-24.84-12.38-38.18-16.08-15.7-4.36-32.14-6.31-48.43-5.33-9.08,.54-18.11,2.04-26.85,4.44-15.61-7.14-34.56-7.33-49.72,1.16-12.5,7-21.61,19.48-25.3,33.24-2.06,7.68-2.38,15.76-.77,23.55-7.95,12.71-14.39,26.53-19.18,39.85-2.67,7.43-7.17,17.74-6.28,25.71,.18,1.62,1.65,4.35,3.71,4.08,1.87-.24,3.76-4.08,4.64-5.54,2.7-4.53,4.44-9.54,6.55-14.35,3.11-7.06,7.7-13.34,13.23-18.7,22.14-21.41,53.07-22.76,81.83-21.2,34.87,1.89,72.3,10.24,100.54,31.75,22.78,17.35,40.52,42.11,43.13,71.51,1.24,14.02-.07,28.3-4.1,41.79-1.9,6.35-4.17,13.75-8.13,19.15-6.42,8.75-12.74,14.19-22.26,19.27-9.88,5.27-20.14,9.83-30.72,13.51-15.11,5.27-30.84,8.77-46.77,10.35-15.38,1.53-30.47,3.63-45.91,1.16-10.81-1.73-20.98-6.13-30.64-11.12-4.38-2.26-8.7-4.63-12.9-7.2-2.05-1.25-4.07-2.55-6.05-3.89-.82-.56-3.05-2.56-4.12-1.58-.62,.57-.21,2.9-.11,3.65,.18,1.34,.55,2.66,1.05,3.92,.95,2.4,2.36,4.59,3.85,6.7,2.44,3.46,5.16,6.75,8.27,9.63,2.92,2.7,6.4,5.49,9.99,7.18,6.05,2.83,12.33,5.17,18.7,7.17,7.39,2.33,14.94,4.41,22.6,5.6,10.96,1.7,22.37,2.82,33.4,1.15,4.3-.65,8.44-.77,12.77-1.22,14.62-1.54,28.46-5.29,42.8-8.83,13.11-3.24,25.73-8.17,38.28-13.16,15.04-5.98,25.69-13.23,34.06-27.09,7.25-19.12,21.71-35.58,27.22-55.18,5.77-20.55,6.18-42.1,5.98-63.3Zm-3.67,15.33c-.26,16.75-1.8,34.76-7.56,50.62-5.96,16.39-14.63,32.33-23.48,47.31-10.59,17.93-29.2,28.79-48.87,34.82-11.36,3.48-22.76,6.87-34.29,9.76-22.7,5.68-46.11,9.34-69.57,7.62-7.65-.56-15.14-2.34-22.5-4.42-1.63-.46-3.25-.94-4.86-1.43-7.01-2.16-13.91-4.72-20.53-7.92-.74,0-2.1-1.09-2.73-1.47-.88-.52-1.73-1.09-2.57-1.68-1.66-1.19-3.21-2.51-4.66-3.95-2.74-2.72-5.78-5.7-7.83-9-.89-1.43-2.37-3.38-2.17-5.14,.17-1.46,2.14,.73,2.64,.99,1.56,.8,3.1,1.61,4.61,2.47,2.98,1.7,5.9,3.52,8.96,5.06,13.61,6.87,26.3,13.02,41.77,14.17,9.56,.71,19.22,0,28.67-1.53,8.95-1.46,17.9-2.02,26.89-3.79,18.95-3.73,37.56-9.59,54.85-18.24,4.52-2.26,8.96-4.7,13.3-7.3,6.44-3.86,11.14-7.87,15.24-14.33,4.12-6.5,6.93-13.77,9.26-21.07,3.79-11.87,5.53-24.38,5.26-36.83-.07-3.27-.3-6.55-.68-9.8-2.69-22.82-13.17-44.35-29.22-60.76-8.66-8.85-18.53-14.35-28.74-21.01-15.78-10.29-32.98-15.36-51.44-18.6-32.64-5.73-70.05-10.71-101.23,3.64-12.18,5.61-22.55,14.78-29.82,26.02-3.68,5.69-6.57,11.88-8.57,18.35-.55,1.78-1.48,6.86-3.29,3.54-1.73-3.19,.35-8.05,1.27-11.21,1.24-4.24,2.77-8.38,4.26-12.53,4.35-12.12,10.11-22.46,17.05-33.2,.87-1.35,6.61-12.59,7.65-12.54-2.7-.15-4.25,2.75-6.12,4.12-2.26-4.71-.59-13.06,.55-17.99,1.45-6.24,4.07-12.2,7.64-17.52,8.21-12.23,21.31-20.11,36.01-21.4,8.25-.73,16.63,.45,24.35,3.43-2.19,.69-3.82,1.24-5.37,3.05-2.56,2.99,3.19,.76,4.03,.48,2.88-.97,5.8-1.84,8.75-2.59,6.14-1.57,12.39-2.66,18.69-3.29,10.98-1.09,22.07-.82,32.99,.68,7.49,.58,15.8,1.5,22.56,4.88,4.47,2.23,9.56,2.8,14.12,4.82,4.09,1.8,8.08,4.16,12.29,5.69,1.54,.56,6.28,1.56,7.99,3.18-.77-.73-16.95,14.68-18.33,16.29-1.27,1.47-2.58,3.23-2.49,5.25,2.49,.24,4.55-3.66,6.07-5.06,6-5.57,12.55-11.99,19.81-15.84-.06-.04-.12-.07-.18-.11,11.3-6.54,24.84-8.85,37.79-5.08,9.3,2.71,17.84,8.31,23.57,16.18,7.58,10.42,8.97,21.96,9.69,34.42,.87,15.06,2.19,31.58-3.74,45.61-.32,.75-.22,1.6,.54,2.05,.63,.37,1.74,.21,2.05-.54,2.26-5.35,3.84-10.94,4.75-16.63,4.04,16.06,5.13,33.1,4.89,49.29Z"/>
  </g>
  <g>
    <path class="cls-1" d="M356.37,127.92c.07-3.08-.36-6.19-1.26-9.13-.58-1.88-1.34-3.75-2.3-5.47-.57-1.03-1.57-2.01-2.69-2.49-.2-.31-.38-.64-.6-.94-4.17-5.83-11.5-9.98-18.76-7.79-.69,.21-1.18,.63-1.47,1.15-.8,.19-1.6,.4-2.39,.65-.48-.03-.99,.08-1.46,.3-3.01,1.42-6.1,2.73-9.04,4.28-.71,.37-1.38,.79-2.02,1.26-3.78,1.72-5.78,6.29-3.39,10.29,.63,1.05,1.71,2.11,2.92,2.71,3.33,3.8,8.42,5.08,13.13,6.29,5.11,1.31,9.85,3.27,14.22,6.26,2.12,1.45,4.08,3.13,5.88,4.96,.92,.94,1.74,2.06,2.94,2.65,1.53,.75,3.27,.32,4.43-.88,1.92-1.99,2.61-5.47,2.73-8.12,.08-1.95-.19-4.05-.86-5.96Z"/>
    <path d="M358.08,124.17c-.82-5.87-2.77-11.58-6.49-16.26-3.42-4.3-8.28-7.42-13.78-8.14-6.27-.82-12.48,1.28-18.18,3.68-9.56,4.04-19.83,12.49-7.9,21.4,3.94,2.94,8.81,3.77,13.5,4.81,2.49,.55,4.99,1.17,7.3,2.27,2.13,1.02,4.11,2.35,5.96,3.82,1.86,1.48,3.62,3.1,5.38,4.7,1.63,1.48,3.41,3.6,5.62,4.16,4.94,1.24,8.4-6.67,9.05-10.57,.53-3.18-.01-6.72-.46-9.88Zm-8.92,16.97c-1.7-1.22-3.19-2.82-4.73-4.22-1.55-1.4-3.13-2.76-4.78-4.03-3.45-2.64-7.19-4.52-11.41-5.6-4.2-1.07-8.76-1.49-12.64-3.53-10.26-5.41-4.51-13.04,3.28-16.7,4.89-2.3,10.36-4.38,15.82-4.47,10.98-.18,17.88,9.44,19.96,19.27,.96,4.55,1.94,9.24,.7,13.84-.79,2.9-2.34,8.2-6.19,5.44Z"/>
  </g>
  <g>
    <path class="cls-1" d="M145.15,96.67c.55-2.38,1.48-4.68,2.75-6.75,.81-1.33,1.76-2.61,2.83-3.74,.64-.67,1.59-1.24,2.55-1.38,.21-.2,.42-.41,.64-.6,4.34-3.65,10.76-5.4,15.89-2.31,.49,.3,.78,.72,.9,1.17,.58,.3,1.15,.62,1.7,.96,.38,.07,.74,.25,1.06,.51,2.03,1.67,4.14,3.28,6.09,5.05,.47,.43,.91,.88,1.3,1.36,2.56,2.06,3.2,5.95,.59,8.54-.68,.68-1.72,1.28-2.77,1.51-3.3,2.26-7.44,2.24-11.29,2.25-4.17,0-8.19,.58-12.11,2.02-1.91,.7-3.74,1.6-5.47,2.65-.89,.54-1.73,1.24-2.77,1.46-1.32,.27-2.57-.4-3.22-1.54-1.09-1.9-.93-4.7-.5-6.76,.32-1.51,.94-3.07,1.83-4.4Z"/>
    <path d="M142.3,100.95c-.26,3.11,.84,9.84,4.87,9.86,1.8,0,3.58-1.27,5.12-2.09,1.66-.88,3.32-1.78,5.04-2.55,1.7-.77,3.48-1.4,5.31-1.77,1.98-.4,4.02-.38,6.03-.32,3.79,.12,7.69,.44,11.28-1.05,10.87-4.5,4.66-12.97-1.88-17.94-3.89-2.96-8.25-5.77-13.21-6.37-4.35-.52-8.69,.92-12.15,3.54-3.76,2.85-6.37,6.85-8.14,11.19-.95,2.33-2.06,4.94-2.28,7.48Zm2.12,1.89c-.06-3.77,1.61-7.17,3.24-10.46,3.51-7.13,10.67-13.15,19.05-10.87,4.17,1.13,7.95,3.8,11.25,6.51,5.25,4.33,8.17,11.29-.75,13.43-3.37,.81-6.95,.24-10.38,.24-3.44,0-6.67,.71-9.83,2.06-1.52,.65-2.99,1.39-4.45,2.16-1.46,.77-2.91,1.71-4.45,2.31-3.49,1.36-3.65-3-3.68-5.38Z"/>
  </g>
  <g>
    <path d="M209.01,84.2c-1.75-.77-3.74-.8-5.54-.15-1.73,.62-3.56,1.79-4.35,3.51-.82,1.8-.32,3.78,1.2,5.03,.69,.56,1.47,.98,2.29,1.28,1.26,.67,2.81,.98,4.19,.94,1.68-.05,3.44-.64,4.52-1.98,2.24-2.77,.87-7.21-2.32-8.61Z"/>
    <g>
      <path d="M231.37,109.57l.04-.02-.04,.02h0Z"/>
      <path d="M233.67,105.87c0-.1-.07-.57,0-.16-.02-.14,.01-.31,.02-.45,.04-.6,.14-1.2,.29-1.78,.01-.05,.03-.11,.04-.17,.05-.14,.09-.29,.14-.43,.1-.28,.21-.56,.34-.83,.49-1.07,3.29-1.03,4.31-1.81,.31-.24,.58-.51,.83-.8,.75-.85,1.76-2.67,.55-3.55-.71-.51-2.2-.26-2.99-.09-1.66,.35-3.13,.3-4.75-.23-1.3-.43-2.56-1.28-3.99-1.09-2.68,.35-.19,4.16,.82,5.02,.13,.11,2.32,1.75,2.4,1.58-.74,1.72-1.06,3.58-.94,5.46-.03,.01-.06,.02-.08,.03-1.59,.78-3.01,1.93-4.11,3.32-.62,.79-2.89,3.8-1.07,4.37,.84,.26,1.41-.03,1.85-.71,.36-.55,.62-1.16,.95-1.72,.75-1.27,2.84-3.63,4.36-1.96,.07,.08,.14,.15,.21,.22,.19,.22,.36,.44,.52,.68,.09,.12,.17,.25,.25,.38,.02,.04,.03,.04,.04,.05,.02,.04,.03,.08,.04,.1,.13,.25,.25,.52,.35,.78,.05,.13,.09,.25,.13,.38,.02,.05,.03,.11,.05,.16,.11,.58,.19,1.14,.19,1.74,0,.36,.3,.79,.56,1,.29,.23,.74,.37,1.11,.31,.38-.06,.77-.24,1-.56,.25-.35,.31-.68,.31-1.11,.02-2.74-1.43-5.49-3.64-7.1,0-.04,.01-.08,0-.13-.03-.3-.06-.6-.07-.9Z"/>
    </g>
    <path class="cls-1" d="M190.92,104.54c.59-1.08,1.55-1.9,2.48-2.69,.97-.83,1.96-1.63,3.01-2.35,4.45-3.04,10.19-4.67,15.1-1.67,.25,.15,.42,.34,.52,.55,2.44,1.66,4.18,4.19,4.17,7.34,0,2.09-.92,4.31-2.61,5.6-1.97,1.51-4.7,1.82-7.1,2.05-2.52,.24-5.06,.24-7.58-.07-2.48-.3-5.13-.82-6.94-2.67-1.56-1.6-2.16-4.08-1.06-6.09Z"/>
    <path d="M259.78,91.44c1.85-.5,3.81-.23,5.5,.68,1.61,.87,3.25,2.3,3.77,4.13,.54,1.9-.25,3.79-1.94,4.79-.77,.45-1.6,.75-2.45,.92-1.35,.47-2.93,.54-4.28,.29-1.66-.3-3.3-1.15-4.17-2.64-1.8-3.08,.22-7.26,3.59-8.17Z"/>
    <path class="cls-1" d="M274.61,114.27c-.42-1.16-1.25-2.11-2.04-3.04-.83-.96-1.69-1.9-2.63-2.77-3.94-3.67-9.37-6.15-14.68-3.92-.27,.11-.47,.28-.6,.46-2.66,1.27-4.76,3.51-5.23,6.63-.31,2.07,.26,4.4,1.73,5.93,1.72,1.79,4.37,2.51,6.71,3.1,2.46,.62,4.97,1,7.5,1.07,2.5,.07,5.19-.04,7.27-1.6,1.79-1.34,2.75-3.71,1.97-5.87Z"/>
  </g>
  <g>
    <path class="cls-2" d="M206.11,86c-.17-.53-.68-.82-1.23-.7-1.59,.37-3.04,1.52-3.71,3.01-.11,.25-.18,.49-.1,.77,.06,.23,.24,.48,.46,.6,.23,.12,.51,.18,.77,.1,.23-.08,.49-.23,.6-.46,.12-.27,.28-.52,.45-.76,.21-.26,.44-.49,.7-.7,.23-.16,.47-.31,.73-.43,.21-.08,.42-.16,.64-.21,.51-.12,.86-.73,.7-1.23Z"/>
    <path class="cls-2" d="M206.31,88.34l-.16-.2c-.12-.12-.27-.21-.44-.26l-.27-.04c-.18,0-.35,.05-.5,.14l-.56,.28c-.12,.06-.21,.15-.28,.26-.09,.1-.15,.21-.18,.34-.04,.13-.05,.27-.02,.4,0,.13,.05,.26,.12,.37l.16,.2c.12,.12,.27,.21,.44,.26l.27,.04c.18,0,.35-.05,.5-.14l.56-.28c.12-.06,.21-.15,.28-.26,.09-.1,.15-.21,.18-.34,.04-.13,.05-.27,.02-.4,0-.13-.05-.26-.12-.37Z"/>
    <g>
      <path class="cls-2" d="M261.34,92.66c-2.12,.06-4.02,1.5-4.67,3.51-.16,.5,.19,1.11,.7,1.23,.55,.12,1.06-.17,1.23-.7,.02-.05,.03-.1,.05-.15l.02-.05v-.03s.05-.08,.07-.12c.09-.17,.19-.33,.3-.49,.02-.02,.04-.05,.06-.07,.06-.07,.13-.14,.2-.21,.07-.07,.14-.14,.21-.2,.03-.02,.06-.05,.08-.07,.15-.11,.31-.21,.48-.3,.07-.04,.14-.07,.22-.11h-.03s.03,0,.04,0h.01s.06-.03,.09-.04c.17-.06,.35-.11,.53-.15,.03,0,.07-.01,.1-.02,.1,0,.19-.02,.29-.02,.52-.01,1.02-.45,1-1-.02-.53-.44-1.01-1-1Z"/>
      <path class="cls-2" d="M260.29,94.89c.2-.06,.11-.05,.03-.01h-.03Z"/>
    </g>
    <path class="cls-2" d="M262.02,96.46c-.05-.17-.13-.32-.26-.44l-.2-.16c-.16-.09-.32-.14-.5-.14h-.28c-.14,0-.27,.02-.39,.09-.12,.04-.23,.11-.32,.21-.1,.09-.17,.2-.21,.32-.06,.12-.09,.25-.09,.39l.04,.27c.05,.17,.13,.32,.26,.44l.2,.16c.16,.09,.32,.14,.5,.14h.28c.14,0,.27-.02,.39-.09,.12-.04,.23-.11,.32-.21,.1-.09,.17-.2,.21-.32,.06-.12,.09-.25,.09-.39l-.04-.27Z"/>
    <path class="cls-2" d="M230.96,96.45c-.05-.17-.13-.32-.26-.44l-.2-.16s-.09-.04-.14-.06c0,0,0-.01,0-.02-.04-.12-.11-.23-.21-.32-.09-.1-.2-.17-.32-.21-.12-.06-.25-.09-.39-.09l-.27,.04c-.17,.05-.32,.13-.44,.26l-.16,.2c-.09,.16-.14,.32-.14,.5,0,.02,0,.04,0,.06v.03c.01,.09,.03,.19,.04,.28,0,.04,.01,.08,.03,.11,.04,.11,.08,.23,.15,.34,.07,.1,.14,.2,.23,.29,.09,.09,.19,.16,.29,.23,.1,.07,.23,.11,.33,.15,.04,.01,.07,.02,.11,.03,.11,.02,.26,.05,.38,.04,.14,0,.27-.02,.39-.09,.12-.04,.23-.11,.32-.21,.1-.09,.17-.2,.21-.32,.06-.12,.09-.25,.09-.39l-.04-.27Z"/>
  </g>
  <g>
    <path d="M384.85,215.22c-.11-1.27-2.11-1.28-2,0,.55,6.19,.32,12.42-.73,18.55-.22,1.26,1.71,1.8,1.93,.53,1.09-6.31,1.37-12.71,.8-19.08Z"/>
    <path d="M379.97,231.03c-.03-.27-.09-.51-.29-.71-.17-.17-.46-.3-.71-.29-.49,.02-1.06,.44-1,1,.08,.74,.11,1.49,.05,2.24-.01,.17-.03,.34-.05,.51,0,.04-.01,.09-.02,.13-.01,.09-.03,.19-.04,.28-.06,.37-.14,.73-.24,1.09-.13,.51,.17,1.11,.7,1.23,.52,.12,1.09-.16,1.23-.7,.41-1.56,.54-3.19,.36-4.79Z"/>
    <path d="M379.66,251.49c-1.11,8.09-3.68,15.9-7.62,23.05-.62,1.13,1.1,2.14,1.73,1.01,4.02-7.3,6.69-15.27,7.82-23.53,.17-1.26-1.75-1.8-1.93-.53Z"/>
    <path d="M130.08,101.33c-.56-.15-1.04,.19-1.23,.7-.97,2.61-1.5,5.37-1.61,8.15-.02,.54,.47,1,1,1,.56,0,.98-.46,1-1,.1-2.61,.63-5.17,1.54-7.62,.19-.51-.21-1.1-.7-1.23Z"/>
    <path d="M379.08,135.1c-.2-1.27-2.13-.73-1.93,.53,1.14,7.24,.55,14.65-1.64,21.64-.39,1.23,1.54,1.76,1.93,.53,2.31-7.35,2.84-15.11,1.64-22.71Z"/>
    <path d="M377.05,119.21c-.04-.52-.43-1.03-1-1-.51,.02-1.05,.44-1,1,.12,1.51,.25,3.01,.37,4.52,.04,.52,.43,1.03,1,1,.51-.02,1.05-.44,1-1-.12-1.51-.25-3.01-.37-4.52Z"/>
    <path d="M134.49,91.85c-.06-.23-.24-.48-.46-.6-.23-.12-.51-.18-.77-.1-.24,.08-.48,.23-.6,.46l-.75,1.51c-.12,.24-.17,.5-.1,.77,.06,.23,.24,.48,.46,.6,.23,.12,.51,.18,.77,.1,.24-.08,.48-.23,.6-.46l.75-1.51c.12-.24,.17-.5,.1-.77Z"/>
  </g>
  <g>
    <path d="M153.87,87.81c-.37-.34-1.06-.43-1.41,0-1.63,1.97-3.01,4.12-4.1,6.43-.22,.47-.15,1.1,.36,1.37,.44,.23,1.13,.15,1.37-.36,1.01-2.16,2.33-4.26,3.79-6.02,.33-.4,.42-1.03,0-1.41Z"/>
    <path d="M149.27,98.77c-.06-.12-.15-.21-.26-.28-.1-.09-.21-.15-.34-.18l-.27-.04c-.18,0-.35,.05-.5,.14-.22,.14-.4,.34-.46,.6-.09,.38-.19,.75-.28,1.13-.04,.13-.05,.27-.02,.4,0,.13,.05,.26,.12,.37,.06,.12,.15,.21,.26,.28,.1,.09,.21,.15,.34,.18l.27,.04c.18,0,.35-.05,.5-.14,.22-.14,.4-.34,.46-.6,.09-.38,.19-.75,.28-1.13,.04-.13,.05-.27,.02-.4,0-.13-.05-.26-.12-.37Z"/>
    <path d="M348.8,113.61c-.65-1.11-2.38-.1-1.73,1.01,1.91,3.23,3.05,6.88,3.29,10.63,.08,1.28,2.08,1.29,2,0-.26-4.1-1.47-8.09-3.56-11.64Z"/>
    <path d="M352.96,130.75c-.17-.17-.46-.3-.71-.29-.26,.01-.53,.1-.71,.29-.18,.2-.29,.44-.29,.71v1.98c0,.26,.11,.53,.29,.71s.46,.3,.71,.29c.26-.01,.53-.1,.71-.29,.18-.2,.29-.44,.29-.71v-1.98c0-.26-.11-.53-.29-.71Z"/>
  </g>
</svg>