<?xml version="1.0" encoding="UTF-8"?>
<svg id="Headwear" xmlns="http://www.w3.org/2000/svg" xmlns:xlink="http://www.w3.org/1999/xlink" viewBox="0 0 500 500">
  <defs>
    <style>
      .cls-1 {
        fill: url(#linear-gradient);
      }

      .cls-2 {
        fill: url(#radial-gradient);
      }
    </style>
    <radialGradient id="radial-gradient" cx="242.86" cy="91.8" fx="242.86" fy="91.8" r="31.38" gradientTransform="matrix(1, 0, 0, 1, 0, 0)" gradientUnits="userSpaceOnUse">
      <stop offset="0" stop-color="#666"/>
      <stop offset="1" stop-color="#333"/>
    </radialGradient>
    <linearGradient id="linear-gradient" x1="207.71" y1="129.95" x2="299.39" y2="129.95" gradientTransform="matrix(1, 0, 0, 1, 0, 0)" gradientUnits="userSpaceOnUse">
      <stop offset="0" stop-color="#333"/>
      <stop offset=".53" stop-color="#646464"/>
      <stop offset="1" stop-color="#333"/>
    </linearGradient>
  </defs>
  <g id="_" data-name="1">
    <path class="cls-2" d="M219.43,122.85c1.13,2,3.58,3.54,5.53,4.69,2.54,1.49,5.09,3.49,7.86,4.42,5.28,1.77,10.84,2.78,16.32,3.49,5.32,.7,10.7,1.21,16.07,1.37,3.87,.11,7.77-.3,11.53-1.22,1.64-.4,9.35-2.12,9.61-4.22,1.23-10.09,2.56-21.06-1.48-30.72-6.83-16.31-27.58-22.87-43.63-17.79-7.88,2.49-14.47,7.84-18.52,15.05-2.12,3.76-3.5,7.95-3.98,12.24-.25,2.26-.38,4.51-.27,6.79,.09,2.01-.09,4.06,.96,5.89Z"/>
    <path class="cls-1" d="M294.34,122.78c-1.53,.17-3.26,1.22-3.4,2.89-.06,.73-.53,1.18-1.08,1.35-.36,3.28-.27,5.95-3.19,7.83-8.09,5.21-19.44,4.77-28.64,4.14-6.16-.42-11.95-1.67-18.01-2.46-5.11-.67-9.53-2.6-14.13-4.88-3.54-1.76-6.7-4.19-9.16-7.3-.36-.45-.69-.93-.85-1.48-.15-.52-.13-1.08-.11-1.62,.03-.67,.55-6.57-.21-6.9-.35-.15-.65-.45-.79-.92-.47-1.58-2.42-1.83-3.82-1.48-2.17,.55-3.14,2.63-3.25,4.74-.26,5.04,2.79,10.32,5.86,14.11,6.35,7.84,15.58,12.42,25.25,14.75,9.79,2.36,20.37,3.07,30.41,2.16,9.11-.83,18.47-3.56,25.23-10,3.12-2.97,6.33-7.54,4.27-12-.8-1.73-2.4-3.14-4.4-2.93Z"/>
    <path d="M290.39,121.25c.43-6.56,.21-13.16-1.88-19.41-3.02-9-10.04-15.97-18.59-19.89-16.62-7.63-37.73-3.54-48.25,11.99-3.23,4.76-5.27,10.31-5.89,16-2.37-1.69-6.12-1.39-8.4,.56-4.33,3.7-2.55,10.51-.58,14.92,4.67,10.47,14.67,17.57,25.24,21.26,6.22,2.17,12.77,3.25,19.31,3.84,5.69,.51,11.44,.7,17.14,.24,10.78-.86,22.2-4.15,29.63-12.49,3.93-4.41,6.37-11.46,1.68-16.32-2.54-2.63-6.73-2.68-9.39-.71Zm-71.64-11.08c.48-4.3,1.86-8.48,3.98-12.24,4.05-7.21,10.64-12.55,18.52-15.05,16.05-5.08,36.8,1.47,43.63,17.79,4.04,9.65,2.71,20.62,1.48,30.72-.26,2.1-7.97,3.82-9.61,4.22-3.76,.92-7.66,1.33-11.53,1.22-5.37-.16-10.75-.67-16.07-1.37-5.48-.72-11.05-1.72-16.32-3.49-2.77-.93-5.32-2.93-7.86-4.42-1.95-1.15-4.4-2.7-5.53-4.69-1.04-1.83-.86-3.88-.96-5.89-.11-2.27,.02-4.53,.27-6.79Zm75.73,27.53c-6.76,6.44-16.12,9.17-25.23,10-10.04,.91-20.61,.2-30.41-2.16-9.67-2.33-18.9-6.91-25.25-14.75-3.07-3.79-6.12-9.07-5.86-14.11,.11-2.11,1.08-4.18,3.25-4.74,1.4-.36,3.35-.1,3.82,1.48,.14,.47,.44,.77,.79,.92,.76,.33,.23,6.22,.21,6.9-.02,.54-.04,1.1,.11,1.62,.16,.55,.5,1.03,.85,1.48,2.45,3.11,5.62,5.54,9.16,7.3,4.59,2.28,9.01,4.22,14.13,4.88,6.07,.79,11.85,2.04,18.01,2.46,9.2,.63,20.55,1.07,28.64-4.14,2.92-1.88,2.83-4.56,3.19-7.83,.55-.18,1.02-.63,1.08-1.35,.13-1.67,1.87-2.72,3.4-2.89,2-.22,3.6,1.2,4.4,2.93,2.06,4.46-1.15,9.02-4.27,12Z"/>
    <path d="M283.33,111.11c-.15-1.26-2.16-1.28-2,0,.77,6.31,.55,12.7-.71,18.93-.25,1.26,1.67,1.79,1.93,.53,1.29-6.41,1.57-12.97,.78-19.46Z"/>
    <path d="M278.28,124.52c-.54,.02-1,.44-1,1v4.24c0,.52,.46,1.02,1,1,.54-.02,1-.44,1-1v-4.24c0-.52-.46-1.02-1-1Z"/>
    <path d="M222.86,108.74c-.48-.13-1.14,.16-1.23,.7-.56,3.17-.74,6.38-.5,9.59,.04,.54,.43,1,1,1,.51,0,1.04-.46,1-1-.23-3.03-.1-6.07,.43-9.06,.09-.53-.14-1.08-.7-1.23Z"/>
  </g>
</svg>