<svg id="Headwear" xmlns="http://www.w3.org/2000/svg" xmlns:xlink="http://www.w3.org/1999/xlink" viewBox="0 0 500 500"><defs><style>.cls-1{fill:#f5f3ba;}.cls-2{fill:#d8d5a3;}.cls-3{fill:#90cb74;}.cls-4{fill:#7db75e;}.cls-5{fill:#649b45;}.cls-6{fill:url(#radial-gradient);}.cls-7{fill:#fd523b;}.cls-8{fill:#fff;}.cls-9{fill:url(#radial-gradient-2);}.cls-10{fill:#255a2d;}.cls-11{fill:#fcecdb;}.cls-12{fill:#ddd1c5;}</style><radialGradient id="radial-gradient" cx="303.38" cy="100.41" r="18.66" gradientUnits="userSpaceOnUse"><stop offset="0" stop-color="#fff"/><stop offset="0.28" stop-color="#fdfafc"/><stop offset="0.6" stop-color="#f8edf4"/><stop offset="0.92" stop-color="#f0d7e7"/><stop offset="1" stop-color="#eed1e3"/></radialGradient><radialGradient id="radial-gradient-2" cx="155.47" cy="81.08" r="14.41" xlink:href="#radial-gradient"/></defs><path class="cls-1" d="M387.81,110.66c-.7-8-6.58-14-11.86-19.49-1.42-1.49-3.48-1.14-4.95,0A68.24,68.24,0,0,1,355.75,100c-2.78,1.18-2.08,4.29-.07,5.67a9.4,9.4,0,0,0,3.23,3.93,40.4,40.4,0,0,1,7.93,7.58c4.08,5.36,8.26,12,10.35,18.39a3.53,3.53,0,0,0,6.75,0C386.44,127.83,388.54,118.88,387.81,110.66Z"/><path class="cls-2" d="M381.9,96.9a1.64,1.64,0,0,0-1.95-.52,13,13,0,0,0-3.43-4.15,2.06,2.06,0,0,0-2.83,0,2,2,0,0,0,0,2.83c2.95,2.3,4.07,5.85,4.39,9.47A33.92,33.92,0,0,1,377,116.77a20.56,20.56,0,0,1-2,5.06c-1.06,1.74-2.76,2.74-2.11,5a38.15,38.15,0,0,0,5.39,10.6,2.12,2.12,0,0,0,3.45,0,2.51,2.51,0,0,0,.85-.75c2-2.72,2.55-6.08,3.05-9.33.56-3.67,1-7.37,1.29-11.07C387.39,109.45,386.54,102.31,381.9,96.9Z"/><path d="M389.4,108.67a22.46,22.46,0,0,0-4.72-11.35c-2.85-3.62-6.58-6.4-10.27-9.09a1.48,1.48,0,0,0-1.51,0L353.31,99.39a1.5,1.5,0,0,0,1.52,2.59l18.73-10.67c5.85,4.32,11.43,9.16,12.73,16.71a35.71,35.71,0,0,1-.39,11.89A110,110,0,0,1,383.54,131a31.57,31.57,0,0,1-2,5.48c-.7,1.42-2.26,3.17-1.71,4.91.81,2.61,3.11-1.23,3.54-2a29.33,29.33,0,0,0,2.54-5.66,85.49,85.49,0,0,0,2.74-12.18A43.35,43.35,0,0,0,389.4,108.67Z"/><path class="cls-1" d="M409.31,162.26c-.83-4.59-3.26-8.55-4.3-13-.64-2.76-3.95-3.13-5.85-1.54-3,2.48-6,4.91-9,7.28a3.63,3.63,0,0,0-1.45,2.81c-1.11,3.19,1.26,7.64,1.9,10.94,1.5,7.82,2.75,15.87,2.4,23.85-.16,3.76,4.66,4.36,6.53,1.76,4.43-6.15,8.67-14,9.89-21.61A30.75,30.75,0,0,0,409.31,162.26Z"/><path class="cls-2" d="M408.1,164a22,22,0,0,0-1.49-8.07,2,2,0,0,0-1.26-1.25,41.76,41.76,0,0,0-.7-6.41c-.48-2.53-4.34-1.46-3.86,1.06A35.82,35.82,0,0,1,400,165.9c-1.32,4.64-3.53,9.66-7.8,12.28a2,2,0,0,0-.92,2.26,9.54,9.54,0,0,1,.26,3.24c0,1.15,0,2.29.06,3.44a60.57,60.57,0,0,0,.84,7.35,2,2,0,0,0,2.94,1.19c2.84-1.69,4.84-4.91,6.57-7.65.24-.39.48-.79.69-1.19a28.23,28.23,0,0,0,5.58-13A36.66,36.66,0,0,0,408.1,164Z"/><path d="M409.58,158.44a67.58,67.58,0,0,0-5.09-14.4,1.52,1.52,0,0,0-2.06-.54l-13.71,10a1.63,1.63,0,0,0-.49.61c-.29.17-.58.34-.88.48a1.31,1.31,0,0,0-.42.39,1.26,1.26,0,0,0-.27.51,1.11,1.11,0,0,0,0,.6,1,1,0,0,0,.17.56,1.55,1.55,0,0,0,.9.69l.4.05a1.57,1.57,0,0,0,.76-.2,12.28,12.28,0,0,0,2.27-1.51,1.08,1.08,0,0,0,.31-.46l11.14-8.12c5.89,13.26,8.25,29.81-1.58,41.84a24.24,24.24,0,0,1-5.91,5.29c-.66.4-1.94.75-2.3,1.48a1.9,1.9,0,0,0,.53,2.08c.9.65,1.64,0,2.47-.47a26.54,26.54,0,0,0,5.21-4,31.79,31.79,0,0,0,7.09-10.66C411.28,175,411.35,166.47,409.58,158.44Z"/><path class="cls-1" d="M406.5,227.8l-.07-.09v-.4a3.67,3.67,0,0,0-.78-2.14,43.44,43.44,0,0,0,.24-4.45c0-2.45-2.22-3.75-4.43-3.37l-5,.84c-2.94.5-3.09,3.63-1.57,5.47a3.38,3.38,0,0,0-.49,1.74c-.13,7.71-.31,15.52-3.86,22.55a3.5,3.5,0,0,0,6,3.53,66.45,66.45,0,0,0,8.36-17,3.3,3.3,0,0,0,.15-1.56,5,5,0,0,0,1.74-2.41A3.54,3.54,0,0,0,406.5,227.8Z"/><path class="cls-2" d="M406.51,220.53a1.62,1.62,0,0,0-.75-1.07,2,2,0,0,0-3.92.56,42.77,42.77,0,0,1-3.76,17.4,20.22,20.22,0,0,1-4.39,6.51c-2.19,2.06-4.24,3.81-3.76,7.1a2,2,0,0,0,2.94,1.2c4.77-3.23,7.54-8.32,10-13.39C405.61,233.08,407.62,227,406.51,220.53Z"/><path d="M406.82,215.33a1.51,1.51,0,0,0-2.2-.89,13.87,13.87,0,0,1-8.88,1.88c-1.92-.23-1.9,2.78,0,3a16.42,16.42,0,0,0,8.61-1.37c2.79,13.59-3.45,28.53-15.29,35.9-1.63,1-.13,3.62,1.52,2.59A38.08,38.08,0,0,0,408,225.7,34.89,34.89,0,0,0,406.82,215.33Z"/><path class="cls-3" d="M393.23,183c-2.11-17-8.06-33-16.46-48.69-2-3.67-3.71-7.52-6.36-10.74-5.34-6.5-9.48-13.82-15.52-19.81-3.62-3.6-8.79-5.15-12.92-8.17-2.43-1.76-4.46-4-6.74-6C331,86,326.3,84.15,321.1,82.4c-4.69-1.58-9-4.1-13.74-5.82a159.66,159.66,0,0,0-18.82-5.19c-11.32-2.64-22.68-5.28-34.23-6.65-25.85-3.07-51.57,1-76.1,9.08a84.68,84.68,0,0,0-13.1,5.73,117.59,117.59,0,0,0-26.27,19.06c-7.7,7.41-15,15.79-20.32,25.1-1.93,3.4-3.72,6.87-5.51,10.35-1.36,2.64-2.72,5.28-3.81,8a90.86,90.86,0,0,0-3.46,11.59c-2.69,10.67-6.12,21-9.06,31.62-.58,2.09-1.14,4.39-.23,6.36a2.63,2.63,0,0,0,2.09,1.67c1.27.06,2.2-1.18,2.72-2.34,1.56-3.45,1.41-7.17,2.87-10.73a74.51,74.51,0,0,1,6.36-12.17c1.86-2.87.43-6,3.22-8.72,1.83-1.77,4.25-2.78,6.35-4.23,3.56-2.47,6.08-6.13,8.95-9.38s6.44-6.29,10.75-6.77c1.57-.17,3.15,0,4.72-.08,4.93-.28,9.3-3.06,13.58-5.51,6.13-3.51,13.48-6.56,20.06-4,2.18.85,4.11,2.28,6.32,3.07,9.65,3.44,20.85-6.13,30.06-1.64,3.82,1.86,7,5,11.36,5.09,5.91.16,12-.66,17.92-1a4.07,4.07,0,0,1,2.08.25,12,12,0,0,1,1.51,1.27c1.86,1.42,4.48.35,6.81.18,3.88-.3,7.45,2.06,10.39,4.61s5.75,5.48,9.43,6.74c5.85,2,13.09-.47,18,3.3,2.34,1.8,3.43,4.55,4.95,7,1.89,3,3.86,3.75,6.75,5.61,2.73,1.77,5.87,3.5,8.28,5.71,1.87,1.73,2.51,4.25,5.39,4.66,1.58.22,3.24.05,4.71.66,2.61,1.08,3.68,4.16,4.22,6.93.8,4.09,5.31,7.76,7.65,11.25,1.94,2.91,3.75,5.91,5.4,9a21.09,21.09,0,0,0,2.55,4.26c1,1.17,2.22,1.52,2.89,3.17a17.19,17.19,0,0,1,.94,4.39c1,8.36,3.92,16.46,5.22,24.89q.57,4.88.68,9.8a112.73,112.73,0,0,1-5.26,36.83,133.59,133.59,0,0,1-5.1,13.39c-1.68,3.8-3.19,8-6.64,10.48-2.63,1.92-5.36,3.75-7.87,5.81-1.64,1.36-3.63,2.17-5.36,3.46-3.58,2.69-6.82,6.44-11.42,7.28-3.43.63-6.93-.5-10.34.25a86.63,86.63,0,0,0-9.64,3c-3,1.05-5.85,2.18-8.73,3.38s-5.36,3.47-8.56,3.65c-2.88.17-5.26-1.12-8,.12s-6.27,1.27-9.28,1.8c-3.55.61-7.09,1.3-10.64,1.95-2.64.48-4.51,2.43-7.06,3s-4.87-1.33-7.43-1.43c-2-.08-4.08.67-6.15.7-3.47.06-6.94,0-10.4-.27-1.66-.11-3.43-.5-5.08-.46a20.92,20.92,0,0,0-4.73,1.1,7.25,7.25,0,0,1-2.68.37,6.06,6.06,0,0,1-3.61-2.32,5.65,5.65,0,0,0-1.25-1.19,4.41,4.41,0,0,0-1.72-.47c-1.48-.17-2.91-.1-4.35-.4-1.78-.38-3.57-.86-5.35-1.3-2.92-.7-6.16-2.11-9.17-2.17-2.59-.05-5.13,1.83-7.72,1.06a7.68,7.68,0,0,1-2.65-1.69c-2.61-2.22-4.56-4.09-7.83-5.15-2.84-.92-5.66-2.6-8.74-2.39-2,.14-5-.25-6.28-2-.28-.41-.48-.88-.76-1.29-.86-1.25-2.37-1.74-3.65-2.43a21.45,21.45,0,0,1-3.54-2.83c-.47-.4-1.48-.86-1.76,0a2,2,0,0,0,.2,1.29c.64,1.57,2,2.1,3,3.39,1.37,1.71,2,3.83,2.95,5.79s2.33,3.74,3.46,5.66a41.32,41.32,0,0,0,8.6,10.68c2.54,2.15,5.93,3.59,8.91,5,3.23,1.56,6.54,3,9.89,4.26,5.11,2,10.33,3.64,15.6,5.13,45.47,12.82,91.6,2.21,135.05-13.65,7.76-2.83,15.51-5.86,22.48-10.29,5-3.18,10.81-7.3,13.69-12.64,3-5.59,5.26-11.75,8.38-17.49,7.19-13.26,14-26.82,19.11-41a125.7,125.7,0,0,0,6.45-30.15c1-9.35,2.13-18.57,3-27.87A110.49,110.49,0,0,0,393.23,183Z"/><path class="cls-4" d="M291.05,72.33C275.23,67.22,258,65,241.87,63.25a54.11,54.11,0,0,0-14.93.6c-13.21-1.18-26.61,2.39-39.41,6.1a3.33,3.33,0,0,0-2,1.49A2.92,2.92,0,0,0,184.5,73c-2.69,1.92-.8,7.13,3.09,6.19a235.47,235.47,0,0,1,27.1-4.94c14.55.27,29.13.19,43.61,1.79a186.44,186.44,0,0,1,25.79,4.68c8.89,2.28,13,5.62,19.74-1.81a1.25,1.25,0,0,0,.44-.85c0-.45-.49-.72-.89-.91A113.09,113.09,0,0,0,291.05,72.33Z"/><path class="cls-4" d="M146.53,91.88a134.94,134.94,0,0,0-28.07,32.52,108.34,108.34,0,0,0-9.86,19.15c-1.94,5.27-2.21,10.84-3.8,16.15-1.41,4.69-2.91,8.83-3.34,13.88a1.67,1.67,0,0,0,.14,1,1.13,1.13,0,0,0,1.59.11,3.16,3.16,0,0,0,.91-1.51c2.6-7,5.07-13.68,7.92-20.54,8.92-21.48,21.43-40.8,39.46-55.86C154.94,93.93,150,89,146.53,91.88Z"/><path class="cls-4" d="M388,157.08a3,3,0,0,0-3.37-2.49A135.91,135.91,0,0,0,377,133a2.84,2.84,0,0,0-3.86-1.56c-2.38-5.16-5-10.24-7.5-15.28-1.13-2.22-5.35-8.29-8.08-5.58-2.93,2.92,3.76,15,5.55,18.21,3,5.45,6,11,8.7,16.58,2.43,5.05,2.92,9.05,3.93,14.4,2.43,12.76,2.95,25.6,3.35,38.56a225.7,225.7,0,0,1-3,45.41c-5.69,32.81-21.28,62.24-39.51,89.48-.77,1.14-1.43,2.9-.3,3.68-.07,0,7.5-3.83,8.31-4.27a25.57,25.57,0,0,0,8-6.93,3,3,0,0,0,2.07-1.12c6.16-7.08,10.17-15.14,13.27-23.61a3.22,3.22,0,0,0,1.64-1.52c3.51-6.58,8.55-13.13,11.2-20,2.9-7.48,4-15.53,5.94-23.28a215.2,215.2,0,0,0,1.3-99.07Z"/><path class="cls-4" d="M315.56,322.67c-.11.1-.22.2-.34.29a11.9,11.9,0,0,1-6.39,2.48c-3.5.38-6.58-.29-10,.64-3.28.88-6.54,1.79-9.81,2.73-2,.58-4.09,1.37-6.17,1.76-1.82.33-1.71.65-2.85,2.21-3,4.12-10.24,2.05-14.34,3.49a38.43,38.43,0,0,1-7.79,1.78c-3.07.4-6.14.83-9.21,1.24a21.71,21.71,0,0,0-3.83.61c-1.46.48-2.79,1.31-4.28,1.75a11,11,0,0,1-5.66.3c-.59-.15-1.16-.36-1.76-.47-4.59-.83-9.88.4-14.55.36-3.76,0-7.78-.87-11.44.13a13.76,13.76,0,0,1-3.68.34,9.67,9.67,0,0,1-4.87-.82c-1.7-1-2.73-2.39-4.68-2.94a56.08,56.08,0,0,0-6.69-1.31c-2.66-.43-5.35-.79-8-1.1-2.34-.27-4.52.29-6.85.58a10,10,0,0,1-5.75-.67c-3.42-1.75-4.8-5.4-8.7-6.49a129.36,129.36,0,0,0-13.65-2.76,4.78,4.78,0,0,0-2.52,0c-2.58,1,.22,4.76,1.18,6.07,4.66,6.36,7.48,8.79,14.33,12.19a116,116,0,0,0,22.92,8.69c16,4.1,32.79,4.83,49.22,3.43a223.93,223.93,0,0,0,49.45-9.73c2.33-.75,4.66-1.52,7-2.33a129.11,129.11,0,0,0,14.66-6.05c2.34-1.17,4.63-2.43,6.85-3.82,1.81-1.13,3.24-2.66,5-3.73a104,104,0,0,0,23.6-18.8c.6-.66,3.48-4.05,2.16-5-.65-.48-3.51,2.21-4.15,2.58-1.74,1-3.69,1.84-5,3.41-.43.52-.76,1.11-1.17,1.64-2.61,3.44-7.18,2.92-10.31,5.49C316.8,321.41,316.21,322.08,315.56,322.67Z"/><path class="cls-5" d="M287.26,75.84c-2.39-.69-5.61-.55-7.35,1.47a4.73,4.73,0,0,0-1.16,2.78,5.58,5.58,0,0,0,0,3.43,6.89,6.89,0,0,0,7.14,4.63c3.18-.32,6.69-2.69,6.9-6.15C293,78.86,290,76.62,287.26,75.84Z"/><path class="cls-5" d="M227.23,68.71a7.45,7.45,0,0,0-4.52-1.57,57.75,57.75,0,0,0-3.24.62,8.79,8.79,0,0,0-5.21,5.94,5.68,5.68,0,0,0-.47,2v.11a6.64,6.64,0,0,0,.14,2.48,5.75,5.75,0,0,0,2.72,3.53,6.83,6.83,0,0,0,4.32.74,11.66,11.66,0,0,0,3.22.08A8,8,0,0,0,231.24,77C232.15,73.56,229.91,70.65,227.23,68.71Z"/><path class="cls-5" d="M136,105.49a2,2,0,0,0-2.26-.92,1.93,1.93,0,0,0-.95.65,1.83,1.83,0,0,0-.73.47l-6,6.49a2.19,2.19,0,0,0-.57,1.48,2.07,2.07,0,0,0-.14.42,2.51,2.51,0,0,0,2,2.94,7.79,7.79,0,0,0,4.28-.19,7.94,7.94,0,0,0,3.49-2.31,8.08,8.08,0,0,0,1.82-4.31A7.78,7.78,0,0,0,136,105.49Z"/><path class="cls-5" d="M367.88,119.68a2.15,2.15,0,0,0-1.58-1,5.32,5.32,0,0,0-.78-2.83,2.09,2.09,0,0,0-1.94-1,2,2,0,0,0-1.44-.31,8.68,8.68,0,0,0-4.07-5.17,3,3,0,0,0-.47-.18,2.1,2.1,0,0,0-1.3-1,2,2,0,0,0-.76-2.65,2.19,2.19,0,0,0-1.77-.11l.15-.38a2,2,0,0,0-1.4-2.46,2.05,2.05,0,0,0-2.46,1.4,21.17,21.17,0,0,0-1.9,8.38,9.9,9.9,0,0,0,3.81,7.44c3.92,3.1,10.61,5.7,15.19,2.54A2.05,2.05,0,0,0,367.88,119.68Z"/><path class="cls-5" d="M362.89,150.84c-2.37-1.75-5.48-3.06-8.43-2.12-2.43.79-4.16,2.65-5.69,4.6-.06.05-.13.09-.19.15a8.56,8.56,0,0,0-2.77,6.74c.38,5.06,5.81,8.27,10.33,9.21a11.57,11.57,0,0,0,7.07-.55,8.62,8.62,0,0,0,4.61-5.19C369.53,158.75,366.84,153.76,362.89,150.84Z"/><path class="cls-5" d="M372.17,190.66A3.11,3.11,0,0,0,370.7,188a3.17,3.17,0,0,0-.45-.23,3.64,3.64,0,0,0-.46-.3,3.38,3.38,0,0,0-.52-.22,1.92,1.92,0,0,0-.36-.14,3.84,3.84,0,0,0-2.3.1,4.38,4.38,0,0,0-1,.5,5,5,0,0,0-1.17,1.17,3.84,3.84,0,0,0-.15,4.25,4.41,4.41,0,0,0,3.61,2,3.8,3.8,0,0,0,3.48-2.1q.12-.27.21-.54l.13-.2A3.43,3.43,0,0,0,372.17,190.66Z"/><path class="cls-5" d="M388.77,238.79c-3.19,0-6,1.48-8.54,3.3s-4.77,3.73-5.9,6.57a9,9,0,0,0,1.33,8.45c1.92,2.64,4.72,4.27,7.55,5.79a2.07,2.07,0,0,0,2.87-2.57,1.93,1.93,0,0,0,1.17-1.3c.22-.94.42-1.89.64-2.83a26,26,0,0,0,2.17-10.4,1.88,1.88,0,0,0-1.09-1.71,2.09,2.09,0,0,0,.31-1,3,3,0,0,0,0-.31C391.33,242.28,391.17,238.8,388.77,238.79Z"/><path class="cls-5" d="M366.64,279.92a7.41,7.41,0,0,0-6.06-2.72,7.21,7.21,0,0,0-5.69,3.27,7,7,0,0,0-1,2.85,7.8,7.8,0,0,0,0,2.89c.94,4.84,6.47,7.31,10.94,5.83a6.21,6.21,0,0,0,4.59-5.64C369.55,284,368.2,281.68,366.64,279.92Z"/><path class="cls-5" d="M337.68,333.34a4.85,4.85,0,0,0-3.67-3.19,6,6,0,0,0-2,0,7.55,7.55,0,0,0-4,.82,7.42,7.42,0,0,0-3.75,5.35,6,6,0,0,0-.34,2.35,2,2,0,0,0,1.47,1.93h.07a1.89,1.89,0,0,0,1.26.07,2.5,2.5,0,0,0,.38-.15,2,2,0,0,0,2.64.6c.45-.31.92-.54,1.39-.8h0l.37-.14q.39-.13.81-.24a2,2,0,0,0,1.37-1.4,7.28,7.28,0,0,0,1.85-.73,2.8,2.8,0,0,0,1.38-2.33A2,2,0,0,0,337.68,333.34Z"/><path class="cls-5" d="M284.42,342.29a6.76,6.76,0,0,0-4-1.8,5.94,5.94,0,0,0-4.86,1.76,4.43,4.43,0,0,0-1.81,2,6,6,0,0,0-.39,3.81,5.7,5.7,0,0,0,6.07,4.14l.15,0A5.93,5.93,0,0,0,281,352a5.11,5.11,0,0,0,1.33-.58,6.25,6.25,0,0,0,1-.59A6.4,6.4,0,0,0,286,347,5.18,5.18,0,0,0,284.42,342.29Z"/><path class="cls-5" d="M234.22,343.25a2,2,0,0,0-3.72,1c0,.51,0,1,0,1.54a2.23,2.23,0,0,0-.69.62,11.23,11.23,0,0,1-2.65,2.54l-1,.08a19.11,19.11,0,0,1-6.34-.65,1.94,1.94,0,0,0-1.39.15A2.11,2.11,0,0,0,217,348a2,2,0,0,0-2,2,7.13,7.13,0,0,0,2.77,5.87,12.88,12.88,0,0,0,7,2.43,18.07,18.07,0,0,0,3.37.13,5.63,5.63,0,0,0,3.5-1.68,13.19,13.19,0,0,0,3.25-5.88A10.51,10.51,0,0,0,234.22,343.25Z"/><path class="cls-5" d="M183.55,349.17a12.54,12.54,0,0,0-7.7.52c-2.6,1-4.9,2.62-5.25,5.59a2,2,0,0,0,1.92,2,2.76,2.76,0,0,0,.65.36,9.39,9.39,0,0,0,3.65.42L178,358a30.89,30.89,0,0,0,4.28,2,10.33,10.33,0,0,0,1.37.41,3.87,3.87,0,0,0,2.22.1,1.53,1.53,0,0,0,.27-.11,2.18,2.18,0,0,0,1.35,1.24,2,2,0,0,0,2.46-1.4C191.76,355.53,188.12,350.4,183.55,349.17Z"/><path class="cls-4" d="M362.23,224.4c0-.2,0-.4,0-.6a14.23,14.23,0,0,0-.63-3.94,60.24,60.24,0,0,0-2.85-6.69,14.85,14.85,0,0,0-8.49-7.75,2.32,2.32,0,0,0-1.42,0,5,5,0,0,1-.41-.71,2,2,0,0,0-.26-.53,15.06,15.06,0,0,0,1.91-15.91c-1.69-3.52-4.76-6.33-7.79-8.71-3.32-2.6-7.12-4.75-11.47-4.61a2.47,2.47,0,0,0-1.33.43,16.74,16.74,0,0,0-5.73-6.29c.74-6.54-4.41-12.7-9.41-16.35-2.82-2.07-6.86-4.6-10.39-4.68-2.48,0-5.28.7-7.64.38s-4.51-2.34-6.28-3.7a1.13,1.13,0,0,1-.34-.35,1.34,1.34,0,0,1-.11-.6c-.15-4.6-4.12-8.64-7.76-10.86-5.66-3.45-16.28-6.65-21.95-1.5a2.1,2.1,0,0,1-.82.57c-.73.22-1.38-.44-2-.94a6,6,0,0,0-3.82-1.42c-1.18,0-2.65.55-3.77,0-.82-.38-1.69-1.79-2.41-2.4a24.65,24.65,0,0,0-6.1-3.64,29.94,29.94,0,0,0-13.88-2.41,9.45,9.45,0,0,0-3.9.85c-1,.58-1.74,1.65-2.89,2.16a3.91,3.91,0,0,1-3.66,0,16.83,16.83,0,0,1-1.81-1.68,5.81,5.81,0,0,0-4-1.21,15.12,15.12,0,0,0-4.13.9,3,3,0,0,1-1.34.22c-1.68-.26-2.49-3-3.8-4a13.49,13.49,0,0,0-6.81-2A21.29,21.29,0,0,0,183.86,119c-1.48.73-3.18,2.26-4.75,2.67s-3.14-.15-4.73.08a24.56,24.56,0,0,0-7.9,2,6,6,0,0,1-1.84.75c-1.07.14-2.09-1-3-1.48a14.41,14.41,0,0,0-3.84-1,13.15,13.15,0,0,0-8.09.91,32,32,0,0,0-4.46,2.93c-.58.44-3.37,4.19-3.62,4.19a13.43,13.43,0,0,0-10.44,5.53c-4.24-2.78-10.89-.64-14.14,2.77a22,22,0,0,0-5.24,9.89l-4,14.91c-1.09,4.1,3.86,3.16,4.9.5s2.85-4.81,2.64-7.7-.31-6.08.83-8.92a11.42,11.42,0,0,1,14.46-6.49,8.25,8.25,0,0,0,2.09.63c2,.19,3.79-1.57,5.57-2.3a42.46,42.46,0,0,1,7.24-2,2.48,2.48,0,0,0,1.82-2.42c3-.51,6-.92,8.9-1.42a74.44,74.44,0,0,0,9.86-2.26c2.74-.85,5.36-3.13,8.38-2a11.31,11.31,0,0,0,1.36.54,4.07,4.07,0,0,0,2.67-.61c5.29-2.73,11.25-2.87,17.17-3.37,4-.33,5.71,2,9.23,2.92a2.63,2.63,0,0,0,2.86,1.22,9.53,9.53,0,0,1,9,2.33,2.54,2.54,0,0,0,3.54,0,5.33,5.33,0,0,0,1.12-2.34,33.39,33.39,0,0,1,16.14-.11c.39.09.78.2,1.16.31a17.48,17.48,0,0,1,4.64,5.81c1,2,3.37,1.39,4.26-.12a6.74,6.74,0,0,0,6.9.25,1.54,1.54,0,0,0,.32-.25,2.73,2.73,0,0,0,2.6.83c.71-.12,1.43-.21,2.15-.28l.54.22a2.71,2.71,0,0,0,2.95-.32,33.05,33.05,0,0,1,14.56,3.8,27.52,27.52,0,0,1,6.1,4.13c1.83,1.72,1.18,4,2.65,5.69.79.89,2.08.93,3.08,1.48a15.18,15.18,0,0,1,2.85,2.4c2.19,2,3.19,2.51,5.7.45,3.65-3,10.88-.22,13.77,2.64a14.1,14.1,0,0,1,4,9c.11,1.52-.11,3,.08,4.55.11.82.2,3.27.82,3.76a2.6,2.6,0,0,0,1.28.39,9.74,9.74,0,0,1,4.6,1.78,6,6,0,0,1,2.42,4.18,4.37,4.37,0,0,0,.28,1.7,2.11,2.11,0,0,0,2,1,8.52,8.52,0,0,0,2.25-.6c3.37-1.14,8,.63,10.58,2.85a12.81,12.81,0,0,1,4.34,7.85,15.87,15.87,0,0,1-2,9.83c-.76,1.3-2.08,2.43-1,4s2.84,1.58,3.58,3.67c.35,1,.67,2.25,1.69,2.56.82.24,1.66-.29,2.5-.46a4.08,4.08,0,0,1,3,.72c4.39,2.89,6.86,9,6.93,14.06.05,3.9-1.62,8.27-5.28,9.58-1.17.42-2.5.53-3.44,1.33a5.29,5.29,0,0,0-1.37,2.4,8.83,8.83,0,0,0,0,6.2,31.61,31.61,0,0,1,1.33,7.4c0,.52-.08,1-.13,1.54-.09,1.05.38,2.07.26,3.2-.15,1.44-.44,2.87-.53,4.34,0,.5,0,1.12.47,1.3a1.09,1.09,0,0,0,1-.33,9.14,9.14,0,0,0,2.32-3.75c1.66-4.21,3.44-9.11,3.17-13.71-.1-1.71-.5-3.46,0-5.1.87-3,2.93-5.44,3.92-8.41A26.64,26.64,0,0,0,362.23,224.4Zm-236-84.9a2.74,2.74,0,0,0-.32-.36c.48-.14,1-.26,1.45-.37C127,139,126.63,139.25,126.26,139.5Z"/><path class="cls-5" d="M329.14,111.47c-1.56-2.34-5.35-.15-3.78,2.21.6.9-1,3-2,4.26a2.32,2.32,0,0,0-2.73.3c-4.14,3.26-8.93,7-14.49,6.72-5.2-.23-9.58-3.95-12.83-7.7a1.83,1.83,0,0,0-2.45-.41,18.58,18.58,0,0,1-1-4.7c-.22-2.79-4.6-2.82-4.37,0,.72,9,6.32,17.19,15.14,20s17.34-1.24,23.22-7.84a49.08,49.08,0,0,0,4.42-5.83C329.59,116.38,330.65,113.73,329.14,111.47Z"/><path class="cls-5" d="M170,93.87a15.49,15.49,0,0,1-2.46,3,1.73,1.73,0,0,0-.71.08,27.86,27.86,0,0,1-18.1.37,1.77,1.77,0,0,0-1.5.14,14.63,14.63,0,0,1-2.15-2.23,2.07,2.07,0,0,0-2.74-.71,2,2,0,0,0-.72,2.73,19.17,19.17,0,0,0,31.83-1.33C174.86,93.7,171.4,91.69,170,93.87Z"/><path d="M395.43,198.57c-.11-12.26-1-23-4.47-34.91a147.78,147.78,0,0,0-16-36.33c-11.2-18-26.95-33.46-45.94-43a163.82,163.82,0,0,0-21.94-8.69C285,68.4,262.22,63,239,62.21c-28.34-1-58.29,6-82.53,20.94a118.05,118.05,0,0,0-41.66,44.18,167.15,167.15,0,0,0-13.64,33.11,160.76,160.76,0,0,0-4,17.48c-.9,5.28-3.3,9.78-2.67,15.41.18,1.63,1.65,4.35,3.71,4.09,1.88-.24,3.76-4.08,4.64-5.54,2.7-4.53,4.43-9.54,6.55-14.35,1.66-3.77,3.93-6.88,3.6-11.18-.16-1.93,0-4.3,1.69-5.18,1.42-.72,3.23,0,4.67-.65s2.17-2.15,3.38-3,2.51-1.22,3.7-2.11c2.17-1.61,4.84-2.93,6.17-5.33,2.15-3.91,1-8.67,6.86-8.84,4.28-.13,7.14,1.71,11.6.8,5-1,10.56-3.25,14-7.13,4.64-5.29,9.36-6,15.1-2.35,4,2.56,8.47,4.86,13.31,5,4.06.13,6.61-2.13,9.9-4.05,6.93-4,13.16.11,19.31,3.45,7.64,4.13,16.12,4.28,24.58,2.31,2.9-.68,6-1.63,8.78-.51,1.88.77,3.27,2.37,4.67,3.84,4.25,4.43,9.15,8.42,15.44,8.48l8.13.07c5.29.05,8.32,3.38,10,8s6.73,7.17,10.72,10.22c4.65,3.54,7.74,4.66,13.34,6.33a10.64,10.64,0,0,1,1.91.7c2.38,1.22,3.55,4,4.2,6.56,1.23,5,3.86,9.46,6.65,13.73s4.77,8.52,9.4,10.71a6.19,6.19,0,0,1,3.12,4.47c.41,2.06-.29,3.8-.28,5.76,0,2.43,1,4.63,1.71,7a86,86,0,0,1,3.08,16.28,112,112,0,0,1-4.1,41.8,97.2,97.2,0,0,1-4.57,13c-.84,1.82-1.93,3.52-2.73,5.35s-1,4.05-2.13,5.82A11.41,11.41,0,0,1,331,310c-1.41.95-1.47,1.68-2.55,2.82-1.36,1.7-4,2.85-5.94,3.64a13.08,13.08,0,0,0-5.11,3.43,16.14,16.14,0,0,1-3,2.5,12,12,0,0,1-3.12,1.21,22.81,22.81,0,0,1-5.81.69c-1.74,0-3.51-.61-5.19-.15-4.66,1.28-9.71,2.13-14.22,3.84-3.44,1.31-5.94,4-9.24,5.51s-7.31.8-10.93.51a39.56,39.56,0,0,0-10.67,1c-2.19.42-4.74.52-6.77,1.35-2.26.92-4.37,2.58-6.57,3.69a14.09,14.09,0,0,1-3.57,1.37,16.36,16.36,0,0,1-6.18-.39c-2.94-.57-6.07-1.58-9-1.81-3.38-.27-6.76.56-10.19.1-2.48-.34-4.26,1.48-6.68,1.72a16.73,16.73,0,0,1-8.71-1.21,52.43,52.43,0,0,0-10.12-3.51c-3.49-.88-7.91-3.2-11.52-2.12-1,.31-2,.84-3,1.14a7.26,7.26,0,0,1-5.53-.64,3.52,3.52,0,0,1-2-2.55,3.66,3.66,0,0,0-.12-1.24c-.66-1.56-4.49-2.28-5.87-2.67a49.71,49.71,0,0,1-6.51-1.92c-1.59-.7-3-1.84-4.84-1.13-.55.21-1,.57-1.58.79-1.85.72-3.46-1.35-4.3-2.79-.7-1.2-1.07-2.58-1.88-3.7a11.31,11.31,0,0,0-4.31-3.09c-1.23-.61-2.61-1.24-3.92-.84a2.84,2.84,0,0,0-1.61,3.81,7.4,7.4,0,0,0,2.38,2.2c2.89,2.2,3.33,5.18,4.58,8.33a32.67,32.67,0,0,0,3.85,6.71,60.26,60.26,0,0,0,8.27,9.63,41.37,41.37,0,0,0,10,7.17,150.52,150.52,0,0,0,18.7,7.18,155.57,155.57,0,0,0,22.61,5.6c10.95,1.7,22.36,2.81,33.4,1.15,4.3-.65,8.44-.77,12.76-1.22,14.63-1.54,28.46-5.29,42.8-8.83,13.11-3.24,25.73-8.17,38.28-13.16,15-6,25.69-13.23,34.06-27.1,7.26-19.12,21.71-35.57,27.22-55.17C395.22,241.32,395.63,219.77,395.43,198.57Zm-3.67,15.33c-.26,16.74-1.8,34.76-7.56,50.62-6,16.39-14.64,32.32-23.49,47.3-10.59,17.93-29.19,28.79-48.87,34.82-11.36,3.48-22.76,6.87-34.29,9.76-22.7,5.67-46.11,9.34-69.56,7.62a113.55,113.55,0,0,1-22.5-4.42c-1.63-.46-3.25-.93-4.86-1.43a147.52,147.52,0,0,1-20.53-7.92c-.74,0-2.09-1.1-2.73-1.47-.88-.53-1.73-1.09-2.56-1.69a37.29,37.29,0,0,1-4.66-3.95c-2.74-2.72-5.78-5.7-7.83-9-1.2-1.94-2.81-3.81-3.35-6.08a8.19,8.19,0,0,0-1.33-3.35,23.81,23.81,0,0,0-2.89-3.45,2.78,2.78,0,0,1-.81-1.12.88.88,0,0,1,.55-1.11,1.28,1.28,0,0,1,1,.44l2.7,2.39a20.2,20.2,0,0,1,1.83,1.75c.77.87,1.39,1.87,2.24,2.66,1.65,1.53,4,2.12,6.12,2.8,2.51.81,5.09,1.39,7.6,2.28,3.17,1.14,6.45,2.48,8.9,4.88.46.45.86,1,1.36,1.37,1.85,1.53,4.55,1.26,6.89.78,6.22-1.27,12.66.87,18.82,2,1.66.3,3.84.31,5.32,1.14.77.44,1.46,1,2.23,1.46a9.6,9.6,0,0,0,5.61,1c1.48-.14,2.85-.69,4.29-.9a12.73,12.73,0,0,1,3.25.21,84.69,84.69,0,0,0,10.2.14c3.12-.1,6.71-.76,9.78-.18.88.16,1.73.46,2.6.63,3.39.66,6.74-.67,9.72-2.14S251.6,340,255,339.36c2.52-.46,5.05-.89,7.56-1.4,2.19-.45,4.47-1.42,6.74-1.32.79,0,1.57.26,2.36.37,3.79.5,6.39-1.69,9.66-3s7-1.73,10.36-2.66c2.27-.64,5.12-1.07,7.12-2.27a10.81,10.81,0,0,1,6.06-2.05c2.2,0,4.45.25,6.6-.27,5.38-1.29,8.16-6.77,12.81-9.32,3.57-1.95,7.83-3.61,10.87-6.33,2.48-2.21,3.46-4.76,4.29-7.79s2.42-5.7,3.52-8.4c1.27-3.11,2.38-6.28,3.4-9.48a112.73,112.73,0,0,0,5.26-36.83q-.11-4.92-.68-9.8a102.16,102.16,0,0,0-3-15.11c-1.12-4.07-2.47-6.46-1.91-10.74s-.83-5.44-4.08-7.84c-2.82-2.09-4-5.64-5.81-8.53-1.37-2.22-2.81-4.39-4.34-6.5-1.05-1.46-3.52-2.86-4.13-4.34a8.83,8.83,0,0,1-.43-2.29,22.27,22.27,0,0,0-2.15-7.4,7.17,7.17,0,0,0-1.44-2.12c-2.25-2.08-5.58-1.15-8.28-2-2.93-.88-5.51-3.27-8-5-4.29-2.9-10.17-6-12.05-11.12-.76-2.07-1.25-4.31-2.64-6-3.83-4.65-11.44-.49-16.67-1.45-4.84-.88-11.63-3.11-14.37-7.57-1-1.67-1.57-3.72-3.12-4.92a7.58,7.58,0,0,0-2.13-1.06,8.29,8.29,0,0,0-2.68-.61c-2.26,0-4.22,1.42-6.1,2.68-4.44,3-9.89,1.07-14.9.26-4.84-.78-10-2-13.47-5.76a15.38,15.38,0,0,0-2.85-2.85,9.92,9.92,0,0,0-4.92-1.08c-2.59-.1-5.4-.08-7.45,1.51-.91.71-1.58,1.69-2.45,2.46-3.14,2.76-7.9,1.32-11.7,1.33-4.54,0-7.15-2.9-11.37-4.45-5.78-2.14-12.31.11-17.43,3.53-2.76,1.85-5.39,4.08-8.61,4.92-3.52.9-7.21,0-10.83-.24s-7.77.45-9.79,3.46c-1.12,1.68-1.38,3.76-1.94,5.69-1.48,5.09-9.09,10.28-14.26,10.56a7.15,7.15,0,0,0-2.27.29c-2,.78-2.34,3.4-2.37,5.54-.11,8.63-6.51,16-9.11,24.34-.55,1.78-1.47,6.87-3.28,3.54s.34-8.05,1.26-11.2c2.69-9.18,5.32-18.4,8.54-27.41,2.43-6.83,4.55-13.9,7.88-20.38a116,116,0,0,1,15.84-23.35c29.14-33.3,75.94-47,118.94-41.18,12.18,1.63,24.58,2.94,36.41,6.43,14.51,4.29,27.91,8.94,41.32,15.75,21.57,10.95,38.48,30.83,49.39,52,6,11.57,10.4,22.44,12.18,35.48C392.1,188.62,392,201.3,391.76,213.9Z"/><path class="cls-1" d="M338,86.33c-2.32-4.39-4.66-8.78-6.76-13.28-1.46-3.12-2.33-8.53-5.3-10.61s-5.54.18-8,1.65c-4.09,2.42-8.11,5-12.08,7.57-1.84,1.22-3.07,4.18-3.39,6.27a2.59,2.59,0,0,0,0,1.3c.39,1,1.72,1.29,2.83,1.4A98.07,98.07,0,0,1,319.11,83a18.45,18.45,0,0,1,4.53,1.58c3.66,2,7.46,3.82,11.26,5.61C338.08,91.68,339.46,89.12,338,86.33Z"/><path class="cls-2" d="M336.48,82.38c-1.71-3.91-4-7.56-6-11.31a47.68,47.68,0,0,0-3-6.35,1.73,1.73,0,0,0-.85-.76s0-.08,0-.11a2.06,2.06,0,0,0-2.46-1.4,2,2,0,0,0-1.4,2.46,57.77,57.77,0,0,1,3.63,12.79c.3,2.23,0,4.44.15,6.64s.94,2.44,2.93,3.39l4.5,2.14c2.35,1.12,4.32,1.88,4.38-1.5C338.38,86.3,337.28,84.22,336.48,82.38Z"/><path d="M340.93,90.33a45.47,45.47,0,0,0-4.63-12c-2.12-4.17-4.26-8.33-6.38-12.49-.53-1-1.06-2.06-1.58-3.09A8.23,8.23,0,0,0,326.63,60c-1.6-1.36-3.73-.28-5.39.39a56.54,56.54,0,0,0-20.46,14.19,1.42,1.42,0,0,0-.4,1,4.59,4.59,0,0,0-.9,3.55c.45,1.91,2.27,2.51,4,2.88,4.38,1,8.88,1.11,13.26,2.12a54.93,54.93,0,0,1,12.19,4.38c2.67,1.34,6.22,4.21,9.37,3.19A1.57,1.57,0,0,0,340.93,90.33Zm-7-2.5c-1.48-.83-2.94-1.65-4.47-2.38a58.25,58.25,0,0,0-9.74-3.65A69.53,69.53,0,0,0,309.46,80,51.3,51.3,0,0,1,303.8,79c-.62-.15-1.4-.15-1.36-.88s.8-1.45,1.21-1.89a1.47,1.47,0,0,0,.37-.72,54.31,54.31,0,0,1,15.74-11.24c.75-.36,1.51-.7,2.28-1a7.58,7.58,0,0,1,2.47-.92c.63,0,1.16,1.7,1.46,2.28l1.47,2.86,5.75,11.25a55.62,55.62,0,0,1,4.28,10C336.28,89.22,334.93,88.41,333.89,87.83Z"/><path class="cls-1" d="M281.61,64.94a30.2,30.2,0,0,0-2.21-4.38c-2.1-3.59-4.49-7-6.63-10.54-1.47-2.46-3.76-5.74-6.94-3.69l-.2.12a3.55,3.55,0,0,0-2.14.41c-5.91,3.13-11.84,6.23-18,8.81-5.2,2.17-10.61,4.76-12.94,10.32a4.35,4.35,0,0,0-.43,2.34,4.44,4.44,0,0,0,1.34,2.21,15.35,15.35,0,0,0,3.27,2.63c5.26,3,11.83,1.69,17.74.34,7.66-1.76,15.49-3.4,23.31-2.62,1.25.13,2.68.27,3.63-.57C282.73,69.15,282.39,67,281.61,64.94Z"/><path class="cls-2" d="M281.18,66.5a3.76,3.76,0,0,1-.21-.62c-1-4-2.93-7.25-4.46-11-1.3-3.18-2.84-6-5.71-8.18-.87-.66-2.35-1.57-3.47-1.4A1.93,1.93,0,0,0,265.66,47a3.29,3.29,0,0,0,.92,2.09c2,2.57,2.77,6.15,3.15,9.37.34,2.85.5,9.24-1.06,11.63a4,4,0,0,0,1.66.91c2.46.44,11,1.82,11.66-1.52C282.23,68.17,281.59,67.44,281.18,66.5Z"/><path d="M284.31,68.56a57.92,57.92,0,0,0-10.82-21.38c-1.11-1.39-2.35-3.19-4.13-3.75-2.08-.66-4.19.56-6.07,1.36-4.17,1.77-8.28,3.72-12.29,5.85q-5,2.67-9.87,5.71c-2.38,1.49-5.51,2.71-7.3,5a1.68,1.68,0,0,0-.37.3,10.9,10.9,0,0,0-3,5.51,6.43,6.43,0,0,0,1.79,5.28c2.88,3.08,7.92,3.31,11.85,3.31,9.28,0,18.25-3.1,27.52-3.14a34.4,34.4,0,0,1,3.8.17,36.41,36.41,0,0,0,3.89.42,5.31,5.31,0,0,0,5.2-3.3A1.2,1.2,0,0,0,284.31,68.56ZM277.16,70a38.27,38.27,0,0,0-5.76-.39,74.36,74.36,0,0,0-11.14,1.17c-7.22,1.19-15.21,3.19-22.49,1.34-1.71-.43-3.56-1.32-4.21-3.09-1.36-3.71,3.75-7.3,6.49-8.77,2-1.1,4.06-2.22,6.08-3.41a158.49,158.49,0,0,1,14.67-7.68c1.83-.84,3.69-1.67,5.57-2.41.89-.36,1.77-.78,2.61-.12a13.38,13.38,0,0,1,1.86,2A53.91,53.91,0,0,1,277,58a54.76,54.76,0,0,1,4.4,11.4C280.59,70.56,278.29,70.12,277.16,70Z"/><path class="cls-4" d="M188.39,81.87a47.52,47.52,0,0,0-11.12,5.92,18.62,18.62,0,0,0-4.1,4.12,1,1,0,0,0-.51.38,32.49,32.49,0,0,0-5.94,16.17c-.13,1.71.09,15.71,3.84,13.9-2.1-8.08-1.19-16.13,1.53-24a21.3,21.3,0,0,1,1-2.55,13.71,13.71,0,0,1,1.25-1.41.88.88,0,0,0,.21-1.07,16.3,16.3,0,0,1,3.85-3.93,46.08,46.08,0,0,1,10.48-5.59C190.11,83.34,189.6,81.4,188.39,81.87Z"/><path d="M188.94,82.62a30.87,30.87,0,0,0-16.36,14,29.48,29.48,0,0,0-3.51,10.55c-.65,4.8-.21,9.65.25,14.45.12,1.27,2.12,1.28,2,0-.77-8.12-1.21-16.26,2.81-23.67a28.8,28.8,0,0,1,15.34-13.36C190.67,84.12,190.15,82.18,188.94,82.62Z"/><path class="cls-4" d="M286.9,106.86a26.81,26.81,0,0,0-6-11.42c-2.55-2.85-5.78-5.64-9.89-5-.16,1.82,2.85,2.54,4.15,3.24a11.75,11.75,0,0,1,4.57,5.09c2.4,4.4,2.89,9.57,3.1,14.49a79.06,79.06,0,0,1-.57,13.23,10.15,10.15,0,0,1-.46,2.74c-.18.41-1.1,1.19-1.13,1.57-.2,2.24,2.32.33,3-.47,1.51-1.84,2.22-5.15,2.82-7.42A32.47,32.47,0,0,0,286.9,106.86Z"/><path d="M269.52,89.29a30.91,30.91,0,0,1,13.72,16.56,29.58,29.58,0,0,1,1.65,11c-.2,4.85-1.46,9.54-2.73,14.2-.34,1.23-2.31.9-2-.35,2.15-7.87,4-15.81,1.3-23.79a28.87,28.87,0,0,0-12.82-15.8C267.56,90.46,268.4,88.65,269.52,89.29Z"/><path d="M361,296a1,1,0,0,0-1.23.7,28.26,28.26,0,0,1-5.59,8.49c-.88.93.53,2.34,1.42,1.41a30.91,30.91,0,0,0,6.1-9.37A1,1,0,0,0,361,296Z"/><path d="M124.92,123.79a29.61,29.61,0,0,0-8.63,16.61c-.2,1.26,1.73,1.8,1.93.53a27.82,27.82,0,0,1,8.12-15.72C127.26,124.31,125.85,122.9,124.92,123.79Z"/><path d="M384.85,215.22c-.11-1.27-2.11-1.28-2,0a71.15,71.15,0,0,1-.73,18.55c-.21,1.26,1.71,1.8,1.93.53A73.48,73.48,0,0,0,384.85,215.22Z"/><path d="M380,231a1.08,1.08,0,0,0-.29-.7,1,1,0,0,0-1.71.7,12.88,12.88,0,0,1,0,2.24c0,.17,0,.34,0,.51s0,.09,0,.14,0,.18,0,.28c-.07.37-.15.73-.24,1.09a1,1,0,0,0,.7,1.23,1,1,0,0,0,1.23-.7A13.1,13.1,0,0,0,380,231Z"/><path d="M379.66,251.49A66.23,66.23,0,0,1,372,274.54c-.62,1.13,1.11,2.14,1.73,1A67.87,67.87,0,0,0,381.59,252C381.76,250.76,379.84,250.22,379.66,251.49Z"/><path class="cls-6" d="M322.07,91.93c-5.69-4.39-14.92-8.37-20.9-3.81-11.47,2.3-16.68,16-9.52,25.75,3.58,4.89,9.47,8.29,15.62,8.15a17.81,17.81,0,0,0,7.93-2.31,4.12,4.12,0,0,0,2-.5,13.24,13.24,0,0,0,4-3.25c.36-.35.72-.7,1.06-1.07a3.76,3.76,0,0,0,1.12-.92,13.83,13.83,0,0,0,1.71-2.59c.11-.14.21-.29.31-.43a3.33,3.33,0,0,0,.56-1.55C328.13,103.42,327.18,95.86,322.07,91.93Z"/><path d="M327.15,96.8c-4.71-10.86-19.11-16-29.68-10.66-13.67,7-16.32,25.65-3.34,34.87,7.49,5.33,18.26,5,25.92.2a18.4,18.4,0,0,0,8.27-10.39A21.16,21.16,0,0,0,327.15,96.8Zm-6.56,20A21.18,21.18,0,0,1,298.88,120a17.46,17.46,0,0,1-10.2-17.37c1.78-16.33,25.45-20.3,33.93-7.31a18.93,18.93,0,0,1,3.12,11A14.29,14.29,0,0,1,320.59,116.79Z"/><path class="cls-7" d="M307.05,96.84c-1.85.55-3.7,1.14-5.56,1.66-2.27.62-3.18.15-5-1.18-4-2.87-8.23,3.54-4.22,6.4,2.39,1.7,4.88,3,7.89,2.83s5.8-1.4,8.57-2.23C313.38,102.92,311.79,95.42,307.05,96.84Z"/><path class="cls-8" d="M298.6,100.68a9.75,9.75,0,0,1-1.62,0l-.27,0-.31-.06c-.27-.06-.53-.12-.8-.2s-.5-.17-.75-.27l-.17-.07-.37-.18a9.58,9.58,0,0,1-1.39-.88,1,1,0,0,0-1.37.36,1,1,0,0,0,.36,1.37,10.22,10.22,0,0,0,6.69,2,1,1,0,0,0,0-2Z"/><path d="M314.72,96.69a1.66,1.66,0,0,0-1.27-1.79,1.49,1.49,0,0,0-1.33-.06,25.43,25.43,0,0,1-21.82-1.29c-1.32-.72-2.38.57-2.23,1.75a2.66,2.66,0,0,0,0,.3,13.36,13.36,0,0,0,26.67,1.09ZM301,105.58a10.48,10.48,0,0,1-9.25-7.72,28.82,28.82,0,0,0,19.15.9A10.46,10.46,0,0,1,301,105.58Z"/><path class="cls-9" d="M173.28,87.87a13.54,13.54,0,0,0-.09-10.05c-2-4.81-6.57-7.2-11-6.24a11.71,11.71,0,0,0-4-.13c-6.53.88-14.41,6.46-15.06,13.47-.42,4.4,2,7.56,5.33,9.36,3,4.13,10.49,4,15.64,2.27C170.05,96,172.84,92.3,173.28,87.87Z"/><path d="M175.71,79.56c-1.08-3.63-2.92-6.88-6.54-8.39A19.14,19.14,0,0,0,159.61,70a22.6,22.6,0,0,0-15.77,9.27c-3.18,4.5-4.22,13.25.81,17.06,4.38,3.32,14,4.36,19.13,3.28s8.74-4.69,11.15-9.15A14.26,14.26,0,0,0,175.71,79.56Zm-3.06,8.72c-1.88,4.22-4.67,7.66-9.41,8.52-9,1.64-24.57-4.17-17.2-15.49a19.42,19.42,0,0,1,12.45-8.16,17.57,17.57,0,0,1,7.67.17A9,9,0,0,1,170,75.15C173.35,78.14,174.44,84.25,172.65,88.28Z"/><path class="cls-7" d="M161,79.89c-1.59.31-3.18.66-4.78.93-2,.33-2.67-.13-4.12-1.4-3.13-2.73-7.17,2.28-4.05,5,1.85,1.62,3.83,2.93,6.35,3s5-.69,7.35-1.15C165.75,85.5,165,79.1,161,79.89Z"/><path class="cls-8" d="M155.3,82.38a1,1,0,0,0-1.23-.7l-.32.11-.25,0h0l-.09,0h-.14a1.93,1.93,0,0,1-.34,0l-.09,0s.06,0-.05,0h0l-.31-.07a2.55,2.55,0,0,1-.33-.11l-.12,0h0a5.29,5.29,0,0,1-.6-.36h0l-.09-.07-.27-.26a1.57,1.57,0,0,0-.17-.21l0,0-.09-.13c-.06-.1-.11-.2-.16-.3h0a1.66,1.66,0,0,1-.06-.16,1,1,0,0,0-1.23-.7,1,1,0,0,0-.7,1.23,4.82,4.82,0,0,0,6,3A1,1,0,0,0,155.3,82.38Z"/><path d="M167.39,80.41a1.38,1.38,0,0,0-.91-1.6,1.23,1.23,0,0,0-1.11-.16,21.41,21.41,0,0,1-18.14-2.89,1.31,1.31,0,0,0-2,1.27,1.84,1.84,0,0,0,0,.25,11.23,11.23,0,0,0,22.21,3.13ZM155.14,86.7a8.79,8.79,0,0,1-7.09-7.23A24.18,24.18,0,0,0,164,81.82,8.78,8.78,0,0,1,155.14,86.7Z"/><path class="cls-10" d="M203.24,95.53a3.92,3.92,0,0,0-1.42-1.68,2.48,2.48,0,0,0-1.92-.25,1.81,1.81,0,0,0-.52.22A2.52,2.52,0,0,0,197.47,95a26.16,26.16,0,0,0-1.91,3.63,9.58,9.58,0,0,0-.79,2.13,4.36,4.36,0,0,0,.34,3,3.23,3.23,0,0,0,3.28,1.64,4.28,4.28,0,0,0,2.63-1.5,10.33,10.33,0,0,0,2.25-4.12,8.48,8.48,0,0,0,.34-2.5A4.81,4.81,0,0,0,203.24,95.53Z"/><path d="M205.73,99.26c.8-3.52-1.9-8.2-5.92-7.71-3.17.38-5.37,4.44-6.37,7.08-.9,2.41-1.24,5.41.37,7.62a4.11,4.11,0,0,0,3.21,1.67,5.76,5.76,0,0,0,3.62-1.46,20.76,20.76,0,0,0,2.92-3.08A10.56,10.56,0,0,0,205.73,99.26Zm-6.54,4.49a3.86,3.86,0,0,1-1.94,1.16,1.11,1.11,0,0,1-1.14-.59c-.82-1.38-.37-3.32.21-4.82a10.34,10.34,0,0,1,3.4-4.17c2.14-1.33,3.66.82,3.13,3.15C202.38,100.52,200.69,102.36,199.19,103.75Z"/><path class="cls-10" d="M254.14,105.5a15.89,15.89,0,0,0-1.41-4.83A2.47,2.47,0,0,0,251,97.89a3.58,3.58,0,0,0-3.9,1.67,6.49,6.49,0,0,0-.64,3.25,15.89,15.89,0,0,0,.53,5.28,5.47,5.47,0,0,0,1.74,2.82,3.32,3.32,0,0,0,4.31-.1C254.45,109.52,254.37,107.27,254.14,105.5Z"/><path d="M245.19,97.71a5.92,5.92,0,0,0-.87,1.21c-1.57,2.92-.79,6.59.29,9.54a9.61,9.61,0,0,0,2.77,4.26,4.85,4.85,0,0,0,4.69.78c3.33-1.14,4.4-4.72,4.2-7.9s-1.17-6.86-3.93-8.73A5.56,5.56,0,0,0,245.19,97.71Zm8.09,7.87a6.93,6.93,0,0,1-.43,3.43,3.36,3.36,0,0,1-1.71,1.65,2,2,0,0,1-1,.13,2.5,2.5,0,0,1-1.12-.63,8.35,8.35,0,0,1-1.73-3.16c-.79-2.25-1.33-11.13,3.54-7.55C252.6,100.78,253.07,103.5,253.28,105.58Z"/><path class="cls-11" d="M228.86,344.16a9.53,9.53,0,0,1-1.12,1.91,2.91,2.91,0,0,1-1.91,1.13,11.48,11.48,0,0,1-11,.69,6.45,6.45,0,0,1-1.12-.76,2.75,2.75,0,0,1-1.73-1l-.68-.77a2.77,2.77,0,0,1-1.39-.53c-9-6.5,4.15-17.72,6.1-24.2a3,3,0,0,1,5.45-.35l.21.47a3.07,3.07,0,0,1,1.42,1.22c2.72,4.37,6.52,11.18,6.68,17.21A7.36,7.36,0,0,1,228.86,344.16Z"/><path class="cls-12" d="M228,346.56a11,11,0,0,1-6,2,18.94,18.94,0,0,1-7.41-1.08,15.2,15.2,0,0,1-5.65-3.18,8.26,8.26,0,0,1-2.69-5.76,9.8,9.8,0,0,1,.79-3.61,23.37,23.37,0,0,1,1.41-2.94c.49-.86,1.53-3.5,2.15-1.35.51,1.75.52,3.45,1.57,5a8.89,8.89,0,0,0,2.71,2.54,8.69,8.69,0,0,0,2.91,1.27,8.11,8.11,0,0,0,5.7-1,13.53,13.53,0,0,0,4.21-4.11c.56-.8,2-2.29,2.71-.75a13.62,13.62,0,0,1,.18,1.75,19.23,19.23,0,0,1,.45,2.59,11.79,11.79,0,0,1-2.16,7.6A4.5,4.5,0,0,1,228,346.56Z"/><path d="M230.51,346.38a11.16,11.16,0,0,0,1.63-7.69,30.46,30.46,0,0,0-2.29-7.68,43.38,43.38,0,0,0-6.73-11.65c-2.7-3.28-3.88-5.09-7.22-1-.71.87-1.4,1.76-2.06,2.66a61.58,61.58,0,0,0-3.75,5.75c-2.54,4.42-7.85,11.66-4.29,16.54a18.79,18.79,0,0,0,10.78,6.56,20.77,20.77,0,0,0,10.07-.78A8,8,0,0,0,230.51,346.38Zm-1.29-9.1c.89,2.25,1.47,4-.07,6.22-2.52,3.67-8.72,4.8-12.78,3.74s-9.8-4.38-9-9.14c.68-3.76,3.18-7.15,5.07-10.38a60.39,60.39,0,0,1,3.31-5.07c.6-.84,1.23-1.66,1.88-2.46,2.32-2.86,5.08,1.17,7.33,6.05C227.14,330.87,228.82,336.27,229.22,337.28Z"/><path class="cls-11" d="M255.39,344.28a11,11,0,0,1-5.17.15,2.75,2.75,0,0,1-1.89.28c-4.07-.67-5.23-3.37-5.05-6.71a2.69,2.69,0,0,1-.16-.45c-1.52-5.88,2.67-14.07,5-19.25,1-2.14,3.84-3.13,5.53-1.08l3.79,4.59a3.23,3.23,0,0,1,1.9,1c3.28,3.42,8.28,8.88,7.24,14.11C265.62,341.78,259.54,343.31,255.39,344.28Z"/><path class="cls-12" d="M263.55,341.41a15.83,15.83,0,0,1-4.77,1.81,29.33,29.33,0,0,1-10,1.14,8.22,8.22,0,0,1-3.69-1.14,7.28,7.28,0,0,1-2.89-6.07,12.38,12.38,0,0,1,3.55-9.19,19.7,19.7,0,0,0,3,6.7,10,10,0,0,0,6.83,3.72,11,11,0,0,0,5.7-1.12,7,7,0,0,0,3.77-4.78c.15-.51,1.13-3.06,1-3.41,1.61,3.28,1.92,6.61,0,9.8A7.37,7.37,0,0,1,263.55,341.41Z"/><path d="M268.34,332.87c-.47-4.16-3.08-7.63-6.06-10.4-3.47-3.2-7.35-6-11-8.92a1.4,1.4,0,0,0-1.94.37,58.76,58.76,0,0,0-6.11,14c-1,3.57-2.28,7.23-2.49,10.95-.36,6.27,6.52,6.78,11.21,6.5,2.25-.13,4.51-.39,6.74-.74a14.46,14.46,0,0,0,5.57-1.86C267.56,340.65,268.78,336.68,268.34,332.87Zm-5.22,7.31c-2.59,2-6.64,2-9.75,2.34a25.74,25.74,0,0,1-5.82,0,8.42,8.42,0,0,1-2.69-.71c-.24-.93-1.24-1.29-1.38-2.44-.47-3.78,1.43-7.4,2.46-10.92a55.54,55.54,0,0,1,4.91-11.65c3.05,2.36,6.17,4.68,9,7.26,2.41,2.17,4.75,4.81,5.5,8C266,334.94,265.59,338.32,263.12,340.18Z"/><path class="cls-11" d="M286.79,335.34a4,4,0,0,1-1-.33,6.15,6.15,0,0,1-3.57-1.55,2.68,2.68,0,0,1-.56-.13c-4.07-1.43-3.32-6.15-2.54-9.63a4,4,0,0,1-.06-.71c0-2,.05-4.06.08-6.1a3.33,3.33,0,0,1-.23-1.65c.1-.88.19-1.77.28-2.65a4.68,4.68,0,0,1,.21-.91,11.51,11.51,0,0,0-1.18-2.42c-1.93-2.91,2.46-6.49,5.09-4.42,6.72,5.3,18.16,6.61,19.77,16.72C304.57,330.88,295,336.76,286.79,335.34Z"/><path class="cls-12" d="M299.11,330.58a10.47,10.47,0,0,1-5.25,4.52,16.82,16.82,0,0,1-8,.56,7.59,7.59,0,0,1-4.24-1.66,6.39,6.39,0,0,1-1.33-2,19,19,0,0,1-1.45-8.11c0-2.77.36-5.53.39-8.3,0-2.46-.56-5,.16-7.45a10.65,10.65,0,0,1,1.72,3.31c.65,1.52,1.62,2.89,2.27,4.39.72,1.66,1.54,3.27,2.4,4.87a11.88,11.88,0,0,0,1.39,2.16,12.55,12.55,0,0,0,2.59,2.17,13.24,13.24,0,0,0,2.83,1.61c1.68.61,3.13.16,4.72-.45a10.77,10.77,0,0,0,2.26-1.6c1.66-1.14,1.6.78,1.34,1.79A15.79,15.79,0,0,1,299.11,330.58Z"/><path d="M303.3,318.19c-.86-4-3.91-5.92-7.05-8.06-5.55-3.79-11.67-7.05-18.44-8.18a1.5,1.5,0,0,0-1.55,1.79,51.49,51.49,0,0,1,.79,10.3c-.09,3.25-.68,6.44-.9,9.67a15,15,0,0,0,1.64,8.85,8.94,8.94,0,0,0,6.63,4.58,1.74,1.74,0,0,0,.47,0,13.78,13.78,0,0,0,9.78-.69C301.31,333.41,304.81,325.19,303.3,318.19Zm-8.64,14.86c-4.88,3-13.24,2.36-15.12-3.88-.81-2.69-.43-5.6-.09-8.33a86.79,86.79,0,0,0,.14-15.46,42.86,42.86,0,0,1,11.55,5.13c3.58,2.2,9.42,5,9.95,9.84a9.84,9.84,0,0,1-.14,2.84C300.25,327.06,297.6,331.26,294.66,333.05Z"/><path class="cls-11" d="M328.36,306.21c-2.95-4.68-9.58-7.83-14.59-10.26a4,4,0,0,0-1-.48c-2.33-.75-3.3,1.17-3.44,3.13a50.25,50.25,0,0,0,.61,8.74,20.28,20.28,0,0,0,1.94,6.19c1,2.22,2.06,4.8,4.11,6.27,2.33,1.67,5.93,1.23,8.17-.34a14.24,14.24,0,0,0,5.27-8.25A6.83,6.83,0,0,0,328.36,306.21Z"/><path class="cls-12" d="M328.27,315.15a1.41,1.41,0,0,1-.19,1.18,14.77,14.77,0,0,1-1.89,2A11.4,11.4,0,0,1,322,321a6.76,6.76,0,0,1-4.91-.16,9.58,9.58,0,0,1-3.93-4.18,32,32,0,0,1-3.94-12.13,31.49,31.49,0,0,1-.09-6.51c.13-1.5.33-2.59,1.26-.65a39.81,39.81,0,0,1,2,5.05A49.09,49.09,0,0,0,315,310a26.6,26.6,0,0,0,2.87,4.22,8.14,8.14,0,0,0,2.18,2.12,5.39,5.39,0,0,0,3.89.45,11.22,11.22,0,0,0,3.61-1.68C328,314.89,328.18,315,328.27,315.15Z"/><path d="M329,304.15c-2.09-2.18-5-3.46-7.64-4.86-2.42-1.3-4.84-2.56-7.27-3.81-1.44-.73-4.13-2.94-5.49-1-.74,1.06-.62,2.42-.63,3.64,0,1.55,0,3.09,0,4.63a24.64,24.64,0,0,0,1.23,8.78,32.79,32.79,0,0,0,3.88,7.82,7,7,0,0,0,5.92,3.21,1.15,1.15,0,0,0,.79.21,11.46,11.46,0,0,0,7.34-3.88C330.5,315.17,333,308.32,329,304.15Zm-8.68,16.19a6,6,0,0,1-6.09-3.29,41.16,41.16,0,0,1-3-6.49,21,21,0,0,1-1-7.3c0-2.17-.56-5.2.56-7.1,3.11,1.71,6.32,3.4,9.48,5.09,2.27,1.21,4.86,2.33,6.76,4.1s2.07,4.25,1.35,6.74a12.06,12.06,0,0,1-6.13,7.67A6.78,6.78,0,0,1,320.33,320.34Z"/><path class="cls-11" d="M347.11,290.82c3.79-9.77-8.56-10.47-14.72-10.11-5.64.34-10.71,2.35-15.87,4.66a49.5,49.5,0,0,1,6.09,2.26,28.8,28.8,0,0,1,8.95,5.31c2,1.82,3,3.84,4.66,5.81a3.24,3.24,0,0,0,2.72,1.29,4.61,4.61,0,0,0,1.52-.54,14.37,14.37,0,0,0,2.11-1.23C345.16,296.42,345.77,294.27,347.11,290.82Z"/><path class="cls-12" d="M346.59,291.78a8.34,8.34,0,0,0,.31-1.42c0-.23,0-.51-.18-.63a.55.55,0,0,0-.42,0c-1.15.33-1.57,1.37-2.77,1.58a8.84,8.84,0,0,1-4.23-.5c-3.68-1.26-6.72-3.71-10.29-5.16a18.79,18.79,0,0,0-8.14-1.15c-.6,0-2.27-.25-2.2.7.05.63,1.13,1,1.57,1.32,1.22.86,2.41,1.78,3.65,2.63,3.08,2.09,6.28,4,9.36,6.07a10.42,10.42,0,0,1,2.12,1.73,9.85,9.85,0,0,0,1.49,1.72,3.6,3.6,0,0,0,3.5.21,9.75,9.75,0,0,0,2.89-2.23,15.7,15.7,0,0,0,2.67-3.31A8.85,8.85,0,0,0,346.59,291.78Z"/><path d="M345.08,296.91c3.47-4,4.88-10.88,1.36-15.29a1,1,0,0,0-.89-.4,24.17,24.17,0,0,0-7.72-2.88,15.55,15.55,0,0,0-7.65.65l-8.23,2.5c-2.06.63-5.21,1.05-5.92,3.47a1.15,1.15,0,0,0,.7,1.44c6.86,2,11.59,5.91,16.25,11.1,1.31,1.45,3.47,3.9,5.62,3.63a3.86,3.86,0,0,0,.88-.21A16.11,16.11,0,0,0,345.08,296.91Zm-1.27-2c-.73.85-4.63,4.21-5.93,3.45a17.9,17.9,0,0,1-3.92-3.71,36.24,36.24,0,0,0-4.76-4.42,35.6,35.6,0,0,0-10.13-5.46,8.33,8.33,0,0,1,1.41-.47l3.5-1.07,7-2.12a13.32,13.32,0,0,1,6.8-.5,21.67,21.67,0,0,1,6.77,2.63,1.22,1.22,0,0,0,.39.14C347.43,286.92,346.51,291.77,343.81,294.91Z"/><path class="cls-11" d="M185.31,346.32a10.68,10.68,0,0,0,5.08-.27,2.74,2.74,0,0,0,1.88.12c3.93-1,4.85-3.74,4.4-7a3.31,3.31,0,0,0,.12-.45c1-5.88-3.78-13.57-6.5-18.45-1.12-2-4-2.76-5.51-.6l-3.34,4.81a3.2,3.2,0,0,0-1.77,1.16c-2.94,3.62-7.38,9.39-5.93,14.42C175.08,344.72,181.16,345.72,185.31,346.32Z"/><path class="cls-12" d="M192.08,345.25l-1.26.11a69.55,69.55,0,0,1-7.22.2,11.83,11.83,0,0,1-3.2-.38,12.91,12.91,0,0,1-3.32-1.71,9.27,9.27,0,0,1-3.08-2.75,6.07,6.07,0,0,1-.74-2.09,10,10,0,0,1,.29-4.51c.27-1,.69-3.24,1.87-3.42a7.24,7.24,0,0,0,2.22,4.93,10.13,10.13,0,0,0,3.75,2.13,18.2,18.2,0,0,0,4.55,1,10.1,10.1,0,0,0,3.91-.33A7.06,7.06,0,0,0,194.6,332c.26-.19.58.17.72.47.85,1.92,1.71,3.45,1.76,5.61a8.19,8.19,0,0,1-1.72,5.51A4.46,4.46,0,0,1,192.08,345.25Z"/><path d="M176.55,345.6a14,14,0,0,0,5.61,1.36c2.22.16,4.45.24,6.67.18,4.62-.12,11.32-1.18,10.45-7.3-.51-3.62-2.06-7.11-3.35-10.52a57.08,57.08,0,0,0-7.14-13.25,1.38,1.38,0,0,0-1.93-.2c-3.39,3.17-7,6.23-10.09,9.65-2.7,3-5,6.58-5.09,10.69C171.57,340,173.08,343.77,176.55,345.6Zm-2-10.39c.46-3.25,2.55-6,4.73-8.35,2.6-2.76,5.47-5.29,8.26-7.86a55,55,0,0,1,5.77,11c1.3,3.37,3.46,6.76,3.31,10.5,0,1.14-1,1.58-1.15,2.51a8.48,8.48,0,0,1-2.57.92,24.86,24.86,0,0,1-5.71.49c-3.07,0-7,.23-9.75-1.48S174.11,338.05,174.51,335.21Z"/><path class="cls-11" d="M162.6,334.92a2.62,2.62,0,0,0,.66-.44,4.84,4.84,0,0,0,2.33-1.86,2,2,0,0,0,.38-.21c2.71-1.88,1.2-5.21-.09-7.61a2.21,2.21,0,0,0-.1-.54l-1.29-4.47a2.48,2.48,0,0,0-.17-1.26c-.25-.64-.49-1.27-.74-1.9a3.41,3.41,0,0,0-.34-.63,8.46,8.46,0,0,1,.38-2c.83-2.54-3.13-4.28-4.65-2.22-3.87,5.26-12,8.55-11.17,16.32C148.6,335.25,156.82,337.64,162.6,334.92Z"/><path class="cls-12" d="M165.37,320.45c.49.07.92.84,1.17,1.55,1,2.76,2.1,6.15,1.45,9.1a5,5,0,0,1-1,2.15,6.17,6.17,0,0,1-2.74,1.71,14.45,14.45,0,0,1-11.37-.61c-3.63-1.88-5.11-6.37-4.4-10.31.14-.8,1.32-5.61,2.62-5.33.49.1.36,5.33.53,6a8.41,8.41,0,0,0,3,4.79,5.63,5.63,0,0,0,5.41.83,6.16,6.16,0,0,0,3-3.1,13.64,13.64,0,0,0,1-4.28,5,5,0,0,1,.39-1.75C164.77,320.62,165.08,320.41,165.37,320.45Z"/><path d="M157,337.32a10.55,10.55,0,0,0,7.34-1.47,1.17,1.17,0,0,0,.35-.08,6.81,6.81,0,0,0,4-4.72,11.58,11.58,0,0,0-.58-6.85c-.82-2.34-1.91-4.56-2.63-6.94a39.34,39.34,0,0,1-1.51-7.75,1.14,1.14,0,0,0-1.51-1c-4.75,2.21-8.6,5.85-11.92,9.76-1.88,2.21-3.73,4.28-3.56,7.37C147.27,331.11,151.52,336.45,157,337.32Zm-7.31-8.47a7.38,7.38,0,0,1-.68-2.07c-.58-3.64,3.14-6.92,5.34-9.26a32.54,32.54,0,0,1,7.46-6.12,66.27,66.27,0,0,0,3.24,11.36,15.62,15.62,0,0,1,1.63,6.15c-.12,5-6.16,7.13-10.36,5.92A12,12,0,0,1,149.71,328.85Z"/><path class="cls-11" d="M142.72,321.76a9.05,9.05,0,0,0,1.29-.68,2.61,2.61,0,0,0,.75-.61,1.9,1.9,0,0,0,.21-1.78,30.37,30.37,0,0,1-1.49-4.21,17.12,17.12,0,0,1,.12-6.22,29.22,29.22,0,0,1,.77-3.81,27.28,27.28,0,0,0-7.37,6.61c-2.13,3-5.66,9.51.5,10.66C139.68,322.13,141,322.49,142.72,321.76Z"/><path class="cls-12" d="M135.38,312.93a1.15,1.15,0,0,1,.22.69,7.55,7.55,0,0,0,.48,2.86,5,5,0,0,0,.56.75,2.83,2.83,0,0,0,2,1.28,3.19,3.19,0,0,0,1.68-.43,16,16,0,0,0,1.74-1.11c.38-.28.85-.59,1.29-.43a1.48,1.48,0,0,1,.39.26,3.47,3.47,0,0,1,1.09,2.48,1.57,1.57,0,0,1-.11.68,1.87,1.87,0,0,1-.64.7,7.73,7.73,0,0,1-3.59,1.44,5.6,5.6,0,0,1-4.83-1.32,5.49,5.49,0,0,1-1.61-6C134.19,314.34,135,312.52,135.38,312.93Z"/><path d="M145,321a3.5,3.5,0,0,0,.39-.37c.81-1,.25-2.89-.08-4-1.17-4-1.66-7.64-.52-11.76a.7.7,0,0,0-.51-.82c-1.46-.4-2.66,1.07-3.63,1.92l-3.87,3.4a9.27,9.27,0,0,0-2.74,3.69,14.52,14.52,0,0,0-1,4.82.62.62,0,0,0-.08.59c1.14,3.17,5.08,4.62,8.2,4.12A9.53,9.53,0,0,0,145,321Zm-10.63-2.76a.6.6,0,0,0,.05-.24,13,13,0,0,1,.8-4.27,8.08,8.08,0,0,1,2.39-3.3l3.28-2.88,1.65-1.44a4.88,4.88,0,0,1,.68-.57,21.45,21.45,0,0,0-.42,6.87,22.33,22.33,0,0,0,.75,3.81,10.53,10.53,0,0,1,.65,3.17c0,.9-3,1.82-3.62,1.92A5.68,5.68,0,0,1,134.41,318.26Z"/><path d="M331.92,285.75a1,1,0,0,0,0,2A1,1,0,0,0,331.92,285.75Z"/><path d="M335.88,290.55a1,1,0,0,0,0,2A1,1,0,0,0,335.88,290.55Z"/><path d="M340.68,290.83a1,1,0,0,0,0,2A1,1,0,0,0,340.68,290.83Z"/><path d="M339.83,294.5a1,1,0,0,0,0,2A1,1,0,0,0,339.83,294.5Z"/><path d="M313.57,308.05a1,1,0,0,0,0,2A1,1,0,0,0,313.57,308.05Z"/><path d="M318.37,308.9a1,1,0,0,0,0,2A1,1,0,0,0,318.37,308.9Z"/><path d="M317.64,315a.94.94,0,0,0-.26-.44l-.2-.16a1,1,0,0,0-.5-.13h-.28a1,1,0,0,0-1,1l0,.26a.94.94,0,0,0,.26.44l.2.16a1,1,0,0,0,.51.14h.28a.82.82,0,0,0,.38-.09.69.69,0,0,0,.32-.21.75.75,0,0,0,.21-.32.85.85,0,0,0,.09-.38Z"/><path d="M323,316.13a1,1,0,0,0-.26-.44l-.2-.16a1,1,0,0,0-.51-.13h-.28a1,1,0,0,0-.71.29.83.83,0,0,0-.2.32.66.66,0,0,0-.09.39l0,.26a.92.92,0,0,0,.25.44l.21.16a1.07,1.07,0,0,0,.5.14H322a.86.86,0,0,0,.39-.09.94.94,0,0,0,.53-.53.73.73,0,0,0,.08-.38Z"/><path d="M284.77,319.35a1,1,0,0,0,0,2A1,1,0,0,0,284.77,319.35Z"/><path d="M283.08,325a1,1,0,0,0,0,2A1,1,0,0,0,283.08,325Z"/><path d="M289.57,324.71a1,1,0,0,0,0,2A1,1,0,0,0,289.57,324.71Z"/><path d="M289.57,331.49a1,1,0,0,0,0,2A1,1,0,0,0,289.57,331.49Z"/><path d="M247.78,332.34a1,1,0,0,0,0,2A1,1,0,0,0,247.78,332.34Z"/><path d="M249,338.44a1,1,0,0,0-.26-.45l-.2-.15a1,1,0,0,0-.5-.14h-.29a.73.73,0,0,0-.38.09.76.76,0,0,0-.32.2.72.72,0,0,0-.21.33.79.79,0,0,0-.09.38l0,.27a1,1,0,0,0,.26.44l.2.15a1,1,0,0,0,.5.14h.29a.65.65,0,0,0,.38-.09.67.67,0,0,0,.32-.2.75.75,0,0,0,.21-.32.86.86,0,0,0,.09-.39Z"/><path d="M254,338.83a1,1,0,0,0,0,2A1,1,0,0,0,254,338.83Z"/><path d="M213.9,333.47a1,1,0,0,0,0,2A1,1,0,0,0,213.9,333.47Z"/><path d="M212.77,340a1,1,0,0,0,0,2A1,1,0,0,0,212.77,340Z"/><path d="M216.72,343.07a1,1,0,0,0,0,2A1,1,0,0,0,216.72,343.07Z"/><path d="M223.9,342.11a1,1,0,0,0-.26-.45l-.2-.15a1,1,0,0,0-.5-.14h-.29a.85.85,0,0,0-.38.09.76.76,0,0,0-.32.2.78.78,0,0,0-.21.33.82.82,0,0,0-.09.38l0,.27a1,1,0,0,0,.26.44l.2.15a.9.9,0,0,0,.5.14h.29a.73.73,0,0,0,.38-.08.69.69,0,0,0,.32-.21.75.75,0,0,0,.21-.32.86.86,0,0,0,.09-.39Z"/><path d="M178.32,333.18a1,1,0,0,0,0,2A1,1,0,0,0,178.32,333.18Z"/><path d="M179.85,340.41a1,1,0,0,0-.25-.44l-.21-.16a1,1,0,0,0-.5-.13h-.28a1,1,0,0,0-1,1l0,.26a1,1,0,0,0,.26.44l.2.16a1,1,0,0,0,.51.14h.28a.79.79,0,0,0,.38-.09.72.72,0,0,0,.33-.21.76.76,0,0,0,.2-.32.71.71,0,0,0,.09-.38Z"/><path d="M186,337.75a.85.85,0,0,0-.21-.32,1,1,0,0,0-.71-.29l-.26,0a1.13,1.13,0,0,0-.45.26l-.15.2a1,1,0,0,0-.14.51v.28a.71.71,0,0,0,.09.38.81.81,0,0,0,.53.53.71.71,0,0,0,.38.09l.27,0a1,1,0,0,0,.44-.25l.15-.21a.88.88,0,0,0,.14-.5v-.28A.74.74,0,0,0,186,337.75Z"/><path d="M187.64,341.37a1,1,0,0,0,0,2A1,1,0,0,0,187.64,341.37Z"/><path d="M192.72,338.83a1,1,0,0,0,0,2A1,1,0,0,0,192.72,338.83Z"/><path d="M151.78,327a1,1,0,0,0,0,2A1,1,0,0,0,151.78,327Z"/><path d="M155.74,330.92a1,1,0,0,0,0,2A1,1,0,0,0,155.74,330.92Z"/><path d="M160.82,326.12a1,1,0,0,0,0,2A1,1,0,0,0,160.82,326.12Z"/><path d="M162.8,330.64a1,1,0,0,0,0,2A1,1,0,0,0,162.8,330.64Z"/><path d="M137.38,316.24a1,1,0,0,0,0,2A1,1,0,0,0,137.38,316.24Z"/><path d="M141.18,318.2v.17a1,1,0,0,0,2,0v-.17A1,1,0,0,0,141.18,318.2Z"/><path d="M139.08,318.78a1,1,0,0,0,0,2A1,1,0,0,0,139.08,318.78Z"/><path d="M249.48,116.34l-.2,0h0l-.43-.07a6.66,6.66,0,0,1-.77-.19,7.46,7.46,0,0,1-.8-.26l-.19-.07-.05,0-.38-.17a11.08,11.08,0,0,1-1.41-.83l-.16-.12-.06,0-.28-.23c-.22-.19-.44-.39-.65-.61a1,1,0,0,0-1.41,0,1,1,0,0,0,0,1.42,11.09,11.09,0,0,0,6.82,3.22,1,1,0,0,0,1-1A1,1,0,0,0,249.48,116.34Z"/><path d="M202.14,108.53a1,1,0,0,0-1.37-.36,9.24,9.24,0,0,1-3,1.23,9.74,9.74,0,0,1-3.25.15,1,1,0,0,0-1,1,1,1,0,0,0,1,1,11.4,11.4,0,0,0,7.27-1.66A1,1,0,0,0,202.14,108.53Z"/><path d="M209.31,88.37a8.69,8.69,0,0,0-6.72-3.88c-2.84-.18-5.56,1-8.09,2.17l-.13,0-.07,0a1.2,1.2,0,0,0-.34.17l-.06,0a.87.87,0,0,0-.35.3,16.23,16.23,0,0,0-5.2,5.48,1,1,0,0,0,1.73,1,19.59,19.59,0,0,1,1.09-1.65h0l0,0,.17-.22.3-.35c.22-.25.45-.5.69-.74s.46-.45.7-.66l.39-.33.18-.14.07-.06a16.41,16.41,0,0,1,1.57-1,16.19,16.19,0,0,1,6.81-2,6.63,6.63,0,0,1,5.49,2.91C208.3,90.45,210,89.45,209.31,88.37Z"/><path d="M260,95a.83.83,0,0,0-.19-.61A14.21,14.21,0,0,0,250,89.2c-1.52-.19-10.72.13-9.07,3.54.62,1.29,2.83-.91,3.65-1.2A12,12,0,0,1,250,91.2c4.09.54,9.73,3.53,9.29,8.42a.68.68,0,0,1,0,.14c0,.14-.06.27-.09.41a1,1,0,0,0,1.93.53A6.7,6.7,0,0,0,260,95Z"/><path d="M275,60.6a22.25,22.25,0,0,0-2.65-5.88,1,1,0,1,0-1.73,1,21.06,21.06,0,0,1,1.46,2.68c.06.12.11.25.17.37l0,.06,0,.08c.1.25.2.5.29.76.17.48.33,1,.47,1.45a1,1,0,0,0,1.23.7A1,1,0,0,0,275,60.6Z"/><path d="M330.3,78.4a10.94,10.94,0,0,0-1.74-3.93A1.11,1.11,0,0,0,328,74a1.09,1.09,0,0,0-.77.1,1,1,0,0,0-.36,1.37,11.09,11.09,0,0,1,1,1.73l0,.09.09.21.15.43a8,8,0,0,1,.27,1,1,1,0,1,0,1.93-.53Z"/><path d="M383.06,113.51a1,1,0,0,0-1,1,20,20,0,0,1-1.43,7.07,1,1,0,0,0,1.93.53,21.47,21.47,0,0,0,1.5-7.6A1,1,0,0,0,383.06,113.51Z"/><path d="M404.47,171.71a1,1,0,0,0-1.23.7,32,32,0,0,1-2.16,6.82,1,1,0,0,0,.35,1.37,1,1,0,0,0,1.37-.36,33.49,33.49,0,0,0,2.37-7.3A1,1,0,0,0,404.47,171.71Z"/><path d="M401.7,233.85a1,1,0,0,0-1.23.69c-.11.39-.24.78-.37,1.16l-.24.61v0l0,0c0,.1-.08.2-.13.3a16.91,16.91,0,0,1-1.17,2.13,1,1,0,0,0,.36,1.37,1,1,0,0,0,1.37-.36,18,18,0,0,0,2.14-4.73A1,1,0,0,0,401.7,233.85Z"/><path class="cls-11" d="M245.76,136.47a10.57,10.57,0,0,0-.52-2.57,3.39,3.39,0,0,0-1.7-2c-2.83-3.48-7.68-5.7-12.09-5a7.44,7.44,0,0,0-1.55.42,3.28,3.28,0,0,0-2.3.42l-1.06.59a3.29,3.29,0,0,0-1.75.07c-12.53,3.86-2.13,21.43-2.42,29.44-.11,3,3.94,4.69,6,2.47l.4-.44a3.63,3.63,0,0,0,2.06-.83c4.72-3.86,11.58-10,14.06-16.73A8.68,8.68,0,0,0,245.76,136.47Z"/><path class="cls-12" d="M245.41,133.62a2.15,2.15,0,0,0-1.79-1c-.11-.26-.23-.53-.37-.79-1.23-2.26-4.69-.24-3.45,2,2.44,4.49-1.22,9.79-3.77,13.38a46.47,46.47,0,0,1-10.32,10.44,2.07,2.07,0,0,0-.72,2.74,2,2,0,0,0,2.74.72,53.62,53.62,0,0,0,8.78-8.11,1.91,1.91,0,0,0,2.44-.21c2.68-2.49,5.46-5.14,6.93-8.56S247.56,136.78,245.41,133.62Z"/><path d="M245.18,130.09a24.63,24.63,0,0,0-11-4.72,22.22,22.22,0,0,0-14.58,3.23c-5.85,4.1-2.67,14.25-1.51,20.16a73.13,73.13,0,0,0,2,7.87c.4,1.27.84,2.53,1.3,3.77,2.17,5.87,4.18,4.3,8.46,1.65a51.17,51.17,0,0,0,12-10.48,35.35,35.35,0,0,0,5.5-7.72,13.23,13.23,0,0,0,1.11-9.24A9.41,9.41,0,0,0,245.18,130.09Zm-10.57,25c-4.39,4.6-9,8.06-10.53,4-.42-1.15-.81-2.3-1.17-3.47q-1-3.44-1.77-6.95c-.88-4.34-2.39-9.09-1.7-13.56.86-5.66,8.47-7.17,13.52-6.81s11.46,4,12.88,9.06c.87,3.1-.44,4.82-2.29,7C242.71,145.29,238.77,150.69,234.61,155.06Z"/><path class="cls-11" d="M275.75,136.78a11.9,11.9,0,0,0-5.21-1.95,3,3,0,0,0-1.84-.94c-4.38-.73-6.49,1.62-7.47,5.09a2.44,2.44,0,0,0-.32.4c-3.6,5.46-2.17,15.26-1.59,21.36.24,2.51,2.83,4.52,5.27,3l5.46-3.36a3.58,3.58,0,0,0,2.29-.39c4.53-2.34,11.52-6.18,12.28-11.86C285.31,142.88,279.65,139.21,275.75,136.78Z"/><path class="cls-12" d="M283.75,145.08a32.79,32.79,0,0,0-2.8-5.37c-1.33-2.2-4.79-.19-3.45,2,2.39,4,1.14,8.59-2.35,11.38a33,33,0,0,1-6,3.49l-7.93,4c-2.31,1.15-.28,4.6,2,3.45,4.59-2.3,9.49-4.13,14.14-6.32,3.36-1.57,7.76-6,7.05-10.2A12.26,12.26,0,0,0,283.75,145.08Z"/><path d="M284.23,141.36a15.41,15.41,0,0,0-5-3.83c-2.15-1.13-4.35-2.19-6.6-3.11-4.69-1.91-11.88-3.78-13.69,2.74-1.08,3.86-1,8-1.26,12A63,63,0,0,0,259,165.61a1.52,1.52,0,0,0,1.84,1c4.79-1.7,9.71-3.2,14.36-5.26,4-1.78,7.87-4.42,9.8-8.49C286.76,149.18,286.9,144.71,284.23,141.36Zm-2.52,11.32c-1.89,3-5.2,4.92-8.41,6.29-3.81,1.63-7.8,2.91-11.73,4.26a59.91,59.91,0,0,1-1-13.57c.16-3.45-1.05-11.47,2.75-13.63,2.73-1.56,7.26.73,9.72,1.85,3.06,1.39,7.16,2.86,9.13,5.77C284.07,146.4,283.36,150,281.71,152.68Z"/><path class="cls-11" d="M305.46,153.22a3.36,3.36,0,0,0-1,0,6.27,6.27,0,0,0-3.89.31,3.68,3.68,0,0,0-.57-.06c-4.33,0-5.15,4.77-5.53,8.32a4.39,4.39,0,0,0-.29.66c-.63,1.94-1.27,3.88-1.9,5.82a3.38,3.38,0,0,0-.75,1.49c-.2.87-.39,1.74-.59,2.61a3.88,3.88,0,0,0-.1.93,11.07,11.07,0,0,1-1.9,1.91c-2.77,2.15.24,7,3.4,5.85,8.1-2.86,19.39-.39,24.19-9.48C320.9,163.21,313.74,154.53,305.46,153.22Z"/><path class="cls-12" d="M315.86,161.67a1.84,1.84,0,0,0-1.19-1.77,8.5,8.5,0,0,0-.28-1.29c-.78-2.45-4.65-1.4-3.86,1.06s-.69,4.68-1.74,6.69-2.23,4.12-4.18,5.43a28.64,28.64,0,0,1-6.39,2.86,60.21,60.21,0,0,1-8,2.44c-2.18.47-1.73,4.09.53,3.93a86.69,86.69,0,0,0,9.64-1.23,35.71,35.71,0,0,0,9.1-2.5C315.36,174.45,316,167.37,315.86,161.67Z"/><path d="M313.29,154.74a13.78,13.78,0,0,0-9.06-3.82,1.39,1.39,0,0,0-.43-.18,9,9,0,0,0-7.79,2.2,15.05,15.05,0,0,0-4.42,7.87c-.84,3.14-1.31,6.36-2.28,9.47a50.47,50.47,0,0,1-4.08,9.53,1.51,1.51,0,0,0,.89,2.21c6.79,1.11,13.67,0,20.16-1.8,3.67-1,7.21-1.89,9.31-5.38C319.29,168.69,318.62,159.75,313.29,154.74ZM315,169.33a10.12,10.12,0,0,1-.79,2.75c-2.06,4.39-8.53,5.19-12.64,6.12a42.88,42.88,0,0,1-12.62,1.13,88,88,0,0,0,4.87-14.73c.56-2.7,1.14-5.59,2.77-7.87,3.81-5.33,11.95-3.2,15.62,1.21C314.4,160.59,315.56,165.43,315,169.33Z"/><path class="cls-11" d="M338.93,183.94a9.47,9.47,0,0,0-7.45-2.06c-3.71.44-6.56,3.77-9,6.33s-16.22,22.76-6.59,22.95a5,5,0,0,0,1.44-.18c7.3-.91,16.93-2,22.61-6.61a8.74,8.74,0,0,0,3.45-8.25c-.55-3-1.09-6.73-2.47-9.51A8.46,8.46,0,0,0,338.93,183.94Z"/><path class="cls-12" d="M344.27,193.7a13.56,13.56,0,0,0-1-4.25c-.65-1.46-3.31-2.38-3.73,0-1.06,5.87-5.91,9.82-11.33,11.69s-13.39,1.2-16.58,7.1a2,2,0,0,0,2.26,2.94c7.18-1.26,14.31-2.85,21.34-4.79,3-.82,6-1.62,7.74-4.46C344.15,199.93,344.53,196.64,344.27,193.7Z"/><path d="M343.84,188a15.19,15.19,0,0,0-7.53-8,1.52,1.52,0,0,0-1.08-.08c-2.89-1.21-6.24-.32-8.76,1.48a43.73,43.73,0,0,0-8.18,8.13A32.5,32.5,0,0,0,313,200l-1.92,5.79c-.62,1.86-1.44,3.65-.5,5.53,1.13,2.3,5,.71,6.77.45q5.47-.79,10.94-1.68c3.87-.64,8.08-1,11.63-2.82C346.73,203.72,346.48,194.08,343.84,188ZM342.49,197c-.16,3.42-1.29,6.39-4.56,7.85s-6.84,1.69-10.19,2.24c-4.67.77-9.4,1.52-14,2.33-.6-2.86,1.41-6.4,2.31-9.11a28,28,0,0,1,4.37-8.7,54.13,54.13,0,0,1,6.55-6.82C335.43,177.36,342.86,189.14,342.49,197Z"/><path class="cls-11" d="M356.45,216.18a19,19,0,0,0-2.11-2.45,6.29,6.29,0,0,0-1.68-1.32,4.26,4.26,0,0,0-4,.45c-2.89,1.78-5.07,3.86-8.33,5.3-4.53,2-8.62,2.48-13.5,2.82a63.31,63.31,0,0,1-8.6.23c5.48,5.11,11,9.8,17.92,12.64,7.56,3.09,23.34,7.49,22.77-6.38C358.76,222.56,358.91,219.61,356.45,216.18Z"/><path class="cls-12" d="M355.5,224.3a13.36,13.36,0,0,1-7,1.65,77.43,77.43,0,0,1-8.48-.44,92.28,92.28,0,0,1-17.11-3.42c-2.47-.74-3.53,3.12-1.06,3.85,1.79.54,3.61,1,5.43,1.44A2.12,2.12,0,0,0,328,230a61.05,61.05,0,0,0,18.65,7.2c1.59.32,3.46.87,5.08.42a7.89,7.89,0,0,0,3.62-2.79,14,14,0,0,0,3.13-8.78A2,2,0,0,0,355.5,224.3Z"/><path d="M353.71,211.54a5.83,5.83,0,0,0-1-.65c-2.59-1.24-6.35.9-8.6,2.16-8.07,4.51-15.67,7.37-25.13,7a1.51,1.51,0,0,0-1.5,1.5c-.14,3.34,3.62,5.22,5.94,6.89q4.63,3.32,9.25,6.65a20.54,20.54,0,0,0,9.33,4.09c3.34.49,6.51.1,9.84,0,8.74-.14,9.6-14.25,7.19-20.22A21.37,21.37,0,0,0,353.71,211.54ZM353,235.86a1.42,1.42,0,0,0-.54,0,28.78,28.78,0,0,1-9.62.39,17.67,17.67,0,0,1-8.31-3.53l-7.85-5.65-3.94-2.83a12.54,12.54,0,0,1-1.56-1.2,47.22,47.22,0,0,0,15-2.51,48.08,48.08,0,0,0,7.86-3.51c2.07-1.15,4.16-2.5,6.5-3,2-.4,5.41,5.47,6,6.85C358.62,226,357.7,232.49,353,235.86Z"/><path class="cls-11" d="M190.83,124.77a11.39,11.39,0,0,1,5.37.25,2.92,2.92,0,0,1,2-.14c4.16,1,5.15,3.9,4.7,7.35a2.85,2.85,0,0,1,.13.48c1.12,6.21-3.87,14.37-6.7,19.56-1.17,2.14-4.22,2.94-5.82.68l-3.57-5.06a3.4,3.4,0,0,1-1.89-1.21c-3.13-3.8-7.88-9.86-6.39-15.19C180,126.56,186.45,125.45,190.83,124.77Z"/><path class="cls-12" d="M198,125.53c-2.51-.53-3.58,3.32-1.06,3.86,4,.85,2,6.37.95,8.69-2,4.3-3.92,8.64-5.55,13.1-.89,2.42,3,3.46,3.85,1.06,1-2.61,2-5.2,3.12-7.75s2.53-5.05,3.42-7.71C204.16,132.57,203.09,126.6,198,125.53Z"/><path d="M176.51,135.58c.17,4.34,2.6,8.15,5.48,11.25,3.34,3.59,7.13,6.8,10.74,10.12a1.48,1.48,0,0,0,2-.23,60.54,60.54,0,0,0,7.43-14.07c1.33-3.61,2.94-7.31,3.45-11.15.86-6.47-6.23-7.54-11.11-7.62-2.35,0-4.71.06-7,.24a15.22,15.22,0,0,0-5.93,1.49C177.93,127.58,176.36,131.59,176.51,135.58Zm6-7.17c2.84-1.83,7-1.58,10.29-1.65a25.94,25.94,0,0,1,6,.47,8.86,8.86,0,0,1,2.73,1c.18,1,1.18,1.43,1.24,2.64.19,4-2.07,7.55-3.41,11.12a57.63,57.63,0,0,1-6,11.69c-3-2.69-6-5.34-8.8-8.24-2.33-2.43-4.55-5.35-5.06-8.77C179.06,133.62,179.8,130.15,182.5,128.41Z"/><path class="cls-11" d="M158,126.9a3.67,3.67,0,0,1,.87.37,5.6,5.6,0,0,1,3.1,1.62,4,4,0,0,1,.49.16c3.56,1.56,2.56,5.75,1.62,8.82a3.39,3.39,0,0,1,0,.64l-.48,5.47a3.08,3.08,0,0,1,.09,1.5c-.15.79-.29,1.58-.44,2.36a3.13,3.13,0,0,1-.25.8,10.58,10.58,0,0,0,.9,2.25c1.53,2.75-2.65,5.67-4.87,3.63-5.67-5.22-15.85-7.17-16.61-16.36C141.75,129.7,150.71,125.07,158,126.9Z"/><path class="cls-12" d="M163.34,151.3c-3.52-3.28-8.71-4.43-11.31-8.69a12.46,12.46,0,0,1-.73-11.81c1.13-2.3-2.31-4.33-3.45-2-.14.28-.26.55-.38.83a2.28,2.28,0,0,0-1.73,1,12.76,12.76,0,0,0-1.59,12.09,15.14,15.14,0,0,0,8.83,8.54,1.87,1.87,0,0,0,2-.65,28.61,28.61,0,0,1,5.5,3.56C162.39,155.88,165.22,153.06,163.34,151.3Z"/><path d="M142,141.17c.5,3.62,3.11,5.59,5.78,7.72,4.73,3.78,10,7.12,16,8.6.88.22,1.6-.72,1.52-1.5a45.26,45.26,0,0,1,0-9.31c.3-2.91,1.05-5.73,1.47-8.62a13.61,13.61,0,0,0-.88-8.05,8,8,0,0,0-5.64-4.56,1.25,1.25,0,0,0-.43,0,12.36,12.36,0,0,0-8.82,0C144.85,127.65,141.14,134.79,142,141.17Zm8.77-12.75c4.58-2.34,12.05-1.22,13.31,4.52.55,2.46,0,5.05-.49,7.47a79.85,79.85,0,0,0-1.18,13.87,38.25,38.25,0,0,1-10-5.38c-3.06-2.22-8.12-5.17-8.27-9.51a9.19,9.19,0,0,1,.32-2.55C145.37,133.42,148,129.83,150.79,128.42Z"/><path class="cls-11" d="M115.73,155.59c2.84,5.38,9.86,9.38,15.15,12.46a4.07,4.07,0,0,0,1,.61c3.2,1.3,5-2.49,3.14-4.64-.42-2.39,1-5.7,1-8a20,20,0,0,0-1.64-7.09c-1.53-4.2-3.45-9.51-9.05-8.36a3.36,3.36,0,0,0-.95.37,4.26,4.26,0,0,0-.84.4C118.67,144.56,112.17,148.84,115.73,155.59Z"/><path class="cls-12" d="M135.15,165.58c-3.6-3.62-7.29-7.16-10.79-10.87-2.13-2.26-5.07-6.55-1.88-9.23a2,2,0,0,0,0-2.83,2.05,2.05,0,0,0-2.83,0,6.91,6.91,0,0,0-1.91,2.69,2.1,2.1,0,0,0-1.52,1.41,12.43,12.43,0,0,0-.72,6.35,10.6,10.6,0,0,0,3.19,5c1.44,1.47,2.92,2.92,4.42,4.33s3.3,2.59,5.55,2.35l3.66,3.68C134.14,170.24,137,167.41,135.15,165.58Z"/><path d="M114.84,157.8c2.12,2.56,5.23,4.21,8,6q5,3.18,10.06,6.23a1.3,1.3,0,0,0,1.29.05,1.12,1.12,0,0,0,1.8.46c1.33-1.13,1.29-2.77,1.43-4.39s.29-3.38.43-5.07a27,27,0,0,0-.63-9.73,35.87,35.87,0,0,0-3.59-8.9,7.72,7.72,0,0,0-6.23-4,1.27,1.27,0,0,0-.85-.29,12.58,12.58,0,0,0-8.37,3.64C114.13,145.59,110.78,152.89,114.84,157.8Zm10.87-17.11a1.08,1.08,0,0,0,1,.28c2.61-.44,4.43,1.8,5.44,3.91a45.16,45.16,0,0,1,2.78,7.37,23.17,23.17,0,0,1,.49,8.09c-.19,2.37.19,5.74-1.21,7.74-3.26-2.14-6.64-4.26-10-6.38-2.38-1.52-5.13-2.95-7.07-5s-1.91-4.84-.92-7.51C117.77,145,121.23,141.31,125.71,140.69Z"/><path class="cls-11" d="M103.53,168c-7.64,5.68,1.53,12.19,6.44,14.89,4.51,2.46,9.38,3.37,14.47,4.08a45.34,45.34,0,0,1-3.59-4.68,26.27,26.27,0,0,1-4.33-8.41c-.64-2.36-.48-4.42-.77-6.73a3,3,0,0,0-1.47-2.3,4.19,4.19,0,0,0-1.44-.32,13,13,0,0,0-2.21-.07C107.74,164.65,106.23,166,103.53,168Z"/><path class="cls-12" d="M121.87,184.44a2,2,0,0,0-1.19-.92c-.38-.09-.75-.2-1.12-.31a10,10,0,0,0-4.74-3.43,50.33,50.33,0,0,1-4.9-1.83,7.77,7.77,0,0,1-3.71-3.6,4.38,4.38,0,0,1,.41-4.34,2,2,0,0,0-.71-2.74,2,2,0,0,0-2.74.72,6.87,6.87,0,0,0-.93,1.88,1.54,1.54,0,0,0-.6.66,8.32,8.32,0,0,0,1.83,9.28c2.3,2.42,5.68,3.44,8.83,4.21a2.16,2.16,0,0,0,.84,0c0,.05,0,.1,0,.15a2,2,0,0,0,.92,1.2,25.53,25.53,0,0,0,5.53,2,2.1,2.1,0,0,0,1.55-.2,2,2,0,0,0,.91-1.19A2,2,0,0,0,121.87,184.44Z"/><path d="M108,164.31c-4.6,1.41-9,6-8.43,11.11a.91.91,0,0,0,.49.74,22,22,0,0,0,4.55,5.94,13.91,13.91,0,0,0,6.2,3.2l7.54,2.06c1.9.51,4.52,1.71,6.24.19a1.05,1.05,0,0,0,.15-1.45c-4.3-4.86-6.06-10.15-7.14-16.4-.3-1.74-.79-4.67-2.57-5.51a3.65,3.65,0,0,0-.77-.26A14.61,14.61,0,0,0,108,164.31Zm0,2.15c1-.3,5.59-1,6.23.22a16.29,16.29,0,0,1,1.22,4.75,33.08,33.08,0,0,0,1.53,5.7,32.18,32.18,0,0,0,5.16,9.1,8.23,8.23,0,0,1-1.32-.32l-3.2-.87-6.4-1.75a12.18,12.18,0,0,1-5.48-2.9,19.84,19.84,0,0,1-3.94-5.29,1,1,0,0,0-.23-.3C101.4,170.86,104.45,167.57,108.05,166.46Z"/><path d="M235.55,135.16a1,1,0,0,0,0,2A1,1,0,0,0,235.55,135.16Z"/><path d="M242.7,138.55a1,1,0,0,0,0,2A1,1,0,0,0,242.7,138.55Z"/><path d="M233.67,144.2a1,1,0,0,0,0,2A1,1,0,0,0,233.67,144.2Z"/><path d="M276.37,144.06a.69.69,0,0,0-.21-.32.75.75,0,0,0-.32-.21.86.86,0,0,0-.39-.09l-.26,0a.94.94,0,0,0-.44.26l-.16.2a1,1,0,0,0-.14.5v.38a.79.79,0,0,0,.09.38.72.72,0,0,0,.21.33.76.76,0,0,0,.32.2.73.73,0,0,0,.38.09l.27,0a.92.92,0,0,0,.44-.25l.16-.21a1,1,0,0,0,.13-.5v-.38A.71.71,0,0,0,276.37,144.06Z"/><path d="M279.6,146.08a1,1,0,0,0,0,2A1,1,0,0,0,279.6,146.08Z"/><path d="M276,149.7a.75.75,0,0,0-.21-.32.67.67,0,0,0-.32-.2.63.63,0,0,0-.38-.09l-.27,0a1,1,0,0,0-.44.25l-.16.2a1,1,0,0,0-.13.51v.38a.73.73,0,0,0,.08.38.69.69,0,0,0,.21.32.75.75,0,0,0,.32.21.86.86,0,0,0,.39.09l.26,0a.94.94,0,0,0,.44-.26l.16-.2a1,1,0,0,0,.14-.5v-.38A.86.86,0,0,0,276,149.7Z"/><path d="M302.18,173.56a1,1,0,0,0,0,2A1,1,0,0,0,302.18,173.56Z"/><path d="M310.47,170.92a1,1,0,0,0,0,2A1,1,0,0,0,310.47,170.92Z"/><path d="M308.74,165.89a.72.72,0,0,0-.2-.32,1,1,0,0,0-.71-.29l-.27,0a1.17,1.17,0,0,0-.44.26l-.15.2a1,1,0,0,0-.14.51v.37a.75.75,0,0,0,.09.39.83.83,0,0,0,.2.32.72.72,0,0,0,.33.21.69.69,0,0,0,.38.08l.27,0a1,1,0,0,0,.44-.26l.15-.2a1,1,0,0,0,.14-.51v-.37A.66.66,0,0,0,308.74,165.89Z"/><path d="M313.48,163.4a1,1,0,0,0,0,2A1,1,0,0,0,313.48,163.4Z"/><path d="M325.36,202.91a1,1,0,0,0-.26-.45l-.37-.37a.72.72,0,0,0-.33-.21.71.71,0,0,0-.38-.08,1,1,0,0,0-.71.29l-.15.2a.91.91,0,0,0-.14.51l0,.26a1,1,0,0,0,.26.44l.38.38a1,1,0,0,0,.71.29.73.73,0,0,0,.38-.08.75.75,0,0,0,.32-.21l.16-.2a1.15,1.15,0,0,0,.14-.51Z"/><path d="M331.38,198a1,1,0,0,0-.25-.44l-.21-.16a1,1,0,0,0-.5-.13H330a.71.71,0,0,0-.38.08.69.69,0,0,0-.32.21.75.75,0,0,0-.21.32.86.86,0,0,0-.09.39l0,.26a.94.94,0,0,0,.26.44l.2.16a1,1,0,0,0,.5.14h.38a.82.82,0,0,0,.38-.09.72.72,0,0,0,.33-.21.76.76,0,0,0,.2-.32.71.71,0,0,0,.09-.38Z"/><path d="M332.68,201.42a1,1,0,0,0,0,2A1,1,0,0,0,332.68,201.42Z"/><path d="M340,200.53a.94.94,0,0,0-.53-.53.82.82,0,0,0-.38-.09l-.27,0a1,1,0,0,0-.44.26l-.16.2a1,1,0,0,0-.13.5v.38a.69.69,0,0,0,.08.38.72.72,0,0,0,.21.33.83.83,0,0,0,.32.2.75.75,0,0,0,.39.09l.26,0a.92.92,0,0,0,.44-.25l.16-.21a1,1,0,0,0,.14-.5v-.38A.85.85,0,0,0,340,200.53Z"/><path d="M339.67,195a1,1,0,0,0-.26-.44l-.38-.38a.72.72,0,0,0-.32-.2.66.66,0,0,0-.39-.09.65.65,0,0,0-.38.09.72.72,0,0,0-.32.2l-.16.2a1.15,1.15,0,0,0-.14.51l0,.27a1.05,1.05,0,0,0,.26.44l.37.37a.72.72,0,0,0,.33.21.79.79,0,0,0,.38.09.86.86,0,0,0,.39-.09.75.75,0,0,0,.32-.21l.15-.2a1,1,0,0,0,.14-.5Z"/><path d="M339.45,225.51a1,1,0,0,0,0,2A1,1,0,0,0,339.45,225.51Z"/><path d="M340.21,231.16a1,1,0,0,0,0,2A1,1,0,0,0,340.21,231.16Z"/><path d="M348.87,231.16a1,1,0,0,0,0,2A1,1,0,0,0,348.87,231.16Z"/><path d="M351.88,226.27a1,1,0,0,0,0,2A1,1,0,0,0,351.88,226.27Z"/><path d="M355.27,225.89a1,1,0,0,0,0,2A1,1,0,0,0,355.27,225.89Z"/><path d="M196,130.27a1,1,0,0,0,0,2A1,1,0,0,0,196,130.27Z"/><path d="M195.27,138.55a1,1,0,0,0,0,2A1,1,0,0,0,195.27,138.55Z"/><path d="M192.63,134.78a1,1,0,0,0,0,2A1,1,0,0,0,192.63,134.78Z"/><path d="M195.64,144.57a1,1,0,0,0,0,2A1,1,0,0,0,195.64,144.57Z"/><path d="M150.47,133.28a1,1,0,0,0,0,2A1,1,0,0,0,150.47,133.28Z"/><path d="M148.21,138.92a1,1,0,0,0,0,2A1,1,0,0,0,148.21,138.92Z"/><path d="M153.1,139.68a1,1,0,0,0,0,2A1,1,0,0,0,153.1,139.68Z"/><path d="M154.61,143.82a1,1,0,0,0,0,2A1,1,0,0,0,154.61,143.82Z"/><path d="M122.23,147.58a1,1,0,0,0,0,2A1,1,0,0,0,122.23,147.58Z"/><path d="M120.72,153.61a1,1,0,0,0,0,2A1,1,0,0,0,120.72,153.61Z"/><path d="M126.75,154a1,1,0,0,0,0,2A1,1,0,0,0,126.75,154Z"/><path d="M128.47,158.48a1.1,1.1,0,0,0-.26-.44l-.2-.16a1,1,0,0,0-.51-.13h-.38a.73.73,0,0,0-.38.08.94.94,0,0,0-.53.53.86.86,0,0,0-.09.39l0,.26a1,1,0,0,0,.26.45l.2.15a1,1,0,0,0,.5.14h.38a.86.86,0,0,0,.39-.09.83.83,0,0,0,.32-.2.89.89,0,0,0,.21-.33.71.71,0,0,0,.08-.38Z"/><path d="M107.17,172.43a1,1,0,0,0,0,2A1,1,0,0,0,107.17,172.43Z"/><path d="M107.92,177.32a1,1,0,0,0,0,2A1,1,0,0,0,107.92,177.32Z"/><path d="M112.44,178.08a1,1,0,0,0,0,2A1,1,0,0,0,112.44,178.08Z"/><path d="M273.36,154.6a.69.69,0,0,0-.21-.32.75.75,0,0,0-.32-.21.86.86,0,0,0-.39-.09l-.26,0a.94.94,0,0,0-.44.26l-.16.2a1,1,0,0,0-.14.5v.38a.86.86,0,0,0,.09.39.75.75,0,0,0,.21.32.76.76,0,0,0,.32.2.63.63,0,0,0,.38.09l.27,0a1,1,0,0,0,.44-.25l.16-.21a1,1,0,0,0,.13-.5V155A.73.73,0,0,0,273.36,154.6Z"/><path d="M233.67,151.35a1,1,0,0,0,0,2A1,1,0,0,0,233.67,151.35Z"/><path class="cls-8" d="M247.05,59.74a1,1,0,0,0-1.23-.7,22.3,22.3,0,0,0-7.92,5.5,1,1,0,0,0,0,1.42,1,1,0,0,0,1.41,0,20.17,20.17,0,0,1,7-5A1,1,0,0,0,247.05,59.74Z"/><path class="cls-8" d="M319,68.58a1,1,0,0,0-1.36-.36L308,74.66a1,1,0,0,0-.36,1.37,1,1,0,0,0,1.37.36L318.61,70A1,1,0,0,0,319,68.58Z"/><path class="cls-8" d="M368.64,97.75l-7.83,4.37c-1.12.62-.12,2.35,1,1.72l7.83-4.37C370.77,98.85,369.77,97.12,368.64,97.75Z"/><path class="cls-8" d="M257.69,53.31a1,1,0,0,0-1.37-.36l-5.14,3a1,1,0,1,0,1,1.72l5.14-3A1,1,0,0,0,257.69,53.31Z"/><path class="cls-8" d="M399.26,152.47a1,1,0,0,0-1.42,0l-6.2,5.1a1,1,0,0,0,0,1.41,1,1,0,0,0,1.41,0l6.21-5.09A1,1,0,0,0,399.26,152.47Z"/><path class="cls-8" d="M199.58,97a1,1,0,0,0-.46-.6,1,1,0,0,0-.77-.1l-.24.1a1,1,0,0,0-.36.36l-1.15,1.68a.81.81,0,0,0-.12.37.78.78,0,0,0,0,.4,1.1,1.1,0,0,0,.46.6,1,1,0,0,0,.77.1l.24-.1a1,1,0,0,0,.36-.36l1.15-1.68a.85.85,0,0,0,.12-.37A.77.77,0,0,0,199.58,97Z"/><path class="cls-8" d="M249.56,100.4a1,1,0,0,0-.46-.6,1,1,0,0,0-.77-.1.94.94,0,0,0-.59.46l-.85,2a.81.81,0,0,0-.12.37.78.78,0,0,0,0,.4,1,1,0,0,0,.46.6,1,1,0,0,0,.77.1,1,1,0,0,0,.6-.46l.84-2a.65.65,0,0,0,.12-.37A.68.68,0,0,0,249.56,100.4Z"/></svg>