<?xml version="1.0" encoding="UTF-8"?>
<svg id="Headwear" xmlns="http://www.w3.org/2000/svg" viewBox="0 0 500 500">
  <defs>
    <style>
      .cls-1 {
        fill: #fff;
      }

      .cls-2 {
        fill: #7f7f7f;
      }

      .cls-3 {
        fill: #978c8d;
      }

      .cls-4 {
        fill: #8b7e80;
      }

      .cls-5 {
        fill: #333;
      }

      .cls-6 {
        fill: #1a1a1a;
      }

      .cls-7 {
        fill: #786b6e;
      }
    </style>
  </defs>
  <g>
    <g>
      <path class="cls-5" d="M329.55,132.76c-.29,.38-.58,.76-.86,1.15-1,1.34-2.01,2.69-2.67,4.22-.62,1.43-.91,2.97-1.2,4.5-1.52,7.95-3.39,16.41-2.76,24.52,.26,3.38,.93,6.71,1.62,10.03,1.06,5.06,2.22,10.18,4.64,14.75,1.3,2.45,2.94,4.71,4.73,6.84,2.14,2.55,4.5,4.95,7.3,6.76,8.5,5.5,18.9,4,27.6-.15,3.38-1.61,6.53-3.88,8.64-6.98,2.2-3.22,2.31-7.18,4.16-10.49,2.04-3.67,2.82-8.51,3.59-12.6,.34-1.79,.16-3.34,.25-5.12,.11-2.12,.5-4.12,.34-6.27-1.1-14.47-2.51-31.54-13.91-42.02-1.1-1.01-2.28-1.95-3.59-2.66-1.7-.91-3.58-1.41-5.44-1.91-2.38-.64-4.83-1.28-7.28-1.04-1.62,.16-3.18,.69-4.71,1.25-4.27,1.56-8.52,3.37-12.11,6.15-3.25,2.52-5.86,5.76-8.34,9.06Z"/>
      <path d="M367.68,118.06c-13.42-7.58-32.47,2.73-40.23,14.2-10.39,15.36-9.92,34.6-4.8,51.76,3.08,10.3,8.63,22.1,20.05,25.07,13.02,3.38,27.18,1.12,35.01-11.03,4.46-6.92,6.25-15.17,7.36-23.21,2.27-16.5,.91-42.14-13.41-54.04-1.23-1.02-2.55-1.94-3.97-2.74Zm15.29,48.08c-.31,7.08-1.22,14.14-3.11,20.97-1.47,5.32-4.64,9.52-8.19,13.61-3.8,4.38-9.05,5.18-14.44,6-5.65,.86-11.6-.1-16.65-2.8-4.56-2.45-8.33-6.29-10.81-10.82-2.72-4.98-4.09-10.37-5.19-15.93-.84-4.29-1.92-8.66-2.01-13.05-.35-16.39,6.49-33.56,21.18-41.91,4.38-2.49,10-4.53,15.11-4.14,2.79,.21,5.54,1.14,7.86,2.71,2.36,1.58,4.5,4.13,6.57,6.07,2.4,2.24,4.34,5.49,5.69,8.46,3.23,7.15,4.01,15.46,4.09,23.25,.03,2.53,0,5.06-.12,7.59Z"/>
    </g>
    <g>
      <path class="cls-4" d="M353.87,121.38c.91,.11,2.78-.74,3.24-.88,1.65-.51,3.32-.94,5.01-1.3,2.61-.55,5.25-.93,7.91-1.13-16.09-34.59-53.48-59.61-98.03-63.86,38.32,9.6,69.02,34.7,81.87,67.17Z"/>
      <path class="cls-7" d="M176.71,61.99c-1.04,.29-2.05,.61-3,.92-6.09,1.99-11.76,5.09-17.09,8.62-11.61,7.68-23.3,16.36-33.13,26.01-.9,.88-2.68,2.88-2.42,4.19,.47,2.37,6.06,2.53,7.82,2.56,4.07,.07,7.42-3.24,9.48-6.37,2.44-3.7,6.58-6.63,9.88-9.57,2.26-2.01,4.61-3.93,7.03-5.76,6.7-5.04,13.83-8.82,21.34-12.43l13.05-6.26c.4-.19,.87-.55,.72-.96-.06-.17-.22-.29-.37-.39-3.86-2.57-8.9-1.83-13.32-.59Z"/>
      <path d="M373.53,118.14c-1.9-1.11-3.92-7.86-5.12-9.89-1.9-3.21-3.98-6.31-6.23-9.31-4.63-6.17-9.98-11.86-15.87-16.98-12.95-11.25-28.53-19.72-45.25-24.97-13.31-4.18-27.7-6.64-41.8-6.99-13.49-.33-26.79-.84-40.01,2.55-16.12,4.14-30.9,12.38-46.41,18.2-5.3,1.99-9.93,4.81-14.53,8.01s-9.31,6.29-13.19,10.35c-2.41,2.52-4.73,5.12-7.07,7.72-1.28,1.42-2.79,2.61-4.11,4-.65,.69-3.54,3.63-1.37,3.9,1.2,.15,2.22-.81,3-1.73,6.75-8.02,14.22-15.47,22.55-21.86,4.03-3.09,8.88-5.23,13.46-7.4,4.81-2.28,9.7-4.37,14.67-6.28,10.46-4.03,21.2-7.27,32.1-9.89,5.45-1.31,10.93-2.46,16.44-3.48,2.49-.46,5.05-1.1,7.56-1.06,2.84,.04,5.69,.29,8.51,.56,4.76,.46,9.5,1.16,14.19,2.11,16.62,3.36,32.66,9.84,46.72,19.35,13.12,8.87,24.5,20.41,32.58,34.07,2.28,3.85,4.29,7.86,6,12-.1,.27-.1,.59,.03,.94,1.56,4.16,7.08,1.37,10.06,.59,4.05-1.06,8.21-1.62,12.4-1.75,1.69-.05,1.85-2.11,.69-2.78Zm-11.4,1.06c-1.69,.36-3.37,.79-5.01,1.3-.46,.14-2.33,.99-3.24,.88-12.85-32.47-43.55-57.57-81.87-67.17,44.55,4.25,81.94,29.27,98.03,63.86-2.66,.2-5.3,.58-7.91,1.13Z"/>
    </g>
    <path class="cls-3" d="M352.27,119.59c-.13-.28-.25-.56-.38-.83-1.81-3.91-3.64-7.8-6.03-11.4-2.27-3.42-4.87-6.43-6.93-10.01-1.24-2.15-2.68-4.08-4.41-5.87-2.44-1.84-4.5-4.47-6.82-6.49s-4.79-3.98-7.33-5.78c-3-2.13-6.18-3.85-9.11-6.14-1.97-1.54-4.15-2.74-6.08-4.26-2.17-1.7-4.06-3-6.68-4.07-3.05-1.24-6.09-2.48-9.14-3.72-2.51-1.02-5.11-1.25-7.73-1.95-2.41-.65-4.77-1.59-7.18-2.25-3.41-.93-6.84-1.77-10.3-2.51-.3-.07-.57-.04-.81,.04-21.15-5.74-43.11-3.55-64.26,1.14-4.26,.95-8.51,1.98-12.66,3.35-5.58,1.84-10.95,4.26-16.31,6.68-4.25,1.92-8.47,3.87-12.59,6-4.05,2.08-7.97,4.4-11.74,6.95-8.27,5.59-15.52,12.34-22.43,19.54-1.19,1.24-2.37,2.51-3.15,4.04-.17,.34-.3,.79-.03,1.06,.16,.15,.4,.17,.62,.18l2.73,.13c3.18,.15,6.21-4.44,8.32-6.42,3-2.82,6.08-5.56,9.22-8.22,2.98-2.53,6.02-4.99,9.11-7.38s6.43-5.35,9.95-7.29c6.75-3.72,13.85-6.72,21.23-9,10.74-3.32,21.8-5.49,32.92-7.02,3.16-.43,6.51-1.15,9.71-1.18,11.32-.12,22.65,.82,33.9,2.09,2.75,.31,5.73,.37,8.42,1,2.55,.6,5.13,1.72,7.64,2.57,10.42,3.53,20.83,7.27,30.26,13.04,5.02,3.08,10,6.22,14.8,9.64,4.53,3.22,9.92,6.34,13.16,10.86,1.82,2.55,3.61,5.06,5.84,7.28,.98,.97,2.01,1.71,2.82,2.81,1.01,1.38,1.81,2.96,2.7,4.42,1.59,2.6,3.19,5.22,4.19,8.09,.39,1.11,.75,2.35,1.74,3,.9,.59,2.07,.52,3.15,.42,.16-.01,.33-.04,.43-.16,.13-.16,.07-.39,0-.58-.22-.61-.48-1.2-.75-1.79Z"/>
    <path d="M345.01,116.46c.93,2.19,1.69,5.32,3.58,6.39,1.42,.81,2.13,.8,2.39,.31,.75-1.42-2.36-6.9-2.95-7.93-8.45-14.88-20.68-27.41-34.86-36.91-15.67-10.49-32.71-16.06-50.79-20.52-7.45-1.84-14.69-2.21-22.3-2.15-4.78,.04-9.49,.31-14.26,.33-10.41,.03-20.69,2.18-30.8,4.46-10.53,2.37-20.81,5.88-30.55,10.53s-17.84,11.65-25.79,18.48c-2.95,2.53-5.82,5.14-8.64,7.82-1.61,1.53-6.61,4.87-4.75,7.68,.22,.33,6.03-5.64,6.46-6.1,2.63-2.75,5.35-5.42,8.15-7.99,6.96-6.39,14.72-12.19,23.08-16.76,8.75-4.78,17.81-7.43,27.32-10.04,3.04-.83,6.1-1.55,9.19-2.15,10.6-2.05,21.28-2.42,32.03-2.84,34.66-1.35,70.32,10.08,95.55,34.39,4.47,4.31,8.58,9,12.23,14.04,2.02,2.79,4.32,5.78,5.7,8.95,1.16,2.67,1.62,5.42,5.24,5.74,.66,.06,1.5,.11,1.74,.73"/>
    <path d="M272.08,54.11c-3.13-.83-6.43-1.01-9.66-1.46-11.45-1.58-23.04-2.84-34.61-2.03s-21.91,1.38-32.77,3.82c-28.89,6.5-54.17,21.19-72.24,41.77-.82,.94-5.65,5.3-4.76,6.48,.31,.41,.9,.46,1.4,.38,2.86-.47,4.96-3.96,6.74-5.95,17.08-19.03,38.63-30.23,62.67-37.85,7.77-2.46,15.77-4.16,23.84-5.24,3.98-.53,7.99-.91,12-1.15,3.09-.18,6.24-.55,9.32-.59,6.01-.07,11.87,.8,17.81,1.42,11.79,1.22,23.44,3.94,34.52,8.18,7.11,2.72,13.98,6.07,20.49,10.02,3.03,1.84,6.35,3.46,9.26,5.48,4.94,3.43,9.11,7.36,13.44,11.48,1.69,1.61,3.29,3.33,4.94,4.99,4.24,4.25,6.68,9.49,10.24,14.17,2.99,3.94,4.77,8.66,7.5,12.79l.76,1.14c1.27,1.92,1.07-.54,.76-1.45-.54-1.6-1.17-3.15-1.92-4.66-1.45-2.95-3.21-5.72-4.89-8.54-8.91-14.92-21.64-27.35-36.27-36.64-7.71-4.9-15.96-8.94-24.53-12.11-4.65-1.72-9.33-3.21-14.04-4.46Z"/>
    <g>
      <path class="cls-4" d="M342.72,142.13c-8.28,12.79-7.39,27.54-2.27,41.51,4.25,11.58,15.25,15.87,26.73,11.93,11.28-3.86,12.98-18.97,13.56-29.02,.59-10.24-1.38-23.59-9.26-30.97-8.91-8.34-22.91-2.5-28.77,6.55Z"/>
      <path d="M370.35,129.29c-10.4-5.88-25.16,2.11-31.18,11.01-8.05,11.9-7.69,26.81-3.72,40.11,2.38,7.98,6.69,17.13,15.54,19.43,10.09,2.62,21.06,.87,27.13-8.55,3.45-5.36,4.84-11.75,5.7-17.99,1.76-12.79,.7-32.66-10.39-41.88-.95-.79-1.97-1.5-3.08-2.12Zm10.39,37.26c-.58,10.05-2.29,25.15-13.56,29.02-11.48,3.93-22.48-.35-26.73-11.93-5.12-13.97-6.01-28.72,2.27-41.51,5.86-9.04,19.86-14.89,28.77-6.55,7.88,7.37,9.85,20.72,9.26,30.97Z"/>
    </g>
    <g>
      <path class="cls-2" d="M374.26,133.42c.21-2.11,.24-4.24,.01-6.36-.13-1.18-.33-2.34-.58-3.5-.23-1.05-.41-2.39-1.4-3.01-1.11-.7-2.22,0-3.35,.25-1.01,.23-2.05,.31-3.08,.4-2.36,.21-4.71,.42-7.07,.63-.98,.09-1.63,1.05-1.32,1.99,1.28,3.84,1.84,7.93,1.57,11.98-.08,1.14,.77,2.07,1.96,1.72,3.79-1.11,7.76-2.28,11.74-1.55,1.09,.2,2.14-.87,1.72-1.96-.07-.19-.14-.39-.2-.59Z"/>
      <path d="M374.95,121.01c-.35-1.29-.96-2.35-2.1-2.47-1.61-.17-3.61,.36-5.22,.56-3.35,.42-6.68,.96-10,1.61-3.22,.63-1.56,5.04-1.18,7.03,.68,3.56,1.01,7.18,1,10.8,0,.81,.83,1.45,1.6,1.4,.86-.06,1.4-.78,1.4-1.6,0-4.78-.6-9.53-1.73-14.16,.15-.19,.26-.4,.31-.64v-.05c4.23-.8,8.49-1.4,12.77-1.82,1.24,4.9,1.73,9.95,1.52,15-.03,.81,.85,1.45,1.6,1.4,.88-.06,1.36-.78,1.4-1.6,.16-3.76-.1-7.54-.72-11.25-.17-1-.24-2.75-.64-4.21Z"/>
    </g>
    <g>
      <path class="cls-3" d="M353,146.79c-6.66,10.28-5.94,22.13-1.82,33.35,3.41,9.31,12.25,12.75,21.48,9.59,9.06-3.1,10.43-15.24,10.9-23.32,.48-8.23-1.11-18.96-7.44-24.88-7.16-6.7-18.41-2.01-23.12,5.26Z"/>
      <path d="M375.21,136.48c-8.36-4.72-20.22,1.7-25.05,8.85-6.47,9.56-6.18,21.54-2.99,32.23,1.92,6.42,5.37,13.76,12.48,15.61,8.11,2.1,16.92,.7,21.8-6.87,2.78-4.31,3.89-9.44,4.58-14.45,1.41-10.28,.56-26.24-8.35-33.65-.76-.63-1.59-1.21-2.47-1.71Zm8.35,29.93c-.47,8.07-1.84,20.21-10.9,23.32-9.23,3.16-18.07-.28-21.48-9.59-4.11-11.22-4.83-23.07,1.82-33.35,4.71-7.27,15.96-11.96,23.12-5.26,6.33,5.92,7.91,16.65,7.44,24.88Z"/>
    </g>
    <g>
      <path class="cls-3" d="M110.86,104.95c-8.87,3.8-15.37,12.86-20,23.35-3.84,8.7-1.88,16.15,4.04,18.98,5.82,2.78,13.41-5.32,18.26-10.96,4.95-5.75,10.42-14.47,11.01-22.33,.67-8.89-7.04-11.73-13.31-9.04Z"/>
      <path class="cls-1" d="M108.47,106.8c-.41-.63-1.37-1.02-2.05-.54-2.84,2.02-5.26,4.55-7.12,7.5-.42,.66-.16,1.68,.54,2.05,.74,.39,1.61,.17,2.05-.54,.21-.33,.42-.66,.65-.98,.11-.16,.23-.32,.34-.48,.06-.08,.12-.16,.18-.24l.04-.05c.46-.62,.98-1.2,1.51-1.75,.53-.56,1.08-1.09,1.65-1.59,.29-.26,.6-.51,.9-.75l.08-.06c.06-.04,.12-.09,.18-.13,.17-.13,.35-.26,.52-.38,.64-.45,1-1.33,.54-2.05Z"/>
      <path d="M126.67,109.8c-1-8.11-9.97-10.03-16.24-7.51-8.38,3.38-15.14,12.3-19.87,21.89-2.84,5.76-5.53,13.05-3.43,18.37,2.4,6.06,7.13,9.94,13.65,7.13,3.71-1.6,7.17-4.73,10.36-8.01,6.54-6.72,15.35-18.86,15.65-29.25,.03-.89-.01-1.77-.12-2.63Zm-13.51,26.53c-4.85,5.64-12.45,13.74-18.26,10.96-5.92-2.83-7.88-10.28-4.04-18.98,4.63-10.49,11.13-19.55,20-23.35,6.28-2.69,13.98,.16,13.31,9.04-.59,7.86-6.06,16.58-11.01,22.33Z"/>
    </g>
    <g>
      <path class="cls-4" d="M119.51,105.24c-10.71,3.99-19.19,14.55-25.62,27-5.33,10.32-3.8,19.53,2.82,23.41,6.5,3.81,16.15-5.52,22.36-12.04,6.33-6.64,13.57-16.87,15.04-26.4,1.66-10.78-7.03-14.79-14.61-11.97Z"/>
      <path class="cls-1" d="M101.55,119.22c-2.05,3.5-4.19,6.95-6.42,10.34-.44,.68-.14,1.66,.54,2.05,.73,.43,1.61,.14,2.05-.54,2.23-3.39,4.37-6.84,6.42-10.34,.98-1.67-1.61-3.18-2.59-1.51Z"/>
      <path d="M137.45,112.28c-.36-9.95-10.62-12.94-18.17-10.31-10.1,3.51-18.86,13.89-25.32,25.23-3.88,6.81-7.74,15.5-5.82,22.12,2.19,7.55,7.32,12.62,15.19,9.67,4.48-1.68,8.82-5.25,12.86-9.01,8.29-7.72,19.75-21.87,21.13-34.49,.12-1.08,.16-2.15,.12-3.21Zm-18.37,31.34c-6.21,6.52-15.86,15.84-22.36,12.04-6.62-3.88-8.16-13.08-2.82-23.41,6.43-12.45,14.9-23.02,25.62-27,7.58-2.82,16.27,1.2,14.61,11.97-1.47,9.53-8.71,19.76-15.04,26.4Z"/>
    </g>
    <g>
      <path class="cls-5" d="M108.86,174.73c6.68-17.95,16.65-34.53,27.87-50.05,3.05-4.22,6.39-8.81,7.33-14.04,.36-1.99,.74-4.89-.8-6.29s-6.21-1.57-8.22-1.42c-2.87,.21-5.79,1.31-8.69,2.52-.34,.14-.67,.28-1.01,.42-1.17,.5-2.35,1-3.46,1.83-1.03,.77-1.97,1.8-2.9,2.82-4.82,5.31-10.07,10.82-13.94,17.4-1.61,2.74-3,5.66-4.37,8.58-2.09,4.46-4.16,9.02-5.34,13.82-.63,2.58-1,5.19-1.23,7.78-.28,3.1-.37,6.21,.06,9.09,.54,3.69,7.07,17.79,12.21,12.57,1.05-1.07,1.57-2.53,2.09-3.94,.13-.36,.26-.72,.4-1.08Z"/>
      <path d="M107.78,180.35c.37-1.14,.71-2.46,1.4-3.61,.24-.75,.46-1.51,.71-2.23,.64-1.79,1.32-3.57,2.05-5.33,1.4-3.39,2.97-6.72,4.64-9.99,6.65-12.99,14.99-25,22.85-37.27,1.82-2.84,3.98-5.77,5.17-9,2.57-12.58-10.38-13.19-19.01-8.99-12.92,6.28-22.58,21.33-28.92,37.27-3.81,9.57-7.19,21.6-3.19,29.97,.46,.96,.95,1.87,1.47,2.75,0,.2,.05,.41,.14,.62,1.39,3.08,4.12,6.71,7.34,8.03,3.79,1.55,4.63-.01,5.35-2.22Zm-3.5-1.45c-.87-.54-1.72-1.17-2.57-1.8-3.18-2.35-5.56-6.25-6.61-11.03-.95-4.31-.8-9.28,.34-14.09,1.24-5.28,3.35-10.16,5.68-15.02,1.79-3.75,3.53-7.69,5.73-11.11,4.57-7.09,10.56-13.81,18.05-17.88,3.11-1.69,6.52-2.92,10.07-3.17,1.78-.13,5.73,0,7,1.5,1.73,2.03-.21,5.97-1.38,8.07-1.5,2.69-3.25,5.26-4.92,7.85-3.44,5.33-6.94,10.62-10.34,15.98-6.74,10.62-13.09,21.58-17.56,33.39-.62,1.65-1.19,3.31-1.75,4.98-.37,1.11-.76,2-1.75,2.33Z"/>
    </g>
  </g>
  <g>
    <path class="cls-6" d="M104.55,161.4c-2.35-3.03-3.15-6.88-2.23-10.56,.2-.79-.4-1.61-1.17-1.77-.82-.17-1.57,.38-1.77,1.17-1.1,4.4-.1,9.26,2.68,12.85,.5,.64,1.38,.88,2.08,.4,.64-.43,.9-1.44,.4-2.08Z"/>
    <path class="cls-6" d="M120.87,115.54c-.37-.63-1.4-1.03-2.05-.54-6.5,4.93-10.28,12.19-13.71,19.42-.82,1.73,1.76,3.26,2.59,1.51,3.17-6.67,6.61-13.77,12.63-18.34,.64-.49,.98-1.29,.54-2.05Z"/>
  </g>
  <g>
    <path class="cls-6" d="M336.33,133.49c-.6-.48-1.61-.53-2.12,.14-1.9,2.5-3.48,5.22-4.67,8.13-.3,.73-.11,1.66,.67,2.01,.69,.31,1.7,.1,2.01-.67,.56-1.37,1.2-2.71,1.93-3.99,.36-.63,.74-1.26,1.14-1.87,.04-.06,.07-.11,.11-.17l.04-.07c.1-.15,.2-.29,.3-.44,.23-.32,.47-.64,.71-.96,.47-.62,.52-1.59-.14-2.12Z"/>
    <path class="cls-6" d="M338.3,193.37c-5.3-6.35-6.71-14.71-7.95-22.64-.3-1.89-3.29-1.71-2.99,.2,1.32,8.43,2.83,17.37,8.46,24.13,1.22,1.47,3.72-.2,2.49-1.68Z"/>
  </g>
  <g>
    <path class="cls-1" d="M361.82,146.03c-.53-.72-1.33-.79-2.08-.4-3.98,2.03-6.44,6.47-6.31,10.9,.02,.79,.81,1.49,1.6,1.4,.83-.09,1.42-.75,1.4-1.6,0-.24,0-.49,0-.73,0-.07,.04-.37,0-.06,.01-.11,.02-.22,.03-.33,.06-.46,.15-.92,.26-1.37,.05-.18,.1-.36,.16-.54,.02-.05,.08-.21,.08-.23,.04-.1,.08-.21,.13-.31,.18-.43,.39-.84,.63-1.25,.06-.1,.11-.19,.17-.28,.02-.04,.05-.07,.07-.1,.12-.17,.24-.34,.37-.5,.29-.36,.6-.71,.94-1.03,.08-.08,.16-.15,.24-.23-.23,.21,.09-.07,.12-.09,.17-.14,.35-.27,.53-.4,.4-.28,.82-.53,1.25-.75,.7-.36,.84-1.49,.4-2.08Z"/>
    <path class="cls-1" d="M346.85,144.12c-.02-.37-.22-.79-.51-1.03-.3-.24-.69-.41-1.09-.37-.39,.04-.77,.2-1.03,.51-1.03,1.22-1.93,2.58-2.65,4-.17,.35-.2,.8-.07,1.16,.12,.34,.41,.7,.75,.85,.74,.33,1.63,.08,2.01-.67,.32-.63,.67-1.23,1.05-1.82,.37-.53,.75-1.05,1.17-1.55,.25-.3,.39-.7,.37-1.09Z"/>
    <path class="cls-1" d="M355.87,161.52c-.28-.24-.72-.41-1.09-.37-.39,.04-.78,.2-1.03,.51-.25,.31-.4,.68-.37,1.09l.19,2.82c.03,.38,.22,.78,.51,1.03,.28,.24,.72,.41,1.09,.37,.39-.04,.78-.2,1.03-.51,.25-.31,.4-.68,.37-1.09l-.19-2.82c-.03-.38-.22-.78-.51-1.03Z"/>
  </g>
</svg>