<?xml version="1.0" encoding="UTF-8"?>
<svg id="Headwear" xmlns="http://www.w3.org/2000/svg" viewBox="0 0 500 500">
  <defs>
    <style>
      .cls-1 {
        fill: #fc523b;
      }

      .cls-2 {
        fill: #e71423;
      }

      .cls-3 {
        fill: #333;
      }

      .cls-4 {
        fill: #1a1a1a;
      }
    </style>
  </defs>
  <g>
    <path class="cls-3" d="M357.45,230.77c-2.08-17.72-6.95-35.09-15.6-50.74-4.67-8.46-10.36-16.37-16.98-23.41-6.56-6.97-13.53-13.39-21.56-18.6-2.46-1.59-4.91-3.18-7.37-4.77-4.41-2.85-9.07-4.67-13.76-6.9-4.9-2.33-9.95-4.36-15.11-6.01-18.7-5.98-39.09-8.01-58.65-6.91-15.38,.86-30.41,.79-45.27,5.5-13.93,4.41-26.95,11.77-37.74,21.65-.28,.25-.58,.37-.88,.39-1.28,2.07-2.52,4.17-3.72,6.29-.45,.81-.89,1.62-1.34,2.44,.33-.16,.66-.31,.98-.47,1.13-.77,2.22-1.59,3.29-2.44,5.21-4.69,10.91-8.84,16.98-12.36,16.13-9.36,34.72-14.32,53.32-14.32,4.2,0,8.45-.84,12.67-1,10.38-.4,20.44,.61,30.78,1.31,8.12,.55,16.24,2.19,24.03,4.5,4.65,1.38,9.21,3.03,13.67,4.92,15.53,6.6,29.91,14.35,41.88,26.52,18.58,18.89,29.66,43.59,34.06,69.54,.67,3.92,.53,8.03,1.87,11.83,.42,1.2,1.01,3.46,2.66,3.31,2.68-.25,2.02-6.44,1.92-8.11l-.12-2.16Z"/>
    <path class="cls-4" d="M357.58,232.93l-.12-2.16c-2.08-17.72-6.95-35.09-15.6-50.74-4.67-8.46-10.36-16.37-16.98-23.41-6.56-6.97-13.53-13.39-21.56-18.6-2.46-1.59-4.91-3.18-7.37-4.77-4.41-2.85-9.07-4.67-13.76-6.9-4.9-2.33-9.95-4.36-15.11-6.01-18.7-5.98-39.09-8.01-58.65-6.91-15.38,.86-30.41,.79-45.27,5.5-13.68,4.33-26.47,11.51-37.14,21.11,1.32-.94,2.68-1.83,4.06-2.68,.19-.4,.47-.78,.87-1.13,6.6-5.78,14.65-9.27,22.92-11.93,2.3-.85,4.67-1.57,7.08-2.18,8.19-2.51,17.05-5.12,25.3-5.34,.36,0,.69,.04,.99,.12,9.71-1.85,19.62-2.85,29.48-2.59,12.86,.34,27.06,1.16,39.42,4.91,.32-.02,.66,0,1.02,.07,22.19,4.89,42.43,17.46,58.84,32.92,7.75,7.3,15.92,15.76,20.43,25.53,2.34,5.07,3.94,10.41,5.29,15.82,4.41,10.31,7.54,21.2,9.42,32.33,.67,3.92,.53,8.03,1.87,11.83,.42,1.2,1.01,3.46,2.66,3.31,2.68-.25,2.02-6.44,1.92-8.11Z"/>
    <path d="M325.18,152.6c-4.67-4.75-9.73-8.9-14.9-13.15-2.5-2.05-5-4.11-7.74-5.82-2.24-1.4-4.55-2.76-6.83-4.09-4.26-2.51-8.93-4.24-13.4-6.31-4.85-2.24-9.84-4.2-14.93-5.82-16.37-5.23-32.61-7.43-49.88-7.27-7.74,.07-15.46,.99-23.2,.99-18.6,0-37.19,4.96-53.32,14.32-4.11,2.39-8.05,5.06-11.79,7.99-1.51,1.19-3.29,2.34-4.54,3.76-2.47,2.81-4.27,6.7-6.08,9.96-.7,1.27-1.39,2.54-2.06,3.82-.59,1.12-1.51,3-1.48,4.29,0,.23,.04,.46,.17,.64,.21,.29,.62,.38,.98,.29,.35-.08,.65-.3,.94-.51,2.64-1.92,5.56-3.74,7.95-5.99,.06-.05,.09-.12,.13-.18,10.77-9.85,23.77-17.19,37.67-21.59,14.86-4.71,29.89-4.64,45.27-5.5,18.68-1.04,37.75,.52,55.6,6.22,3.94,1.26,7.82,2.74,11.61,4.41,2.05,.9,4.16,1.69,6.24,2.53,2.57,1.04,4.82,2.63,7.27,3.85,4.17,2.07,8.19,4.47,12,7.14,7.63,5.35,14.48,11.79,20.43,18.95,4.71,5.68,8.87,11.81,12.44,18.27,6.27,11.34,10.59,23.7,13.26,36.36,1.26,5.98,1.61,12.07,2.71,18.05,.44,2.39,2.94,4.73,5.38,4.97,7.84,.78,4.82-17.16,4.16-21.04-4.4-25.95-15.48-50.65-34.06-69.54Zm30.47,88.44c-1.65,.15-2.24-2.11-2.66-3.31-1.34-3.8-1.2-7.91-1.87-11.83-4.4-25.95-15.48-50.65-34.06-69.54-11.97-12.17-26.35-19.92-41.88-26.52-4.46-1.89-9.02-3.54-13.67-4.92-7.8-2.31-15.91-3.95-24.03-4.5-10.34-.7-20.4-1.7-30.78-1.31-4.21,.16-8.47,1-12.67,1-18.6,0-37.19,4.96-53.32,14.32-6.06,3.52-11.76,7.67-16.98,12.36-.63,.54-2.36,2.33-3.3,2.07-1.29-.37,.35-2.31,.76-3.1,1.99-3.86,4.98-6.01,8.28-8.72s6.85-5.23,10.51-7.5c7.23-4.48,15.04-8.05,23.15-10.62,14.86-4.71,29.89-4.64,45.27-5.5,19.57-1.09,39.96,.94,58.65,6.91,5.17,1.65,10.22,3.68,15.11,6.01,4.69,2.23,9.35,4.05,13.76,6.9,2.46,1.59,4.91,3.18,7.37,4.77,8.04,5.2,15.01,11.63,21.56,18.6,6.62,7.04,12.31,14.95,16.98,23.41,8.65,15.65,13.52,33.02,15.6,50.74l.12,2.16c.1,1.68,.76,7.87-1.92,8.11Z"/>
  </g>
  <g>
    <path class="cls-1" d="M299.82,73c-2.81,2.44-4.28,6.34-5.5,9.84-1.43,4.1-2.78,8.19-4.59,12.13-2.34,5.09-5.2,9.91-8.5,14.38-2.81,3.81-8.29,7.49-6.04,12.96,.31,.75,.76,1.42,1.24,2.07,3.44,4.67,7.96,7.66,13.09,9.89,4.81,2.09,9.36,4.79,14.23,6.74,3.32,1.33,6.89,2.69,10.49,2.63,1.28-.02,2.15-.26,2.79-.7,1.33-.91,1.63-2.66,2.42-4.99,2.83-8.29,4.16-17.13,3.97-25.94-.2-9.65-2.21-19.31-6.04-28.09-2.76-6.31-9.94-17.53-17.56-10.92Z"/>
    <path class="cls-2" d="M295.91,137.08c-.76-.55-1.5-1.13-2.18-1.79-.1-.1-.19-.22-.29-.32-1.91-1-3.62-2.3-5.26-3.77-3.45-3.08-7.51-6.66-7.6-11.83-.04-2.42,.88-4.79,2.16-6.77,1.55-2.39,3.14-4.71,4.56-7.2,2.83-4.97,5.55-10.02,7.48-15.46,1.88-5.33,3.35-10.81,5.29-16.13,.2-.54,.51-1.01,.9-1.36,0-.09-.03-.19-.03-.28-.37,.24-.73,.5-1.1,.82-2.81,2.44-4.28,6.34-5.5,9.84-1.43,4.1-2.78,8.19-4.59,12.13-2.34,5.09-5.2,9.91-8.5,14.38-2.81,3.81-8.29,7.49-6.04,12.96,.31,.75,.76,1.42,1.24,2.07,3.44,4.67,7.96,7.66,13.09,9.89,2.4,1.05,4.75,2.24,7.1,3.42-.24-.2-.48-.4-.72-.61Z"/>
    <path class="cls-2" d="M317.38,83.92c-2.02-4.63-6.43-11.89-11.64-12.82,4.72,11.36,6.95,23.56,6.31,35.96-.32,6.19-1.27,12.35-2.68,18.37-1.25,5.28-2.69,10.95-5.37,15.68,3.25,1.3,6.73,2.59,10.25,2.53,1.28-.02,2.15-.26,2.79-.7,1.33-.91,1.63-2.66,2.42-4.99,2.83-8.29,4.16-17.13,3.97-25.94-.2-9.65-2.21-19.31-6.04-28.09Z"/>
    <path d="M320.8,85.47c-2.86-7.31-8.26-18.21-17.37-16.97-8.17,1.12-10.67,11.05-13.02,17.88-2.61,7.58-6.37,14.71-11.04,21.1-1.17,1.6-2.39,3.15-3.67,4.65-1.09,1.29-3.06,2.73-3.75,4.28-1.39,3.12-.05,5.71,1.58,8.33,1.22,1.95,2.46,3.61,4.29,4.94,2.44,1.77,5.02,4.05,7.64,5.33,3.65,1.79,7.26,3.66,10.9,5.46,4.96,2.46,10.16,5.28,15.73,5.69,2.2,.16,5.96,.05,7.61-1.81,1.8-2.02,2.61-6.75,3.34-9.36,3.73-13.24,3.95-27.55,.54-40.88-.75-2.94-1.68-5.83-2.78-8.65Zm-1.35,52.47c-.79,2.33-1.09,4.08-2.42,4.99-.64,.44-1.51,.68-2.79,.7-3.6,.06-7.17-1.3-10.49-2.63-4.87-1.95-9.42-4.65-14.23-6.74-5.13-2.23-9.66-5.22-13.09-9.89-.48-.65-.93-1.32-1.24-2.07-2.25-5.47,3.23-9.14,6.04-12.96,3.29-4.47,6.16-9.29,8.5-14.38,1.81-3.94,3.16-8.03,4.59-12.13,1.22-3.49,2.69-7.4,5.5-9.84,7.62-6.61,14.8,4.61,17.56,10.92,3.84,8.78,5.84,18.45,6.04,28.09,.18,8.8-1.14,17.64-3.97,25.94Z"/>
  </g>
  <g>
    <path class="cls-1" d="M193.01,58.25c1.89,3.11,2.17,7.16,2.34,10.77,.19,4.23,.31,8.42,.89,12.61,.75,5.42,2.05,10.75,3.83,15.88,1.52,4.38,5.51,9.44,1.98,13.82-.48,.6-1.08,1.09-1.68,1.54-4.38,3.28-9.3,4.67-14.56,5.18-4.93,.48-9.79,1.6-14.74,1.93-3.37,.22-6.98,.4-10.23-.75-1.15-.41-1.88-.9-2.34-1.49-.96-1.25-.76-2.96-.85-5.35-.33-8.53,.85-17.11,3.4-25.2,2.79-8.86,7.22-17.2,13.08-24.16,4.21-5,13.76-13.2,18.89-4.78Z"/>
    <path class="cls-2" d="M179.25,118.72c.84-.28,1.67-.59,2.47-.99,.12-.06,.23-.14,.35-.21,2-.35,3.91-1.03,5.8-1.89,3.97-1.81,8.62-3.89,10.1-8.64,.69-2.23,.5-4.7-.13-6.91-.76-2.68-1.58-5.31-2.19-8.04-1.23-5.46-2.34-10.95-2.61-16.57-.27-5.5-.12-11.02-.44-16.52-.03-.56-.19-1.09-.45-1.53,.03-.08,.08-.16,.1-.25,.27,.33,.53,.69,.78,1.1,1.89,3.11,2.17,7.16,2.34,10.77,.19,4.23,.31,8.42,.89,12.61,.75,5.42,2.05,10.75,3.83,15.88,1.52,4.38,5.51,9.44,1.98,13.82-.48,.6-1.08,1.09-1.68,1.54-4.38,3.28-9.3,4.67-14.56,5.18-2.47,.24-4.92,.64-7.37,1.01,.27-.11,.55-.23,.82-.35Z"/>
    <path class="cls-2" d="M174.11,63.03c3.09-3.67,9.05-9.05,14.03-8.34-7.36,9.08-12.67,19.69-15.44,31.36-1.38,5.82-2.19,11.81-2.52,17.8-.3,5.26-.51,10.94,.64,16.14-3.3,.21-6.81,.36-9.99-.76-1.15-.41-1.88-.9-2.34-1.49-.96-1.25-.76-2.96-.85-5.35-.33-8.53,.85-17.11,3.4-25.2,2.79-8.86,7.22-17.2,13.08-24.16Z"/>
    <path d="M165.72,70.59c-6.7,11.31-10.36,24.61-10.55,37.99-.04,2.63-.58,7.26,.51,9.67,1,2.22,4.38,3.46,6.42,3.98,5.17,1.31,10.65,.27,15.81-.5,3.79-.57,7.58-1.21,11.37-1.75,2.73-.39,5.69-1.71,8.38-2.61,2.02-.68,3.6-1.83,5.23-3.27,2.19-1.93,4.1-3.92,3.69-7.23-.21-1.64-1.61-3.57-2.25-5.1-.75-1.78-1.45-3.59-2.07-5.42-2.51-7.33-4-15.07-4.32-22.87-.29-7.03,.12-16.98-7-20.48-7.94-3.91-15.79,4.54-20.36,10.43-1.76,2.27-3.38,4.67-4.86,7.16Zm-4.69,16.6c2.79-8.86,7.22-17.2,13.08-24.16,4.21-5,13.76-13.2,18.89-4.78,1.89,3.11,2.17,7.16,2.34,10.77,.19,4.23,.31,8.42,.89,12.61,.75,5.42,2.05,10.75,3.83,15.88,1.52,4.38,5.51,9.44,1.98,13.82-.48,.6-1.08,1.09-1.68,1.54-4.38,3.28-9.3,4.67-14.56,5.18-4.93,.48-9.79,1.6-14.74,1.93-3.37,.22-6.98,.4-10.23-.75-1.15-.41-1.88-.9-2.34-1.49-.96-1.25-.76-2.96-.85-5.35-.33-8.53,.85-17.11,3.4-25.2Z"/>
  </g>
</svg>