<?xml version="1.0" encoding="UTF-8"?>
<svg id="Headwear" xmlns="http://www.w3.org/2000/svg" viewBox="0 0 500 500">
  <defs>
    <style>
      .cls-1 {
        fill: #e3c299;
      }

      .cls-2 {
        fill: #9d7d5b;
      }

      .cls-3 {
        fill: #b69673;
      }

      .cls-4 {
        fill: #c3a47b;
      }

      .cls-5 {
        fill: #d0b186;
      }

      .cls-6 {
        fill: #d6b58c;
      }

      .cls-7 {
        fill: #967757;
      }
    </style>
  </defs>
  <path class="cls-7" d="M112.39,162.59c1.2-2.49,3.56-5.92,3.25-8.77-2.15,.69-4.09,1.84-6.18,2.65-2.37,.92-4.87,1.71-5.42,4.52-.45,2.33-.23,5.83,.43,8.1,.44,1.51,1.12,2.93,1.58,4.43,2.25-3.55,4.52-7.15,6.34-10.93Z"/>
  <g>
    <path class="cls-1" d="M285.1,141.22c-.1-3.14-.08-6.32,.12-9.47-.29-7.55,2.4-14.88,4.28-22.23,2.56-9.99,5.06-19.99,7.46-30.03,4.21-17.62,8.65-35.17,15.21-52.04-.09-.93,.12-1.95,.75-2.99,.28-.45,.53-.92,.78-1.39-10.78,.49-21.59-.08-32.27-1.71-.3,.17-.67,.23-1.11,.08-9.44-3.17-19.49-2.92-29.3-2.33-18.25,1.1-36.36,3.82-54.31,7.2-9.06,1.7-18.09,3.57-27.1,5.49-8.42,1.79-16.99,3.31-25.23,5.87,.22,8.24-2.03,16.22-5.38,23.71-6.41,14.37-16.51,26.9-21.86,41.77-2.92,8.1-3.5,16.44-4.12,24.96-.15,2.12-.33,4.23-.58,6.34-.24,2.07-1.12,3.8-1.86,5.75-1.58,4.18-2.9,8.46-3.94,12.81-.11,.44-.2,.93,0,1.33,.41,.79,7.36-2.35,8.57-2.73,3.54-1.13,7.13-2.08,10.75-2.91,7.14-1.65,14.36-2.86,21.56-4.21,7.37-1.39,14.74-2.77,22.11-4.16,7.27-1.37,14.54-2.96,21.87-3.93,6.97-.92,13.85-.7,20.57,1.52,6.13,2.02,11.81,5.15,17.62,7.93,6.11,2.92,12.36,4.91,18.97,6.36,6.73,1.47,13.58,2.64,20.01,5.18,6.54,2.58,12.3,6.62,18.19,10.41-1.58-8.68-3.59-18.16-1.78-26.58Z"/>
    <path class="cls-6" d="M299.9,147.93c.01-.56,.01-1.12,0-1.67-.13-5.16-.7-10.19-.81-15.29-.11,2.14-.16,4.29-.16,6.44,0,1.93-2.99,1.93-3,0-.03-8.58,.87-17.13,2.34-25.57,2.62-15.04,7.03-29.7,11.25-44.35,4.32-15.01,8.64-30.03,12.96-45.04-13.67,1.38-27.46,.99-41.04-1.08-.3,.17-.67,.23-1.11,.08-.56-.19-1.13-.36-1.7-.52-.39,1.6-.71,3.15-1.04,4.36-1.32,4.89-2.35,9.95-4.12,14.7-4.19,11.22-12.66,20.71-23.6,25.53-11.91,5.25-22.88,12.61-32.24,21.65-8.07,7.8-15.4,17.13-25.91,21.06-7.78,2.9-10.73-2-17.37-4.17-7.07-2.31-17.06-1.22-24.24,.02-5.85,1.01-11.29,5.2-16.84,7.3-1.27,.48-19.13,4.55-18.62,1.64-.86,4.96-1.24,10-1.61,15.11-.15,2.12-.33,4.23-.58,6.34-.24,2.07-1.12,3.8-1.86,5.75-1.58,4.18-2.9,8.46-3.94,12.81-.11,.44-.2,.93,0,1.33,.41,.79,7.36-2.35,8.57-2.73,3.54-1.13,7.13-2.08,10.75-2.91,7.14-1.65,14.36-2.86,21.56-4.21,7.37-1.39,14.74-2.77,22.11-4.16,7.27-1.37,14.54-2.96,21.87-3.93,6.97-.92,13.85-.7,20.57,1.52,6.13,2.02,11.81,5.15,17.62,7.93,6.11,2.92,12.36,4.91,18.97,6.36,6.73,1.47,13.58,2.64,20.01,5.18,10.72,4.23,19.36,12.38,29.87,16.93-.24-8.35-.49-16.7-.73-25.06-.04-1.24,1.17-1.67,2.07-1.33Z"/>
    <path class="cls-4" d="M297.57,163.07c-.89-8.04-.95-16.16-.46-24.25-.63-.12-1.18-.59-1.18-1.41-.03-8.58,.87-17.13,2.34-25.57,2.62-15.04,7.03-29.7,11.25-44.35,4.32-15.01,8.64-30.03,12.96-45.04-9.43,.95-18.92,1.04-28.35,.34-3.44,6.3-8.78,11.44-11.15,18.38-3.34,9.81-1.79,20.41-4.16,30.4-3.47,14.64-17.45,27.7-32.38,29.86-6.89,1-13.55-.91-19.82,2.66-5.23,2.98-11.32,4.01-16.7,6.62s-10.37,6.84-16.49,8.2c-13.14,2.94-25.98-7.99-39.01-3.34-14.29,5.1-25.54,14.73-41.56,14.77-.11,1.38-.24,2.75-.4,4.12-.24,2.07-1.12,3.8-1.86,5.75-1.58,4.18-2.9,8.46-3.94,12.81-.11,.44-.2,.93,0,1.33,.41,.79,7.36-2.35,8.57-2.73,3.54-1.13,7.13-2.08,10.75-2.91,7.14-1.65,14.36-2.86,21.56-4.21,7.37-1.39,14.74-2.77,22.11-4.16,7.27-1.37,14.54-2.96,21.87-3.93,6.97-.92,13.85-.7,20.57,1.52,6.13,2.02,11.81,5.15,17.62,7.93,6.11,2.92,12.36,4.91,18.97,6.36,6.73,1.47,13.58,2.64,20.01,5.18,10.72,4.23,19.36,12.38,29.87,16.93l-.16-5.58c-.34-1.86-.62-3.74-.83-5.67Z"/>
    <path class="cls-3" d="M297.83,149.26c-.04-1.36,1.43-1.76,2.33-1.2-.19-3.58-.55-7.11-1.24-10.5-.16,1.77-2.98,1.72-2.98-.16-.03-8.58,.87-17.13,2.34-25.57,2.62-15.04,7.03-29.7,11.25-44.35,4.32-15.01,8.64-30.03,12.96-45.04-6.85,.69-13.73,.94-20.59,.75-2.88,4.78-4,10.18-5.08,15.66-1.3,6.59-3.16,12.92-4.97,19.39-3.21,11.5-6.34,23.07-8.99,34.72-2.85,12.51-6.16,30.32-18.62,37.04-11.79,6.36-20.29-4.63-32.04-3.7-1.25,.1-2.49,.32-3.74,.24-2.03-.12-3.93-.98-5.86-1.62-6.4-2.12-12.82-1.43-19.07,.79s-12.33,4.75-18.83,2.38c-2.66-.97-4.98-2.68-7.63-3.68-3.61-1.37-7.6-1.31-11.44-.96-8.16,.74-15.79,2.52-23.25,5.74-5.94,2.56-11.81,4.67-18.24,5.61-3.99,.59-8.01,.87-12.01,1.32-.39,1.39-.99,2.68-1.52,4.09-1.58,4.18-2.9,8.46-3.94,12.81-.11,.44-.2,.93,0,1.33,.41,.79,7.36-2.35,8.57-2.73,3.54-1.13,7.13-2.08,10.75-2.91,7.14-1.65,14.36-2.86,21.56-4.21,7.37-1.39,14.74-2.77,22.11-4.16,7.27-1.37,14.54-2.96,21.87-3.93,6.97-.92,13.85-.7,20.57,1.52,6.13,2.02,11.81,5.15,17.62,7.93,6.11,2.92,12.36,4.91,18.97,6.36,6.73,1.47,13.58,2.64,20.01,5.18,10.72,4.23,19.36,12.38,29.87,16.93-.24-8.35-.49-16.7-.73-25.06Z"/>
    <path class="cls-5" d="M180.33,31.6l8.02-2.34c1.67-.49,3.64-1.33,3.82-3.05-.03,.29-13.87,1.99-15.2,2.23-4.71,.86-8.83,2.16-13.2,4.09-1.89,.83-19.4,4.13-19.37,5.15,.08,2.87-.18,5.72-.62,8.55-.52,3.29-2.02,5.61,1.69,4.72,4.83-1.16,9.34-8.86,13.47-11.64,3.8-2.55,8.27-3.87,12.66-5.15l8.75-2.55Z"/>
  </g>
  <g>
    <path class="cls-5" d="M403.51,221.54c-.15-7.09-1.02-14.16-2.57-21.08-1.51-6.73-4.83-12.74-6.4-19.46-.87-3.71-1.49-7.5-2.52-11.2-.64-2.31-1.65-4.63-2.15-6.97-.34-1.6-.21-3.09-1.15-4.55-2.37-3.69-5.16-.36-6.98,1.72-2.3,2.64-5.04,4.88-8.09,6.61-1.68,.95-3.19-1.64-1.51-2.59,3.69-2.09,6.91-4.96,9.29-8.48,1.07-1.57,2.14-3.31,2.61-5.17,.55-2.14-.37-3.62-1.59-5.29-1.15-1.57-1.9-3.12-2.11-5.08-.24-2.18-.19-4.41-.25-6.59-.14-4.65-.27-9.29-.41-13.94-.06-1.96-.25-6.57-2.97-6.8-.2-.02-.37-.07-.53-.14-.31,.24-.73,.36-1.21,.27-9.74-1.84-17.88-10.16-19.47-19.94-.13-.8,.2-1.61,1.05-1.85,.72-.2,1.71,.25,1.85,1.05,1.42,8.74,8.36,15.97,17.01,17.77-.11-.25-.15-.54-.1-.86,.74-4.81,1.93-9.54,3.59-14.12,2.88-7.97,7.06-15.41,12.37-22.02,.7-.87,1.41-1.72,2.15-2.55,.57-.65,1.29-1.31,1.63-2.13,.67-1.6-.8-2.72-2.05-3.4-1.72-.94-3.68-1.32-5.56-1.81-1.91-.5-3.82-1.01-5.73-1.51-.42,.4-1.02,.54-1.65,.1-4.7-3.32-9.41-6.64-14.11-9.97-1.82-1.29-3.64-2.56-5.03-4.34-1.3-1.67-2.36-3.51-3.63-5.2-2.42-3.23-5.24-6.18-8.31-8.8-5.88-5.03-12.83-8.75-20.24-10.95-.4,.11-.79,.03-1.16-.15-.24-.09-.49-.16-.75-.21-.25-.02-.5-.02-.76,0-.14,.03-.28,.06-.41,.09,0,.15,0,.31-.06,.48-2.43,8.43-4.85,16.86-7.28,25.29-4.29,14.89-8.8,29.74-12.69,44.74-3.81,14.68-6.75,29.68-6.69,44.9,0,1.47-1.73,1.82-2.56,1.05,.64,3.54,1.1,7.1,1.47,10.68,.08-1.8,2.94-1.75,2.99,.13,.26,8.75,.51,17.5,.77,26.25,.03,.01,.07,.03,.1,.04,.68,.23,.99,.78,1.03,1.34,.48-.04,.97,.17,1.24,.77,6.54,14.43,13.52,28.67,20.92,42.68,2.79,5.29,5.42,11.45,10.25,15.23,2.51,1.97,5.53,3.17,8.48,4.32,3.37,1.31,6.74,2.61,10.11,3.92,6.49,2.52,12.94,5.23,19.53,7.47,5.88,1.99,12.25,3.3,18.33,1.35,5.68-1.82,8.98-6.34,10.4-11.98,1.55-6.15,1.66-12.81,1.53-19.12Zm-7.35,16.7c-4.24,3.1-10.42,2.6-15.38,2.43-6.06-.2-12.12-.91-18.07-2.09-5.37-1.06-10.75-2.42-15.78-4.61-4.65-2.02-8.82-4.92-11.82-9.06-3.29-4.53-5.41-10.02-7.74-15.07-2.88-6.23-5.61-12.55-7.73-19.09-.76-2.35-1.05-4.83-1.82-7.16-.82-2.49-1.87-4.69-1.96-7.36,0-.06,0-.11,0-.17-.06-2.77,1.14-2.11,3.47-1.8,3.48,.47,6.93,1.12,10.36,1.81,9.85,2,19.68,4.07,29.52,6.11,5.64,1.17,11.3,2.26,16.91,3.6,2.29,.55,4.64,1.52,6.95,1.9,2.82,.46,6.68,.51,8.59,2.83,2.37,2.9,3.76,7.64,5,11.12,2.72,7.68,4.17,15.81,4.2,23.96,.01,4.58-.71,9.72-4.68,12.62Z"/>
    <path class="cls-4" d="M355.95,55.42c-2.27,8.05,2.19,16.44,1.87,24.65-.14,3.69-.25,7.36-.32,11.02,.44,.17,.81,.51,.89,.98,1.42,8.74,8.36,15.97,17.01,17.77-.11-.25-.15-.54-.1-.86,.74-4.81,1.93-9.54,3.59-14.12,2.88-7.97,7.06-15.41,12.37-22.02,.7-.87,1.41-1.72,2.15-2.55,.57-.65,1.29-1.31,1.63-2.13,.67-1.6-.8-2.72-2.05-3.4-1.72-.94-3.68-1.32-5.56-1.81-1.91-.5-3.82-1.01-5.73-1.51-.42,.4-1.02,.54-1.65,.1-4.7-3.32-9.41-6.64-14.11-9.97-1.82-1.29-3.64-2.56-5.03-4.34-.48-.61-.92-1.26-1.36-1.9-1.03,3.43-2.64,6.66-3.6,10.1Z"/>
    <path class="cls-4" d="M403.51,221.54c-.15-7.09-1.02-14.16-2.57-21.08-1.51-6.73-4.83-12.74-6.4-19.46-.87-3.71-1.49-7.5-2.52-11.2-.64-2.31-1.65-4.63-2.15-6.97-.34-1.6-.21-3.09-1.15-4.55-2.37-3.69-5.16-.36-6.98,1.72-2.3,2.64-5.04,4.88-8.09,6.61-1.68,.95-3.19-1.64-1.51-2.59,3.69-2.09,6.91-4.96,9.29-8.48,1.07-1.57,2.14-3.31,2.61-5.17,.55-2.14-.37-3.62-1.59-5.29-1.15-1.57-1.9-3.12-2.11-5.08-.24-2.18-.19-4.41-.25-6.59-.14-4.65-.27-9.29-.41-13.94-.06-1.96-.25-6.57-2.97-6.8-.2-.02-.37-.07-.53-.14-.31,.24-.73,.36-1.21,.27-7.63-1.44-14.25-6.86-17.54-13.84,0,2.75,.03,5.51,.11,8.28,.27,9.15,.76,18.48-.28,27.6-.64,5.57-2.72,11.57-7.02,15.37-4.6,4.06-11.39,4.23-15.93,0-4.48-4.17-6.58-10.52-10.42-15.26-4.35-5.38-9.61-10.07-13.05-16.15-2.25-3.98-3.77-8.59-4.64-13.46-.75-.79-1.25-1.87-1.29-3.25-.08-2.48,0-4.94,.16-7.39-3.54,13.98-6.19,28.24-6.13,42.71,0,1.47-1.73,1.82-2.56,1.05,.64,3.54,1.1,7.1,1.47,10.68,.08-1.8,2.94-1.75,2.99,.13,.26,8.75,.51,17.5,.77,26.25,.03,.01,.07,.03,.1,.04,.68,.23,.99,.78,1.03,1.34,.48-.04,.97,.17,1.24,.77,6.54,14.43,13.52,28.67,20.92,42.68,2.79,5.29,5.42,11.45,10.25,15.23,2.51,1.97,5.53,3.17,8.48,4.32,3.37,1.31,6.74,2.61,10.11,3.92,6.49,2.52,12.94,5.23,19.53,7.47,5.88,1.99,12.25,3.3,18.33,1.35,5.68-1.82,8.98-6.34,10.4-11.98,1.55-6.15,1.66-12.81,1.53-19.12Zm-1.64,12.69c-2.2,23.34-29.7,12.1-41.97,4.32-.37-.24-.69-.5-.97-.78-4.1-.94-8.15-2.13-12-3.8-4.65-2.02-8.82-4.92-11.82-9.06-3.29-4.53-5.41-10.02-7.74-15.07-2.88-6.23-5.61-12.55-7.73-19.09-.76-2.35-1.05-4.83-1.82-7.16-.82-2.49-1.87-4.69-1.96-7.36,0-.06,0-.11,0-.17-.05-2.57,.97-2.19,2.98-1.87,.51-1.95,2.06-3.61,4.63-3.7,24.73-.87,47.38,9.07,70.22,17.12,2.5,.88,3.52,3.06,3.41,5.15,.85,.58,1.5,1.51,1.77,2.86,1.57,7.74,.85,15.57,1.87,23.35,.09,.7,.05,1.32-.1,1.86,.11,1.59,.19,3.18,.19,4.77,0,1.6-.08,3.26-.36,4.87,.96,.79,1.56,2.04,1.4,3.74Z"/>
    <path class="cls-3" d="M403.51,221.54c-.15-7.09-1.02-14.16-2.57-21.08-1.51-6.73-4.83-12.74-6.4-19.46-.87-3.71-1.49-7.5-2.52-11.2-.64-2.31-1.65-4.63-2.15-6.97-.34-1.6-.21-3.09-1.15-4.55-2.37-3.69-5.16-.36-6.98,1.72-2.3,2.64-5.04,4.88-8.09,6.61-1.68,.95-3.19-1.64-1.51-2.59,3.69-2.09,6.91-4.96,9.29-8.48,1.07-1.57,2.14-3.31,2.61-5.17,.55-2.14-.37-3.62-1.59-5.29-1.15-1.57-1.9-3.12-2.11-5.08-.24-2.18-.19-4.41-.25-6.59-.14-4.65-.27-9.29-.41-13.94-.06-1.96-.25-6.57-2.97-6.8-.2-.02-.37-.07-.53-.14-.31,.24-.73,.36-1.21,.27-9.74-1.84-17.88-10.16-19.47-19.94-.13-.8,.2-1.61,1.05-1.85,.72-.2,1.71,.25,1.85,1.05,1.42,8.74,8.36,15.97,17.01,17.77-.11-.25-.15-.54-.1-.86,.74-4.81,1.93-9.54,3.59-14.12,2.88-7.97,7.06-15.41,12.37-22.02,.7-.87,1.41-1.72,2.15-2.55,.57-.65,1.29-1.31,1.63-2.13,.67-1.6-.8-2.72-2.05-3.4-1.72-.94-3.68-1.32-5.56-1.81-1.91-.5-3.82-1.01-5.73-1.51-.42,.4-1.02,.54-1.65,.1-4.7-3.32-9.41-6.64-14.11-9.97-1.82-1.29-3.64-2.56-5.03-4.34-.92-1.18-1.72-2.45-2.56-3.69,.41,3.9,.41,7.85,.22,11.62-.5,9.98-3.5,18.91-5.4,28.59-1.9,9.67,4.86,19.97,8.03,28.79,2.78,7.72,4.43,15.92,5.52,24.04,1.8,13.38,1.53,32.21-15.03,35.55-13.96,2.81-23.3-10.17-29.41-21.15-.44-.1-.89-.26-1.35-.51-1.07-.58-3.28-2.43-5.74-4.38-2.74-1.17-5.58-2.03-8.34-2.5-.82,.5-1.74,.79-2.6,.79-1.19,0-2.16-.39-2.94-1.01-1.79-.58-3.22-2.1-3.19-4.55,0-.04,0-.07,0-.11-.57,.26-1.3,.19-1.76-.24,.64,3.54,1.1,7.1,1.47,10.68,.08-1.8,2.94-1.75,2.99,.13,.26,8.75,.51,17.5,.77,26.25,.03,.01,.07,.03,.1,.04,.68,.23,.99,.78,1.03,1.34,.48-.04,.97,.17,1.24,.77,6.54,14.43,13.52,28.67,20.92,42.68,2.79,5.29,5.42,11.45,10.25,15.23,2.51,1.97,5.53,3.17,8.48,4.32,3.37,1.31,6.74,2.61,10.11,3.92,6.49,2.52,12.94,5.23,19.53,7.47,5.88,1.99,12.25,3.3,18.33,1.35,5.68-1.82,8.98-6.34,10.4-11.98,1.55-6.15,1.66-12.81,1.53-19.12Zm-7.35,16.7c-4.24,3.1-10.42,2.6-15.38,2.43-6.06-.2-12.12-.91-18.07-2.09-5.37-1.06-10.75-2.42-15.78-4.61-4.65-2.02-8.82-4.92-11.82-9.06-3.29-4.53-5.41-10.02-7.74-15.07-2.88-6.23-5.61-12.55-7.73-19.09-.76-2.35-1.05-4.83-1.82-7.16-.82-2.49-1.87-4.69-1.96-7.36,0-.06,0-.11,0-.17-.06-2.77,1.14-2.11,3.47-1.8,3.48,.47,6.93,1.12,10.36,1.81,9.85,2,19.68,4.07,29.52,6.11,5.64,1.17,11.3,2.26,16.91,3.6,2.29,.55,4.64,1.52,6.95,1.9,2.82,.46,6.68,.51,8.59,2.83,2.37,2.9,3.76,7.64,5,11.12,2.72,7.68,4.17,15.81,4.2,23.96,.01,4.58-.71,9.72-4.68,12.62Z"/>
    <g>
      <path class="cls-3" d="M373.31,123.61c4.9,8.27,2.7,16.47-.71,24.88-1.7,4.19-3.64,8.3-4.92,12.65-.08,.27-.14,.54-.21,.8,.3,3.48,1.55,7.74,4.32,9.14,1.89,.95,5.24,.39,7.37,1.01,4.53,1.33,11.33,3.27,12.01,8.82,0,0,0,.01,0,.02,.59,.1,1.17,.22,1.75,.33,.44-.57,.87-1.15,1.32-1.72-.71-3.24-1.3-6.52-2.2-9.74-.64-2.31-1.65-4.63-2.15-6.97-.34-1.6-.21-3.09-1.15-4.55-2.37-3.69-5.16-.36-6.98,1.72-2.3,2.64-5.04,4.88-8.09,6.61-1.68,.95-3.19-1.64-1.51-2.59,3.69-2.09,6.91-4.96,9.29-8.48,1.07-1.57,2.14-3.31,2.61-5.17,.55-2.14-.37-3.62-1.59-5.29-1.15-1.57-1.9-3.12-2.11-5.08-.24-2.18-.19-4.41-.25-6.59-.14-4.65-.27-9.29-.41-13.94-.06-1.96-.25-6.57-2.97-6.8-.2-.02-.37-.07-.53-.14-.31,.24-.73,.36-1.21,.27-6.23-1.18-11.79-5.01-15.42-10.18,.12,.71,.3,1.43,.56,2.19,2.54,7.33,9.32,12.24,13.2,18.8Z"/>
      <path class="cls-3" d="M356.52,56.72c3.14,6.86,10.94,11.03,12.31,18.67,1.58,8.83-6.73,14.32-8.92,21.75,2.79,6.36,8.59,11.26,15.49,12.69-.11-.25-.15-.54-.1-.86,.74-4.81,1.93-9.54,3.59-14.12,2.88-7.97,7.06-15.41,12.37-22.02,.7-.87,1.41-1.72,2.15-2.55,.57-.65,1.29-1.31,1.63-2.13,.67-1.6-.8-2.72-2.05-3.4-1.72-.94-3.68-1.32-5.56-1.81-1.91-.5-3.82-1.01-5.73-1.51-.42,.4-1.02,.54-1.65,.1-4.7-3.32-9.41-6.64-14.11-9.97-1.82-1.29-3.64-2.56-5.03-4.34-1.3-1.67-2.36-3.51-3.63-5.2-1.09-1.46-2.28-2.85-3.52-4.19-.09,6.46,.1,13.08,2.76,18.9Z"/>
    </g>
    <path class="cls-4" d="M385.94,62.54c-5.8,9.34-4.22,22.24-13.21,30.09-1.84,1.61-5.32,2.22-7.07,0-1.06-1.34-2.3-1.98-3.49-3.09-.09-.08-.18-.14-.27-.2-.57,2.28-1.83,3.79-1.85,6.27,0,.81,.1,1.61,.27,2.4,2.92,5.93,8.5,10.44,15.09,11.81-.11-.25-.15-.54-.1-.86,.74-4.81,1.93-9.54,3.59-14.12,2.88-7.97,7.06-15.41,12.37-22.02,.7-.87,1.41-1.72,2.15-2.55,.57-.65,1.29-1.31,1.63-2.13,.67-1.6-.8-2.72-2.05-3.4-1.72-.94-3.68-1.32-5.56-1.81-.5-.13-.99-.26-1.49-.39Z"/>
  </g>
  <g>
    <path class="cls-2" d="M391.72,63.71c-1.34-.89-2.64-1.82-4.18-1.66,.34,2.05-.28,4.25-1.64,5.82-1.14,1.33-2.74,2.2-3.85,3.55-2.69,3.26-3.36,9.4-4.86,13.35-2.12,5.58-3.06,11.57-5.23,17.15-2.41-1.24-5.35-3.71-7.29-5.71s-3.78-8.28-6.72-8.55c-.75-.07-1.52,.4-1.8,1.1-1.28,3.2,3.63,10.76,5.53,13.15,2.93,3.69,6.87,6.52,11.23,8.29,1.64,.66,2.91,.02,3.6-1.11,.66-.4,1.19-1.04,1.45-2,3.27-12.22,5.05-29.47,16.86-36.69,1.41-.86,2.7-3.73,.83-4.85-.52-.31-1.12-.42-1.69-.62-.79-.28-1.52-.75-2.23-1.23Z"/>
    <path class="cls-2" d="M381.32,139.43c-1.17-4.2-.72-7.23,.14-11.25,.27-1.27-.14-12.87-1.68-12.8-1.16,.05-2.19,.81-2.85,1.76s-1.01,2.08-1.34,3.19c-2.18,7.5-3.32,14.96-.65,22.53,.49,1.39,1.69,3.09,1.96,4.52,.52,2.78-1.46,5.11-3.08,7.04-3.09,3.7-8.14,6.52-10.71,10.48-.57,.87-.62,2.18,.16,2.86,.63,.54,1.55,.54,2.37,.45,7.86-.87,14.35-6.56,19.2-12.81,.65-.84,1.3-1.73,1.52-2.78,.6-2.84-3.19-7.94-4.28-10.82-.3-.79-.55-1.57-.77-2.36Z"/>
    <path class="cls-2" d="M323.33,203.96c-.2-.33-.42-.66-.67-.96-1.74-2.09-2.98-3.03-3.88-5.53-.84-2.34-1.77-4.52-3.08-6.77-.19-.32-.41-.58-.65-.8,0-.21-.02-.42-.06-.65-.83-4.15-2.43-7.62-3.64-11.55-1.46-4.78-2.12-9.48-4.79-13.85-1.46-2.38-3.32-4.53-4.41-7.1-.45-1.08-1.22-2.48-2.35-2.15-1.04,.3-1.06,1.75-.86,2.82,.92,4.91,.93,9.4,1.47,14.28,.53,4.74,2.63,7.34,4.98,11.16,2.33,3.78,3.97,7.51,5.11,11.74,1.69,6.27,5.45,12.03,8.91,17.43,1.28,2,2.57,4.01,3.52,6.18,.72,1.64,1.24,3.35,1.88,5.02,1.15,3.02,2.69,5.88,4.56,8.51,.88-3.57,.22-7.33-.85-10.85s-2.54-6.91-3.34-10.49c-.49-2.18-.77-4.53-1.87-6.42Z"/>
    <path class="cls-2" d="M405.78,230.68c.2-2.02,.29-3.88,.32-5.39,.1-7.07-.99-14.08-2.4-20.98-1.12-5.47-1.35-11.46-6.07-15.17-4.58-3.6-10.77-5.3-16.18-7.18-11.73-4.08-25.6-6.31-37.99-6.86-3.66-.16-9.43-.72-11.86,2.55l5.04,.87c8.29,1.43,15.97,4.48,24.22,5.97,4.55,.82,9.07,1.26,13.54,2.55,2.73,.79,5.61,2.03,8.35,2.59,2.16,.44,5.58-.72,7.37,.84,1.17,1.02,1.19,2.79,1.43,4.32,.56,3.64,2.77,6.77,4.4,10.06,3.59,7.24,3.86,17.37,3.99,25.31,.06,3.83-.21,8.79-2.35,12.12-4.83,7.49-14.02,2.22-20.63,1.45-2.81-.32-5.64-.02-8.47,0-9.66,.07-19.01-3.2-27.97-6.82-.8,1.1,.69,2.4,1.94,2.94,15.3,6.59,36,19.36,53.17,12.74,6.76-2.6,9.34-13.65,10.15-21.89Z"/>
    <path class="cls-2" d="M324.16,23.81c-.94,2.16-1.26,5.03-1.69,6.61l-3.83,14.3c-2.55,9.53-5.1,19.07-7.65,28.6-2,7.46-3.76,14.95-6.68,22.03-3.63,8.8-4.91,20.16-4.3,29.57,3.02-5.58,4.03-11.77,6.88-17.33,6.26-12.2,8.97-25.41,12.5-38.61,3.48-13.01,5.13-27.83,14.15-38.3,1-1.16,2.25-2.36,3.78-2.34,.69,0,1.45,.26,2.04-.1,.63-.39,.71-1.32,.36-1.97s-1.01-1.06-1.65-1.42c-2.22-1.24-4.6-2.16-6.97-3.07-1.25-.48-2.58-.97-3.91-.8-1.46,.19-2.4,1.35-3.05,2.83Z"/>
    <path class="cls-2" d="M279.36,156.95c-.79-.39-1.57-.8-2.32-1.27-1.3-.82-2.49-1.82-3.83-2.56-1.05-.58-2.19-1-3.32-1.41-5.69-2.08-11.47-3.3-16.86-6.26-12.67-6.95-28.58-8.48-42.82-8.24,2.99,2.86,6.65,4.28,10.09,6.36,2.93,1.77,6.44,4.34,9.81,5.08,7.31,1.61,14.73,4.05,22,6.33,8.61,2.7,16.85,3.46,24.82,8.03,6.45,3.7,13.03,9.64,20.27,11.68,4.84,1.36,3.32-2.98,3.04-6.67-.32-4.36-.7-8.71-1.13-13.06-.08-.8-.21-1.69-.85-2.17-1.08-.82-2.59,.17-3.5,1.18-1.38,1.53-2.58,3.24-4.2,4.51-3.99,3.13-7.36,.35-11.21-1.53Z"/>
  </g>
  <g>
    <path class="cls-7" d="M117.09,126.5c-.22-1.27-2.15-.73-1.93,.53,.99,5.72,.64,11.6-.97,17.17-.36,1.24,1.57,1.77,1.93,.53,1.71-5.93,2.02-12.15,.97-18.23Z"/>
    <path class="cls-7" d="M120.8,138.18c-.58,.03-.95,.44-1,1l-.36,3.77c-.05,.52,.5,1.02,1,1,.58-.03,.95-.44,1-1l.36-3.77c.05-.52-.5-1.02-1-1Z"/>
    <path class="cls-7" d="M118.77,108.85c-.54-.12-1.07,.16-1.23,.7-.53,1.75-1.05,3.5-1.58,5.25-.15,.5,.18,1.11,.7,1.23,.54,.12,1.07-.16,1.23-.7,.53-1.75,1.05-3.5,1.58-5.25,.15-.5-.18-1.11-.7-1.23Z"/>
    <path class="cls-7" d="M292.3,125.25c.14-1.28-1.87-1.27-2,0-.74,6.99-.45,14.04,.83,20.95,.23,1.26,2.16,.73,1.93-.53-1.25-6.74-1.48-13.61-.76-20.42Z"/>
    <path class="cls-7" d="M289.19,142.68c-.13-.52-.72-.84-1.23-.7-.53,.15-.83,.71-.7,1.23,.61,2.38,.85,4.81,.75,7.26-.02,.54,.48,1,1,1,.56,0,.98-.46,1-1,.11-2.62-.17-5.25-.82-7.79Z"/>
    <path class="cls-7" d="M391.01,175.39c-.74-2.99-2.05-5.83-3.85-8.33-.32-.44-.87-.65-1.37-.36-.43,.25-.68,.93-.36,1.37,1.71,2.37,2.95,5.01,3.65,7.85,.31,1.25,2.24,.72,1.93-.53Z"/>
    <path class="cls-7" d="M386.67,177.71c-.36-.88-.73-1.77-1.09-2.65-.1-.25-.22-.45-.46-.6-.21-.13-.53-.18-.77-.1-.24,.08-.48,.23-.6,.46-.12,.22-.2,.53-.1,.77,.36,.88,.73,1.77,1.09,2.65,.1,.25,.22,.45,.46,.6,.21,.13,.53,.18,.77,.1,.24-.08,.48-.23,.6-.46,.12-.22,.2-.53,.1-.77Z"/>
    <path class="cls-7" d="M377.77,64.69c-.5-1.15-1.56-1.91-2.6-2.53-2.54-1.53-5.11-3.01-7.67-4.52-1.11-.65-2.12,1.07-1.01,1.73,2.2,1.3,4.41,2.59,6.61,3.89,.87,.51,1.87,.98,2.54,1.76,.41,.47,.7,1.3,.25,1.79-.88,.94,.53,2.36,1.41,1.41,.91-.97,1-2.35,.48-3.53Z"/>
    <path class="cls-7" d="M376.93,71.55c-.55-.15-1.05,.19-1.23,.7-.81,2.27-1.28,4.66-1.41,7.07-.03,.54,.48,1,1,1,.57,0,.97-.46,1-1,.12-2.22,.58-4.41,1.34-6.54,.18-.51-.21-1.09-.7-1.23Z"/>
    <path class="cls-7" d="M371.66,116.35c-.57-.16-1.03,.2-1.23,.7-1.4,3.44-2.15,7.12-2.27,10.83-.04,1.29,1.96,1.29,2,0,.12-3.54,.87-7.02,2.2-10.3,.2-.5-.22-1.1-.7-1.23Z"/>
    <path class="cls-7" d="M370.51,134.28c-.05-.52-.42-1.03-1-1-.5,.02-1.06,.44-1,1,.15,1.5,.3,3.01,.46,4.51,.05,.52,.42,1.03,1,1,.5-.02,1.06-.44,1-1-.15-1.5-.3-3.01-.46-4.51Z"/>
    <path class="cls-7" d="M301.94,131.64v10.92c0,1.29,2,1.29,2,0v-10.92c0-1.29-2-1.29-2,0Z"/>
    <path class="cls-7" d="M305.15,148.63c-.17-.17-.46-.3-.71-.29-.54,.02-1,.44-1,1v2.26c0,.26,.11,.53,.29,.71s.46,.3,.71,.29c.54-.02,1-.44,1-1v-2.26c0-.26-.11-.53-.29-.71Z"/>
    <path class="cls-7" d="M309.82,27.72c-1.44-1.04-3.36-1.13-5.07-1.19-.52-.02-1.02,.47-1,1,.02,.56,.44,.98,1,1,.38,.01,.75,.03,1.13,.05,.36,.02,.65,.05,.85,.09,.37,.06,.73,.14,1.08,.26,.08,.03,.16,.06,.24,.09h.04l.05,.04c.16,.08,.31,.15,.46,.25,.06,.04,.12,.08,.18,.12,.02,.01,.02,.01,.03,.02,0,0,0,0,0,.01,.12,.11,.24,.21,.35,.33,.05,.05,.09,.11,.14,.16,0,0,0,0,0,0,0,0,0,.01,.02,.03,.09,.13,.17,.26,.24,.4,.02,.04,.03,.07,.04,.09,.02,.06,.05,.12,.06,.18,.02,.05,.03,.11,.04,.16,0,.02,.02,.1,.02,.14,0,.11,.01,.22,0,.33,0,.02,0,.02,0,.03v.03c-.03,.08-.05,.16-.07,.25-.15,.5,.18,1.11,.7,1.23,.54,.12,1.07-.16,1.23-.7,.53-1.71-.43-3.42-1.8-4.41Z"/>
    <path class="cls-7" d="M310.49,37.65c-.53,0-1.01,.46-1,1,.06,2.36-.33,4.66-1.14,6.88-.19,.51,.21,1.1,.7,1.23,.56,.15,1.04-.19,1.23-.7,.87-2.36,1.27-4.9,1.21-7.41-.01-.54-.45-1-1-1Z"/>
    <path class="cls-7" d="M216.98,120.85c-.57,0-.96,.46-1,1-.2,3.02-.4,6.03-.6,9.05-.04,.54,.49,1,1,1,.57,0,.96-.46,1-1,.2-3.02,.4-6.03,.6-9.05,.04-.54-.49-1-1-1Z"/>
    <path class="cls-7" d="M221.24,127.25c-.54,.02-1,.44-1,1v3.01c0,.52,.46,1.02,1,1,.54-.02,1-.44,1-1v-3.01c0-.52-.46-1.02-1-1Z"/>
  </g>
  <g>
    <path d="M398.36,182.04c-.71-2.21-1.35-4.45-1.87-6.72-.72-3.2-1.56-6.37-2.52-9.51-.51-1.67-1.05-3.32-1.63-4.97-.5-1.44-.96-3-1.76-4.32-.4-.66-.82-2.03-1.38-2.47-.43-.33-.97-.47-1.42-.77-2.18-1.41-.19-4.96-1.15-7.14-.82-1.87-2.57-3.28-3.12-5.27-.65-2.32-.37-5.07-.44-7.46-.15-5.05-.1-10.15-.47-15.19-.24-3.24-1.31-7.11-4.5-8.24,.02-.07,.06-.13,.07-.21,1.4-9.1,4.46-17.87,9.07-25.84,2.3-3.98,4.97-7.75,7.99-11.22,1.32-1.51,2.86-3.04,2.96-5.18,.08-1.9-1.01-3.47-2.46-4.57-1.72-1.3-3.79-1.94-5.86-2.48-3.01-.79-6.01-1.59-9.02-2.38-.19-.05-.37-.06-.54-.04-3.82-2.7-7.64-5.4-11.46-8.1-1.89-1.33-3.96-2.58-5.44-4.38-1.39-1.69-2.46-3.65-3.78-5.4-4.93-6.5-11.18-11.95-18.31-15.9-4.05-2.24-8.36-4-12.82-5.23-.28-.08-.53-.07-.76-.01-.31-.07-.62-.13-.96-.15-.68-.06-1.39,.03-2.04,.24-.09,.03-.16,.08-.24,.12-14.77,1.68-29.74,1.34-44.41-1.1-.11-.02-.21-.02-.3-.02-7.99-2.41-16.45-2.6-24.74-2.23-9.23,.41-18.44,1.3-27.61,2.47-18.42,2.35-36.65,5.9-54.8,9.74-5.03,1.06-10.05,2.14-15.07,3.22-5.02,1.08-10.04,2.17-14.94,3.75-.04,.01-.07,.03-.11,.05-.65,.09-1.22,.57-1.18,1.43,.84,15.54-7.55,29.25-15.13,42.15-3.99,6.79-7.95,13.63-10.92,20.95-1.43,3.53-2.61,7.17-3.37,10.91-.88,4.29-1.26,8.66-1.57,13.02-.4,5.6-.68,11.38-1.9,16.88-1.57,3.6-3.01,7.25-4.31,10.95l-.02,.03c-.14,.23-.21,.45-.23,.67-.19,2.37-2.07,4.27-2.38,6.67-.38,2.94-.16,6.19,.36,9.11s1.63,5.84,3.63,8.07c.44,.49,1.78,1.3,2.22,.42,1.66-3.37,3.14-6.83,4.67-10.28,1.28-2.86,3.1-5.69,4.61-8.48,.74-1.37,1.5-2.73,2.26-4.09,7.86-2.25,15.99-3.68,23.99-5.19,14.55-2.74,29.08-5.62,43.66-8.2,7.01-1.24,14.17-2.01,21.17-.27,6.22,1.54,11.92,4.53,17.63,7.34,5.9,2.9,11.84,5.39,18.23,6.97,6.56,1.61,13.27,2.63,19.73,4.62,6.84,2.1,12.84,5.73,18.79,9.62,5.88,3.84,11.77,7.72,18.45,10.02,.11,.04,.22,.06,.32,.08,0,.21,.05,.43,.15,.66,6.14,13.55,12.66,26.93,19.56,40.11,2.98,5.7,5.72,12.09,10.26,16.76,4.76,4.91,11.84,6.83,18.03,9.23,6.93,2.69,13.84,5.47,20.81,8.04,6.19,2.28,12.73,4.02,19.36,2.92,5.93-.98,11.14-4.43,13.75-9.93,2.67-5.65,3.07-12.23,3.31-18.38,.37-9.68-.57-19.41-2.74-28.85-1.36-5.88-3.54-11.4-5.35-17.05Zm-286.56-21.06c-1.51,3.58-3.13,7.59-5.38,10.71-.05,.07-.11,.14-.19,.14-.12,0-.19-.13-.23-.25-1.19-3.5-2.18-7.25-1.37-10.85,.54-2.4,2.04-2.69,4.17-3.58,1.86-.78,4.47-.8,5.98-2.21-.84,1.86-1.94,3.58-2.77,5.51-.07,.17-.15,.35-.22,.52Zm290.18,79.68c-1.42,5.63-4.71,10.16-10.4,11.98-6.08,1.95-12.45,.64-18.33-1.35-6.59-2.24-13.04-4.95-19.53-7.47-3.37-1.31-6.74-2.61-10.11-3.92-2.94-1.15-5.97-2.35-8.48-4.32-4.83-3.79-7.46-9.94-10.25-15.23-7.4-14.01-14.37-28.25-20.92-42.68-.27-.6-.75-.81-1.24-.77-.04-.56-.35-1.11-1.03-1.34-.03-.01-.07-.03-.1-.04-.26-8.75-.51-17.5-.77-26.25-.06-1.93-3.06-1.93-3,0,.24,8.35,.49,16.7,.73,25.06-10.51-4.55-19.15-12.71-29.87-16.93-6.44-2.54-13.28-3.71-20.01-5.18-6.61-1.44-12.86-3.43-18.97-6.36-5.8-2.78-11.49-5.9-17.62-7.93-6.72-2.22-13.59-2.44-20.57-1.52-7.34,.97-14.61,2.56-21.87,3.93-7.37,1.39-14.74,2.77-22.11,4.16-13.52,2.54-27.45,4.64-40.19,10.03,.35-1.05,.7-2.1,1.07-3.15,2.74-7.68,4.02-15.13,4.61-23.26,.62-8.52,1.2-16.86,4.12-24.96,5.35-14.87,15.44-27.41,21.86-41.77,3.35-7.49,5.6-15.47,5.38-23.71,8.23-2.56,16.81-4.08,25.23-5.87,9.02-1.92,18.04-3.79,27.1-5.49,17.96-3.38,36.06-6.1,54.31-7.2,9.81-.59,19.86-.84,29.3,2.33,.44,.15,.81,.09,1.11-.08,13.58,2.08,27.37,2.46,41.04,1.08-4.32,15.01-8.64,30.03-12.96,45.04-4.22,14.65-8.63,29.31-11.25,44.35-1.47,8.44-2.37,16.99-2.34,25.57,0,1.93,3.01,1.93,3,0-.06-15.23,2.88-30.22,6.69-44.9,3.9-15,8.41-29.85,12.69-44.74,2.43-8.43,4.85-16.86,7.28-25.29,.05-.17,.06-.33,.06-.48,.14-.04,.28-.07,.41-.09,.25-.02,.5-.02,.76,0,.26,.05,.51,.12,.75,.21,.37,.18,.75,.26,1.16,.15,7.41,2.2,14.36,5.92,20.24,10.95,3.07,2.62,5.89,5.57,8.31,8.8,1.27,1.69,2.33,3.54,3.63,5.2,1.38,1.78,3.2,3.05,5.03,4.34,4.7,3.32,9.41,6.64,14.11,9.97,.62,.44,1.23,.3,1.65-.1,1.91,.5,3.82,1.01,5.73,1.51,1.88,.49,3.84,.87,5.56,1.81,1.25,.68,2.72,1.8,2.05,3.4-.34,.82-1.05,1.48-1.63,2.13-.73,.83-1.45,1.69-2.15,2.55-5.31,6.61-9.48,14.05-12.37,22.02-1.66,4.58-2.85,9.31-3.59,14.12-.05,.32,0,.61,.1,.86-8.65-1.8-15.59-9.03-17.01-17.77-.13-.8-1.12-1.25-1.85-1.05-.85,.23-1.18,1.04-1.05,1.85,1.59,9.79,9.73,18.1,19.47,19.94,.48,.09,.89-.03,1.21-.27,.16,.07,.33,.12,.53,.14,2.72,.23,2.91,4.84,2.97,6.8,.14,4.65,.27,9.29,.41,13.94,.06,2.19,.01,4.42,.25,6.59,.22,1.95,.97,3.5,2.11,5.08,1.22,1.67,2.14,3.15,1.59,5.29-.48,1.86-1.55,3.59-2.61,5.17-2.38,3.52-5.6,6.4-9.29,8.48-1.68,.95-.17,3.54,1.51,2.59,3.05-1.72,5.79-3.97,8.09-6.61,1.82-2.08,4.61-5.4,6.98-1.72,.94,1.46,.81,2.94,1.15,4.55,.5,2.34,1.51,4.65,2.15,6.97,1.03,3.71,1.65,7.49,2.52,11.2,1.57,6.72,4.89,12.73,6.4,19.46,1.55,6.92,2.42,13.99,2.57,21.08,.13,6.31,.02,12.97-1.53,19.12Z"/>
    <path d="M391.64,190.53c-1.9-2.33-5.77-2.37-8.59-2.83-2.31-.38-4.66-1.35-6.95-1.9-5.6-1.34-11.27-2.43-16.91-3.6-9.84-2.04-19.67-4.12-29.52-6.11-3.44-.7-6.89-1.34-10.36-1.81-2.33-.32-3.52-.97-3.47,1.8,0,.06,0,.11,0,.17,.09,2.67,1.15,4.87,1.96,7.36,.77,2.33,1.06,4.82,1.82,7.16,2.13,6.53,4.85,12.85,7.73,19.09,2.34,5.05,4.46,10.54,7.74,15.07,3,4.13,7.17,7.04,11.82,9.06,5.03,2.18,10.41,3.55,15.78,4.61,5.95,1.18,12.01,1.88,18.07,2.09,4.96,.17,11.14,.67,15.38-2.43,3.97-2.9,4.69-8.04,4.68-12.62-.03-8.15-1.48-16.28-4.2-23.96-1.23-3.49-2.63-8.23-5-11.12Zm4.34,43.66c-2.77,4.09-8.97,3.59-13.27,3.52-10.88-.18-22.16-1.78-32.4-5.6-4.37-1.63-8.57-3.95-11.65-7.52-3.39-3.92-5.34-9.1-7.52-13.75-5.05-10.76-9.77-21.8-11.8-33.57,7.71,1.04,15.34,2.89,22.93,4.46,9.59,1.99,19.21,3.9,28.78,5.99,3.87,.85,7.68,1.88,11.51,2.87,2.3,.6,5.7,.15,7.32,2.28,1.47,1.93,2.35,5.57,3.24,7.88,2.47,6.38,4.02,13.13,4.53,19.95,.32,4.26,.88,9.73-1.66,13.47Z"/>
  </g>
  <g>
    <path d="M217.3,33.82c.81-.04,1.62-.09,2.43-.13,1.04-.06,2.05-.88,2-2-.05-1.04-.88-2.06-2-2-3.03,.16-6,.33-9.03,.49-1.04,.06-2.05,.88-2,2,.05,1.04,.88,2.06,2,2,.86-.05,1.71-.09,2.57-.14,0,0-1.31,9.73-1.31,9.75l-3.15,.2c-1.04,.07-2.05,.87-2,2,.05,1.03,.88,2.07,2,2,2.47-.16,4.95-.31,7.42-.47,.97,.04,1.93,.03,2.89-.06,.28,.01,.53-.05,.77-.17,.25-.08,.46-.22,.64-.41,.35-.35,.61-.92,.59-1.41-.02-.52-.19-1.05-.59-1.41-.37-.34-.89-.63-1.41-.59-.48,.04-.97,.06-1.46,.08-.18-.05-.36-.09-.56-.07l-.88,.06c-.08,0-.16,0-.24,0,.43-3.23,.87-6.46,1.3-9.7Z"/>
    <g>
      <path d="M207.13,56.39c-.5-2.56-1.4-5.13-3.68-6.62-.11-.08-.24-.13-.36-.18-.86-.77-1.95-.7-2.81,.01-1.89,1.56-3.04,3.79-4.11,5.95-1.23,2.49-2.34,5.04-3.33,7.64-.38,.98,.41,2.24,1.4,2.46,1.14,.26,2.06-.35,2.46-1.4,.27-.71,.56-1.41,.84-2.1,.02,0,.04,0,.06,0,2.08,.16,4.14,.06,6.2-.2,.06,1.01,.1,2.03,.14,3.03,.04,1.08,.89,2,2,2,1.05,0,2.04-.92,2-2-.11-2.88-.24-5.77-.8-8.6Zm-7.51,1.18c.48-.97,.97-1.95,1.54-2.88,.15-.24,.3-.47,.46-.69,.06-.09,.12-.17,.19-.26,0-.01,.04-.05,.08-.1,.06,.07,.12,.15,.14,.17,.13,.2,.26,.41,.37,.62,.01,.02,.14,.31,.16,.35,.39,1.01,.62,2.1,.81,3.17,0,.02,0,.04,0,.06-1.35,.17-2.71,.24-4.07,.22,.11-.22,.21-.44,.32-.67Z"/>
      <path d="M224.72,49.88c-.25,.01-.47,.06-.68,.14-.52-.01-1.04,.19-1.51,.56-1.67,1.31-3.35,2.62-5.02,3.93-.74-1.08-1.49-2.16-2.23-3.24-.59-.86-1.78-1.33-2.74-.72-.02,.01-.03,.03-.05,.04-1.07,.1-1.83,.9-1.89,1.98-.21,3.72-.42,7.44-.63,11.16-.06,1.05,.96,2.05,2,2,1.13-.05,1.94-.88,2-2,.13-2.25,.25-4.51,.38-6.76,.32,.47,.65,.94,.97,1.41,.8,1.16,2.08,1.24,3.14,.4,1.35-1.06,2.7-2.12,4.06-3.18-.15,2.94-.27,5.88-.37,8.82-.03,1.05,.94,2.05,2,2,1.11-.05,1.96-.88,2-2,.13-4.19,.32-8.38,.56-12.56,.06-1.05-.96-2.05-2-2Z"/>
    </g>
    <g>
      <path d="M199.63,72.44c-.66,2.68-1.26,5.38-1.82,8.09-.32-.66-.68-1.3-1.09-1.91-1.52-2.29-3.44-4.26-5.37-6.2-1.13-1.14-2.83-.49-3.34,.88-1.45,3.89-2.71,7.84-3.79,11.85-.67,2.49,3.19,3.55,3.86,1.06,.78-2.93,1.67-5.82,2.65-8.68,1.03,1.11,2.01,2.26,2.81,3.55,1.34,2.14,1.79,4.79,3.73,6.63,1.01,.96,3.06,.66,3.34-.88,.83-4.46,1.79-8.9,2.87-13.31,.61-2.5-3.24-3.57-3.86-1.06Z"/>
      <path d="M218.24,74.73c-.7-1.76-2.17-3.06-3.76-4.03-1.46-.89-3.18-1.38-4.81-.95-.62-.36-1.42-.46-2-.02-2.66,2.03-3.72,5.22-4.13,8.44-.18,1.44-.15,2.98,.31,4.36,.57,1.7,1.76,3.46,3.58,3.97,2.93,.82,6.39-.91,8.37-3.01,2.07-2.2,3.61-5.78,2.43-8.76Zm-3.62,2.31c0,.35-.12,.84-.27,1.32-.03,.09-.18,.46-.18,.48-.08,.17-.16,.34-.25,.5-.12,.22-.25,.43-.39,.64-.01,.02-.07,.11-.12,.17-.06,.07-.2,.25-.19,.24-.31,.36-.64,.67-1,.98-.02,.02-.03,.03-.04,.04-.1,.07-.2,.14-.3,.21-.23,.16-.47,.3-.72,.43-.09,.05-.45,.21-.46,.22-.17,.07-.35,.13-.52,.18-.24,.07-.48,.13-.72,.18-.05,0-.1,.02-.15,.03,.11-.03-.41,.03-.43,.03-.38,.03-.38-.01-.68-.33-.02-.02-.03-.03-.04-.04l-.02-.03c-.07-.11-.14-.22-.21-.33-.05-.08-.09-.17-.14-.25-.03-.05-.05-.08-.06-.11,0-.03-.01-.07-.03-.12-.06-.22-.13-.43-.18-.65,0-.02-.03-.13-.04-.2,0-.08-.03-.21-.03-.24-.05-.57-.03-1.14,.02-1.71,0-.1,.02-.2,.03-.3v-.05s.02-.06,.03-.12c.06-.33,.12-.66,.2-.99,.13-.56,.29-1.12,.48-1.67,.05-.13,.09-.26,.14-.39,.07-.18-.06,.11,.08-.18,.13-.27,.27-.54,.43-.8,.07-.11,.14-.21,.21-.32,.49,.12,1.02,.06,1.48-.2,.08-.05,.13-.07,.16-.09,.12,0,.24,0,.35,0,.03,0,.05,.01,.09,.02,.59,.16,.73,.23,1.3,.57,.24,.15,.47,.31,.7,.47,.01,.01,.09,.07,.13,.1,.09,.07,.18,.14,.26,.22,.18,.16,.35,.32,.51,.49,.02,.02,.1,.12,.16,.18,.04,.07,.17,.26,.19,.29,.03,.05,.05,.07,.07,.1,.05,.12,.09,.26,.12,.38,.07,.26,.04,.27,.04,.65Z"/>
      <path d="M230.35,71.17c-3.44,.13-6.88,.07-10.31-.2-1.05-.08-2.05,.98-2,2,.05,1.15,.88,1.91,2,2,1.2,.09,2.41,.15,3.62,.2-.44,3.64-.88,7.27-1.32,10.91-.13,1.04,1.01,2.04,2,2,1.19-.05,1.86-.88,2-2,.44-3.62,.88-7.23,1.31-10.85,.9,0,1.8-.03,2.7-.06,1.04-.04,2.05-.89,2-2-.05-1.05-.88-2.04-2-2Z"/>
    </g>
    <g>
      <path d="M172.15,95.36c-1.34-.12-2.68-.24-4.03-.35-1.33-.12-2.75-.17-4.01,.36-.1,.04-.19,.08-.28,.13-.03,0-.06,0-.09,0-1.14,.05-1.93,.88-2,2-.19,3.2-.38,6.4-.56,9.6-.06,1.05,.96,2.05,2,2,1.14-.05,1.93-.88,2-2,.05-.84,.1-1.68,.15-2.51,1.05,0,2.11-.04,3.15-.17,.28,.01,.53-.05,.77-.17,.25-.08,.46-.22,.64-.41,.35-.35,.61-.92,.59-1.41-.02-.52-.19-1.05-.59-1.41-.36-.33-.9-.65-1.41-.59-.97,.13-1.94,.17-2.92,.17,.03-.5,.06-1.01,.09-1.51,.13-.04,.27-.07,.41-.11,.13,0,.26-.02,.39-.02,.61-.02,1.21,.04,1.81,.09,1.3,.11,2.59,.23,3.89,.34,1.05,.09,2.05-.99,2-2-.05-1.16-.88-1.9-2-2Z"/>
      <path d="M183.37,95.28c-.26-.46-.72-.78-1.23-.92-.05-.46-.24-.89-.56-1.19-.85-.78-1.97-.72-2.83,0-.84,.71-1.38,1.73-1.87,2.69-.52,1.01-.97,2.07-1.37,3.14-.76,2.06-1.21,4.18-1.46,6.36-.12,1.04,1.01,2.04,2,2,1.19-.05,1.87-.88,2-2,0-.09,.02-.18,.03-.26,0-.03,.01-.07,.02-.17,.04-.22,.07-.45,.11-.67,0-.02,0-.04,.01-.06,.35,.1,.72,.12,1.09,.03,.26-.07,.53-.11,.8-.16,.56-.06,1.11-.07,1.67-.03v.08c.06,.42,.11,.84,.15,1.26,.06,.55,.18,1.01,.59,1.41,.35,.35,.92,.61,1.41,.59,.99-.04,2.12-.89,2-2-.38-3.48-.81-7.01-2.58-10.09Zm-4.03,4.87c.07-.18,.13-.36,.2-.54,.02-.05,.13-.32,.17-.4,.17-.39,.35-.77,.54-1.15,0-.02,.02-.04,.03-.06,.06,.12,.12,.23,.18,.35,.02,.05,.04,.09,.06,.14v.03c.08,.2,.16,.39,.23,.59,.1,.3,.2,.6,.28,.91-.57,0-1.13,.05-1.69,.14Z"/>
      <path d="M201.71,94.17c-.07-1.99-2.67-2.71-3.73-1.01-.22,.35-.45,.69-.69,1.02-.08,.1-.16,.2-.24,.29-.13,.15-.25,.29-.39,.43-.26,.28-.54,.55-.83,.81-.11,.1-.22,.19-.33,.29-.14-.17-.28-.33-.41-.5-.05-.06-.08-.1-.1-.13-.02-.03-.06-.08-.11-.14-.13-.17-.26-.34-.38-.52-.29-.41-.57-.82-.85-1.24-.43-.66-1.24-1.08-2.01-.98-.24-.11-.5-.16-.75-.15-1.18,.05-1.87,.88-2,2-.38,3.38-.63,6.77-.74,10.17-.03,1.05,.94,2.05,2,2,1.11-.05,1.96-.88,2-2,.06-1.97,.19-3.93,.34-5.9,.92,1.13,2.13,2.16,3.71,1.63,.57-.19,1.12-.54,1.62-.94,.02,2.11,.02,4.22-.02,6.33-.02,1.05,.93,2.05,2,2,1.1-.05,1.98-.88,2-2,.07-3.83,.04-7.65-.09-11.48Z"/>
      <path d="M216.62,95.75c-.44-1.38-1.34-2.48-2.52-3.29-2.65-1.83-6.25-1.06-8.48,1.04-.36,.34-.54,.82-.57,1.31-1,2.31-1.68,4.87-.73,7.31,.52,1.34,1.4,2.54,2.69,3.23,1.33,.71,2.8,.87,4.26,.59,2.81-.54,4.67-3.1,5.26-5.75,.32-1.43,.55-3.01,.09-4.44Zm-3.76,2.27s-.01,.14-.02,.22c-.02,.1-.05,.29-.05,.32-.09,.5-.2,1-.36,1.48-.03,.1-.07,.21-.11,.31l-.03,.05c-.11,.2-.24,.39-.35,.6h0c-.04,.05-.07,.1-.11,.14-.14,.15-.29,.29-.44,.43h0c-.07,.05-.14,.1-.21,.14-.09,.05-.18,.1-.27,.15-.04,.02-.21,.08-.26,.11h-.05c-.1,.04-.21,.07-.31,.09-.03,0-.12,.02-.18,.02h-.09c-.08,0-.26,.02-.4,.01-.02-.01-.06-.03-.1-.04-.14-.04-.29-.08-.43-.13-.09-.05-.18-.1-.27-.15-.03-.02-.08-.05-.11-.07-.02-.02-.04-.03-.05-.05-.08-.07-.14-.16-.22-.22h0c-.11-.19-.22-.36-.33-.55-.04-.12-.08-.23-.11-.35-.03-.1-.05-.21-.08-.31-.02-.08-.03-.16-.05-.23l.03,.22c-.1-.18-.04-.59-.04-.8,0-.11,.01-.23,.02-.34,0-.04,0-.06,0-.08,.09-.55,.24-1.1,.42-1.62,.09-.24,.18-.49,.28-.73l.04-.09c.08-.17,.15-.34,.23-.5,0-.02,.01-.03,.02-.05,.11-.07,.21-.14,.33-.2,.08-.05,.17-.09,.26-.13,.23-.08,.45-.15,.69-.2,.03,0,.1-.02,.16-.03h.02c.21,0,.42,0,.64,0h.01c.08,.02,.2,.05,.22,.05,.1,.03,.19,.06,.29,.09h.02c.17,.1,.34,.19,.51,.3,.03,.02,.08,.06,.12,.1l.06,.06c.07,.07,.14,.14,.21,.21,.02,.02,.06,.07,.09,.11h0c.08,.14,.15,.27,.23,.4,0,.01,.01,.02,.02,.03,.02,.08,.05,.17,.05,.19,.03,.1,.05,.2,.07,.29v.09c0,.23,0,.45-.01,.68Z"/>
      <g>
        <path d="M239.68,103.43h0s.02,.04,.03,.05h0s-.02-.03-.03-.05Z"/>
        <path d="M238.16,104.03c-.18,.02-.19,.02-.15,.02,.05,0,.1-.01,.15-.02h0Z"/>
        <path d="M243.72,103.22c-.12-1.17-.69-2.23-1.6-2.98-.85-.71-1.79-1.14-2.83-1.53-.17-.06-.34-.12-.51-.18,0-.01,.01-.03,.02-.04,.05-.08,.11-.16,.16-.24,.15-.17,.31-.32,.48-.48h0c.09-.05,.2-.11,.29-.17,.11-.03,.23-.06,.34-.1h0c.06,0,.14,0,.2,0-.04,0-.07-.02-.1-.03h0s.05,.01,.1,.03c.04,0,.06,0,.06,0,0,0-.02,0-.05,0,.12,.04,.51,.22,.11,.02,.93,.47,2.21,.28,2.74-.72,.48-.91,.28-2.23-.72-2.74-2.07-1.04-4.47-.52-6.08,1.11-1.41,1.43-2.97,4.37-1.07,6.05,.79,.7,1.89,.95,2.86,1.31,.1,.04,.21,.08,.31,.12h.04c.06,.04,.14,.08,.16,.09,.07,.04,.15,.07,.22,.11,.18,.1,.35,.21,.53,.32,.08,.08,.16,.15,.24,.23,0,0,.01,.02,.02,.03-.01-.02-.02-.03-.03-.06,.01,.02,.03,.04,.04,.06,.01,.01,.03,.03,.03,.04h0v.02h0s-.02,.02-.02,.03l-.09,.08c-.1,.05-.23,.13-.25,.15-.38,.14-.78,.22-1.17,.29h-.02s-.11,.02-.15,.02c-.07,0-.14,.02-.21,.02-.29,.03-.58,.04-.87,.05-.26,0-.51-.03-.77-.02-.02,0-.02,0-.03,0h0c-.14-.03-.29-.05-.43-.09-.14-.04-.34-.07-.49-.14l-.04-.02h0c-.26-.82-.98-1.5-1.89-1.45l-.53,.03c-.81,.04-1.51,.47-1.83,1.23-.34,.8-.1,1.53,.41,2.18,1.27,1.62,3.44,2.27,5.42,2.29,1.98,.02,4.44-.31,5.85-1.86,.74-.81,1.25-1.92,1.14-3.04Z"/>
        <polygon points="240.31 97.5 240.3 97.5 240.31 97.5 240.31 97.5 240.31 97.5"/>
      </g>
      <path d="M230.95,95.14c-.15-1.04-1.52-1.7-2.46-1.4-1.14,.37-1.56,1.35-1.4,2.46-.05-.36-.01-.08,0,.1,.01,.16,.02,.32,.03,.48,.02,.37,.01,.75-.01,1.12,0,.1,.02,.4-.04,.48,0,0,.06-.38,.02-.13-.01,.08-.02,.16-.04,.24-.06,.37-.15,.73-.25,1.09-.09,.31-.2,.61-.31,.91l-.02,.05s-.02,.03-.03,.07c-.09,.19-.19,.38-.29,.57-.15,.27-.31,.54-.48,.79-.03,.04-.06,.08-.09,.13-.1,.12-.31,.36-.33,.37-.1,.1-.21,.2-.31,.3-.02,.01-.02,.02-.03,.03h-.01c-.11,.08-.22,.14-.32,.21-.04,.02-.1,.06-.14,.07-.07,.02-.14,.04-.21,.06-.09,0-.2,.01-.27,.02h0c-.06-.02-.24-.08-.32-.1-.08-.04-.17-.09-.2-.1-.02,0-.02-.01-.04-.02-.05-.05-.17-.21-.24-.25-.02-.04-.05-.07-.07-.11,0,0-.02-.04-.03-.07-.04-.18-.09-.36-.13-.53v-.04s-.01-.04-.01-.08c-.02-.21-.03-.41-.05-.62-.05-.89-.05-1.78,0-2.67,.03-.42,.07-.84,.12-1.26v-.04c.02-.12,.04-.24,.06-.36,.04-.24,.09-.48,.13-.72,.2-1.02-.29-2.21-1.4-2.46-.99-.23-2.24,.3-2.46,1.4-.4,2.01-.59,4.07-.46,6.12,.07,1.11,.19,2.18,.68,3.19,.42,.85,1.17,1.6,1.99,2.06,1.73,.97,3.89,.87,5.51-.29,1.62-1.17,2.64-2.86,3.34-4.7,.78-2.03,.88-4.2,.57-6.34Z"/>
    </g>
    <g>
      <path d="M156.58,117.96c-.29-.51-.8-.87-1.37-1.02-.06-.51-.26-.99-.62-1.32-.95-.87-2.19-.8-3.14,0-.93,.78-1.53,1.92-2.07,2.98-.58,1.12-1.08,2.29-1.52,3.48-.85,2.28-1.34,4.64-1.62,7.05-.13,1.16,1.12,2.27,2.22,2.22,1.32-.06,2.07-.98,2.22-2.22,.01-.1,.02-.19,.04-.29,0-.03,.01-.08,.03-.18,.04-.25,.08-.49,.12-.74,0-.02,.01-.05,.01-.07,.39,.11,.8,.13,1.21,.03,.29-.07,.59-.12,.89-.17,.62-.06,1.24-.07,1.85-.03v.09c.07,.46,.12,.93,.17,1.39,.07,.61,.2,1.12,.65,1.57,.38,.38,1.02,.67,1.57,.65,1.09-.05,2.35-.98,2.22-2.22-.42-3.86-.9-7.77-2.86-11.19Zm-4.47,5.4c.07-.2,.15-.4,.23-.6,.02-.05,.15-.36,.18-.45,.19-.43,.39-.86,.6-1.28,.01-.02,.02-.04,.03-.06,.06,.13,.14,.25,.2,.38,.02,.05,.05,.1,.07,.15v.03c.09,.22,.18,.43,.25,.65,.12,.33,.22,.67,.31,1.01-.63,0-1.26,.06-1.88,.16Z"/>
      <path d="M174.87,113.34c-1.16,.05-1.91,.88-2,2-.21,2.51-.78,5.26-1.6,7.84-.24-.48-.5-.95-.73-1.43-.79-1.67-1.42-3.29-2.04-5.15-.27-.81-1.02-1.51-1.93-1.47-.87,.04-1.71,.59-1.93,1.47-.9,3.58-1.56,7.21-2.03,10.88-.13,1.04,1.02,2.04,2,2,1.2-.05,1.86-.88,2-2,.15-1.15,.34-2.36,.56-3.57,.81,1.71,1.71,3.38,2.7,4.99,.72,1.17,2.8,1.43,3.45,0,1.96-4.31,3.15-8.84,3.54-13.56,.09-1.05-.98-2.05-2-2Z"/>
      <path d="M190.86,111.89c-1.01-.54-2.11-.21-2.74,.72-.16,.23-.32,.46-.48,.68-.07,.1-.15,.2-.22,.31-.01,.02-.05,.06-.08,.11-.29,.39-.62,.77-.94,1.14-.36,.42-.74,.83-1.13,1.22-.18,.18-.36,.36-.54,.53l-.02,.02c-.11-.11-.23-.24-.25-.26-.09-.09-.17-.19-.25-.28-.13-.19-.25-.38-.37-.58-.04-.08-.08-.15-.12-.23-.03-.06-.06-.12-.08-.18-.06-.14-.04-.08,.07,.18-.12,.01-.34-1.27-.36-1.39-.06-.46-.54-.97-.92-1.2-.43-.25-1.06-.36-1.54-.2-.48,.16-.95,.46-1.2,.92-.27,.51-.28,.98-.2,1.54,.19,1.39,.84,2.66,1.71,3.75,.32,.4,.69,.78,1.11,1.11-.02,.11-.04,.23-.04,.35-.08,2.23-.2,4.46-.38,6.68-.08,1.05,.98,2.05,2,2,1.15-.05,1.91-.88,2-2,.17-2.13,.29-4.26,.37-6.39,.48-.26,.9-.62,1.31-1.01,.47-.46,.93-.93,1.37-1.42,.96-1.07,1.84-2.2,2.65-3.39,.59-.87,.19-2.26-.72-2.74Z"/>
      <path d="M204.93,111.87c-1-.12-1.75,.46-2.1,1.37-.13,.33,.01,.03-.14,.32-.11,.22-.22,.44-.35,.65-.11,.18-.22,.36-.34,.54-.13,.19-.15,.22-.21,.29-.58,.71-1.12,1.15-1.75,1.6,0,0-.09,.06-.17,.11-.05-.05-.09-.09-.13-.14,0,0-.22-.31-.24-.35-.54-.83-.81-1.46-1.06-2.38-.2-.72-.67-1.12-1.22-1.28-.23-.22-.5-.39-.8-.46-1.08-.25-1.99,.33-2.35,1.34-.72,1.98-1.16,4.02-1.42,6.12-.25,2.04-.27,3.84-.76,5.75-.25,.97,.32,2.12,1.34,2.35,1,.23,2.09-.3,2.35-1.34,.53-2.07,.62-4.2,.85-6.31,.04-.4,.11-.82,.18-1.24,1.05,1.36,2.48,2.25,4.3,1.64,.62-.21,1.21-.55,1.76-.96-.03,2.53-.07,5.07-.1,7.6-.01,1.03,.89,1.91,1.91,1.91s1.9-.88,1.91-1.91c.06-4.45,.11-8.89,.17-13.34,.01-.94-.74-1.77-1.66-1.88Z"/>
      <path d="M222.53,117.18c-.98-1.47-2.41-2.73-4.16-3.15-1.54-.37-3.13-.13-4.45,.68-.71-.33-1.6-.28-2.15,.34-1.98,2.19-2.66,5.48-2.78,8.37-.06,1.47,.2,3.05,1.09,4.26,1.06,1.46,2.67,2.19,4.44,2.32,1.74,.13,3.5-.52,5.04-1.26,1.39-.67,2.66-1.67,3.43-3.02,1.48-2.6,1.19-6.06-.45-8.52Zm-2.4,5.3s-.07,.41-.09,.48c-.03,.11-.06,.23-.1,.34,0,.03-.08,.21-.11,.28-.03,.06-.07,.13-.08,.14-.06,.1-.11,.2-.18,.3-.01,.02-.07,.1-.11,.16-.05,.06-.13,.14-.14,.16-.43,.45-.58,.53-1.14,.85-.56,.31-.84,.43-1.35,.61-.27,.1-.55,.19-.83,.26-.14,.04-.28,.07-.42,.1-.04,0-.24,.03-.29,.04-.26,.02-.51,.02-.77,0-.41-.03-.15-.03-.07,0-.13-.03-.25-.05-.37-.09-.09-.03-.19-.06-.28-.1-.04-.02-.13-.07-.15-.08-.08-.05-.17-.11-.25-.16-.02-.03-.11-.12-.17-.19,.05,.04-.09-.16-.18-.3,0-.02-.13-.33-.16-.43-.02-.08-.07-.48-.08-.47-.02-.26-.03-.52-.03-.78,0-.27,.03-.55,.05-.82,0-.02,.01-.11,.02-.18,.01-.08,.04-.28,.04-.31,.09-.59,.2-1.18,.34-1.76,.13-.56,.28-1.13,.5-1.67,.02-.05,.06-.12,.07-.13,.04-.08,.08-.15,.12-.23,.62,.16,1.29,0,1.81-.47l.08-.07c.08-.05,.16-.1,.25-.15l.05-.03c.11-.03,.21-.06,.32-.1l.1-.03c.09,0,.19-.02,.28-.02,.12,0,.24,0,.36,0,.04,0,.06,0,.09,0,.03,0,.06,.02,.12,.04,.06,.02,.48,.18,.47,.16,.19,.1,.38,.21,.56,.33,.03,.02,.06,.04,.07,.05,.09,.08,.19,.16,.27,.25,.09,.09,.17,.18,.26,.27,0,0,.19,.24,.22,.27,.12,.18,.25,.37,.35,.56,.05,.08,.2,.41,.22,.45,.08,.2,.14,.4,.2,.6,.03,.12,.06,.23,.09,.35,0,.02,.03,.15,.05,.25,0,.09,.04,.33,.03,.32,0,.12,.01,.24,.01,.36,0,.2-.01,.4-.03,.6Z"/>
      <path d="M239,127.25c-1.45-.62-2.84-1.38-4.13-2.29-.12-.09-.24-.18-.36-.26,.01,0,.03-.01,.04-.02,1.55-.9,2.38-2.57,1.91-4.34-.39-1.46-1.6-2.52-2.86-3.26-1.37-.8-3.06-1.29-4.62-.75-.2,.07-.38,.17-.55,.29-1.01,.09-1.95,.9-1.9,1.99,.16,3.73,.1,7.47-.16,11.2-.07,1.05,.97,2.05,2,2,1.15-.05,1.92-.88,2-2,.07-1.07,.13-2.14,.17-3.21,.08,.07,.15,.13,.23,.2,.67,.58,1.36,1.12,2.08,1.63,1.29,.91,2.68,1.67,4.13,2.29,.96,.41,2.19,.32,2.74-.72,.45-.86,.31-2.3-.72-2.74Zm-6.97-6.44c.06,.04,.28,.23,.26,.21,.08,.08,.17,.16,.21,.19h0c-.11,.07-.22,.14-.34,.2-.03,.02-.05,.02-.07,.03-.03,0-.08,.02-.14,.05-.25,.08-.49,.17-.75,.24-.19,.05-.38,.1-.57,.14h-.03c0-.58-.02-1.17-.04-1.76,.1,.03,.43,.14,.47,.14,.13,.06,.26,.12,.39,.19,.21,.12,.41,.24,.61,.38Z"/>
      <path d="M252.08,129.72c-2.14-.04-4.27,.05-6.4,.25,.02-.7,.03-1.4,.03-2.1,.43-.09,.87-.17,1.31-.23,1.35-.17,2.71-.23,4.07-.16,1.01,.05,1.97-.92,1.92-1.92-.05-1.08-.84-1.87-1.92-1.92-1.81-.08-3.64,.04-5.43,.34-.03-.74-.05-1.48-.1-2.22,2.05,.03,4.11,.05,6.16,.08,1.01,.01,1.97-.89,1.92-1.92-.05-1.05-.84-1.91-1.92-1.92l-7.6-.09c-.48,0-.94,.2-1.29,.52-.7,.29-1.26,.95-1.2,1.76,.29,4,.33,8.02,.12,12.03-.05,1.01,.92,1.97,1.92,1.92,.4-.02,.77-.14,1.06-.34,.18,.05,.36,.08,.56,.07,2.25-.22,4.52-.31,6.78-.28,1.01,.02,1.97-.9,1.92-1.92-.05-1.06-.84-1.9-1.92-1.92Z"/>
    </g>
  </g>
  <g>
    <path d="M300.69,30.5c-1.02,6.41-2.26,12.78-3.73,19.1-.15,.63,.82,.89,.96,.27,1.47-6.32,2.72-12.69,3.73-19.1,.1-.63-.86-.9-.96-.27Z"/>
    <path d="M299.11,30.25v-.02c0-.07-.01-.13-.04-.19-.02-.06-.05-.12-.1-.16-.05-.05-.1-.08-.16-.1-.06-.03-.12-.05-.19-.04h-.07s-.04-.02-.07-.02c-.08-.02-.17-.03-.25-.03-.06,0-.12,.01-.18,.02-.02,0-.04,0-.07,.01-.17,.05-.29,.13-.42,.24-.03,.03-.06,.06-.09,.09-.05,.06-.1,.12-.14,.2-.07,.15-.12,.31-.12,.48,0,.03,.01,.05,.02,.08-.25,1.16-.49,2.33-.73,3.5-.61,2.47-1.21,4.94-1.74,7.42-.39,1.82-.74,3.65-1.05,5.49-.12,.73-.45,1.69-.3,2.42,.12,.6,.69,.83,1.22,.6,.09-.04,.14-.09,.18-.15,.13-.12,.2-.3,.17-.48,.04-.05,.07-.12,.09-.19,1.47-6.27,2.82-12.57,4.07-18.89,.02-.1,0-.18-.02-.26Z"/>
    <path d="M295.5,29.88c0-.07-.02-.13-.06-.19-.03-.06-.07-.1-.13-.14-.05-.04-.1-.07-.17-.09l-.13-.02c-.09,0-.17,.02-.25,.07l-.1,.08c-.06,.06-.1,.14-.13,.22l-.14,.42c-.02,.07-.02,.13,0,.2,0,.04,.02,.07,.04,.11-.02,.04-.04,.07-.05,.12-1.06,6.21-2.12,12.42-3.18,18.62-.11,.63,.86,.9,.96,.27,1-5.85,2-11.7,3-17.54,.02-.03,.04-.06,.05-.1,.14-.54,.22-1.1,.24-1.66l.06-.17c.02-.07,.02-.13,0-.2Z"/>
    <path d="M303.56,30.62s-.06-.05-.1-.07c-.06-.03-.12-.05-.19-.04-.05,0-.09,.02-.14,.03-.24-.07-.51,.01-.56,.33-.98,6.48-2.26,12.92-3.85,19.28-.06,.25,.06,.44,.23,.54,.06,.47,.83,.62,.98,.07,1.78-6.42,3.14-12.94,4.07-19.54,.05-.32-.19-.55-.43-.6Z"/>
    <path d="M292.56,28.62s-.06-.05-.1-.07c-.06-.03-.12-.05-.19-.04-.05,0-.09,.02-.14,.03-.24-.07-.51,.01-.56,.33-.98,6.48-2.26,12.92-3.85,19.28-.06,.25,.06,.44,.23,.54,.06,.47,.83,.62,.98,.07,1.78-6.42,3.14-12.94,4.07-19.54,.05-.32-.19-.55-.43-.6Z"/>
    <path d="M292.53,29.01c0-.07-.02-.13-.05-.19-.03-.06-.07-.11-.12-.15-.05-.05-.1-.08-.17-.1l-.13-.02c-.09,0-.18,.01-.26,.06l-.1,.07c-.07,.06-.11,.13-.14,.21l-.16,.42c-.02,.07-.03,.13-.02,.2,0,.04,.02,.08,.03,.11-.02,.04-.04,.07-.05,.12-1.37,6.15-2.74,12.29-4.11,18.44-.14,.62,.81,.94,.95,.31,1.29-5.79,2.58-11.58,3.87-17.37,.02-.03,.04-.06,.06-.1,.17-.53,.28-1.09,.32-1.65l.06-.16c.02-.07,.03-.13,.02-.2Z"/>
  </g>
  <g>
    <path d="M286.58,27.5c-1.02,6.41-2.26,12.78-3.73,19.1-.15,.63,.82,.89,.96,.27,1.47-6.32,2.72-12.69,3.73-19.1,.1-.63-.86-.9-.96-.27Z"/>
    <path d="M285,27.25v-.02c0-.07-.01-.13-.04-.19-.02-.06-.05-.12-.1-.16-.05-.05-.1-.08-.16-.1-.06-.03-.12-.05-.19-.04h-.07s-.04-.02-.07-.02c-.08-.02-.17-.03-.25-.03-.06,0-.12,.01-.18,.02-.02,0-.04,0-.07,.01-.17,.05-.29,.13-.42,.24-.03,.03-.06,.06-.09,.09-.05,.06-.1,.12-.14,.2-.07,.15-.12,.31-.12,.48,0,.03,.01,.05,.02,.08-.25,1.16-.49,2.33-.73,3.5-.61,2.47-1.21,4.94-1.74,7.42-.39,1.82-.74,3.65-1.05,5.49-.12,.73-.45,1.69-.3,2.42,.12,.6,.69,.83,1.22,.6,.09-.04,.14-.09,.18-.15,.13-.12,.2-.3,.17-.48,.04-.05,.07-.12,.09-.19,1.47-6.27,2.82-12.57,4.07-18.89,.02-.1,0-.18-.02-.26Z"/>
    <path d="M281.39,26.88c0-.07-.02-.13-.06-.19-.03-.06-.07-.1-.13-.14-.05-.04-.1-.07-.17-.09l-.13-.02c-.09,0-.17,.02-.25,.07l-.1,.08c-.06,.06-.1,.14-.13,.22l-.14,.42c-.02,.07-.02,.13,0,.2,0,.04,.02,.07,.04,.11-.02,.04-.04,.07-.05,.12-1.06,6.21-2.12,12.42-3.18,18.62-.11,.63,.86,.9,.96,.27,1-5.85,2-11.7,3-17.54,.02-.03,.04-.06,.05-.1,.14-.54,.22-1.1,.24-1.66l.06-.17c.02-.07,.02-.13,0-.2Z"/>
    <path d="M289.45,27.62s-.06-.05-.1-.07c-.06-.03-.12-.05-.19-.04-.05,0-.09,.02-.14,.03-.24-.07-.51,.01-.56,.33-.98,6.48-2.26,12.92-3.85,19.28-.06,.25,.06,.44,.23,.54,.06,.47,.83,.62,.98,.07,1.78-6.42,3.14-12.94,4.07-19.54,.05-.32-.19-.55-.43-.6Z"/>
    <path d="M278.45,25.62s-.06-.05-.1-.07c-.06-.03-.12-.05-.19-.04-.05,0-.09,.02-.14,.03-.24-.07-.51,.01-.56,.33-.98,6.48-2.26,12.92-3.85,19.28-.06,.25,.06,.44,.23,.54,.06,.47,.83,.62,.98,.07,1.78-6.42,3.14-12.94,4.07-19.54,.05-.32-.19-.55-.43-.6Z"/>
    <path d="M278.43,26.01c0-.07-.02-.13-.05-.19-.03-.06-.07-.11-.12-.15-.05-.05-.1-.08-.17-.1l-.13-.02c-.09,0-.18,.01-.26,.06l-.1,.07c-.07,.06-.11,.13-.14,.21l-.16,.42c-.02,.07-.03,.13-.02,.2,0,.04,.02,.08,.03,.11-.02,.04-.04,.07-.05,.12-1.37,6.15-2.74,12.29-4.11,18.44-.14,.62,.81,.94,.95,.31,1.29-5.79,2.58-11.58,3.87-17.37,.02-.03,.04-.06,.06-.1,.17-.53,.28-1.09,.32-1.65l.06-.16c.02-.07,.03-.13,.02-.2Z"/>
  </g>
</svg>