<?xml version="1.0" encoding="UTF-8"?>
<svg id="Headwear" xmlns="http://www.w3.org/2000/svg" xmlns:xlink="http://www.w3.org/1999/xlink" viewBox="0 0 500 500">
  <defs>
    <style>
      .cls-1 {
        fill: url(#linear-gradient);
      }

      .cls-2, .cls-3 {
        fill: #fbfaf9;
      }

      .cls-3 {
        stroke: #000;
        stroke-miterlimit: 10;
      }
    </style>
    <linearGradient id="linear-gradient" x1="221.77" y1="98.61" x2="275.41" y2="98.61" gradientTransform="matrix(1, 0, 0, 1, 0, 0)" gradientUnits="userSpaceOnUse">
      <stop offset="0" stop-color="#caedc1"/>
      <stop offset="1" stop-color="#8de8f1"/>
    </linearGradient>
  </defs>
  <g id="_" data-name="5">
    <path class="cls-1" d="M273.22,117.68c-1.22-4.48-1.9-9.12-2.86-13.67-3.44-16.22-7.7-32.34-14.03-47.7-2.49,4.35-4.96,8.71-7.38,13.09-8.22,14.85-16.08,29.9-23.55,45.14-1.61,3.28-4.16,6.48-3.52,10.35,.61,3.7,3.33,6.68,6.49,8.52,7.72,4.48,16.73,7.31,25.68,7.47,7.6,.13,22.2,.43,21.34-10.59-.33-4.26-1.03-8.48-2.15-12.61Z"/>
    <g>
      <path class="cls-2" d="M237.27,115.06c.1-.31,.15-.63,.14-.97-.04-.87-.39-1.57-.94-2.22-.35-.42-.84-.78-1.34-1.01-.68-.32-1.3-.48-2.04-.55-.25-.02-.51-.02-.76,0-.6-.04-1.18,.08-1.76,.34-.62,.27-1.08,.76-1.48,1.29-.61,.81-.82,1.91-.62,2.91,.16,1.28,.88,2.38,2.03,3.01,.09,.05,.2,.09,.3,.14,.07,.04,.13,.09,.2,.13,.83,.44,1.69,.63,2.59,.6,.07,0,.15,.02,.22,.02,.96,0,1.8-.36,2.41-.99,.3-.27,.55-.6,.71-.96,.26-.57,.38-1.15,.35-1.75Z"/>
      <path class="cls-2" d="M250.66,131.29c.1-.31,.15-.63,.14-.97-.04-.87-.39-1.57-.94-2.22-.35-.42-.84-.78-1.34-1.01-.68-.32-1.3-.48-2.04-.55-.25-.02-.51-.02-.76,0-.6-.04-1.18,.08-1.76,.34-.62,.27-1.08,.76-1.48,1.29-.61,.81-.82,1.91-.62,2.91,.16,1.28,.88,2.38,2.03,3.01,.09,.05,.2,.09,.3,.14,.07,.04,.13,.09,.2,.13,.83,.44,1.69,.63,2.59,.6,.07,0,.15,.02,.22,.02,.96,0,1.8-.36,2.41-.99,.3-.27,.55-.6,.71-.96,.26-.57,.38-1.15,.35-1.75Z"/>
      <path class="cls-2" d="M267,118.66c.1-.31,.15-.63,.14-.97-.04-.87-.39-1.57-.94-2.22-.35-.42-.84-.78-1.34-1.01-.68-.32-1.3-.48-2.04-.55-.25-.02-.51-.02-.76,0-.6-.04-1.18,.08-1.76,.34-.62,.27-1.08,.76-1.48,1.29-.61,.81-.82,1.91-.62,2.91,.16,1.28,.88,2.38,2.03,3.01,.09,.05,.2,.09,.3,.14,.07,.04,.13,.09,.2,.13,.83,.44,1.69,.63,2.59,.6,.07,0,.15,.02,.22,.02,.96,0,1.8-.36,2.41-.99,.3-.27,.55-.6,.71-.96,.26-.57,.38-1.15,.35-1.75Z"/>
      <path class="cls-2" d="M252.14,106.03c.1-.31,.15-.63,.14-.97-.04-.87-.39-1.57-.94-2.22-.35-.42-.84-.78-1.34-1.01-.68-.32-1.3-.48-2.04-.55-.25-.02-.51-.02-.76,0-.6-.04-1.18,.08-1.76,.34-.62,.27-1.08,.76-1.48,1.29-.61,.81-.82,1.91-.62,2.91,.16,1.28,.88,2.38,2.03,3.01,.09,.05,.2,.09,.3,.14,.07,.04,.13,.09,.2,.13,.83,.44,1.69,.63,2.59,.6,.07,0,.15,.02,.22,.02,.96,0,1.8-.36,2.41-.99,.3-.27,.55-.6,.71-.96,.26-.57,.38-1.15,.35-1.75Z"/>
      <path class="cls-2" d="M264.77,90.42c.1-.31,.15-.63,.14-.97-.04-.87-.39-1.57-.94-2.22-.35-.42-.84-.78-1.34-1.01-.68-.32-1.3-.48-2.04-.55-.25-.02-.51-.02-.76,0-.6-.04-1.18,.08-1.76,.34-.62,.27-1.08,.76-1.48,1.29-.61,.81-.82,1.91-.62,2.91,.16,1.28,.88,2.38,2.03,3.01,.09,.05,.2,.09,.3,.14,.07,.04,.13,.09,.2,.13,.83,.44,1.69,.63,2.59,.6,.07,0,.15,.02,.22,.02,.96,0,1.8-.36,2.41-.99,.3-.27,.55-.6,.71-.96,.26-.57,.38-1.15,.35-1.75Z"/>
      <path class="cls-2" d="M258.83,72.59c.1-.31,.15-.63,.14-.97-.04-.87-.39-1.57-.94-2.22-.35-.42-.84-.78-1.34-1.01-.68-.32-1.3-.48-2.04-.55-.25-.02-.51-.02-.76,0-.6-.04-1.18,.08-1.76,.34-.62,.27-1.08,.76-1.48,1.29-.61,.81-.82,1.91-.62,2.91,.16,1.28,.88,2.38,2.03,3.01,.09,.05,.2,.09,.3,.14,.07,.04,.13,.09,.2,.13,.83,.44,1.69,.63,2.59,.6,.07,0,.15,.02,.22,.02,.96,0,1.8-.36,2.41-.99,.3-.27,.55-.6,.71-.96,.26-.57,.38-1.15,.35-1.75Z"/>
      <path class="cls-2" d="M246.94,86.71c.1-.31,.15-.63,.14-.97-.04-.87-.39-1.57-.94-2.22-.35-.42-.84-.78-1.34-1.01-.68-.32-1.3-.48-2.04-.55-.25-.02-.51-.02-.76,0-.6-.04-1.18,.08-1.76,.34-.62,.27-1.08,.76-1.48,1.29-.61,.81-.82,1.91-.62,2.91,.16,1.28,.88,2.38,2.03,3.01,.09,.05,.2,.09,.3,.14,.07,.04,.13,.09,.2,.13,.83,.44,1.69,.63,2.59,.6,.07,0,.15,.02,.22,.02,.96,0,1.8-.36,2.41-.99,.3-.27,.55-.6,.71-.96,.26-.57,.38-1.15,.35-1.75Z"/>
      <path class="cls-2" d="M271.46,136.49c.1-.31,.15-.63,.14-.97-.04-.87-.39-1.57-.94-2.22-.35-.42-.84-.78-1.34-1.01-.68-.32-1.3-.48-2.04-.55-.25-.02-.51-.02-.76,0-.6-.04-1.18,.08-1.76,.34-.62,.27-1.08,.76-1.48,1.29-.61,.81-.82,1.91-.62,2.91,.16,1.28,.88,2.38,2.03,3.01,.09,.05,.2,.09,.3,.14,.07,.04,.13,.09,.2,.13,.83,.44,1.69,.63,2.59,.6,.07,0,.15,.02,.22,.02,.96,0,1.8-.36,2.41-.99,.3-.27,.55-.6,.71-.96,.26-.57,.38-1.15,.35-1.75Z"/>
    </g>
    <path d="M274.87,115.16c-2.9-15.11-6.24-30.18-11.02-44.82-1.89-5.79-4.02-11.5-6.4-17.1-.34-.79-1.55-.66-1.92,0-10.12,17.58-19.73,35.45-28.79,53.59-2.64,5.29-6.91,10.74-7.12,16.88-.22,6.37,5.73,11.56,10.98,14.09,5.01,2.41,10.39,4.06,15.89,4.91,2.37,.36,4.9,.84,7.27,.98,4.16,.25,8.85,.17,12.91-.89,3-.78,6.84-1.98,9.06-4.25,1.48-1.5,2-3.38,2.06-5.35,.07-2.08-.36-4.25-.71-6.18-.72-3.95-1.45-7.9-2.2-11.85Zm-20.84,25.72c-8.95-.15-17.96-2.98-25.68-7.47-3.15-1.83-5.88-4.82-6.49-8.52-.64-3.87,1.91-7.07,3.52-10.35,7.48-15.24,15.33-30.29,23.55-45.14,2.43-4.38,4.89-8.74,7.38-13.09,6.32,15.36,10.59,31.48,14.03,47.7,.96,4.54,1.65,9.19,2.86,13.67,1.12,4.12,1.82,8.35,2.15,12.61,.86,11.02-13.73,10.72-21.34,10.59Z"/>
    <path class="cls-3" d="M261.81,51.88l.03-.02h.02c.18-.13,.35-.25,.53-.36,.18-.11,.36-.21,.55-.31,.09-.05,.19-.1,.28-.14,.02-.01,.14-.06,.19-.08,.07-.02,.15-.06,.15-.06,.08-.03,.16-.06,.24-.08,.2-.07,.4-.13,.61-.18,.21-.05,.41-.09,.62-.13h.04c.1-.02,.21-.03,.31-.04,.42-.03,.84-.02,1.26,.01h.06c.08,.02,.16,.03,.23,.04,.23,.04,.45,.1,.68,.16,.75,.21,1.67-.26,1.85-1.05,.18-.8-.24-1.62-1.05-1.85-2.63-.75-5.49-.21-7.76,1.25,.24-1.15,.54-2.29,.89-3.41,.27-.88,.46-1.41,.89-2.14,.39-.66,.74-1.04,1.42-1.38,.72-.36,.93-1.38,.54-2.05-.43-.74-1.33-.9-2.05-.54-1.9,.96-2.9,2.93-3.55,4.86-.39,1.17-.71,2.36-.97,3.57-1.21-3.31-3.39-6.2-6.38-8.24-.67-.46-1.66-.13-2.05,.54-.43,.74-.13,1.59,.54,2.05,1.52,1.04,2.91,2.52,3.9,4.13,.45,.74,.81,1.47,1.09,2.18-2.19-.83-4.67-.93-6.87-.13-.73,.27-1.31,1.03-1.05,1.85,.23,.72,1.06,1.34,1.85,1.05,.38-.14,.76-.25,1.15-.33,.09-.02,.17-.03,.26-.05h.06c.2-.03,.4-.05,.6-.06,.4-.02,.8,0,1.2,.03h.06c.09,.02,.18,.03,.26,.05,.2,.04,.39,.08,.59,.13,.16,.04,.3,.1,.46,.15-.48,.02-.96,.08-1.44,.18-1.78,.39-3.29,1.43-4.39,2.87-.48,.63-.12,1.71,.54,2.05,.79,.42,1.54,.13,2.05-.54-.1,.13-.13,.17,0,.02,.06-.07,.11-.13,.17-.19,.11-.11,.22-.22,.34-.32,.03-.02,.08-.06,.13-.1-.05,.04-.1,.06,.01-.02l.03-.02s.02-.02,.03-.02c0,0-.01,.01-.02,.02,.11-.08,.23-.16,.35-.23,.15-.09,.3-.17,.45-.25,.06-.03,.12-.05,.18-.08,.31-.11,.61-.21,.93-.28,.07-.02,.19-.05,.29-.07,0,0,0,0,.08,0,.09,0,.17-.01,.26-.02,.32-.02,.63,0,.94,.02-.02,0-.04,0-.05-.01,.01,0,.03,0,.05,.01,.01,0,.03,0,.04,0,.15,.01,.07,.02,0,0,.06,.01,.12,.02,.17,.03,.05,.01,.1,.03,.15,.04-1.06,.8-1.95,1.85-2.54,3.02-.18,.36-.26,.76-.15,1.16,.1,.35,.36,.73,.69,.9,.35,.18,.77,.28,1.16,.15,.36-.12,.72-.34,.9-.69,.18-.36,.4-.7,.64-1.03,.24-.29,.5-.57,.78-.82-.08,.43-.22,.87-.34,1.26-.09,.29-.19,.58-.31,.86l-.05,.12c-.07,.14-.14,.29-.21,.43-.29,.57-.64,1.1-1.03,1.61-.48,.63-.12,1.71,.54,2.05,.79,.42,1.54,.13,2.05-.54,1.17-1.54,1.93-3.38,2.27-5.28,.03,.07,.07,.13,.1,.2,.17,.43,.31,.87,.4,1.32,.17,.77,1.1,1.29,1.85,1.05,.81-.26,1.22-1.02,1.05-1.85-.24-1.13-.72-2.21-1.35-3.19,.14,0,.28-.01,.42-.02,.39,0,.79,.02,1.18,.06h.05c.09,.02,.19,.04,.28,.05,.17,.03,.34,.07,.51,.11,.36,.09,.71,.19,1.06,.32,.09,.03,.18,.07,.27,.1l.05,.02c.15,.07,.31,.14,.45,.23,.11,.06,.2,.13,.3,.19-.01,0,.22,.19,.26,.23h.01s.04,.08,.06,.11h0l.02,.08c.11,.73,.68,1.41,1.48,1.37,.77-.03,1.56-.66,1.5-1.5-.15-2.27-2.3-3.37-4.24-3.93-1.07-.31-2.19-.44-3.31-.42,.02-.02,.04-.05,.07-.07,.06-.06,.13-.11,.19-.16Z"/>
  </g>
</svg>