<?xml version="1.0" encoding="UTF-8"?>
<svg id="Headwear" xmlns="http://www.w3.org/2000/svg" xmlns:xlink="http://www.w3.org/1999/xlink" viewBox="0 0 500 500">
  <defs>
    <style>
      .cls-1 {
        fill: url(#linear-gradient);
      }

      .cls-2 {
        fill: #fbfaf9;
      }
    </style>
    <linearGradient id="linear-gradient" x1="230.44" y1="66.13" x2="291.31" y2="104.93" gradientTransform="matrix(1, 0, 0, 1, 0, 0)" gradientUnits="userSpaceOnUse">
      <stop offset="0" stop-color="#f5a2ac"/>
      <stop offset=".49" stop-color="#e97a91"/>
      <stop offset="1" stop-color="#d56581"/>
    </linearGradient>
  </defs>
  <g id="_" data-name="4">
    <path class="cls-1" d="M284.76,104.96c-1.64-6.02-2.56-12.28-3.85-18.39-4.63-21.83-10.37-43.52-18.88-64.2-3.35,5.85-6.67,11.72-9.94,17.61-11.07,19.98-21.64,40.25-31.7,60.76-2.16,4.41-5.59,8.73-4.74,13.93,.82,4.97,4.48,9,8.73,11.46,10.38,6.03,22.51,9.84,34.56,10.05,10.23,.18,29.87,.57,28.71-14.26-.45-5.73-1.39-11.41-2.89-16.97Z"/>
    <g>
      <path class="cls-2" d="M236.37,101.44c.14-.41,.21-.85,.18-1.3-.06-1.16-.52-2.11-1.26-2.99-.47-.57-1.14-1.04-1.81-1.35-.92-.42-1.74-.65-2.75-.74-.34-.03-.68-.02-1.02,.01-.81-.06-1.58,.11-2.37,.46-.83,.36-1.45,1.02-1.99,1.74-.82,1.09-1.1,2.58-.83,3.92,.21,1.73,1.18,3.2,2.74,4.05,.12,.07,.27,.12,.4,.19,.09,.05,.17,.12,.27,.17,1.12,.59,2.28,.85,3.49,.81,.1,0,.2,.02,.29,.02,1.29,.01,2.42-.49,3.25-1.33,.4-.37,.74-.8,.96-1.29,.35-.77,.51-1.55,.47-2.36Z"/>
      <path class="cls-2" d="M254.39,123.28c.14-.41,.21-.85,.18-1.3-.06-1.16-.52-2.11-1.26-2.99-.47-.57-1.14-1.04-1.81-1.35-.92-.42-1.74-.65-2.75-.74-.34-.03-.68-.02-1.02,.01-.81-.06-1.58,.11-2.37,.46-.83,.36-1.45,1.02-1.99,1.74-.82,1.09-1.1,2.58-.83,3.92,.21,1.73,1.18,3.2,2.74,4.05,.12,.07,.27,.12,.4,.19,.09,.05,.17,.12,.27,.17,1.12,.59,2.28,.85,3.49,.81,.1,0,.2,.02,.29,.02,1.29,.01,2.42-.49,3.25-1.33,.4-.37,.74-.8,.96-1.29,.35-.77,.51-1.55,.47-2.36Z"/>
      <path class="cls-2" d="M276.39,106.28c.14-.41,.21-.85,.18-1.3-.06-1.16-.52-2.11-1.26-2.99-.47-.57-1.14-1.04-1.81-1.35-.92-.42-1.74-.65-2.75-.74-.34-.03-.68-.02-1.02,.01-.81-.06-1.58,.11-2.37,.46-.83,.36-1.45,1.02-1.99,1.74-.82,1.09-1.1,2.58-.83,3.92,.21,1.73,1.18,3.2,2.74,4.05,.12,.07,.27,.12,.4,.19,.09,.05,.17,.12,.27,.17,1.12,.59,2.28,.85,3.49,.81,.1,0,.2,.02,.29,.02,1.29,.01,2.42-.49,3.25-1.33,.4-.37,.74-.8,.96-1.29,.35-.77,.51-1.55,.47-2.36Z"/>
      <path class="cls-2" d="M256.39,89.28c.14-.41,.21-.85,.18-1.3-.06-1.16-.52-2.11-1.26-2.99-.47-.57-1.14-1.04-1.81-1.35-.92-.42-1.74-.65-2.75-.74-.34-.03-.68-.02-1.02,.01-.81-.06-1.58,.11-2.37,.46-.83,.36-1.45,1.02-1.99,1.74-.82,1.09-1.1,2.58-.83,3.92,.21,1.73,1.18,3.2,2.74,4.05,.12,.07,.27,.12,.4,.19,.09,.05,.17,.12,.27,.17,1.12,.59,2.28,.85,3.49,.81,.1,0,.2,.02,.29,.02,1.29,.01,2.42-.49,3.25-1.33,.4-.37,.74-.8,.96-1.29,.35-.77,.51-1.55,.47-2.36Z"/>
      <path class="cls-2" d="M273.39,68.28c.14-.41,.21-.85,.18-1.3-.06-1.16-.52-2.11-1.26-2.99-.47-.57-1.14-1.04-1.81-1.35-.92-.42-1.74-.65-2.75-.74-.34-.03-.68-.02-1.02,.01-.81-.06-1.58,.11-2.37,.46-.83,.36-1.45,1.02-1.99,1.74-.82,1.09-1.1,2.58-.83,3.92,.21,1.73,1.18,3.2,2.74,4.05,.12,.07,.27,.12,.4,.19,.09,.05,.17,.12,.27,.17,1.12,.59,2.28,.85,3.49,.81,.1,0,.2,.02,.29,.02,1.29,.01,2.42-.49,3.25-1.33,.4-.37,.74-.8,.96-1.29,.35-.77,.51-1.55,.47-2.36Z"/>
      <path class="cls-2" d="M265.39,44.28c.14-.41,.21-.85,.18-1.3-.06-1.16-.52-2.11-1.26-2.99-.47-.57-1.14-1.04-1.81-1.35-.92-.42-1.74-.65-2.75-.74-.34-.03-.68-.02-1.02,.01-.81-.06-1.58,.11-2.37,.46-.83,.36-1.45,1.02-1.99,1.74-.82,1.09-1.1,2.58-.83,3.92,.21,1.73,1.18,3.2,2.74,4.05,.12,.07,.27,.12,.4,.19,.09,.05,.17,.12,.27,.17,1.12,.59,2.28,.85,3.49,.81,.1,0,.2,.02,.29,.02,1.29,.01,2.42-.49,3.25-1.33,.4-.37,.74-.8,.96-1.29,.35-.77,.51-1.55,.47-2.36Z"/>
      <path class="cls-2" d="M249.39,63.28c.14-.41,.21-.85,.18-1.3-.06-1.16-.52-2.11-1.26-2.99-.47-.57-1.14-1.04-1.81-1.35-.92-.42-1.74-.65-2.75-.74-.34-.03-.68-.02-1.02,.01-.81-.06-1.58,.11-2.37,.46-.83,.36-1.45,1.02-1.99,1.74-.82,1.09-1.1,2.58-.83,3.92,.21,1.73,1.18,3.2,2.74,4.05,.12,.07,.27,.12,.4,.19,.09,.05,.17,.12,.27,.17,1.12,.59,2.28,.85,3.49,.81,.1,0,.2,.02,.29,.02,1.29,.01,2.42-.49,3.25-1.33,.4-.37,.74-.8,.96-1.29,.35-.77,.51-1.55,.47-2.36Z"/>
      <path class="cls-2" d="M282.39,130.28c.14-.41,.21-.85,.18-1.3-.06-1.16-.52-2.11-1.26-2.99-.47-.57-1.14-1.04-1.81-1.35-.92-.42-1.74-.65-2.75-.74-.34-.03-.68-.02-1.02,.01-.81-.06-1.58,.11-2.37,.46-.83,.36-1.45,1.02-1.99,1.74-.82,1.09-1.1,2.58-.83,3.92,.21,1.73,1.18,3.2,2.74,4.05,.12,.07,.27,.12,.4,.19,.09,.05,.17,.12,.27,.17,1.12,.59,2.28,.85,3.49,.81,.1,0,.2,.02,.29,.02,1.29,.01,2.42-.49,3.25-1.33,.4-.37,.74-.8,.96-1.29,.35-.77,.51-1.55,.47-2.36Z"/>
    </g>
    <g>
      <path d="M282.44,111.4c-.3-1.25-2.23-.72-1.93,.53,1.09,4.55,1.7,9.19,1.83,13.87,.03,1.28,2.03,1.29,2,0-.13-4.85-.77-9.68-1.9-14.41Z"/>
      <path d="M280.32,119.62c-.1-.51-.74-.86-1.23-.7-.55,.18-.81,.68-.7,1.23,.06,.32,.12,.65,.17,.98v.04c.01,.08,.02,.15,.03,.23,.02,.16,.03,.33,.05,.49,.06,.65,.07,1.29,.06,1.94-.01,.52,.47,1.02,1,1,.55-.02,.99-.44,1-1,.03-1.41-.11-2.82-.38-4.21Z"/>
    </g>
    <path d="M286.98,101.57c-3.91-20.34-8.39-40.62-14.83-60.33-2.55-7.79-5.41-15.47-8.62-23.02-.45-1.07-2.08-.89-2.59,0-13.62,23.65-26.55,47.71-38.75,72.12-3.56,7.13-9.29,14.45-9.58,22.72-.3,8.57,7.71,15.55,14.78,18.96,6.74,3.25,13.98,5.47,21.38,6.6,3.19,.49,6.6,1.13,9.78,1.32,5.59,.33,11.92,.22,17.37-1.2,4.04-1.06,9.2-2.66,12.2-5.72,1.99-2.02,2.69-4.56,2.78-7.2,.1-2.79-.49-5.72-.96-8.32-.97-5.32-1.95-10.64-2.96-15.95Zm-28.04,34.62c-12.05-.21-24.18-4.02-34.56-10.05-4.24-2.47-7.91-6.49-8.73-11.46-.86-5.2,2.57-9.52,4.74-13.93,10.06-20.51,20.63-40.77,31.7-60.76,3.27-5.9,6.59-11.77,9.94-17.61,8.51,20.67,14.25,42.36,18.88,64.2,1.3,6.11,2.22,12.37,3.85,18.39,1.51,5.55,2.45,11.23,2.89,16.97,1.16,14.83-18.48,14.43-28.71,14.26Z"/>
    <g>
      <path d="M214.12,114.1c-25.51-4.74-52.53,.57-74.56,14.24-6.21,3.86-12.01,8.38-17.26,13.48-1.39,1.35,.74,3.47,2.12,2.12,18.03-17.53,42.75-27.72,67.84-28.52,7.05-.23,14.12,.28,21.05,1.57,1.89,.35,2.7-2.54,.8-2.89Z"/>
      <path d="M360.58,218.54c-5.17-25.81-16.98-50.17-36.1-68.5-9.86-9.45-21.54-17.02-34.4-21.68-1.81-.66-2.99,2.1-1.18,2.76,22.6,8.2,40.91,25.34,53.05,45.85,14.3,24.16,19.45,52.82,19,80.62-.19,11.7-2.6,23.36-7.08,34.17-5.04,12.16-11.91,20.15-22.22,28.17-9.12,7.09-19.08,13.12-29.56,17.98-22.61,10.49-47.3,14.43-72.02,15.72-14.8,.77-29.65,.83-44.46,.5-.47-.49-1.2-.52-1.83-.24-.37,.16-.73,.32-1.1,.47-.28-.06-.57-.03-.84,.05-7.14-1.61-13.59-5.26-19.56-9.46-7.05-4.96-13.66-10.58-19.85-16.57-3.52-3.41-6.9-6.97-10.13-10.66-1.28-1.45-3.39,.67-2.12,2.12,5.87,6.69,12.22,12.96,19.02,18.71,6.48,5.48,13.33,10.86,20.91,14.73,2.48,1.26,5.06,2.34,7.72,3.17-.55,.24-1.09,.47-1.64,.71-2.22,.95-4.5,1.83-6.6,3.03-3.82,2.17-7.25,6.16-6.34,10.86,.63,3.25,3.53,5.54,6.68,6.2-.45,2.64-.43,5.3-.27,8.02,.2,3.25,.61,7.16-1.62,9.86-1.22,1.48,.89,3.61,2.12,2.12,4.67-5.65,1.46-13.3,2.78-19.87,3.9-.48,7.23-3.34,9.2-6.64,.54-.9,.98-1.85,1.35-2.83,0,.18,.03,.37,.04,.55-.45,5.94-1.95,11.84-2.9,17.68-.69,4.19-1.18,8.46-.84,12.71,.16,2.06,.56,4.06,1,6.08,.38,1.71,.96,4.05-.23,5.58-1.17,1.51,.94,3.65,2.12,2.12,2.11-2.72,1.58-5.91,.87-9.06-.78-3.46-1.01-6.9-.77-10.44,.35-5.25,1.49-10.39,2.45-15.55,1.58,4.61,4.59,9.04,9.75,9.84,4.95,.76,11.62-1.2,13.65-6.22,2.14-5.31-1.41-10.58-5.35-13.86-4.6-3.82-9.7-7.13-14.88-10.16,12.54,.23,25.1,.17,37.63-.36,13-.55,26.02-1.68,38.82-4.08,23.66-4.42,46.15-13.8,65.54-28.13,19.98-14.77,32.37-36.41,33.37-61.43,.6-14.93-.26-29.96-3.19-44.62Zm-189.95,155.76c-2.04-.38-3.94-1.69-4.43-3.76-.88-3.76,2.74-6.67,5.65-8.19,3.07-1.6,6.31-2.93,9.53-4.25,.01,.05,.02,.1,.02,.15-4.74,4.43-8.85,9.81-10.78,16.06Zm9.86-6.93c-1.23,2.92-3.54,5.66-6.61,6.67,1.62-4.47,4.47-8.43,7.79-11.86-.1,1.77-.48,3.52-1.18,5.18Zm17.57-.28c3.65,2.65,8.33,6.01,8.18,11.06-.15,5.03-6.73,7.01-10.89,6.28-4.67-.82-6.77-5.62-7.85-9.73-.56-2.14-.88-4.32-.98-6.52,.19-2.94,.12-5.87-.31-8.81,4.07,2.38,8.04,4.94,11.86,7.71Z"/>
    </g>
  </g>
</svg>