<?xml version="1.0" encoding="UTF-8"?>
<svg id="Headwear" xmlns="http://www.w3.org/2000/svg" viewBox="0 0 500 500">
  <defs>
    <style>
      .cls-1 {
        fill: #e4de03;
      }

      .cls-2 {
        fill: #ff0;
      }

      .cls-3 {
        fill: #fbfaf9;
      }

      .cls-4 {
        fill: #ff1d25;
      }

      .cls-5 {
        fill: #71cdf2;
      }

      .cls-6 {
        fill: #8bdaf3;
      }

      .cls-7 {
        fill: #a8cb3f;
      }

      .cls-8 {
        fill: #b0df34;
      }

      .cls-9 {
        fill: #d21c29;
      }

      .cls-10 {
        fill: #1aa1d8;
      }
    </style>
  </defs>
  <g>
    <g>
      <path class="cls-4" d="M179.28,120.37c-4.69,.68-9.43-.11-14.09-.7s-9.49-.25-14.31-.44c-2.99-.12-6.76,.22-9.64-.6-2.24-.64-3.04-1.77-5.39-.16-6.69,4.58-10.68,11.68-16.96,16.43-1.22,.93-1.6,2.26-1.44,3.49-11.03,15.06-16.24,33.08-22.41,50.73-1.49,4.26,5.27,6.09,6.75,1.86,1.69-4.84,4.38-8.99,6.51-13.68,2.24-4.93,4.38-9.97,7.57-14.38,5.33-7.35,13.5-13.09,21.01-17.98,4.73-3.08,10.36-5.68,16.03-6.4,1.97-.25,4.01-.31,5.83-1.12,1.94-.86,3.41-2.48,4.94-3.94,2.68-2.56,5.92-5.19,9.3-6.75,3.12-1.44,5.36-2.58,7.75-5.18,.28-.31,.57-.76,.33-1.11-.21-.3-.65-.26-1.01-.19-.26,.05-.52,.09-.77,.13Z"/>
      <path class="cls-4" d="M246.22,85.68c-1.28-.02-2.51-.02-3.55-.08-4.25-.24-8.91-.07-13.16,.21-2.28,.15-4.55,.54-6.82,.7-1.45,.1-2.98-.16-4.14,.93-.48,.45-.48,1.23-.19,1.82s.79,1.03,1.27,1.49c.97,.93,1.85,1.98,2.6,3.1,1.19,1.79,2.04,2.34,3.99,3.01,1.94,.67,3.95-1.14,5.65-1.9,2.4-1.07,4.8-2.12,7.25-3.07,2.83-1.09,5.71-2.06,8.66-2.77,1.55-.37,3.11-.6,4.68-.89,.79-.14,3.23-.45,1.22-1.43-1.95-.94-4.82-1.08-7.45-1.12Z"/>
      <path class="cls-5" d="M348.01,202.6c-.46-3.17-1.58-6.12-2.26-9.24-.84-3.87-1.71-8.05-3.28-11.68-2.03-4.68-4.77-8.84-7.05-13.32-2.85-5.62-5.31-11.48-8.04-17.17-1.78-3.72-3.6-7.49-6.32-10.58-4.47-5.07-10.93-7.85-16.37-11.86-4.41-3.26-8.15-7.33-11.82-11.41-1.07-1.19-2.18-2.48-2.44-4.06-.59-3.55,5.68-4.19,2.09-8.05-1.74-1.87-4.48-2.59-6.53-3.98-1.9-1.28-3.48-2.83-5.23-4.32-1.34-1.15-2.99-1.86-4.61-2.56-3.85-1.66-7.61-3.68-11.67-4.24-2.82-.39-6.36-1.73-3.62,2.66,1.44,2.31,2.73,4.92,4.42,7.06,1.29,1.63,2.69,2.62,3.66,4.56,2.17,4.33,3.47,9.27,4.38,14.01,1.38,6.34,2.08,12.79,2.57,19.25,.36,4.75-.98,12.62,4.08,15.27,1.1,.57,2.32,.84,3.52,1.15,8.4,2.24,16.16,6.51,22.79,12.1,3.21,2.7,5.86,6.85,9.29,9.11,6.31,4.16,11.1,10.09,15.39,16.21,2.16,3.08,4.2,6.24,6.34,9.34,1.09,1.58,1.35,3.7,3.08,4.72s3.48,1.18,5.14,2.53c.21,.17,.42,.35,.67,.42,.78,.22,1.61-.59,2.37-.29-.14-1.83-.28-3.74-.56-5.63Z"/>
    </g>
    <g>
      <path class="cls-9" d="M149.76,134.68c-11.4,3.65-21.73,9.62-30.53,18.33-4.74,4.69-9,10.01-12.62,15.6-3.82,5.9-7.01,12.5-7.59,19.6-.19,2.26-3.35,2.53-3.92,.77l-.05,.14c-1.49,4.26,5.27,6.09,6.75,1.86,1.69-4.84,4.38-8.99,6.51-13.68,2.24-4.93,4.38-9.97,7.57-14.38,5.33-7.35,13.5-13.09,21.01-17.98,4.73-3.08,10.36-5.68,16.03-6.4,6.32-.8,9.39-2.4,13.58-7.51-5.78,.74-11.38,1.94-16.74,3.66Z"/>
      <path class="cls-10" d="M276.69,99.28c4.41,3.26,9.34,6.36,12.63,10.84,.03,.04,.05,.09,.08,.14h.74c.45,0,.85,.16,1.2,.42,1.42-1.63,3.68-2.75,1.19-5.44-1.74-1.87-4.48-2.59-6.53-3.98-1.9-1.28-3.48-2.83-5.23-4.32-1.34-1.15-2.99-1.86-4.61-2.56-3.85-1.66-7.61-3.68-11.67-4.24-.34-.05-.7-.11-1.05-.17,2.07,1.32,4.19,2.58,6.24,3.94,2.47,1.64,4.65,3.62,7.03,5.38Z"/>
      <path class="cls-10" d="M348.14,204.9c-5.76-3.45-8.5-9.77-11.82-15.3-3.14-5.23-7.62-9.73-11.75-14.19-4.5-4.87-9.2-9.56-14.21-13.9-10.04-8.7-21.48-15.89-34.3-19.66-.03,0-.05-.02-.07-.03,.02,4.31,.25,9.15,4,11.12,1.1,.57,2.32,.84,3.52,1.15,8.4,2.24,16.16,6.51,22.79,12.1,3.21,2.7,5.86,6.85,9.29,9.11,6.31,4.16,11.1,10.09,15.39,16.21,2.16,3.08,4.2,6.24,6.34,9.34,1.09,1.58,1.35,3.7,3.08,4.72,1.69,.99,3.48,1.18,5.14,2.53,.21,.17,.42,.35,.67,.42,.78,.22,1.61-.59,2.37-.29-.08-1.07-.17-2.16-.28-3.26-.05-.03-.1-.04-.15-.07Z"/>
      <path class="cls-9" d="M220.4,91.58c.66,.71,1.28,1.46,1.82,2.27,1.19,1.79,2.04,2.34,3.99,3.01,1.94,.67,3.95-1.14,5.65-1.9,2.4-1.07,4.8-2.12,7.25-3.07,2.83-1.09,5.71-2.06,8.66-2.77,.31-.07,.62-.13,.92-.19-9.51,.31-19.13-.25-28.3,2.66Z"/>
    </g>
    <g>
      <path class="cls-2" d="M276.82,145.64c-.14-.67-.28-1.31-.35-1.89-.76-6.4-.71-12.84-1.77-19.22-.86-5.17-1.91-13.26-5.63-17.18-2.17-2.29-2.58-5.84-3.78-8.8-1.31-3.23-3.03-6.36-5.61-8.76-4.72-4.4-11.55-.22-16.92,1.38-2.39,.71-4.77,1.45-7.17,2.14-1.9,.55-3.69,.34-5.45,1.32l-3.49,1.96c-.42,.23-.88,.53-.95,1-.05,.32,.09,.63,.26,.9,.5,.81,1.25,1.47,1.63,2.34,1.29,3-8.33,7.36-10.48,8.62-4.52,2.63-9.24,4.94-14.23,6.54-6.84,2.2-15.73,1.42-22.23,4.89-6.86,3.67-13.21,9.21-19.24,14.18-.43,.35-.87,.72-1.09,1.23s-.14,1.19,.32,1.49c.29,.19,.66,.2,1.01,.18,5.69-.19,10.89-2.55,16.57-3.1,7.14-.69,14.33-.1,21.45,.5l12.6,1.05c3.63,.3,7.69,1.13,11.3,.88,8.62-.6,17.17,2.27,25.33,4.8,9.41,2.92,18.82,5.83,28.24,8.75,.82,.26-.24-4.79-.32-5.21Z"/>
      <path class="cls-8" d="M303.56,95.97c-.96-.46-1.91-.93-2.85-1.44-2.13-1.15-4.38-1.52-6.72-2.2-4.49-1.33-8.98-2.66-13.48-3.99-4.16-1.23-8.86-.57-13.08,.05-.25,.04-.52,.09-.72,.25-.47,.4-.24,1.23,.28,1.57s1.17,.36,1.78,.44c3.64,.43,4.8,2.9,7.24,4.95,3.14,2.63,7.24,4.48,10.6,6.87,1.84,1.31,3.72,3.6,5.67,4.6,2.37,1.21,4.95-.87,7.02-1.95,3.18-1.65,6.39-3.33,9.06-5.73,.23-.21,.48-.49,.41-.79-.06-.26-.34-.41-.59-.52-1.55-.69-3.11-1.37-4.63-2.1Z"/>
      <path class="cls-8" d="M390.85,154.85c-1.34-1.89-3.07-3.16-5.41-3.06-7.2,.3-14.07,.04-21.26-.76-4.15-.46-8.32-.92-12.31-2.14-2.78-.84-5.44-2.04-8.25-2.8-2.43-.66-4.93-.97-7.37-1.57-1.3-.32-5.37-2.52-6.01-1.37-1.57-.91-6.36-4.94-8.21-3.75-.22,1.33,.43,2.65,1.25,3.71s1.83,1.99,2.52,3.14c1.16,1.92,1.59,4.2,2.7,6.16,1.63,2.89,3.93,5.29,5.63,8.12,1.93,3.22,3.77,6.49,5.2,9.97,1.1,2.67,1.94,5.43,2.78,8.19l3.19,10.44c2,6.54,2.59,12.9,2.96,19.68,.05,.86,.12,1.78,.65,2.45,.58,.74,1.57,1,2.49,1.2,13.33,2.93,27.33,2.66,40.33,6.8,.29,.09,.6,.19,.89,.08,.25-.09,.42-.31,.57-.52,5.04-6.85,6.57-16.54,6.87-24.87,.35-9.53-1.62-19.02-4.76-27.98-1.06-3.01-2.19-7.94-4.45-11.12Z"/>
    </g>
    <g>
      <path class="cls-7" d="M308.2,98.07c-1.55-.69-3.11-1.37-4.63-2.1-.96-.46-1.91-.93-2.85-1.44-2.13-1.15-4.38-1.52-6.72-2.2-4.49-1.33-8.98-2.66-13.48-3.99-4.16-1.23-8.86-.57-13.08,.05-.25,.04-.52,.09-.72,.25-.47,.4-.24,1.23,.28,1.57,.51,.35,1.17,.36,1.78,.44,.06,0,.11,.02,.16,.03-.02-.22,0-.44,.06-.68,.26-.95,1.46-1.82,2.46-1.4,1.37,.57,2.69,1.24,3.99,1.95,.32-.01,.66,.05,1.01,.23,.69,.35,1.36,.71,2.04,1.08,1.98,.48,3.88,1.2,5.74,2.07,.82,.38,1.62,.77,2.42,1.15,5.15,1.42,10.54,2.89,14.49,6.45,.88,.8,.75,1.82,.17,2.53,2.5-1.34,4.95-2.78,7.06-4.67,.23-.21,.48-.49,.41-.79-.06-.26-.34-.41-.59-.52Z"/>
      <path class="cls-7" d="M395.3,165.97c-1.06-3.01-2.19-7.94-4.45-11.12-1.34-1.89-3.07-3.16-5.41-3.06-2.47,.1-4.89,.12-7.31,.09,.09,.19,.17,.39,.24,.6,.13,.38,.2,.77,.28,1.16,.29,.16,.55,.42,.74,.82,3.14,6.5,5.09,13.43,6.03,20.58,.81,6.18,.66,12.29,.03,18.47-.45,4.45-1.32,8.74-5.74,10.86-5.82,2.8-12.22,2.91-18.5,2.06-4.34-.59-8.91,.46-13.16-.68,.07,1.02,.14,2.04,.19,3.07,.05,.86,.12,1.78,.65,2.45,.58,.74,1.57,1,2.49,1.2,13.33,2.93,27.33,2.66,40.33,6.8,.29,.09,.6,.19,.89,.08,.25-.09,.42-.31,.57-.52,5.04-6.85,6.57-16.54,6.87-24.87,.35-9.53-1.62-19.02-4.76-27.98Z"/>
      <path class="cls-1" d="M227.59,100.84c.31,.72-.01,1.52-.71,2.33,1.44-.78,2.89-1.54,4.36-2.25,.6-.29,1.18-.27,1.67-.06,7.65-5.01,15.57-10.06,24.44-12.52-4.47-1.7-10.05,1.47-14.59,2.83-2.39,.71-4.77,1.45-7.17,2.14-1.9,.55-3.69,.34-5.45,1.32-1.16,.65-2.33,1.31-3.49,1.96-.42,.23-.88,.53-.95,1-.05,.32,.09,.63,.26,.9,.5,.81,1.25,1.47,1.63,2.34Z"/>
      <path class="cls-1" d="M276.82,145.64c-.82-3.48-2.41-3.19-5.74-4.39-8.5-3.07-17.29-5-26.19-6.54-11.17-1.93-22.43-3.27-33.66-4.86-13.45-1.9-28.01-1.6-41.43,.83-1.16,.21-11.86,5.35-9.15,7.12,.29,.19,.66,.19,1.01,.18,5.69-.19,10.89-2.55,16.57-3.1,7.14-.69,14.33-.1,21.45,.5,4.2,.35,8.4,.7,12.6,1.05,3.63,.3,7.69,1.13,11.3,.88,8.62-.6,17.17,2.27,25.33,4.8,9.41,2.92,18.82,5.83,28.24,8.75,.6,.18-.17-4.5-.28-4.98-.02-.08-.03-.16-.05-.23Z"/>
    </g>
    <path d="M399.87,177.95c-2.51-14.28-8.81-27.9-18.13-36.71l-.05-.04c-.22-.46-.44-.92-.66-1.37-4.7-9.47-9.26-18.83-15.81-27.25-3.76-4.84-8.31-9.33-13.22-13.03-2.42-1.82-4.87-3.6-7.25-5.48-1.79-1.41-2.97-3.08-5.37-3.53-1.62-.3-3.3-.32-4.94-.19-3.19,.25-6.29,1.14-9.32,2.14-4.33,1.43-8.58,3.08-12.76,4.91-.4,.17-.79,.36-1.19,.54-3.89-1.51-7.81-2.94-11.77-4.26-2.55-.96-5.14-1.85-7.75-2.63-2.12-.63-4.26-1.19-6.41-1.7-21.91-5.16-45.67-6.13-68.2-4.03-.4-.44-.79-.88-1.19-1.33-.19-.22-.38-.43-.58-.65-.96-1.06-1.97-2.13-3.04-3.15-2.25-2.14-4.77-4.04-7.58-5.14-3.38-1.32-7.87-3.15-11.35-1.43-3.67,1.81-7.46,3.39-11.06,5.36-2.23,1.22-4.21,2.79-6.34,4.14-7.82,4.93-15.63,9.85-22.12,16.5-1.88,1.93-3.76,3.89-5.6,5.88-2.85,3.07-5.62,6.22-8.28,9.47-.32-.13-.64-.25-.95-.4-3.84,2.84-7.53,5.88-11.05,9.11-3.6,3.3-7.72,6.85-11.01,10.74-3.53,4.19-5.35,8.95-8.14,13.56-4.21,6.94-7.16,14.57-9.49,22.32-2.11,7.02-5.54,15.66-4.71,23.03,.18,1.62,1.65,4.35,3.71,4.08,1.87-.24,3.76-4.08,4.64-5.54,2.7-4.53,4.44-9.54,6.55-14.35,3.11-7.06,7.7-13.34,13.23-18.7,22.14-21.41,53.07-22.76,81.83-21.2,34.87,1.89,72.3,10.24,100.54,31.75,8.28,6.31,15.87,13.56,22.35,21.72,4.23,5.33,7.53,11.47,12.51,16.18,6.11,5.77,11.84,6.14,19.64,8.12,7.8,1.98,15.76,3.31,23.6,5.13,5.8,1.34,11.88,5.17,14.43-3.04,3.8-12.22,4.5-26.97,2.29-39.55Zm-64.6-84.16c5.53,.61,10.42,3.91,14.47,7.52,2.89,2.57,6.36,4.72,8.77,7.71,2.53,3.14,4.79,6.53,7.35,9.63,2.4,2.91,3.97,6.42,5.71,9.79,2.24,4.34,4.58,8.63,6.8,12.98,1.26,2.49,2.4,5.05,3.45,7.64-1.72,.35-3.45,.61-5.19,.77-1.27,0-2.53-.02-3.79-.09,.09,.12,.19,.24,.28,.37-11.4,.43-22.88-2.5-33.65-6.13-12.17-4.11-24.15-8.83-34.47-16.54-3.8-2.84-6.77-7.16-10.05-10.57-.49-.51-2.28-2.57-3.91-3.81,.96-.68,1.91-1.35,2.86-1.98,7.87-5.26,16.32-9.8,25.12-13.2,5.33-2.06,10.27-4.75,16.24-4.09Zm-50.82-1.56l.06,.02c4.61,1.28,9.19,2.68,13.73,4.19,2.66,.99,5.28,2.07,7.88,3.24,.23,.1,.46,.21,.68,.32-4.11,2.01-8.12,4.22-12.01,6.61-2.08-2.01-4.22-3.96-6.44-5.79-5.96-4.9-12.58-9.02-19.86-11.35,5.37,.65,10.7,1.53,15.96,2.77Zm-33.16-4.2c-8.73,1.37-17.12,4.19-25.26,7.63-1.9-2.44-3.98-4.79-6.13-7.18,10.32-.89,20.8-.99,31.39-.45Zm-77.61,.3c2.29-1.73,4.88-3.13,7.29-4.75,2.81-1.9,5.93-3.19,9.05-4.47,.86-.35,1.62-.97,2.42-1.46,2.64-1.61,5.3-.92,7.94-.04,2.53,.84,4.73,2.2,6.81,3.75,7.52,5.62,14.08,12.81,18.75,20.98-14.58,10.74-31.97,15.3-49.65,16.38-5.46,.33-10.96,.23-16.41-.14-5.85-.4-11.66-1.14-17.45-2.1,8.96-10.64,19.55-19.3,31.25-28.15Zm-33.37,53.76c-12.18,5.61-22.55,14.78-29.82,26.02-3.68,5.69-6.57,11.88-8.57,18.35-.55,1.78-1.48,6.86-3.29,3.54-1.73-3.19,.35-8.05,1.27-11.21,4.92-16.85,11.92-34.78,24.43-47.6,4.35-4.46,9.03-8.58,13.96-12.38,13.04,2.34,26.48,3.62,39.71,2.79-.29,.19-.58,.37-.86,.56-6.78,4.44-13.4,9.14-19.84,14.05-5.81,1.43-11.5,3.34-16.98,5.87Zm101.23-3.64c-24.62-4.32-51.95-8.21-77.27-3.71,6.59-4.82,13.35-9.38,20.26-13.72,9.1-1.08,18.04-3.25,26.63-6.88,3.93-1.66,7.74-3.61,11.37-5.87,2.02-1.25,4.33-2.17,6.06-3.83,.72-.7,1.8-1.77,1.66-2.88-.06-.44-2.43-3.43-2.39-3.45,1.71-.71,3.43-1.4,5.17-2.05,7.6-2.84,15.49-4.99,23.59-5.68,.37-.03,.66-.17,.89-.37,10.31,12.31,14.81,28.33,16.4,44.06,.45,4.47,.68,8.97,.81,13.46-10.54-4.3-21.61-7.05-33.17-9.08Zm97.29,62.77c-4.61-8.43-10.37-16.25-17.12-23.16-8.66-8.85-18.53-14.35-28.74-21.01-4.94-3.22-10.02-5.93-15.23-8.23-.4-17.21-2.52-34.87-10.83-50.23-1.45-2.67-3.09-5.23-4.9-7.66,8.35,1.37,16,5.56,22.62,10.74,2.63,2.06,5.13,4.27,7.55,6.59,.06,.06-3.64,2.08-3.95,2.42-2.77,3.04,4.1,8.64,5.88,10.69,6.4,7.38,14.73,12.84,23.46,17.08,.02,0,.04,.02,.06,.03,1.87,2.69,3.71,5.4,5.46,8.16,5.57,8.79,10.74,17.99,14.72,27.62,4.29,10.4,7.09,21.41,8.33,32.6-2.65-1.6-5.1-3.48-7.31-5.63Zm56.83,8.51c-.35,1.14-.77,2.25-1.3,3.28-.58,1.12-1.44,2.61-2.44,3.41-1.45,1.15-1.98,.26-3.35,.54-1.23,.25-2.56,.11-3.82-.05-4.66-.6-9.36-1.15-14.01-1.93-7.41-1.23-14.68-3.03-21.41-6.38-1.03-10.83-3.43-21.51-7.27-31.7-3.79-10.05-8.89-19.6-14.49-28.75-1.5-2.45-3.05-4.88-4.65-7.27,4.31,1.86,8.7,3.53,13.12,5.08,7.56,2.65,15.29,4.98,23.23,6.23,5.58,.88,11.21,1.53,16.87,1.49,3.79-.02,9.03-2.33,12.03,.09,3.37,2.72,5.16,10.87,6.31,14.84,1.5,5.2,2.47,10.57,2.91,15.96,.52,6.45,.58,13.01-.48,19.42-.31,1.87-.68,3.85-1.25,5.73Z"/>
  </g>
  <g>
    <path class="cls-6" d="M332.69,82.3c1.59,.2,3.19,.37,4.79,.53,4.58,.43,9.26,.65,13.71-.5,3.01-.78,5.29-2.26,7.74-4.07,2.13-1.57,3.97-2.97,4.26-5.85,.27-2.62-.96-5.2-2.59-7.27-2.75-3.48-6.8-5.79-10.97-7.11-1.95-.62-4.02-.69-6.06-.75-14.52-.4-29.05-.06-43.57,.28-3.86,.09-7.73,.18-11.56,.63-7.22,.84-14.54,3.14-21.86,2.48-.57-.05-1.16-.1-1.69,.1-1,.38-1.49,1.51-1.76,2.55-.16,.61-.27,1.32,.09,1.84,.29,.41,.81,.59,1.3,.74,2.21,.67,4.46,1.2,6.72,1.66s4.15,1.27,6.31,2.08c3.4,1.28,6.88,1.98,10.36,2.9,3.77,.99,7.53,2.01,11.31,2.98,7.54,1.94,15.13,3.74,22.79,5.13,3.55,.65,7.11,1.2,10.69,1.65Z"/>
    <path class="cls-5" d="M360.6,65.13c-1.31-1.66-3.05-3.63-4.89-4.59-1.48-.77-3.12-1.14-4.75-1.47-10.42-2.12-21.14-2.79-31.74-1.97-2.76,.21-5.67,.97-8.42,.78-1.72-.12-3.37,.3-5.06,.29-1.46-.01-2.92-.4-4.4-.44-3.96-.11-7.93,.14-11.84,.76-.23,.4,.41,.71,.87,.73,9.85,.42,19.59,.25,29.41,.49,4.76,.12,9.57-.17,14.28,.1,2.5,.14,5,.26,7.48,.58,1.46,.19,2.91,.4,4.35,.67,3.15,.61,7.67,1.42,9.75,4.16,1.11,1.47,.71,2.86-.03,4.38-1.31,2.71-3.33,4.68-6.14,5.83-2.9,1.19-6.11,1.41-9.24,1.42-3,.01-6-.16-8.97-.51-7.26-.85-14.4-2.77-21.12-5.66s-13.23-6.21-20.27-8.44c-3.57-1.13-7.29-2.11-11.07-2.04-1.81,.04-3.52,.55-5.3,.67-2,.14-4.01,.28-6.01,.42-1.61,.11-2.79,.36-4.03,1.41-.86,.74-.88,1.5-.21,2.45,.29,.41,.81,.59,1.3,.74,2.21,.67,4.46,1.2,6.72,1.66,2.26,.46,4.15,1.27,6.31,2.08,3.4,1.28,6.88,1.98,10.36,2.9,3.77,.99,7.53,2.01,11.31,2.98,7.54,1.94,15.13,3.74,22.79,5.13,3.55,.65,7.11,1.2,10.69,1.65,1.59,.2,3.19,.37,4.79,.53,4.58,.43,9.26,.65,13.71-.5,3.01-.78,5.29-2.26,7.74-4.07,2.13-1.57,3.97-2.97,4.26-5.85,.26-2.55-.89-5.07-2.42-7.05-.06-.07-.11-.15-.17-.22Z"/>
    <path class="cls-10" d="M362.91,69.45c-1.37,4.46-6.13,7.09-10.63,8.37-6.34,1.79-13.13,1.72-19.64,1.04-7.75-.8-15.32-2.68-22.95-4.22-7.74-1.57-15.39-3.47-22.99-5.62-7.07-1.99-14.09-4.64-21.49-5.09-.91-.05-1.56-.96-1.65-1.83-.19,.39-.33,.81-.44,1.22-.16,.61-.27,1.32,.09,1.84,.29,.41,.81,.59,1.3,.74,2.21,.67,4.46,1.2,6.72,1.66,2.26,.46,4.15,1.27,6.31,2.08,3.4,1.28,6.88,1.98,10.36,2.9,3.77,.99,7.53,2.01,11.31,2.98,7.54,1.94,15.13,3.74,22.79,5.13,3.55,.65,7.11,1.2,10.69,1.65,1.59,.2,3.19,.37,4.79,.53,4.58,.43,9.26,.65,13.71-.5,3.01-.78,5.29-2.26,7.74-4.07,2.13-1.57,3.97-2.97,4.26-5.85,.1-1-.01-1.99-.28-2.95Z"/>
    <g>
      <path class="cls-3" d="M346.95,62.6c-5.19-1.52-10.65-1.41-16-1.29-1.29,.03-1.08,2.02,.2,1.99,5.19-.12,10.43-.21,15.46,1.27,1.23,.36,1.56-1.61,.33-1.97Z"/>
      <path class="cls-3" d="M354.42,66.43c-.6-.79-1.44-1.33-2.3-1.78-.46-.24-1.13,0-1.33,.48-.21,.52-.01,1.07,.48,1.33,.21,.11,.42,.23,.62,.35,.27,.18,.53,.39,.76,.62,.13,.15,.24,.31,.33,.47,.06,.13,.11,.27,.15,.41,.02,.11,.03,.22,.03,.34-.01,.1-.02,.19-.04,.29-.13,.51,.31,1.09,.82,1.15,.57,.07,1.02-.27,1.15-.82,.24-.97-.09-2.05-.68-2.83Z"/>
      <path class="cls-3" d="M325.24,61.92c-.08-.56-.54-.91-1.1-.89l-3.6,.13c-.52,.02-.97,.59-.89,1.1,.08,.56,.54,.91,1.1,.89,1.2-.04,2.4-.09,3.6-.13,.52-.02,.97-.59,.89-1.1Z"/>
    </g>
    <path d="M330.53,83.14c5.83,.81,11.82,1.7,17.72,1.05,5.42-.59,11.17-2.78,14.24-7.55,3.34-5.18,.85-11.16-3.61-14.73-4.93-3.95-11.33-5.28-17.49-5.7-7.07-.48-14.23-.25-21.31-.11-3.31,.07-6.62,.16-9.92,.29-7.69,.29-15.37,.74-23.04,1.35-3.84,.3-7.67,.64-11.5,1.02s-7.24,1.07-10.94,1.05c-.52,0-.97,.6-.89,1.1,.09,.58,.53,.89,1.1,.89,1.24,0,2.47-.07,3.69-.22,.64-.08,1.27-.16,1.91-.28,13.79-1.49,27.64-2.5,41.5-2.98,6.99-.24,13.99-.36,20.99-.34,6.23,.01,12.75,.01,18.68,2.2,4.91,1.81,11.26,6.19,10.4,12.25-.82,5.76-7.47,8.77-12.55,9.58-5.54,.89-11.18,.15-16.69-.58-6.93-.92-13.83-2.06-20.69-3.42-15.02-2.98-29.81-7.03-44.26-12.09-.8-.28-1.55-.41-2.35-.73-.44-.18-.97-.22-1.39-.43-.12-.06-.25-.09-.39-.08-.13-.02-.26,0-.39,.05-.22,.09-.46,.29-.55,.51-.1,.24-.14,.53-.03,.78,.3,.71,1.31,.84,2,.95,1.62,.25,3.13,.99,4.66,1.55,1.81,.66,3.63,1.28,5.47,1.88,3.67,1.2,7.36,2.3,11.07,3.35,7.43,2.12,14.92,3.97,22.48,5.56,7.32,1.53,14.7,2.82,22.1,3.84Z"/>
  </g>
  <g>
    <path class="cls-6" d="M184.78,66.9c-1.6-.14-3.2-.31-4.79-.5-4.56-.55-9.19-1.33-13.29-3.4-2.77-1.4-4.69-3.33-6.7-5.63-1.74-1.99-3.24-3.74-2.92-6.63,.29-2.62,2.04-4.88,4.08-6.55,3.43-2.82,7.88-4.21,12.23-4.62,2.03-.19,4.08,.18,6.08,.56,14.27,2.7,28.4,6.12,42.51,9.54,3.75,.91,7.51,1.82,11.16,3.07,6.88,2.35,13.54,6.16,20.83,7.07,.57,.07,1.16,.15,1.63,.46,.9,.59,1.13,1.79,1.18,2.87,.03,.64-.01,1.35-.48,1.78-.37,.34-.92,.4-1.42,.44-2.3,.19-4.61,.23-6.92,.2s-4.32,.36-6.6,.69c-3.59,.53-7.15,.48-10.74,.63-3.89,.16-7.79,.37-11.68,.51-7.78,.29-15.58,.43-23.36,.17-3.6-.12-7.2-.33-10.79-.66Z"/>
    <path class="cls-5" d="M161.16,44.19c1.63-1.35,3.76-2.9,5.76-3.44,1.61-.43,3.29-.45,4.96-.43,10.63,.14,21.25,1.77,31.44,4.83,2.65,.79,5.33,2.16,8.06,2.55,1.71,.25,3.23,1.01,4.88,1.36,1.43,.3,2.93,.23,4.39,.51,3.89,.73,7.72,1.83,11.41,3.26,.14,.44-.55,.61-1.01,.53-9.71-1.68-19.19-3.92-28.84-5.77-4.68-.9-9.32-2.2-13.98-2.94-2.47-.39-4.94-.81-7.43-1.02-1.46-.13-2.93-.23-4.39-.27-3.21-.08-7.8-.24-10.41,1.99-1.4,1.2-1.3,2.65-.91,4.29,.7,2.93,2.26,5.28,4.77,7,2.59,1.78,5.67,2.67,8.73,3.35,2.93,.65,5.89,1.12,8.88,1.41,7.28,.71,14.66,.36,21.84-1.04s14.25-3.26,21.6-3.94c3.73-.35,7.58-.51,11.25,.36,1.77,.42,3.32,1.28,5.04,1.79,1.93,.56,3.86,1.12,5.78,1.69,1.55,.45,2.65,.94,3.64,2.24,.69,.9,.54,1.66-.31,2.44-.37,.34-.92,.4-1.42,.44-2.3,.19-4.61,.23-6.92,.2-2.31-.03-4.32,.36-6.6,.69-3.59,.53-7.15,.48-10.74,.63-3.89,.16-7.79,.37-11.68,.51-7.78,.29-15.58,.43-23.36,.17-3.6-.12-7.2-.33-10.79-.66-1.6-.14-3.2-.31-4.79-.5-4.56-.55-9.19-1.33-13.29-3.41-2.77-1.4-4.69-3.33-6.7-5.63-1.74-1.99-3.24-3.74-2.92-6.63,.29-2.55,1.95-4.77,3.86-6.37,.07-.06,.14-.12,.21-.18Z"/>
    <path class="cls-10" d="M157.98,47.92c.39,4.65,4.48,8.23,8.61,10.44,5.81,3.1,12.47,4.47,18.97,5.19,7.75,.86,15.54,.64,23.32,.75,7.9,.11,15.78-.12,23.66-.6,7.33-.45,14.76-1.54,22.08-.4,.91,.14,1.73-.61,2-1.44,.11,.42,.15,.86,.17,1.29,.03,.64-.01,1.35-.48,1.78-.37,.34-.92,.4-1.42,.44-2.3,.19-4.61,.23-6.92,.2-2.31-.03-4.32,.36-6.6,.69-3.59,.53-7.15,.48-10.74,.63-3.89,.16-7.79,.37-11.68,.51-7.78,.29-15.58,.43-23.36,.17-3.6-.12-7.2-.33-10.79-.66-1.6-.14-3.2-.31-4.79-.5-4.56-.55-9.19-1.33-13.29-3.41-2.77-1.4-4.69-3.33-6.7-5.63-1.74-1.99-3.24-3.74-2.92-6.63,.11-1,.44-1.94,.9-2.82Z"/>
    <g>
      <path class="cls-3" d="M175.03,44.62c5.4-.38,10.7,.88,15.91,2.14,1.25,.3,.63,2.2-.62,1.9-5.04-1.22-10.15-2.42-15.38-2.05-1.28,.09-1.18-1.91,.09-2Z"/>
      <path class="cls-3" d="M166.92,46.77c.75-.64,1.69-1,2.63-1.25,.51-.14,1.1,.24,1.2,.75,.1,.55-.21,1.05-.75,1.2-.23,.06-.45,.13-.68,.21-.3,.12-.6,.27-.87,.44-.15,.12-.3,.25-.43,.39-.09,.12-.17,.24-.24,.37-.04,.1-.08,.21-.11,.32-.01,.1-.02,.19-.02,.29,.01,.52-.53,1-1.05,.95-.57-.05-.94-.48-.95-1.05-.03-1,.52-1.99,1.27-2.62Z"/>
      <path class="cls-3" d="M196.39,48.58c.2-.53,.72-.78,1.26-.64l3.49,.89c.51,.13,.82,.78,.64,1.26-.2,.53-.72,.78-1.26,.64-1.16-.3-2.32-.6-3.49-.89-.51-.13-.82-.78-.64-1.26Z"/>
    </g>
    <path d="M186.71,68.18c-5.87-.45-11.91-.85-17.54-2.74-5.17-1.73-10.32-5.09-12.31-10.41-2.16-5.77,1.54-11.09,6.66-13.63,5.66-2.81,12.2-2.75,18.3-1.85,7.01,1.03,13.96,2.78,20.85,4.43,3.22,.77,6.43,1.57,9.63,2.39,7.45,1.92,14.86,3.99,22.23,6.22,3.68,1.11,7.36,2.26,11.02,3.44s6.84,2.59,10.46,3.35c.51,.11,.82,.79,.64,1.26-.21,.55-.71,.76-1.26,.64-1.21-.25-2.4-.59-3.56-1-.61-.21-1.21-.43-1.8-.68-13.16-4.39-26.47-8.32-39.92-11.74-6.78-1.73-13.59-3.32-20.43-4.8-6.09-1.31-12.46-2.7-18.72-1.83-5.19,.72-12.32,3.65-12.76,9.76-.42,5.8,5.44,10.16,10.23,12.03,5.22,2.05,10.9,2.52,16.44,2.98,6.97,.58,13.96,.93,20.95,1.05,15.31,.28,30.63-.53,45.82-2.4,.84-.1,1.6-.07,2.45-.21,.47-.08,.99,0,1.45-.13,.13-.04,.27-.04,.4,0,.13,.01,.25,.06,.37,.14,.2,.13,.39,.38,.43,.62,.05,.26,.02,.54-.14,.77-.45,.63-1.46,.54-2.16,.5-1.63-.1-3.27,.3-4.89,.52-1.91,.26-3.82,.48-5.74,.67-3.84,.39-7.68,.68-11.53,.92-7.71,.49-15.43,.71-23.15,.65-7.48-.06-14.96-.37-22.42-.94Z"/>
  </g>
  <g>
    <path class="cls-6" d="M267.12,87.11c-.03-.16-.05-.32-.06-.46-.15-2.05-.23-4.1-.41-6.14-.57-6.69-1.17-13.48-3.36-19.73-.11-.32-.26-.68-.55-.79-.23-.09-.48,0-.71,.09-.97,.33-2,.38-2.99,.15-.8-.19-1.7-.54-2.37-.02-.53,.41-.69,1.2-.82,1.92-.49,2.8-1.1,5.58-1.83,8.32-1.19,4.48-2.73,8.96-2.89,13.69-.03,.99,.09,1.96-.16,2.92-.19,.72-.44,1.21-.19,1.99,.51,1.61,2.33,1.75,3.45,2.57,1.36,.99,2.83,1.77,4.43,2.07,2.18,.42,4.45,0,6.31-1.39,.61-.45,1.73-.85,2.18-1.44,.81-1.04,.18-2.53-.04-3.75Z"/>
    <path class="cls-5" d="M255.05,91.45c-.22,.02-.45,0-.65-.05-1.13-.35-1.56-1.58-1.4-2.79,.33-2.44,.71-4.86,1.2-7.26,.9-4.44,1.81-8.85,2.84-13.28,.37-1.61,.75-3.22,1.12-4.84,.24-1.03,.3-2.22,1.03-2.97-.78-.19-1.8-.63-2.53-.06-.53,.41-.69,1.2-.82,1.92-.49,2.8-1.1,5.58-1.83,8.32-1.19,4.48-2.73,8.96-2.89,13.69-.03,.99,.09,1.96-.16,2.92-.19,.72-.43,1.21-.19,1.99,.51,1.61,2.33,1.75,3.45,2.57,.3,.22,.61,.43,.93,.62-.08-.24-.11-.51-.11-.79Z"/>
    <path class="cls-5" d="M267.12,87.11c-.03-.16-.05-.32-.06-.46-.15-2.05-.23-4.1-.41-6.14-.35-4.02-.69-8.06-1.4-12.03-.36-2-.8-3.99-1.38-5.92-.18-.59-.35-1.79-.9-2.11-.59-.34-1.37,.23-1.62,.84-.12,.3-.08,.5-.41,.51-.22,2.6-.07,5.21,.03,7.81,.1,2.46-.05,4.86-.08,7.32l-.23,14.94c0,.33,0,.68,.17,.94,.32,.5,1.35,.51,1.84,.51,.81,0,1.62-.51,2.32-1.03,.61-.45,1.73-.85,2.18-1.44,.81-1.04,.18-2.53-.04-3.75Z"/>
    <path class="cls-10" d="M267.12,87.11c-.03-.16-.05-.32-.06-.46-.15-2.05-.23-4.1-.41-6.14-.35-4.02-.69-8.06-1.4-12.03-.36-2-.8-3.99-1.38-5.92-.18-.59-.35-1.79-.9-2.11-1.68-.97-1.25,1.85-1.1,2.48,1.24,5.28,1.35,10.72,1.7,16.11,.18,2.69,.56,5.36,.78,8.03,.07,.8,1,4.99,.24,5.51,.13-.09,.27-.18,.39-.28,.61-.45,1.73-.85,2.18-1.44,.81-1.04,.18-2.53-.04-3.75Z"/>
    <path class="cls-6" d="M263.16,58.43c-.14-.62-.63-1.05-1.16-1.19-.87-.24-1.85-.13-2.69,.17-.03,.01-.06,.04-.1,.06-.45,.09-.9,.22-1.32,.41-.25,.11-.46,.25-.6,.52-.13,.24-.18,.6-.1,.87,.09,.31,.32,.6,.6,.75,.17,.24,.41,.43,.71,.52,.24,.08,.52,.08,.77,.1,.2,.02,.4,.02,.6,.02,.2,0,.4-.02,.59-.04,.12,.02,.25,.05,.37,.06,.4,.04,.84-.02,1.19-.25,.08-.06,.15-.13,.22-.21,.06-.03,.13-.04,.19-.08,.54-.35,.88-1.03,.72-1.73Z"/>
    <g>
      <path class="cls-3" d="M258.43,67c-.48-.12-1.14,.17-1.23,.79-.3,2.11-.6,4.22-.91,6.33-.08,.58,.13,1.25,.7,1.4,.48,.12,1.14-.17,1.23-.79,.3-2.11,.6-4.22,.91-6.33,.08-.58-.13-1.25-.7-1.4Z"/>
      <path class="cls-3" d="M256.84,79.93c-.12-.24-.36-.46-.6-.52-.26-.07-.54-.05-.77,.11-.2,.15-.42,.39-.46,.68-.1,.79-.27,1.57-.51,2.32-.08,.27-.02,.64,.1,.87,.12,.24,.36,.46,.6,.52,.26,.07,.54,.05,.77-.11,.23-.17,.37-.39,.46-.68,.23-.75,.4-1.53,.51-2.32,.04-.15,.05-.3,.02-.45,0-.15-.05-.29-.12-.42Z"/>
    </g>
    <path d="M268.59,87.44c-.11-1.03-.24-2.05-.36-3.08-.5-3.97-1.51-7.78-1.77-11.73-.16-2.49-.44-4.97-.83-7.43-.26-1.61-.65-3.22-.69-4.84-.03-1.19-.26-2.77-1.28-3.43-.8-.52-2.14-.8-3.07-.89-1.28-.12-2.93-.04-3.95,.99-.74,.74-.88,2.04-.99,3.08-.14,1.31-.43,2.41-.73,3.68-.74,3.14-1.6,6.25-2.36,9.39-.54,2.23-1.04,4.47-1.53,6.71-.51,1.72-.94,3.46-1.13,5.27-.02,.1-.04,.2-.06,.3-.21,1.04-.55,2.05-.29,3.11,.75,3.15,4.43,4.77,6.94,5.42,2.32,.6,4.77,.91,7.12,.37,1.02-.23,2.01-.72,2.87-1.39,.49-.38,.99-.77,1.41-1.26,1.14-1.34,.89-2.58,.7-4.27Zm-10.64-28.24c-.35-.43-.44-.98,.27-1.31,.33-.15,.69-.22,1.05-.29,.54-.1,1.09-.2,1.64-.15s1.11,.23,1.52,.65c.19,.19,.35,.44,.37,.73,.1,1.83-3.21,1.13-3.99,.94-.3-.08-.63-.29-.86-.56Zm7.99,31.38c-.53,.77-1.39,1.22-2.39,1.45-1.93,.44-4.35,.07-5.8-.29-.75-.18-1.5-.37-2.24-.55-1.43-.35-2.59-1.14-3.46-2.5s-.22-3.07,.04-4.62c.3-1.71,.76-3.37,1.09-5.06,.59-3.05,1.57-6.02,2.16-9.09,.58-3.04,1.23-6.04,2.19-8.95,1.24,1.19,4.02,1.19,5.37,.3-.08,.05,.7,4.71,.76,5.17,.62,5.14,1.49,10.28,2.23,15.37,.34,2.42,1.5,6.65,.06,8.77Z"/>
  </g>
</svg>