<svg id="Headwear" xmlns="http://www.w3.org/2000/svg" xmlns:xlink="http://www.w3.org/1999/xlink" viewBox="0 0 500 500"><defs><style>.cls-1{fill:#bcbcbc;}.cls-2{fill:#dddcdb;}.cls-3{opacity:0.25;fill:url(#New_Gradient_Swatch_22);}.cls-4,.cls-5{fill:#3f84a1;}.cls-4{opacity:0.18;}.cls-5{opacity:0.15;}.cls-6{fill:#8caeb7;opacity:0.22;}.cls-7{fill:#999;}.cls-8{fill:url(#linear-gradient);}.cls-9{opacity:0.6;}.cls-10{fill:#fcfbfa;}.cls-11{fill:#fff;}</style><radialGradient id="New_Gradient_Swatch_22" cx="174.2" cy="222.61" r="134.78" gradientUnits="userSpaceOnUse"><stop offset="0" stop-color="#b8cfe3"/><stop offset="1" stop-color="#4a7ba3"/></radialGradient><linearGradient id="linear-gradient" x1="355.72" y1="167.54" x2="398.48" y2="188.07" gradientUnits="userSpaceOnUse"><stop offset="0" stop-color="#dddcdb"/><stop offset="0.15" stop-color="#cdcccc"/><stop offset="0.36" stop-color="#bebebe"/><stop offset="0.61" stop-color="#b6b6b5"/><stop offset="1" stop-color="#b3b3b3"/></linearGradient></defs><path class="cls-1" d="M122,114.33c-4.38-.59-9.25-.38-12.66,2.81a23.84,23.84,0,0,0-4.07,6l-4.2,7.47a1.4,1.4,0,0,0,.06,1.53,76.47,76.47,0,0,0-9.7,28.63v0h0c0,.13,0,.26-.05.4a1.21,1.21,0,0,0,.88,1.34,1.08,1.08,0,0,0,.16.3,22.45,22.45,0,0,0,4.48,4.65l.06,0a1.52,1.52,0,0,0,2.69,1,1.35,1.35,0,0,0,.61-.57,1.53,1.53,0,0,0,.1-1.28q4.76-14.56,9.53-29.15a153.85,153.85,0,0,1,13-21A1.5,1.5,0,0,0,122,114.33Z"/><path d="M124.41,112.24c-4.53-.77-9.81-1.53-13.87,1.2a17.43,17.43,0,0,0-4.76,5.58c-1.41,2.26-2.74,4.58-4,6.94a120.74,120.74,0,0,0-6.6,14.79,85,85,0,0,0-4.46,15.45,9.81,9.81,0,0,0,2,7.87c2,2.66,4.19,5.17,6.29,7.74,1.23,1.49,3.34-.64,2.13-2.12L96,163.53c-1.55-1.91-2.77-3.71-2.46-6.28a47.47,47.47,0,0,1,1.68-7c.66-2.35,1.4-4.69,2.21-7a112.19,112.19,0,0,1,5.58-13.18c1.06-2.12,2.18-4.22,3.37-6.27a46,46,0,0,1,3.86-6.06c3.31-4,8.71-3.37,13.33-2.59C125.5,115.45,126.31,112.56,124.41,112.24Z"/><path class="cls-2" d="M393.23,183c-2.11-17-8.06-33-16.46-48.69-2-3.67-3.71-7.52-6.36-10.74-5.34-6.5-9.48-13.82-15.52-19.81-3.62-3.6-8.79-5.15-12.92-8.17-2.43-1.76-4.46-4-6.74-6C331,86,326.3,84.15,321.1,82.4c-4.69-1.58-9-4.1-13.74-5.82a159.66,159.66,0,0,0-18.82-5.19c-11.32-2.64-22.68-5.28-34.23-6.65-25.85-3.07-51.57,1-76.1,9.08a84.68,84.68,0,0,0-13.1,5.73,117.59,117.59,0,0,0-26.27,19.06c-7.7,7.41-15,15.79-20.32,25.1-1.93,3.4-3.72,6.87-5.51,10.35-1.36,2.64-2.72,5.28-3.81,8a90.86,90.86,0,0,0-3.46,11.59c-2.69,10.67-6.12,21-9.06,31.62-.58,2.09-1.14,4.39-.23,6.36a2.63,2.63,0,0,0,2.09,1.67c1.27.06,2.2-1.18,2.72-2.34,1.56-3.45,1.41-7.17,2.87-10.73a74.51,74.51,0,0,1,6.36-12.17,71.29,71.29,0,0,1,29.82-26c31.18-14.35,68.59-9.37,101.23-3.64C260,141.68,277.2,146.75,293,157c10.22,6.66,20.09,12.16,28.74,21a105,105,0,0,1,29.22,60.76q.57,4.88.68,9.8a112.73,112.73,0,0,1-5.26,36.83c-2.33,7.3-5.14,14.57-9.26,21.07s-8.8,10.47-15.24,14.33q-6.51,3.9-13.3,7.3a215.21,215.21,0,0,1-54.85,18.24c-9,1.77-17.94,2.33-26.89,3.79a122.4,122.4,0,0,1-28.67,1.53c-15.47-1.15-28.15-7.3-41.77-14.17-2.67-1.35-5.23-2.9-7.82-4.4-1.26-.73-2.52-1.46-3.81-2.15a12.41,12.41,0,0,1-2.39-1.41c-.64-.55-1-1.15-1.81-1.5a.93.93,0,0,0-.73-.05c-.48.23-.31.94-.07,1.42,2.93,5.77,6.36,11.51,11.35,15.74,2.54,2.15,5.93,3.59,8.91,5,3.23,1.56,6.54,3,9.89,4.26,5.11,2,10.33,3.64,15.6,5.13,45.47,12.82,91.6,2.21,135.05-13.65,7.76-2.83,15.51-5.86,22.48-10.29,5-3.18,10.81-7.3,13.69-12.64,3-5.59,5.26-11.75,8.38-17.49,7.19-13.26,14-26.82,19.11-41a125.7,125.7,0,0,0,6.45-30.15c1-9.35,2.13-18.57,3-27.87A110.49,110.49,0,0,0,393.23,183Z"/><path class="cls-1" d="M241.54,138.44C260,141.68,277.2,146.75,293,157c10.22,6.66,20.09,12.16,28.74,21a105,105,0,0,1,29.22,60.76q.57,4.88.68,9.8a112.73,112.73,0,0,1-5.26,36.83c-1,3.08-2.06,6.15-3.28,9.17a83.08,83.08,0,0,0,9.71-18.19c6-16.14,2.9-34.1,0-50.6s-7.19-31.29-17-44.92c-8.92-12.46-20.57-23.11-33.17-31.76a6.72,6.72,0,0,1-.57-.46c-24.11-14-51.53-21.15-79.12-24.1-26.42-2.83-54.07-4-78.76,7.45-23.36,10.83-39.56,30.6-46.91,55.15A4.89,4.89,0,0,1,96,189.42a5.61,5.61,0,0,0,.48,2.25,2.63,2.63,0,0,0,2.09,1.67c1.27.06,2.2-1.18,2.72-2.34,1.56-3.45,1.41-7.17,2.87-10.73a74.51,74.51,0,0,1,6.36-12.17,71.29,71.29,0,0,1,29.82-26C171.49,127.73,208.9,132.71,241.54,138.44Z"/><path class="cls-1" d="M291.05,72.33C275.23,67.22,258,65,241.87,63.25a54.11,54.11,0,0,0-14.93.6c-13.21-1.18-26.61,2.39-39.41,6.1a3.33,3.33,0,0,0-2,1.49A2.92,2.92,0,0,0,184.5,73c-2.69,1.92-.8,7.13,3.09,6.19a235.47,235.47,0,0,1,27.1-4.94c14.55.27,29.13.19,43.61,1.79a186.44,186.44,0,0,1,25.79,4.68c8.89,2.28,13,5.62,19.74-1.81a1.25,1.25,0,0,0,.44-.85c0-.45-.49-.72-.89-.91A113.09,113.09,0,0,0,291.05,72.33Z"/><path class="cls-1" d="M146.53,91.88a134.94,134.94,0,0,0-28.07,32.52,108.34,108.34,0,0,0-9.86,19.15c-1.94,5.27-2.21,10.84-3.8,16.15-1.41,4.69-2.91,8.83-3.34,13.88a1.67,1.67,0,0,0,.14,1,1.13,1.13,0,0,0,1.59.11,3.16,3.16,0,0,0,.91-1.51c2.6-7,5.07-13.68,7.92-20.54,8.92-21.48,21.43-40.8,39.46-55.86C154.94,93.93,150,89,146.53,91.88Z"/><path class="cls-1" d="M388,157.08a3,3,0,0,0-3.37-2.49A135.91,135.91,0,0,0,377,133a2.84,2.84,0,0,0-3.86-1.56c-2.38-5.16-5-10.24-7.5-15.28-1.13-2.22-5.35-8.29-8.08-5.58-2.93,2.92,3.76,15,5.55,18.21,3,5.45,6,11,8.7,16.58,2.43,5.05,2.92,9.05,3.93,14.4,2.43,12.76,2.95,25.6,3.35,38.56a225.7,225.7,0,0,1-3,45.41c-5.69,32.81-21.28,62.24-39.51,89.48-.77,1.14-1.43,2.9-.3,3.68-.07,0,7.5-3.83,8.31-4.27a25.57,25.57,0,0,0,8-6.93,3,3,0,0,0,2.07-1.12c6.16-7.08,10.17-15.14,13.27-23.61a3.22,3.22,0,0,0,1.64-1.52c3.51-6.58,8.55-13.13,11.2-20,2.9-7.48,4-15.53,5.94-23.28a215.2,215.2,0,0,0,1.3-99.07Z"/><path class="cls-1" d="M314.92,322.81c-7.39,3.42-17.55,8.14-18.85,8.73a178.27,178.27,0,0,1-41.64,13.24c-16.94,3-34.12,5.31-51.36,4.61a108.38,108.38,0,0,1-32.75-6.06,84.49,84.49,0,0,1-15.2-7.34c-4.51-2.78-8.39-8.12-13.67-9.07-1.18,1.85.15,4.22,1.45,6,4.66,6.36,7.48,8.79,14.33,12.19a116,116,0,0,0,22.92,8.69c16,4.1,32.79,4.83,49.22,3.43a223.93,223.93,0,0,0,49.45-9.73c15.91-5.11,31.55-11.2,42.61-24.24,1-1.14,1.94-2.66,1.29-4C322.71,319.22,319.3,320.79,314.92,322.81Z"/><path class="cls-3" d="M148.63,328.86c3.29,2.49,7.36,4.27,11,6.16,9.67,5,19.83,9.39,30.65,11.12,15.44,2.47,30.52.37,45.9-1.16A203.25,203.25,0,0,0,283,334.63a216.3,216.3,0,0,0,30.71-13.51A61.12,61.12,0,0,0,336,301.84c4-5.4,6.23-12.8,8.13-19.15a112,112,0,0,0,4.1-41.8c-2.61-29.39-20.35-54.15-43.13-71.5-28.25-21.52-65.68-29.87-100.54-31.76-28.76-1.56-59.69-.2-81.83,21.2a59.57,59.57,0,0,0-13.24,18.7c-2.12,4.81-3.85,9.82-6.55,14.35-.88,1.46-2.76,5.3-4.64,5.54a2.31,2.31,0,0,1-1.61-.43,143.5,143.5,0,0,0-8.8,35.26c-2.31,21.09,1,42.86,12.46,61,8.48,13.4,21,24.39,36,29.66a1.12,1.12,0,0,1,.25-.56c1.07-1,3.3,1,4.12,1.58C143.34,325.72,146.07,326.93,148.63,328.86Z"/><path class="cls-4" d="M102.25,199.82c7.48-6.68,14.79-13.42,23.64-18.65a115.3,115.3,0,0,1,39.86-14.53c14.94-2.45,30.28-2,45.36-1.26s31.21,1.63,46,5.4c23.32,6,43.87,19.24,63,33.25a128.46,128.46,0,0,1,13.26,11.1c2.26,2.18,9.62,12.91,11.58,8.74,1.7-3.6-2.24-13.22-3.62-16.62-3.14-7.72-8.58-12.35-14.29-18-8.52-8.42-16.54-16.23-26.34-23a140.23,140.23,0,0,0-30.12-15.62c-21.06-8-43.62-11.74-66-13-28.76-1.56-59.69-.2-81.83,21.2a59.57,59.57,0,0,0-13.24,18.7c-2.12,4.81-3.85,9.82-6.55,14.35-.88,1.46-2.76,5.3-4.64,5.54a2.31,2.31,0,0,1-1.61-.43q-2,5.34-3.68,10.81C96.17,205.22,99.22,202.52,102.25,199.82Z"/><path class="cls-5" d="M317.48,288.24c-44.47,12.4-92.66,8.2-138.2,5.71-28.55-1.56-64.24-4-88.43-22a81.75,81.75,0,0,0,9.46,21.28c8.48,13.4,21,24.39,36,29.66a1.12,1.12,0,0,1,.25-.56c1.07-1,3.3,1,4.12,1.58,2.65,1.8,5.38,3,7.94,4.94,3.29,2.49,7.36,4.27,11,6.16,9.67,5,19.83,9.39,30.65,11.12,15.44,2.47,30.52.37,45.9-1.16A203.25,203.25,0,0,0,283,334.63a216.3,216.3,0,0,0,30.71-13.51A61.12,61.12,0,0,0,336,301.84c4-5.4,6.23-12.8,8.13-19.15.5-1.67,1-3.36,1.37-5.05A170.07,170.07,0,0,1,317.48,288.24Z"/><path class="cls-6" d="M348.19,240.89A88,88,0,0,0,338.44,208c-8.69,16.88-20.55,32.09-33.79,45.64-26,26.64-59.85,49-95.44,60.42-19.37,6.23-40,8.49-60.25,8.52-3.38,0-6.93,0-10.52-.21a18.35,18.35,0,0,1,2.25,1.51c2.65,1.8,5.38,3,7.94,4.94,3.29,2.49,7.36,4.27,11,6.16,9.67,5,19.83,9.39,30.65,11.12,15.44,2.47,30.52.37,45.9-1.16A203.25,203.25,0,0,0,283,334.63a216.3,216.3,0,0,0,30.71-13.51A61.12,61.12,0,0,0,336,301.84c4-5.4,6.23-12.8,8.13-19.15A112,112,0,0,0,348.19,240.89Z"/><path d="M395.43,198.57c-.11-12.26-1-23-4.47-34.91a147.78,147.78,0,0,0-16-36.33c-11.2-18-26.95-33.46-45.94-43a163.82,163.82,0,0,0-21.94-8.69C285,68.4,262.22,63,239,62.21c-28.34-1-58.29,6-82.53,20.94a118.05,118.05,0,0,0-41.66,44.18,167.15,167.15,0,0,0-13.64,33.11,160.76,160.76,0,0,0-4,17.48c-.9,5.28-3.3,9.78-2.67,15.41a3.51,3.51,0,0,0,.1.53c-8.7,21.89-13.05,46.08-8.94,69.49,3.45,19.6,13.5,38.11,29,50.74a68.47,68.47,0,0,0,21.76,12.05,16.3,16.3,0,0,0,1,3.77,32.67,32.67,0,0,0,3.85,6.71,60.26,60.26,0,0,0,8.27,9.63,41.37,41.37,0,0,0,10,7.17,150.52,150.52,0,0,0,18.7,7.18,155.57,155.57,0,0,0,22.61,5.6c10.95,1.7,22.36,2.81,33.4,1.15,4.3-.65,8.44-.77,12.76-1.22,14.63-1.54,28.46-5.29,42.8-8.83,13.11-3.24,25.73-8.17,38.28-13.16,15-6,25.69-13.23,34.06-27.1,7.26-19.12,21.71-35.57,27.22-55.17C395.22,241.32,395.63,219.77,395.43,198.57ZM99.89,178.79c2.69-9.18,5.32-18.4,8.54-27.41,2.43-6.83,4.55-13.9,7.88-20.38a116,116,0,0,1,15.84-23.35c22.21-25.38,54.68-39.34,87.91-42l-1.31,1.18a1.52,1.52,0,0,0-.44,1.06,1.5,1.5,0,0,0,1.5,1.5,1.63,1.63,0,0,0,1.06-.44l2.82-2.54a1.51,1.51,0,0,0,.44-1c2-.1,4-.17,5.93-.19a42.3,42.3,0,0,0-8.83,7.38q-6,6.28-11.56,13.06A216.82,216.82,0,0,0,190.09,114q-4.92,8.51-9.05,17.44a1.52,1.52,0,0,0,.09,1.5c-1.38.06-2.75.15-4.13.26v-.58a1,1,0,0,0-.13-.57,1.34,1.34,0,0,0-.79-.8,1.27,1.27,0,0,0-.58-.13l-.4.06a1.57,1.57,0,0,0-.66.38l-.23.31a1.42,1.42,0,0,0-.21.75v.83a104.09,104.09,0,0,0-33.69,8.67,71.29,71.29,0,0,0-29.82,26,74.55,74.55,0,0,0-8.58,18.35c-.55,1.78-1.47,6.87-3.28,3.54S99,181.94,99.89,178.79Zm36.68,143.55a1.12,1.12,0,0,0-.25.56c-15-5.27-27.53-16.26-36-29.66-11.47-18.13-14.77-39.9-12.46-61A143.5,143.5,0,0,1,96.65,197a2.31,2.31,0,0,0,1.61.43c1.88-.24,3.76-4.08,4.64-5.54,2.7-4.53,4.43-9.54,6.55-14.35a59.57,59.57,0,0,1,13.24-18.7c22.14-21.4,53.07-22.76,81.83-21.2,34.86,1.89,72.29,10.24,100.54,31.76,22.78,17.35,40.52,42.11,43.13,71.5a112,112,0,0,1-4.1,41.8c-1.9,6.35-4.17,13.75-8.13,19.15a61.12,61.12,0,0,1-22.27,19.28A216.3,216.3,0,0,1,283,334.63,203.25,203.25,0,0,1,236.2,345c-15.38,1.53-30.46,3.63-45.9,1.16-10.82-1.73-21-6.12-30.65-11.12-3.66-1.89-7.73-3.67-11-6.16-2.56-1.93-5.29-3.14-7.94-4.94C139.87,323.36,137.64,321.36,136.57,322.34ZM391.76,213.9c-.26,16.74-1.8,34.76-7.56,50.62-6,16.39-14.64,32.32-23.49,47.3-10.59,17.93-29.19,28.79-48.87,34.82-11.36,3.48-22.76,6.87-34.29,9.76-21.62,5.4-43.89,9-66.23,7.81v-.29a.73.73,0,0,0-.08-.38.94.94,0,0,0-.53-.53.86.86,0,0,0-.39-.09,1,1,0,0,0-.7.3,1,1,0,0,0-.3.7v.18L208,364a113.55,113.55,0,0,1-22.5-4.42c-1.63-.46-3.25-.93-4.86-1.43a147.52,147.52,0,0,1-20.53-7.92c-.74,0-2.09-1.1-2.73-1.47-.88-.53-1.73-1.09-2.56-1.69a37.29,37.29,0,0,1-4.66-3.95c-2.74-2.72-5.78-5.7-7.83-9-.88-1.43-2.37-3.38-2.17-5.14.17-1.46,2.15.74,2.65,1,1.55.8,3.09,1.61,4.61,2.48,3,1.7,5.9,3.51,9,5.06,13.62,6.87,26.3,13,41.77,14.17,3.35.25,6.7.32,10.06.24V353a1,1,0,0,0,.29.7,1,1,0,0,0,1.41,0,1,1,0,0,0,.3-.7v-1.13c3.86-.15,7.71-.49,11.55-1v1a1,1,0,0,0,.29.7,1,1,0,0,0,1.42,0,1.05,1.05,0,0,0,.29-.7v-1.25c1-.15,2-.29,3.06-.46,8.95-1.46,17.9-2,26.89-3.79a215.21,215.21,0,0,0,54.85-18.24q6.78-3.39,13.3-7.3C328.29,317,333,313,337.09,306.51s6.93-13.77,9.26-21.07a112.73,112.73,0,0,0,5.26-36.83q-.11-4.92-.68-9.8a105,105,0,0,0-29.22-60.76c-8.65-8.85-18.52-14.35-28.74-21A106.43,106.43,0,0,0,282.3,151l.25-.75a1.11,1.11,0,0,0,0-.6,1,1,0,0,0-.17-.56,1.31,1.31,0,0,0-.39-.42,1.14,1.14,0,0,0-.51-.27l-.4-.05a1.57,1.57,0,0,0-.76.2l-.3.24a1.47,1.47,0,0,0-.39.66l-.08.24c-12-5.55-24.68-8.87-38-11.21-18.43-3.23-38.37-6.23-57.86-5.64A213.62,213.62,0,0,1,221,77.22C225,72.84,229.36,68,235.2,66.08a1.49,1.49,0,0,0,.91-.82,143.79,143.79,0,0,1,15,1.21c12.18,1.63,24.58,2.94,36.41,6.43A270.24,270.24,0,0,1,318.87,84a1.58,1.58,0,0,0-.15.12l-2,1.69a1.14,1.14,0,0,0-.31.48,1.08,1.08,0,0,0-.13.58,1.06,1.06,0,0,0,.13.58,1,1,0,0,0,.31.48,1.46,1.46,0,0,0,1.06.44l.4,0a1.49,1.49,0,0,0,.66-.39l2-1.69a1.14,1.14,0,0,0,.31-.48,1.06,1.06,0,0,0,.13-.58v-.09c2.51,1.13,5,2.31,7.54,3.59,21.57,10.95,38.48,30.83,49.39,52,6,11.57,10.4,22.44,12.18,35.48C392.1,188.62,392,201.3,391.76,213.9Z"/><path d="M311.82,81.39a132.61,132.61,0,0,0-39.69,64.26,1.51,1.51,0,0,0,2.9.8,129.23,129.23,0,0,1,38.91-62.93C315.39,82.23,313.26,80.11,311.82,81.39Z"/><path d="M215.76,72.54a1.47,1.47,0,0,0-.89-.69l-.4-.06a1.45,1.45,0,0,0-.76.21,7.06,7.06,0,0,0-3.13,2.76,1.56,1.56,0,0,0-.15,1.16,1.49,1.49,0,0,0,.69.89,1.46,1.46,0,0,0,1.15.15,1.55,1.55,0,0,0,.9-.69,3.06,3.06,0,0,1,.21-.29,4.27,4.27,0,0,1,1.84-1.39,1.24,1.24,0,0,0,.43-.39,1,1,0,0,0,.26-.51A1.49,1.49,0,0,0,215.76,72.54Z"/><path d="M207.58,80.11a1.46,1.46,0,0,0-1.06-.44,1.4,1.4,0,0,0-1.06.44l-2,2.52a1.24,1.24,0,0,0-.31.48,1.27,1.27,0,0,0-.13.58,1.54,1.54,0,0,0,.44,1.06,1.52,1.52,0,0,0,1.06.44,1.48,1.48,0,0,0,1.07-.44l2-2.52a1.11,1.11,0,0,0,.31-.49,1,1,0,0,0,.13-.57A1.5,1.5,0,0,0,207.58,80.11Z"/><path d="M200.84,88.88a1.56,1.56,0,0,0-1.06-.44,1.54,1.54,0,0,0-1.06.44l-2.26,2.55a1.59,1.59,0,0,0-.44,1.06,1.53,1.53,0,0,0,.44,1.06,1.56,1.56,0,0,0,1.06.44,1.52,1.52,0,0,0,1.06-.44L200.84,91a1.63,1.63,0,0,0,.44-1.07A1.53,1.53,0,0,0,200.84,88.88Z"/><path d="M193.85,99.13a1.56,1.56,0,0,0-.69-.9,1.5,1.5,0,0,0-2,.54l-1.4,2.55a1.61,1.61,0,0,0-.15,1.16,1.57,1.57,0,0,0,.69.89,1.5,1.5,0,0,0,2.05-.54l1.4-2.55A1.59,1.59,0,0,0,193.85,99.13Z"/><path d="M188.86,108.58a1.54,1.54,0,0,0-.44-1.06,1.52,1.52,0,0,0-1.06-.44,1.59,1.59,0,0,0-1.06.44,9.68,9.68,0,0,0-2.21,3.13,1.12,1.12,0,0,0-.18.56,1.22,1.22,0,0,0,0,.6,1.5,1.5,0,0,0,.69.89,1.47,1.47,0,0,0,1.16.15,1.46,1.46,0,0,0,.89-.68,8.87,8.87,0,0,1,1-1.69,8.72,8.72,0,0,1,.76-.84A1.54,1.54,0,0,0,188.86,108.58Z"/><path d="M183,118.35a1.56,1.56,0,0,0,.44-1.06,1.5,1.5,0,0,0-.44-1.06,1.46,1.46,0,0,0-1.06-.44,1.47,1.47,0,0,0-1.06.44,10.71,10.71,0,0,0-2.29,3.82,1.5,1.5,0,0,0,1,1.85,1.54,1.54,0,0,0,1.15-.16,1.61,1.61,0,0,0,.69-.89l.12-.32a9.31,9.31,0,0,1,1-1.7C182.73,118.67,182.86,118.5,183,118.35Z"/><path d="M178.07,126.16a1.09,1.09,0,0,0-.18-.55,1.54,1.54,0,0,0-.89-.69,1.51,1.51,0,0,0-1.16.15,1.57,1.57,0,0,0-.69.89c-.19.66-.37,1.32-.56,2a1.22,1.22,0,0,0,0,.6,1.16,1.16,0,0,0,.18.56,1.21,1.21,0,0,0,.39.42,1.14,1.14,0,0,0,.51.27,1.59,1.59,0,0,0,1.15-.15,1.63,1.63,0,0,0,.69-.9l.57-2A1.11,1.11,0,0,0,178.07,126.16Z"/><path d="M315,91.44a1,1,0,0,0-.17-.55l-.24-.31a1.51,1.51,0,0,0-.66-.38l-.4-.06a1.48,1.48,0,0,0-.76.21l-1.12.84a1.24,1.24,0,0,0-.43.39,1.13,1.13,0,0,0-.26.51,1,1,0,0,0,0,.6,1.16,1.16,0,0,0,.18.56l.23.3a1.59,1.59,0,0,0,.66.39l.4,0a1.45,1.45,0,0,0,.76-.21l1.13-.84a1.31,1.31,0,0,0,.42-.39A1.14,1.14,0,0,0,315,92,1.11,1.11,0,0,0,315,91.44Z"/><path d="M309.93,96.31a1.5,1.5,0,0,0-.69-.89,1.46,1.46,0,0,0-1.15-.15,6.26,6.26,0,0,0-.93.38,3.71,3.71,0,0,0-.54.33,6.43,6.43,0,0,0-.76.62,6.06,6.06,0,0,0-.63.79,1.09,1.09,0,0,0-.18.55,1.11,1.11,0,0,0,0,.6,1.14,1.14,0,0,0,.27.51,1.31,1.31,0,0,0,.42.39,1.56,1.56,0,0,0,1.16.15l.36-.15a1.49,1.49,0,0,0,.41-.38,3.91,3.91,0,0,1,.58-.57,3.6,3.6,0,0,1,.5-.29l.11,0a1.59,1.59,0,0,0,.9-.69,1.12,1.12,0,0,0,.18-.56A1.22,1.22,0,0,0,309.93,96.31Z"/><path d="M303.42,103a1.11,1.11,0,0,0-.31-.48,1.47,1.47,0,0,0-1.06-.44,1.44,1.44,0,0,0-1.06.44l-1.72,2a1.11,1.11,0,0,0-.31.49,1.14,1.14,0,0,0-.13.57,1.15,1.15,0,0,0,.13.58,1.11,1.11,0,0,0,.31.49,1.51,1.51,0,0,0,1.06.43,1.49,1.49,0,0,0,1.06-.43c.57-.66,1.15-1.31,1.72-2a1.21,1.21,0,0,0,.31-.49,1.22,1.22,0,0,0,.13-.57A1.27,1.27,0,0,0,303.42,103Z"/><path d="M298.88,110.69a1.26,1.26,0,0,0-.27-.51,1.18,1.18,0,0,0-.42-.38,1.47,1.47,0,0,0-1.16-.15l-.36.15a1.55,1.55,0,0,0-.54.54L295,112a1.69,1.69,0,0,0-.16,1.15,1.14,1.14,0,0,0,.27.51,1.12,1.12,0,0,0,.42.39,1.52,1.52,0,0,0,1.16.15l.36-.15a1.55,1.55,0,0,0,.54-.54l1.11-1.7a1.73,1.73,0,0,0,.16-1.16Z"/><path d="M295,117.22a1.49,1.49,0,0,0-.69-.9,1.45,1.45,0,0,0-1.15-.15l-.36.15a1.47,1.47,0,0,0-.54.54l-1.5,2.2a1.09,1.09,0,0,0-.18.55,1.22,1.22,0,0,0,0,.6,1.5,1.5,0,0,0,1.85,1.05l.35-.15a1.47,1.47,0,0,0,.54-.54l1.5-2.2a1.12,1.12,0,0,0,.18-.56A1,1,0,0,0,295,117.22Z"/><path d="M290.18,124.85a1.52,1.52,0,0,0-.69-.9,1.54,1.54,0,0,0-1.15-.15,1.43,1.43,0,0,0-.9.69c-.4.84-.79,1.68-1.19,2.51a1.16,1.16,0,0,0-.18.56,1.22,1.22,0,0,0,0,.6,1.51,1.51,0,0,0,.69.9,1.54,1.54,0,0,0,1.15.15,1.47,1.47,0,0,0,.9-.69L290,126a1.09,1.09,0,0,0,.18-.55A1.22,1.22,0,0,0,290.18,124.85Z"/><path d="M287.38,133.9a1.56,1.56,0,0,0-.69-.9,1.5,1.5,0,0,0-2.05.54c-.38.75-.76,1.5-1.13,2.25a1.52,1.52,0,0,0-.15,1.16,1.51,1.51,0,0,0,.68.9,1.56,1.56,0,0,0,1.16.15,1.52,1.52,0,0,0,.9-.69l1.13-2.26A1.59,1.59,0,0,0,287.38,133.9Z"/><path d="M283.81,144.07a1.61,1.61,0,0,0,.15-1.16,1.57,1.57,0,0,0-.69-.89,1.5,1.5,0,0,0-2,.54,9.51,9.51,0,0,0-1.05,3.58,1.44,1.44,0,0,0,.44,1.06,1.54,1.54,0,0,0,1.06.44,1.56,1.56,0,0,0,1.06-.44l.23-.31a1.39,1.39,0,0,0,.18-.53,8.38,8.38,0,0,1,.54-2C283.72,144.25,283.76,144.16,283.81,144.07Z"/><path d="M361,296a1,1,0,0,0-1.23.7,28.26,28.26,0,0,1-5.59,8.49c-.88.93.53,2.34,1.42,1.41a30.91,30.91,0,0,0,6.1-9.37A1,1,0,0,0,361,296Z"/><path d="M124.92,123.79a29.61,29.61,0,0,0-8.63,16.61c-.2,1.26,1.73,1.8,1.93.53a27.82,27.82,0,0,1,8.12-15.72C127.26,124.31,125.85,122.9,124.92,123.79Z"/><path d="M384.85,215.22c-.11-1.27-2.11-1.28-2,0a71.15,71.15,0,0,1-.73,18.55c-.21,1.26,1.71,1.8,1.93.53A73.48,73.48,0,0,0,384.85,215.22Z"/><path d="M380,231a1.08,1.08,0,0,0-.29-.7,1,1,0,0,0-1.71.7,12.88,12.88,0,0,1,0,2.24c0,.17,0,.34,0,.51s0,.09,0,.14,0,.18,0,.28c-.07.37-.15.73-.24,1.09a1,1,0,0,0,.7,1.23,1,1,0,0,0,1.23-.7A13.1,13.1,0,0,0,380,231Z"/><path d="M379.66,251.49A66.23,66.23,0,0,1,372,274.54c-.62,1.13,1.11,2.14,1.73,1A67.87,67.87,0,0,0,381.59,252C381.76,250.76,379.84,250.22,379.66,251.49Z"/><path class="cls-1" d="M385.09,161.54c-2.21-8.59-8-18.48-17.67-19.41-10.45-1-19.19,8.46-21.78,17.75-2.08,7.46-.15,16.48.12,24.08A36.37,36.37,0,0,0,350,199.8c2.47,4.54,4.18,9,8.89,11.88,6.09,3.66,15.77,1.37,20.77-3.31,3.76-3.53,5.91-8.52,6.83-13.6,1-5.47.57-10.75,0-16.16C385.87,172.84,386.57,167.29,385.09,161.54Z"/><path class="cls-7" d="M375.5,209.45v0a1,1,0,0,0-1-1l-4.54,0a1,1,0,0,0-.72-.38c-6.91-.66-12.11-6.22-14.92-12.2A50.8,50.8,0,0,1,351,185c-.84-3.84-1.59-7.72-2.21-11.6a49.92,49.92,0,0,1-.49-14.28c.17-1.27-1.83-1.26-2,0a41.22,41.22,0,0,0-.31,4.44.76.76,0,0,0-.21,0,1,1,0,0,0-2,.1,78.92,78.92,0,0,0,2.18,21.18,1,1,0,0,0-.07.54,54.32,54.32,0,0,0,3.9,13.55,53.56,53.56,0,0,0,2.9,5.64,1,1,0,0,0-.44,1.1,9.69,9.69,0,0,0,6.81,5.9,1.21,1.21,0,0,0,.65-.07,14.37,14.37,0,0,0,2.93.83,28.53,28.53,0,0,0,13.14-.91A1,1,0,0,0,375.5,209.45Z"/><path d="M377.94,144.78a18.67,18.67,0,0,0-14.24-4.68,22.54,22.54,0,0,0-15.5,9.28c-4.19,5.58-6.1,12.46-6.5,19.36a83.12,83.12,0,0,0,2.69,24.1c1.67,6.84,4.72,13.58,10.4,18,11.61,9.06,30.53,2.55,33-12.1,1.64-9.88,1.35-20.52.68-30.47a38.33,38.33,0,0,0-2-11.07A30.74,30.74,0,0,0,377.94,144.78Zm-1.26,63.07c-4.66,3.17-10.62,4.62-16,2.32-5.58-2.4-9.28-7.79-11.29-13.33a77.42,77.42,0,0,1-3.94-20.52c-.5-6.74-.09-13.78,2.82-20,2.61-5.55,7.1-10.54,13.21-12.13,8.66-2.26,15.79,3.19,19.56,10.64,4.78,9.45,4.44,20.41,4.54,30.75C385.69,194.72,384.59,202.47,376.68,207.85Z"/><path class="cls-8" d="M393.87,163.3c-2-7.62-7.08-16.41-15.69-17.23-9.28-.89-17,7.5-19.34,15.76-1.84,6.62-.13,14.63.11,21.38a32.12,32.12,0,0,0,3.79,14.06c2.2,4,3.71,8,7.9,10.55,5.4,3.25,14,1.22,18.44-2.94a21.71,21.71,0,0,0,6.06-12.07c.88-4.86.51-9.54,0-14.35C394.57,173.33,395.19,168.4,393.87,163.3Z"/><path d="M387.52,148.42a16.54,16.54,0,0,0-12.64-4.15,19.94,19.94,0,0,0-13.76,8.24c-3.73,5-5.42,11.06-5.77,17.18a73.69,73.69,0,0,0,2.38,21.41c1.48,6.07,4.2,12.06,9.23,16,10.32,8,27.12,2.27,29.28-10.75,1.46-8.77,1.21-18.22.61-27.06a34,34,0,0,0-1.75-9.82A27.22,27.22,0,0,0,387.52,148.42Zm-1.11,56c-4.15,2.81-9.43,4.1-14.19,2-5-2.13-8.24-6.91-10-11.83a68.89,68.89,0,0,1-3.49-18.22c-.45-6-.08-12.24,2.51-17.74,2.31-4.93,6.3-9.37,11.72-10.78,7.7-2,14,2.83,17.37,9.45,4.25,8.4,3.95,18.13,4,27.3C394.41,192.77,393.43,199.65,386.41,204.43Z"/><path d="M323.1,162.05c-14.27-15.7-33.24-26.24-53.21-32.88a201.86,201.86,0,0,0-32-7.62,219,219,0,0,0-34.59-2.91c-21.82,0-44,4.06-63.29,14.59-16.51,9-31,22.63-39.16,39.72-1.55,3.22-4.31,6.91-3.52,10.7,3.59-2.33,5.14-7.34,7-10.93a77.86,77.86,0,0,1,8.56-13.2A92.68,92.68,0,0,1,136.17,139c17.77-11.13,38.54-16.19,59.34-17.15a199.35,199.35,0,0,1,34,1.54,218,218,0,0,1,31.71,6.3c19.86,5.58,39.15,14.67,54.27,28.93,13.89,13.1,24.32,30.34,27.23,49.38.48,3.16,0,7.26,1.86,10,.11.15.26.32.44.3s.3-.27.35-.48c2.23-9.61-1.46-20.58-5.21-29.41A94.2,94.2,0,0,0,323.1,162.05Z"/><path d="M361.1,120.18a28.39,28.39,0,0,0-8.42-8.86,1,1,0,0,0-1.37.36,1,1,0,0,0,.36,1.36,26,26,0,0,1,7.7,8.14A1,1,0,0,0,361.1,120.18Z"/><path d="M366.32,129.24l-.75-1.5a1,1,0,0,0-.6-.46.78.78,0,0,0-.4,0,.81.81,0,0,0-.37.12,1,1,0,0,0-.46.6l0,.26a1,1,0,0,0,.14.51l.75,1.5a1,1,0,0,0,.6.46.78.78,0,0,0,.4,0,.81.81,0,0,0,.37-.12,1,1,0,0,0,.46-.6l0-.26A1,1,0,0,0,366.32,129.24Z"/><path d="M356,201.56c-.29-.42-.56-.84-.82-1.28l0-.07,0-.06c-.06-.12-.12-.24-.19-.36s-.21-.42-.3-.64a16,16,0,0,1-1-2.77,1,1,0,0,0-1.3-.56,1,1,0,0,0-.56,1.3,17,17,0,0,0,2.61,5.63,1,1,0,0,0,1.39.21A1,1,0,0,0,356,201.56Z"/><path d="M392.73,180.47a1,1,0,0,0-2,0,29.45,29.45,0,0,1-.31,6.89,1,1,0,0,0,.7,1.23,1,1,0,0,0,1.23-.7A31.82,31.82,0,0,0,392.73,180.47Z"/><path d="M390.34,194.64a1,1,0,0,0-1.83.24,6,6,0,0,1-.25.92,1.8,1.8,0,0,1-.08.21,0,0,0,0,0,0,0c-.07.15-.15.3-.22.44l-.24.4c-.06.09-.12.19-.19.28l0,.05-.07.08-.17.19c-.11.12-.22.24-.34.35a1,1,0,0,0,1.41,1.41,7.18,7.18,0,0,0,2.13-3.83A1.08,1.08,0,0,0,390.34,194.64Z"/><path d="M98.05,152.52a1,1,0,0,0-1.23.7c-.27,1-.54,2-.8,3a1,1,0,0,0,.7,1.23,1,1,0,0,0,1.23-.7l.79-3A1,1,0,0,0,98.05,152.52Z"/><path d="M131.16,117.71s0,.06.06-.06h0Z"/><path d="M132.51,115.7a1,1,0,0,0-1.37-.35,8.17,8.17,0,0,0-2.25,1.75,9,9,0,0,0-1.62,2.6,1,1,0,0,0,1.47,1.13,1.25,1.25,0,0,0,.46-.6c-.13.3,0,0,.05-.11s.09-.19.14-.28.2-.36.31-.53.2-.28.3-.42l0,0,0,0h0l.09-.1a2.57,2.57,0,0,1,.21-.24c.14-.15.28-.3.43-.44l.39-.33.05,0h0l.11-.07a2.11,2.11,0,0,1,.27-.18,6.16,6.16,0,0,1,.55-.33A1,1,0,0,0,132.51,115.7Z"/><path d="M130,118.84l0,0,0-.07h0Z"/><path d="M326.62,157.65a70,70,0,0,0-6-5.72,1,1,0,0,0-1.41,1.41,73.12,73.12,0,0,1,6,5.72,1,1,0,0,0,1.41,0A1,1,0,0,0,326.62,157.65Z"/><path d="M333.17,166.52,332,163.89a1,1,0,0,0-.6-.46,1,1,0,0,0-.77.1,1,1,0,0,0-.46.6l0,.26a1.15,1.15,0,0,0,.14.51c.38.88.75,1.76,1.13,2.63a1,1,0,0,0,1.37.36,1,1,0,0,0,.46-.6l0-.26A1,1,0,0,0,333.17,166.52Z"/><path d="M211,359.5c-.13-.5-.26-1-.4-1.5a1,1,0,0,0-.46-.59.63.63,0,0,0-.37-.12.68.68,0,0,0-.4,0,1,1,0,0,0-.6.46,1.08,1.08,0,0,0-.1.77c.14.5.27,1,.4,1.5a1,1,0,0,0,.46.59.65.65,0,0,0,.37.12.68.68,0,0,0,.4,0,.93.93,0,0,0,.6-.46A1,1,0,0,0,211,359.5Z"/><path d="M224,355.26a.78.78,0,0,0-.21-.33.83.83,0,0,0-.32-.2.86.86,0,0,0-.39-.09,1,1,0,0,0-.7.29,1.06,1.06,0,0,0-.3.71v1.13a.86.86,0,0,0,.09.39.94.94,0,0,0,.53.53.73.73,0,0,0,.38.08,1,1,0,0,0,.71-.29,1.05,1.05,0,0,0,.29-.71v-1.13A.71.71,0,0,0,224,355.26Z"/><path d="M225.17,361.28a1,1,0,0,0-.92-.61,1,1,0,0,0-.7.29,1,1,0,0,0-.3.71v1.13a.85.85,0,0,0,.09.38.75.75,0,0,0,.21.32.69.69,0,0,0,.32.21.85.85,0,0,0,.38.09,1,1,0,0,0,.71-.3,1,1,0,0,0,.29-.7v-1.13A.74.74,0,0,0,225.17,361.28Z"/><path d="M333.34,328.92a6.67,6.67,0,0,0-5.94-4.9,1,1,0,0,0-.44.09c-2.55.13-4.29,2.8-5,5-.8,2.64-.18,5.64,2.5,6.91a6.43,6.43,0,0,0,6.57-.81A6,6,0,0,0,333.34,328.92Zm-2.91,4.24a4.68,4.68,0,0,1-4.28,1.38,3.2,3.2,0,0,1-2.11-1.46,3.82,3.82,0,0,1-.34-2.49c.29-1.76,1.56-4.63,3.71-4.48a1.19,1.19,0,0,0,.26-.05,4.61,4.61,0,0,1,3.56,2.85A3.87,3.87,0,0,1,330.43,333.16Z"/><path d="M152.13,337h0l0,0h0Z"/><path d="M158.25,339.18a.71.71,0,0,0-.16-.34h0a1,1,0,0,0,.13-.51V338a1,1,0,0,0-1-1l-.26,0a1,1,0,0,0-.44.26l-.16.2a1,1,0,0,0-.14.51v.37a.86.86,0,0,0,.09.39.53.53,0,0,0,.13.2,1.16,1.16,0,0,0-.14.8v0c0,.06,0,.12,0,.17s0,.25,0,.37c0-.22,0,.14,0,.18s-.07.24-.11.36l0,.07-.06.11c0,.08-.08.16-.13.24s-.11.18-.17.27a1.54,1.54,0,0,0-.17.19l-.27.26-.1.09-.06,0a3.81,3.81,0,0,1-.52.29s-.2.08-.23.08l-.29.07-.26,0h-.3l-.14,0-.34-.1h0l-.12-.06-.3-.18-.13-.09,0,0-.2-.17-.24-.26,0-.05-.07-.1a4.71,4.71,0,0,1-.32-.58l0-.13c0-.12-.07-.23-.09-.34l0-.16h0a2,2,0,0,1,0-.35s0-.23,0-.24l.06-.27a1,1,0,0,0-.08-.71v0a4.74,4.74,0,0,1,.23-.84,4,4,0,0,1,.44-.78c0,.06,0,0,0,0h0l.07-.08,0,.06a1.43,1.43,0,0,1,.15-.18,4.59,4.59,0,0,1,.39-.37,1,1,0,0,0,.29-.71,1,1,0,0,0-.29-.7,1,1,0,0,0-1.41,0,5.39,5.39,0,0,0-1.86,4.07.85.85,0,0,0,.08.35,4.69,4.69,0,0,0,2.37,4.58,4.32,4.32,0,0,0,5.58-1.42A4.38,4.38,0,0,0,158.25,339.18Z"/><g class="cls-9"><path class="cls-10" d="M135.22,168.62a4.4,4.4,0,0,0-4.52-1.79c-5.64,1.06-10.09,7.16-13.28,11.53a67.82,67.82,0,0,0-8.49,15.83,107.49,107.49,0,0,0-6.16,28.67,109.15,109.15,0,0,0,0,18.26c.44,5.32.33,11.41,3.24,16.11,1.34,2.15,3.24,3.49,5.81,3.18,6-.71,2.72-8.21,2.4-11.85a187.81,187.81,0,0,1-1-21.86c.25-9,1.63-18.16,5.08-26.52,3.29-8,8.34-16.83,14.43-22.87a10.6,10.6,0,0,0,3.12-4.76A4.77,4.77,0,0,0,135.22,168.62Z"/><path class="cls-10" d="M129.55,286.88a5.52,5.52,0,0,0-1.43-2.63l-.67-.75-.36-.44s-.3-.38-.34-.41a26.73,26.73,0,0,1-4.2-8,39.19,39.19,0,0,0-1.34-4.4,5.11,5.11,0,0,0-4.23-3.09c-5.35-.4-6,6.51-5.12,10.32a27.61,27.61,0,0,0,3.7,8c1.56,2.53,3.36,5.13,6.08,6.35C125.76,293.71,130.28,290.61,129.55,286.88Z"/><path class="cls-10" d="M337,270.8a8.28,8.28,0,0,0-.24-2.21,3.62,3.62,0,0,0-.85-1.56l-.19-.18a4.26,4.26,0,0,0-.68-.5l-.37-.16a4.29,4.29,0,0,0-4.17-1.22c-2.22.64-4.07,2.72-5.3,4.57-2.62,3.93-3.66,8.84-5.48,13.15-4,9.39-9.64,18.23-17.69,24.61a40.56,40.56,0,0,1-10.2,5.94l-1.59.5a21.08,21.08,0,0,0-2.41.86l0,0a2.39,2.39,0,0,0-1,.5l-.08,0a2.34,2.34,0,0,0-1.12.32,4.36,4.36,0,0,0-1.35,1.32,1.35,1.35,0,0,0-.16.29,5.45,5.45,0,0,0-.36.9,7.66,7.66,0,0,0-.14,1,2.29,2.29,0,0,0,0,.37,4.66,4.66,0,0,0,.24,1.33,7.26,7.26,0,0,0,.38.86,4.79,4.79,0,0,0,.57.77,3.63,3.63,0,0,0,1.08.87,4.87,4.87,0,0,0,2.82.61,8.48,8.48,0,0,0,1.09-.17,7.46,7.46,0,0,0,.89-.35c9.57-.57,18.32-6.31,25.21-12.63a67.47,67.47,0,0,0,16.44-23.48,65.11,65.11,0,0,0,4-13.5,2.55,2.55,0,0,0,.26-.61A8.27,8.27,0,0,0,337,270.8Z"/><path class="cls-10" d="M339,236.19c-.09-3.95,0-11.05-5.55-11.25a4.06,4.06,0,0,0-1.7.31,3.34,3.34,0,0,0-1.35.39,5.6,5.6,0,0,0-2.69,4.66c0,.26,0,.53-.05.79a73.29,73.29,0,0,0-.72,13.32c.09,2.22.54,4.55,2.71,5.65s4.74.27,6.41-1.28C339.34,245.75,339.11,240.28,339,236.19Z"/></g><path class="cls-11" d="M114.38,120a1.5,1.5,0,0,0-2.56-1.06A32.27,32.27,0,0,0,107.5,126a1.56,1.56,0,0,0,.54,2.06,1.53,1.53,0,0,0,2-.54,31.57,31.57,0,0,1,1.79-3.47c.34-.56.69-1.11,1.06-1.64.19-.27.37-.54.57-.8s.19-.27.29-.39c-.23.28.1-.13.14-.18A1.61,1.61,0,0,0,114.38,120Z"/><path class="cls-11" d="M369.53,152.65A20.24,20.24,0,0,0,362,167.6a1.54,1.54,0,0,0,1.27,1.7,1.52,1.52,0,0,0,1.7-1.27,17.39,17.39,0,0,1,6.41-13C372.83,153.85,371,151.44,369.53,152.65Z"/><path class="cls-11" d="M364.87,175.69c0-.11,0-.22-.06-.33a9.83,9.83,0,0,1,0-2.1,1.46,1.46,0,0,0-.44-1.06,1.5,1.5,0,0,0-1.06-.44,1.47,1.47,0,0,0-1.06.44l-.23.3a1.45,1.45,0,0,0-.21.76,11,11,0,0,0,.18,3.23,1.5,1.5,0,0,0,.69.89,1.52,1.52,0,0,0,1.16.15,1.47,1.47,0,0,0,.89-.69A1.64,1.64,0,0,0,364.87,175.69Z"/><path class="cls-11" d="M171,120.34a28.46,28.46,0,0,0-14.88,3.6c-1.68.94-.17,3.53,1.52,2.59A25.45,25.45,0,0,1,171,123.34C172.92,123.41,172.91,120.41,171,120.34Z"/><path class="cls-11" d="M145.35,128.87a1.51,1.51,0,0,0-1.84-1.05l-5.66,2.24a1.62,1.62,0,0,0-.9.69,1.59,1.59,0,0,0-.15,1.15,1.52,1.52,0,0,0,1.85,1l5.66-2.24a1.59,1.59,0,0,0,.89-.68A1.52,1.52,0,0,0,145.35,128.87Z"/><path class="cls-11" d="M211,96.5a1.51,1.51,0,0,0-2.12,0,51.4,51.4,0,0,0-8.13,11.61,1.53,1.53,0,0,0,.54,2,1.51,1.51,0,0,0,2.05-.54,48.65,48.65,0,0,1,7.66-11A1.53,1.53,0,0,0,211,96.5Z"/><path class="cls-11" d="M281.48,108A130.41,130.41,0,0,0,272,124.49a1.55,1.55,0,0,0,.54,2.06,1.52,1.52,0,0,0,2.05-.54,129.83,129.83,0,0,1,9.45-16.48C285.15,107.93,282.56,106.42,281.48,108Z"/></svg>