<?xml version="1.0" encoding="UTF-8"?>
<svg id="Headwear" xmlns="http://www.w3.org/2000/svg" viewBox="0 0 500 500">
  <defs>
    <style>
      .cls-1 {
        fill: #fbfaf9;
      }

      .cls-2 {
        fill: #dcdbda;
      }

      .cls-3 {
        opacity: .39;
      }

      .cls-4 {
        fill: #6892a7;
      }

      .cls-4, .cls-5, .cls-6 {
        opacity: .59;
      }

      .cls-5 {
        fill: #7babc8;
      }

      .cls-6 {
        fill: #86bcdc;
      }
    </style>
  </defs>
  <g>
    <path class="cls-1" d="M241.54,138.44c18.45,3.24,35.66,8.31,51.44,18.6,10.21,6.66,20.08,12.16,28.74,21.01,8.11,8.29,14.79,17.89,19.76,28.3,1.14,2.39,13.04,5.51,15.75,6.74,5.01,2.26,10.17,2.81,15.64,3.68,3.23,.52,6.47,1.03,9.65,1.79,1.92,.46,3.85,1,5.82,.98s4.05-.73,5.21-2.32c1-1.37,1.19-3.16,1.2-4.85,.04-5.04-.63-10.01-.69-15.07-.06-4.77-.83-9.59-.83-14.32-.72-5.84-2.27-12.19-2.27-18.06-1.51-11.01-3.07-22.35-6.82-32.77-4.14-11.49-8.62-22.87-13.43-34.1-4.23-9.89-11.58-16.25-17.7-24.86-6.04-8.5-15.77-15.74-26.5-12.81-11.43,3.12-22.65,8.15-32.82,14.22-5.25,3.13-10.28,6.62-15.05,10.44-5.45,4.36-7.44,5.45-14.61,3.8-9.3-2.14-18.59-4.27-27.89-6.41-1.06-.24-2.16-.51-3-1.19-.89-.72-1.39-1.8-1.87-2.84-3.1-6.64-6.93-12.94-11.41-18.74-3.54-4.58-7.67-11.01-12.36-14.41-4.89-3.54-11.63-3.22-17.41-1.48-11,3.31-20.11,10.91-28.88,18.32-7.39,6.24-14.85,12.57-20.46,20.46-2.19,3.08-4.06,6.36-5.94,9.63-4.52,7.89-9.03,15.78-13.55,23.67-3.38,5.9-5.13,12.17-8.24,18.22-1.36,2.64-2.71,5.28-3.81,8.04-1.49,3.75-2.48,7.68-3.46,11.59-2.68,10.68-6.11,21.02-9.05,31.62-.58,2.09-1.15,4.39-.24,6.36,.39,.85,1.16,1.63,2.1,1.67,1.27,.06,2.19-1.18,2.72-2.34,1.56-3.45,1.41-7.17,2.87-10.73,1.74-4.24,3.87-8.32,6.35-12.17,7.27-11.25,17.64-20.42,29.82-26.02,31.18-14.35,68.59-9.37,101.23-3.64Z"/>
    <path class="cls-2" d="M192.4,43.78c7.97,6.82,18.77,12.24,22.86,22.43,1.99,4.95,3.88,10.14,4.25,15.5,.31,4.55-2.44,9.92,3.95,10.89,6.51,.99,13.07-.05,19.51,1.46,9.15,2.14,23.15,14.89,30.64,2.09,.63-1.07,1.08-2.29,.95-3.53-.41-3.81-4.04-3.24-6.76-3.36-3.41-.14-6.72-1.13-10.06-1.9-7.2-1.65-14.4-3.31-21.59-4.96-1.06-.24-2.16-.51-3-1.19-.89-.72-1.39-1.8-1.87-2.84-3.1-6.64-6.93-12.94-11.41-18.74-3.54-4.58-7.67-11.01-12.36-14.41-4.41-3.19-10.32-3.24-15.68-1.95,.03,.03,.06,.08,.09,.11,.17,.11,.33,.24,.49,.38Z"/>
    <path class="cls-2" d="M393.23,182.96c-.72-5.84-2.27-12.19-2.27-18.06-1.51-11.01-3.07-22.35-6.82-32.77-4.14-11.49-8.62-22.87-13.43-34.1-4.23-9.89-11.58-16.25-17.7-24.86-2.39-3.36-5.27-6.47-8.63-8.87-1.96-1.4-6.43-5.81-8.84-5.02l13.62,20.21c7.89,11.71,15.99,23.95,18,37.93,.88,6.16,1.3,16.98-6.81,16.39-9.45-.68-18.59-4.82-27.33-8.16-.07,.62-.16,1.24-.29,1.86-.63,2.96-2,5.67-3.82,8.08-1.87,2.47-4.22,4.2-6.85,5.39-.77,1.3-2.12,2.29-4.06,2.43-12.71,.96-26.01-.68-37.54-6.33-.17-.08-.33-.17-.49-.27-10.21-2.9-19.9-7.8-19.42-19.12-.29,.06-.59,.11-.91,.12-8.52,.43-9.71-8.46-15.98-12.06-5.41-3.11-11.74-3.06-17.92-2.03-2.84,1.83-6.35,3.3-8.12,5.1-1.87,1.91-4.17,1.83-5.9,.74-.82,1.84-2.06,3.6-3.7,5.21-5.7,5.56-13.01,7.85-20.68,9.13-4.93,.83-9.83,1.14-14.81,.96-3.58-.13-6.99,1.21-10.42,.33-6.68-1.72-14.85-4.82-18.6-10.98-.46-.76-.69-1.53-.72-2.28-1.86-3.43-3.27-6.92-2.98-11.16,.02-.23,.06-.45,.1-.67-2.01,1.41-4.49,1.68-7.35,.97-.81-.2-1.54-.66-2.14-1.27,1.03,1.05-9.35,13.94-9.99,16.22,3.96-.36,7.97-.72,11.9-.09,4.55,.73,6.83,2.76,10.01,5.62s6.41,3.72,10.46,4.8c10.38,2.76,21.34,3.43,31.97,1.88,9.47-1.38,18.16-4.47,26.54-9,7.39-4,18.02-7.96,26.47-5.32,8.33,2.6,16.32,11.2,22.48,17.11,8.5,8.15,16.21,11.59,27.64,14.12,8.61,1.9,17.19,4.4,26.09,4.32,4.32-.04,8.64-.69,12.56-2.58,3.66-1.76,6.91-3.65,11-4.28,7.55-1.17,14.43,1.71,21.09,4.95,12.26,5.96,21.69,12.96,23.7,27.27,1.7,12.08,.11,25.37-12.88,29.89-9.78,3.4-21.4,3.14-30-2.35,.7,1.32,1.37,2.65,2.02,3.99,.83,1.74,10.8,4.71,12.88,5.47,4.06,1.49,7.86,3.54,12.13,4.31l17.71,3.23c1.81,.33,3.66,.66,5.48,.38s3.63-1.31,4.36-3c.53-1.22,.43-2.61,.32-3.94-.39-4.92-.44-9.2,.05-14,.54-5.32-1.17-10.57-1.17-15.84Z"/>
    <path class="cls-2" d="M345.62,208.67c2.02,1.66,3.92,3.1,6.05,4.19-.92-2.7-1.93-5.35-3.06-7.94-6.37-14.69-17.06-27.79-29.76-37.45-12.57-9.55-24.25-19.05-39.81-23.52-16.92-4.86-34.22-9.62-51.58-12.6-13.96-2.4-28.48-.63-42.41-2.93-.7,.43-1.56,.69-2.59,.7-20.35,.07-39.77,4.41-56.64,16.28-4.03,2.84-7.9,6-10.6,10.18-2.38,3.69-4.17,7.71-6.12,11.64-3.99,8.02-8.95,15.41-11.42,24.12-.14,.5-.34,.93-.57,1.32,.39,.4,.88,.68,1.43,.7,1.27,.06,2.19-1.18,2.72-2.34,1.56-3.45,1.41-7.17,2.87-10.73,1.74-4.24,3.87-8.32,6.35-12.17,7.27-11.25,17.64-20.42,29.82-26.02,31.18-14.35,68.59-9.37,101.23-3.64,18.45,3.24,35.66,8.31,51.44,18.6,10.21,6.66,20.08,12.16,28.74,21.01,8.4,8.59,15.26,18.6,20.29,29.45,1.26-.06,2.55,.29,3.62,1.17Z"/>
  </g>
  <path d="M395.44,208.76c-.03-2.61-.14-5.21,.02-7.85,.28-4.49-.11-9-.29-13.49-.31-7.53-.93-15.08-2.37-22.48-.84-4.34-2.01-8.26-2.66-12.63-.77-5.15-1.87-10.27-3.12-15.32-2.55-10.37-6-20.55-10.67-30.17-4.59-9.47-9.05-18.83-15.44-27.25-3.67-4.84-8.12-9.33-12.91-13.03-2.36-1.82-4.76-3.6-7.08-5.48-1.75-1.41-2.9-3.08-5.25-3.53-1.58-.3-3.23-.32-4.83-.19-3.12,.25-6.15,1.14-9.1,2.14-4.23,1.43-8.38,3.08-12.46,4.91-8.17,3.66-16,8.12-23.35,13.3-2.56,1.81-4.87,3.93-7.24,5.95-1.06,.91-2.06,1.52-2.98,2.59-.76,.87-1.63,2.19-2.87,2.35-1.73,.23-4.66-1.22-6.34-1.7-4.12-1.17-8.23-2.39-12.44-3.14-6.79-1.21-13.6-2.27-20.4-3.39-.09-.01-.17-.02-.26-.02-2.54-12.63-10.41-20.1-18.4-29.36-.19-.22-.37-.43-.56-.65-.94-1.06-1.93-2.13-2.97-3.15-2.2-2.14-4.66-4.04-7.41-5.14-3.31-1.32-7.69-3.15-11.09-1.43-3.59,1.81-7.28,3.39-10.8,5.36-2.18,1.22-4.11,2.79-6.2,4.14-7.64,4.93-15.27,9.85-21.61,16.5-1.84,1.93-3.67,3.89-5.47,5.88-2.92,3.22-5.77,6.53-8.48,9.94-2.99,3.76-5.82,7.64-8.39,11.67-2.27,3.57-4.41,7.22-6.5,10.9-4.37,7.69-8.58,14.73-12.04,23.03-6.77,16.22-13.28,32.39-16.47,49.91,.07-.02,.15-.03,.22-.04-.9,5.28-3.3,9.78-2.67,15.41,.18,1.62,1.65,4.35,3.71,4.08,1.87-.24,3.76-4.08,4.64-5.54,2.7-4.53,4.44-9.54,6.55-14.35,3.11-7.06,7.7-13.34,13.23-18.7,22.14-21.41,53.07-22.76,81.83-21.2,34.87,1.89,72.3,10.24,100.54,31.75,8.28,6.31,15.87,13.56,22.35,21.72,4.23,5.33,7.53,11.47,12.51,16.18,6.11,5.77,11.84,6.14,19.64,8.12,7.79,1.98,15.81,3.13,23.61,5.13,1.97,.51,3.99,1.04,6.02,.89s4.13-1.08,5.11-2.87c.47-.86,.65-1.84,.79-2.81,.35-2.35,.38-4.67,.35-7Zm-24.7,6.22c-8.11-1.35-16.05-3.35-23.3-7.35-3.16-1.75-6.04-3.91-8.62-6.42-4.61-8.43-10.37-16.25-17.12-23.16-8.66-8.85-18.53-14.35-28.74-21.01-15.78-10.29-32.98-15.36-51.44-18.6-32.64-5.73-70.05-10.71-101.23,3.64-12.18,5.61-22.55,14.78-29.82,26.02-3.68,5.69-6.57,11.88-8.57,18.35-.55,1.78-1.48,6.86-3.29,3.54-1.73-3.19,.35-8.05,1.27-11.21,2.68-9.18,5.32-18.39,8.53-27.41,3.17-8.9,5.88-17.67,10.13-26.1,4.37-8.68,9.02-17.22,13.73-25.72,10.44-18.85,24.84-31.33,41.51-44.23,2.24-1.73,4.77-3.13,7.12-4.75,2.75-1.9,5.79-3.19,8.85-4.47,.84-.35,1.58-.97,2.37-1.46,2.57-1.61,5.18-.92,7.75-.04,2.47,.84,4.62,2.2,6.65,3.75,7.43,5.68,13.91,12.97,18.48,21.25,2.05,3.73,2.7,8.67,4.77,12.14,1.94,3.24,4.8,2.79,8.19,3.35,5.03,.83,10.06,1.63,15.07,2.52,5.95,1.06,11.87,2.36,17.57,4.42-.2-.07-1.75,2.46,.55,2.27,2.45-.2,4.17-1.69,5.66-3.57,3.91-4.94,9.31-9.15,14.45-12.66,7.68-5.26,15.94-9.8,24.54-13.2,5.2-2.06,10.03-4.75,15.87-4.09,5.4,.61,10.18,3.91,14.14,7.52,2.82,2.57,6.21,4.72,8.57,7.71,2.47,3.14,4.68,6.53,7.18,9.63,2.35,2.91,3.88,6.42,5.58,9.79,2.19,4.34,4.48,8.63,6.64,12.98,8.45,17.03,10.64,36.64,15.2,54.86,1.87,7.48,2.89,15.17,3.17,22.87,.29,8.01,1.08,16.16,.75,24.16-.1,2.39-.87,5.03-2.98,6.17-1.54,.83-3.41,.64-5.15,.42-4.66-.6-9.36-1.15-14.01-1.93Z"/>
  <g>
    <g>
      <path class="cls-2" d="M386.18,148.11c-.14-.31-.3-.62-.48-.91,.83-.67,.88-2.28-.46-2.67-.59-.17-1.21-.14-1.76,.06-.2-.18-.41-.36-.62-.52-1.52-1.18-3.25-2.01-4.97-2.86-1.03-.65-2.1-1.25-3.2-1.77-.42-.2-.81-.21-1.15-.1-2.08-.95-4.19-1.84-6.32-2.65-.11-.19-.26-.36-.46-.51-3.7-2.65-8.14-3.8-12.59-4.48-2.24-.34-4.49-.58-6.73-.87-2.04-.26-4.45-.42-5.98-1.95-.79-.79-1.82-.42-2.3,.3-.19,.03-.37,.09-.53,.21-.12,.09-.24,.16-.36,.24-.4-.57-1.23-.85-1.92-.56-.09-.09-.18-.17-.29-.24-.09-.05-.19-.1-.29-.13-.58-.53-1.6-.65-2.14-.02-.58,.67-.94,1.49-.92,2.38-.04,.08-.08,.15-.13,.22-.78,1.26,.61,2.56,1.85,2.12,.29,.68,1.1,1.11,1.9,.87,.2,.93,1.23,1.67,2.18,1.05,3.68,1.37,7.58,2.18,11.37,3.15,4.5,1.15,8.99,2.31,13.49,3.46,.24,.06,.45,.07,.65,.03,2.47,1.07,4.9,2.22,7.32,3.4,2.67,1.55,5.25,3.27,7.72,5.15,.47,.36,.93,.36,1.3,.16,1.13,.77,2.37,1.23,3.76,1.45,.63,.94,2.32,.89,2.71-.42,.37-1.23,.02-2.51-.66-3.61Z"/>
      <path d="M387.88,145.29c-2.92-3.28-7.02-5.04-10.91-6.87-4.49-2.11-9.01-4.18-13.68-5.88-9.31-3.38-19.13-4.82-28.91-6.09-1.91-.25-1.89,2.75,0,3,9.35,1.22,18.75,2.64,27.67,5.82,4.43,1.58,8.72,3.54,12.98,5.53,3.79,1.78,7.89,3.41,10.73,6.6,1.29,1.44,3.4-.68,2.12-2.12Z"/>
      <path d="M388.09,153.58c-6.09-4.28-12.24-8.61-19.1-11.57-7.39-3.19-15.5-4.45-23.32-6.17-4.69-1.03-9.38-2.06-14.07-3.09-1.88-.41-2.69,2.48-.8,2.89,5.17,1.14,10.35,2.27,15.52,3.41,5.11,1.12,10.29,2.08,15.32,3.5,9.24,2.61,17.17,8.16,24.93,13.62,1.58,1.11,3.08-1.49,1.51-2.59Z"/>
    </g>
    <g>
      <path class="cls-2" d="M139.29,106.96c-.1-.63-.26-1.24-.48-1.84-.21-.57-.62-.99-1.25-1.07-.01,0-.03,0-.05,0-.03-.03-.06-.05-.09-.08-.1-.38-.33-.74-.67-.92-.59-.31-1.17-.21-1.69,.15-.09-.07-.19-.13-.3-.18-.28-.12-.59-.14-.9-.09-.03-.02-.05-.05-.08-.07-.15-.08-.29-.12-.43-.15-.03-.03-.06-.06-.09-.08-.57-.44-1.45-.43-1.97,.12-.24,.26-.49,.5-.75,.74l-.03,.03c-.72-.32-1.53-.1-1.95,.58-.33,.52-.65,1.04-.98,1.56-.34,.54-.24,1.38,.23,1.82,.51,.47,1.2,.55,1.82,.23,.33-.17,.65-.35,.96-.54,.08,.02,.16,.04,.25,.05,.4,.72,1.43,1.09,2.16,.62,.08,.06,.16,.1,.25,.14,.48,.2,.94,.14,1.33-.1,.05,.03,.11,.06,.16,.09,.34,.14,.76,.14,1.12,.01,.16,.13,.33,.23,.51,.27,.08,.02,.16,.01,.25,.02,.36,.48,1.08,.73,1.62,.55,.84-.27,1.18-1.01,1.05-1.85Z"/>
      <path d="M138.23,101.5c-3.06-.4-6.15-.55-9.23-.46-.78,.02-1.54,.67-1.5,1.5,.04,.79,.66,1.53,1.5,1.5,3.08-.1,6.17,.06,9.23,.46,.78,.1,1.53-.76,1.5-1.5-.04-.9-.66-1.39-1.5-1.5Z"/>
      <path d="M139.35,107.96c-4.92-1.05-9.97-1.07-14.9-.06-.79,.16-1.25,1.1-1.05,1.85,.23,.83,1.05,1.21,1.85,1.05,4.38-.89,8.93-.87,13.3,.06,.79,.17,1.62-.23,1.85-1.05,.21-.75-.25-1.68-1.05-1.85Z"/>
    </g>
    <g>
      <path class="cls-2" d="M259.87,121c.24-.56,.21-1.26-.28-1.68-1.68-1.4-3.61-2.45-5.72-3.02-.29-.08-.61-.06-.9,.04-1.04-1.74-2.05-3.55-3.58-4.86-.02-.05-.04-.1-.07-.15,.23-.5,.2-1.1-.28-1.61-2.26-2.36-4.7-4.77-7.89-5.79-1.75-.56-3.62-.55-5.44-.47-1.99,.09-3.97,.19-5.96,.28-.58,.03-.98,.32-1.21,.71-5.78,1.41-11.34,5.26-17.07,6.68-1.87,.46-1.08,3.36,.8,2.89,4.41-1.09,8.3-3.45,12.44-5.22,3.81-1.63,8.45-2.8,12.39-.93,.36,.17,.7,.18,1.02,.11,1.64,.76,3.27,1.54,4.9,2.33,.78,.38,1.58,.75,2.33,1.21,.17,.11,.34,.22,.5,.33l.1,.08h0l-.05-.04s.03,.03,.05,.04c-.02,.47,.18,.95,.73,1.26,2.11,1.19,3.12,3.8,4.46,5.87,.78,1.2,1.63,2.68,2.93,3.37,.7,.37,1.47,.52,2.23,.71l2.42,.58c.79,.19,1.63-.25,1.85-1.05,.17-.63-.12-1.35-.68-1.69Z"/>
      <path d="M259.56,117.29c-.4-.2-.83-.33-1.14-.38-3.66-.58-5.53-3.42-7.43-6.38-2.16-3.37-5.56-6.05-9.26-7.54-5.97-2.39-13.69-1.99-19.36,1.11-2.09,1.14-4.02,2.57-6.19,3.53-1.21,.53-4.21,.71-5.09,1.52-.8,.75-.46,2.05,1.16,1.82,4.07-.58,7.36-2.66,10.91-4.54,6.64-3.51,14-3.18,20.51,.2,2.41,1.25,4.43,3.08,5.87,5.39,.67,1.08,1.07,2.3,1.94,3.21,2.14,2.26,4.38,4.28,7.64,4.64,.88,.1,1.75-.91,1.46-1.69-.14-.38-.56-.69-1.02-.92Z"/>
      <path d="M258.54,122.8c-.45-.1-.92-.1-1.37-.2-.8-.17-1.51-.6-2.2-1.03-2.12-1.3-3.66-3.97-4.98-6.03-2.16-3.37-5.56-6.05-9.26-7.54-5.97-2.39-13.69-1.99-19.36,1.11-1.43,.78-2.9,1.46-4.34,2.2-1.63,.84-2.9,1.86-4.75,2.28-.51,.12-4.61,0-3.01,1.58,.39,.38,1.4,.31,1.91,.41,1.2,.23,2.12,.01,3.29-.39,2.71-.93,5.17-2.42,7.69-3.75,6.64-3.51,14-3.18,20.51,.2,2.31,1.2,4.27,2.92,5.69,5.1s2.37,4.43,4.5,6.06c.74,.57,1.6,.95,2.47,1.28,1.03,.39,3.03,1.19,4.14,.81,1.47-.51,.22-1.77-.7-2.05-.08-.02-.15-.04-.23-.06Z"/>
    </g>
    <g>
      <path class="cls-6" d="M325.14,111.15c-1.65-2.58-4.26-4.43-7.03-5.66-1.07-.47-2.17-.85-3.29-1.15-.39-.21-.84-.32-1.29-.3-3.36,.14-6.65-1.24-10-1.08l-12.9,.6c-3.92,.18-7.87,.37-11.69,1.28-5.83,1.39-10.78,4.25-15.4,7.92-.63,.5-.83,1.34-.69,2.14-.29,.64-.5,1.31-.63,2-1.74,1.19-1.31,3.87-.68,5.69,1.47,4.23,4.18,7.86,7.91,10.34,7.96,5.3,17.91,6.38,27.45,7.03,4.07,.28,8.15,.5,12.22,.3,2.21-.11,4.46-.35,6.49-1.24,1.48-.65,2.8-1.64,4-2.73,4.56-4.17,7.83-10.3,7.76-16.55-.03-2.92-.62-6.09-2.21-8.58Z"/>
      <path class="cls-5" d="M305.53,135.38c5.51-1.12,11.8-3.26,15.54-7.72,4.38-5.22,3.01-10.94,2.46-17.11-.04-.49-.02-.94,.05-1.35-1.17-1.21-2.57-2.21-4.05-3.01,.63,.78,1.02,1.76,1.01,2.95-.1,12.35-11.54,18.8-22.28,21.55-5.17,1.32-10.61,1.89-15.85,1.31,7.35,3.15,15.17,4.98,23.11,3.37Z"/>
      <path class="cls-5" d="M303.25,102.97c-4.21,.2-8.42,.39-12.62,.59-3.92,.18-7.87,.37-11.69,1.28-5.83,1.39-10.78,4.25-15.4,7.92-.63,.5-.83,1.34-.69,2.14-.29,.64-.5,1.31-.63,2-.86,.59-1.19,1.54-1.22,2.58,.14-.25,.3-.49,.49-.73,2.45-3.09,6.17-4.64,9.36-6.83,3.55-2.43,7.46-3.97,11.55-5.26,6.67-2.09,13.68-2.88,20.68-3.17,.05-.17,.11-.34,.18-.51Z"/>
      <path class="cls-4" d="M317.98,137.39c-1.33,1.49-3.09,3.27-4.09,3.22-1.34-.06-2.71-.24-3.97-.32-5.19-.31-10.38-.62-15.57-.93-3.21-.19-3.2,4.81,0,5l13.38,.8c1.22,.07,2.45,.19,3.68,.28,.69,.88,1.88,1.36,3.14,.65,.32-.18,.62-.38,.94-.57,1.79-.1,3.56-.45,5.23-1.28,7.03-3.49,12.43-10.28,11.91-18.39-.14-2.14-.6-4.25-1.22-6.3-.46-1.56-.69-2.98-1.61-4.34-.82-1.21-1.74-2.36-2.87-3.43-.1-.1-.22-.2-.35-.24-.41-.12-.76,.38-.73,.81s.29,.8,.43,1.2c.53,1.53,.49,3.23,.35,4.82-.11,1.34,0,2.46,.08,3.78,.18,3.12-1.41,6.83-2.75,9.58-.58,1.19-1.25,2.37-2.21,3.28-.98,.93-2.22,1.55-3.43,2.15-1.62,.8-3.28,1.89-5.04,2.18-1.98,.33-3.97,.65-5.97,.93-4.11,.57-8.29,.89-12.42,.43-2.24-.25-4.5-.72-6.73-.37,.27,.79,1.19,1.12,2,1.34,7.23,1.92,14.68,3.02,22.16,3.29"/>
      <path class="cls-5" d="M291.97,142.12c.02,.17,.06,.34,.11,.5,.85-.36,1.83-.5,2.91-.31,8.95,1.51,19.93,2.2,27.23-4.2,7.54-6.6,8.18-16.07,5.92-25.04-.38-.44-.78-.87-1.22-1.28-.1-.1-.22-.2-.35-.24-.41-.12-.76,.38-.73,.81s.29,.8,.43,1.2c.77,2.24,.34,5.49-.04,7.78-.44,2.64-1.25,5.21-2.39,7.62-2.12,4.49-5.29,9.42-10.51,10.34-1.79,.32-3.59,.62-5.39,.89-4.53-.27-9.06-.54-13.6-.82-.99-.06-1.67,.38-2.05,1.01-1.38-.16-2.77-.26-4.14-.04,.27,.79,1.19,1.12,2,1.34,.6,.16,1.21,.31,1.82,.45Z"/>
      <path d="M332.95,121.28c-.63-2.09-1.5-4.11-2.56-6.03-1.2-2.18-2.68-4.69-4.52-6.39s-4.6-2.78-6.88-3.8c-.55-.25-1.13-.41-1.71-.57-5.14-1.45-10.36-2.88-15.76-2.73-8.75,.25-17.81,.42-26.19,3.18-6.01,1.97-16.54,5.84-16.93,13.8-.6,12.4,13.42,19.84,23.59,22.58,7.78,2.1,15.52,4.61,23.58,5.16,4.97,.34,10.31,.51,15.05-1.26,5.52-2.06,9.84-6.61,12.12-11.99,1.28-3.02,1.57-5.37,1-8.65-.2-1.11-.46-2.22-.79-3.3Zm-70.39-3.89c.42-2.45,1.67-4.63,3.73-6.08,2.56-1.8,5.77-2.72,8.73-3.64,11.04-3.45,26.08-3.75,37.57-1.25,5.23,1.14,9.85,3.68,11.92,8.87,3.37,8.46-1.03,18.51-8.87,22.75-5.07,2.74-11.08,2.16-16.61,1.64-6.24-.58-12.51-1.57-18.58-3.16-4.92-1.29-9.91-3.2-13.6-6.83-3.17-3.12-5.04-7.83-4.28-12.29Zm59.07,24.65c-5.07,2.74-11.08,2.16-16.61,1.64-4.32-.4-8.64-1-12.91-1.86,.77,.08,1.55,.16,2.32,.23,6.21,.58,14.32,1.37,20.2-.82,9.7-3.62,15.4-14.68,13.58-24.32-.11-.56-.25-1.18-.42-1.81,1.12,1.16,2.06,2.53,2.72,4.19,3.37,8.46-1.03,18.51-8.87,22.75Z"/>
      <g class="cls-3">
        <path class="cls-1" d="M280.97,108.81c-5.12,2.99-10.25,5.97-15.37,8.96-1.67,.97-.16,3.57,1.51,2.59,5.12-2.99,10.25-5.97,15.37-8.96,1.67-.97,.16-3.57-1.51-2.59Z"/>
        <path class="cls-1" d="M280,117.44c-.42-.66-1.35-1-2.05-.54-2.08,1.35-4.15,2.71-6.23,4.06-.66,.43-.99,1.35-.54,2.05,.42,.66,1.35,1,2.05,.54,2.08-1.35,4.15-2.71,6.23-4.06,.66-.43,.99-1.35,.54-2.05Z"/>
        <path class="cls-1" d="M297.02,110.71c-8.55,5.14-16.96,10.51-25.22,16.1-1.59,1.08-.09,3.68,1.51,2.59,8.26-5.59,16.67-10.96,25.22-16.1,1.65-.99,.15-3.59-1.51-2.59Z"/>
      </g>
    </g>
    <g>
      <path class="cls-6" d="M149.8,88.69c2.07-2.16,4.91-3.44,7.79-4.1,1.11-.25,2.24-.4,3.36-.48,.42-.13,.86-.15,1.29-.05,3.19,.76,6.6,.06,9.78,.84l12.24,2.99c3.72,.91,7.47,1.83,10.96,3.41,5.32,2.42,9.52,6.09,13.26,10.47,.51,.6,.54,1.44,.26,2.18,.16,.67,.24,1.35,.23,2.03,1.44,1.47,.53,3.96-.41,5.57-2.2,3.77-5.48,6.74-9.51,8.41-8.61,3.58-18.35,2.75-27.6,1.58-3.95-.5-7.9-1.05-11.76-2-2.1-.52-4.21-1.17-5.98-2.4-1.3-.9-2.37-2.09-3.31-3.36-3.58-4.85-5.57-11.33-4.33-17.3,.58-2.79,1.73-5.72,3.72-7.81Z"/>
      <path class="cls-5" d="M206.47,103.62c.25-.58,.48-1.18,.59-1.8-1.01-.2-2.08,1.85-2.77,2.55-1.19,1.2-2.53,2.24-3.92,3.18-9.79,6.65-21.45,7.82-32.9,6.28-6.57-.88-13.7-1.99-18.09-7.5-2.04-2.57-3.4-5.91-3.42-9.14,.01,1.89-.41,3.69-.07,5.6,.24,1.34,.93,2.33,1.47,3.56,1.47,3.39,3.12,6.18,6.19,8.4,3.34,2.42,7.38,3.73,11.45,4.4,5.51,.91,11.14,.71,16.7,.15,3.09-.31,6.18-.75,9.12-1.72,3.4-1.12,6.61-2.9,9.43-5.11,3.03-2.37,4.48-4.86,6-8.35,.07-.17,.15-.34,.22-.51Z"/>
      <path class="cls-4" d="M151.74,115.16c.99,1.68,2.35,3.71,3.31,3.85,1.3,.2,2.64,.27,3.86,.44,5.03,.67,10.06,1.35,15.09,2.02,3.11,.42,2.17,5.2-.94,4.79l-12.96-1.74c-1.18-.16-2.38-.28-3.57-.42-.83,.72-2.06,.95-3.13,.04-.27-.23-.53-.48-.79-.72-1.7-.43-3.32-1.09-4.77-2.2-6.08-4.66-9.97-12.18-7.95-19.84,.53-2.03,1.37-3.95,2.34-5.8,.74-1.41,1.22-2.72,2.35-3.85,1.01-1.01,2.11-1.93,3.39-2.74,.12-.07,.24-.15,.38-.16,.41-.04,.66,.51,.55,.91s-.43,.71-.64,1.07c-.79,1.37-1.07,3-1.24,4.55-.14,1.3-.46,2.36-.78,3.6-.76,2.96,.07,6.81,.83,9.69,.33,1.25,.75,2.5,1.5,3.55,.77,1.08,1.83,1.9,2.88,2.7,1.4,1.07,2.78,2.43,4.42,3.03,1.84,.68,3.68,1.37,5.54,2.01,3.83,1.32,7.77,2.4,11.81,2.74,2.19,.18,4.45,.15,6.51,.91-.4,.71-1.35,.85-2.16,.91-7.28,.48-14.62,.14-21.83-1.01"/>
      <path class="cls-5" d="M175.76,124.56c-.05,.16-.12,.31-.2,.46-.74-.5-1.65-.82-2.73-.85-8.85-.23-19.49-1.63-25.29-9.12-5.98-7.73-4.82-16.91-.98-25.09,.45-.35,.91-.68,1.41-1,.12-.07,.24-.15,.38-.16,.41-.04,.66,.51,.55,.91s-.43,.71-.64,1.07c-1.16,2-1.36,5.19-1.42,7.46-.07,2.61,.22,5.22,.86,7.75,1.19,4.69,3.3,10.01,8.13,11.87,1.65,.64,3.32,1.27,5,1.86,4.39,.59,8.78,1.18,13.17,1.77,.96,.13,1.53,.67,1.77,1.35,1.36,.1,2.7,.27,3.97,.73-.4,.71-1.35,.85-2.16,.91-.61,.04-1.22,.07-1.82,.09Z"/>
      <path d="M139.05,99.94c-1.17,3.03-1.33,5.33-.67,8.47,1.17,5.58,4.46,10.74,9.36,13.75,4.21,2.58,9.36,3.42,14.18,4.03,7.82,.98,15.7,.03,23.55-.52,10.25-.72,25.07-5.22,26.82-17.2,1.12-7.69-8.24-13.37-13.62-16.38-7.52-4.21-16.15-6.08-24.48-7.95-5.14-1.16-10.41-.76-15.6-.34-.59,.05-1.18,.1-1.75,.23-2.38,.55-5.2,1.06-7.3,2.35s-3.97,3.41-5.53,5.27c-1.37,1.63-2.58,3.41-3.58,5.29-.52,.98-.98,1.98-1.37,3.01Zm63.09,17.42c-4.21,2.78-9.35,3.67-14.3,3.99-6.11,.39-12.29,.16-18.38-.45-5.39-.54-11.25-1.11-15.6-4.68-6.72-5.52-9.04-15.97-4.23-23.44,2.95-4.58,7.85-6.15,13.07-6.26,11.46-.24,25.81,2.87,35.73,8.24,2.66,1.44,5.56,2.92,7.68,5.12,1.69,1.77,2.48,4.09,2.43,6.52-.1,4.42-2.78,8.58-6.4,10.97Zm-59-21.88c.94-1.47,2.1-2.6,3.39-3.5-.28,.57-.54,1.13-.74,1.65-3.55,8.89-.16,20.54,8.45,25.83,5.21,3.2,13.13,3.96,19.18,4.57,.75,.07,1.5,.15,2.26,.22-4.25,.02-8.5-.22-12.71-.64-5.39-.54-11.25-1.11-15.6-4.68-6.72-5.52-9.04-15.97-4.23-23.44Z"/>
      <g class="cls-3">
        <path class="cls-1" d="M172.79,106.28c-4.99,2.92-9.99,5.84-14.98,8.77-1.62,.95-3.11-1.57-1.47-2.53,4.99-2.92,9.99-5.84,14.98-8.77,1.62-.95,3.11,1.57,1.47,2.53Z"/>
        <path class="cls-1" d="M165,102.96c.35,.67,.2,1.62-.53,2-2.15,1.12-4.29,2.23-6.44,3.35-.68,.35-1.62,.2-2-.53-.35-.67-.2-1.62,.53-2,2.15-1.12,4.29-2.23,6.44-3.35,.68-.35,1.62-.2,2,.53Z"/>
        <path class="cls-1" d="M178.87,91.73c-8.47,4.8-17.06,9.37-25.77,13.71-1.68,.83-3.17-1.69-1.47-2.53,8.71-4.34,17.3-8.91,25.77-13.71,1.64-.93,3.12,1.6,1.47,2.53Z"/>
      </g>
    </g>
  </g>
</svg>