<?xml version="1.0" encoding="UTF-8"?><svg id="Noun_Glasses" xmlns="http://www.w3.org/2000/svg" xmlns:xlink="http://www.w3.org/1999/xlink" viewBox="0 0 500 500"><defs><style>.cls-1{fill:url(#linear-gradient-2);}.cls-1,.cls-2,.cls-3,.cls-4{stroke:#000;stroke-miterlimit:10;stroke-width:1.89px;}.cls-2{fill:url(#linear-gradient-4);}.cls-3{fill:url(#linear-gradient-3);}.cls-5{fill:#fff;}.cls-4{fill:url(#linear-gradient);}</style><linearGradient id="linear-gradient" x1="289.08" y1="232.85" x2="332" y2="232.85" gradientTransform="matrix(1,0,0,1,0,0)" gradientUnits="userSpaceOnUse"><stop offset="0" stop-color="#7ac843"/><stop offset=".36" stop-color="#b0df34"/><stop offset="1" stop-color="#7ac843"/></linearGradient><linearGradient id="linear-gradient-2" x1="194.21" y1="207.92" x2="206.68" y2="207.92" gradientTransform="translate(-325.65 -3.01) scale(2.62 .99)" xlink:href="#linear-gradient"/><linearGradient id="linear-gradient-3" x1="213.57" y1="208.47" x2="293.02" y2="208.47" gradientTransform="translate(40.71 -38.54) rotate(10.6)" xlink:href="#linear-gradient"/><linearGradient id="linear-gradient-4" x1="106.68" y1="207.09" x2="183.55" y2="207.09" gradientTransform="translate(40.71 -38.54) rotate(10.6)" xlink:href="#linear-gradient"/></defs><g id="Green"><polygon class="cls-4" points="315.65 213.6 292.15 209.2 289.08 225.55 312.59 229.95 308.19 253.45 324.54 256.51 328.94 233.01 332 216.66 315.65 213.6"/><rect class="cls-1" x="182.53" y="193.66" width="32.65" height="17.46" transform="translate(40.63 -33.13) rotate(10.6)"/><g><rect class="cls-5" x="216.49" y="185.85" width="61.34" height="61.34" transform="translate(43.21 -41.11) rotate(10.41)"/><rect x="215.47" y="182.38" width="31.63" height="61.85" transform="translate(42.37 -38.29) rotate(10.41)"/></g><path class="cls-3" d="M219.67,166.14l-14.8,79.04,78.1,14.62,14.8-79.04-78.1-14.62Zm51.86,76.73l-49.87-9.34,9.45-50.47,49.87,9.34-9.45,50.47Z"/><g><rect class="cls-5" x="114.06" y="165.75" width="61.34" height="61.34" transform="translate(37.89 -22.93) rotate(10.41)"/><rect x="113.03" y="162.27" width="31.63" height="61.85" transform="translate(37.04 -20.11) rotate(10.41)"/></g><path class="cls-2" d="M114.88,145.02l-14.83,79.24,75.56,14.14,14.83-79.24-75.56-14.14Zm49.75,76.5l-48.25-9.03,9.47-50.6,48.25,9.03-9.47,50.6Z"/></g></svg>