<?xml version="1.0" encoding="UTF-8"?><svg id="Glasses" xmlns="http://www.w3.org/2000/svg" xmlns:xlink="http://www.w3.org/1999/xlink" viewBox="0 0 500 500"><defs><style>.cls-1{fill:url(#linear-gradient);}.cls-2{fill:#fff;}.cls-3{fill:#434845;stroke:#333;stroke-miterlimit:10;}.cls-4{fill:url(#linear-gradient-8);}.cls-5{fill:url(#linear-gradient-9);}.cls-6{fill:url(#linear-gradient-3);}.cls-7{fill:url(#linear-gradient-4);}.cls-8{fill:url(#linear-gradient-2);}.cls-9{fill:url(#linear-gradient-6);}.cls-10{fill:url(#linear-gradient-7);}.cls-11{fill:url(#linear-gradient-5);}.cls-12{opacity:.72;}.cls-13{fill:url(#linear-gradient-59);}.cls-14{fill:url(#linear-gradient-57);}.cls-15{fill:url(#linear-gradient-58);}.cls-16{fill:url(#linear-gradient-55);}.cls-17{fill:url(#linear-gradient-56);}.cls-18{fill:url(#linear-gradient-53);}.cls-19{fill:url(#linear-gradient-54);}.cls-20{fill:url(#linear-gradient-51);}.cls-21{fill:url(#linear-gradient-52);}.cls-22{fill:url(#linear-gradient-50);}.cls-23{fill:url(#linear-gradient-60);}.cls-24{fill:url(#linear-gradient-61);}.cls-25{fill:url(#linear-gradient-41);}.cls-26{fill:url(#linear-gradient-40);}.cls-27{fill:url(#linear-gradient-43);}.cls-28{fill:url(#linear-gradient-42);}.cls-29{fill:url(#linear-gradient-45);}.cls-30{fill:url(#linear-gradient-46);}.cls-31{fill:url(#linear-gradient-44);}.cls-32{fill:url(#linear-gradient-49);}.cls-33{fill:url(#linear-gradient-47);}.cls-34{fill:url(#linear-gradient-48);}.cls-35{fill:url(#linear-gradient-14);}.cls-36{fill:url(#linear-gradient-18);}.cls-37{fill:url(#linear-gradient-22);}.cls-38{fill:url(#linear-gradient-20);}.cls-39{fill:url(#linear-gradient-21);}.cls-40{fill:url(#linear-gradient-23);}.cls-41{fill:url(#linear-gradient-15);}.cls-42{fill:url(#linear-gradient-19);}.cls-43{fill:url(#linear-gradient-16);}.cls-44{fill:url(#linear-gradient-17);}.cls-45{fill:url(#linear-gradient-13);}.cls-46{fill:url(#linear-gradient-12);}.cls-47{fill:url(#linear-gradient-10);}.cls-48{fill:url(#linear-gradient-11);}.cls-49{fill:url(#linear-gradient-27);}.cls-50{fill:url(#linear-gradient-24);}.cls-51{fill:url(#linear-gradient-26);}.cls-52{fill:url(#linear-gradient-38);}.cls-53{fill:url(#linear-gradient-35);}.cls-54{fill:url(#linear-gradient-37);}.cls-55{fill:url(#linear-gradient-34);}.cls-56{fill:url(#linear-gradient-39);}.cls-57{fill:url(#linear-gradient-36);}.cls-58{fill:url(#linear-gradient-25);}.cls-59{fill:url(#linear-gradient-28);}.cls-60{fill:url(#linear-gradient-29);}.cls-61{fill:url(#linear-gradient-33);}.cls-62{fill:url(#linear-gradient-30);}.cls-63{fill:url(#linear-gradient-32);}.cls-64{fill:url(#linear-gradient-31);}.cls-65{fill:#cbcbcb;opacity:.37;}</style><linearGradient id="linear-gradient" x1="329.1" y1="277.11" x2="324.41" y2="288.37" gradientTransform="translate(377.42 818.93) rotate(-142.63)" gradientUnits="userSpaceOnUse"><stop offset="0" stop-color="#626270"/><stop offset="1" stop-color="#0a0a0a"/></linearGradient><linearGradient id="linear-gradient-2" x1="324.89" y1="285.12" x2="324.87" y2="285.16" xlink:href="#linear-gradient"/><linearGradient id="linear-gradient-3" x1="324.34" y1="284.05" x2="324.3" y2="284.15" xlink:href="#linear-gradient"/><linearGradient id="linear-gradient-4" x1="254.16" y1="305.1" x2="260.53" y2="314.46" gradientTransform="translate(-46.55 634.75) rotate(-85.75)" xlink:href="#linear-gradient"/><linearGradient id="linear-gradient-5" x1="255.57" y1="311.94" x2="255.63" y2="312.03" gradientTransform="translate(-46.55 634.75) rotate(-85.75)" xlink:href="#linear-gradient"/><linearGradient id="linear-gradient-6" x1="255" y1="310.89" x2="255.08" y2="311" gradientTransform="translate(-46.55 634.75) rotate(-85.75)" xlink:href="#linear-gradient"/><linearGradient id="linear-gradient-7" x1="233.45" y1="331.78" x2="243.09" y2="337.09" gradientTransform="translate(-136.84 430.46) rotate(-58.87)" xlink:href="#linear-gradient"/><linearGradient id="linear-gradient-8" x1="236.35" y1="336.78" x2="236.45" y2="336.83" gradientTransform="translate(-136.84 430.46) rotate(-58.87)" xlink:href="#linear-gradient"/><linearGradient id="linear-gradient-9" x1="235.79" y1="335.74" x2="235.88" y2="335.79" gradientTransform="translate(-136.84 430.46) rotate(-58.87)" xlink:href="#linear-gradient"/><linearGradient id="linear-gradient-10" x1="233.73" y1="346.31" x2="244.38" y2="348.63" gradientTransform="translate(-143.64 296.79) rotate(-42.3)" xlink:href="#linear-gradient"/><linearGradient id="linear-gradient-11" x1="237.17" y1="349.84" x2="237.26" y2="349.86" gradientTransform="translate(-143.64 296.79) rotate(-42.3)" xlink:href="#linear-gradient"/><linearGradient id="linear-gradient-12" x1="236.62" y1="348.8" x2="236.69" y2="348.81" gradientTransform="translate(-143.64 296.79) rotate(-42.3)" xlink:href="#linear-gradient"/><linearGradient id="linear-gradient-13" x1="257.4" y1="387" x2="267.19" y2="381.35" gradientTransform="matrix(1,0,0,1,0,0)" xlink:href="#linear-gradient"/><linearGradient id="linear-gradient-14" x1="260.99" y1="386.88" x2="261.04" y2="386.85" gradientTransform="matrix(1,0,0,1,0,0)" xlink:href="#linear-gradient"/><linearGradient id="linear-gradient-15" x1="260.29" y1="385.93" x2="260.29" y2="385.93" gradientTransform="matrix(1,0,0,1,0,0)" xlink:href="#linear-gradient"/><linearGradient id="linear-gradient-16" x1="264.83" y1="382.75" x2="273.91" y2="375.95" gradientTransform="translate(39.7 -34.02) rotate(6.79)" xlink:href="#linear-gradient"/><linearGradient id="linear-gradient-17" x1="268.26" y1="382.1" x2="268.3" y2="382.07" gradientTransform="translate(39.7 -34.02) rotate(6.79)" xlink:href="#linear-gradient"/><linearGradient id="linear-gradient-18" x1="267.48" y1="381.21" x2="267.5" y2="381.2" gradientTransform="translate(39.7 -34.02) rotate(6.79)" xlink:href="#linear-gradient"/><linearGradient id="linear-gradient-19" x1="268.91" y1="374.92" x2="277.73" y2="367.63" gradientTransform="translate(55.7 -46.81) rotate(9.57)" xlink:href="#linear-gradient"/><linearGradient id="linear-gradient-20" x1="271.99" y1="373.82" x2="272.02" y2="373.8" gradientTransform="translate(55.7 -46.81) rotate(9.57)" xlink:href="#linear-gradient"/><linearGradient id="linear-gradient-21" x1="271.26" y1="372.89" x2="271.29" y2="372.87" gradientTransform="translate(55.7 -46.81) rotate(9.57)" xlink:href="#linear-gradient"/><linearGradient id="linear-gradient-22" x1="274.72" y1="367.05" x2="283.19" y2="359.29" gradientTransform="translate(72.28 -60.03) rotate(12.53)" xlink:href="#linear-gradient"/><linearGradient id="linear-gradient-23" x1="277.6" y1="365.67" x2="277.62" y2="365.65" gradientTransform="translate(72.28 -60.03) rotate(12.53)" xlink:href="#linear-gradient"/><linearGradient id="linear-gradient-24" x1="276.87" y1="364.73" x2="276.9" y2="364.71" gradientTransform="translate(72.28 -60.03) rotate(12.53)" xlink:href="#linear-gradient"/><linearGradient id="linear-gradient-25" x1="304.71" y1="365.78" x2="312.45" y2="357.26" gradientTransform="translate(85.4 -92.62) rotate(17.74)" xlink:href="#linear-gradient"/><linearGradient id="linear-gradient-26" x1="307.23" y1="363.97" x2="307.25" y2="363.95" gradientTransform="translate(85.4 -92.62) rotate(17.74)" xlink:href="#linear-gradient"/><linearGradient id="linear-gradient-27" x1="306.5" y1="363.05" x2="306.53" y2="363.01" gradientTransform="translate(85.4 -92.62) rotate(17.74)" xlink:href="#linear-gradient"/><linearGradient id="linear-gradient-28" x1="298.53" y1="354.27" x2="306.57" y2="346.06" gradientTransform="translate(75.34 -82.03) rotate(15.6)" xlink:href="#linear-gradient"/><linearGradient id="linear-gradient-29" x1="301.19" y1="352.62" x2="301.21" y2="352.61" gradientTransform="translate(75.34 -82.03) rotate(15.6)" xlink:href="#linear-gradient"/><linearGradient id="linear-gradient-30" x1="300.46" y1="351.7" x2="300.49" y2="351.67" gradientTransform="translate(75.34 -82.03) rotate(15.6)" xlink:href="#linear-gradient"/><linearGradient id="linear-gradient-31" x1="294.75" y1="343.96" x2="302.08" y2="335.05" gradientTransform="translate(116.59 -94.79) rotate(20.54)" xlink:href="#linear-gradient"/><linearGradient id="linear-gradient-32" x1="297.08" y1="341.95" x2="297.09" y2="341.93" gradientTransform="translate(116.59 -94.79) rotate(20.54)" xlink:href="#linear-gradient"/><linearGradient id="linear-gradient-33" x1="296.34" y1="341.03" x2="296.38" y2="340.98" gradientTransform="translate(116.59 -94.79) rotate(20.54)" xlink:href="#linear-gradient"/><linearGradient id="linear-gradient-34" x1="275.94" y1="322.26" x2="285.85" y2="316.54" gradientTransform="matrix(1,0,0,1,0,0)" xlink:href="#linear-gradient"/><linearGradient id="linear-gradient-35" x1="279.16" y1="321.7" x2="279.19" y2="321.68" gradientTransform="matrix(1,0,0,1,0,0)" xlink:href="#linear-gradient"/><linearGradient id="linear-gradient-36" x1="278.6" y1="320.65" x2="278.63" y2="320.64" gradientTransform="matrix(1,0,0,1,0,0)" xlink:href="#linear-gradient"/><linearGradient id="linear-gradient-37" x1="295.83" y1="323.72" x2="303.95" y2="315.58" gradientTransform="translate(78.52 -76.26) rotate(15.09)" xlink:href="#linear-gradient"/><linearGradient id="linear-gradient-38" x1="298.54" y1="322.11" x2="298.55" y2="322.09" gradientTransform="translate(78.52 -76.26) rotate(15.09)" xlink:href="#linear-gradient"/><linearGradient id="linear-gradient-39" x1="297.8" y1="321.18" x2="297.83" y2="321.15" gradientTransform="translate(78.52 -76.26) rotate(15.09)" xlink:href="#linear-gradient"/><linearGradient id="linear-gradient-40" x1="306.96" y1="317.93" x2="314.03" y2="308.85" gradientTransform="translate(118.06 -105.71) rotate(22.06)" xlink:href="#linear-gradient"/><linearGradient id="linear-gradient-41" x1="309.33" y1="315.92" x2="309.34" y2="315.91" gradientTransform="translate(118.06 -105.71) rotate(22.06)" xlink:href="#linear-gradient"/><linearGradient id="linear-gradient-42" x1="308.53" y1="315.06" x2="308.56" y2="315.02" gradientTransform="translate(118.06 -105.71) rotate(22.06)" xlink:href="#linear-gradient"/><linearGradient id="linear-gradient-43" x1="305.06" y1="306.85" x2="312.8" y2="298.33" gradientTransform="translate(89.51 -90.43) rotate(17.76)" xlink:href="#linear-gradient"/><linearGradient id="linear-gradient-44" x1="307.59" y1="305.04" x2="307.6" y2="305.02" gradientTransform="translate(89.51 -90.43) rotate(17.76)" xlink:href="#linear-gradient"/><linearGradient id="linear-gradient-45" x1="306.85" y1="304.11" x2="306.88" y2="304.08" gradientTransform="translate(89.51 -90.43) rotate(17.76)" xlink:href="#linear-gradient"/><linearGradient id="linear-gradient-46" x1="306.74" y1="296.05" x2="314.66" y2="287.71" gradientTransform="translate(79.61 -85.79) rotate(16.46)" xlink:href="#linear-gradient"/><linearGradient id="linear-gradient-47" x1="309.35" y1="294.34" x2="309.37" y2="294.32" gradientTransform="translate(79.61 -85.79) rotate(16.46)" xlink:href="#linear-gradient"/><linearGradient id="linear-gradient-48" x1="308.62" y1="293.41" x2="308.65" y2="293.38" gradientTransform="translate(79.61 -85.79) rotate(16.46)" xlink:href="#linear-gradient"/><linearGradient id="linear-gradient-49" x1="310.36" y1="288.1" x2="318.1" y2="279.58" gradientTransform="translate(85.4 -92.62) rotate(17.74)" xlink:href="#linear-gradient"/><linearGradient id="linear-gradient-50" x1="312.88" y1="286.29" x2="312.9" y2="286.27" gradientTransform="translate(85.4 -92.62) rotate(17.74)" xlink:href="#linear-gradient"/><linearGradient id="linear-gradient-51" x1="312.15" y1="285.36" x2="312.18" y2="285.33" gradientTransform="translate(85.4 -92.62) rotate(17.74)" xlink:href="#linear-gradient"/><linearGradient id="linear-gradient-52" x1="307.84" y1="275.88" x2="316.38" y2="268.21" gradientTransform="translate(52.46 -65.85) rotate(11.92)" xlink:href="#linear-gradient"/><linearGradient id="linear-gradient-53" x1="310.76" y1="274.54" x2="310.78" y2="274.52" gradientTransform="translate(52.46 -65.85) rotate(11.92)" xlink:href="#linear-gradient"/><linearGradient id="linear-gradient-54" x1="310.03" y1="273.61" x2="310.06" y2="273.59" gradientTransform="translate(52.46 -65.85) rotate(11.92)" xlink:href="#linear-gradient"/><linearGradient id="linear-gradient-55" x1="298.88" y1="258.69" x2="308.67" y2="253.04" gradientTransform="matrix(1,0,0,1,0,0)" xlink:href="#linear-gradient"/><linearGradient id="linear-gradient-56" x1="302.48" y1="258.57" x2="302.52" y2="258.54" gradientTransform="matrix(1,0,0,1,0,0)" xlink:href="#linear-gradient"/><linearGradient id="linear-gradient-57" x1="301.77" y1="257.62" x2="301.77" y2="257.62" gradientTransform="matrix(1,0,0,1,0,0)" xlink:href="#linear-gradient"/><linearGradient id="linear-gradient-58" x1="301.4" y1="247.49" x2="313.95" y2="239.24" gradientTransform="translate(11.78 -19.88) rotate(3.33)" xlink:href="#linear-gradient"/><linearGradient id="linear-gradient-59" x1="307.27" y1="250.7" x2="307.3" y2="250.67" gradientTransform="translate(11.78 -19.88) rotate(3.33)" xlink:href="#linear-gradient"/><linearGradient id="linear-gradient-60" x1="306.55" y1="249.76" x2="306.56" y2="249.75" gradientTransform="translate(11.78 -19.88) rotate(3.33)" xlink:href="#linear-gradient"/><linearGradient id="linear-gradient-61" x1="270.5" y1="373.64" x2="287.12" y2="369.67" gradientTransform="translate(-80.14 110.95) rotate(-16.55)" xlink:href="#linear-gradient"/></defs><g id="__monocle" data-name="9_monocle"><path class="cls-3" d="M310.47,221.32c-.69-.74-1.42-1.44-1.93-2.31-1.63-2.74-.81-6.44-.72-9.47,.11-3.81-.43-7.63-1.62-11.25-.76-2.32-1.77-4.53-3-6.61-4.19-7.1-10.88-12.65-18.51-15.58-10.8-4.15-20.33-5.77-31.62-2.58-9.46,2.67-18.35,8.17-23.76,16.53-7.38,11.39-6.8,26.63-.23,38.08,3.55,6.18,9.34,11.24,16.28,14.42,7.96,3.66,16.91,5.44,25.66,5.17,4.39-.13,8.78-.81,12.94-2.23,4.3-1.46,7.36-4.17,11.24-6.26,1.45-.79,3-1.4,4.59-1.83,2.39-.64,4.86-.84,7.3-1.22,1.83-.28,3.68-.68,5.25-1.66,5.47-3.38,1.37-9.74-1.86-13.21Zm-24.67,19.43c-9.54,6.02-24.71,4.68-34.74,.7-9.59-3.8-17.27-9.98-21.01-19.85-2.26-5.97-3.12-12.82-1.65-19.08,2.12-9,7.57-16.62,15.74-21.04,8.06-4.36,17.07-7.47,26.27-5.5,4.19,.9,8.6,1.8,12.59,3.45,8.12,3.35,15.1,9.57,18.59,17.72,.95,2.22,1.6,4.49,1.89,6.73,1.79,13.67-4.89,28.8-17.67,36.88Zm24.65-10.58c-.33,.57-.89,1.14-1.49,1.43-.67,.32-1.39,.56-2.15,.49-.76-.07-1.33-.22-2.02-.56-.13-.07-.25-.15-.37-.24-.01,0-.02,0-.03,0-.33-.08-.62-.23-.86-.45-.28-.18-.49-.41-.65-.71-.32-.65-.57-1.34-.54-2.08,.03-.66,.18-1.34,.55-1.9,.38-.58,.8-1,1.39-1.36,.28-.18,.63-.3,.93-.42,.12-.04,.24-.08,.36-.1,.44-.09,.91-.17,1.37-.12,.31,.03,.67,.06,.98,.15,.31,.09,.61,.23,.9,.37,.29,.14,.57,.39,.81,.58,.08,.07,.16,.14,.23,.23,.25,.29,.48,.57,.63,.91,.11,.24,.26,.55,.33,.82,.07,.28,.11,.64,.13,.88,.07,.7-.15,1.48-.5,2.08Z"/><path d="M309.45,220.3c-.69-.74-1.42-1.44-1.93-2.31-1.63-2.74-.81-6.44-.72-9.47,.11-3.81-.43-7.63-1.62-11.25-.76-2.32-1.77-4.53-3-6.61-4.19-7.1-10.88-12.65-18.51-15.58-10.8-4.15-20.33-5.77-31.62-2.58-9.46,2.67-18.35,8.17-23.76,16.53-7.38,11.39-6.8,26.63-.23,38.08,3.55,6.18,9.34,11.24,16.28,14.42,7.96,3.66,16.91,5.44,25.66,5.17,4.39-.13,8.78-.81,12.94-2.23,4.3-1.46,7.36-4.17,11.24-6.26,1.45-.79,3-1.4,4.59-1.83,2.39-.64,4.86-.84,7.3-1.22,1.83-.28,3.68-.68,5.25-1.66,5.47-3.38,1.37-9.74-1.86-13.21Zm-24.67,19.43c-9.54,6.02-24.71,4.68-34.74,.7-9.59-3.8-17.27-9.98-21.01-19.85-2.26-5.97-3.12-12.82-1.65-19.08,2.12-9,7.57-16.62,15.74-21.04,8.06-4.36,17.07-7.47,26.27-5.5,4.19,.9,8.6,1.8,12.59,3.45,8.12,3.35,15.1,9.57,18.59,17.72,.95,2.22,1.6,4.49,1.89,6.73,1.79,13.67-4.89,28.8-17.67,36.88Zm24.65-10.58c-.33,.57-.89,1.14-1.49,1.43-.67,.32-1.39,.56-2.15,.49-.76-.07-1.33-.22-2.02-.56-.13-.07-.25-.15-.37-.24-.01,0-.02,0-.03,0-.33-.08-.62-.23-.86-.45-.28-.18-.49-.41-.65-.71-.32-.65-.57-1.34-.54-2.08,.03-.66,.18-1.34,.55-1.9,.38-.58,.8-1,1.39-1.36,.28-.18,.63-.3,.93-.42,.12-.04,.24-.08,.36-.1,.44-.09,.91-.17,1.37-.12,.31,.03,.67,.06,.98,.15,.31,.09,.61,.23,.9,.37,.29,.14,.57,.39,.81,.58,.08,.07,.16,.14,.23,.23,.25,.29,.48,.57,.63,.91,.11,.24,.26,.55,.33,.82,.07,.28,.11,.64,.13,.88,.07,.7-.15,1.48-.5,2.08Z"/><path class="cls-65" d="M302.46,202.86c-.29-2.23-.94-4.5-1.89-6.73-3.49-8.14-10.47-14.37-18.59-17.72-3.99-1.65-8.4-2.55-12.59-3.45-9.2-1.97-18.21,1.13-26.27,5.5-8.17,4.42-13.63,12.04-15.74,21.04-1.47,6.26-.61,13.11,1.65,19.08,3.74,9.87,11.42,16.04,21.01,19.85,10.04,3.98,25.21,5.32,34.74-.7,12.78-8.07,19.47-23.21,17.67-36.88Z"/><g class="cls-12"><path class="cls-2" d="M243.73,185.36c-5.13,4.85-9.13,10.53-11.94,16.75-.4,.89,.43,1.96,1.36,2.19,1.12,.28,2-.35,2.4-1.24,2.54-5.63,6.3-10.8,10.93-15.18,1.74-1.65-1.01-4.17-2.76-2.52Z"/><path class="cls-2" d="M248.47,188.7c-6.29,7.82-11.63,16.25-15.93,25.12-.43,.89-.28,1.9,.7,2.43,.83,.45,2.24,.24,2.67-.64,4.3-8.88,9.64-17.3,15.93-25.12,1.49-1.85-1.9-3.63-3.37-1.8Z"/></g><g><g><path class="cls-1" d="M283.82,395.93c.04,1.08,.19,3.02,.22,3.02,.1,0,.2,0,.3,.02,.03,.02,.3,.08,.34,.09,.05,.02,.1,.03,.14,.05,.02,0,.04,.02,.1,.05,.14,.09,.29,.18,.42,.28,.03,.04,.26,.26,.29,.29,.06,.07,.11,.13,.17,.2l.04,.06c.07,.13,.15,.25,.21,.39,.03,.07,.06,.14,.09,.21,0,.02,.01,.04,.03,.11,.04,.17,.08,.34,.11,.52,0,0,0,.03,0,.07,.13,.01,.26,.03,.4,.04,1.31-.12,2.5,.37,3.79,0,1.11-.31,2.17-.99,2.99-1.8,1.39-1.37,2.23-3.48,1.69-5.41-.5-1.78-1.93-3.1-3.66-3.67-1.84-.6-3.75-.18-5.26,.97-1.13,.86-2.23,2.4-2.41,3.85-.01,.1,0,.34,0,.65Zm4.25-2.11s.1-.08,.15-.12c.15-.08,.28-.17,.43-.25,.07-.03,.14-.06,.21-.1h.02c.14-.04,.27-.09,.41-.11,.02,0,.08-.02,.13-.03,.02,0,.02,0,.05,0,.14,0,.28,0,.42,0,.07,0,.14,.01,.21,.02,.01,0,.02,0,.03,0h0c.14,.04,.73,.11,.8,.24,0,0-.34-.17-.07-.03,.06,.03,.12,.06,.18,.1,.15,.08,.3,.18,.44,.28l.05,.04,.03,.03c.09,.1,.19,.19,.28,.29,.04,.04,.07,.09,.11,.13,.06,.11,.19,.36,.21,.38,.01,.02,.01,.02,.02,.03,0,.04,.02,.08,.02,.08,.03,.09,.04,.19,.06,.28,0-.05,.02,.03,.02,.1h0v0c0,.07,0,.15,0,.22,0,.08-.01,.15-.01,.23,0,.02,0,.03,0,.04v.03c-.05,.15-.08,.3-.13,.45,0,.03-.02,.05-.03,.08,0,.02-.02,.07-.04,.1h0v.02c-.08,.15-.16,.3-.26,.44-.04,.07-.09,.13-.13,.2-.07,.1-.08,.12-.07,.12-.1,.12-.3,.28-.34,.32-.06,.05-.12,.1-.18,.16-.02,.02-.11,.08-.17,.12-.32,.2-.64,.37-.99,.52l-.05,.02h-.02c-.11,.04-.21,.08-.32,.11-.22,.06-.44,.11-.66,.16-.12,.02-.25,.04-.38,.06-.46-.77-1.09-1.42-1.84-1.89,0-.03,0-.06,0-.09,0-.1,.02-.19,.03-.29,.07-.32,.14-.63,.26-.93,0,0,.05-.11,.07-.17l.03-.06c.07-.14,.15-.28,.23-.41,.08-.13,.18-.26,.26-.39h0c.06-.08,.13-.15,.19-.22,.11-.11,.22-.22,.34-.32Z"/><path class="cls-8" d="M292.28,395.19h0s-.02-.07-.02-.11c0,.02,.01,.06,.02,.11Z"/><path class="cls-6" d="M292.06,396.37h0s.03-.08,.04-.12c0-.03,0-.01-.05,.12Z"/></g><g><path class="cls-7" d="M278.25,396.35c-.88,.62-2.42,1.81-2.41,1.83,.05,.09,.11,.17,.15,.26,0,.03,.09,.29,.11,.33,.01,.05,.02,.1,.04,.15,0,.02,0,.05,.01,.12,0,.17,0,.34,0,.51-.02,.05-.07,.36-.08,.4-.02,.09-.05,.17-.08,.25l-.03,.06c-.07,.13-.13,.26-.21,.39-.04,.07-.08,.13-.13,.19-.01,.02-.03,.03-.07,.09-.12,.13-.24,.26-.37,.37,0,0-.03,.02-.06,.04,.06,.12,.12,.24,.18,.35,.82,1.03,1.06,2.29,2.07,3.17,.87,.75,2.02,1.28,3.14,1.52,1.9,.42,4.13-.03,5.46-1.54,1.22-1.39,1.54-3.31,1.08-5.07-.5-1.87-1.9-3.24-3.69-3.88-1.34-.48-3.23-.56-4.54,.09-.09,.04-.29,.18-.54,.36Zm4.09,2.41c.06,.02,.12,.04,.18,.06,.15,.08,.3,.14,.45,.23,.07,.04,.13,.08,.2,.12h.02c.1,.1,.21,.19,.31,.29,.02,.02,.06,.05,.1,.09,0,.02,0,.02,.03,.04,.08,.12,.16,.23,.23,.35,.03,.06,.06,.12,.1,.18v.02h.02c.05,.14,.31,.68,.23,.81,0,0-.04-.37-.01-.08,0,.07,.02,.14,.02,.21,.01,.17,.02,.35,0,.52v.11c-.04,.13-.06,.27-.1,.4-.02,.06-.03,.11-.05,.16-.06,.12-.19,.36-.21,.38,0,.02,0,.02-.01,.03-.03,.03-.05,.06-.06,.06-.06,.07-.13,.14-.2,.2,.04-.03-.01,.04-.07,.07h0l-.02,.03,.02-.02c-.06,.04-.12,.08-.19,.12-.07,.04-.14,.07-.2,.12-.02,.01-.03,.02-.04,.02h-.03c-.15,.06-.29,.11-.44,.15-.03,0-.06,.01-.08,.02-.02,0-.07,.02-.11,.03h-.02c-.17,.02-.34,.03-.51,.03-.08,0-.16,0-.24,0-.12,0-.14,0-.14,.01-.15-.02-.4-.1-.45-.11-.08-.02-.15-.04-.23-.06-.03,0-.13-.05-.19-.07-.34-.16-.66-.34-.98-.54l-.04-.03-.02-.02c-.08-.07-.17-.14-.26-.22-.17-.15-.33-.3-.49-.47-.09-.09-.17-.19-.25-.28,.39-.8,.59-1.69,.58-2.58,.03-.02,.05-.03,.08-.05,.08-.05,.17-.09,.26-.14,.3-.12,.61-.22,.92-.29,0,0,.12-.02,.18-.03h.07c.16-.02,.31-.03,.47-.04,.16,0,.31,.01,.47,0h.01c.09,.02,.18,.03,.28,.05,.15,.03,.3,.07,.45,.11Z"/><path class="cls-11" d="M283.49,403.03h0s.05-.05,.08-.08c-.01,.01-.04,.04-.08,.08Z"/><path class="cls-9" d="M282.38,403.49h0s.08-.02,.12-.03c.03-.01,0-.01-.13,.03Z"/></g><g><path class="cls-10" d="M271.97,393.93c-1.07,.16-2.98,.52-2.98,.55,0,.1,.02,.2,.02,.3-.01,.03-.05,.3-.06,.34-.01,.05-.02,.1-.04,.15,0,.02-.02,.04-.04,.11-.08,.15-.15,.31-.23,.45-.04,.04-.23,.29-.26,.32-.06,.07-.12,.13-.18,.19l-.05,.04c-.12,.09-.24,.18-.36,.26-.07,.04-.13,.08-.2,.12-.02,0-.04,.02-.11,.05-.17,.06-.33,.12-.5,.16,0,0-.04,0-.07,0,0,.13,0,.27,0,.4,.27,1.29-.09,2.52,.41,3.76,.43,1.07,1.22,2.05,2.11,2.77,1.51,1.23,3.7,1.84,5.57,1.09,1.71-.69,2.87-2.25,3.25-4.04,.4-1.89-.23-3.75-1.54-5.13-.98-1.03-2.63-1.96-4.09-1.98-.1,0-.34,.03-.65,.07Zm2.56,4s.09,.09,.13,.13c.1,.14,.2,.26,.3,.41,.04,.07,.08,.13,.12,.2v.02c.06,.13,.12,.26,.16,.39,0,.02,.03,.07,.05,.12,0,.02,0,.02,0,.05,.02,.14,.04,.27,.04,.41,0,.07,0,.14,0,.21v.03h0c-.02,.15-.03,.74-.15,.82,0,0,.13-.35,.02-.08-.03,.06-.05,.13-.08,.19-.07,.16-.14,.32-.23,.47l-.03,.06-.03,.03c-.09,.1-.17,.21-.26,.31-.04,.04-.08,.08-.12,.12-.11,.08-.33,.23-.36,.25-.02,.01-.02,.01-.03,.02-.04,.01-.07,.03-.08,.03-.09,.04-.18,.06-.27,.09,.05-.01-.03,.03-.1,.03h0c-.07,0-.15,.02-.22,.03-.08,0-.16,0-.23,.01-.02,0-.03,0-.04,0h-.03c-.15-.03-.31-.05-.46-.08-.03,0-.06-.01-.08-.02-.02,0-.07,0-.11-.02h-.02c-.16-.07-.32-.13-.47-.21-.07-.04-.14-.07-.21-.11-.1-.06-.13-.06-.13-.05-.13-.09-.31-.27-.35-.31-.06-.05-.12-.11-.17-.16-.02-.02-.09-.1-.13-.15-.23-.3-.44-.6-.63-.92l-.03-.05v-.02c-.05-.1-.1-.21-.14-.31-.08-.21-.16-.42-.23-.64-.04-.12-.07-.24-.1-.37,.71-.54,1.29-1.24,1.68-2.04,.03,0,.06,0,.09,0,.1,0,.19,0,.29,0,.32,.03,.64,.08,.96,.16,0,0,.12,.03,.18,.05l.06,.02c.15,.06,.29,.12,.43,.18,.14,.07,.27,.15,.41,.22h0c.08,.06,.15,.11,.23,.17,.12,.1,.24,.2,.35,.3Z"/><path class="cls-4" d="M273.62,402.25h0s.07-.02,.11-.03c-.02,0-.05,.02-.11,.03Z"/><path class="cls-5" d="M272.43,402.16h0s.08,.02,.12,.03c.03,0,.01,0-.13-.03Z"/></g><g><path class="cls-47" d="M267.99,387.45c-1.07-.15-3-.35-3.01-.33-.02,.1-.04,.2-.07,.29-.02,.03-.13,.28-.15,.31-.02,.05-.05,.09-.08,.13-.01,.02-.03,.04-.07,.09-.12,.12-.23,.25-.35,.37-.05,.02-.3,.21-.34,.23-.08,.05-.15,.09-.23,.13l-.06,.03c-.14,.05-.28,.1-.42,.14-.07,.02-.15,.04-.22,.05-.02,0-.05,0-.11,.01-.18,0-.35,.02-.53,.01,0,0-.03,0-.07-.02-.04,.13-.08,.25-.11,.38-.11,1.31-.81,2.39-.68,3.73,.11,1.14,.59,2.31,1.23,3.26,1.1,1.61,3.02,2.82,5.02,2.63,1.84-.17,3.4-1.34,4.27-2.94,.92-1.7,.85-3.66-.01-5.35-.65-1.27-1.96-2.63-3.36-3.06-.1-.03-.33-.07-.64-.11Zm1.31,4.56c.03,.05,.06,.11,.09,.16,.06,.16,.12,.31,.17,.47,.02,.07,.04,.15,.06,.22v.02c.02,.14,.03,.28,.04,.42,0,.03,0,.08,0,.13,0,.02,0,.02,0,.05-.02,.14-.04,.27-.08,.41-.02,.07-.04,.13-.05,.2v.03h0c-.06,.14-.24,.7-.38,.75,0,0,.23-.3,.04-.07-.04,.05-.08,.11-.13,.16-.11,.13-.23,.26-.35,.38l-.05,.05-.04,.02c-.11,.08-.22,.16-.34,.23-.05,.03-.1,.06-.15,.08-.12,.04-.39,.12-.42,.13-.02,0-.02,0-.03,.01-.04,0-.08,0-.08,0-.1,0-.19,0-.29,0,.05,0-.03,.02-.1,0h0c-.07-.01-.15-.03-.22-.04-.08-.02-.15-.04-.23-.06-.02,0-.03,0-.04,0h-.03c-.14-.08-.28-.14-.42-.22-.02-.01-.05-.03-.07-.04-.02,0-.06-.03-.1-.05h-.01l-.02-.02h.02c-.13-.1-.27-.2-.39-.32-.06-.05-.11-.11-.17-.17-.08-.09-.11-.1-.11-.09-.1-.12-.22-.34-.25-.39-.04-.07-.08-.13-.12-.2-.01-.03-.06-.13-.09-.18-.13-.35-.25-.7-.34-1.06v-.08c-.02-.11-.04-.22-.06-.33-.02-.22-.03-.45-.04-.68,0-.13,0-.25,.01-.38,.84-.32,1.59-.82,2.19-1.47,.03,0,.06,.01,.09,.02,.09,.02,.19,.06,.28,.08,.3,.12,.59,.26,.87,.42,0,0,.1,.07,.16,.1l.05,.04c.12,.1,.24,.2,.36,.3,.12,.1,.22,.22,.33,.33h0c.06,.08,.11,.15,.17,.23,.09,.13,.17,.26,.25,.39Z"/><path class="cls-48" d="M267.2,395.9h0s.07,0,.11,0c-.02,0-.06,0-.11,0Z"/><path class="cls-46" d="M266.08,395.47h0s.07,.04,.11,.07c.03,.01,.01,0-.11-.07Z"/></g><g><path class="cls-45" d="M266.21,380.16c-.81-.71-2.33-1.93-2.35-1.91-.07,.07-.14,.15-.22,.21-.03,.01-.26,.16-.3,.18-.04,.03-.09,.05-.14,.07-.02,0-.04,.01-.11,.04-.17,.04-.33,.09-.5,.12-.05,0-.37,.01-.41,.01-.09,0-.18,0-.26-.02h-.07c-.14-.05-.29-.08-.43-.12-.07-.02-.15-.05-.22-.08-.02,0-.04-.02-.1-.05-.15-.09-.31-.17-.45-.28,0,0-.02-.03-.05-.05-.1,.09-.2,.17-.3,.26-.81,1.04-1.97,1.57-2.59,2.76-.53,1.02-.76,2.26-.73,3.41,.05,1.95,1.01,4,2.8,4.94,1.64,.85,3.58,.71,5.18-.16,1.69-.93,2.69-2.61,2.89-4.51,.15-1.42-.23-3.27-1.16-4.39-.06-.08-.24-.24-.48-.44Zm-1.37,4.55c0,.06,0,.12-.01,.19-.04,.16-.07,.33-.11,.49-.02,.07-.05,.15-.07,.22v.02c-.07,.12-.13,.25-.21,.37-.01,.02-.04,.07-.06,.12-.01,.01-.01,.01-.04,.04-.09,.1-.18,.21-.29,.3-.05,.05-.1,.09-.15,.14l-.02,.02h0c-.12,.08-.58,.46-.72,.42,0,0,.35-.13,.07-.03-.07,.02-.13,.05-.2,.07-.16,.05-.33,.1-.5,.13h-.11c-.14,.02-.27,.03-.41,.02-.06,0-.11,0-.17-.01-.13-.03-.39-.1-.42-.11-.02,0-.02,0-.03,0-.03-.02-.07-.04-.07-.04-.09-.04-.17-.1-.25-.15,.04,.03-.04,0-.09-.05h0l-.02-.02h.02c-.05-.04-.11-.08-.16-.14-.05-.05-.1-.11-.16-.17-.02-.01-.02-.02-.03-.03l-.02-.03c-.09-.13-.17-.26-.24-.4-.01-.02-.03-.05-.04-.08-.01-.02-.04-.06-.05-.1h0v-.02c-.06-.16-.11-.32-.15-.49-.02-.08-.04-.15-.05-.23-.02-.12-.04-.14-.04-.13-.01-.16,0-.41,0-.47,0-.08,0-.16,0-.24,0-.03,.02-.14,.03-.2,.08-.37,.17-.72,.29-1.08l.02-.05v-.02c.06-.1,.11-.2,.16-.3,.1-.2,.22-.4,.34-.59,.07-.11,.14-.21,.21-.31,.87,.19,1.78,.17,2.64-.05,.02,.02,.05,.04,.07,.06,.07,.07,.13,.15,.19,.22,.18,.27,.36,.54,.5,.83,0,0,.05,.11,.08,.17l.02,.06c.05,.15,.1,.3,.14,.45,.04,.15,.06,.31,.1,.46h0c0,.1,.02,.2,.02,.29,0,.15,0,.31,0,.46Z"/><path class="cls-35" d="M260.97,386.83h0s.06,.04,.09,.06c-.01-.01-.05-.03-.09-.06Z"/><path class="cls-41" d="M260.26,385.86h0s.04,.08,.06,.12c.02,.02,.01,0-.06-.12Z"/></g><g><path class="cls-43" d="M266.4,370.67c-.78-.74-2.24-2.03-2.26-2.01-.08,.07-.15,.14-.23,.2-.03,0-.27,.15-.31,.17-.05,.02-.09,.04-.14,.06-.02,0-.04,.01-.11,.03-.17,.03-.33,.07-.5,.09-.05,0-.37,0-.41,0-.09,0-.18-.02-.26-.03l-.07-.02c-.14-.04-.28-.08-.43-.13-.07-.03-.14-.06-.21-.09-.02-.01-.04-.02-.1-.06-.15-.1-.3-.19-.44-.3,0,0-.02-.03-.05-.06-.1,.08-.21,.16-.31,.25-.85,1-2.04,1.48-2.71,2.64-.57,1-.86,2.23-.89,3.37-.04,1.95,.82,4.05,2.56,5.06,1.59,.93,3.55,.88,5.18,.08,1.74-.85,2.81-2.48,3.1-4.37,.21-1.41-.07-3.28-.96-4.44-.06-.08-.23-.25-.45-.46Zm-1.58,4.48c0,.06-.02,.12-.02,.19-.05,.16-.08,.32-.14,.48-.03,.07-.06,.14-.08,.22v.02c-.08,.12-.14,.24-.22,.36-.01,.02-.04,.07-.07,.11-.01,.01-.01,.01-.04,.04-.1,.1-.19,.2-.3,.29-.05,.05-.11,.09-.16,.13l-.02,.02h0c-.12,.07-.6,.44-.74,.39,0,0,.36-.11,.07-.03-.07,.02-.13,.04-.2,.06-.17,.05-.34,.08-.51,.11h-.11c-.14,0-.27,0-.41,0-.06,0-.11-.01-.17-.02-.13-.04-.39-.12-.42-.13-.02,0-.02,0-.03,0-.03-.02-.07-.04-.07-.04-.08-.05-.16-.11-.24-.16,.04,.03-.04,0-.09-.06h0l-.02-.02,.02,.02c-.05-.05-.11-.1-.16-.16-.05-.06-.1-.12-.15-.18-.01-.02-.02-.02-.03-.03l-.02-.03c-.08-.13-.16-.27-.22-.41-.01-.03-.02-.05-.03-.08-.01-.02-.03-.06-.05-.1h0v-.02c-.05-.16-.1-.33-.13-.49-.02-.08-.03-.16-.04-.23-.02-.12-.03-.14-.04-.13,0-.16,.02-.41,.03-.47,0-.08,.01-.16,.02-.24,0-.03,.03-.14,.04-.2,.09-.36,.2-.71,.34-1.06l.02-.05v-.02c.07-.1,.12-.2,.18-.3,.11-.2,.23-.39,.36-.57,.07-.1,.15-.2,.23-.3,.86,.23,1.77,.26,2.64,.07,.02,.02,.04,.04,.06,.07,.06,.07,.12,.15,.18,.23,.17,.28,.33,.55,.46,.85,0,0,.04,.11,.07,.17l.02,.06c.05,.15,.09,.3,.12,.45,.03,.15,.05,.31,.08,.46h0c0,.1,0,.2,0,.29,0,.15,0,.31-.02,.46Z"/><path class="cls-44" d="M260.85,377.09h0s.06,.04,.09,.06c-.01-.01-.05-.03-.09-.06Z"/><path class="cls-36" d="M260.18,376.09h0s.03,.08,.05,.12c.02,.02,.01,0-.05-.12Z"/></g><g><path class="cls-42" d="M268,361.27c-.69-.83-1.98-2.29-2-2.27-.08,.06-.16,.12-.25,.17-.03,0-.29,.11-.32,.13-.05,.02-.1,.03-.15,.05-.02,0-.04,0-.11,.02-.17,.01-.34,.03-.51,.03-.05-.01-.36-.05-.41-.06-.09-.02-.17-.04-.26-.06l-.07-.02c-.14-.06-.27-.11-.41-.18-.07-.03-.14-.07-.2-.11-.02-.01-.04-.03-.09-.07-.14-.11-.27-.22-.4-.35,0,0-.02-.03-.04-.06-.11,.07-.23,.14-.34,.21-.97,.89-2.21,1.22-3.01,2.3-.69,.92-1.13,2.11-1.29,3.24-.28,1.93,.33,4.12,1.94,5.33,1.47,1.11,3.41,1.3,5.13,.7,1.83-.63,3.09-2.13,3.6-3.96,.38-1.37,.32-3.26-.42-4.52-.05-.09-.2-.27-.4-.52Zm-2.11,4.26c-.01,.06-.03,.12-.04,.18-.07,.15-.12,.31-.19,.46-.03,.07-.07,.14-.11,.2v.02c-.1,.11-.17,.22-.27,.33-.02,.02-.05,.06-.08,.1-.01,.01-.01,.01-.04,.03-.11,.09-.22,.17-.33,.25-.06,.04-.12,.07-.18,.11l-.02,.02h0c-.13,.06-.65,.36-.78,.29,0,0,.37-.07,.08-.02-.07,.01-.14,.03-.21,.04-.17,.03-.34,.04-.52,.05h-.11c-.13-.02-.27-.04-.4-.06-.06-.01-.11-.03-.17-.04-.12-.05-.37-.17-.4-.18-.02,0-.02,0-.03-.01-.03-.02-.06-.05-.07-.05-.08-.06-.15-.12-.22-.19,.04,.04-.04-.01-.08-.07h0l-.02-.03,.02,.02c-.05-.06-.09-.12-.14-.18-.04-.06-.08-.13-.13-.19-.01-.02-.02-.02-.03-.04v-.03c-.07-.14-.14-.28-.19-.43,0-.03-.02-.05-.03-.08-.01-.02-.03-.06-.03-.1h0v-.02c-.03-.17-.06-.34-.07-.51,0-.08-.01-.16-.01-.24,0-.12-.01-.14-.02-.14,.01-.16,.07-.4,.08-.46,.01-.08,.03-.15,.05-.23,0-.03,.04-.13,.06-.19,.14-.35,.29-.68,.47-1.01l.02-.05,.02-.02c.07-.09,.13-.18,.2-.27,.14-.18,.28-.36,.43-.52,.08-.09,.18-.18,.26-.27,.83,.33,1.73,.47,2.61,.39,.02,.03,.04,.05,.05,.07,.05,.08,.1,.17,.15,.25,.14,.29,.27,.59,.36,.9,0,0,.03,.12,.05,.18v.07c.04,.15,.06,.31,.08,.47,.01,.16,.01,.31,.02,.47h0c0,.1-.02,.2-.03,.29-.02,.15-.05,.31-.08,.46Z"/><path class="cls-38" d="M261.72,366.98h0s.06,.05,.08,.07c-.01-.01-.04-.04-.08-.07Z"/><path class="cls-39" d="M261.18,365.91h0s.03,.08,.04,.12c.01,.03,.01,0-.04-.12Z"/></g><g><path class="cls-37" d="M270.5,351.71c-.64-.87-1.86-2.39-1.88-2.37-.09,.05-.17,.11-.26,.16-.03,0-.29,.1-.33,.11-.05,.01-.1,.03-.15,.04-.02,0-.05,0-.12,.01-.17,0-.34,.01-.51,0-.05-.02-.36-.07-.4-.08-.09-.02-.17-.05-.25-.07l-.06-.03c-.13-.07-.27-.13-.4-.2-.07-.04-.13-.08-.2-.12-.02-.01-.03-.03-.09-.07-.13-.12-.26-.24-.38-.37,0,0-.02-.03-.04-.06-.12,.06-.24,.12-.35,.19-1.01,.84-2.27,1.11-3.13,2.14-.74,.88-1.23,2.05-1.45,3.17-.37,1.91,.12,4.13,1.66,5.42,1.41,1.19,3.34,1.47,5.09,.97,1.86-.54,3.2-1.97,3.8-3.77,.45-1.35,.49-3.24-.18-4.54-.05-.09-.18-.28-.37-.54Zm-2.32,4.14c-.02,.06-.04,.12-.05,.18-.07,.15-.14,.3-.22,.45-.04,.07-.08,.13-.12,.2v.02c-.1,.11-.19,.22-.28,.32-.02,.02-.05,.06-.09,.1-.01,.01-.02,0-.04,.03-.11,.08-.23,.16-.34,.23-.06,.04-.12,.07-.18,.1h-.02v.02c-.14,.05-.67,.32-.8,.25,0,0,.37-.05,.08-.02-.07,0-.14,.02-.21,.02-.17,.02-.35,.02-.52,.02h-.11c-.13-.04-.27-.06-.4-.09-.06-.01-.11-.03-.16-.05-.12-.06-.36-.19-.39-.2-.02,0-.02,0-.03-.01-.03-.03-.06-.05-.06-.06-.07-.06-.14-.13-.21-.2,.04,.04-.04-.01-.07-.07h0l-.02-.03,.02,.02c-.04-.06-.09-.12-.13-.18-.04-.06-.08-.13-.12-.2-.01-.02-.02-.02-.03-.04v-.03c-.07-.15-.12-.29-.16-.44,0-.03-.01-.05-.02-.08,0-.02-.02-.06-.03-.11h0v-.02c-.02-.17-.04-.34-.04-.51,0-.08,0-.16,0-.24,0-.12,0-.14-.01-.14,.02-.16,.09-.4,.11-.45,.02-.08,.04-.15,.06-.23,0-.03,.05-.13,.07-.19,.15-.34,.32-.67,.52-.99l.03-.05,.02-.02c.07-.09,.14-.18,.21-.26,.14-.17,.3-.34,.46-.5,.09-.09,.18-.17,.28-.26,.81,.37,1.7,.56,2.59,.52,.02,.03,.03,.05,.05,.08,.05,.08,.09,.17,.14,.25,.12,.3,.24,.6,.31,.92,0,0,.02,.12,.04,.18v.07c.03,.16,.04,.31,.05,.47,0,.16,0,.31,0,.47h0c-.01,.1-.03,.2-.04,.29-.03,.15-.06,.3-.1,.45Z"/><path class="cls-40" d="M263.94,357.1h0s.05,.05,.08,.08c-.01-.01-.04-.04-.08-.08Z"/><path class="cls-50" d="M263.45,356h0s.02,.08,.03,.13c.01,.03,.01,0-.03-.13Z"/></g><g><path class="cls-58" d="M274.11,342.86c-.56-.92-1.64-2.54-1.66-2.53-.09,.05-.18,.1-.27,.13-.03,0-.3,.07-.34,.08-.05,.01-.1,.02-.15,.02-.02,0-.05,0-.12,0-.17-.01-.34-.02-.51-.04-.05-.02-.35-.1-.39-.11-.08-.03-.17-.06-.25-.1l-.06-.03c-.13-.08-.25-.15-.38-.24-.06-.04-.12-.09-.18-.14-.01-.01-.03-.03-.08-.08-.12-.13-.24-.26-.34-.4,0,0-.01-.03-.03-.07-.12,.05-.25,.1-.37,.16-1.09,.75-2.36,.9-3.31,1.84-.81,.81-1.41,1.92-1.73,3.02-.55,1.87-.26,4.12,1.16,5.55,1.3,1.31,3.2,1.77,4.98,1.42,1.9-.37,3.36-1.67,4.12-3.41,.57-1.31,.78-3.18,.23-4.54-.04-.09-.16-.3-.32-.57Zm-2.69,3.91c-.02,.06-.05,.12-.07,.17-.09,.14-.16,.29-.26,.43-.04,.06-.09,.12-.14,.19h-.01c-.1,.11-.2,.21-.3,.3-.02,.02-.06,.06-.1,.09-.02,0-.02,0-.05,.03-.12,.07-.24,.14-.36,.2-.06,.03-.13,.06-.19,.09h-.03c-.14,.05-.69,.28-.82,.19,0,0,.38-.01,.08,0-.07,0-.14,0-.21,0-.17,0-.35,0-.52-.03h-.07l-.04-.02c-.13-.04-.26-.07-.39-.12-.05-.02-.11-.04-.16-.06-.11-.07-.34-.22-.37-.24-.02-.01-.02,0-.03-.02-.03-.03-.05-.06-.06-.06-.07-.07-.13-.14-.19-.22,.03,.04-.03-.02-.07-.08h0l-.02-.03,.02,.02c-.04-.06-.08-.13-.11-.19-.04-.07-.06-.14-.1-.21-.01-.02-.01-.03-.02-.04v-.03c-.05-.15-.09-.3-.12-.45,0-.03,0-.06-.01-.08,0-.02-.02-.07-.02-.11,0,0,0,0,0-.01v0c0-.17,0-.34,0-.51,0-.08,.01-.16,.02-.24,.01-.12,0-.14,0-.14,.03-.15,.13-.39,.15-.44,.02-.07,.05-.15,.08-.22,.01-.03,.06-.13,.09-.18,.18-.33,.38-.64,.61-.94l.03-.04,.02-.02c.08-.08,.15-.16,.23-.24,.16-.16,.33-.31,.5-.46,.1-.08,.2-.16,.3-.23,.78,.44,1.65,.71,2.53,.76,.01,.03,.03,.05,.04,.08,.04,.09,.07,.18,.12,.27,.09,.31,.18,.62,.23,.94,0,0,.01,.12,.02,.19v.07c0,.16,0,.31,0,.47,0,.16-.03,.31-.04,.47,0,0,0,0,0,.01-.02,.09-.04,.18-.07,.27-.04,.15-.09,.3-.14,.44Z"/><path class="cls-51" d="M267.08,347.62h0s.05,.06,.07,.08c-.01-.01-.04-.04-.07-.08Z"/><path class="cls-49" d="M266.7,346.48h0s.01,.09,.02,.13c0,.03,.01,0-.02-.13Z"/></g><g><path class="cls-59" d="M277.42,333.54c-.59-.9-1.73-2.48-1.75-2.47-.09,.05-.18,.1-.27,.14-.03,0-.3,.08-.34,.09-.05,.01-.1,.02-.15,.03-.02,0-.05,0-.12,0-.17,0-.34,0-.51-.02-.05-.02-.36-.08-.4-.1-.08-.03-.17-.05-.25-.09l-.06-.03c-.13-.07-.26-.14-.39-.22-.06-.04-.13-.09-.19-.13-.01-.01-.03-.03-.09-.08-.12-.13-.25-.25-.36-.39,0,0-.01-.03-.03-.06-.12,.06-.24,.11-.36,.17-1.06,.79-2.32,.98-3.24,1.97-.78,.84-1.34,1.98-1.62,3.09-.48,1.89-.1,4.13,1.37,5.51,1.35,1.26,3.26,1.65,5.03,1.24,1.88-.44,3.3-1.79,3.99-3.56,.52-1.33,.66-3.21,.06-4.54-.04-.09-.17-.29-.34-.55Zm-2.54,4.01c-.02,.06-.04,.12-.06,.18-.08,.15-.15,.3-.24,.44-.04,.07-.09,.13-.13,.19v.02c-.11,.1-.2,.21-.3,.3-.02,.02-.06,.06-.09,.1-.02,0-.02,0-.04,.03-.12,.07-.23,.15-.36,.21-.06,.03-.13,.06-.19,.09h-.03c-.14,.06-.68,.3-.81,.22,0,0,.38-.03,.08-.01-.07,0-.14,.01-.21,.01-.17,0-.35,0-.52,0h-.11c-.13-.05-.26-.08-.4-.12-.05-.02-.11-.04-.16-.06-.11-.06-.35-.21-.38-.22-.02-.01-.02,0-.03-.01-.03-.03-.05-.06-.06-.06-.07-.07-.13-.14-.2-.21,.03,.04-.03-.02-.07-.07h0l-.02-.03,.02,.02c-.04-.06-.08-.13-.12-.19-.04-.07-.07-.14-.11-.21-.01-.02-.02-.03-.02-.04v-.03c-.06-.15-.1-.3-.14-.45,0-.03-.01-.06-.02-.08,0-.02-.02-.07-.02-.11h0v-.02c-.01-.17-.02-.34-.02-.51,0-.08,0-.16,.01-.24,0-.12,0-.14,0-.14,.03-.15,.11-.39,.13-.45,.02-.08,.05-.15,.07-.22,0-.03,.06-.13,.08-.19,.17-.33,.36-.65,.57-.96l.03-.04,.02-.02c.08-.08,.15-.17,.22-.25,.15-.17,.31-.32,.48-.48,.09-.09,.19-.16,.29-.24,.79,.41,1.67,.65,2.56,.66,.01,.03,.03,.05,.05,.08,.04,.09,.08,.18,.13,.26,.11,.31,.2,.61,.26,.93,0,0,.02,.12,.03,.19v.07c.02,.16,.02,.31,.02,.47,0,.16-.02,.31-.02,.47,0,0,0,0,0,.01-.02,.09-.03,.18-.06,.27-.04,.15-.08,.3-.13,.45Z"/><path class="cls-60" d="M270.58,338.56h0s.05,.05,.08,.08c-.01-.01-.04-.04-.08-.08Z"/><path class="cls-62" d="M270.15,337.43h0s.02,.09,.02,.13c.01,.03,.01,0-.02-.13Z"/></g><g><path class="cls-64" d="M282.01,325.2c-.51-.95-1.51-2.62-1.54-2.61-.09,.04-.18,.09-.28,.12-.03,0-.3,.06-.34,.07-.05,0-.1,.01-.15,.02-.02,0-.05,0-.12,0-.17-.02-.34-.03-.51-.06-.05-.02-.35-.12-.39-.13-.08-.03-.16-.07-.24-.11l-.06-.04c-.12-.08-.25-.16-.36-.25-.06-.05-.12-.1-.18-.15-.01-.02-.03-.03-.08-.08-.11-.14-.22-.27-.32-.42,0,0-.01-.03-.03-.07-.12,.05-.25,.09-.37,.14-1.12,.69-2.4,.78-3.39,1.68-.85,.77-1.51,1.85-1.88,2.94-.64,1.84-.46,4.1,.89,5.6,1.23,1.37,3.1,1.92,4.91,1.67,1.91-.27,3.44-1.5,4.29-3.21,.63-1.28,.94-3.14,.45-4.52-.03-.09-.14-.31-.29-.58Zm-2.88,3.78c-.02,.06-.05,.11-.08,.17-.09,.14-.18,.28-.28,.42-.05,.06-.1,.12-.14,.18h-.01c-.11,.11-.21,.2-.32,.29-.02,.02-.06,.05-.1,.09-.02,0-.02,0-.05,.02-.12,.06-.25,.13-.37,.18-.06,.03-.13,.05-.19,.08h-.03c-.14,.04-.7,.24-.82,.15,0,0,.38,0,.08,0-.07,0-.14,0-.21,0-.17,0-.34-.03-.52-.05h-.07l-.04-.02c-.13-.05-.26-.08-.39-.14-.05-.02-.1-.05-.16-.07-.11-.07-.33-.23-.36-.25-.02-.01-.02-.01-.03-.02-.02-.03-.05-.06-.05-.06-.06-.07-.12-.15-.18-.23,.03,.04-.03-.02-.06-.08h0l-.02-.03,.02,.02c-.03-.07-.07-.13-.1-.2-.03-.07-.06-.14-.09-.21,0-.02-.01-.03-.02-.04v-.03c-.04-.15-.07-.3-.09-.46,0-.03,0-.06,0-.08,0-.02-.01-.07-.01-.11h0v-.02c0-.17,.01-.34,.03-.51,0-.08,.02-.16,.03-.23,.02-.12,.01-.14,0-.14,.04-.15,.15-.38,.17-.44,.03-.07,.06-.15,.09-.22,.01-.03,.07-.12,.1-.18,.2-.32,.41-.62,.65-.91l.03-.04,.02-.02c.08-.07,.16-.16,.24-.23,.17-.15,.34-.3,.52-.43,.1-.08,.21-.15,.31-.22,.75,.48,1.61,.79,2.49,.88,.01,.03,.03,.06,.04,.08,.04,.09,.07,.18,.1,.27,.08,.31,.15,.63,.18,.95,0,0,0,.12,.01,.19,0,.03,0,.05,0,.07,0,.16-.01,.31-.03,.47-.01,.16-.05,.31-.06,.46,0,0,0,0,0,.01-.03,.09-.05,.18-.08,.27-.05,.15-.1,.29-.16,.43Z"/><path class="cls-63" d="M274.76,329.61h0s.05,.06,.07,.09c0-.01-.03-.05-.07-.09Z"/><path class="cls-61" d="M274.43,328.46h0s0,.09,.01,.13c0,.03,.01,0-.01-.13Z"/></g><g><path class="cls-55" d="M285.4,315.93c-.69-.83-1.98-2.28-2.01-2.27-.08,.06-.16,.12-.25,.17-.03,0-.29,.11-.32,.13-.05,.02-.1,.03-.15,.05-.02,0-.04,0-.11,.02-.17,.01-.34,.03-.51,.03-.05-.01-.36-.05-.41-.05-.09-.02-.17-.04-.26-.06l-.07-.02c-.14-.06-.27-.11-.41-.18-.07-.03-.14-.07-.2-.11-.02-.01-.04-.03-.09-.07-.14-.11-.27-.22-.4-.35,0,0-.02-.03-.04-.06-.11,.07-.23,.14-.34,.21-.97,.89-2.21,1.22-3.01,2.3-.69,.92-1.12,2.11-1.28,3.24-.27,1.93,.34,4.12,1.94,5.33,1.47,1.11,3.42,1.29,5.14,.7,1.82-.63,3.09-2.13,3.59-3.97,.38-1.37,.32-3.26-.42-4.52-.05-.09-.2-.27-.4-.52Zm-2.1,4.26c-.01,.06-.03,.12-.04,.18-.06,.15-.12,.31-.19,.46-.03,.07-.07,.14-.11,.2v.02c-.09,.11-.17,.22-.27,.33-.02,.02-.05,.06-.08,.1-.01,.01-.01,.01-.04,.03-.11,.09-.22,.17-.33,.25-.06,.04-.12,.07-.18,.11l-.02,.02h0c-.13,.06-.65,.36-.78,.29,0,0,.37-.07,.08-.02-.07,.01-.14,.03-.21,.04-.17,.03-.34,.04-.52,.05h-.11c-.13-.02-.27-.04-.4-.06-.06-.01-.11-.03-.17-.04-.12-.05-.37-.17-.4-.18-.02,0-.02,0-.03-.01-.03-.02-.06-.05-.07-.05-.08-.06-.15-.12-.22-.19,.04,.04-.04-.01-.08-.07h0l-.02-.03,.02,.02c-.05-.06-.09-.12-.14-.18-.05-.06-.08-.13-.13-.19-.01-.02-.02-.02-.03-.04v-.03c-.07-.14-.14-.28-.19-.43,0-.03-.02-.05-.03-.08-.01-.02-.03-.06-.03-.1h0v-.02c-.03-.17-.06-.34-.07-.51,0-.08-.01-.16-.01-.24,0-.12-.01-.14-.02-.14,.01-.16,.07-.4,.08-.46,.01-.08,.03-.15,.05-.23,0-.03,.04-.13,.06-.19,.14-.35,.29-.68,.47-1.02l.02-.05,.02-.02c.07-.09,.13-.19,.2-.27,.14-.18,.28-.36,.43-.52,.08-.1,.18-.18,.26-.27,.83,.33,1.73,.47,2.62,.39,.02,.03,.04,.05,.05,.07,.05,.08,.1,.17,.15,.25,.14,.29,.27,.59,.36,.9,0,0,.03,.12,.05,.18v.07c.04,.15,.06,.31,.08,.46,.02,.16,.01,.31,.03,.47h0c0,.1-.02,.2-.03,.29-.02,.15-.04,.31-.08,.46Z"/><path class="cls-53" d="M279.13,321.65h0s.06,.05,.08,.07c-.01-.01-.04-.04-.08-.07Z"/><path class="cls-57" d="M278.59,320.58h0s.03,.08,.04,.12c.01,.03,.01,0-.04-.12Z"/></g><g><path class="cls-54" d="M289.67,307.34c-.6-.89-1.75-2.47-1.78-2.45-.09,.05-.18,.1-.27,.14-.03,0-.29,.09-.33,.1-.05,.01-.1,.02-.15,.03-.02,0-.05,0-.12,0-.17,0-.34,0-.51-.01-.05-.02-.36-.08-.4-.09-.08-.02-.17-.05-.25-.08l-.06-.03c-.13-.07-.26-.14-.39-.22-.06-.04-.13-.09-.19-.13-.02-.01-.03-.03-.09-.08-.12-.13-.25-.25-.36-.38,0,0-.02-.03-.04-.06-.12,.06-.24,.11-.36,.17-1.05,.8-2.31,1-3.22,2-.77,.85-1.32,1.99-1.59,3.1-.46,1.89-.07,4.13,1.42,5.49,1.36,1.25,3.27,1.62,5.04,1.19,1.88-.45,3.28-1.82,3.96-3.6,.51-1.33,.63-3.22,.02-4.54-.04-.09-.17-.29-.34-.55Zm-2.51,4.03c-.02,.06-.04,.12-.06,.18-.08,.15-.15,.3-.24,.44-.04,.07-.08,.13-.13,.19v.02c-.11,.1-.2,.21-.3,.3-.02,.02-.05,.06-.09,.1-.02,0-.02,0-.04,.03-.12,.07-.23,.15-.35,.22-.06,.03-.12,.06-.19,.1h-.03c-.14,.06-.68,.31-.81,.23,0,0,.37-.03,.08-.01-.07,0-.14,.01-.21,.02-.17,0-.35,0-.52,0h-.11c-.13-.05-.27-.07-.4-.11-.05-.02-.11-.04-.16-.05-.11-.06-.35-.2-.38-.22-.02-.01-.02,0-.03-.01-.03-.03-.06-.05-.06-.06-.07-.07-.13-.14-.2-.21,.03,.04-.04-.01-.07-.07h0l-.02-.03,.02,.02c-.04-.06-.08-.12-.12-.19-.04-.07-.07-.14-.11-.2-.01-.02-.02-.03-.02-.04v-.03c-.06-.15-.11-.3-.14-.45,0-.03-.01-.06-.02-.08,0-.02-.02-.07-.02-.11h0v-.02c-.01-.17-.02-.34-.02-.51,0-.08,0-.16,.01-.24,0-.12,0-.14,0-.14,.03-.15,.11-.39,.13-.45,.02-.08,.04-.15,.07-.23,0-.03,.05-.13,.08-.19,.17-.34,.35-.65,.56-.97l.03-.04,.02-.02c.08-.08,.15-.17,.22-.25,.15-.17,.31-.33,.48-.48,.09-.09,.19-.17,.29-.25,.8,.41,1.68,.63,2.57,.64,.02,.03,.03,.05,.05,.08,.05,.09,.08,.18,.13,.26,.11,.31,.21,.61,.27,.93,0,0,.02,.12,.03,.19v.07c.02,.16,.03,.31,.03,.47,0,.16-.02,.31-.02,.47,0,0,0,0,0,.01-.02,.09-.03,.18-.05,.28-.03,.15-.07,.3-.12,.45Z"/><path class="cls-52" d="M282.88,312.42h0s.05,.05,.08,.08c-.01-.01-.04-.04-.08-.08Z"/><path class="cls-56" d="M282.44,311.3h0s.02,.09,.02,.13c.01,.03,.01,0-.03-.13Z"/></g><g><path class="cls-26" d="M293.08,298.5c-.56-.92-1.63-2.55-1.65-2.54-.09,.05-.18,.09-.27,.13-.03,0-.3,.07-.34,.08-.05,.01-.1,.02-.15,.02-.02,0-.05,0-.12,0-.17-.01-.34-.02-.51-.04-.05-.02-.35-.1-.39-.11-.08-.03-.17-.06-.25-.1l-.06-.03c-.13-.08-.25-.15-.38-.24-.06-.04-.12-.09-.18-.14-.01-.01-.03-.03-.08-.08-.12-.13-.24-.26-.34-.4,0,0-.01-.03-.03-.07-.12,.05-.25,.1-.37,.16-1.09,.74-2.36,.89-3.31,1.83-.82,.81-1.42,1.92-1.75,3.02-.55,1.87-.27,4.12,1.14,5.56,1.29,1.32,3.19,1.78,4.98,1.44,1.9-.36,3.37-1.66,4.14-3.4,.58-1.3,.79-3.18,.25-4.54-.04-.09-.16-.3-.32-.57Zm-2.7,3.9c-.02,.06-.05,.12-.07,.17-.09,.14-.16,.29-.26,.43-.04,.06-.09,.12-.14,.19h-.01c-.1,.11-.2,.21-.3,.3-.02,.02-.06,.06-.1,.09-.02,0-.02,0-.05,.02-.12,.07-.24,.14-.36,.2-.06,.03-.13,.06-.19,.09h-.03c-.14,.05-.69,.27-.82,.19,0,0,.38-.01,.08,0-.07,0-.14,0-.21,0-.17,0-.35,0-.52-.03h-.07l-.04-.02c-.13-.04-.26-.07-.39-.12-.05-.02-.11-.04-.16-.06-.11-.07-.34-.22-.37-.24-.02-.01-.02,0-.03-.02-.03-.03-.05-.06-.06-.06-.07-.07-.13-.14-.19-.22,.03,.04-.03-.02-.07-.08h0l-.02-.03,.02,.02c-.04-.06-.07-.13-.11-.19-.04-.07-.06-.14-.1-.21-.01-.02-.01-.03-.02-.04v-.03c-.05-.15-.09-.3-.12-.45,0-.03,0-.06-.01-.08,0-.02-.02-.07-.02-.11,0,0,0,0,0-.01v0c0-.17,0-.34,0-.51,0-.08,.01-.16,.02-.24,.01-.12,0-.14,0-.14,.04-.15,.13-.39,.15-.44,.03-.07,.05-.15,.08-.22,.01-.03,.06-.13,.09-.18,.19-.33,.38-.63,.61-.94l.03-.04,.02-.02c.08-.08,.15-.16,.23-.24,.16-.16,.33-.31,.5-.46,.1-.08,.2-.16,.3-.23,.77,.45,1.64,.72,2.53,.77,.01,.03,.03,.05,.04,.08,.04,.09,.07,.18,.12,.27,.09,.31,.18,.62,.22,.94,0,0,.01,.12,.02,.19v.07c0,.16,0,.31,0,.47,0,.16-.03,.31-.04,.47,0,0,0,0,0,.01-.02,.09-.04,.18-.07,.27-.04,.15-.09,.3-.14,.44Z"/><path class="cls-25" d="M286.03,303.24h0s.05,.06,.07,.08c-.01-.01-.04-.04-.07-.08Z"/><path class="cls-28" d="M285.66,302.09h0s.01,.09,.02,.13c0,.03,.01,0-.02-.13Z"/></g><g><path class="cls-27" d="M296.41,289.08c-.56-.92-1.63-2.55-1.66-2.53-.09,.05-.18,.1-.27,.13-.03,0-.3,.07-.34,.08-.05,.01-.1,.02-.15,.02-.02,0-.05,0-.12,0-.17-.01-.34-.02-.51-.04-.05-.02-.35-.1-.39-.11-.08-.03-.17-.06-.25-.1l-.06-.03c-.13-.08-.25-.15-.38-.24-.06-.04-.12-.09-.18-.14-.01-.01-.03-.03-.08-.08-.12-.13-.24-.26-.34-.4,0,0-.01-.03-.03-.07-.12,.05-.25,.1-.37,.16-1.09,.75-2.36,.9-3.31,1.84-.81,.81-1.41,1.92-1.74,3.02-.55,1.87-.26,4.12,1.16,5.55,1.3,1.31,3.19,1.77,4.98,1.43,1.9-.37,3.36-1.67,4.13-3.41,.57-1.31,.78-3.18,.23-4.54-.04-.09-.16-.3-.32-.57Zm-2.69,3.91c-.02,.06-.05,.12-.07,.17-.09,.14-.16,.29-.26,.43-.04,.06-.09,.12-.14,.19h-.01c-.1,.11-.2,.21-.3,.3-.02,.02-.06,.06-.1,.09-.02,0-.02,0-.05,.03-.12,.07-.24,.14-.36,.2-.06,.03-.13,.06-.19,.09h-.03c-.14,.05-.69,.28-.82,.19,0,0,.38-.01,.08,0-.07,0-.14,0-.21,0-.17,0-.35,0-.52-.03h-.07l-.04-.02c-.13-.04-.26-.07-.39-.12-.05-.02-.11-.04-.16-.06-.11-.07-.34-.22-.37-.24-.02-.01-.02,0-.03-.02-.03-.03-.05-.06-.06-.06-.07-.07-.13-.14-.19-.22,.03,.04-.03-.02-.07-.08h0l-.02-.03,.02,.02c-.04-.06-.08-.13-.11-.19-.04-.07-.06-.14-.1-.21-.01-.02-.01-.03-.02-.04v-.03c-.05-.15-.09-.3-.12-.45,0-.03,0-.06-.01-.08,0-.02-.02-.07-.02-.11,0,0,0,0,0-.01v0c0-.17,0-.34,0-.51,0-.08,.01-.16,.02-.24,.01-.12,0-.14,0-.14,.03-.15,.13-.39,.15-.44,.02-.07,.05-.15,.08-.22,.01-.03,.06-.13,.09-.18,.18-.33,.38-.64,.61-.94l.03-.04,.02-.02c.08-.08,.15-.16,.23-.24,.16-.16,.33-.31,.5-.46,.1-.08,.2-.16,.3-.23,.78,.44,1.65,.71,2.53,.76,.01,.03,.03,.05,.04,.08,.04,.09,.07,.18,.12,.27,.09,.31,.18,.62,.23,.94,0,0,.01,.12,.02,.19v.07c0,.16,0,.31,0,.47,0,.16-.03,.31-.04,.47,0,0,0,0,0,.01-.02,.09-.04,.18-.07,.27-.04,.15-.09,.3-.14,.44Z"/><path class="cls-31" d="M289.38,293.84h0s.05,.06,.07,.08c-.01-.01-.04-.04-.07-.08Z"/><path class="cls-29" d="M289,292.7h0s.01,.09,.02,.13c0,.03,.01,0-.02-.13Z"/></g><g><path class="cls-30" d="M299.76,279.18c-.58-.91-1.69-2.51-1.72-2.49-.09,.05-.18,.1-.27,.14-.03,0-.3,.08-.34,.09-.05,.01-.1,.02-.15,.03-.02,0-.05,0-.12,0-.17,0-.34,0-.51-.03-.05-.02-.36-.09-.4-.1-.08-.03-.17-.06-.25-.09l-.06-.03c-.13-.07-.26-.14-.38-.23-.06-.04-.13-.09-.19-.13-.01-.01-.03-.03-.09-.08-.12-.13-.24-.25-.35-.39,0,0-.01-.03-.03-.07-.12,.05-.24,.11-.36,.17-1.07,.77-2.34,.95-3.26,1.92-.79,.83-1.37,1.96-1.67,3.06-.5,1.88-.16,4.13,1.28,5.53,1.33,1.28,3.23,1.7,5.01,1.31,1.89-.41,3.32-1.74,4.05-3.5,.54-1.32,.71-3.2,.13-4.54-.04-.09-.16-.3-.33-.56Zm-2.6,3.97c-.02,.06-.04,.12-.07,.17-.08,.15-.16,.29-.25,.44-.04,.06-.09,.13-.13,.19v.02c-.11,.1-.2,.2-.31,.3-.02,.02-.06,.06-.09,.09-.02,0-.02,0-.04,.03-.12,.07-.24,.15-.36,.21-.06,.03-.13,.06-.19,.09h-.03c-.14,.06-.69,.29-.81,.21,0,0,.38-.02,.08-.01-.07,0-.14,0-.21,.01-.17,0-.35,0-.52-.02h-.07l-.04-.02c-.13-.04-.26-.07-.39-.11-.05-.02-.11-.04-.16-.06-.11-.06-.35-.21-.37-.23-.02-.01-.02,0-.03-.01-.03-.03-.05-.06-.06-.06-.07-.07-.13-.14-.19-.21,.03,.04-.03-.02-.07-.07h0l-.02-.03,.02,.02c-.04-.06-.08-.13-.11-.19-.04-.07-.07-.14-.11-.21-.01-.02-.02-.03-.02-.04v-.03c-.05-.15-.1-.3-.13-.45,0-.03-.01-.06-.02-.08,0-.02-.02-.07-.02-.11,0,0,0,0,0-.01v0c0-.17-.01-.34,0-.51,0-.08,0-.16,.02-.24,.01-.12,0-.14,0-.14,.03-.15,.12-.39,.14-.45,.02-.08,.05-.15,.08-.22,.01-.03,.06-.13,.08-.18,.18-.33,.37-.64,.58-.95l.03-.04,.02-.02c.08-.08,.15-.17,.23-.25,.16-.16,.32-.32,.49-.47,.1-.08,.2-.16,.29-.24,.79,.43,1.66,.67,2.55,.7,.01,.03,.03,.05,.05,.08,.04,.09,.08,.18,.12,.26,.1,.31,.19,.62,.25,.94,0,0,.02,.12,.03,.19v.07c.01,.16,.02,.31,.01,.47,0,.16-.03,.31-.03,.47,0,0,0,0,0,.01-.02,.09-.04,.18-.06,.27-.04,.15-.08,.3-.13,.44Z"/><path class="cls-33" d="M292.84,284.1h0s.05,.05,.07,.08c-.01-.01-.04-.04-.07-.08Z"/><path class="cls-34" d="M292.43,282.97h0s.02,.09,.02,.13c.01,.03,.01,0-.02-.13Z"/></g><g><path class="cls-32" d="M303.16,270.59c-.56-.92-1.64-2.54-1.66-2.53-.09,.05-.18,.1-.27,.13-.03,0-.3,.07-.34,.08-.05,.01-.1,.02-.15,.02-.02,0-.05,0-.12,0-.17-.01-.34-.02-.51-.04-.05-.02-.35-.1-.39-.11-.08-.03-.17-.06-.25-.1l-.06-.03c-.13-.08-.25-.15-.38-.24-.06-.04-.12-.09-.18-.14-.01-.01-.03-.03-.08-.08-.12-.13-.24-.26-.34-.4,0,0-.01-.03-.03-.07-.12,.05-.25,.1-.37,.16-1.09,.75-2.36,.9-3.31,1.84-.81,.81-1.41,1.92-1.73,3.02-.55,1.87-.26,4.12,1.16,5.55,1.3,1.31,3.2,1.77,4.98,1.42,1.9-.37,3.36-1.67,4.12-3.41,.57-1.31,.78-3.18,.23-4.54-.04-.09-.16-.3-.32-.57Zm-2.69,3.91c-.02,.06-.05,.12-.07,.17-.09,.14-.16,.29-.26,.43-.04,.06-.09,.12-.14,.19h-.01c-.1,.11-.2,.21-.3,.3-.02,.02-.06,.06-.1,.09-.02,0-.02,0-.05,.03-.12,.07-.24,.14-.36,.2-.06,.03-.13,.06-.19,.09h-.03c-.14,.05-.69,.28-.82,.19,0,0,.38-.01,.08,0-.07,0-.14,0-.21,0-.17,0-.35,0-.52-.03h-.07l-.04-.02c-.13-.04-.26-.07-.39-.12-.05-.02-.11-.04-.16-.06-.11-.07-.34-.22-.37-.24-.02-.01-.02,0-.03-.02-.03-.03-.05-.06-.06-.06-.07-.07-.13-.14-.19-.22,.03,.04-.03-.02-.07-.08h0l-.02-.03,.02,.02c-.04-.06-.08-.13-.11-.19-.04-.07-.06-.14-.1-.21-.01-.02-.01-.03-.02-.04v-.03c-.05-.15-.09-.3-.12-.45,0-.03,0-.06-.01-.08,0-.02-.02-.07-.02-.11,0,0,0,0,0-.01v0c0-.17,0-.34,0-.51,0-.08,.01-.16,.02-.24,.01-.12,0-.14,0-.14,.03-.15,.13-.39,.15-.44,.02-.07,.05-.15,.08-.22,.01-.03,.06-.13,.09-.18,.18-.33,.38-.64,.61-.94l.03-.04,.02-.02c.08-.08,.15-.16,.23-.24,.16-.16,.33-.31,.5-.46,.1-.08,.2-.16,.3-.23,.78,.44,1.65,.71,2.53,.76,.01,.03,.03,.05,.04,.08,.04,.09,.07,.18,.12,.27,.09,.31,.18,.62,.23,.94,0,0,.01,.12,.02,.19v.07c0,.16,0,.31,0,.47,0,.16-.03,.31-.04,.47,0,0,0,0,0,.01-.02,.09-.04,.18-.07,.27-.04,.15-.09,.3-.14,.44Z"/><path class="cls-22" d="M296.13,275.35h0s.05,.06,.07,.08c-.01-.01-.04-.04-.07-.08Z"/><path class="cls-20" d="M295.75,274.21h0s.01,.09,.02,.13c0,.03,.01,0-.02-.13Z"/></g><g><path class="cls-21" d="M306.28,261.47c-.65-.86-1.88-2.37-1.91-2.35-.09,.06-.17,.11-.26,.16-.03,0-.29,.1-.33,.12-.05,.02-.1,.03-.15,.04-.02,0-.05,0-.12,.02-.17,0-.34,.02-.51,.01-.05-.02-.36-.06-.4-.07-.09-.02-.17-.04-.26-.07l-.06-.03c-.13-.06-.27-.12-.4-.2-.07-.04-.13-.08-.2-.12-.02-.01-.04-.03-.09-.07-.13-.12-.26-.23-.38-.36,0,0-.02-.03-.04-.06-.12,.06-.23,.13-.35,.19-1,.85-2.25,1.13-3.1,2.17-.73,.89-1.21,2.06-1.42,3.18-.35,1.92,.16,4.13,1.72,5.41,1.42,1.17,3.36,1.44,5.1,.91,1.85-.56,3.18-2,3.76-3.81,.44-1.36,.46-3.25-.23-4.54-.05-.09-.19-.28-.37-.53Zm-2.28,4.17c-.02,.06-.03,.12-.05,.18-.07,.15-.13,.31-.21,.45-.04,.07-.08,.13-.12,.2v.02c-.1,.11-.18,.22-.28,.32-.02,.02-.05,.06-.09,.1-.01,.01-.02,0-.04,.03-.11,.08-.22,.16-.34,.24-.06,.04-.12,.07-.18,.11h-.02v.02c-.14,.05-.66,.33-.8,.26,0,0,.37-.05,.08-.02-.07,0-.14,.02-.21,.03-.17,.02-.34,.03-.52,.02,0,0-.04,0-.07,0h-.04c-.13-.03-.27-.05-.4-.09-.06-.01-.11-.03-.16-.05-.12-.06-.36-.18-.39-.2-.02,0-.02,0-.03-.01-.03-.03-.06-.05-.06-.06-.07-.06-.14-.13-.21-.2,.04,.04-.04-.01-.08-.07h0l-.02-.03,.02,.02c-.04-.06-.09-.12-.13-.18-.04-.06-.08-.13-.12-.2-.01-.02-.02-.02-.03-.04v-.03c-.07-.15-.12-.29-.17-.44,0-.03-.02-.05-.02-.08,0-.02-.02-.06-.03-.1h0v-.02c-.02-.17-.04-.34-.05-.51,0-.08,0-.16,0-.24,0-.12,0-.14-.02-.14,.02-.16,.09-.4,.1-.46,.02-.08,.04-.15,.06-.23,0-.03,.05-.13,.07-.19,.15-.34,.31-.67,.51-.99l.03-.05,.02-.02c.07-.09,.14-.18,.21-.27,.14-.17,.29-.34,.45-.51,.09-.09,.18-.18,.27-.26,.82,.36,1.71,.54,2.6,.5,.02,.03,.04,.05,.05,.08,.05,.08,.09,.17,.14,.25,.13,.3,.24,.6,.32,.91,0,0,.03,.12,.04,.18v.07c.03,.16,.05,.31,.06,.47,0,.16,0,.31,0,.47h0c-.01,.1-.02,.2-.04,.29-.03,.15-.06,.3-.1,.45Z"/><path class="cls-18" d="M299.77,266.92h0s.05,.05,.08,.08c-.01-.01-.04-.04-.08-.08Z"/><path class="cls-19" d="M299.28,265.83h0s.02,.08,.03,.13c.01,.03,.01,0-.03-.13Z"/></g><g><path class="cls-16" d="M307.69,251.85c-.81-.71-2.33-1.93-2.35-1.91-.07,.07-.14,.15-.22,.21-.03,.01-.26,.16-.3,.18-.04,.03-.09,.05-.14,.07-.02,0-.04,.01-.11,.04-.17,.04-.33,.09-.5,.12-.05,0-.37,.01-.41,.01-.09,0-.18,0-.26-.02h-.07c-.14-.05-.29-.08-.43-.12-.07-.02-.15-.05-.22-.08-.02,0-.04-.02-.1-.05-.15-.09-.31-.17-.45-.28,0,0-.02-.03-.05-.05-.1,.09-.2,.17-.3,.26-.81,1.04-1.97,1.57-2.59,2.76-.53,1.02-.76,2.26-.73,3.41,.05,1.95,1.01,4,2.8,4.94,1.64,.85,3.58,.71,5.18-.16,1.69-.93,2.69-2.61,2.89-4.51,.15-1.42-.23-3.27-1.16-4.39-.06-.08-.24-.24-.48-.44Zm-1.37,4.55c0,.06,0,.12-.01,.19-.04,.16-.07,.33-.11,.49-.02,.07-.05,.15-.07,.22v.02c-.07,.12-.13,.25-.21,.37-.01,.02-.04,.07-.06,.12-.01,.01-.01,.01-.04,.04-.09,.1-.18,.21-.29,.3-.05,.05-.1,.09-.15,.14l-.02,.02h0c-.12,.08-.58,.46-.72,.42,0,0,.35-.13,.07-.03-.07,.02-.13,.05-.2,.07-.16,.05-.33,.1-.5,.13h-.11c-.14,.02-.27,.03-.41,.02-.06,0-.11,0-.17-.01-.13-.03-.39-.1-.42-.11-.02,0-.02,0-.03,0-.03-.02-.07-.04-.07-.04-.09-.04-.17-.1-.25-.15,.04,.03-.04,0-.09-.05h0l-.02-.02h.02c-.05-.04-.11-.08-.16-.14-.05-.05-.1-.11-.16-.17-.02-.01-.02-.02-.03-.03l-.02-.03c-.09-.13-.17-.26-.24-.4-.01-.02-.03-.05-.04-.08-.01-.02-.04-.06-.05-.1h0v-.02c-.06-.16-.11-.32-.15-.49-.02-.08-.04-.15-.05-.23-.02-.12-.04-.14-.04-.13-.01-.16,0-.41,0-.47,0-.08,0-.16,0-.24,0-.03,.02-.14,.03-.2,.08-.37,.17-.72,.29-1.08l.02-.05v-.02c.06-.1,.11-.2,.16-.3,.1-.2,.22-.4,.34-.59,.07-.11,.14-.21,.21-.31,.87,.19,1.78,.17,2.64-.05,.02,.02,.05,.04,.07,.06,.07,.07,.13,.15,.19,.22,.18,.27,.36,.54,.5,.83,0,0,.05,.11,.08,.17l.02,.06c.05,.15,.1,.3,.14,.45,.04,.15,.06,.31,.1,.46h0c0,.1,.02,.2,.02,.29,0,.15,0,.31,0,.46Z"/><path class="cls-17" d="M302.45,258.53h0s.06,.04,.09,.06c-.01-.01-.05-.03-.09-.06Z"/><path class="cls-14" d="M301.74,257.56h0s.04,.08,.06,.12c.02,.02,.01,0-.06-.12Z"/></g><g><path class="cls-15" d="M309.67,241.74c.04,.05,1.22-1.9,1.27-2.15,.15-.75,.07-1.64,.15-2.41,.16-1.44-2.12-.92-2.77-.21-.42,.46-.09,.98-.2,1.54-.12,.62-.56,1.17-1.07,1.52,.21-.14-.2,.09-.25,.12-.05,.02-.09,.04-.14,.06-.02,0-.04,.01-.11,.03-.17,.03-.33,.07-.5,.09-.05,0-.37,0-.41-.01-.09,0-.18-.02-.26-.03l-.07-.02c-.14-.04-.28-.08-.42-.13-.07-.03-.14-.06-.21-.09-.02-.01-.04-.02-.1-.06-.15-.1-.29-.19-.43-.3-.01-.02-.25-.27-.28-.3-.05-.06-.07-.09-.08-.1-.05-.08-.09-.15-.14-.23-.16-.31-.21-.46-.29-.89-.1-.58,0-1.46,.16-2.08,.32-1.18,.85-2.28,1.47-3.33,.7-1.17,.49-1.53,1.8-1.61,.25-.01,.47-.17,.67-.32-1.3-3.79-4.95-.75-5.96,1.55-.96,2.18-1.67,5.45-.69,7.74,.23,.54,.56,1.02,.95,1.43-.93,1.25-1.59,2.7-1.64,4.28-.06,1.95,.78,4.06,2.51,5.09,1.58,.95,3.54,.92,5.18,.14,1.75-.83,2.84-2.45,3.15-4.33,.28-1.73-.24-3.57-1.26-5Zm-1.98,5.42v.02c-.08,.12-.15,.24-.23,.36-.01,.02-.04,.07-.07,.11-.01,.01-.01,.01-.04,.04-.1,.1-.2,.2-.3,.29-.05,.05-.11,.09-.16,.13l-.02,.02h0c-.12,.07-.6,.43-.75,.38,0,0,.36-.11,.08-.03-.07,.02-.13,.04-.2,.06-.17,.04-.34,.08-.51,.1h-.11c-.14,0-.27,0-.41,0-.06,0-.11-.01-.17-.02-.12-.04-.38-.13-.42-.14-.02,0-.02,0-.03,0-.03-.02-.07-.04-.07-.05-.08-.05-.16-.11-.24-.16,.04,.03-.04,0-.08-.06h0l-.02-.02,.02,.02c-.05-.05-.1-.11-.15-.16-.05-.06-.1-.12-.15-.18-.01-.02-.02-.02-.03-.03l-.02-.03c-.08-.14-.15-.27-.22-.41-.01-.03-.02-.05-.03-.08-.01-.02-.03-.06-.05-.1h0v-.02c-.05-.16-.09-.33-.12-.5-.01-.08-.03-.16-.04-.23-.02-.12-.03-.14-.04-.13,0-.16,.03-.41,.03-.47,0-.08,.01-.16,.02-.24,0-.03,.03-.14,.04-.2,.1-.36,.21-.71,.35-1.06l.02-.05v-.02c.07-.1,.12-.2,.18-.29,.12-.19,.24-.38,.37-.57,.07-.1,.15-.2,.23-.3,.86,.24,1.77,.28,2.64,.1,.02,.02,.04,.04,.06,.07,.06,.07,.12,.16,.18,.23,.17,.28,.33,.56,.46,.86,0,0,.04,.11,.07,.18l.02,.06c.04,.15,.08,.3,.11,.46,.03,.15,.05,.31,.08,.46h0c0,.1,0,.2,0,.29,0,.15-.01,.31-.03,.46,0,.06-.02,.12-.02,.19-.05,.16-.09,.32-.14,.48-.03,.07-.06,.14-.08,.22Z"/><path class="cls-13" d="M303.96,248.18h0s.06,.04,.09,.06c-.01-.01-.05-.03-.09-.06Z"/><path class="cls-23" d="M303.3,247.17h0s.03,.08,.05,.12c.02,.02,.01,0-.05-.12Z"/></g><path class="cls-24" d="M300.61,386.34c-2.75-1.08-5.45-2.14-8.34-2.97l-3.22-.92c-2.52-.72-6.55-2.15-7.25,1.79-.43,2.42,2.23,3.33,3.95,4.33,2.82,1.64,5.69,3.19,8.6,4.68,.2,.1,.41,.16,.63,.19,1.34,.18,2.62,1.66,4.23,1.86,.2,.03,.42,.05,.6-.03,.2-.08,.34-.27,.46-.45,1.16-1.74,2.06-4.81,2.34-6.86,.03-.25,.05-.52-.09-.72-.12-.17-.33-.26-.53-.34-.47-.19-.94-.37-1.41-.56Z"/></g></g></svg>