<?xml version="1.0" encoding="UTF-8"?><svg id="Noun_Glasses" xmlns="http://www.w3.org/2000/svg" xmlns:xlink="http://www.w3.org/1999/xlink" viewBox="0 0 500 500"><defs><style>.cls-1{fill:url(#New_Gradient_Swatch_14);}.cls-2{fill:#fff;}.cls-3{stroke-width:2px;}.cls-3,.cls-4{fill:#f6921e;stroke:#000;stroke-miterlimit:10;}.cls-4{stroke-width:2.08px;}</style><linearGradient id="New_Gradient_Swatch_14" data-name="New Gradient Swatch 14" x1="193.79" y1="200.81" x2="206.26" y2="200.81" gradientTransform="translate(-320.03 -314.59) scale(2.61 2.48)" gradientUnits="userSpaceOnUse"><stop offset="0" stop-color="#e71423"/><stop offset=".36" stop-color="#fc523b"/><stop offset="1" stop-color="#e71423"/></linearGradient></defs><g id="Murder_Orange"><polygon class="cls-4" points="315.65 213.6 292.15 209.2 289.08 225.55 312.59 229.95 308.19 253.45 324.54 256.51 328.94 233.01 332 216.66 315.65 213.6"/><rect class="cls-1" x="185.69" y="161.63" width="32.56" height="43.84" transform="translate(37.22 -34.03) rotate(10.6)"/><g><rect class="cls-2" x="216.49" y="185.85" width="61.34" height="61.34" transform="translate(43.21 -41.11) rotate(10.41)"/><rect x="219.47" y="182.38" width="31.63" height="61.85" transform="translate(42.43 -39.01) rotate(10.41)"/></g><g><rect class="cls-2" x="114.06" y="165.75" width="61.34" height="61.34" transform="translate(37.89 -22.93) rotate(10.41)"/><rect x="113.03" y="162.27" width="31.63" height="61.85" transform="translate(37.04 -20.11) rotate(10.41)"/></g><path class="cls-3" d="M221.99,165.07c-3.34-.67-6.68-1.33-10.01-1.95-3.29-.62-6.58-1.23-9.87-1.85l-12.12-2.27v.07l-75.12-14.06-14.83,79.24,75.56,14.14,6.78-36.21,30.29,5.67-6.8,36.32,78.1,14.62,14.8-79.04-1.12-.21-19.59-3.67-30.24-5.66c-8.63-1.62-17.24-3.43-25.83-5.15Zm-57.36,56.45l-48.25-9.03,9.47-50.6,48.25,9.03-9.47,50.6Zm107.9,20.35l-49.87-9.34,9.45-50.47,49.87,9.34-9.45,50.47Z"/></g></svg>