<?xml version="1.0" encoding="UTF-8"?><svg id="Glasses" xmlns="http://www.w3.org/2000/svg" viewBox="0 0 500 500"><defs><style>.cls-1{fill:#fff;}.cls-2{fill:#434845;stroke:#333;stroke-miterlimit:10;}.cls-3{opacity:.72;}.cls-4{fill:#cbcbcb;opacity:.37;}</style></defs><g id="__glasses" data-name="2_glasses"><g><g><path class="cls-4" d="M298.73,199.05c-.38-4.74-1.63-9.33-4.09-12.81-1.57-2.23-3.72-3.98-5.52-6.04-1.21-1.38-2.27-2.92-3.69-4.07-3.69-2.99-10.65-4.73-15.23-5.92-5.3-1.37-11.05-.99-16.41-.27-5.9,.79-9.52,3.43-14.3,6.48s-9.54,4.9-13.01,9.75c-2.74,3.85-3.66,7.06-4.42,11.7-.41,2.5-.79,5.01-.85,7.53-.19,7.8,3.44,13.81,7.58,20.09,3.91,5.92,10.09,9.1,16.51,11.64,14.41,5.72,28.36,3.65,35.22-.68,8.03-5.07,14.02-13.15,16.68-22.25,1.28-4.39,1.95-9.87,1.53-15.15Z"/><g class="cls-3"><path class="cls-1" d="M238.9,182.88c-4.68,4.43-8.33,9.61-10.89,15.29-.37,.81,.4,1.78,1.24,2,1.02,.26,1.82-.32,2.19-1.13,2.32-5.14,5.75-9.85,9.98-13.85,1.59-1.51-.92-3.8-2.52-2.3Z"/><path class="cls-1" d="M243.23,185.93c-5.74,7.14-10.62,14.82-14.54,22.92-.39,.81-.25,1.74,.64,2.22,.75,.41,2.05,.22,2.43-.58,3.92-8.1,8.8-15.78,14.54-22.92,1.36-1.69-1.73-3.31-3.07-1.64Z"/></g></g><g><path class="cls-4" d="M192.59,193.13c1.25-4.72,1.97-11.64,.11-16.22-2.32-5.68-5.95-11.08-10.34-15.35-5.22-5.09-11.33-7.26-18.09-9.43-13.4-4.3-28.98-1.24-39.18,8.64-1.86,1.8-3.4,3.71-4.6,5.68-7.74,12.75-7.3,29.06,1.09,40.59,4.57,6.28,16.66,12.77,32.42,12.2,9.91-.36,19.75-3.59,27.39-10.02,3.83-3.22,7.01-7.16,9.39-11.55,.83-1.53,1.41-3.03,1.81-4.54Z"/><g class="cls-3"><path class="cls-1" d="M133.62,157.98c-4.68,4.43-8.33,9.61-10.89,15.29-.37,.81,.4,1.78,1.24,2,1.02,.26,1.82-.32,2.19-1.13,2.32-5.14,5.75-9.85,9.98-13.85,1.59-1.51-.92-3.8-2.52-2.3Z"/><path class="cls-1" d="M137.95,161.03c-5.74,7.14-10.62,14.82-14.54,22.92-.39,.81-.25,1.74,.64,2.22,.75,.41,2.05,.22,2.43-.58,3.92-8.1,8.8-15.78,14.54-22.92,1.36-1.69-1.73-3.31-3.07-1.64Z"/></g></g></g><g><path class="cls-2" d="M301.65,188.8c-5.51-10.6-16.7-16.3-28.38-18.71-9.52-1.96-19.77-.63-28.41,3.36-10.72,4.95-18.72,10.14-22.14,21.96-2.85,9.85-3.38,21.34,1.86,30.47,3.64,6.34,9.58,11.52,16.7,14.79,17.83,8.19,44.71,8.25,55.57-9.16,7.12-11.41,11.35-30.13,4.8-42.72Zm-18.88,50.03c-9.78,6.18-25.34,4.8-35.63,.72-9.04-3.59-14.82-7.15-18.71-15.38-5.04-10.65-6.38-22.64,0-33.14,4.92-8.1,13.56-12.54,22.2-15.65,19.43-7.01,41,1.65,48.32,18.74,.98,2.28,1.64,4.61,1.94,6.9,1.84,14.02-5.02,29.54-18.13,37.82Z"/><path class="cls-2" d="M197.02,182.55c-1.24-8.06-5.02-14.96-11.41-21.52-6.36-6.54-15.33-11.15-24.99-12.46-8.79-1.19-16.86-.91-24.86,3.26-7.23,3.76-14.25,8.97-17.98,16.41-4.55,9.08-6.05,19.63-4.61,29.65,2.85,19.75,27.85,28.53,47.82,26.78,7.97-.7,15.65-3.56,21.66-8.25,7.07-5.52,13.52-13.15,14.53-22.41,0-.04,.01-.09,.01-.13,.43-4.05,.37-7.8-.17-11.33Zm-17.23,31.01c-7.04,6.36-13.89,7.78-23.78,8.14-11.26,.41-26.29-3.43-32.8-12.39-8.73-12-8.65-28.68-1.11-41.1,1.23-2.03,2.82-3.97,4.67-5.77,13.91-13.47,37.55-14.42,52.69-1.52,6.25,5.32,11.06,11.1,13.36,18.98,1.89,6.47,1.85,13.97-.67,20.28-2.03,5.08-8.37,9.77-12.36,13.38Z"/></g><g><path d="M299.65,186.8c-5.51-10.6-16.7-16.3-28.38-18.71-9.52-1.96-19.77-.63-28.41,3.36-10.72,4.95-18.72,10.14-22.14,21.96-2.85,9.85-3.38,21.34,1.86,30.47,3.64,6.34,9.58,11.52,16.7,14.79,17.83,8.19,44.71,8.25,55.57-9.16,7.12-11.41,11.35-30.13,4.8-42.72Zm-18.88,50.03c-9.78,6.18-25.34,4.8-35.63,.72-9.04-3.59-14.82-7.15-18.71-15.38-5.04-10.65-6.38-22.64,0-33.14,4.92-8.1,13.56-12.54,22.2-15.65,19.43-7.01,41,1.65,48.32,18.74,.98,2.28,1.64,4.61,1.94,6.9,1.84,14.02-5.02,29.54-18.13,37.82Z"/><path d="M195.02,180.55c-1.24-8.06-5.02-14.96-11.41-21.52-6.36-6.54-15.33-11.15-24.99-12.46-8.79-1.19-16.86-.91-24.86,3.26-7.23,3.76-14.25,8.97-17.98,16.41-4.55,9.08-6.05,19.63-4.61,29.65,2.85,19.75,27.85,28.53,47.82,26.78,7.97-.7,15.65-3.56,21.66-8.25,7.07-5.52,13.52-13.15,14.53-22.41,0-.04,.01-.09,.01-.13,.43-4.05,.37-7.8-.17-11.33Zm-17.23,31.01c-7.04,6.36-13.89,7.78-23.78,8.14-11.26,.41-26.29-3.43-32.8-12.39-8.73-12-8.65-28.68-1.11-41.1,1.23-2.03,2.82-3.97,4.67-5.77,13.91-13.47,37.55-14.42,52.69-1.52,6.25,5.32,11.06,11.1,13.36,18.98,1.89,6.47,1.85,13.97-.67,20.28-2.03,5.08-8.37,9.77-12.36,13.38Z"/></g><g><path d="M361.34,196.13c-1.85-1.28-4.22-1.21-6.34-.83-2.51,.44-5,1.03-7.5,1.51-10.24,1.96-20.56,3.43-30.94,4.4-2.88,.27-10.74-.62-12.45,2.05-.42,.66-.62,1.42-.82,2.18l-1.79,6.74c-.13,.5-.26,1.04-.05,1.52,.73,1.65,17.26-3.55,19.48-4.16,6.9-1.88,13.73-3.96,20.51-6.24,4.68-1.58,10.01-4.09,15.09-3.46,3.18,.39,3.83,2.88,3.01,5.69-1.07,3.67,.12,8.23,3.01,3.17,2.1-3.67,2.71-9.89-1.2-12.58Z"/><path d="M119.27,163.27c-1.33-3.53-2.55-6.9-3.44-10.57-.09-.37-.19-.76-.44-1.05-.51-.58-1.49-.52-2.12-.07-3.3,2.33-2.85,8.38-2.45,11.8,.31,2.58,1.15,6.1,3.37,7.8,.69,.53,1.75,.16,2.27-.53,.8-1.06,1.29-4.06,1.48-5.39,0-.04,0-.07,0-.1,.09,0,.19-.03,.28-.06,.71-.23,1.35-1.06,1.05-1.85Z"/><path d="M220.59,199.5c-.09-2.12-.72-4.25-1.65-5.91-2.05-3.66-6.47-5.12-10.29-6.05-3.36-.82-7.63-.75-10.82,.93-3.05,1.6-4.37,4.61-5.57,7.65-.52,1.31-.97,2.81-.36,4.08,1.63-.17,2.88-1.48,3.89-2.77,3.19-4.06,6.7-4.83,11.77-4.38,4.17,.37,8.99,2.36,9.88,6.81,.33,1.66,.4,3.4,1.14,4.92,.08,.17,.2,.35,.39,.37,.19,.01,.34-.17,.44-.33,.94-1.53,1.28-3.42,1.2-5.32Z"/></g></g></svg>