<?xml version="1.0" encoding="UTF-8"?><svg id="Background" xmlns="http://www.w3.org/2000/svg" xmlns:xlink="http://www.w3.org/1999/xlink" viewBox="0 0 500 500"><defs><style>.cls-1{fill:none;}.cls-2{fill:url(#linear-gradient);}.cls-3{fill:#fbfaf9;}.cls-4{fill:#333;}.cls-5{fill:#dcdbda;}.cls-6{fill:url(#New_Pattern_16);}</style><linearGradient id="linear-gradient" x1="0" y1="0" x2="500" y2="500" gradientTransform="matrix(1,0,0,1,0,0)" gradientUnits="userSpaceOnUse"><stop offset="0" stop-color="#8de8f1"/><stop offset="0" stop-color="#e97a91"/><stop offset="0" stop-color="#f4f2b9"/><stop offset="1" stop-color="#caedc1"/></linearGradient><pattern id="New_Pattern_16" data-name="New Pattern 16" x="0" y="0" width="398.91" height="284.38" patternUnits="userSpaceOnUse" viewBox="0 0 398.91 284.38"><g><rect class="cls-1" width="398.91" height="284.38"/><g><g><path class="cls-3" d="M328.78,168.98c-1.2-1.19-1.23-3.1-.54-4.57,1.46-3.11,5.65-4.07,8.77-4.11,2.99-.03,6.27,.87,8.03,3.44-.26,.73,.52,1.69,1.37,1.17,1.68-1.02,3.9-1.01,5.51,.16,1.46,1.06,2.25,3.02,1.94,4.79-.12,.72,.42,1.35,1.18,1.18,2.4-.55,5.17,.24,6.7,2.24,1.46,1.91,1.67,4.85,.17,6.79-1.23,1.6-3.5,2.41-5.45,1.82-.63-.19-1.2-.52-1.85-.62-.69-.11-1.34,.04-1.93,.4-.55,.33-1.02,.78-1.55,1.14-.42,.28-.87,.52-1.33,.74-1.89,.89-4.15,1.15-6.21,.79-1.08-.19-2.15-.52-3.12-1.03-1.02-.53-1.78-1.3-2.7-1.96-1.28-.92-2.5-.37-3.79,.18-.94,.4-1.95,.6-2.97,.6-2,.01-4.05-.69-5.58-2-1.62-1.39-3.06-3.8-1.91-5.91,1.02-1.87,3.21-2.88,5.06-3.72,.57-.26,.6-1.1,.19-1.5Z"/><g><path class="cls-5" d="M336.32,176.26c.06-.47,.32-.88,.83-.94,.42-.05,.98,.21,1.05,.69,.5,3.35,2.41,6.71,6.09,7.07,1.03,.1,2.09,.07,3.12,0,.9-.06,1.82-.24,2.51-.86,1.14-1.02,1.47-2.67,1.4-4.14-.03-.05-.07-.1-.09-.16-.07-.14-.13-.28-.18-.43-.03-.07-.05-.15-.07-.23-.04-.13-.05-.25-.02-.38,0-.13,.04-.25,.11-.36,.06-.11,.14-.2,.25-.27,.01-.01,.03-.02,.04-.03,.04-.07,.08-.13,.14-.18,.18-.17,.42-.29,.68-.28,.26,.01,.49,.1,.68,.28,.44,.43,.89,.86,1.33,1.29,.59,.49,1.22,.97,1.92,1.25,.88,.36,1.77,.26,2.63-.12,1.6-.71,2.79-2.34,2.18-4.1-.25-.38-.26-.88,.09-1.23,.34-.34,1.02-.4,1.35,0,.88,1.06,1.15,2.4,.89,3.73,.02,.05,.04,.1,.05,.16,.48,2.44-1.25,4.74-3.56,5.44-.94,.29-1.92,.27-2.83-.05-1.15-.06-2.13-.67-3.01-1.39h-.01l-1.61,1.78c-.14,.16-.38,.25-.59,.27-.98,1.13-2.32,1.69-3.86,1.85-1.9,.2-4.05,.25-5.86-.45-.45-.17-.87-.39-1.27-.64-.24,.26-.62,.42-.95,.28-3.16-1.33-3.82-4.78-3.44-7.87Z"/><path class="cls-5" d="M322.55,175.14c.27-1.45,1.29-2.68,2.34-3.65,.9-.84,2.26,.51,1.35,1.35-.84,.77-1.73,1.73-1.86,2.92-.14,1.26,.61,2.46,1.5,3.28,.85,.79,1.92,1.32,3.02,1.66,.97,.3,2.32,.58,3.17-.15,.39-.34,.97-.38,1.35,0,.34,.34,.39,1.01,0,1.35-2.03,1.75-5.04,.92-7.16-.25-2.3-1.28-4.23-3.74-3.71-6.51Z"/><path class="cls-5" d="M327.7,164.64c.17-.93,.66-1.8,1.39-2.4,.73-.6,1.58-.96,2.45-1.32,.48-.2,1.05,.21,1.18,.67,.15,.55-.19,.98-.67,1.18-1.15,.47-2.29,1-2.5,2.38-.2,1.25,.22,2.62,1.05,3.59,.33,.39,.39,.97,0,1.35-.34,.34-1.02,.39-1.35,0-1.29-1.51-1.89-3.49-1.54-5.45Z"/><path class="cls-5" d="M352.89,168.51c.02,.23,.02,.47,0,.7,0,0-.01,.11-.02,.13v.05c-.03,.12-.06,.24-.1,.36-.03,.1-.08,.21-.11,.31h0c-.03,.06-.05,.12-.08,.17-.05,.1-.11,.19-.17,.29-.03,.05-.07,.09-.1,.14l-.02,.02c-.34,.41-.38,.94,0,1.35,.33,.36,1.03,.39,1.35,0,.82-.98,1.25-2.24,1.15-3.53-.1-1.27-.61-2.51-1.57-3.36-.4-.35-.95-.37-1.35,0-.36,.33-.38,1.02,0,1.35,.09,.08,.18,.17,.27,.26,.04,.04,.08,.1,.12,.14h0c.13,.2,.25,.4,.35,.61l.02,.04s.04,.09,.05,.14c.04,.1,.07,.21,.1,.32,.03,.12,.05,.24,.08,.36h0c0,.06,0,.1,.01,.15Z"/></g><path class="cls-4" d="M326.63,169.3c-1.05-1.79-1.09-3.59,0-5.4,1.87-3.1,4.9-5.24,8.56-5.32,2.1-.05,4.52-.17,6.52,.51,1.99,.68,3.73,1.87,4.92,3.61,2.1-.77,4.57-.52,6.39,.83,1.76,1.3,2.74,3.34,2.78,5.48,2.24-.19,4.5,.46,6.26,1.9,2.1,1.72,3.07,4.51,2.67,7.17-.39,2.62-2.26,4.71-4.75,5.56-1.17,.4-2.45,.47-3.65,.2-.65-.14-1.22-.49-1.85-.65-.69-.17-1.15,.32-1.65,.72-4.04,3.14-10.11,3.3-14.35,.44-.52-.35-1-.75-1.46-1.16-.61-.54-.98-.51-1.71-.19-1.2,.52-2.35,.91-3.66,1.01-2.38,.18-4.89-.53-6.81-1.93-2.38-1.73-4.42-4.86-3.38-7.89,.8-2.36,3-3.81,5.17-4.88Zm-1.2,10.82c1.53,1.31,3.58,2.01,5.58,2,1.02,0,2.03-.2,2.97-.6,1.29-.55,2.51-1.09,3.79-.18,.92,.66,1.68,1.43,2.7,1.96,.98,.51,2.04,.84,3.12,1.03,2.05,.35,4.32,.1,6.21-.79,.46-.22,.9-.46,1.33-.74,.53-.35,1-.81,1.55-1.14,.59-.36,1.25-.5,1.93-.4,.65,.1,1.22,.43,1.85,.62,1.95,.6,4.21-.21,5.45-1.82,1.5-1.95,1.29-4.89-.17-6.79-1.53-2-4.3-2.79-6.7-2.24-.76,.17-1.3-.45-1.18-1.18,.31-1.77-.48-3.73-1.94-4.79-1.61-1.17-3.84-1.18-5.51-.16-.84,.51-1.63-.44-1.37-1.17-1.76-2.58-5.04-3.48-8.03-3.44-3.12,.03-7.31,1-8.77,4.11-.69,1.47-.66,3.38,.54,4.57,.4,.4,.38,1.24-.19,1.5-1.85,.84-4.04,1.86-5.06,3.72-1.15,2.11,.29,4.52,1.91,5.91Z"/></g><g><path class="cls-3" d="M374.55,241.14c-.47,.1-1.05-.37-1.06-.85-.01-3.17-1.64-6.25-4.36-7.91-2.78-1.7-6.53-1.7-9.33-.03-.68,.41-1.67-.03-1.52-.92,.24-1.42-.99-2.57-2.24-2.96-1.51-.47-3.27-.23-4.8,.07-.81,.16-1.73,.41-2.57,.81-.07,.05-.15,.09-.24,.11-.33,.17-.65,.36-.93,.58-.11,.29-.33,.46-.58,.54-.36,.4-.63,.87-.75,1.41,0,.09,.01,.17,0,.26-.03,.25-.1,.5-.21,.73-.1,.22-.24,.45-.4,.63-.17,.19-.35,.37-.57,.5-.21,.13-.44,.26-.68,.32h0c-.13,.14-.33,.23-.58,.24-3.53,.14-6.71,2.5-8.04,5.75-.62,1.52-.83,3.33-.3,4.9,.5,1.48,1.81,2.79,3.49,2.61,.82-.09,1.5-.7,2.21-1.07,.84-.44,1.75-.55,2.64-.2,.8,.31,1.52,.87,2.29,1.26,.74,.37,1.5,.69,2.28,.96,6.27,2.16,13.61,.8,18.63-3.53,.24-.21,.68-.26,.96-.11,3.12,1.71,7.92,4.25,10.87,.86,.99-1.13,1.44-2.8,.31-4.01-1.12-1.19-3.01-1.3-4.51-.96Z"/><g><path class="cls-5" d="M380.23,242.24c-.47-.08-1.06,.27-1.1,.79-.07,1.06-.77,1.89-1.73,2.32-1.23,.55-2.63,.37-3.88-.02-2.21-.68-4.89-1.9-5.84-4.17-.21-.5-.68-.64-1.09-.54-.14-.12-.31-.21-.48-.24-.56-.09-.96,.29-1.1,.79-.78,2.82-3.31,4.84-6.02,5.69-3.35,1.06-7.11,.35-10.3-.93-1.45-.58-2.83-1.34-3.75-2.59v-.04c.03-.13,.02-.26-.02-.38-.02-.13-.07-.24-.15-.34l-.17-.18c-.1-.08-.21-.14-.33-.16-.08-.03-.16-.05-.25-.04-.13-.01-.26,0-.38,.06l-.22,.12c-.13,.1-.23,.22-.3,.37-.01,.01-.03,.02-.04,.04-.41,.06-.71,.38-.82,.79-.24,.94-1.01,1.72-1.84,2.28-.43,.29-.91,.56-1.42,.68-.37,.09-.81,.07-1.08-.11-.73-.5-.88-1.7-.96-2.65-.11-1.27,.02-2.59,.4-3.81,.15-.49,.03-1.04-.48-1.26-.43-.19-1.11-.01-1.26,.48-.41,1.32-.62,2.65-.6,4.03,.02,1.14,.16,2.42,.69,3.44,.61,1.18,1.67,1.9,3.03,1.84,1.16-.05,2.3-.68,3.2-1.38,.17-.13,.33-.28,.48-.42,.01,.02,.03,.05,.04,.07,.1,.13,.23,.23,.38,.3,.12,.06,.26,.09,.39,.12,.06,.01,.12,.02,.17,.02,.13,0,.28,.02,.42,0,.07-.01,.14-.03,.21-.04,2.19,1.96,5.88,2.43,8.58,2.75,3.97,.47,8.25,.17,11.52-2.31,.13,0,.25-.02,.37-.08,1.01-.55,1.82-1.33,2.39-2.27,.47,.7,1.41,1.08,2.13,1.47,1.04,.57,2.12,1.08,3.26,1.42,2.2,.66,4.6,.61,6.57-.68,.41-.27,.47-.67,.34-1.02,1-.76,1.73-1.85,1.82-3.13,.03-.51-.25-1.01-.79-1.1Z"/><path class="cls-5" d="M369.55,231.33c-.94-.8-2.13,.7-1.2,1.49,2.12,1.8,3.37,4.43,3.5,7.2,.02,.52,.57,.9,1.06,.85,.54-.06,.87-.54,.85-1.06-.15-3.26-1.72-6.37-4.21-8.48Z"/><path class="cls-5" d="M351.47,227.44c-3.09,.65-5.58,3.06-6.29,6.15-.11,.49,.3,1.04,.79,1.1,.54,.06,.98-.27,1.1-.79,.02-.08,.04-.17,.06-.25v-.04h.01c.05-.16,.1-.31,.16-.46,.12-.29,.25-.58,.41-.86,0,0,.09-.14,.09-.14,.03-.04,.05-.08,.08-.13,.09-.13,.18-.26,.28-.39,.19-.25,.4-.48,.62-.7,.02-.02,.04-.04,.05-.05,.05-.05,.11-.1,.16-.14,.13-.11,.27-.22,.41-.33,.12-.09,.23-.17,.35-.25,.07-.05,.15-.09,.22-.14,.02-.01,.09-.05,.13-.07,.25-.13,.51-.25,.78-.36,.15-.06,.3-.11,.45-.15,.06-.02,.12-.04,.19-.05,.02,0,.11-.03,.15-.03,.49-.1,.93-.51,.85-1.06-.07-.47-.53-.96-1.06-.85Z"/></g><path class="cls-4" d="M381.56,244.74c-.36,1.7-1.57,3.16-3.06,4.02-3.55,2.07-7.59,.29-10.9-1.49-3.1,2.51-6.97,4.02-10.94,4.42-3.72,.37-7.56-.2-10.95-1.78-.84-.39-1.61-.91-2.43-1.34-.89-.46-1.56,.14-2.33,.59-1.75,1.01-3.73,.88-5.36-.32-3.35-2.46-2.77-7.61-.85-10.74,.45-.73,1-1.54,1.7-2.05,.56-.41,1.24-.67,1.83-1.06,1.57-1.04,3.36-1.76,5.22-2.09-.1,.02,.75-2.33,.92-2.56,.51-.67,1.08-1.46,1.69-2.05,.58-.56,1.33-.89,2.09-1.16,2.68-.93,6.69-1.48,9.33-.12,1.24,.64,2.24,1.77,2.59,3.09,3.14-1.31,6.83-1.2,9.81,.54,3.02,1.77,5.08,4.99,5.43,8.46,1.56-.13,3.18,.2,4.45,1.12,1.41,1.02,2.13,2.81,1.77,4.52Zm-2.5-2.63c-1.12-1.19-3.01-1.3-4.51-.96-.47,.1-1.05-.37-1.06-.85-.01-3.17-1.64-6.25-4.36-7.91-2.78-1.7-6.53-1.7-9.33-.03-.68,.41-1.67-.03-1.52-.92,.24-1.42-.99-2.57-2.24-2.96-3.31-1.03-7.78-.76-9.78,2.54-.83,1.37-.34,3.58-2.53,3.67-3.53,.14-6.71,2.5-8.04,5.75-.62,1.52-.83,3.33-.3,4.9,.5,1.48,1.81,2.79,3.49,2.61,.82-.09,1.5-.7,2.21-1.07,.84-.44,1.75-.55,2.64-.2,.8,.31,1.52,.87,2.29,1.26,.74,.37,1.5,.69,2.28,.96,6.27,2.16,13.61,.8,18.63-3.53,.24-.21,.68-.26,.96-.11,3.12,1.71,7.92,4.25,10.87,.86,.99-1.13,1.44-2.8,.31-4.01Z"/></g></g><g><g><path class="cls-3" d="M224.72,253.02c.37,.08,.83-.29,.83-.66,0-2.48,1.28-4.9,3.42-6.21,2.18-1.33,5.13-1.33,7.32-.03,.53,.32,1.31-.02,1.19-.72-.19-1.11,.77-2.02,1.76-2.32,1.19-.37,2.57-.18,3.77,.05,.64,.12,1.36,.32,2.02,.63,.06,.04,.12,.07,.19,.09,.26,.13,.51,.28,.73,.45,.09,.23,.26,.36,.46,.42,.28,.31,.49,.68,.59,1.11,0,.07-.01,.14,0,.2,.02,.2,.08,.4,.16,.58,.08,.18,.19,.35,.32,.5,.13,.15,.28,.29,.45,.39,.17,.1,.34,.2,.53,.25h0c.11,.11,.26,.18,.46,.19,2.77,.11,5.27,1.96,6.31,4.52,.48,1.19,.65,2.61,.23,3.85-.39,1.16-1.42,2.19-2.74,2.05-.65-.07-1.17-.55-1.73-.84-.66-.34-1.37-.43-2.07-.16-.63,.24-1.19,.68-1.79,.99-.58,.29-1.18,.54-1.79,.75-4.92,1.69-10.68,.63-14.62-2.77-.19-.16-.54-.2-.75-.08-2.45,1.34-6.22,3.34-8.53,.68-.77-.89-1.13-2.2-.24-3.15,.88-.94,2.36-1.02,3.54-.75Z"/><g><path class="cls-5" d="M220.26,253.89c.37-.06,.83,.22,.86,.62,.05,.83,.6,1.48,1.36,1.82,.96,.43,2.06,.29,3.04-.01,1.74-.53,3.84-1.49,4.59-3.27,.17-.4,.53-.51,.86-.43,.11-.1,.24-.17,.38-.19,.44-.07,.75,.23,.86,.62,.61,2.21,2.6,3.8,4.72,4.47,2.63,.83,5.58,.28,8.09-.73,1.14-.46,2.22-1.06,2.95-2.04v-.03c-.03-.1-.02-.2,.01-.3,.02-.1,.06-.19,.12-.27l.13-.14c.08-.07,.16-.11,.26-.13,.06-.03,.13-.04,.19-.03,.1-.01,.2,0,.3,.05l.17,.09c.1,.08,.18,.17,.23,.29,0,.01,.02,.02,.03,.03,.32,.04,.56,.3,.64,.62,.19,.74,.79,1.35,1.44,1.79,.34,.23,.71,.44,1.11,.53,.29,.07,.64,.06,.85-.09,.57-.39,.69-1.34,.75-2.08,.09-1-.02-2.03-.32-2.99-.12-.39-.02-.81,.38-.99,.34-.15,.87,0,.99,.38,.32,1.03,.49,2.08,.47,3.16-.01,.89-.13,1.9-.54,2.7-.48,.93-1.31,1.49-2.38,1.45-.91-.04-1.81-.53-2.51-1.08-.13-.1-.26-.22-.38-.33-.01,.02-.02,.04-.03,.05-.08,.1-.18,.18-.3,.24-.1,.04-.2,.07-.3,.1-.05,.01-.09,.02-.14,.02-.1,0-.22,.01-.33,0-.05,0-.11-.02-.16-.03-1.72,1.54-4.61,1.91-6.73,2.16-3.11,.37-6.48,.13-9.05-1.81-.1,0-.2-.02-.29-.06-.79-.43-1.43-1.05-1.87-1.78-.37,.55-1.11,.84-1.67,1.15-.82,.45-1.66,.85-2.56,1.12-1.73,.52-3.61,.48-5.15-.53-.32-.21-.37-.52-.27-.8-.78-.59-1.36-1.45-1.43-2.46-.03-.4,.2-.79,.62-.86Z"/><path class="cls-5" d="M228.64,245.32c.74-.63,1.68,.55,.94,1.17-1.66,1.41-2.65,3.48-2.75,5.65-.02,.41-.44,.71-.83,.66-.43-.05-.68-.42-.66-.83,.12-2.56,1.35-5,3.3-6.66Z"/><path class="cls-5" d="M242.83,242.27c2.43,.51,4.38,2.4,4.94,4.83,.09,.38-.24,.82-.62,.86-.43,.05-.77-.21-.86-.62-.02-.07-.03-.13-.05-.2v-.03h-.01c-.04-.13-.08-.25-.13-.36-.09-.23-.2-.46-.32-.67,0,0-.07-.11-.07-.11-.02-.03-.04-.07-.06-.1-.07-.1-.14-.2-.22-.3-.15-.19-.31-.38-.49-.55l-.04-.04s-.08-.08-.13-.11c-.1-.09-.21-.17-.32-.26-.09-.07-.18-.13-.28-.2-.06-.04-.11-.07-.17-.11-.02,0-.07-.04-.1-.06-.2-.11-.4-.2-.61-.28-.12-.04-.23-.09-.35-.12-.05-.01-.1-.03-.15-.04-.01,0-.09-.02-.12-.03-.38-.08-.73-.4-.66-.83,.06-.37,.42-.75,.83-.66Z"/></g><path class="cls-4" d="M220.61,252.29c1-.72,2.27-.99,3.49-.88,.27-2.72,1.89-5.25,4.26-6.64,2.34-1.37,5.24-1.45,7.7-.42,.27-1.04,1.06-1.92,2.03-2.42,2.07-1.07,5.21-.64,7.32,.09,.6,.21,1.19,.47,1.64,.91,.47,.46,.92,1.09,1.32,1.61,.14,.18,.8,2.02,.72,2.01,1.46,.26,2.86,.83,4.09,1.64,.46,.31,1,.5,1.44,.83,.55,.41,.98,1.04,1.33,1.61,1.51,2.46,1.97,6.5-.66,8.43-1.28,.94-2.84,1.04-4.21,.25-.6-.35-1.13-.82-1.83-.46-.65,.33-1.25,.74-1.91,1.05-2.66,1.24-5.68,1.69-8.6,1.4-3.11-.31-6.15-1.49-8.59-3.47-2.59,1.4-5.76,2.79-8.55,1.17-1.16-.68-2.11-1.83-2.4-3.16-.29-1.34,.28-2.75,1.39-3.55Zm.81,4.63c2.32,2.66,6.08,.67,8.53-.68,.22-.12,.57-.08,.75,.08,3.94,3.4,9.7,4.47,14.62,2.77,.61-.21,1.21-.46,1.79-.75,.6-.3,1.16-.75,1.79-.99,.7-.27,1.41-.18,2.07,.16,.56,.29,1.09,.76,1.73,.84,1.31,.15,2.35-.88,2.74-2.05,.42-1.23,.25-2.66-.23-3.85-1.04-2.56-3.54-4.41-6.31-4.52-1.72-.07-1.34-1.8-1.99-2.88-1.57-2.59-5.08-2.8-7.68-1.99-.99,.31-1.95,1.21-1.76,2.32,.12,.7-.65,1.04-1.19,.72-2.19-1.31-5.14-1.31-7.32,.03-2.14,1.31-3.41,3.73-3.42,6.21,0,.38-.46,.75-.83,.66-1.18-.26-2.66-.18-3.54,.75-.89,.95-.53,2.26,.24,3.15Z"/></g><g><path class="cls-3" d="M129.32,240.08c-1.2-1.19-1.23-3.1-.54-4.57,1.46-3.11,5.65-4.07,8.77-4.11,2.99-.03,6.27,.87,8.03,3.44-.26,.73,.52,1.69,1.37,1.17,1.68-1.02,3.9-1.01,5.51,.16,1.46,1.06,2.25,3.02,1.94,4.79-.12,.72,.42,1.35,1.18,1.18,2.4-.55,5.17,.24,6.7,2.24,1.46,1.91,1.67,4.85,.17,6.79-1.23,1.6-3.5,2.41-5.45,1.82-.63-.19-1.2-.52-1.85-.62-.69-.11-1.34,.04-1.93,.4-.55,.33-1.02,.78-1.55,1.14-.42,.28-.87,.52-1.33,.74-1.89,.89-4.15,1.15-6.21,.79-1.08-.19-2.15-.52-3.12-1.03-1.02-.53-1.78-1.3-2.7-1.96-1.28-.92-2.5-.37-3.79,.18-.94,.4-1.95,.6-2.97,.6-2,.01-4.05-.69-5.58-2-1.62-1.39-3.06-3.8-1.91-5.91,1.02-1.87,3.21-2.88,5.06-3.72,.57-.26,.6-1.1,.19-1.5Z"/><g><path class="cls-5" d="M136.87,247.36c.06-.47,.32-.88,.83-.94,.42-.05,.98,.21,1.05,.69,.5,3.35,2.41,6.71,6.09,7.07,1.03,.1,2.09,.07,3.12,0,.9-.06,1.82-.24,2.51-.86,1.14-1.02,1.47-2.67,1.4-4.14-.03-.05-.07-.1-.09-.16-.07-.14-.13-.28-.18-.43-.03-.07-.05-.15-.07-.23-.04-.13-.05-.25-.02-.38,0-.13,.04-.25,.11-.36,.06-.11,.14-.2,.25-.27,.01-.01,.03-.02,.04-.03,.04-.07,.08-.13,.14-.18,.18-.17,.42-.29,.68-.28,.26,.01,.49,.1,.68,.28,.44,.43,.89,.86,1.33,1.29,.59,.49,1.22,.97,1.92,1.25,.88,.36,1.77,.26,2.63-.12,1.6-.71,2.79-2.34,2.18-4.1-.25-.38-.26-.88,.09-1.23,.34-.34,1.02-.4,1.35,0,.88,1.06,1.15,2.4,.89,3.73,.02,.05,.04,.1,.05,.16,.48,2.44-1.25,4.74-3.56,5.44-.94,.29-1.92,.27-2.83-.05-1.15-.06-2.13-.67-3.01-1.39h-.01l-1.61,1.78c-.14,.16-.38,.25-.59,.27-.98,1.13-2.32,1.69-3.86,1.85-1.9,.2-4.05,.25-5.86-.45-.45-.17-.87-.39-1.27-.64-.24,.26-.62,.42-.95,.28-3.16-1.33-3.82-4.78-3.44-7.87Z"/><path class="cls-5" d="M123.09,246.24c.27-1.45,1.29-2.68,2.34-3.65,.9-.84,2.26,.51,1.35,1.35-.84,.77-1.73,1.73-1.86,2.92-.14,1.26,.61,2.46,1.5,3.28,.85,.79,1.92,1.32,3.02,1.66,.97,.3,2.32,.58,3.17-.15,.39-.34,.97-.38,1.35,0,.34,.34,.39,1.01,0,1.35-2.03,1.75-5.04,.92-7.16-.25-2.3-1.28-4.23-3.74-3.71-6.51Z"/><path class="cls-5" d="M128.25,235.74c.17-.93,.66-1.8,1.39-2.4,.73-.6,1.58-.96,2.45-1.32,.48-.2,1.05,.21,1.18,.67,.15,.55-.19,.98-.67,1.18-1.15,.47-2.29,1-2.5,2.38-.2,1.25,.22,2.62,1.05,3.59,.33,.39,.39,.97,0,1.35-.34,.34-1.02,.39-1.35,0-1.29-1.51-1.89-3.49-1.54-5.45Z"/><path class="cls-5" d="M153.44,239.6c.02,.23,.02,.47,0,.7,0,0-.01,.11-.02,.13v.05c-.03,.12-.06,.24-.1,.36-.03,.1-.08,.21-.11,.31h0c-.03,.06-.05,.12-.08,.17-.05,.1-.11,.19-.17,.29-.03,.05-.07,.09-.1,.14l-.02,.02c-.34,.41-.38,.94,0,1.35,.33,.36,1.03,.39,1.35,0,.82-.98,1.25-2.24,1.15-3.53-.1-1.27-.61-2.51-1.57-3.36-.4-.35-.95-.37-1.35,0-.36,.33-.38,1.02,0,1.35,.09,.08,.18,.17,.27,.26,.04,.04,.08,.1,.12,.14h0c.13,.2,.25,.4,.35,.61l.02,.04s.04,.09,.05,.14c.04,.1,.07,.21,.1,.32,.03,.12,.05,.24,.08,.36h0c0,.06,0,.1,.01,.15Z"/></g><path class="cls-4" d="M127.17,240.39c-1.05-1.79-1.09-3.59,0-5.4,1.87-3.1,4.9-5.24,8.56-5.32,2.1-.05,4.52-.17,6.52,.51,1.99,.68,3.73,1.87,4.92,3.61,2.1-.77,4.57-.52,6.39,.83,1.76,1.3,2.74,3.34,2.78,5.48,2.24-.19,4.5,.46,6.26,1.9,2.1,1.72,3.07,4.51,2.67,7.17-.39,2.62-2.26,4.71-4.75,5.56-1.17,.4-2.45,.47-3.65,.2-.65-.14-1.22-.49-1.85-.65-.69-.17-1.15,.32-1.65,.72-4.04,3.14-10.11,3.3-14.35,.44-.52-.35-1-.75-1.46-1.16-.61-.54-.98-.51-1.71-.19-1.2,.52-2.35,.91-3.66,1.01-2.38,.18-4.89-.53-6.81-1.93-2.38-1.73-4.42-4.86-3.38-7.89,.8-2.36,3-3.81,5.17-4.88Zm-1.2,10.82c1.53,1.31,3.58,2.01,5.58,2,1.02,0,2.03-.2,2.97-.6,1.29-.55,2.51-1.09,3.79-.18,.92,.66,1.68,1.43,2.7,1.96,.98,.51,2.04,.84,3.12,1.03,2.05,.35,4.32,.1,6.21-.79,.46-.22,.9-.46,1.33-.74,.53-.35,1-.81,1.55-1.14,.59-.36,1.25-.5,1.93-.4,.65,.1,1.22,.43,1.85,.62,1.95,.6,4.21-.21,5.45-1.82,1.5-1.95,1.29-4.89-.17-6.79-1.53-2-4.3-2.79-6.7-2.24-.76,.17-1.3-.45-1.18-1.18,.31-1.77-.48-3.73-1.94-4.79-1.61-1.17-3.84-1.18-5.51-.16-.84,.51-1.63-.44-1.37-1.17-1.76-2.58-5.04-3.48-8.03-3.44-3.12,.03-7.31,1-8.77,4.11-.69,1.47-.66,3.38,.54,4.57,.4,.4,.38,1.24-.19,1.5-1.85,.84-4.04,1.86-5.06,3.72-1.15,2.11,.29,4.52,1.91,5.91Z"/></g></g><g><g><path class="cls-3" d="M25.26,181.93c.37,.08,.83-.29,.83-.66,0-2.48,1.28-4.9,3.42-6.21,2.18-1.33,5.13-1.33,7.32-.03,.53,.32,1.31-.02,1.19-.72-.19-1.11,.77-2.02,1.76-2.32,1.19-.37,2.57-.18,3.77,.05,.64,.12,1.36,.32,2.02,.63,.06,.04,.12,.07,.19,.09,.26,.13,.51,.28,.73,.45,.09,.23,.26,.36,.46,.42,.28,.31,.49,.68,.59,1.11,0,.07-.01,.14,0,.2,.02,.2,.08,.4,.16,.58,.08,.18,.19,.35,.32,.5,.13,.15,.28,.29,.45,.39,.17,.1,.34,.2,.53,.25h0c.11,.11,.26,.18,.46,.19,2.77,.11,5.27,1.96,6.31,4.52,.48,1.19,.65,2.61,.23,3.85-.39,1.16-1.42,2.19-2.74,2.05-.65-.07-1.17-.55-1.73-.84-.66-.34-1.37-.43-2.07-.16-.63,.24-1.19,.68-1.79,.99-.58,.29-1.18,.54-1.79,.75-4.92,1.69-10.68,.63-14.62-2.77-.19-.16-.54-.2-.75-.08-2.45,1.34-6.22,3.34-8.53,.68-.77-.89-1.13-2.2-.24-3.15,.88-.94,2.36-1.02,3.54-.75Z"/><g><path class="cls-5" d="M20.8,182.79c.37-.06,.83,.22,.86,.62,.05,.83,.6,1.48,1.36,1.82,.96,.43,2.06,.29,3.04-.01,1.74-.53,3.84-1.49,4.59-3.27,.17-.4,.53-.51,.86-.43,.11-.1,.24-.17,.38-.19,.44-.07,.75,.23,.86,.62,.61,2.21,2.6,3.8,4.72,4.47,2.63,.83,5.58,.28,8.09-.73,1.14-.46,2.22-1.06,2.95-2.04v-.03c-.03-.1-.02-.2,.01-.3,.02-.1,.06-.19,.12-.27l.13-.14c.08-.07,.16-.11,.26-.13,.06-.03,.13-.04,.19-.03,.1-.01,.2,0,.3,.05l.17,.09c.1,.08,.18,.17,.23,.29,0,.01,.02,.02,.03,.03,.32,.04,.56,.3,.64,.62,.19,.74,.79,1.35,1.44,1.79,.34,.23,.71,.44,1.11,.53,.29,.07,.64,.06,.85-.09,.57-.39,.69-1.34,.75-2.08,.09-1-.02-2.03-.32-2.99-.12-.39-.02-.81,.38-.99,.34-.15,.87,0,.99,.38,.32,1.03,.49,2.08,.47,3.16-.01,.89-.13,1.9-.54,2.7-.48,.93-1.31,1.49-2.38,1.45-.91-.04-1.81-.53-2.51-1.08-.13-.1-.26-.22-.38-.33-.01,.02-.02,.04-.03,.05-.08,.1-.18,.18-.3,.24-.1,.04-.2,.07-.3,.1-.05,.01-.09,.02-.14,.02-.1,0-.22,.01-.33,0-.05,0-.11-.02-.16-.03-1.72,1.54-4.61,1.91-6.73,2.16-3.11,.37-6.48,.13-9.05-1.81-.1,0-.2-.02-.29-.06-.79-.43-1.43-1.05-1.87-1.78-.37,.55-1.11,.84-1.67,1.15-.82,.45-1.66,.85-2.56,1.12-1.73,.52-3.61,.48-5.15-.53-.32-.21-.37-.52-.27-.8-.78-.59-1.36-1.45-1.43-2.46-.03-.4,.2-.79,.62-.86Z"/><path class="cls-5" d="M29.19,174.23c.74-.63,1.68,.55,.94,1.17-1.66,1.41-2.65,3.48-2.75,5.65-.02,.41-.44,.71-.83,.66-.43-.05-.68-.42-.66-.83,.12-2.56,1.35-5,3.3-6.66Z"/><path class="cls-5" d="M43.37,171.17c2.43,.51,4.38,2.4,4.94,4.83,.09,.38-.24,.82-.62,.86-.43,.05-.77-.21-.86-.62-.02-.07-.03-.13-.05-.2v-.03h-.01c-.04-.13-.08-.25-.13-.36-.09-.23-.2-.46-.32-.67,0,0-.07-.11-.07-.11-.02-.03-.04-.07-.06-.1-.07-.1-.14-.2-.22-.3-.15-.19-.31-.38-.49-.55l-.04-.04s-.08-.08-.13-.11c-.1-.09-.21-.17-.32-.26-.09-.07-.18-.13-.28-.2-.06-.04-.11-.07-.17-.11-.02,0-.07-.04-.1-.06-.2-.11-.4-.2-.61-.28-.12-.04-.23-.09-.35-.12-.05-.01-.1-.03-.15-.04-.01,0-.09-.02-.12-.03-.38-.08-.73-.4-.66-.83,.06-.37,.42-.75,.83-.66Z"/></g><path class="cls-4" d="M21.15,181.2c1-.72,2.27-.99,3.49-.88,.27-2.72,1.89-5.25,4.26-6.64,2.34-1.37,5.24-1.45,7.7-.42,.27-1.04,1.06-1.92,2.03-2.42,2.07-1.07,5.21-.64,7.32,.09,.6,.21,1.19,.47,1.64,.91,.47,.46,.92,1.09,1.32,1.61,.14,.18,.8,2.02,.72,2.01,1.46,.26,2.86,.83,4.09,1.64,.46,.31,1,.5,1.44,.83,.55,.41,.98,1.04,1.33,1.61,1.51,2.46,1.97,6.5-.66,8.43-1.28,.94-2.84,1.04-4.21,.25-.6-.35-1.13-.82-1.83-.46-.65,.33-1.25,.74-1.91,1.05-2.66,1.24-5.68,1.69-8.6,1.4-3.11-.31-6.15-1.49-8.59-3.47-2.59,1.4-5.76,2.79-8.55,1.17-1.16-.68-2.11-1.83-2.4-3.16-.29-1.34,.28-2.75,1.39-3.55Zm.81,4.63c2.32,2.66,6.08,.67,8.53-.68,.22-.12,.57-.08,.75,.08,3.94,3.4,9.7,4.47,14.62,2.77,.61-.21,1.21-.46,1.79-.75,.6-.3,1.16-.75,1.79-.99,.7-.27,1.41-.18,2.07,.16,.56,.29,1.09,.76,1.73,.84,1.31,.15,2.35-.88,2.74-2.05,.42-1.23,.25-2.66-.23-3.85-1.04-2.56-3.54-4.41-6.31-4.52-1.72-.07-1.34-1.8-1.99-2.88-1.57-2.59-5.08-2.8-7.68-1.99-.99,.31-1.95,1.21-1.76,2.32,.12,.7-.65,1.04-1.19,.72-2.19-1.31-5.14-1.31-7.32,.03-2.14,1.31-3.41,3.73-3.42,6.21,0,.38-.46,.75-.83,.66-1.18-.26-2.66-.18-3.54,.75-.89,.95-.53,2.26,.24,3.15Z"/></g><g><path class="cls-3" d="M77.56,258.16c1.45-1.44,1.49-3.75,.65-5.53-1.77-3.75-6.83-4.92-10.6-4.96-3.61-.04-7.58,1.05-9.7,4.16,.31,.88-.63,2.04-1.65,1.42-2.03-1.23-4.71-1.22-6.66,.19-1.76,1.28-2.72,3.64-2.35,5.79,.15,.87-.51,1.63-1.42,1.42-2.9-.67-6.25,.29-8.09,2.71-1.76,2.3-2.01,5.85-.2,8.21,1.49,1.94,4.22,2.91,6.58,2.19,.76-.23,1.44-.63,2.23-.75,.83-.13,1.62,.05,2.34,.48,.66,.4,1.23,.95,1.87,1.37,.51,.34,1.05,.63,1.6,.89,2.29,1.07,5.02,1.38,7.5,.96,1.31-.23,2.59-.62,3.77-1.24,1.23-.65,2.15-1.57,3.26-2.37,1.54-1.11,3.02-.45,4.58,.21,1.13,.48,2.36,.72,3.59,.73,2.42,.01,4.9-.83,6.74-2.42,1.96-1.68,3.7-4.6,2.31-7.14-1.23-2.25-3.88-3.48-6.12-4.5-.69-.31-.72-1.33-.23-1.81Z"/><g><path class="cls-5" d="M68.44,266.95c-.07-.57-.38-1.06-1-1.13-.51-.06-1.18,.25-1.27,.83-.6,4.05-2.91,8.11-7.35,8.54-1.25,.12-2.52,.08-3.77,0-1.09-.08-2.2-.29-3.04-1.03-1.38-1.23-1.77-3.22-1.7-5,.04-.06,.08-.12,.11-.19,.08-.17,.15-.34,.22-.52,.03-.09,.06-.18,.09-.27,.05-.15,.06-.31,.02-.46,0-.15-.05-.3-.14-.43-.07-.13-.17-.24-.3-.32-.01-.01-.03-.02-.05-.03-.05-.08-.1-.16-.17-.22-.22-.2-.51-.35-.82-.34-.31,.01-.59,.12-.82,.34-.54,.52-1.07,1.04-1.61,1.56-.71,.59-1.47,1.17-2.32,1.51-1.07,.43-2.14,.31-3.18-.15-1.94-.86-3.37-2.83-2.64-4.95,.3-.46,.32-1.06-.11-1.48-.41-.41-1.23-.48-1.63,0-1.07,1.28-1.39,2.89-1.08,4.5-.03,.06-.05,.13-.07,.2-.57,2.95,1.51,5.73,4.3,6.57,1.14,.34,2.32,.32,3.41-.06,1.39-.08,2.58-.8,3.63-1.67v.02c.66,.71,1.31,1.42,1.96,2.13,.17,.19,.46,.3,.72,.33,1.18,1.36,2.8,2.04,4.67,2.23,2.3,.24,4.9,.3,7.08-.55,.54-.21,1.05-.47,1.53-.78,.29,.31,.74,.51,1.14,.34,3.82-1.61,4.62-5.78,4.15-9.51Z"/><path class="cls-5" d="M85.08,265.6c-.33-1.76-1.55-3.24-2.83-4.41-1.09-1.01-2.73,.62-1.63,1.63,1.01,.94,2.09,2.09,2.25,3.53,.17,1.52-.74,2.97-1.81,3.96-1.03,.95-2.32,1.6-3.65,2.01-1.17,.36-2.81,.69-3.83-.19-.47-.41-1.17-.46-1.63,0-.42,.42-.48,1.23,0,1.63,2.46,2.11,6.09,1.11,8.65-.31,2.78-1.54,5.11-4.52,4.48-7.86Z"/><path class="cls-5" d="M78.85,252.92c-.2-1.13-.79-2.17-1.68-2.9-.88-.72-1.91-1.16-2.96-1.59-.58-.24-1.27,.26-1.42,.81-.18,.66,.23,1.18,.81,1.42,1.4,.57,2.76,1.21,3.03,2.87,.24,1.51-.27,3.17-1.27,4.34-.4,.47-.47,1.17,0,1.63,.41,.41,1.23,.48,1.63,0,1.56-1.83,2.28-4.21,1.86-6.59Z"/><path class="cls-5" d="M48.42,257.58c-.02,.28-.02,.57,0,.85,0,0,.02,.13,.02,.16v.06c.04,.15,.07,.29,.12,.43,.04,.13,.1,.25,.13,.38h0c.03,.08,.06,.14,.1,.21,.06,.12,.13,.23,.2,.34,.04,.06,.08,.11,.12,.17l.02,.03c.41,.5,.46,1.14,0,1.63-.4,.43-1.25,.47-1.63,0-.99-1.19-1.51-2.71-1.39-4.26,.12-1.53,.73-3.03,1.9-4.06,.48-.43,1.15-.44,1.63,0,.44,.4,.45,1.23,0,1.63-.11,.1-.22,.2-.32,.31-.05,.05-.09,.12-.15,.17h-.01c-.16,.24-.3,.48-.43,.73-.01,.02-.02,.03-.02,.05-.02,.06-.04,.11-.06,.17-.04,.13-.08,.25-.12,.38-.04,.14-.06,.29-.09,.44v.02c0,.06-.01,.11-.02,.17Z"/></g><path class="cls-4" d="M86.4,264.43c1.25,3.66-1.22,7.44-4.09,9.53-2.33,1.7-5.36,2.56-8.23,2.34-1.59-.12-2.98-.58-4.42-1.22-.88-.39-1.33-.42-2.06,.23-.56,.5-1.14,.98-1.77,1.4-5.12,3.46-12.46,3.26-17.33-.53-.62-.48-1.17-1.07-2-.87-.77,.19-1.46,.61-2.24,.78-1.45,.32-3,.23-4.41-.24-3-1.02-5.27-3.55-5.73-6.72-.47-3.21,.69-6.59,3.23-8.67,2.13-1.74,4.86-2.52,7.56-2.3,.05-2.58,1.24-5.04,3.36-6.61,2.2-1.63,5.18-1.93,7.72-1,1.44-2.1,3.54-3.54,5.94-4.36,2.42-.82,5.35-.68,7.88-.62,4.42,.1,8.08,2.68,10.34,6.43,1.31,2.18,1.27,4.36,0,6.53,2.63,1.29,5.28,3.04,6.25,5.9Zm-2.49,.03c-1.23-2.25-3.88-3.48-6.12-4.5-.69-.31-.72-1.33-.23-1.81,1.45-1.44,1.49-3.75,.65-5.53-1.77-3.75-6.83-4.92-10.6-4.96-3.61-.04-7.58,1.05-9.7,4.16,.31,.88-.63,2.04-1.65,1.42-2.03-1.23-4.71-1.22-6.66,.19-1.76,1.28-2.72,3.64-2.35,5.79,.15,.87-.51,1.63-1.42,1.42-2.9-.67-6.25,.29-8.1,2.71-1.76,2.3-2.01,5.85-.2,8.21,1.49,1.94,4.22,2.91,6.58,2.19,.76-.23,1.44-.63,2.23-.75,.83-.13,1.62,.05,2.34,.48,.66,.4,1.23,.95,1.87,1.37,.51,.34,1.05,.63,1.6,.89,2.29,1.07,5.02,1.38,7.5,.96,1.31-.23,2.59-.62,3.77-1.24,1.23-.65,2.15-1.57,3.26-2.37,1.54-1.11,3.02-.45,4.58,.21,1.13,.48,2.36,.72,3.59,.73,2.42,.01,4.9-.83,6.74-2.42,1.96-1.68,3.7-4.6,2.31-7.14Z"/></g></g><g><g><path class="cls-3" d="M328.78,26.79c-1.2-1.19-1.23-3.1-.54-4.57,1.46-3.11,5.65-4.07,8.77-4.11,2.99-.03,6.27,.87,8.03,3.44-.26,.73,.52,1.69,1.37,1.17,1.68-1.02,3.9-1.01,5.51,.16,1.46,1.06,2.25,3.02,1.94,4.79-.12,.72,.42,1.35,1.18,1.18,2.4-.55,5.17,.24,6.7,2.24,1.46,1.91,1.67,4.85,.17,6.79-1.23,1.6-3.5,2.41-5.45,1.82-.63-.19-1.2-.52-1.85-.62-.69-.11-1.34,.04-1.93,.4-.55,.33-1.02,.78-1.55,1.14-.42,.28-.87,.52-1.33,.74-1.89,.89-4.15,1.15-6.21,.79-1.08-.19-2.15-.52-3.12-1.03-1.02-.53-1.78-1.3-2.7-1.96-1.28-.92-2.5-.37-3.79,.18-.94,.4-1.95,.6-2.97,.6-2,.01-4.05-.69-5.58-2-1.62-1.39-3.06-3.8-1.91-5.91,1.02-1.87,3.21-2.88,5.06-3.72,.57-.26,.6-1.1,.19-1.5Z"/><g><path class="cls-5" d="M336.32,34.07c.06-.47,.32-.88,.83-.94,.42-.05,.98,.21,1.05,.69,.5,3.35,2.41,6.71,6.09,7.07,1.03,.1,2.09,.07,3.12,0,.9-.06,1.82-.24,2.51-.86,1.14-1.02,1.47-2.67,1.4-4.14-.03-.05-.07-.1-.09-.16-.07-.14-.13-.28-.18-.43-.03-.07-.05-.15-.07-.23-.04-.13-.05-.25-.02-.38,0-.13,.04-.25,.11-.36,.06-.11,.14-.2,.25-.27,.01-.01,.03-.02,.04-.03,.04-.07,.08-.13,.14-.18,.18-.17,.42-.29,.68-.28,.26,.01,.49,.1,.68,.28,.44,.43,.89,.86,1.33,1.29,.59,.49,1.22,.97,1.92,1.25,.88,.36,1.77,.26,2.63-.12,1.6-.71,2.79-2.34,2.18-4.1-.25-.38-.26-.88,.09-1.23,.34-.34,1.02-.4,1.35,0,.88,1.06,1.15,2.4,.89,3.73,.02,.05,.04,.1,.05,.16,.48,2.44-1.25,4.74-3.56,5.44-.94,.29-1.92,.27-2.83-.05-1.15-.06-2.13-.67-3.01-1.39h-.01l-1.61,1.78c-.14,.16-.38,.25-.59,.27-.98,1.13-2.32,1.69-3.86,1.85-1.9,.2-4.05,.25-5.86-.45-.45-.17-.87-.39-1.27-.64-.24,.26-.62,.42-.95,.28-3.16-1.33-3.82-4.78-3.44-7.87Z"/><path class="cls-5" d="M322.55,32.95c.27-1.45,1.29-2.68,2.34-3.65,.9-.84,2.26,.51,1.35,1.35-.84,.77-1.73,1.73-1.86,2.92-.14,1.26,.61,2.46,1.5,3.28,.85,.79,1.92,1.32,3.02,1.66,.97,.3,2.32,.58,3.17-.15,.39-.34,.97-.38,1.35,0,.34,.34,.39,1.01,0,1.35-2.03,1.75-5.04,.92-7.16-.25-2.3-1.28-4.23-3.74-3.71-6.51Z"/><path class="cls-5" d="M327.7,22.45c.17-.93,.66-1.8,1.39-2.4,.73-.6,1.58-.96,2.45-1.32,.48-.2,1.05,.21,1.18,.67,.15,.55-.19,.98-.67,1.18-1.15,.47-2.29,1-2.5,2.38-.2,1.25,.22,2.62,1.05,3.59,.33,.39,.39,.97,0,1.35-.34,.34-1.02,.39-1.35,0-1.29-1.51-1.89-3.49-1.54-5.45Z"/><path class="cls-5" d="M352.89,26.31c.02,.23,.02,.47,0,.7,0,0-.01,.11-.02,.13v.05c-.03,.12-.06,.24-.1,.36-.03,.1-.08,.21-.11,.31h0c-.03,.06-.05,.12-.08,.17-.05,.1-.11,.19-.17,.29-.03,.05-.07,.09-.1,.14l-.02,.02c-.34,.41-.38,.94,0,1.35,.33,.36,1.03,.39,1.35,0,.82-.98,1.25-2.24,1.15-3.53-.1-1.27-.61-2.51-1.57-3.36-.4-.35-.95-.37-1.35,0-.36,.33-.38,1.02,0,1.35,.09,.08,.18,.17,.27,.26,.04,.04,.08,.1,.12,.14h0c.13,.2,.25,.4,.35,.61l.02,.04s.04,.09,.05,.14c.04,.1,.07,.21,.1,.32,.03,.12,.05,.24,.08,.36h0c0,.06,0,.1,.01,.15Z"/></g><path class="cls-4" d="M326.63,27.11c-1.05-1.79-1.09-3.59,0-5.4,1.87-3.1,4.9-5.24,8.56-5.32,2.1-.05,4.52-.17,6.52,.51,1.99,.68,3.73,1.87,4.92,3.61,2.1-.77,4.57-.52,6.39,.83,1.76,1.3,2.74,3.34,2.78,5.48,2.24-.19,4.5,.46,6.26,1.9,2.1,1.72,3.07,4.51,2.67,7.17-.39,2.62-2.26,4.71-4.75,5.56-1.17,.4-2.45,.47-3.65,.2-.65-.14-1.22-.49-1.85-.65-.69-.17-1.15,.32-1.65,.72-4.04,3.14-10.11,3.3-14.35,.44-.52-.35-1-.75-1.46-1.16-.61-.54-.98-.51-1.71-.19-1.2,.52-2.35,.91-3.66,1.01-2.38,.18-4.89-.53-6.81-1.93-2.38-1.73-4.42-4.86-3.38-7.89,.8-2.36,3-3.81,5.17-4.88Zm-1.2,10.82c1.53,1.31,3.58,2.01,5.58,2,1.02,0,2.03-.2,2.97-.6,1.29-.55,2.51-1.09,3.79-.18,.92,.66,1.68,1.43,2.7,1.96,.98,.51,2.04,.84,3.12,1.03,2.05,.35,4.32,.1,6.21-.79,.46-.22,.9-.46,1.33-.74,.53-.35,1-.81,1.55-1.14,.59-.36,1.25-.5,1.93-.4,.65,.1,1.22,.43,1.85,.62,1.95,.6,4.21-.21,5.45-1.82,1.5-1.95,1.29-4.89-.17-6.79-1.53-2-4.3-2.79-6.7-2.24-.76,.17-1.3-.45-1.18-1.18,.31-1.77-.48-3.73-1.94-4.79-1.61-1.17-3.84-1.18-5.51-.16-.84,.51-1.63-.44-1.37-1.17-1.76-2.58-5.04-3.48-8.03-3.44-3.12,.03-7.31,1-8.77,4.11-.69,1.47-.66,3.38,.54,4.57,.4,.4,.38,1.24-.19,1.5-1.85,.84-4.04,1.86-5.06,3.72-1.15,2.11,.29,4.52,1.91,5.91Z"/></g><g><path class="cls-3" d="M374.55,98.95c-.47,.1-1.05-.37-1.06-.85-.01-3.17-1.64-6.25-4.36-7.91-2.78-1.7-6.53-1.7-9.33-.03-.68,.41-1.67-.03-1.52-.92,.24-1.42-.99-2.57-2.24-2.96-1.51-.47-3.27-.23-4.8,.07-.81,.16-1.73,.41-2.57,.81-.07,.05-.15,.09-.24,.11-.33,.17-.65,.36-.93,.58-.11,.29-.33,.46-.58,.54-.36,.4-.63,.87-.75,1.41,0,.09,.01,.17,0,.26-.03,.25-.1,.5-.21,.73-.1,.22-.24,.45-.4,.63-.17,.19-.35,.37-.57,.5-.21,.13-.44,.26-.68,.32h0c-.13,.14-.33,.23-.58,.24-3.53,.14-6.71,2.5-8.04,5.75-.62,1.52-.83,3.33-.3,4.9,.5,1.48,1.81,2.79,3.49,2.61,.82-.09,1.5-.7,2.21-1.07,.84-.44,1.75-.55,2.64-.2,.8,.31,1.52,.87,2.29,1.26,.74,.37,1.5,.69,2.28,.96,6.27,2.16,13.61,.8,18.63-3.53,.24-.21,.68-.26,.96-.11,3.12,1.71,7.92,4.25,10.87,.86,.99-1.13,1.44-2.8,.31-4.01-1.12-1.19-3.01-1.3-4.51-.96Z"/><g><path class="cls-5" d="M380.23,100.05c-.47-.08-1.06,.27-1.1,.79-.07,1.06-.77,1.89-1.73,2.32-1.23,.55-2.63,.37-3.88-.02-2.21-.68-4.89-1.9-5.84-4.17-.21-.5-.68-.64-1.09-.54-.14-.12-.31-.21-.48-.24-.56-.09-.96,.29-1.1,.79-.78,2.82-3.31,4.84-6.02,5.69-3.35,1.06-7.11,.35-10.3-.93-1.45-.58-2.83-1.34-3.75-2.59v-.04c.03-.13,.02-.26-.02-.38-.02-.13-.07-.24-.15-.34l-.17-.18c-.1-.08-.21-.14-.33-.16-.08-.03-.16-.05-.25-.04-.13-.01-.26,0-.38,.06l-.22,.12c-.13,.1-.23,.22-.3,.37-.01,.01-.03,.02-.04,.04-.41,.06-.71,.38-.82,.79-.24,.94-1.01,1.72-1.84,2.28-.43,.29-.91,.56-1.42,.68-.37,.09-.81,.07-1.08-.11-.73-.5-.88-1.7-.96-2.65-.11-1.27,.02-2.59,.4-3.81,.15-.49,.03-1.04-.48-1.26-.43-.19-1.11-.01-1.26,.48-.41,1.32-.62,2.65-.6,4.03,.02,1.14,.16,2.42,.69,3.44,.61,1.18,1.67,1.9,3.03,1.84,1.16-.05,2.3-.68,3.2-1.38,.17-.13,.33-.28,.48-.42,.01,.02,.03,.05,.04,.07,.1,.13,.23,.23,.38,.3,.12,.06,.26,.09,.39,.12,.06,.01,.12,.02,.17,.02,.13,0,.28,.02,.42,0,.07-.01,.14-.03,.21-.04,2.19,1.96,5.88,2.43,8.58,2.75,3.97,.47,8.25,.17,11.52-2.31,.13,0,.25-.02,.37-.08,1.01-.55,1.82-1.33,2.39-2.27,.47,.7,1.41,1.08,2.13,1.47,1.04,.57,2.12,1.08,3.26,1.42,2.2,.66,4.6,.61,6.57-.68,.41-.27,.47-.67,.34-1.02,1-.76,1.73-1.85,1.82-3.13,.03-.51-.25-1.01-.79-1.1Z"/><path class="cls-5" d="M369.55,89.14c-.94-.8-2.13,.7-1.2,1.49,2.12,1.8,3.37,4.43,3.5,7.2,.02,.52,.57,.9,1.06,.85,.54-.06,.87-.54,.85-1.06-.15-3.26-1.72-6.37-4.21-8.48Z"/><path class="cls-5" d="M351.47,85.25c-3.09,.65-5.58,3.06-6.29,6.15-.11,.49,.3,1.04,.79,1.1,.54,.06,.98-.27,1.1-.79,.02-.08,.04-.17,.06-.25v-.04h.01c.05-.16,.1-.31,.16-.46,.12-.29,.25-.58,.41-.86,0,0,.09-.14,.09-.14,.03-.04,.05-.08,.08-.13,.09-.13,.18-.26,.28-.39,.19-.25,.4-.48,.62-.7,.02-.02,.04-.04,.05-.05,.05-.05,.11-.1,.16-.14,.13-.11,.27-.22,.41-.33,.12-.09,.23-.17,.35-.25,.07-.05,.15-.09,.22-.14,.02-.01,.09-.05,.13-.07,.25-.13,.51-.25,.78-.36,.15-.06,.3-.11,.45-.15,.06-.02,.12-.04,.19-.05,.02,0,.11-.03,.15-.03,.49-.1,.93-.51,.85-1.06-.07-.47-.53-.96-1.06-.85Z"/></g><path class="cls-4" d="M381.56,102.54c-.36,1.7-1.57,3.16-3.06,4.02-3.55,2.07-7.59,.29-10.9-1.49-3.1,2.51-6.97,4.02-10.94,4.42-3.72,.37-7.56-.2-10.95-1.78-.84-.39-1.61-.91-2.43-1.34-.89-.46-1.56,.14-2.33,.59-1.75,1.01-3.73,.88-5.36-.32-3.35-2.46-2.77-7.61-.85-10.74,.45-.73,1-1.54,1.7-2.05,.56-.41,1.24-.67,1.83-1.06,1.57-1.04,3.36-1.76,5.22-2.09-.1,.02,.75-2.33,.92-2.56,.51-.67,1.08-1.46,1.69-2.05,.58-.56,1.33-.89,2.09-1.16,2.68-.93,6.69-1.48,9.33-.12,1.24,.64,2.24,1.77,2.59,3.09,3.14-1.31,6.83-1.2,9.81,.54,3.02,1.77,5.08,4.99,5.43,8.46,1.56-.13,3.18,.2,4.45,1.12,1.41,1.02,2.13,2.81,1.77,4.52Zm-2.5-2.63c-1.12-1.19-3.01-1.3-4.51-.96-.47,.1-1.05-.37-1.06-.85-.01-3.17-1.64-6.25-4.36-7.91-2.78-1.7-6.53-1.7-9.33-.03-.68,.41-1.67-.03-1.52-.92,.24-1.42-.99-2.57-2.24-2.96-3.31-1.03-7.78-.76-9.78,2.54-.83,1.37-.34,3.58-2.53,3.67-3.53,.14-6.71,2.5-8.04,5.75-.62,1.52-.83,3.33-.3,4.9,.5,1.48,1.81,2.79,3.49,2.61,.82-.09,1.5-.7,2.21-1.07,.84-.44,1.75-.55,2.64-.2,.8,.31,1.52,.87,2.29,1.26,.74,.37,1.5,.69,2.28,.96,6.27,2.16,13.61,.8,18.63-3.53,.24-.21,.68-.26,.96-.11,3.12,1.71,7.92,4.25,10.87,.86,.99-1.13,1.44-2.8,.31-4.01Z"/></g></g><g><g><path class="cls-3" d="M224.72,110.83c.37,.08,.83-.29,.83-.66,0-2.48,1.28-4.9,3.42-6.21,2.18-1.33,5.13-1.33,7.32-.03,.53,.32,1.31-.02,1.19-.72-.19-1.11,.77-2.02,1.76-2.32,1.19-.37,2.57-.18,3.77,.05,.64,.12,1.36,.32,2.02,.63,.06,.04,.12,.07,.19,.09,.26,.13,.51,.28,.73,.45,.09,.23,.26,.36,.46,.42,.28,.31,.49,.68,.59,1.11,0,.07-.01,.14,0,.2,.02,.2,.08,.4,.16,.58,.08,.18,.19,.35,.32,.5,.13,.15,.28,.29,.45,.39,.17,.1,.34,.2,.53,.25h0c.11,.11,.26,.18,.46,.19,2.77,.11,5.27,1.96,6.31,4.52,.48,1.19,.65,2.61,.23,3.85-.39,1.16-1.42,2.19-2.74,2.05-.65-.07-1.17-.55-1.73-.84-.66-.34-1.37-.43-2.07-.16-.63,.24-1.19,.68-1.79,.99-.58,.29-1.18,.54-1.79,.75-4.92,1.69-10.68,.63-14.62-2.77-.19-.16-.54-.2-.75-.08-2.45,1.34-6.22,3.34-8.53,.68-.77-.89-1.13-2.2-.24-3.15,.88-.94,2.36-1.02,3.54-.75Z"/><g><path class="cls-5" d="M220.26,111.7c.37-.06,.83,.22,.86,.62,.05,.83,.6,1.48,1.36,1.82,.96,.43,2.06,.29,3.04-.01,1.74-.53,3.84-1.49,4.59-3.27,.17-.4,.53-.51,.86-.43,.11-.1,.24-.17,.38-.19,.44-.07,.75,.23,.86,.62,.61,2.21,2.6,3.8,4.72,4.47,2.63,.83,5.58,.28,8.09-.73,1.14-.46,2.22-1.06,2.95-2.04v-.03c-.03-.1-.02-.2,.01-.3,.02-.1,.06-.19,.12-.27l.13-.14c.08-.07,.16-.11,.26-.13,.06-.03,.13-.04,.19-.03,.1-.01,.2,0,.3,.05l.17,.09c.1,.08,.18,.17,.23,.29,0,.01,.02,.02,.03,.03,.32,.04,.56,.3,.64,.62,.19,.74,.79,1.35,1.44,1.79,.34,.23,.71,.44,1.11,.53,.29,.07,.64,.06,.85-.09,.57-.39,.69-1.34,.75-2.08,.09-1-.02-2.03-.32-2.99-.12-.39-.02-.81,.38-.99,.34-.15,.87,0,.99,.38,.32,1.03,.49,2.08,.47,3.16-.01,.89-.13,1.9-.54,2.7-.48,.93-1.31,1.49-2.38,1.45-.91-.04-1.81-.53-2.51-1.08-.13-.1-.26-.22-.38-.33-.01,.02-.02,.04-.03,.05-.08,.1-.18,.18-.3,.24-.1,.04-.2,.07-.3,.1-.05,.01-.09,.02-.14,.02-.1,0-.22,.01-.33,0-.05,0-.11-.02-.16-.03-1.72,1.54-4.61,1.91-6.73,2.16-3.11,.37-6.48,.13-9.05-1.81-.1,0-.2-.02-.29-.06-.79-.43-1.43-1.05-1.87-1.78-.37,.55-1.11,.84-1.67,1.15-.82,.45-1.66,.85-2.56,1.12-1.73,.52-3.61,.48-5.15-.53-.32-.21-.37-.52-.27-.8-.78-.59-1.36-1.45-1.43-2.46-.03-.4,.2-.79,.62-.86Z"/><path class="cls-5" d="M228.64,103.13c.74-.63,1.68,.55,.94,1.17-1.66,1.41-2.65,3.48-2.75,5.65-.02,.41-.44,.71-.83,.66-.43-.05-.68-.42-.66-.83,.12-2.56,1.35-5,3.3-6.66Z"/><path class="cls-5" d="M242.83,100.08c2.43,.51,4.38,2.4,4.94,4.83,.09,.38-.24,.82-.62,.86-.43,.05-.77-.21-.86-.62-.02-.07-.03-.13-.05-.2v-.03h-.01c-.04-.13-.08-.25-.13-.36-.09-.23-.2-.46-.32-.67,0,0-.07-.11-.07-.11-.02-.03-.04-.07-.06-.1-.07-.1-.14-.2-.22-.3-.15-.19-.31-.38-.49-.55l-.04-.04s-.08-.08-.13-.11c-.1-.09-.21-.17-.32-.26-.09-.07-.18-.13-.28-.2-.06-.04-.11-.07-.17-.11-.02,0-.07-.04-.1-.06-.2-.11-.4-.2-.61-.28-.12-.04-.23-.09-.35-.12-.05-.01-.1-.03-.15-.04-.01,0-.09-.02-.12-.03-.38-.08-.73-.4-.66-.83,.06-.37,.42-.75,.83-.66Z"/></g><path class="cls-4" d="M220.61,110.1c1-.72,2.27-.99,3.49-.88,.27-2.72,1.89-5.25,4.26-6.64,2.34-1.37,5.24-1.45,7.7-.42,.27-1.04,1.06-1.92,2.03-2.42,2.07-1.07,5.21-.64,7.32,.09,.6,.21,1.19,.47,1.64,.91,.47,.46,.92,1.09,1.32,1.61,.14,.18,.8,2.02,.72,2.01,1.46,.26,2.86,.83,4.09,1.64,.46,.31,1,.5,1.44,.83,.55,.41,.98,1.04,1.33,1.61,1.51,2.46,1.97,6.5-.66,8.43-1.28,.94-2.84,1.04-4.21,.25-.6-.35-1.13-.82-1.83-.46-.65,.33-1.25,.74-1.91,1.05-2.66,1.24-5.68,1.69-8.6,1.4-3.11-.31-6.15-1.49-8.59-3.47-2.59,1.4-5.76,2.79-8.55,1.17-1.16-.68-2.11-1.83-2.4-3.16-.29-1.34,.28-2.75,1.39-3.55Zm.81,4.63c2.32,2.66,6.08,.67,8.53-.68,.22-.12,.57-.08,.75,.08,3.94,3.4,9.7,4.47,14.62,2.77,.61-.21,1.21-.46,1.79-.75,.6-.3,1.16-.75,1.79-.99,.7-.27,1.41-.18,2.07,.16,.56,.29,1.09,.76,1.73,.84,1.31,.15,2.35-.88,2.74-2.05,.42-1.23,.25-2.66-.23-3.85-1.04-2.56-3.54-4.41-6.31-4.52-1.72-.07-1.34-1.8-1.99-2.88-1.57-2.59-5.08-2.8-7.68-1.99-.99,.31-1.95,1.21-1.76,2.32,.12,.7-.65,1.04-1.19,.72-2.19-1.31-5.14-1.31-7.32,.03-2.14,1.31-3.41,3.73-3.42,6.21,0,.38-.46,.75-.83,.66-1.18-.26-2.66-.18-3.54,.75-.89,.95-.53,2.26,.24,3.15Z"/></g><g><path class="cls-3" d="M129.32,97.89c-1.2-1.19-1.23-3.1-.54-4.57,1.46-3.11,5.65-4.07,8.77-4.11,2.99-.03,6.27,.87,8.03,3.44-.26,.73,.52,1.69,1.37,1.17,1.68-1.02,3.9-1.01,5.51,.16,1.46,1.06,2.25,3.02,1.94,4.79-.12,.72,.42,1.35,1.18,1.18,2.4-.55,5.17,.24,6.7,2.24,1.46,1.91,1.67,4.85,.17,6.79-1.23,1.6-3.5,2.41-5.45,1.82-.63-.19-1.2-.52-1.85-.62-.69-.11-1.34,.04-1.93,.4-.55,.33-1.02,.78-1.55,1.14-.42,.28-.87,.52-1.33,.74-1.89,.89-4.15,1.15-6.21,.79-1.08-.19-2.15-.52-3.12-1.03-1.02-.53-1.78-1.3-2.7-1.96-1.28-.92-2.5-.37-3.79,.18-.94,.4-1.95,.6-2.97,.6-2,.01-4.05-.69-5.58-2-1.62-1.39-3.06-3.8-1.91-5.91,1.02-1.87,3.21-2.88,5.06-3.72,.57-.26,.6-1.1,.19-1.5Z"/><g><path class="cls-5" d="M136.87,105.17c.06-.47,.32-.88,.83-.94,.42-.05,.98,.21,1.05,.69,.5,3.35,2.41,6.71,6.09,7.07,1.03,.1,2.09,.07,3.12,0,.9-.06,1.82-.24,2.51-.86,1.14-1.02,1.47-2.67,1.4-4.14-.03-.05-.07-.1-.09-.16-.07-.14-.13-.28-.18-.43-.03-.07-.05-.15-.07-.23-.04-.13-.05-.25-.02-.38,0-.13,.04-.25,.11-.36,.06-.11,.14-.2,.25-.27,.01-.01,.03-.02,.04-.03,.04-.07,.08-.13,.14-.18,.18-.17,.42-.29,.68-.28,.26,.01,.49,.1,.68,.28,.44,.43,.89,.86,1.33,1.29,.59,.49,1.22,.97,1.92,1.25,.88,.36,1.77,.26,2.63-.12,1.6-.71,2.79-2.34,2.18-4.1-.25-.38-.26-.88,.09-1.23,.34-.34,1.02-.4,1.35,0,.88,1.06,1.15,2.4,.89,3.73,.02,.05,.04,.1,.05,.16,.48,2.44-1.25,4.74-3.56,5.44-.94,.29-1.92,.27-2.83-.05-1.15-.06-2.13-.67-3.01-1.39h-.01l-1.61,1.78c-.14,.16-.38,.25-.59,.27-.98,1.13-2.32,1.69-3.86,1.85-1.9,.2-4.05,.25-5.86-.45-.45-.17-.87-.39-1.27-.64-.24,.26-.62,.42-.95,.28-3.16-1.33-3.82-4.78-3.44-7.87Z"/><path class="cls-5" d="M123.09,104.05c.27-1.45,1.29-2.68,2.34-3.65,.9-.84,2.26,.51,1.35,1.35-.84,.77-1.73,1.73-1.86,2.92-.14,1.26,.61,2.46,1.5,3.28,.85,.79,1.92,1.32,3.02,1.66,.97,.3,2.32,.58,3.17-.15,.39-.34,.97-.38,1.35,0,.34,.34,.39,1.01,0,1.35-2.03,1.75-5.04,.92-7.16-.25-2.3-1.28-4.23-3.74-3.71-6.51Z"/><path class="cls-5" d="M128.25,93.55c.17-.93,.66-1.8,1.39-2.4,.73-.6,1.58-.96,2.45-1.32,.48-.2,1.05,.21,1.18,.67,.15,.55-.19,.98-.67,1.18-1.15,.47-2.29,1-2.5,2.38-.2,1.25,.22,2.62,1.05,3.59,.33,.39,.39,.97,0,1.35-.34,.34-1.02,.39-1.35,0-1.29-1.51-1.89-3.49-1.54-5.45Z"/><path class="cls-5" d="M153.44,97.41c.02,.23,.02,.47,0,.7,0,0-.01,.11-.02,.13v.05c-.03,.12-.06,.24-.1,.36-.03,.1-.08,.21-.11,.31h0c-.03,.06-.05,.12-.08,.17-.05,.1-.11,.19-.17,.29-.03,.05-.07,.09-.1,.14l-.02,.02c-.34,.41-.38,.94,0,1.35,.33,.36,1.03,.39,1.35,0,.82-.98,1.25-2.24,1.15-3.53-.1-1.27-.61-2.51-1.57-3.36-.4-.35-.95-.37-1.35,0-.36,.33-.38,1.02,0,1.35,.09,.08,.18,.17,.27,.26,.04,.04,.08,.1,.12,.14h0c.13,.2,.25,.4,.35,.61l.02,.04s.04,.09,.05,.14c.04,.1,.07,.21,.1,.32,.03,.12,.05,.24,.08,.36h0c0,.06,0,.1,.01,.15Z"/></g><path class="cls-4" d="M127.17,98.2c-1.05-1.79-1.09-3.59,0-5.4,1.87-3.1,4.9-5.24,8.56-5.32,2.1-.05,4.52-.17,6.52,.51,1.99,.68,3.73,1.87,4.92,3.61,2.1-.77,4.57-.52,6.39,.83,1.76,1.3,2.74,3.34,2.78,5.48,2.24-.19,4.5,.46,6.26,1.9,2.1,1.72,3.07,4.51,2.67,7.17-.39,2.62-2.26,4.71-4.75,5.56-1.17,.4-2.45,.47-3.65,.2-.65-.14-1.22-.49-1.85-.65-.69-.17-1.15,.32-1.65,.72-4.04,3.14-10.11,3.3-14.35,.44-.52-.35-1-.75-1.46-1.16-.61-.54-.98-.51-1.71-.19-1.2,.52-2.35,.91-3.66,1.01-2.38,.18-4.89-.53-6.81-1.93-2.38-1.73-4.42-4.86-3.38-7.89,.8-2.36,3-3.81,5.17-4.88Zm-1.2,10.82c1.53,1.31,3.58,2.01,5.58,2,1.02,0,2.03-.2,2.97-.6,1.29-.55,2.51-1.09,3.79-.18,.92,.66,1.68,1.43,2.7,1.96,.98,.51,2.04,.84,3.12,1.03,2.05,.35,4.32,.1,6.21-.79,.46-.22,.9-.46,1.33-.74,.53-.35,1-.81,1.55-1.14,.59-.36,1.25-.5,1.93-.4,.65,.1,1.22,.43,1.85,.62,1.95,.6,4.21-.21,5.45-1.82,1.5-1.95,1.29-4.89-.17-6.79-1.53-2-4.3-2.79-6.7-2.24-.76,.17-1.3-.45-1.18-1.18,.31-1.77-.48-3.73-1.94-4.79-1.61-1.17-3.84-1.18-5.51-.16-.84,.51-1.63-.44-1.37-1.17-1.76-2.58-5.04-3.48-8.03-3.44-3.12,.03-7.31,1-8.77,4.11-.69,1.47-.66,3.38,.54,4.57,.4,.4,.38,1.24-.19,1.5-1.85,.84-4.04,1.86-5.06,3.72-1.15,2.11,.29,4.52,1.91,5.91Z"/></g><g><path class="cls-3" d="M175.09,170.05c-.47,.1-1.05-.37-1.06-.85-.01-3.17-1.64-6.25-4.36-7.91-2.78-1.7-6.53-1.7-9.33-.03-.68,.41-1.67-.03-1.52-.92,.24-1.42-.99-2.57-2.24-2.96-1.51-.47-3.27-.23-4.8,.07-.81,.16-1.73,.41-2.57,.81-.07,.05-.15,.09-.24,.11-.33,.17-.65,.36-.93,.58-.11,.29-.33,.46-.58,.54-.36,.4-.63,.87-.75,1.41,0,.09,.01,.17,0,.26-.03,.25-.1,.5-.21,.73-.1,.22-.24,.45-.4,.63-.17,.19-.35,.37-.57,.5-.21,.13-.44,.26-.68,.32h0c-.13,.14-.33,.23-.58,.24-3.53,.14-6.71,2.5-8.04,5.75-.62,1.52-.83,3.33-.3,4.9,.5,1.48,1.81,2.79,3.49,2.61,.82-.09,1.5-.7,2.21-1.07,.84-.44,1.75-.55,2.64-.2,.8,.31,1.52,.87,2.29,1.26,.74,.37,1.5,.69,2.28,.96,6.27,2.16,13.61,.8,18.63-3.53,.24-.21,.68-.26,.96-.11,3.12,1.71,7.92,4.25,10.87,.86,.99-1.13,1.44-2.8,.31-4.01-1.12-1.19-3.01-1.3-4.51-.96Z"/><g><path class="cls-5" d="M180.77,171.15c-.47-.08-1.06,.27-1.1,.79-.07,1.06-.77,1.89-1.73,2.32-1.23,.55-2.63,.37-3.88-.02-2.21-.68-4.89-1.9-5.84-4.17-.21-.5-.68-.64-1.09-.54-.14-.12-.31-.21-.48-.24-.56-.09-.96,.29-1.1,.79-.78,2.82-3.31,4.84-6.02,5.69-3.35,1.06-7.11,.35-10.3-.93-1.45-.58-2.83-1.34-3.75-2.59v-.04c.03-.13,.02-.26-.02-.38-.02-.13-.07-.24-.15-.34l-.17-.18c-.1-.08-.21-.14-.33-.16-.08-.03-.16-.05-.25-.04-.13-.01-.26,0-.38,.06l-.22,.12c-.13,.1-.23,.22-.3,.37-.01,.01-.03,.02-.04,.04-.41,.06-.71,.38-.82,.79-.24,.94-1.01,1.72-1.84,2.28-.43,.29-.91,.56-1.42,.68-.37,.09-.81,.07-1.08-.11-.73-.5-.88-1.7-.96-2.65-.11-1.27,.02-2.59,.4-3.81,.15-.49,.03-1.04-.48-1.26-.43-.19-1.11-.01-1.26,.48-.41,1.32-.62,2.65-.6,4.03,.02,1.14,.16,2.42,.69,3.44,.61,1.18,1.67,1.9,3.03,1.84,1.16-.05,2.3-.68,3.2-1.38,.17-.13,.33-.28,.48-.42,.01,.02,.03,.05,.04,.07,.1,.13,.23,.23,.38,.3,.12,.06,.26,.09,.39,.12,.06,.01,.12,.02,.17,.02,.13,0,.28,.02,.42,0,.07-.01,.14-.03,.21-.04,2.19,1.96,5.88,2.43,8.58,2.75,3.97,.47,8.25,.17,11.52-2.31,.13,0,.25-.02,.37-.08,1.01-.55,1.82-1.33,2.39-2.27,.47,.7,1.41,1.08,2.13,1.47,1.04,.57,2.12,1.08,3.26,1.42,2.2,.66,4.6,.61,6.57-.68,.41-.27,.47-.67,.34-1.02,1-.76,1.73-1.85,1.82-3.13,.03-.51-.25-1.01-.79-1.1Z"/><path class="cls-5" d="M170.09,160.24c-.94-.8-2.13,.7-1.2,1.49,2.12,1.8,3.37,4.43,3.5,7.2,.02,.52,.57,.9,1.06,.85,.54-.06,.87-.54,.85-1.06-.15-3.26-1.72-6.37-4.21-8.48Z"/><path class="cls-5" d="M152.02,156.35c-3.09,.65-5.58,3.06-6.29,6.15-.11,.49,.3,1.04,.79,1.1,.54,.06,.98-.27,1.1-.79,.02-.08,.04-.17,.06-.25v-.04h.01c.05-.16,.1-.31,.16-.46,.12-.29,.25-.58,.41-.86,0,0,.09-.14,.09-.14,.03-.04,.05-.08,.08-.13,.09-.13,.18-.26,.28-.39,.19-.25,.4-.48,.62-.7,.02-.02,.04-.04,.05-.05,.05-.05,.11-.1,.16-.14,.13-.11,.27-.22,.41-.33,.12-.09,.23-.17,.35-.25,.07-.05,.15-.09,.22-.14,.02-.01,.09-.05,.13-.07,.25-.13,.51-.25,.78-.36,.15-.06,.3-.11,.45-.15,.06-.02,.12-.04,.19-.05,.02,0,.11-.03,.15-.03,.49-.1,.93-.51,.85-1.06-.07-.47-.53-.96-1.06-.85Z"/></g><path class="cls-4" d="M182.1,173.64c-.36,1.7-1.57,3.16-3.06,4.02-3.55,2.07-7.59,.29-10.9-1.49-3.1,2.51-6.97,4.02-10.94,4.42-3.72,.37-7.56-.2-10.95-1.78-.84-.39-1.61-.91-2.43-1.34-.89-.46-1.56,.14-2.33,.59-1.75,1.01-3.73,.88-5.36-.32-3.35-2.46-2.77-7.61-.85-10.74,.45-.73,1-1.54,1.7-2.05,.56-.41,1.24-.67,1.83-1.06,1.57-1.04,3.36-1.76,5.22-2.09-.1,.02,.75-2.33,.92-2.56,.51-.67,1.08-1.46,1.69-2.05,.58-.56,1.33-.89,2.09-1.16,2.68-.93,6.69-1.48,9.33-.12,1.24,.64,2.24,1.77,2.59,3.09,3.14-1.31,6.83-1.2,9.81,.54,3.02,1.77,5.08,4.99,5.43,8.46,1.56-.13,3.18,.2,4.45,1.12,1.41,1.02,2.13,2.81,1.77,4.52Zm-2.5-2.63c-1.12-1.19-3.01-1.3-4.51-.96-.47,.1-1.05-.37-1.06-.85-.01-3.17-1.64-6.25-4.36-7.91-2.78-1.7-6.53-1.7-9.33-.03-.68,.41-1.67-.03-1.52-.92,.24-1.42-.99-2.57-2.24-2.96-3.31-1.03-7.78-.76-9.78,2.54-.83,1.37-.34,3.58-2.53,3.67-3.53,.14-6.71,2.5-8.04,5.75-.62,1.52-.83,3.33-.3,4.9,.5,1.48,1.81,2.79,3.49,2.61,.82-.09,1.5-.7,2.21-1.07,.84-.44,1.75-.55,2.64-.2,.8,.31,1.52,.87,2.29,1.26,.74,.37,1.5,.69,2.28,.96,6.27,2.16,13.61,.8,18.63-3.53,.24-.21,.68-.26,.96-.11,3.12,1.71,7.92,4.25,10.87,.86,.99-1.13,1.44-2.8,.31-4.01Z"/></g><g><path class="cls-3" d="M277.01,187.06c1.45-1.44,1.49-3.75,.65-5.53-1.77-3.75-6.83-4.92-10.6-4.96-3.61-.04-7.58,1.05-9.7,4.16,.31,.88-.63,2.04-1.65,1.42-2.03-1.23-4.71-1.22-6.66,.19-1.76,1.28-2.72,3.64-2.35,5.79,.15,.87-.51,1.63-1.42,1.42-2.9-.67-6.25,.29-8.09,2.71-1.76,2.3-2.01,5.85-.2,8.21,1.49,1.94,4.22,2.91,6.58,2.19,.76-.23,1.44-.63,2.23-.75,.83-.13,1.62,.05,2.34,.48,.66,.4,1.23,.95,1.87,1.37,.51,.34,1.05,.63,1.6,.89,2.29,1.07,5.02,1.38,7.5,.96,1.31-.23,2.59-.62,3.77-1.24,1.23-.65,2.15-1.57,3.26-2.37,1.54-1.11,3.02-.45,4.58,.21,1.13,.48,2.36,.72,3.59,.73,2.42,.01,4.9-.83,6.74-2.42,1.96-1.68,3.7-4.6,2.31-7.14-1.23-2.25-3.88-3.48-6.12-4.5-.69-.31-.72-1.33-.23-1.81Z"/><g><path class="cls-5" d="M267.89,195.85c-.07-.57-.38-1.06-1-1.13-.51-.06-1.18,.25-1.27,.83-.6,4.05-2.91,8.11-7.35,8.54-1.25,.12-2.52,.08-3.77,0-1.09-.08-2.2-.29-3.04-1.03-1.38-1.23-1.77-3.22-1.7-5,.04-.06,.08-.12,.11-.19,.08-.17,.15-.34,.22-.52,.03-.09,.06-.18,.09-.27,.05-.15,.06-.31,.02-.46,0-.15-.05-.3-.14-.43-.07-.13-.17-.24-.3-.32-.01-.01-.03-.02-.05-.03-.05-.08-.1-.16-.17-.22-.22-.2-.51-.35-.82-.34-.31,.01-.59,.12-.82,.34-.54,.52-1.07,1.04-1.61,1.56-.71,.59-1.47,1.17-2.32,1.51-1.07,.43-2.14,.31-3.18-.15-1.94-.86-3.37-2.83-2.64-4.95,.3-.46,.32-1.06-.11-1.48-.41-.41-1.23-.48-1.63,0-1.07,1.28-1.39,2.89-1.08,4.5-.03,.06-.05,.13-.07,.2-.57,2.95,1.51,5.73,4.3,6.57,1.14,.34,2.32,.32,3.41-.06,1.39-.08,2.58-.8,3.63-1.67v.02c.66,.71,1.31,1.42,1.96,2.13,.17,.19,.46,.3,.72,.33,1.18,1.36,2.8,2.04,4.67,2.23,2.3,.24,4.9,.3,7.08-.55,.54-.21,1.05-.47,1.53-.78,.29,.31,.74,.51,1.14,.34,3.82-1.61,4.62-5.78,4.15-9.51Z"/><path class="cls-5" d="M284.54,194.5c-.33-1.76-1.55-3.24-2.83-4.41-1.09-1.01-2.73,.62-1.63,1.63,1.01,.94,2.09,2.09,2.25,3.53,.17,1.52-.74,2.97-1.81,3.96-1.03,.95-2.32,1.6-3.65,2.01-1.17,.36-2.81,.69-3.83-.19-.47-.41-1.17-.46-1.63,0-.42,.42-.48,1.23,0,1.63,2.46,2.11,6.09,1.11,8.65-.31,2.78-1.54,5.11-4.52,4.48-7.86Z"/><path class="cls-5" d="M278.31,181.82c-.2-1.13-.79-2.17-1.68-2.9-.88-.72-1.91-1.16-2.96-1.59-.58-.24-1.27,.26-1.42,.81-.18,.66,.23,1.18,.81,1.42,1.4,.57,2.76,1.21,3.03,2.87,.24,1.51-.27,3.17-1.27,4.34-.4,.47-.47,1.17,0,1.63,.41,.41,1.23,.48,1.63,0,1.56-1.83,2.28-4.21,1.86-6.59Z"/><path class="cls-5" d="M247.88,186.49c-.02,.28-.02,.57,0,.85,0,0,.02,.13,.02,.16v.06c.04,.15,.07,.29,.12,.43,.04,.13,.1,.25,.13,.38h0c.03,.08,.06,.14,.1,.21,.06,.12,.13,.23,.2,.34,.04,.06,.08,.11,.12,.17l.02,.03c.41,.5,.46,1.14,0,1.63-.4,.43-1.25,.47-1.63,0-.99-1.19-1.51-2.71-1.39-4.26,.12-1.53,.73-3.03,1.9-4.06,.48-.43,1.15-.44,1.63,0,.44,.4,.45,1.23,0,1.63-.11,.1-.22,.2-.32,.31-.05,.05-.09,.12-.15,.17h-.01c-.16,.24-.3,.48-.43,.73-.01,.02-.02,.03-.02,.05-.02,.06-.04,.11-.06,.17-.04,.13-.08,.25-.12,.38-.04,.14-.06,.29-.09,.44v.02c0,.06-.01,.11-.02,.17Z"/></g><path class="cls-4" d="M285.85,193.34c1.25,3.66-1.22,7.44-4.09,9.53-2.33,1.7-5.36,2.56-8.23,2.34-1.59-.12-2.98-.58-4.42-1.22-.88-.39-1.33-.42-2.06,.23-.56,.5-1.14,.98-1.77,1.4-5.12,3.46-12.46,3.26-17.33-.53-.62-.48-1.17-1.07-2-.87-.77,.19-1.46,.61-2.24,.78-1.45,.32-3,.23-4.41-.24-3-1.02-5.27-3.55-5.73-6.72-.47-3.21,.69-6.59,3.23-8.67,2.13-1.74,4.86-2.52,7.56-2.3,.05-2.58,1.24-5.04,3.36-6.61,2.2-1.63,5.18-1.93,7.72-1,1.44-2.1,3.54-3.54,5.94-4.36,2.42-.82,5.35-.68,7.88-.62,4.42,.1,8.08,2.68,10.34,6.43,1.31,2.18,1.27,4.36,0,6.53,2.63,1.29,5.28,3.04,6.25,5.9Zm-2.49,.03c-1.23-2.25-3.88-3.48-6.12-4.5-.69-.31-.72-1.33-.23-1.81,1.45-1.44,1.49-3.75,.65-5.53-1.77-3.75-6.83-4.92-10.6-4.96-3.61-.04-7.58,1.05-9.7,4.16,.31,.88-.63,2.04-1.65,1.42-2.03-1.23-4.71-1.22-6.66,.19-1.76,1.28-2.72,3.64-2.35,5.79,.15,.87-.51,1.63-1.42,1.42-2.9-.67-6.25,.29-8.1,2.71-1.76,2.3-2.01,5.85-.2,8.21,1.49,1.94,4.22,2.91,6.58,2.19,.76-.23,1.44-.63,2.23-.75,.83-.13,1.62,.05,2.34,.48,.66,.4,1.23,.95,1.87,1.37,.51,.34,1.05,.63,1.6,.89,2.29,1.07,5.02,1.38,7.5,.96,1.31-.23,2.59-.62,3.77-1.24,1.23-.65,2.15-1.57,3.26-2.37,1.54-1.11,3.02-.45,4.58,.21,1.13,.48,2.36,.72,3.59,.73,2.42,.01,4.9-.83,6.74-2.42,1.96-1.68,3.7-4.6,2.31-7.14Z"/></g></g><g><g><path class="cls-3" d="M25.26,39.74c.37,.08,.83-.29,.83-.66,0-2.48,1.28-4.9,3.42-6.21,2.18-1.33,5.13-1.33,7.32-.03,.53,.32,1.31-.02,1.19-.72-.19-1.11,.77-2.02,1.76-2.32,1.19-.37,2.57-.18,3.77,.05,.64,.12,1.36,.32,2.02,.63,.06,.04,.12,.07,.19,.09,.26,.13,.51,.28,.73,.45,.09,.23,.26,.36,.46,.42,.28,.31,.49,.68,.59,1.11,0,.07-.01,.14,0,.2,.02,.2,.08,.4,.16,.58,.08,.18,.19,.35,.32,.5,.13,.15,.28,.29,.45,.39,.17,.1,.34,.2,.53,.25h0c.11,.11,.26,.18,.46,.19,2.77,.11,5.27,1.96,6.31,4.52,.48,1.19,.65,2.61,.23,3.85-.39,1.16-1.42,2.19-2.74,2.05-.65-.07-1.17-.55-1.73-.84-.66-.34-1.37-.43-2.07-.16-.63,.24-1.19,.68-1.79,.99-.58,.29-1.18,.54-1.79,.75-4.92,1.69-10.68,.63-14.62-2.77-.19-.16-.54-.2-.75-.08-2.45,1.34-6.22,3.34-8.53,.68-.77-.89-1.13-2.2-.24-3.15,.88-.94,2.36-1.02,3.54-.75Z"/><g><path class="cls-5" d="M20.8,40.6c.37-.06,.83,.22,.86,.62,.05,.83,.6,1.48,1.36,1.82,.96,.43,2.06,.29,3.04-.01,1.74-.53,3.84-1.49,4.59-3.27,.17-.4,.53-.51,.86-.43,.11-.1,.24-.17,.38-.19,.44-.07,.75,.23,.86,.62,.61,2.21,2.6,3.8,4.72,4.47,2.63,.83,5.58,.28,8.09-.73,1.14-.46,2.22-1.06,2.95-2.04v-.03c-.03-.1-.02-.2,.01-.3,.02-.1,.06-.19,.12-.27l.13-.14c.08-.07,.16-.11,.26-.13,.06-.03,.13-.04,.19-.03,.1-.01,.2,0,.3,.05l.17,.09c.1,.08,.18,.17,.23,.29,0,.01,.02,.02,.03,.03,.32,.04,.56,.3,.64,.62,.19,.74,.79,1.35,1.44,1.79,.34,.23,.71,.44,1.11,.53,.29,.07,.64,.06,.85-.09,.57-.39,.69-1.34,.75-2.08,.09-1-.02-2.03-.32-2.99-.12-.39-.02-.81,.38-.99,.34-.15,.87,0,.99,.38,.32,1.03,.49,2.08,.47,3.16-.01,.89-.13,1.9-.54,2.7-.48,.93-1.31,1.49-2.38,1.45-.91-.04-1.81-.53-2.51-1.08-.13-.1-.26-.22-.38-.33-.01,.02-.02,.04-.03,.05-.08,.1-.18,.18-.3,.24-.1,.04-.2,.07-.3,.1-.05,.01-.09,.02-.14,.02-.1,0-.22,.01-.33,0-.05,0-.11-.02-.16-.03-1.72,1.54-4.61,1.91-6.73,2.16-3.11,.37-6.48,.13-9.05-1.81-.1,0-.2-.02-.29-.06-.79-.43-1.43-1.05-1.87-1.78-.37,.55-1.11,.84-1.67,1.15-.82,.45-1.66,.85-2.56,1.12-1.73,.52-3.61,.48-5.15-.53-.32-.21-.37-.52-.27-.8-.78-.59-1.36-1.45-1.43-2.46-.03-.4,.2-.79,.62-.86Z"/><path class="cls-5" d="M29.19,32.04c.74-.63,1.68,.55,.94,1.17-1.66,1.41-2.65,3.48-2.75,5.65-.02,.41-.44,.71-.83,.66-.43-.05-.68-.42-.66-.83,.12-2.56,1.35-5,3.3-6.66Z"/><path class="cls-5" d="M43.37,28.98c2.43,.51,4.38,2.4,4.94,4.83,.09,.38-.24,.82-.62,.86-.43,.05-.77-.21-.86-.62-.02-.07-.03-.13-.05-.2v-.03h-.01c-.04-.13-.08-.25-.13-.36-.09-.23-.2-.46-.32-.67,0,0-.07-.11-.07-.11-.02-.03-.04-.07-.06-.1-.07-.1-.14-.2-.22-.3-.15-.19-.31-.38-.49-.55l-.04-.04s-.08-.08-.13-.11c-.1-.09-.21-.17-.32-.26-.09-.07-.18-.13-.28-.2-.06-.04-.11-.07-.17-.11-.02,0-.07-.04-.1-.06-.2-.11-.4-.2-.61-.28-.12-.04-.23-.09-.35-.12-.05-.01-.1-.03-.15-.04-.01,0-.09-.02-.12-.03-.38-.08-.73-.4-.66-.83,.06-.37,.42-.75,.83-.66Z"/></g><path class="cls-4" d="M21.15,39.01c1-.72,2.27-.99,3.49-.88,.27-2.72,1.89-5.25,4.26-6.64,2.34-1.37,5.24-1.45,7.7-.42,.27-1.04,1.06-1.92,2.03-2.42,2.07-1.07,5.21-.64,7.32,.09,.6,.21,1.19,.47,1.64,.91,.47,.46,.92,1.09,1.32,1.61,.14,.18,.8,2.02,.72,2.01,1.46,.26,2.86,.83,4.09,1.64,.46,.31,1,.5,1.44,.83,.55,.41,.98,1.04,1.33,1.61,1.51,2.46,1.97,6.5-.66,8.43-1.28,.94-2.84,1.04-4.21,.25-.6-.35-1.13-.82-1.83-.46-.65,.33-1.25,.74-1.91,1.05-2.66,1.24-5.68,1.69-8.6,1.4-3.11-.31-6.15-1.49-8.59-3.47-2.59,1.4-5.76,2.79-8.55,1.17-1.16-.68-2.11-1.83-2.4-3.16-.29-1.34,.28-2.75,1.39-3.55Zm.81,4.63c2.32,2.66,6.08,.67,8.53-.68,.22-.12,.57-.08,.75,.08,3.94,3.4,9.7,4.47,14.62,2.77,.61-.21,1.21-.46,1.79-.75,.6-.3,1.16-.75,1.79-.99,.7-.27,1.41-.18,2.07,.16,.56,.29,1.09,.76,1.73,.84,1.31,.15,2.35-.88,2.74-2.05,.42-1.23,.25-2.66-.23-3.85-1.04-2.56-3.54-4.41-6.31-4.52-1.72-.07-1.34-1.8-1.99-2.88-1.57-2.59-5.08-2.8-7.68-1.99-.99,.31-1.95,1.21-1.76,2.32,.12,.7-.65,1.04-1.19,.72-2.19-1.31-5.14-1.31-7.32,.03-2.14,1.31-3.41,3.73-3.42,6.21,0,.38-.46,.75-.83,.66-1.18-.26-2.66-.18-3.54,.75-.89,.95-.53,2.26,.24,3.15Z"/></g><g><path class="cls-3" d="M77.56,115.96c1.45-1.44,1.49-3.75,.65-5.53-1.77-3.75-6.83-4.92-10.6-4.96-3.61-.04-7.58,1.05-9.7,4.16,.31,.88-.63,2.04-1.65,1.42-2.03-1.23-4.71-1.22-6.66,.19-1.76,1.28-2.72,3.64-2.35,5.79,.15,.87-.51,1.63-1.42,1.42-2.9-.67-6.25,.29-8.09,2.71-1.76,2.3-2.01,5.85-.2,8.21,1.49,1.94,4.22,2.91,6.58,2.19,.76-.23,1.44-.63,2.23-.75,.83-.13,1.62,.05,2.34,.48,.66,.4,1.23,.95,1.87,1.37,.51,.34,1.05,.63,1.6,.89,2.29,1.07,5.02,1.38,7.5,.96,1.31-.23,2.59-.62,3.77-1.24,1.23-.65,2.15-1.57,3.26-2.37,1.54-1.11,3.02-.45,4.58,.21,1.13,.48,2.36,.72,3.59,.73,2.42,.01,4.9-.83,6.74-2.42,1.96-1.68,3.7-4.6,2.31-7.14-1.23-2.25-3.88-3.48-6.12-4.5-.69-.31-.72-1.33-.23-1.81Z"/><g><path class="cls-5" d="M68.44,124.76c-.07-.57-.38-1.06-1-1.13-.51-.06-1.18,.25-1.27,.83-.6,4.05-2.91,8.11-7.35,8.54-1.25,.12-2.52,.08-3.77,0-1.09-.08-2.2-.29-3.04-1.03-1.38-1.23-1.77-3.22-1.7-5,.04-.06,.08-.12,.11-.19,.08-.17,.15-.34,.22-.52,.03-.09,.06-.18,.09-.27,.05-.15,.06-.31,.02-.46,0-.15-.05-.3-.14-.43-.07-.13-.17-.24-.3-.32-.01-.01-.03-.02-.05-.03-.05-.08-.1-.16-.17-.22-.22-.2-.51-.35-.82-.34-.31,.01-.59,.12-.82,.34-.54,.52-1.07,1.04-1.61,1.56-.71,.59-1.47,1.17-2.32,1.51-1.07,.43-2.14,.31-3.18-.15-1.94-.86-3.37-2.83-2.64-4.95,.3-.46,.32-1.06-.11-1.48-.41-.41-1.23-.48-1.63,0-1.07,1.28-1.39,2.89-1.08,4.5-.03,.06-.05,.13-.07,.2-.57,2.95,1.51,5.73,4.3,6.57,1.14,.34,2.32,.32,3.41-.06,1.39-.08,2.58-.8,3.63-1.67v.02c.66,.71,1.31,1.42,1.96,2.13,.17,.19,.46,.3,.72,.33,1.18,1.36,2.8,2.04,4.67,2.23,2.3,.24,4.9,.3,7.08-.55,.54-.21,1.05-.47,1.53-.78,.29,.31,.74,.51,1.14,.34,3.82-1.61,4.62-5.78,4.15-9.51Z"/><path class="cls-5" d="M85.08,123.41c-.33-1.76-1.55-3.24-2.83-4.41-1.09-1.01-2.73,.62-1.63,1.63,1.01,.94,2.09,2.09,2.25,3.53,.17,1.52-.74,2.97-1.81,3.96-1.03,.95-2.32,1.6-3.65,2.01-1.17,.36-2.81,.69-3.83-.19-.47-.41-1.17-.46-1.63,0-.42,.42-.48,1.23,0,1.63,2.46,2.11,6.09,1.11,8.65-.31,2.78-1.54,5.11-4.52,4.48-7.86Z"/><path class="cls-5" d="M78.85,110.73c-.2-1.13-.79-2.17-1.68-2.9-.88-.72-1.91-1.16-2.96-1.59-.58-.24-1.27,.26-1.42,.81-.18,.66,.23,1.18,.81,1.42,1.4,.57,2.76,1.21,3.03,2.87,.24,1.51-.27,3.17-1.27,4.34-.4,.47-.47,1.17,0,1.63,.41,.41,1.23,.48,1.63,0,1.56-1.83,2.28-4.21,1.86-6.59Z"/><path class="cls-5" d="M48.42,115.39c-.02,.28-.02,.57,0,.85,0,0,.02,.13,.02,.16v.06c.04,.15,.07,.29,.12,.43,.04,.13,.1,.25,.13,.38h0c.03,.08,.06,.14,.1,.21,.06,.12,.13,.23,.2,.34,.04,.06,.08,.11,.12,.17l.02,.03c.41,.5,.46,1.14,0,1.63-.4,.43-1.25,.47-1.63,0-.99-1.19-1.51-2.71-1.39-4.26,.12-1.53,.73-3.03,1.9-4.06,.48-.43,1.15-.44,1.63,0,.44,.4,.45,1.23,0,1.63-.11,.1-.22,.2-.32,.31-.05,.05-.09,.12-.15,.17h-.01c-.16,.24-.3,.48-.43,.73-.01,.02-.02,.03-.02,.05-.02,.06-.04,.11-.06,.17-.04,.13-.08,.25-.12,.38-.04,.14-.06,.29-.09,.44v.02c0,.06-.01,.11-.02,.17Z"/></g><path class="cls-4" d="M86.4,122.24c1.25,3.66-1.22,7.44-4.09,9.53-2.33,1.7-5.36,2.56-8.23,2.34-1.59-.12-2.98-.58-4.42-1.22-.88-.39-1.33-.42-2.06,.23-.56,.5-1.14,.98-1.77,1.4-5.12,3.46-12.46,3.26-17.33-.53-.62-.48-1.17-1.07-2-.87-.77,.19-1.46,.61-2.24,.78-1.45,.32-3,.23-4.41-.24-3-1.02-5.27-3.55-5.73-6.72-.47-3.21,.69-6.59,3.23-8.67,2.13-1.74,4.86-2.52,7.56-2.3,.05-2.58,1.24-5.04,3.36-6.61,2.2-1.63,5.18-1.93,7.72-1,1.44-2.1,3.54-3.54,5.94-4.36,2.42-.82,5.35-.68,7.88-.62,4.42,.1,8.08,2.68,10.34,6.43,1.31,2.18,1.27,4.36,0,6.53,2.63,1.29,5.28,3.04,6.25,5.9Zm-2.49,.03c-1.23-2.25-3.88-3.48-6.12-4.5-.69-.31-.72-1.33-.23-1.81,1.45-1.44,1.49-3.75,.65-5.53-1.77-3.75-6.83-4.92-10.6-4.96-3.61-.04-7.58,1.05-9.7,4.16,.31,.88-.63,2.04-1.65,1.42-2.03-1.23-4.71-1.22-6.66,.19-1.76,1.28-2.72,3.64-2.35,5.79,.15,.87-.51,1.63-1.42,1.42-2.9-.67-6.25,.29-8.1,2.71-1.76,2.3-2.01,5.85-.2,8.21,1.49,1.94,4.22,2.91,6.58,2.19,.76-.23,1.44-.63,2.23-.75,.83-.13,1.62,.05,2.34,.48,.66,.4,1.23,.95,1.87,1.37,.51,.34,1.05,.63,1.6,.89,2.29,1.07,5.02,1.38,7.5,.96,1.31-.23,2.59-.62,3.77-1.24,1.23-.65,2.15-1.57,3.26-2.37,1.54-1.11,3.02-.45,4.58,.21,1.13,.48,2.36,.72,3.59,.73,2.42,.01,4.9-.83,6.74-2.42,1.96-1.68,3.7-4.6,2.31-7.14Z"/></g></g><g><g><path class="cls-3" d="M175.09,27.86c-.47,.1-1.05-.37-1.06-.85-.01-3.17-1.64-6.25-4.36-7.91-2.78-1.7-6.53-1.7-9.33-.03-.68,.41-1.67-.03-1.52-.92,.24-1.42-.99-2.57-2.24-2.96-1.51-.47-3.27-.23-4.8,.07-.81,.16-1.73,.41-2.57,.81-.07,.05-.15,.09-.24,.11-.33,.17-.65,.36-.93,.58-.11,.29-.33,.46-.58,.54-.36,.4-.63,.87-.75,1.41,0,.09,.01,.17,0,.26-.03,.25-.1,.5-.21,.73-.1,.22-.24,.45-.4,.63-.17,.19-.35,.37-.57,.5-.21,.13-.44,.26-.68,.32h0c-.13,.14-.33,.23-.58,.24-3.53,.14-6.71,2.5-8.04,5.75-.62,1.52-.83,3.33-.3,4.9,.5,1.48,1.81,2.79,3.49,2.61,.82-.09,1.5-.7,2.21-1.07,.84-.44,1.75-.55,2.64-.2,.8,.31,1.52,.87,2.29,1.26,.74,.37,1.5,.69,2.28,.96,6.27,2.16,13.61,.8,18.63-3.53,.24-.21,.68-.26,.96-.11,3.12,1.71,7.92,4.25,10.87,.86,.99-1.13,1.44-2.8,.31-4.01-1.12-1.19-3.01-1.3-4.51-.96Z"/><g><path class="cls-5" d="M180.77,28.96c-.47-.08-1.06,.27-1.1,.79-.07,1.06-.77,1.89-1.73,2.32-1.23,.55-2.63,.37-3.88-.02-2.21-.68-4.89-1.9-5.84-4.17-.21-.5-.68-.64-1.09-.54-.14-.12-.31-.21-.48-.24-.56-.09-.96,.29-1.1,.79-.78,2.82-3.31,4.84-6.02,5.69-3.35,1.06-7.11,.35-10.3-.93-1.45-.58-2.83-1.34-3.75-2.59v-.04c.03-.13,.02-.26-.02-.38-.02-.13-.07-.24-.15-.34l-.17-.18c-.1-.08-.21-.14-.33-.16-.08-.03-.16-.05-.25-.04-.13-.01-.26,0-.38,.06l-.22,.12c-.13,.1-.23,.22-.3,.37-.01,.01-.03,.02-.04,.04-.41,.06-.71,.38-.82,.79-.24,.94-1.01,1.72-1.84,2.28-.43,.29-.91,.56-1.42,.68-.37,.09-.81,.07-1.08-.11-.73-.5-.88-1.7-.96-2.65-.11-1.27,.02-2.59,.4-3.81,.15-.49,.03-1.04-.48-1.26-.43-.19-1.11-.01-1.26,.48-.41,1.32-.62,2.65-.6,4.03,.02,1.14,.16,2.42,.69,3.44,.61,1.18,1.67,1.9,3.03,1.84,1.16-.05,2.3-.68,3.2-1.38,.17-.13,.33-.28,.48-.42,.01,.02,.03,.05,.04,.07,.1,.13,.23,.23,.38,.3,.12,.06,.26,.09,.39,.12,.06,.01,.12,.02,.17,.02,.13,0,.28,.02,.42,0,.07-.01,.14-.03,.21-.04,2.19,1.96,5.88,2.43,8.58,2.75,3.97,.47,8.25,.17,11.52-2.31,.13,0,.25-.02,.37-.08,1.01-.55,1.82-1.33,2.39-2.27,.47,.7,1.41,1.08,2.13,1.47,1.04,.57,2.12,1.08,3.26,1.42,2.2,.66,4.6,.61,6.57-.68,.41-.27,.47-.67,.34-1.02,1-.76,1.73-1.85,1.82-3.13,.03-.51-.25-1.01-.79-1.1Z"/><path class="cls-5" d="M170.09,18.05c-.94-.8-2.13,.7-1.2,1.49,2.12,1.8,3.37,4.43,3.5,7.2,.02,.52,.57,.9,1.06,.85,.54-.06,.87-.54,.85-1.06-.15-3.26-1.72-6.37-4.21-8.48Z"/><path class="cls-5" d="M152.02,14.16c-3.09,.65-5.58,3.06-6.29,6.15-.11,.49,.3,1.04,.79,1.1,.54,.06,.98-.27,1.1-.79,.02-.08,.04-.17,.06-.25v-.04h.01c.05-.16,.1-.31,.16-.46,.12-.29,.25-.58,.41-.86,0,0,.09-.14,.09-.14,.03-.04,.05-.08,.08-.13,.09-.13,.18-.26,.28-.39,.19-.25,.4-.48,.62-.7,.02-.02,.04-.04,.05-.05,.05-.05,.11-.1,.16-.14,.13-.11,.27-.22,.41-.33,.12-.09,.23-.17,.35-.25,.07-.05,.15-.09,.22-.14,.02-.01,.09-.05,.13-.07,.25-.13,.51-.25,.78-.36,.15-.06,.3-.11,.45-.15,.06-.02,.12-.04,.19-.05,.02,0,.11-.03,.15-.03,.49-.1,.93-.51,.85-1.06-.07-.47-.53-.96-1.06-.85Z"/></g><path class="cls-4" d="M182.1,31.45c-.36,1.7-1.57,3.16-3.06,4.02-3.55,2.07-7.59,.29-10.9-1.49-3.1,2.51-6.97,4.02-10.94,4.42-3.72,.37-7.56-.2-10.95-1.78-.84-.39-1.61-.91-2.43-1.34-.89-.46-1.56,.14-2.33,.59-1.75,1.01-3.73,.88-5.36-.32-3.35-2.46-2.77-7.61-.85-10.74,.45-.73,1-1.54,1.7-2.05,.56-.41,1.24-.67,1.83-1.06,1.57-1.04,3.36-1.76,5.22-2.09-.1,.02,.75-2.33,.92-2.56,.51-.67,1.08-1.46,1.69-2.05,.58-.56,1.33-.89,2.09-1.16,2.68-.93,6.69-1.48,9.33-.12,1.24,.64,2.24,1.77,2.59,3.09,3.14-1.31,6.83-1.2,9.81,.54,3.02,1.77,5.08,4.99,5.43,8.46,1.56-.13,3.18,.2,4.45,1.12,1.41,1.02,2.13,2.81,1.77,4.52Zm-2.5-2.63c-1.12-1.19-3.01-1.3-4.51-.96-.47,.1-1.05-.37-1.06-.85-.01-3.17-1.64-6.25-4.36-7.91-2.78-1.7-6.53-1.7-9.33-.03-.68,.41-1.67-.03-1.52-.92,.24-1.42-.99-2.57-2.24-2.96-3.31-1.03-7.78-.76-9.78,2.54-.83,1.37-.34,3.58-2.53,3.67-3.53,.14-6.71,2.5-8.04,5.75-.62,1.52-.83,3.33-.3,4.9,.5,1.48,1.81,2.79,3.49,2.61,.82-.09,1.5-.7,2.21-1.07,.84-.44,1.75-.55,2.64-.2,.8,.31,1.52,.87,2.29,1.26,.74,.37,1.5,.69,2.28,.96,6.27,2.16,13.61,.8,18.63-3.53,.24-.21,.68-.26,.96-.11,3.12,1.71,7.92,4.25,10.87,.86,.99-1.13,1.44-2.8,.31-4.01Z"/></g><g><path class="cls-3" d="M277.01,44.87c1.45-1.44,1.49-3.75,.65-5.53-1.77-3.75-6.83-4.92-10.6-4.96-3.61-.04-7.58,1.05-9.7,4.16,.31,.88-.63,2.04-1.65,1.42-2.03-1.23-4.71-1.22-6.66,.19-1.76,1.28-2.72,3.64-2.35,5.79,.15,.87-.51,1.63-1.42,1.42-2.9-.67-6.25,.29-8.09,2.71-1.76,2.3-2.01,5.85-.2,8.21,1.49,1.94,4.22,2.91,6.58,2.19,.76-.23,1.44-.63,2.23-.75,.83-.13,1.62,.05,2.34,.48,.66,.4,1.23,.95,1.87,1.37,.51,.34,1.05,.63,1.6,.89,2.29,1.07,5.02,1.38,7.5,.96,1.31-.23,2.59-.62,3.77-1.24,1.23-.65,2.15-1.57,3.26-2.37,1.54-1.11,3.02-.45,4.58,.21,1.13,.48,2.36,.72,3.59,.73,2.42,.01,4.9-.83,6.74-2.42,1.96-1.68,3.7-4.6,2.31-7.14-1.23-2.25-3.88-3.48-6.12-4.5-.69-.31-.72-1.33-.23-1.81Z"/><g><path class="cls-5" d="M267.89,53.66c-.07-.57-.38-1.06-1-1.13-.51-.06-1.18,.25-1.27,.83-.6,4.05-2.91,8.11-7.35,8.54-1.25,.12-2.52,.08-3.77,0-1.09-.08-2.2-.29-3.04-1.03-1.38-1.23-1.77-3.22-1.7-5,.04-.06,.08-.12,.11-.19,.08-.17,.15-.34,.22-.52,.03-.09,.06-.18,.09-.27,.05-.15,.06-.31,.02-.46,0-.15-.05-.3-.14-.43-.07-.13-.17-.24-.3-.32-.01-.01-.03-.02-.05-.03-.05-.08-.1-.16-.17-.22-.22-.2-.51-.35-.82-.34-.31,.01-.59,.12-.82,.34-.54,.52-1.07,1.04-1.61,1.56-.71,.59-1.47,1.17-2.32,1.51-1.07,.43-2.14,.31-3.18-.15-1.94-.86-3.37-2.83-2.64-4.95,.3-.46,.32-1.06-.11-1.48-.41-.41-1.23-.48-1.63,0-1.07,1.28-1.39,2.89-1.08,4.5-.03,.06-.05,.13-.07,.2-.57,2.95,1.51,5.73,4.3,6.57,1.14,.34,2.32,.32,3.41-.06,1.39-.08,2.58-.8,3.63-1.67v.02c.66,.71,1.31,1.42,1.96,2.13,.17,.19,.46,.3,.72,.33,1.18,1.36,2.8,2.04,4.67,2.23,2.3,.24,4.9,.3,7.08-.55,.54-.21,1.05-.47,1.53-.78,.29,.31,.74,.51,1.14,.34,3.82-1.61,4.62-5.78,4.15-9.51Z"/><path class="cls-5" d="M284.54,52.31c-.33-1.76-1.55-3.24-2.83-4.41-1.09-1.01-2.73,.62-1.63,1.63,1.01,.94,2.09,2.09,2.25,3.53,.17,1.52-.74,2.97-1.81,3.96-1.03,.95-2.32,1.6-3.65,2.01-1.17,.36-2.81,.69-3.83-.19-.47-.41-1.17-.46-1.63,0-.42,.42-.48,1.23,0,1.63,2.46,2.11,6.09,1.11,8.65-.31,2.78-1.54,5.11-4.52,4.48-7.86Z"/><path class="cls-5" d="M278.31,39.63c-.2-1.13-.79-2.17-1.68-2.9-.88-.72-1.91-1.16-2.96-1.59-.58-.24-1.27,.26-1.42,.81-.18,.66,.23,1.18,.81,1.42,1.4,.57,2.76,1.21,3.03,2.87,.24,1.51-.27,3.17-1.27,4.34-.4,.47-.47,1.17,0,1.63,.41,.41,1.23,.48,1.63,0,1.56-1.83,2.28-4.21,1.86-6.59Z"/><path class="cls-5" d="M247.88,44.29c-.02,.28-.02,.57,0,.85,0,0,.02,.13,.02,.16v.06c.04,.15,.07,.29,.12,.43,.04,.13,.1,.25,.13,.38h0c.03,.08,.06,.14,.1,.21,.06,.12,.13,.23,.2,.34,.04,.06,.08,.11,.12,.17l.02,.03c.41,.5,.46,1.14,0,1.63-.4,.43-1.25,.47-1.63,0-.99-1.19-1.51-2.71-1.39-4.26,.12-1.53,.73-3.03,1.9-4.06,.48-.43,1.15-.44,1.63,0,.44,.4,.45,1.23,0,1.63-.11,.1-.22,.2-.32,.31-.05,.05-.09,.12-.15,.17h-.01c-.16,.24-.3,.48-.43,.73-.01,.02-.02,.03-.02,.05-.02,.06-.04,.11-.06,.17-.04,.13-.08,.25-.12,.38-.04,.14-.06,.29-.09,.44v.02c0,.06-.01,.11-.02,.17Z"/></g><path class="cls-4" d="M285.85,51.15c1.25,3.66-1.22,7.44-4.09,9.53-2.33,1.7-5.36,2.56-8.23,2.34-1.59-.12-2.98-.58-4.42-1.22-.88-.39-1.33-.42-2.06,.23-.56,.5-1.14,.98-1.77,1.4-5.12,3.46-12.46,3.26-17.33-.53-.62-.48-1.17-1.07-2-.87-.77,.19-1.46,.61-2.24,.78-1.45,.32-3,.23-4.41-.24-3-1.02-5.27-3.55-5.73-6.72-.47-3.21,.69-6.59,3.23-8.67,2.13-1.74,4.86-2.52,7.56-2.3,.05-2.58,1.24-5.04,3.36-6.61,2.2-1.63,5.18-1.93,7.72-1,1.44-2.1,3.54-3.54,5.94-4.36,2.42-.82,5.35-.68,7.88-.62,4.42,.1,8.08,2.68,10.34,6.43,1.31,2.18,1.27,4.36,0,6.53,2.63,1.29,5.28,3.04,6.25,5.9Zm-2.49,.03c-1.23-2.25-3.88-3.48-6.12-4.5-.69-.31-.72-1.33-.23-1.81,1.45-1.44,1.49-3.75,.65-5.53-1.77-3.75-6.83-4.92-10.6-4.96-3.61-.04-7.58,1.05-9.7,4.16,.31,.88-.63,2.04-1.65,1.42-2.03-1.23-4.71-1.22-6.66,.19-1.76,1.28-2.72,3.64-2.35,5.79,.15,.87-.51,1.63-1.42,1.42-2.9-.67-6.25,.29-8.1,2.71-1.76,2.3-2.01,5.85-.2,8.21,1.49,1.94,4.22,2.91,6.58,2.19,.76-.23,1.44-.63,2.23-.75,.83-.13,1.62,.05,2.34,.48,.66,.4,1.23,.95,1.87,1.37,.51,.34,1.05,.63,1.6,.89,2.29,1.07,5.02,1.38,7.5,.96,1.31-.23,2.59-.62,3.77-1.24,1.23-.65,2.15-1.57,3.26-2.37,1.54-1.11,3.02-.45,4.58,.21,1.13,.48,2.36,.72,3.59,.73,2.42,.01,4.9-.83,6.74-2.42,1.96-1.68,3.7-4.6,2.31-7.14Z"/></g></g></g></pattern></defs><rect id="_a_bc" data-name="6a_bc" class="cls-2" width="500" height="500"/><rect id="__bc_pattern" data-name="7_bc_pattern" class="cls-6" width="500" height="500"/></svg>