<?xml version="1.0" encoding="UTF-8"?><svg id="Background" xmlns="http://www.w3.org/2000/svg" xmlns:xlink="http://www.w3.org/1999/xlink" viewBox="0 0 500 500"><defs><style>.cls-1{fill:none;}.cls-2{fill:url(#linear-gradient);}.cls-3{fill:#4d4d4d;}.cls-4{fill:url(#New_Pattern_6);}</style><linearGradient id="linear-gradient" x1="250" y1="500" x2="250" y2="0" gradientTransform="matrix(1,0,0,1,0,0)" gradientUnits="userSpaceOnUse"><stop offset="0" stop-color="#caedc1"/><stop offset="1" stop-color="#8de8f1"/></linearGradient><pattern id="New_Pattern_6" data-name="New Pattern 6" x="0" y="0" width="224.48" height="132.59" patternTransform="translate(-27 -2)" patternUnits="userSpaceOnUse" viewBox="0 0 224.48 132.59"><g><rect class="cls-1" x="0" y="0" width="224.48" height="132.59"/><g><g><path class="cls-3" d="M184.27,80.32c-3.05,.89-5.92,2.08-7.54,5.11-.39,.73-.85,1.42-1.3,2.1-3.13,4.68-4.9,9.72-4.91,15.46,0,3.78,1.02,7.25,2.18,10.72,.71,2.13,2.24,3.79,3.72,5.4,2.12,2.3,4.7,4.01,7.79,4.69,3.38,.75,6.81,1.21,10.29,1.16,.55,0,1.12-.04,1.63,.12,.99,.3,1.98,.24,2.94,.11,2.88-.39,5.72-1.02,8.54-1.75,1.74-.45,3.17-1.49,4.81-2.1,.34-.13,.44-.48,.64-.73,1.81-2.21,2.79-4.83,3.67-7.49,.84-2.55,1.96-5.04,1.69-7.84-.11-1.15-.11-2.31-.29-3.45-.34-2.16-.68-4.34-1.39-6.41-1.37-4.05-4.02-7.42-6.12-11.08-.94-1.63-2.29-2.46-3.99-3.3-1.16-.57-2.42-.68-3.7-.94-2.92-.6-5.89-.99-8.87-1.03-3.27-.05-6.54,.33-9.8,1.28Zm-4.92,18.43c2.84,.9,5.74,1.52,8.74,1.49,3.69-.03,7.37-.05,11.06-.1,5.61-.07,11-1.34,16.27-3.12,.86-.29,1-.07,1.2,.67,.85,3.11,1.07,6.28,.97,9.48-.02,.6-.04,1.2-.23,1.79-.87,2.78-1.82,5.54-3,8.19-1.32,2.95-3.69,4.7-6.93,5.17-1.31,.19-2.5,.76-3.75,1.14-3.5,1.04-7.07,.82-10.64,.7-3.04-.11-5.97-.76-8.93-1.4-2.93-.63-5.21-2.28-7.25-4.33-.85-.85-1.59-1.82-2.34-2.77-.87-1.09-1.49-2.3-1.59-3.73-.02-.32-.07-.67-.2-.96-1.47-3.32-1.6-6.8-1.27-10.35,.15-1.64,.27-3.28,.86-5.03,2.36,1.27,4.62,2.38,7.04,3.15Zm32.41-1.41c-3.34,1.18-6.78,1.71-10.31,1.93-4.34,.26-8.67,.21-13.01,.28-4.08,.07-7.93-1.05-11.63-2.66-1.17-.51-2.53-.76-3.5-1.89,1.62-.88,3.35-.84,5.02-1.03,1.69-.19,3.4-.2,5.1-.2,4.72-.02,9.44,.13,14.16,.21,3.66,.06,7.34,.43,10.96,1.08,1.29,.23,2.61,.33,3.92,.47,.76,.08,1.5,.22,2.46,.64-1.14,.74-2.19,.83-3.16,1.17Zm-34.77-10.94c.23,.32,.41,.47,.46,.66,.5,1.94,2.1,2.79,3.74,3.1,4.54,.87,9.13,1.4,13.77,.91,2.84-.3,5.7-.47,8.5-1.08,1.91-.41,3.66-1.15,5.36-2.07,.56-.3,.96-.74,1.08-1.38,.07-.38,.16-.74,.69-1.05,1.58,3.3,4.12,6.05,5.25,9.6-.72,.37-1.25-.12-1.83-.19-3.82-.44-7.65-.8-11.46-1.33-4.5-.62-9.01-.21-13.51-.42-3.46-.16-6.91-.07-10.36,.03-1.65,.05-3.27,.41-4.88,.76-.25,.06-.52,.21-.87-.06,.84-2.72,2.64-4.93,4.06-7.5Zm21.97-6.41c2.99,.25,5.79,1.03,8.52,2.32,1.67,.79,2.17,2.03,1.68,3.86-.42,1.56-1.88,1.77-3.19,2.32-1.67,.69-3.44,1.11-5.23,1.36-3.42,.48-6.88,.78-10.34,.68-2.9-.08-5.81-.32-8.66-.91-.83-.17-1.56-.55-2.24-1.01-1.93-1.29-1.82-4.1,.12-5.39,2.66-1.77,5.73-2.75,8.9-3.06,1.77-.17,3.57-.51,5.36-.54,.08,0,.15,0,.23,0,1.61,0,3.26,.26,4.86,.39Z"/><path class="cls-3" d="M214.41,107.77c.35,.46,.21,1.01,.12,1.51-.59,3.05-1.87,5.84-3.25,8.6-.14,.28-.24,.72-.67,.46-.31-.19-.27-.57-.11-.9,.35-.68,.7-1.37,1.06-2.04,1.17-2.2,1.95-4.53,2.35-6.99,.03-.2,.15-.4,.25-.59,.01-.03,.1-.02,.25-.04Z"/><path class="cls-3" d="M175.43,99.32c-.68,1.36-.57,2.85-.82,4.28-.15,.85-.16,1.74,.26,2.56,.1,.19,.22,.41,.19,.59-.03,.26-.21,.51-.51,.57-.28,.05-.41-.2-.45-.38-.15-.69-.38-1.4-.35-2.08,.06-1.25,.14-2.5,.37-3.74,.15-.8,.48-1.4,1.29-1.79Z"/><path class="cls-3" d="M177.08,103.28c.04,.28,.13,.5,.1,.71-.03,.21-.19,.42-.44,.38-.14-.02-.31-.12-.38-.23-.36-.61-.12-2.96,.35-3.47,.11-.12,.27-.18,.44-.1,.24,.11,.3,.3,.23,.53-.25,.73-.29,1.49-.3,2.18Z"/><path class="cls-3" d="M210.02,115.18c-.21,1.05-.71,2.03-1.21,3-.08,.16-.32,.15-.43,.05-.1-.1-.21-.32-.16-.43,.38-.97,.78-1.93,1.2-2.89,.03-.06,.19-.1,.29-.1,.21,0,.25,.17,.31,.37Z"/><path class="cls-3" d="M190.15,81.59c-3.03,.06-5.98,.66-8.88,1.52-.48,.14-.9,.41-1.3,.7-1.05,.77-1.54,2.28-.2,3.32,1.68,1.32,3.54,2.19,5.71,2.25,2.41,.07,4.82,.13,7.24-.05,1.81-.13,3.61-.4,5.41-.43,2.43-.03,4.79-.41,7.16-.91,.89-.19,1.67-.58,2.33-1.16,.77-.67,.91-1.61,.23-2.16-1.13-.92-2.14-2.07-3.69-2.35-2.64-.48-5.26-1.07-8.15-1.13-1.84-.28-3.83,.35-5.86,.39Zm-8.7,5.71c-.73-.45-1.7-.83-1.57-1.89,.13-1.07,1.06-1.45,2-1.7,2.93-.8,5.92-1.25,8.94-1.39,1.7-.08,3.39-.33,5.1-.3,2.6,.05,5.12,.56,7.65,1.08,1.23,.26,2.2,.98,3.1,1.79,.74,.67,.67,1.15-.19,1.68-1.55,.95-3.33,1.13-5.07,1.3-3.82,.36-7.66,.64-11.49,.91-.82,.06-1.65-.04-2.83-.07-1.8,.19-3.81-.26-5.64-1.4Z"/></g><g><path class="cls-3" d="M205.97,101.5c-.48,.57-1.04,1.05-1.77,1.26-.27,.08-.52,.21-.72,.39-.4,.33-.86,.52-1.33,.72-.18,.07-.35,.14-.52,.23-.16,.09-.37,.16-.36,.39,0,.21,.2,.26,.35,.33,1.31,.62,2.53,1.47,4.01,1.66,.28,.04,.41,.16,.36,.46-.05,.35-.07,.71-.11,1.07-.02,.16-.01,.31,.16,.37,.2,.07,.23-.1,.3-.23,.1-.18,.23-.43,.46-.23,.28,.23,.35,.1,.42-.14,.07-.26,.19-.51,.51-.43,.31,.08,.37-.03,.38-.3,.02-.43,.22-.68,.67-.78,.41-.09,.8-.25,1.21-.37,.67-.2,1.33-.44,1.88-.89,.37-.3,.68-.27,1.02-.01,.53,.39,1.16,.34,1.76,.42,.24,.03,.35-.1,.36-.33,.02-.44-.06-.85-.36-1.18-.22-.24-.2-.43,.04-.64,.34-.31,.48-.74,.61-1.16,.12-.36-.06-.58-.44-.52-.87,.14-1.71,.42-2.34,1.03-.37,.35-.63,.4-1.02,.19-.18-.1-.4-.12-.53-.29,0-.16,.13-.23,.19-.33,.16-.3,.12-.47-.2-.51-.69-.08-1.34-.36-2.03-.44-.3-.04-.64,.08-.81-.3-.02-.04-.12-.07-.17-.05-.42,.17-.67,0-.78-.47-.48,.36-.84,.73-1.18,1.13Zm-.14,.59l.03,.02c.15-.45,.51-.75,.86-1.05,.05-.04,.14-.1,.16-.09,.31,.3,.8,.05,1.1,.34,.14,.14,.29,.14,.46,.14,.72-.02,1.39,.26,2.1,.37,.12,.02,.29,.09,.24,.23-.05,.17-.15,.36-.4,.32-.5-.08-1.01-.11-1.5-.22-1.01-.22-2.01-.22-3.02-.05l-.02-.02Zm3.63,3.64c-.76,.26-1.55,.41-2.35,.51-.79,.1-1.6,0-2.51-.39,.13-.32,.42-.51,.62-.83,.61,.77,1.37,.77,2.18,.54,.26-.07,.53-.13,.8-.19,.15-.03,.29-.07,.29-.27,0-.2-.09-.35-.3-.34-.56,.03-1.08-.18-1.62-.26-.39-.05-.78-.13-1.18,.13-.07-.4,.17-.77-.23-1.04-.03,.28-.05,.52-.07,.76-.04,.62-.47,.95-.93,1.27-.1,.07-.21,.02-.3-.02-.74-.35-1.48-.71-2.23-1.08,.06-.21,.2-.25,.33-.31,.48-.21,.97-.42,1.45-.63,.08-.03,.19-.04,.23-.1,.37-.53,.98-.62,1.51-.85,.85-.37,1.75-.47,2.67-.33,.84,.12,1.68,.2,2.5,.39,.81,.19,1.55,.5,2.17,1.09-.67,1.24-1.88,1.56-3.04,1.95Zm3.06-2.33c-.19-.16-.16-.26-.03-.41,.58-.69,1.35-.99,2.21-1.11,.17-.02,.32,.05,.25,.25-.16,.42-.24,.92-.78,1.07-.27,.08-.25,.26-.13,.44,.09,.14,.22,.25,.34,.37,.14,.14,.22,.3,.24,.5,.05,.43-.03,.51-.48,.48-.61-.03-1.14-.23-1.68-.64,.61-.46,.62-.48,.07-.96Zm-6.26,1.98c-.27-.05-.63-.14-.61-.42,.02-.29,.4-.22,.64-.23,.57,0,1.08,.27,1.63,.38-.56,.16-1.08,.38-1.66,.27Zm-.01,1.51c.04-.24,.18-.35,.44-.35,.34,0,.4,.06,.37,.4-.02,.29,0,.6-.47,.49-.13-.03-.17,.24-.36,.2-.07-.25-.02-.5,.02-.74Zm1.4,.11c-.12,0-.27-.04-.26-.2,0-.23,.17-.32,.38-.32,.1,0,.14,.06,.13,.17-.06,.13-.01,.35-.25,.35Z"/><path class="cls-3" d="M204.37,104.17c-.01-.17-.3-.39-.51-.38-.23,0-.52,.24-.47,.41,.06,.23,.26,.31,.44,.33,.29,0,.55-.17,.54-.35Zm-.48,.06s-.07-.03-.11-.05c.03-.02,.07-.06,.1-.06,.03,0,.07,.03,.1,.05-.03,.02-.07,.06-.1,.06Z"/><path class="cls-3" d="M208.22,103.88c.02-.25,.08-.49,.05-.75,.4,.31,.4,.37-.05,.75Z"/><path class="cls-3" d="M209.44,105c.1-.23,.21-.44,.29-.71,.18,.44,.15,.52-.29,.71Z"/><path class="cls-3" d="M207.38,103.87c-.09-.28,.05-.52-.09-.72-.03-.05,.02-.11,.09-.13,.08-.02,.13,.04,.15,.09,.12,.26,.12,.5-.15,.76Z"/><path class="cls-3" d="M210.8,103.16c.13,.04,.24,.13,.2,.31-.01,.05-.09,.12-.13,.11-.17-.03-.23-.17-.23-.33,0-.06,.06-.11,.16-.1Z"/><path class="cls-3" d="M212.03,103.83c0,.08-.06,.16-.18,.15-.13,0-.14-.12-.15-.22,0-.11,.01-.21,.15-.19,.1,.02,.17,.1,.17,.26Z"/><path class="cls-3" d="M206.68,103.45c-.26-.24-.2-.43-.21-.68,.33,.17,.27,.37,.21,.68Z"/><path class="cls-3" d="M205.93,103.8c-.01,.07-.04,.14-.11,.13-.16-.03-.13-.19-.17-.3-.02-.07,.03-.13,.1-.11,.15,.03,.19,.15,.18,.29Z"/><path class="cls-3" d="M210.28,105.04c-.03,.08,0,.2-.14,.17-.07-.01-.08-.08-.08-.15,0-.08,0-.19,.11-.2,.12,0,.1,.1,.11,.17Z"/><path class="cls-3" d="M209.59,103.58c-.22-.11-.18-.27-.12-.42,0-.02,.09-.03,.1,0,.12,.14,.11,.28,.02,.43Z"/><path class="cls-3" d="M210.88,104.65c-.12-.04-.11-.15-.1-.24,0-.08,.05-.16,.15-.14,.13,.02,.14,.13,.12,.24-.01,.08-.07,.14-.17,.15Z"/><path class="cls-3" d="M205,103.34c-.1-.02-.13-.12-.13-.23,0-.07,.04-.12,.11-.11,.12,.02,.19,.09,.17,.22,0,.06-.04,.12-.15,.12Z"/><path class="cls-3" d="M208.88,104.34s-.04,.12-.08,.13c-.09,.02-.16-.04-.16-.13,0-.05,.04-.14,.07-.15,.09-.03,.14,.04,.16,.15Z"/><path class="cls-3" d="M213.99,102.86c-.33-.12-.55,.28-.92,.19,.36-.36,.8-.48,1.22-.62,.12-.04,.24,.07,.17,.16-.1,.15-.17,.46-.48,.27v-.02l.02,.02Z"/><path class="cls-3" d="M213.27,104.17c.33-.04,.66-.06,.89,.41-.38-.1-.66-.19-.89-.41Z"/></g><path class="cls-3" d="M197.42,108.38c-.05-.61-.93-1.44-1.5-1.4-.6,.04-1.51,1.08-1.49,1.7,.03,.78,.54,1.22,1.38,1.2,.88-.02,1.67-.76,1.61-1.5Zm-2.47,.38c-.06-.58,.46-1.16,.98-1.15,.47,0,.97,.47,.97,.9,0,.46-.5,.87-1.22,.89-.35,.02-.68-.15-.73-.64Z"/><path class="cls-3" d="M195.76,103.84c-.5-.03-.98,.27-1,.62-.03,.54,.31,.95,.82,.99,.54,.05,1.18-.36,1.2-.77,.02-.36-.54-.82-1.03-.85Zm.39,.83c0,.22-.21,.31-.43,.3-.22,0-.41-.13-.41-.34,0-.21,.2-.32,.4-.32,.24,.04,.44,.14,.44,.35Z"/><path class="cls-3" d="M196.86,106.14c.01,.41,.12,.82,.68,.79,.47-.02,.87-.21,1.03-.67,.1-.3-.56-.78-1.17-.8-.33,0-.56,.27-.55,.68Zm.54,0c.02-.12,.15-.19,.25-.14,.09,.04,.19,.14,.21,.24,.04,.13-.08,.18-.2,.2-.17-.02-.29-.12-.27-.3Z"/><path class="cls-3" d="M198.53,102.62c-.33-.02-.58,.11-.57,.47,0,.38,.13,.74,.61,.77,.44,.03,.68-.2,.72-.65-.01-.49-.37-.56-.75-.58Zm.11,.67v-.08l.09,.05-.09,.03Z"/><g><path class="cls-3" d="M183.44,116.93s-.03,0-.03,0c0-.01,0-.03-.01-.04-.08,.02-.16,0-.23-.04-.35-.13-.57-.42-.82-.67-.52-.52-.76-1.13-.66-1.88,.04-.27,.03-.54-.03-.82-.07-.37-.2-.75-.06-1.14,.02-.06,.02-.16-.12-.2-.15,.92-.32,1.83-.42,2.75-.1,.95,.29,1.65,.98,2.24,.18,.15,.39,.24,.6,.31,.25,.08,.4,.36,.67,.37,.41,.02,.63,.26,.84,.57,.2,.29,.42,.57,.71,.8,.28,.22,.37,.22,.56-.05,.24-.34,.32-.73,.36-1.14,.09-.77,.38-1.43,.92-2.01,.19-.21,.46-.36,.57-.63h0l-.27-.25c.09,.58-.43,.7-.65,1.04-.26,.4-.47,.81-.68,1.23-.07,.15,.07,.45-.09,.58-.15,.12-.18,.21-.09,.35,.22,.37-.14,.12-.21,.2,.03,.2,.26,.44-.1,.61-.23-.99-.08-1.89,.48-2.75,.46-.69,1.09-1.23,1.6-1.88,.25-.31,.54-.59,.82-.89,.13,.45,.12,.48-.23,.85-.13,.14-.1,.36-.19,.53h0c.48-.27,.64-.71,.66-1.22,.01-.27,.02-.55,.02-.83,0-.08,.04-.2-.12-.24-.1,.33-.13,.69-.38,.97-.51,.56-1.03,1.12-1.53,1.69-.55,.62-1.05,1.27-1.26,2.1-.02,.08-.04,.16-.19,.15,0-.66-.38-1.3-.04-1.98,.02-.04,0-.1,0-.14,0-.49,.13-.96,.3-1.41,.17-.47,.3-.97,.27-1.47-.04-.62-.06-1.22,.02-1.83,.03-.2,0-.41-.16-.59,.03,.64-.07,1.26-.18,1.88-.17,.97-.36,1.42-.68,1.73-.07-.62-.04-1.26-.2-1.87-.22-.87-.54-1.73-.58-2.64,0-.13,0-.3-.18-.37-.1,.15-.03,.29,0,.42,.13,.51,.15,1.03,.06,1.54-.15,.86-.23,1.73-.33,2.59-.07,.56-.12,1.13-.04,1.69,.04,.33,.18,.66,.12,1-.04,.29,.03,.54,.15,.79l.05,.04Zm1.72-4.03c0,.21,.17,.46-.18,.6-.09,.04,0,.2,.03,.31,.04,.1,.02,.2-.1,.23-.07,.02-.16-.16-.22,0-.02,.06,.06,.14,.08,.22,.04,.2,.19,.44-.19,.48-.09,0-.08,.08-.05,.15,.05,.14,.1,.27,.13,.41,.05,.21-.02,.25-.27,.18-.05,.17,.1,.26,.14,.39,.07,.19-.03,.3-.29,.31-.04,.17,.13,.2,.21,.29,.19,.22,.18,.31-.09,.52,.2,.14,.32,.27,.29,.58-.02,.2,.06,.51,.22,.73,.11,.16,.12,.33,.04,.54-.35-.14-.48-.47-.68-.72-.28-.35-.45-.78-.55-1.22-.06-.26-.06-.52,.03-.77,.27-.78,.52-1.56,.88-2.3,.19-.4,.33-.8,.43-1.23,.03-.12,.04-.25,.19-.38,.03,.27,.1,.5-.07,.71h.01Zm-1.96,1.76c.01-1.08,.16-2.15,.29-3.23,.02-.14,.04-.27,.23-.23,.15,.04,.22,.11,.12,.28-.06,.1,.04,.17,.1,.25,.08,.11,.34,.26-.03,.37-.09,.03-.01,.14,.04,.2,.08,.1,.22,.15,.23,.3,0,.1,.05,.25-.16,.14-.12-.06-.13,.05-.1,.13,.03,.09,.07,.18,.18,.21,.06,.01,.09,.08,.05,.1-.32,.17-.04,.31,.02,.46,.04,.08,.06,.18-.03,.21-.24,.08-.1,.18-.03,.28,.08,.12,.08,.12-.08,.25-.04,.03-.07,.07-.06,.11,.1,.51-.16,.94-.29,1.39-.05,.18-.13,.35-.19,.53,.06-.62-.28-1.16-.28-1.76Zm-1.65-.77c-.03,.18-.13,.36,0,.55,.11,.17-.25,.2-.11,.35,.1,.1,.14,.21,.16,.34,.01,.08,.05,.16-.02,.23-.1,.11-.03,.16,.07,.21,.17,.08,.24,.21,.18,.39-.01,.05-.03,.13,.02,.12,.36-.07,.3,.43,.6,.44,.04,0,.1,.07,.1,.09-.04,.28,.17,.23,.33,.27,.14,.03,.14,.07,.05,.22-.08,.12,.13,.19,.24,.12,.21-.14,.23-.1,.18,.13-.03,.17,.11,.09,.19,.08,.1,0,.15,.05,.15,.14,0,.08-.08,.08-.15,.08-.06,0-.14,.01-.19-.01-.71-.39-1.52-.65-1.91-1.47-.08-.18-.17-.34-.21-.54-.12-.67,.03-1.31,.13-1.97,.18,.06,.21,.15,.2,.22Zm2.19-3.08s.02,.1-.04,.12c-.08,.02-.11-.03-.11-.1,0-.08,0-.15,.01-.23h.07c.02,.07,.05,.14,.07,.22Zm-2.37,2.54s.02-.1,.04-.12c.04-.03,.09,0,.1,.05,.02,.07-.01,.12-.07,.15-.08,.02-.08-.03-.08-.08Z"/><path class="cls-3" d="M186.9,118.45c.29-.31,.83-.46,1.22-.25,.63,.33,1.28,.28,1.94,.19,.14-.02,.28-.06,.53,.04-.41,.06-.73,.15-1.04,.14-.49-.01-1,.04-1.46-.23-.29-.17-.62-.15-.93,0-.09,.04-.16,.12-.27,.1h0Z"/><path class="cls-3" d="M181.41,119.65c.07-.21,.29-.17,.44-.22,.23-.07,.48-.1,.67-.25,.21-.17,.43-.17,.68-.1,.34,.1,.66,.25,1.02,.26,0,.18-.12,.15-.2,.14-.14-.03-.28-.08-.41-.14-.39-.17-.75-.22-1.14,.03-.32,.2-.71,.2-1.07,.29h0Z"/><path class="cls-3" d="M185.9,120.15c0-.1,.05-.15,.14-.16,.21-.02,.42-.03,.62,.05,.54,.21,1.1,.35,1.68,.38,.07,0,.12,.03,.17,.14-.51-.02-.99-.09-1.46-.25-.21-.07-.42-.16-.64-.22-.17-.04-.35-.05-.51,.05h0Z"/><path class="cls-3" d="M187.76,119.14c.19,.07,.26,.21,.2,.4-.04,.13-.37,.16-.51,.06-.06-.05-.11-.11-.17-.17-.08-.09-.08-.18,.02-.24,.14-.09,.16,.01,.15,.12,0,.07,.04,.12,.09,.16,.05,.04,.12,.07,.18,.04,.09-.04,.09-.12,.04-.2-.04-.05-.08-.1,0-.17Z"/><path class="cls-3" d="M186.31,121.36c.13,.08,.14,.17,.03,.27-.13,.11-.3,.16-.45,.06-.13-.08-.12-.22-.05-.35,.06-.12,.16-.16,.28-.1,.07,.03,.13,.08,.2,.13-.05,0-.09-.02-.14-.01-.09,0-.2-.01-.23,.11,0,.02,0,.06,.03,.08,.09,.07,.18,.04,.26-.02,.06-.04,.07-.1,.07-.17Z"/><path class="cls-3" d="M182.04,118.1c-.1,.35-.35,.5-.56,.33-.07-.05-.1-.13-.05-.21,.04-.06,.14-.08,.16-.04,.21,.37,.29-.05,.44-.08Z"/><path class="cls-3" d="M187.67,114.94c-.06,.2-.17,.35-.39,.39h0c.18-.15,.02-.42,.19-.63,.07,.11,.11,.2,.2,.25h0Z"/><path class="cls-3" d="M185.52,120.18c-.26,.23-.54,.41-.9,.45,.29-.16,.56-.39,.91-.44h0Z"/><path class="cls-3" d="M188.98,119.5c.15,.05,.22,.03,.23-.07,.01-.1,.05-.1,.12-.05,.06,.06,.11,.13,.03,.2-.1,.09-.22,.14-.35,.09-.06-.02-.13-.06-.12-.13,.02-.15,.1-.04,.1-.05Z"/><path class="cls-3" d="M181.41,119.65l-.51,.03c.17-.09,.34-.07,.51-.03h0Z"/><path class="cls-3" d="M182.37,120.44c.07,.03,.07,.09,.05,.15-.02,.05,.01,.14-.09,.12-.07-.02-.1-.07-.08-.14,.01-.06,.05-.11,.12-.12Z"/><path class="cls-3" d="M186.89,118.44s-.03,.08-.06,.11c-.04,.04-.1,.11-.15,.04-.04-.06,.03-.1,.09-.12,.04-.01,.09,0,.13-.01h0Z"/><path class="cls-3" d="M185.53,120.19c.1-.17,.24-.07,.37-.04h0c-.12,.01-.25,.02-.37,.03h0Z"/><path class="cls-3" d="M185.16,112.89h0Z"/></g><g><path class="cls-3" d="M200.25,112.19c-.09,.24,.04,.59-.23,.72-.27,.13-.53-.12-.81-.17-.27-.05-.34-.22-.22-.46,.07-.14,.16-.29,.29-.37,.32-.21,.61-.47,.99-.6,.31-.11,.63-.24,.85-.52,.06-.07,.12-.14,.02-.22-.06-.05-.14-.03-.19,.02-.31,.33-.75,.45-1.12,.68-.51,.33-1.07,.62-1.23,1.3-.19-.03-.36-.07-.53-.1-.29-.06-.59-.13-.88-.16-.89-.11-2.03,.49-2.52,1.66-.13,.33-.31,.63-.57,.8-.48,.31-.56,.68-.4,1.19,.07,.23,.13,.41,.41,.49,.54,.16,1.06,.4,1.48,.79,.18,.17,.38,.31,.59,.43,.3,.18,.33,.24,.15,.53-.17,.26-.29,.53-.2,.84,.07,.25,.21,.48,.23,.75,0,.05,.04,.1,.1,.1,.08,0,.16-.03,.16-.1,.03-.31,.26-.49,.42-.71,.17-.24,.25-.5,.19-.8-.02-.12-.11-.23,0-.37,.47,0,.91-.2,1.33-.4,.3-.14,.54-.08,.75,.16,.07,.08,.12,.17,.2,.25,.07,.08,.2,.08,.22,0,.05-.26,.41-.45,.18-.78-.16-.24-.05-.42,.18-.57,.38-.25,.78-.49,1.1-.82,.37-.37,.82-.45,1.27-.56,.1-.03,.21-.03,.31,.04,.23,.16,.5,.22,.71,.44,.24,.24,.56,.43,.87,.59,.27,.14,.6,.16,.85-.06,.23-.2,.34-.45,.26-.79-.11-.47-.45-.7-.8-.94-.34-.24-.35-.28-.09-.61,.08-.1,.16-.19,.23-.29,.13-.21,.3-.4,.33-.66,.03-.28-.1-.47-.32-.62-.2-.14-.37-.05-.53,.07-.18,.14-.37,.27-.53,.44-.33,.34-.61,.73-1.03,.98-.23,.14-.45,.17-.69,.04-.36-.2-.75-.31-1.13-.45-.54-.19-.55-.21-.42-.77,.11-.44,.27-.86,.41-1.28-.4,.32-.51,.54-.64,.88Zm3.37,3.16c-.04-.12-.11-.12-.23-.12-.3,0-.37-.12-.28-.41,.02-.08,.06-.17,.05-.25-.01-.1-.1-.14-.2-.14-.08,0-.13,.05-.11,.13,.06,.24-.03,.27-.28,.28-.58,.02-1.06,.32-1.49,.69-.16,.14-.3,.29-.5,.37h.01c-.95,.73-1.89,1.51-3.14,1.72-.17,.03-.35,.11-.44-.12-.02-.06-.04-.07-.11-.06-.53,.08-.8-.03-1.21-.49h.01c-.12,.03-.19-.06-.27-.13-.35-.27-.68-.57-1.15-.61-.13-.01-.25-.07-.26-.22,0-.17,.14-.18,.26-.2h.05c.12-.03,.28-.05,.25-.21-.03-.17-.19-.11-.3-.07-.12,.04-.24,.1-.33-.04-.1-.17,.04-.26,.15-.34,.34-.26,.59-.57,.7-1.02,.07-.29,.28-.56,.55-.74h0c.47-.65,1.11-.9,1.91-.82,.73,.08,1.43,.29,2.15,.43,.67,.14,1.27,.48,1.92,.72,.26,.09,.53,.2,.77,.33,.33,.17,.61,.07,.88-.12,.16-.11,.28-.27,.46-.35l.11-.12c.04-.1,.07-.22,.22-.19,0-.08,.06-.1,.13-.1-.04-.28,.2-.35,.35-.48-.06,.21-.23,.32-.36,.47l-.12,.1c-.03,.11-.1,.18-.22,.19,0,.07-.04,.11-.11,.12-.02,.25,.21,.23,.33,.32h0c.12-.03,.21-.08,.22-.22-.09-.03-.24-.04-.13-.18,.18-.23,.37-.45,.66-.55-.02-.07,0-.14,.05-.19,.05-.05,.09-.11,.17-.09,.08,.02,.1,.1,.11,.16,.02,.13,0,.24-.13,.32,0,.06-.04,.11-.11,.11-.16,.5-.52,.81-.96,1.07,.16,.08,.42-.21,.51,.14-.19,.11-.34-.08-.51-.05,0,.11,.04,.19,.17,.22,.26,.05,.51,.14,.76,.19,.2,.04,.34,.15,.49,.39-.41-.04-.66-.38-1.14-.37,.41,.24,.73,.42,1.04,.61,.24,.15,.24,.15,.06,.47-.31-.25-.56-.6-1.07-.69,.27,.22,.48,.38,.67,.55,.08,.07,.14,.18,.04,.27-.09,.07-.22,.04-.27-.07-.17-.33-.51-.46-.79-.66l.04,.13v-.01s-.03-.07-.04-.11Zm-7.31,3.38c.02-.08,.05-.18,.16-.13,.04,.02,.05,.12,.07,.18l.24-.23h-.01c-.06-.07-.11-.17-.22-.2h0c.04-.15,.13-.28,.28-.35,.38,.48,.28,.9-.3,1.2,0,.03,0,.08-.02,.09-.07,.02-.07-.04-.07-.09-.13-.13-.18-.28-.14-.46Zm3.32-1.66c.05,.05,.1,.17,.02,.24-.16,.15-.31,.1-.5-.1,.19-.08,.27-.32,.48-.14Z"/><path class="cls-3" d="M199.73,111.89c-.05,.21-.19,.36-.33,.51h.01c-.03-.24,.09-.41,.3-.53l.02,.02Z"/><path class="cls-3" d="M199.81,112.4s0-.07,.01-.1c.02-.06,.04-.15,.12-.13,.09,.03,.04,.11,.01,.16-.02,.04-.06,.07-.09,.11l-.05-.04Z"/><path class="cls-3" d="M199.86,112.44c-.01,.07-.04,.13-.12,.13-.01,0-.03-.02-.03-.03,0-.07,.02-.12,.1-.14l.05,.04Z"/><path class="cls-3" d="M199.71,111.87s.04-.06,.07-.04c.02,.02,0,.05-.04,.06l-.02-.02Z"/><path class="cls-3" d="M199.4,112.4v.04s-.03,0,.01-.03h-.01Z"/><path class="cls-3" d="M195.81,115.35c0-.27-.23-.51-.5-.51-.22,0-.48,.21-.49,.4,0,.23,.24,.43,.57,.44,.3,0,.43-.09,.43-.33Zm-.46-.09s-.05-.02-.02-.05c0,0,.03,0,.04,0,0,0,.01,.02,.02,.03-.01,0-.02,.02-.03,.02Z"/><path class="cls-3" d="M196.76,116.23c.2-.56,.09-1.06-.28-1.52-.09-.11-.13-.24-.32-.22-.08,.01-.13-.03-.13-.12,0-.11,.09-.14,.18-.15,.11-.01,.2,.04,.28,.12,.32,.34,.56,.72,.62,1.19,.04,.31-.07,.54-.35,.69h0Z"/><path class="cls-3" d="M196.75,116.22c-.12,.59-.58,.68-1.07,.74h.01c.02-.11,.04-.24,.18-.28,.34-.07,.58-.32,.88-.46h0Z"/><path class="cls-3" d="M199.53,115.22c.09-.18,.12-.26,.07-.31-.1-.1-.11-.18,.03-.22,.11-.03,.15,.07,.16,.15,.02,.1,.04,.21,.02,.31-.02,.11-.11,.2-.22,.16-.12-.04-.04-.14-.06-.1Z"/><path class="cls-3" d="M197.25,113.73c.46,.11,.58,.27,.38,.49-.06,.06-.22,.08-.18-.02,.11-.25-.18-.29-.2-.47Z"/><path class="cls-3" d="M197.32,114.64c.21,0,.28,.12,.32,.26,.02,.1,.03,.24-.1,.27-.17,.04-.13-.12-.14-.21,0-.11-.14-.17-.08-.32Z"/><path class="cls-3" d="M197.23,116.25c-.02-.24,.23-.34,.11-.53-.02-.04,.04-.09,.1-.07,.04,.02,.1,.05,.11,.09,.06,.24-.06,.38-.33,.52Z"/><path class="cls-3" d="M197.93,117.05c.12-.18,.32-.31,.23-.59,.18,.38,.18,.39-.23,.59Z"/><path class="cls-3" d="M196.83,113.71s.04,0,.05,.02c.1,.15,.11,.31,.04,.48,0,.02-.07,.03-.09,.02-.22-.15,.08-.35,0-.51Z"/><path class="cls-3" d="M196.72,113.35l-.23-.5c.35,.06,.43,.21,.23,.5Z"/><path class="cls-3" d="M204.71,113.16c-.06,0-.1,.04-.11,.11-.16,.04-.26,.21-.43,.21,.02-.23,.31-.3,.32-.54,.12,.02,.22,.08,.22,.22Z"/><path class="cls-3" d="M200.42,114.92c-.03-.13,.03-.22,.08-.26,.11-.09-.19-.33,.09-.3,.19,.03,.1,.26,.07,.4-.02,.09-.12,.12-.24,.16Z"/><path class="cls-3" d="M199.43,116c.1,.35,.12,.55-.22,.65l.22-.65Z"/><path class="cls-3" d="M198.87,114.17c-.03-.16-.02-.3,.1-.45,.22,.22,.05,.34-.1,.45Z"/><path class="cls-3" d="M197.98,113.57c-.06-.04-.11-.06-.11-.08,0-.13-.15-.24-.05-.38,.03-.05,.1-.03,.14,0,.16,.14,.12,.28,.03,.45Z"/><path class="cls-3" d="M198.43,115c.14,.1,.11,.24,.09,.37,0,.06-.06,.08-.12,.08-.06,0-.08-.06-.07-.11,.03-.11-.02-.24,.1-.34Z"/><path class="cls-3" d="M201.1,114.2q.22,.19,.1,.63c-.03-.29,.06-.49-.1-.63Z"/><path class="cls-3" d="M201.96,114.25c.15,.11,.22,.24,.04,.44l-.04-.44Z"/><path class="cls-3" d="M199.84,113.9l-.04-.51c.21,.22,.21,.36,.03,.5h.01Z"/><path class="cls-3" d="M200.48,115.37c.15,.16,.09,.36,.09,.55h.01c-.08-.02-.23,.03-.17-.14,.05-.13,.05-.25,.04-.39l.02-.02Z"/><path class="cls-3" d="M203.65,114.32v.12s-.06,.02-.09,.03c-.06,.02-.13,.08-.16,0-.03-.07,.04-.11,.11-.13,.05,0,.1,0,.15-.01Z"/><path class="cls-3" d="M195.34,113.4c.06-.02,.13-.03,.19-.05,.05-.01,.11-.02,.12,.03,.01,.09-.06,.11-.13,.1-.06-.01-.12-.06-.17-.09h0Z"/><path class="cls-3" d="M203.65,114.01s-.03,.06-.05,.09c-.03,.03-.07,.05-.11,.08,0-.01-.02-.04-.02-.04,.03-.04,.06-.08,.09-.1,.02-.02,.06,0,.09-.01h0Z"/><path class="cls-3" d="M197.02,116.99s-.06,.06-.09,.05c-.05,0-.06-.07-.03-.11,.03-.04,.07-.06,.12-.04,.04,.01,.05,.04,0,.1Z"/><path class="cls-3" d="M203.96,113.69c.01-.14,.09-.21,.22-.22-.02,.13-.09,.21-.22,.22Z"/><path class="cls-3" d="M195.84,113.61l-.04,.02s-.01-.03,0-.04c.03-.03,.05-.02,.04,.02Z"/><path class="cls-3" d="M199.83,113.89s-.02,.09-.03,.08c-.08-.07,0-.06,.04-.07h-.01Z"/><path class="cls-3" d="M203.66,114.02c0-.07,.03-.11,.1-.12h0c0,.05-.05,.09-.1,.11h0Z"/><path class="cls-3" d="M200.46,115.39s-.1-.03-.06-.08c.04-.05,.07,0,.08,.06l-.02,.02Z"/><path class="cls-3" d="M196.55,119.2h-.12c0-.15-.03-.32,.11-.44,.03,.15,.04,.29,0,.44Z"/><path class="cls-3" d="M196.76,118.55s.06,.03,.08,.06c.04,.06,.05,.16-.02,.17-.09,.02-.06-.09-.07-.14,0-.03,.01-.07,.02-.1h-.01Z"/></g><g><path class="cls-3" d="M180.73,106.1c.12,.59,.3,1.02,.83,1.23,.51,.21,.88,.17,1.28-.23,.21-.21,.39-.45,.6-.66,.2-.2,.46-.3,.69-.11,.32,.25,.71,.29,1.07,.42,1.06,.4,2.13,.77,3.25,.95,.47,.08,.94,.12,1.41,.12,1.24,0,2.43-.88,2.2-2.47-.14-.96-.8-1.68-1.59-2.24-.67-.47-1.38-.63-2.19-.4-.43,.12-.55,.04-.78-.43-.22-.44-.23-.46-.6-.12-.5,.46-1.16,.65-1.69,1.07-.15,.12-.37,.1-.56,.11-.24,.01-.33,.13-.19,.33,.14,.2,.04,.25-.1,.39-.64,.65-1.39,.69-2.2,.48-.32-.08-.6-.12-.92,.05-.45,.23-.63,.56-.57,1.04,.02,.19,.04,.38,.06,.48Zm6.57-3.54c-.13,.11-.31,.06-.46,.13,.04,.12,.21,.24,.02,.38-.03,.02-.11,.03-.12,.01-.07-.13,.07-.21,.08-.33,0-.02,.02-.04,.03-.05,.13-.09,.27-.18,.44-.12,0,.02,0,.04,0,.05,.04,.05,.03,.07,0,.04-.02-.02,0-.07,0-.11Zm-4.27,3.8l-.11,.17c-.06,.11-.11,.23-.19,.33-.49,.62-1.14,.38-1.46-.07-.18-.26-.26-.54-.28-.84-.09-1,.5-1.29,1.23-1.09,.1,.03,.21,.07,.31,.07,.64,.05,1.28,.12,1.79-.43,.28-.29,.66-.45,1.04-.62,1.04-.45,2.15-.69,3.23-.99,.5-.14,1.01-.07,1.49,.21,.62,.37,1.14,.85,1.5,1.46,.35,.6,.44,1.25,.08,1.9-.08,.14-.16,.26-.34,.22-.4-.09-.81,.07-1.21-.09-.13-.05-.25-.07-.35,.1,.36,.48,.91,.28,1.47,.36-.44,.28-.8,.52-1.27,.51-1.89-.05-3.63-.68-5.36-1.36-.08-.03-.18-.06-.18-.15,0-.2-.13-.14-.25-.17-.51-.13-.77,.29-1.12,.49Zm2.89-3.1c.12-.15,.26-.17,.45-.13-.15,.14-.28,.18-.45,.13Z"/><path class="cls-3" d="M188.04,105.25c-.63-.36-1.3-.58-2-.65-.55-.05-.82,.33-.69,.88,.23,.95,1.08,1.22,1.83,.58,.29-.24,.62-.45,.85-.82Zm-.47,.02c-.17,.3-.4,.42-.58,.59-.46,.43-.83,.38-1.2-.16-.12-.17-.28-.35-.14-.58,.14-.24,.36-.26,.61-.23,.44,.07,.85,.24,1.32,.37Z"/><path class="cls-3" d="M181.35,105.59c.16,.19,.34,.4,.47,.28,.16-.15,.25-.19,.42-.06-.18,.23-.56,.19-.69,.49,.61,.08,.87-.03,1.26-.56-.06-.17-.29-.07-.36-.21,.07-.22,.32,.03,.41-.15q-.48-.26-1.51,.21Z"/><path class="cls-3" d="M190.82,106.01c.24-.05,.47-.09,.43-.39-.03-.22-.27-.34-.56-.29-.28,.05-.53,.31-.46,.51,.12,.32,.39,.16,.59,.16Z"/><path class="cls-3" d="M189.98,104.51c-.38-.03-.53,.13-.67,.33-.17,.25-.31,.51-.37,.8,0,.04,.06,.11,.11,.13,.1,.03,.16-.04,.18-.13,.08-.46,.39-.78,.74-1.14Z"/><path class="cls-3" d="M182.93,106.54l.1-.16c-.04-.14-.12-.24-.27-.16-.15,.08-.29,.18-.42,.28-.16,.13-.47,.27-.33,.46,.2,.28,.27-.18,.47-.2,.15-.02,.3-.15,.44-.23Z"/><path class="cls-3" d="M188.61,105.58s.08-.07,.09-.12c.04-.29,.07-.58,.24-.84,.03-.05,.01-.13-.05-.16-.06-.03-.13-.02-.17,.03-.22,.3-.26,.65-.28,1.01,0,.05,.07,.1,.17,.08Z"/><path class="cls-3" d="M188.91,106.25c-.02,.36,.16,.57,.21,.82,.02,.09,.09,.14,.19,.11,.11-.03,.12-.12,.08-.2-.11-.24-.14-.53-.48-.73Z"/><path class="cls-3" d="M188.71,107.1s.04-.04,.03-.05c-.09-.27-.18-.54-.29-.84-.17,.46-.15,.52,.25,.89Z"/><path class="cls-3" d="M188.02,106.43c-.14-.13-.23-.08-.23,.09,0,.27,.15,.47,.4,.65,.15-.33-.36-.47-.16-.76h0Z"/><path class="cls-3" d="M188.03,106.41l.05,.04s0-.03-.01-.03c-.01,0-.03,0-.05,0h0Z"/><path class="cls-3" d="M186.79,105.49c.06-.01,.15,0,.17-.05,.06-.09-.04-.18-.1-.18-.27-.02-.54,0-.94,0,.29,.22,.45,.4,.28,.72,.36-.07,.52-.24,.59-.5-.04,0-.08,.03-.11,.01-.04-.02-.03-.06,.02-.07,.03,0,.06,.04,.09,.07Z"/></g></g><g><path class="cls-3" d="M37.89,78.24c-.83,.99-1.78,1.8-3.05,2.16-.46,.13-.89,.37-1.24,.66-.69,.57-1.48,.9-2.29,1.23-.3,.12-.61,.24-.9,.39-.28,.15-.63,.27-.62,.68,.01,.36,.34,.45,.59,.57,2.25,1.07,4.34,2.53,6.9,2.85,.49,.06,.7,.27,.62,.79-.09,.61-.12,1.22-.19,1.83-.03,.27-.02,.53,.27,.63,.35,.12,.4-.18,.52-.4,.16-.32,.4-.73,.79-.4,.48,.4,.6,.18,.72-.25,.13-.45,.32-.88,.88-.73,.53,.14,.64-.06,.66-.52,.03-.74,.38-1.17,1.16-1.35,.7-.16,1.38-.43,2.08-.64,1.15-.34,2.29-.77,3.22-1.52,.64-.52,1.17-.46,1.76-.02,.91,.67,1.99,.58,3.02,.72,.41,.06,.6-.17,.62-.56,.03-.75-.11-1.46-.63-2.03-.38-.42-.34-.74,.06-1.1,.59-.54,.82-1.28,1.06-2,.2-.62-.11-1.01-.75-.9-1.49,.25-2.95,.72-4.03,1.77-.63,.61-1.08,.68-1.76,.32-.31-.16-.69-.2-.91-.5,0-.27,.22-.39,.32-.57,.27-.51,.2-.81-.34-.87-1.19-.14-2.31-.61-3.49-.75-.52-.06-1.1,.15-1.39-.52-.03-.06-.21-.12-.29-.09-.73,.29-1.15-.01-1.34-.81-.82,.62-1.45,1.26-2.03,1.94Zm-.24,1.02l.06,.04c.27-.78,.87-1.29,1.47-1.8,.08-.07,.25-.17,.27-.15,.54,.51,1.37,.09,1.89,.59,.25,.24,.5,.24,.8,.24,1.24-.03,2.4,.45,3.61,.64,.2,.03,.49,.15,.42,.4-.09,.29-.25,.62-.68,.55-.86-.13-1.73-.2-2.58-.38-1.73-.37-3.46-.38-5.2-.08l-.04-.03Zm6.24,6.26c-1.31,.44-2.67,.7-4.04,.88-1.36,.18-2.75-.02-4.31-.68,.23-.54,.72-.87,1.07-1.43,1.04,1.32,2.35,1.32,3.74,.93,.45-.13,.92-.22,1.38-.32,.26-.06,.5-.12,.49-.46,0-.34-.16-.6-.51-.58-.97,.06-1.86-.32-2.79-.44-.67-.09-1.35-.22-2.03,.23-.12-.68,.29-1.32-.39-1.8-.05,.49-.09,.89-.12,1.3-.07,1.07-.82,1.64-1.6,2.18-.18,.12-.36,.04-.52-.03-1.27-.61-2.54-1.23-3.83-1.86,.1-.37,.34-.44,.56-.53,.83-.36,1.67-.73,2.5-1.09,.13-.06,.32-.07,.39-.17,.63-.92,1.69-1.06,2.6-1.46,1.47-.64,3.02-.8,4.59-.57,1.44,.21,2.89,.34,4.31,.67,1.4,.32,2.67,.86,3.73,1.87-1.16,2.13-3.24,2.68-5.23,3.35Zm5.27-4.01c-.32-.28-.27-.45-.05-.7,.99-1.18,2.31-1.71,3.8-1.9,.3-.04,.56,.09,.43,.42-.28,.73-.42,1.58-1.35,1.84-.47,.13-.43,.45-.23,.75,.16,.24,.39,.43,.59,.64,.24,.24,.38,.52,.41,.86,.08,.74-.06,.87-.83,.83-1.04-.05-1.97-.4-2.88-1.1,1.05-.79,1.07-.82,.11-1.65Zm-10.76,3.4c-.47-.09-1.08-.24-1.04-.73,.04-.49,.69-.39,1.09-.39,.98,0,1.86,.46,2.8,.66-.96,.27-1.86,.65-2.85,.46Zm-.02,2.6c.07-.41,.31-.6,.75-.6,.58,0,.69,.1,.64,.69-.04,.49-.02,1.03-.81,.85-.23-.05-.29,.41-.61,.35-.12-.43-.04-.86,.03-1.28Zm2.41,.19c-.21,0-.46-.07-.45-.34,.02-.39,.29-.54,.65-.55,.17,0,.24,.11,.23,.29-.1,.23-.02,.61-.43,.61Z"/><path class="cls-3" d="M35.13,82.82c-.02-.29-.52-.67-.88-.66-.4,.01-.89,.41-.81,.7,.1,.4,.44,.53,.76,.56,.5,0,.95-.3,.93-.6Zm-.82,.11c-.06,0-.12-.06-.18-.09,.06-.04,.12-.1,.18-.1,.06,0,.12,.06,.18,.09-.06,.04-.12,.1-.18,.1Z"/><path class="cls-3" d="M41.76,82.33c.04-.43,.14-.84,.08-1.29,.69,.54,.68,.64-.08,1.29Z"/><path class="cls-3" d="M43.85,84.25c.16-.4,.36-.76,.49-1.23,.31,.75,.25,.9-.49,1.23Z"/><path class="cls-3" d="M40.31,82.31c-.15-.48,.08-.89-.16-1.24-.06-.08,.04-.19,.16-.22,.13-.03,.22,.06,.26,.15,.21,.45,.2,.86-.26,1.31Z"/><path class="cls-3" d="M46.18,81.1c.22,.08,.42,.22,.34,.54-.02,.08-.16,.21-.22,.2-.29-.06-.4-.29-.39-.56,0-.1,.1-.18,.27-.17Z"/><path class="cls-3" d="M48.3,82.24c0,.13-.11,.27-.3,.26-.22,0-.24-.2-.25-.38-.01-.19,.02-.37,.26-.32,.18,.03,.3,.17,.29,.44Z"/><path class="cls-3" d="M39.1,81.59c-.44-.42-.35-.75-.37-1.16,.56,.29,.47,.64,.37,1.16Z"/><path class="cls-3" d="M37.81,82.19c-.02,.11-.07,.24-.19,.22-.27-.06-.23-.33-.29-.52-.04-.13,.06-.22,.18-.19,.26,.05,.33,.25,.3,.49Z"/><path class="cls-3" d="M45.29,84.32c-.04,.14-.02,.34-.24,.3-.12-.02-.15-.14-.14-.25,0-.14,0-.32,.19-.34,.21-.02,.17,.18,.19,.3Z"/><path class="cls-3" d="M44.1,81.81c-.38-.19-.31-.46-.21-.72,.01-.03,.15-.04,.18-.02,.21,.24,.19,.48,.03,.74Z"/><path class="cls-3" d="M46.32,83.65c-.21-.07-.19-.26-.18-.42,.01-.14,.08-.28,.26-.25,.23,.04,.24,.23,.21,.4-.02,.14-.12,.25-.29,.26Z"/><path class="cls-3" d="M36.21,81.4c-.17-.03-.22-.2-.23-.39,0-.12,.07-.21,.2-.19,.2,.04,.32,.16,.29,.38-.02,.11-.08,.2-.26,.2Z"/><path class="cls-3" d="M42.89,83.12c-.04,.06-.07,.2-.14,.22-.16,.04-.27-.07-.27-.22,0-.09,.06-.23,.13-.25,.16-.05,.24,.07,.28,.25Z"/><path class="cls-3" d="M51.67,80.58c-.57-.21-.94,.47-1.59,.32,.62-.62,1.37-.82,2.1-1.07,.21-.07,.41,.11,.29,.28-.18,.26-.29,.79-.83,.46l-.02-.03,.04,.04Z"/><path class="cls-3" d="M50.43,82.83c.57-.07,1.14-.1,1.52,.7-.66-.18-1.14-.32-1.52-.7Z"/></g><g><path class="cls-3" d="M194.52,43.04c-.16,.41,.07,1.01-.39,1.23-.46,.22-.92-.21-1.39-.3-.47-.09-.59-.39-.38-.8,.12-.24,.28-.5,.5-.63,.56-.36,1.05-.81,1.7-1.04,.53-.19,1.08-.42,1.46-.89,.1-.12,.2-.24,.04-.38-.11-.09-.24-.05-.32,.04-.54,.56-1.3,.77-1.93,1.17-.88,.56-1.84,1.07-2.11,2.24-.32-.06-.61-.12-.91-.17-.51-.09-1.01-.22-1.52-.28-1.53-.18-3.5,.84-4.33,2.86-.23,.56-.53,1.09-.98,1.38-.82,.54-.96,1.18-.69,2.04,.12,.39,.23,.7,.7,.84,.93,.28,1.81,.69,2.54,1.36,.32,.29,.66,.53,1.02,.75,.52,.31,.57,.41,.25,.91-.29,.45-.51,.91-.35,1.45,.13,.43,.37,.83,.4,1.3,0,.08,.06,.17,.18,.18,.14,.01,.27-.04,.28-.17,.05-.53,.45-.84,.73-1.23,.3-.41,.43-.87,.32-1.37-.04-.2-.19-.39-.01-.64,.81,0,1.56-.34,2.3-.68,.52-.24,.93-.15,1.29,.28,.12,.14,.21,.29,.34,.43,.12,.14,.35,.13,.38,0,.08-.45,.7-.77,.31-1.35-.27-.4-.09-.72,.3-.98,.65-.44,1.35-.85,1.9-1.4,.63-.63,1.4-.78,2.19-.97,.18-.04,.36-.05,.53,.06,.39,.27,.86,.39,1.22,.75,.42,.42,.96,.75,1.49,1.02,.47,.24,1.03,.28,1.46-.1,.4-.34,.59-.77,.45-1.36-.18-.8-.78-1.2-1.37-1.62-.58-.41-.59-.48-.15-1.05,.13-.17,.28-.32,.4-.5,.23-.35,.51-.68,.57-1.13,.06-.48-.17-.81-.55-1.06-.35-.24-.64-.08-.91,.12-.31,.24-.63,.46-.91,.75-.56,.59-1.05,1.26-1.78,1.68-.4,.23-.77,.3-1.19,.06-.61-.34-1.28-.54-1.94-.78-.92-.33-.95-.36-.72-1.32,.18-.75,.46-1.47,.7-2.21-.68,.55-.88,.93-1.11,1.52Zm5.79,5.43c-.07-.21-.19-.2-.4-.2-.52,0-.63-.21-.48-.71,.04-.14,.1-.29,.08-.43-.02-.17-.17-.24-.34-.23-.15,0-.22,.09-.19,.23,.1,.42-.06,.47-.47,.49-1,.03-1.82,.56-2.57,1.19-.28,.24-.52,.5-.87,.64l.02-.02c-1.64,1.28-3.25,2.61-5.39,2.98-.3,.05-.6,.2-.76-.21-.04-.1-.07-.12-.18-.1-.92,.14-1.38-.06-2.09-.85l.02,.02c-.21,.03-.32-.13-.47-.24-.6-.46-1.16-.97-1.97-1.05-.22-.02-.43-.13-.44-.38-.02-.3,.23-.3,.44-.34,.03,0,.06,0,.09-.01,.21-.03,.49-.07,.43-.34-.06-.3-.33-.19-.52-.12-.21,.07-.42,.17-.56-.07-.18-.29,.08-.44,.26-.58,.59-.46,1.01-.99,1.2-1.75,.13-.49,.47-.96,.94-1.28h-.02c.81-1.12,1.91-1.55,3.29-1.41,1.26,.13,2.46,.49,3.7,.74,1.15,.23,2.19,.83,3.3,1.23,.45,.16,.9,.34,1.33,.57,.57,.3,1.05,.12,1.52-.2,.27-.19,.47-.47,.79-.59l.19-.2c.06-.18,.11-.37,.37-.33,.01-.13,.1-.17,.22-.17-.07-.48,.34-.6,.61-.82-.1,.36-.4,.55-.62,.8l-.21,.17c-.05,.19-.17,.31-.38,.33,0,.11-.07,.19-.18,.21-.04,.42,.36,.39,.58,.56h-.01c.21-.05,.36-.15,.38-.38-.16-.05-.42-.07-.23-.32,.31-.39,.63-.78,1.13-.95-.03-.13,0-.24,.09-.33,.08-.08,.16-.19,.3-.15,.14,.04,.16,.17,.18,.28,.03,.22-.01,.42-.22,.55-.01,.11-.06,.18-.19,.19-.28,.85-.9,1.4-1.64,1.84,.27,.13,.72-.36,.87,.24-.33,.18-.58-.14-.87-.08,0,.2,.07,.33,.3,.37,.44,.09,.87,.24,1.31,.33,.35,.07,.59,.27,.84,.68-.71-.06-1.14-.64-1.96-.63,.7,.41,1.25,.72,1.79,1.05,.42,.25,.41,.26,.11,.81-.53-.43-.96-1.03-1.84-1.18,.47,.38,.82,.65,1.16,.94,.14,.12,.25,.32,.07,.46-.15,.12-.37,.07-.47-.11-.3-.57-.88-.79-1.35-1.14l.08,.23v-.02c-.03-.06-.05-.13-.07-.19Zm-12.56,5.81c.03-.14,.08-.31,.27-.23,.07,.03,.09,.2,.13,.31l.4-.4-.02,.02c-.1-.14-.19-.3-.37-.36h.01c.07-.26,.22-.48,.48-.61,.65,.83,.48,1.55-.51,2.07-.01,.05-.02,.15-.04,.15-.13,.03-.12-.07-.12-.15-.23-.22-.3-.48-.23-.79Zm5.71-2.85c.09,.08,.17,.29,.03,.41-.28,.25-.54,.18-.85-.16,.33-.14,.47-.55,.82-.24Z"/><path class="cls-3" d="M193.64,42.52c-.09,.36-.33,.62-.58,.87l.02,.02c-.05-.43,.16-.72,.52-.93l.04,.04Z"/><path class="cls-3" d="M193.77,43.38c0-.06,0-.11,.02-.17,.03-.11,.07-.26,.2-.22,.16,.04,.07,.18,.02,.27-.04,.07-.11,.12-.16,.19l-.08-.07Z"/><path class="cls-3" d="M193.85,43.46c-.02,.12-.06,.22-.2,.22-.02,0-.05-.04-.05-.06-.01-.13,.04-.21,.18-.23l.08,.07Z"/><path class="cls-3" d="M193.6,42.48c.02-.08,.07-.11,.11-.07,.04,.04,0,.09-.07,.11l-.04-.04Z"/><path class="cls-3" d="M193.06,43.39s0,.07,0,.07c-.06,0-.05-.02,.03-.06l-.02-.02Z"/><path class="cls-3" d="M186.9,48.46c0-.47-.4-.87-.87-.87-.38,0-.83,.37-.84,.69-.02,.4,.42,.73,.98,.75,.51,.01,.74-.16,.74-.57Zm-.79-.16c-.06,0-.08-.03-.04-.08,.01-.01,.05-.02,.07,0,.02,0,.02,.03,.03,.05-.02,.01-.04,.04-.06,.04Z"/><path class="cls-3" d="M188.53,49.98c.35-.96,.16-1.82-.49-2.61-.15-.19-.23-.42-.54-.37-.13,.02-.23-.05-.23-.21,0-.19,.15-.25,.3-.26,.2-.02,.35,.07,.48,.21,.55,.58,.96,1.23,1.06,2.05,.06,.53-.12,.93-.6,1.18h.02Z"/><path class="cls-3" d="M188.51,49.96c-.21,1.01-1,1.18-1.84,1.27l.02,.02c.03-.22,.07-.44,.32-.5,.58-.13,.99-.56,1.52-.78h-.02Z"/><path class="cls-3" d="M193.29,48.24c.15-.3,.2-.45,.12-.53-.17-.17-.19-.31,.05-.38,.19-.06,.25,.12,.28,.27,.03,.17,.06,.36,.03,.53-.03,.19-.2,.34-.38,.28-.21-.07-.07-.24-.1-.17Z"/><path class="cls-3" d="M189.36,45.67c.79,.19,1,.47,.65,.84-.1,.11-.38,.13-.3-.04,.18-.42-.31-.5-.34-.81Z"/><path class="cls-3" d="M189.49,47.23c.36,0,.48,.21,.54,.45,.04,.17,.04,.41-.17,.46-.29,.06-.23-.2-.23-.36,0-.18-.23-.28-.14-.54Z"/><path class="cls-3" d="M189.34,50.01c-.04-.42,.39-.59,.19-.92-.04-.06,.07-.16,.17-.12,.08,.03,.18,.09,.2,.16,.11,.41-.11,.65-.56,.89Z"/><path class="cls-3" d="M190.55,51.38c.2-.31,.55-.53,.39-1.01,.31,.65,.3,.67-.39,1.01Z"/><path class="cls-3" d="M188.65,45.63s.07,.01,.08,.03c.17,.26,.2,.54,.06,.82-.01,.03-.12,.05-.16,.03-.39-.26,.14-.59,.01-.88Z"/><path class="cls-3" d="M188.46,45.02l-.4-.87c.61,.1,.75,.36,.4,.87Z"/><path class="cls-3" d="M202.2,44.7c-.11,.01-.17,.07-.19,.18-.27,.08-.44,.36-.75,.37,.04-.4,.54-.52,.55-.93,.21,.04,.37,.13,.38,.38Z"/><path class="cls-3" d="M194.82,47.73c-.05-.23,.05-.37,.14-.45,.18-.16-.32-.57,.15-.51,.33,.05,.18,.44,.12,.69-.03,.16-.2,.2-.41,.28Z"/><path class="cls-3" d="M193.12,49.58c.16,.6,.21,.95-.37,1.11l.37-1.11Z"/><path class="cls-3" d="M192.16,46.43c-.06-.28-.04-.52,.17-.77,.38,.38,.08,.58-.17,.77Z"/><path class="cls-3" d="M190.62,45.41c-.1-.07-.19-.1-.19-.13,0-.22-.25-.42-.09-.65,.06-.08,.17-.05,.24,.01,.27,.24,.2,.49,.04,.77Z"/><path class="cls-3" d="M191.4,47.86c.24,.17,.18,.42,.16,.64-.01,.1-.1,.14-.2,.13-.1-.01-.14-.1-.12-.19,.04-.19-.03-.41,.16-.58Z"/><path class="cls-3" d="M196,46.49q.38,.33,.17,1.08c-.05-.5,.11-.84-.17-1.08Z"/><path class="cls-3" d="M197.46,46.57c.26,.19,.37,.41,.07,.76l-.07-.76Z"/><path class="cls-3" d="M193.82,45.97l-.07-.88c.36,.38,.36,.62,.05,.86l.02,.02Z"/><path class="cls-3" d="M194.92,48.49c.25,.28,.15,.62,.15,.94l.02-.02c-.14-.02-.4,.08-.29-.22,.09-.22,.09-.44,.07-.66l.04-.04Z"/><path class="cls-3" d="M200.38,46.69v.2c-.05,.02-.11,.04-.16,.06-.1,.04-.22,.14-.28-.02-.05-.13,.07-.2,.19-.22,.08-.01,.17-.02,.26-.02Z"/><path class="cls-3" d="M186.08,45.11c.11-.03,.22-.06,.33-.09,.08-.02,.2-.03,.21,.06,.03,.15-.11,.19-.22,.17-.11-.02-.2-.1-.3-.15h-.02Z"/><path class="cls-3" d="M200.37,46.16s-.04,.11-.08,.15c-.06,.05-.13,.09-.19,.14-.01-.03-.04-.06-.03-.07,.05-.06,.1-.13,.16-.17,.04-.03,.11-.01,.16-.02l-.02-.02Z"/><path class="cls-3" d="M188.98,51.28s-.1,.1-.16,.09c-.09-.01-.1-.12-.06-.19,.04-.08,.12-.1,.21-.07,.07,.03,.09,.07,0,.17Z"/><path class="cls-3" d="M200.9,45.61c.02-.24,.15-.36,.39-.39-.03,.23-.15,.37-.39,.39Z"/><path class="cls-3" d="M186.95,45.48l-.06,.03s-.02-.05-.01-.06c.05-.05,.08-.04,.08,.03Z"/><path class="cls-3" d="M193.8,45.96c.03,.07-.03,.15-.05,.13-.14-.13,0-.1,.07-.11l-.02-.02Z"/><path class="cls-3" d="M200.38,46.18c0-.12,.06-.19,.18-.21h-.01c-.02,.09-.08,.15-.18,.19l.02,.02Z"/><path class="cls-3" d="M194.88,48.54c-.08-.02-.18-.06-.1-.14,.07-.08,.13,.02,.15,.1l-.04,.04Z"/><path class="cls-3" d="M188.16,55.09h-.2c.02-.26-.05-.55,.2-.75,.04,.25,.07,.5,0,.75Z"/><path class="cls-3" d="M188.53,53.97s.11,.05,.14,.1c.07,.11,.08,.27-.04,.3-.16,.03-.1-.15-.11-.24-.01-.05,.02-.11,.03-.17l-.02,.02Z"/></g><g><g><g><path class="cls-3" d="M72.03,14.02c-3.05,.89-5.92,2.08-7.54,5.11-.39,.73-.85,1.42-1.3,2.1-3.13,4.68-4.9,9.72-4.91,15.46,0,3.78,1.02,7.25,2.18,10.72,.71,2.13,2.24,3.79,3.72,5.4,2.12,2.3,4.7,4.01,7.79,4.69,3.38,.75,6.81,1.21,10.29,1.16,.55,0,1.12-.04,1.63,.12,.99,.3,1.98,.24,2.94,.11,2.88-.39,5.72-1.02,8.54-1.75,1.74-.45,3.17-1.49,4.81-2.1,.34-.13,.44-.48,.64-.73,1.81-2.21,2.79-4.83,3.67-7.49,.84-2.55,1.96-5.04,1.69-7.84-.11-1.15-.11-2.31-.29-3.45-.34-2.16-.68-4.34-1.39-6.41-1.37-4.05-4.02-7.42-6.12-11.08-.94-1.63-2.29-2.46-3.99-3.3-1.16-.57-2.42-.68-3.7-.94-2.92-.6-5.89-.99-8.87-1.03-3.27-.05-6.54,.33-9.8,1.28Zm-4.92,18.43c2.84,.9,5.74,1.52,8.74,1.49,3.69-.03,7.37-.05,11.06-.1,5.61-.07,11-1.34,16.27-3.12,.86-.29,1-.07,1.2,.67,.85,3.11,1.07,6.28,.97,9.48-.02,.6-.04,1.2-.23,1.79-.87,2.78-1.82,5.54-3,8.19-1.32,2.95-3.69,4.7-6.93,5.17-1.31,.19-2.5,.76-3.75,1.14-3.5,1.04-7.07,.82-10.64,.7-3.04-.11-5.97-.76-8.93-1.4-2.93-.63-5.21-2.28-7.25-4.33-.85-.85-1.59-1.82-2.34-2.77-.87-1.09-1.49-2.3-1.59-3.73-.02-.32-.07-.67-.2-.96-1.47-3.32-1.6-6.8-1.27-10.35,.15-1.64,.27-3.28,.86-5.03,2.36,1.27,4.62,2.38,7.04,3.15Zm32.41-1.41c-3.34,1.18-6.78,1.71-10.31,1.93-4.34,.26-8.67,.21-13.01,.28-4.08,.07-7.93-1.05-11.63-2.66-1.17-.51-2.53-.76-3.5-1.89,1.62-.88,3.35-.84,5.02-1.03,1.69-.19,3.4-.2,5.1-.2,4.72-.02,9.44,.13,14.16,.21,3.66,.06,7.34,.43,10.96,1.08,1.29,.23,2.61,.33,3.92,.47,.76,.08,1.5,.22,2.46,.64-1.14,.74-2.19,.83-3.16,1.17Zm-34.77-10.94c.23,.32,.41,.47,.46,.66,.5,1.94,2.1,2.79,3.74,3.1,4.54,.87,9.13,1.4,13.77,.91,2.84-.3,5.7-.47,8.5-1.08,1.91-.41,3.66-1.15,5.36-2.07,.56-.3,.96-.74,1.08-1.38,.07-.38,.16-.74,.69-1.05,1.58,3.3,4.12,6.05,5.25,9.6-.72,.37-1.25-.12-1.83-.19-3.82-.44-7.65-.8-11.46-1.33-4.5-.62-9.01-.21-13.51-.42-3.46-.16-6.91-.07-10.36,.03-1.65,.05-3.27,.41-4.88,.76-.25,.06-.52,.21-.87-.06,.84-2.72,2.64-4.93,4.06-7.5Zm21.97-6.41c2.99,.25,5.79,1.03,8.52,2.32,1.67,.79,2.17,2.03,1.68,3.86-.42,1.56-1.88,1.77-3.19,2.32-1.67,.69-3.44,1.11-5.23,1.36-3.42,.48-6.88,.78-10.34,.68-2.9-.08-5.81-.32-8.66-.91-.83-.17-1.56-.55-2.24-1.01-1.93-1.29-1.82-4.1,.12-5.39,2.66-1.77,5.73-2.75,8.9-3.06,1.77-.17,3.57-.51,5.36-.54,.08,0,.15,0,.23,0,1.61,0,3.26,.26,4.86,.39Z"/><path class="cls-3" d="M102.17,41.48c.35,.46,.21,1.01,.12,1.51-.59,3.05-1.87,5.84-3.25,8.6-.14,.28-.24,.72-.67,.46-.31-.19-.27-.57-.11-.9,.35-.68,.7-1.37,1.06-2.04,1.17-2.2,1.95-4.53,2.35-6.99,.03-.2,.15-.4,.25-.59,.01-.03,.1-.02,.25-.04Z"/><path class="cls-3" d="M63.19,33.03c-.68,1.36-.57,2.85-.82,4.28-.15,.85-.16,1.74,.26,2.56,.1,.19,.22,.41,.19,.59-.03,.26-.21,.51-.51,.57-.28,.05-.41-.2-.45-.38-.15-.69-.38-1.4-.35-2.08,.06-1.25,.14-2.5,.37-3.74,.15-.8,.48-1.4,1.29-1.79Z"/><path class="cls-3" d="M64.83,36.99c.04,.28,.13,.5,.1,.71-.03,.21-.19,.42-.44,.38-.14-.02-.31-.12-.38-.23-.36-.61-.12-2.96,.35-3.47,.11-.12,.27-.18,.44-.1,.24,.11,.3,.3,.23,.53-.25,.73-.29,1.49-.3,2.18Z"/><path class="cls-3" d="M97.78,48.89c-.21,1.05-.71,2.03-1.21,3-.08,.16-.32,.15-.43,.05-.1-.1-.21-.32-.16-.43,.38-.97,.78-1.93,1.2-2.89,.03-.06,.19-.1,.29-.1,.21,0,.25,.17,.31,.37Z"/><path class="cls-3" d="M77.91,15.3c-3.03,.06-5.98,.66-8.88,1.52-.48,.14-.9,.41-1.3,.7-1.05,.77-1.54,2.28-.2,3.32,1.68,1.32,3.54,2.19,5.71,2.25,2.41,.07,4.82,.13,7.24-.05,1.81-.13,3.61-.4,5.41-.43,2.43-.03,4.79-.41,7.16-.91,.89-.19,1.67-.58,2.33-1.16,.77-.67,.91-1.61,.23-2.16-1.13-.92-2.14-2.07-3.69-2.35-2.64-.48-5.26-1.07-8.15-1.13-1.84-.28-3.83,.35-5.86,.39Zm-8.7,5.71c-.73-.45-1.7-.83-1.57-1.89,.13-1.07,1.06-1.45,2-1.7,2.93-.8,5.92-1.25,8.94-1.39,1.7-.08,3.39-.33,5.1-.3,2.6,.05,5.12,.56,7.65,1.08,1.23,.26,2.2,.98,3.1,1.79,.74,.67,.67,1.15-.19,1.68-1.55,.95-3.33,1.13-5.07,1.3-3.82,.36-7.66,.64-11.49,.91-.82,.06-1.65-.04-2.83-.07-1.8,.19-3.81-.26-5.64-1.4Z"/></g><g><path class="cls-3" d="M93.73,35.21c-.48,.57-1.04,1.05-1.77,1.26-.27,.08-.52,.21-.72,.39-.4,.33-.86,.52-1.33,.72-.18,.07-.35,.14-.52,.23-.16,.09-.37,.16-.36,.39,0,.21,.2,.26,.35,.33,1.31,.62,2.53,1.47,4.01,1.66,.28,.04,.41,.16,.36,.46-.05,.35-.07,.71-.11,1.07-.02,.16-.01,.31,.16,.37,.2,.07,.23-.1,.3-.23,.1-.18,.23-.43,.46-.23,.28,.23,.35,.1,.42-.14,.07-.26,.19-.51,.51-.43,.31,.08,.37-.03,.38-.3,.02-.43,.22-.68,.67-.78,.41-.09,.8-.25,1.21-.37,.67-.2,1.33-.44,1.88-.89,.37-.3,.68-.27,1.02-.01,.53,.39,1.16,.34,1.76,.42,.24,.03,.35-.1,.36-.33,.02-.44-.06-.85-.36-1.18-.22-.24-.2-.43,.04-.64,.34-.31,.48-.74,.61-1.16,.12-.36-.06-.58-.44-.52-.87,.14-1.71,.42-2.34,1.03-.37,.35-.63,.4-1.02,.19-.18-.1-.4-.12-.53-.29,0-.16,.13-.23,.19-.33,.16-.3,.12-.47-.2-.51-.69-.08-1.34-.36-2.03-.44-.3-.04-.64,.08-.81-.3-.02-.04-.12-.07-.17-.05-.42,.17-.67,0-.78-.47-.48,.36-.84,.73-1.18,1.13Zm-.14,.59l.03,.02c.15-.45,.51-.75,.86-1.05,.05-.04,.14-.1,.16-.09,.31,.3,.8,.05,1.1,.34,.14,.14,.29,.14,.46,.14,.72-.02,1.39,.26,2.1,.37,.12,.02,.29,.09,.24,.23-.05,.17-.15,.36-.4,.32-.5-.08-1.01-.11-1.5-.22-1.01-.22-2.01-.22-3.02-.05l-.02-.02Zm3.63,3.64c-.76,.26-1.55,.41-2.35,.51-.79,.1-1.6,0-2.51-.39,.13-.32,.42-.51,.62-.83,.61,.77,1.37,.77,2.18,.54,.26-.07,.53-.13,.8-.19,.15-.03,.29-.07,.29-.27,0-.2-.09-.35-.3-.34-.56,.03-1.08-.18-1.62-.26-.39-.05-.78-.13-1.18,.13-.07-.4,.17-.77-.23-1.04-.03,.28-.05,.52-.07,.76-.04,.62-.47,.95-.93,1.27-.1,.07-.21,.02-.3-.02-.74-.35-1.48-.71-2.23-1.08,.06-.21,.2-.25,.33-.31,.48-.21,.97-.42,1.45-.63,.08-.03,.19-.04,.23-.1,.37-.53,.98-.62,1.51-.85,.85-.37,1.75-.47,2.67-.33,.84,.12,1.68,.2,2.5,.39,.81,.19,1.55,.5,2.17,1.09-.67,1.24-1.88,1.56-3.04,1.95Zm3.06-2.33c-.19-.16-.16-.26-.03-.41,.58-.69,1.35-.99,2.21-1.11,.17-.02,.32,.05,.25,.25-.16,.42-.24,.92-.78,1.07-.27,.08-.25,.26-.13,.44,.09,.14,.22,.25,.34,.37,.14,.14,.22,.3,.24,.5,.05,.43-.03,.51-.48,.48-.61-.03-1.14-.23-1.68-.64,.61-.46,.62-.48,.07-.96Zm-6.26,1.98c-.27-.05-.63-.14-.61-.42,.02-.29,.4-.22,.64-.23,.57,0,1.08,.27,1.63,.38-.56,.16-1.08,.38-1.66,.27Zm-.01,1.51c.04-.24,.18-.35,.44-.35,.34,0,.4,.06,.37,.4-.02,.29,0,.6-.47,.49-.13-.03-.17,.24-.36,.2-.07-.25-.02-.5,.02-.74Zm1.4,.11c-.12,0-.27-.04-.26-.2,0-.23,.17-.32,.38-.32,.1,0,.14,.06,.13,.17-.06,.13-.01,.35-.25,.35Z"/><path class="cls-3" d="M92.13,37.87c-.01-.17-.3-.39-.51-.38-.23,0-.52,.24-.47,.41,.06,.23,.26,.31,.44,.33,.29,0,.55-.17,.54-.35Zm-.48,.06s-.07-.03-.11-.05c.03-.02,.07-.06,.1-.06,.03,0,.07,.03,.1,.05-.03,.02-.07,.06-.1,.06Z"/><path class="cls-3" d="M95.98,37.59c.02-.25,.08-.49,.05-.75,.4,.31,.4,.37-.05,.75Z"/><path class="cls-3" d="M97.2,38.7c.1-.23,.21-.44,.29-.71,.18,.44,.15,.52-.29,.71Z"/><path class="cls-3" d="M95.14,37.58c-.09-.28,.05-.52-.09-.72-.03-.05,.02-.11,.09-.13,.08-.02,.13,.04,.15,.09,.12,.26,.12,.5-.15,.76Z"/><path class="cls-3" d="M98.55,36.87c.13,.04,.24,.13,.2,.31-.01,.05-.09,.12-.13,.11-.17-.03-.23-.17-.23-.33,0-.06,.06-.11,.16-.1Z"/><path class="cls-3" d="M99.79,37.54c0,.08-.06,.16-.18,.15-.13,0-.14-.12-.15-.22,0-.11,.01-.21,.15-.19,.1,.02,.17,.1,.17,.26Z"/><path class="cls-3" d="M94.44,37.16c-.26-.24-.2-.43-.21-.68,.33,.17,.27,.37,.21,.68Z"/><path class="cls-3" d="M93.69,37.51c-.01,.07-.04,.14-.11,.13-.16-.03-.13-.19-.17-.3-.02-.07,.03-.13,.1-.11,.15,.03,.19,.15,.18,.29Z"/><path class="cls-3" d="M98.04,38.75c-.03,.08,0,.2-.14,.17-.07-.01-.08-.08-.08-.15,0-.08,0-.19,.11-.2,.12,0,.1,.1,.11,.17Z"/><path class="cls-3" d="M97.35,37.29c-.22-.11-.18-.27-.12-.42,0-.02,.09-.03,.1,0,.12,.14,.11,.28,.02,.43Z"/><path class="cls-3" d="M98.64,38.36c-.12-.04-.11-.15-.1-.24,0-.08,.05-.16,.15-.14,.13,.02,.14,.13,.12,.24-.01,.08-.07,.14-.17,.15Z"/><path class="cls-3" d="M92.76,37.05c-.1-.02-.13-.12-.13-.23,0-.07,.04-.12,.11-.11,.12,.02,.19,.09,.17,.22,0,.06-.04,.12-.15,.12Z"/><path class="cls-3" d="M96.64,38.05s-.04,.12-.08,.13c-.09,.02-.16-.04-.16-.13,0-.05,.04-.14,.07-.15,.09-.03,.14,.04,.16,.15Z"/><path class="cls-3" d="M101.75,36.57c-.33-.12-.55,.28-.92,.19,.36-.36,.8-.48,1.22-.62,.12-.04,.24,.07,.17,.16-.1,.15-.17,.46-.48,.27v-.02l.02,.02Z"/><path class="cls-3" d="M101.03,37.88c.33-.04,.66-.06,.89,.41-.38-.1-.66-.19-.89-.41Z"/></g><path class="cls-3" d="M85.18,42.09c-.05-.61-.93-1.44-1.5-1.4-.6,.04-1.51,1.08-1.49,1.7,.03,.78,.54,1.22,1.38,1.2,.88-.02,1.67-.76,1.61-1.5Zm-2.47,.38c-.06-.58,.46-1.16,.98-1.15,.47,0,.97,.47,.97,.9,0,.46-.5,.87-1.22,.89-.35,.02-.68-.15-.73-.64Z"/><path class="cls-3" d="M83.52,37.55c-.5-.03-.98,.27-1,.62-.03,.54,.31,.95,.82,.99,.54,.05,1.18-.36,1.2-.77,.02-.36-.54-.82-1.03-.85Zm.39,.83c0,.22-.21,.31-.43,.3-.22,0-.41-.13-.41-.34,0-.21,.2-.32,.4-.32,.24,.04,.44,.14,.44,.35Z"/><path class="cls-3" d="M84.61,39.84c.01,.41,.12,.82,.68,.79,.47-.02,.87-.21,1.03-.67,.1-.3-.56-.78-1.17-.8-.33,0-.56,.27-.55,.68Zm.54,0c.02-.12,.15-.19,.25-.14,.09,.04,.19,.14,.21,.24,.04,.13-.08,.18-.2,.2-.17-.02-.29-.12-.27-.3Z"/><path class="cls-3" d="M86.29,36.33c-.33-.02-.58,.11-.57,.47,0,.38,.13,.74,.61,.77,.44,.03,.68-.2,.72-.65-.01-.49-.37-.56-.75-.58Zm.11,.67v-.08l.09,.05-.09,.03Z"/><g><path class="cls-3" d="M71.2,50.63s-.03,0-.03,0c0-.01,0-.03-.01-.04-.08,.02-.16,0-.23-.04-.35-.13-.57-.42-.82-.67-.52-.52-.76-1.13-.66-1.88,.04-.27,.03-.54-.03-.82-.07-.37-.2-.75-.06-1.14,.02-.06,.02-.16-.12-.2-.15,.92-.32,1.83-.42,2.75-.1,.95,.29,1.65,.98,2.24,.18,.15,.39,.24,.6,.31,.25,.08,.4,.36,.67,.37,.41,.02,.63,.26,.84,.57,.2,.29,.42,.57,.71,.8,.28,.22,.37,.22,.56-.05,.24-.34,.32-.73,.36-1.14,.09-.77,.38-1.43,.92-2.01,.19-.21,.46-.36,.57-.63h0l-.27-.25c.09,.58-.43,.7-.65,1.04-.26,.4-.47,.81-.68,1.23-.07,.15,.07,.45-.09,.58-.15,.12-.18,.21-.09,.35,.22,.37-.14,.12-.21,.2,.03,.2,.26,.44-.1,.61-.23-.99-.08-1.89,.48-2.75,.46-.69,1.09-1.23,1.6-1.88,.25-.31,.54-.59,.82-.89,.13,.45,.12,.48-.23,.85-.13,.14-.1,.36-.19,.53h0c.48-.27,.64-.71,.66-1.22,.01-.27,.02-.55,.02-.83,0-.08,.04-.2-.12-.24-.1,.33-.13,.69-.38,.97-.51,.56-1.03,1.12-1.53,1.69-.55,.62-1.05,1.27-1.26,2.1-.02,.08-.04,.16-.19,.15,0-.66-.38-1.3-.04-1.98,.02-.04,0-.1,0-.14,0-.49,.13-.96,.3-1.41,.17-.47,.3-.97,.27-1.47-.04-.62-.06-1.22,.02-1.83,.03-.2,0-.41-.16-.59,.03,.64-.07,1.26-.18,1.88-.17,.97-.36,1.42-.68,1.73-.07-.62-.04-1.26-.2-1.87-.22-.87-.54-1.73-.58-2.64,0-.13,0-.3-.18-.37-.1,.15-.03,.29,0,.42,.13,.51,.15,1.03,.06,1.54-.15,.86-.23,1.73-.33,2.59-.07,.56-.12,1.13-.04,1.69,.04,.33,.18,.66,.12,1-.04,.29,.03,.54,.15,.79l.05,.04Zm1.72-4.03c0,.21,.17,.46-.18,.6-.09,.04,0,.2,.03,.31,.04,.1,.02,.2-.1,.23-.07,.02-.16-.16-.22,0-.02,.06,.06,.14,.08,.22,.04,.2,.19,.44-.19,.48-.09,0-.08,.08-.05,.15,.05,.14,.1,.27,.13,.41,.05,.21-.02,.25-.27,.18-.05,.17,.1,.26,.14,.39,.07,.19-.03,.3-.29,.31-.04,.17,.13,.2,.21,.29,.19,.22,.18,.31-.09,.52,.2,.14,.32,.27,.29,.58-.02,.2,.06,.51,.22,.73,.11,.16,.12,.33,.04,.54-.35-.14-.48-.47-.68-.72-.28-.35-.45-.78-.55-1.22-.06-.26-.06-.52,.03-.77,.27-.78,.52-1.56,.88-2.3,.19-.4,.33-.8,.43-1.23,.03-.12,.04-.25,.19-.38,.03,.27,.1,.5-.07,.71h.01Zm-1.96,1.76c.01-1.08,.16-2.15,.29-3.23,.02-.14,.04-.27,.23-.23,.15,.04,.22,.11,.12,.28-.06,.1,.04,.17,.1,.25,.08,.11,.34,.26-.03,.37-.09,.03-.01,.14,.04,.2,.08,.1,.22,.15,.23,.3,0,.1,.05,.25-.16,.14-.12-.06-.13,.05-.1,.13,.03,.09,.07,.18,.18,.21,.06,.01,.09,.08,.05,.1-.32,.17-.04,.31,.02,.46,.04,.08,.06,.18-.03,.21-.24,.08-.1,.18-.03,.28,.08,.12,.08,.12-.08,.25-.04,.03-.07,.07-.06,.11,.1,.51-.16,.94-.29,1.39-.05,.18-.13,.35-.19,.53,.06-.62-.28-1.16-.28-1.76Zm-1.65-.77c-.03,.18-.13,.36,0,.55,.11,.17-.25,.2-.11,.35,.1,.1,.14,.21,.16,.34,.01,.08,.05,.16-.02,.23-.1,.11-.03,.16,.07,.21,.17,.08,.24,.21,.18,.39-.01,.05-.03,.13,.02,.12,.36-.07,.3,.43,.6,.44,.04,0,.1,.07,.1,.09-.04,.28,.17,.23,.33,.27,.14,.03,.14,.07,.05,.22-.08,.12,.13,.19,.24,.12,.21-.14,.23-.1,.18,.13-.03,.17,.11,.09,.19,.08,.1,0,.15,.05,.15,.14,0,.08-.08,.08-.15,.08-.06,0-.14,.01-.19-.01-.71-.39-1.52-.65-1.91-1.47-.08-.18-.17-.34-.21-.54-.12-.67,.03-1.31,.13-1.97,.18,.06,.21,.15,.2,.22Zm2.19-3.08s.02,.1-.04,.12c-.08,.02-.11-.03-.11-.1,0-.08,0-.15,.01-.23h.07c.02,.07,.05,.14,.07,.22Zm-2.37,2.54s.02-.1,.04-.12c.04-.03,.09,0,.1,.05,.02,.07-.01,.12-.07,.15-.08,.02-.08-.03-.08-.08Z"/><path class="cls-3" d="M74.66,52.15c.29-.31,.83-.46,1.22-.25,.63,.33,1.28,.28,1.94,.19,.14-.02,.28-.06,.53,.04-.41,.06-.73,.15-1.04,.14-.49-.01-1,.04-1.46-.23-.29-.17-.62-.15-.93,0-.09,.04-.16,.12-.27,.1h0Z"/><path class="cls-3" d="M69.17,53.36c.07-.21,.29-.17,.44-.22,.23-.07,.48-.1,.67-.25,.21-.17,.43-.17,.68-.1,.34,.1,.66,.25,1.02,.26,0,.18-.12,.15-.2,.14-.14-.03-.28-.08-.41-.14-.39-.17-.75-.22-1.14,.03-.32,.2-.71,.2-1.07,.29h0Z"/><path class="cls-3" d="M73.66,53.86c0-.1,.05-.15,.14-.16,.21-.02,.42-.03,.62,.05,.54,.21,1.1,.35,1.68,.38,.07,0,.12,.03,.17,.14-.51-.02-.99-.09-1.46-.25-.21-.07-.42-.16-.64-.22-.17-.04-.35-.05-.51,.05h0Z"/><path class="cls-3" d="M75.52,52.84c.19,.07,.26,.21,.2,.4-.04,.13-.37,.16-.51,.06-.06-.05-.11-.11-.17-.17-.08-.09-.08-.18,.02-.24,.14-.09,.16,.01,.15,.12,0,.07,.04,.12,.09,.16,.05,.04,.12,.07,.18,.04,.09-.04,.09-.12,.04-.2-.04-.05-.08-.1,0-.17Z"/><path class="cls-3" d="M74.07,55.06c.13,.08,.14,.17,.03,.27-.13,.11-.3,.16-.45,.06-.13-.08-.12-.22-.05-.35,.06-.12,.16-.16,.28-.1,.07,.03,.13,.08,.2,.13-.05,0-.09-.02-.14-.01-.09,0-.2-.01-.23,.11,0,.02,0,.06,.03,.08,.09,.07,.18,.04,.26-.02,.06-.04,.07-.1,.07-.17Z"/><path class="cls-3" d="M69.8,51.81c-.1,.35-.35,.5-.56,.33-.07-.05-.1-.13-.05-.21,.04-.06,.14-.08,.16-.04,.21,.37,.29-.05,.44-.08Z"/><path class="cls-3" d="M75.43,48.65c-.06,.2-.17,.35-.39,.39h0c.18-.15,.02-.42,.19-.63,.07,.11,.11,.2,.2,.25h0Z"/><path class="cls-3" d="M73.28,53.89c-.26,.23-.54,.41-.9,.45,.29-.16,.56-.39,.91-.44h0Z"/><path class="cls-3" d="M76.74,53.21c.15,.05,.22,.03,.23-.07,.01-.1,.05-.1,.12-.05,.06,.06,.11,.13,.03,.2-.1,.09-.22,.14-.35,.09-.06-.02-.13-.06-.12-.13,.02-.15,.1-.04,.1-.05Z"/><path class="cls-3" d="M69.17,53.36l-.51,.03c.17-.09,.34-.07,.51-.03h0Z"/><path class="cls-3" d="M70.13,54.14c.07,.03,.07,.09,.05,.15-.02,.05,.01,.14-.09,.12-.07-.02-.1-.07-.08-.14,.01-.06,.05-.11,.12-.12Z"/><path class="cls-3" d="M74.65,52.15s-.03,.08-.06,.11c-.04,.04-.1,.11-.15,.04-.04-.06,.03-.1,.09-.12,.04-.01,.09,0,.13-.01h0Z"/><path class="cls-3" d="M73.29,53.9c.1-.17,.24-.07,.37-.04h0c-.12,.01-.25,.02-.37,.03h0Z"/><path class="cls-3" d="M72.91,46.6h0Z"/></g><g><path class="cls-3" d="M88.01,45.9c-.09,.24,.04,.59-.23,.72-.27,.13-.53-.12-.81-.17-.27-.05-.34-.22-.22-.46,.07-.14,.16-.29,.29-.37,.32-.21,.61-.47,.99-.6,.31-.11,.63-.24,.85-.52,.06-.07,.12-.14,.02-.22-.06-.05-.14-.03-.19,.02-.31,.33-.75,.45-1.12,.68-.51,.33-1.07,.62-1.23,1.3-.19-.03-.36-.07-.53-.1-.29-.06-.59-.13-.88-.16-.89-.11-2.03,.49-2.52,1.66-.13,.33-.31,.63-.57,.8-.48,.31-.56,.68-.4,1.19,.07,.23,.13,.41,.41,.49,.54,.16,1.06,.4,1.48,.79,.18,.17,.38,.31,.59,.43,.3,.18,.33,.24,.15,.53-.17,.26-.29,.53-.2,.84,.07,.25,.21,.48,.23,.75,0,.05,.04,.1,.1,.1,.08,0,.16-.03,.16-.1,.03-.31,.26-.49,.42-.71,.17-.24,.25-.5,.19-.8-.02-.12-.11-.23,0-.37,.47,0,.91-.2,1.33-.4,.3-.14,.54-.08,.75,.16,.07,.08,.12,.17,.2,.25,.07,.08,.2,.08,.22,0,.05-.26,.41-.45,.18-.78-.16-.24-.05-.42,.18-.57,.38-.25,.78-.49,1.1-.82,.37-.37,.82-.45,1.27-.56,.1-.03,.21-.03,.31,.04,.23,.16,.5,.22,.71,.44,.24,.24,.56,.43,.87,.59,.27,.14,.6,.16,.85-.06,.23-.2,.34-.45,.26-.79-.11-.47-.45-.7-.8-.94-.34-.24-.35-.28-.09-.61,.08-.1,.16-.19,.23-.29,.13-.21,.3-.4,.33-.66,.03-.28-.1-.47-.32-.62-.2-.14-.37-.05-.53,.07-.18,.14-.37,.27-.53,.44-.33,.34-.61,.73-1.03,.98-.23,.14-.45,.17-.69,.04-.36-.2-.75-.31-1.13-.45-.54-.19-.55-.21-.42-.77,.11-.44,.27-.86,.41-1.28-.4,.32-.51,.54-.64,.88Zm3.37,3.16c-.04-.12-.11-.12-.23-.12-.3,0-.37-.12-.28-.41,.02-.08,.06-.17,.05-.25-.01-.1-.1-.14-.2-.14-.08,0-.13,.05-.11,.13,.06,.24-.03,.27-.28,.28-.58,.02-1.06,.32-1.49,.69-.16,.14-.3,.29-.5,.37h.01c-.95,.73-1.89,1.51-3.14,1.72-.17,.03-.35,.11-.44-.12-.02-.06-.04-.07-.11-.06-.53,.08-.8-.03-1.21-.49h.01c-.12,.03-.19-.06-.27-.13-.35-.27-.68-.57-1.15-.61-.13-.01-.25-.07-.26-.22,0-.17,.14-.18,.26-.2h.05c.12-.03,.28-.05,.25-.21-.03-.17-.19-.11-.3-.07-.12,.04-.24,.1-.33-.04-.1-.17,.04-.26,.15-.34,.34-.26,.59-.57,.7-1.02,.07-.29,.28-.56,.55-.74h0c.47-.65,1.11-.9,1.91-.82,.73,.08,1.43,.29,2.15,.43,.67,.14,1.27,.48,1.92,.72,.26,.09,.53,.2,.77,.33,.33,.17,.61,.07,.88-.12,.16-.11,.28-.27,.46-.35l.11-.12c.04-.1,.07-.22,.22-.19,0-.08,.06-.1,.13-.1-.04-.28,.2-.35,.35-.48-.06,.21-.23,.32-.36,.47l-.12,.1c-.03,.11-.1,.18-.22,.19,0,.07-.04,.11-.11,.12-.02,.25,.21,.23,.33,.32h0c.12-.03,.21-.08,.22-.22-.09-.03-.24-.04-.13-.18,.18-.23,.37-.45,.66-.55-.02-.07,0-.14,.05-.19,.05-.05,.09-.11,.17-.09,.08,.02,.1,.1,.11,.16,.02,.13,0,.24-.13,.32,0,.06-.04,.11-.11,.11-.16,.5-.52,.81-.96,1.07,.16,.08,.42-.21,.51,.14-.19,.11-.34-.08-.51-.05,0,.11,.04,.19,.17,.22,.26,.05,.51,.14,.76,.19,.2,.04,.34,.15,.49,.39-.41-.04-.66-.38-1.14-.37,.41,.24,.73,.42,1.04,.61,.24,.15,.24,.15,.06,.47-.31-.25-.56-.6-1.07-.69,.27,.22,.48,.38,.67,.55,.08,.07,.14,.18,.04,.27-.09,.07-.22,.04-.27-.07-.17-.33-.51-.46-.79-.66l.04,.13v-.01s-.03-.07-.04-.11Zm-7.31,3.38c.02-.08,.05-.18,.16-.13,.04,.02,.05,.12,.07,.18l.24-.23h-.01c-.06-.07-.11-.17-.22-.2h0c.04-.15,.13-.28,.28-.35,.38,.48,.28,.9-.3,1.2,0,.03,0,.08-.02,.09-.07,.02-.07-.04-.07-.09-.13-.13-.18-.28-.14-.46Zm3.32-1.66c.05,.05,.1,.17,.02,.24-.16,.15-.31,.1-.5-.1,.19-.08,.27-.32,.48-.14Z"/><path class="cls-3" d="M87.49,45.6c-.05,.21-.19,.36-.33,.51h.01c-.03-.24,.09-.41,.3-.53l.02,.02Z"/><path class="cls-3" d="M87.57,46.1s0-.07,.01-.1c.02-.06,.04-.15,.12-.13,.09,.03,.04,.11,.01,.16-.02,.04-.06,.07-.09,.11l-.05-.04Z"/><path class="cls-3" d="M87.62,46.15c-.01,.07-.04,.13-.12,.13-.01,0-.03-.02-.03-.03,0-.07,.02-.12,.1-.14l.05,.04Z"/><path class="cls-3" d="M87.47,45.58s.04-.06,.07-.04c.02,.02,0,.05-.04,.06l-.02-.02Z"/><path class="cls-3" d="M87.16,46.11v.04s-.03,0,.01-.03h-.01Z"/><path class="cls-3" d="M83.57,49.05c0-.27-.23-.51-.5-.51-.22,0-.48,.21-.49,.4,0,.23,.24,.43,.57,.44,.3,0,.43-.09,.43-.33Zm-.46-.09s-.05-.02-.02-.05c0,0,.03,0,.04,0,0,0,.01,.02,.02,.03-.01,0-.02,.02-.03,.02Z"/><path class="cls-3" d="M84.52,49.94c.2-.56,.09-1.06-.28-1.52-.09-.11-.13-.24-.32-.22-.08,.01-.13-.03-.13-.12,0-.11,.09-.14,.18-.15,.11-.01,.2,.04,.28,.12,.32,.34,.56,.72,.62,1.19,.04,.31-.07,.54-.35,.69h0Z"/><path class="cls-3" d="M84.51,49.93c-.12,.59-.58,.68-1.07,.74h.01c.02-.11,.04-.24,.18-.28,.34-.07,.58-.32,.88-.46h0Z"/><path class="cls-3" d="M87.29,48.93c.09-.18,.12-.26,.07-.31-.1-.1-.11-.18,.03-.22,.11-.03,.15,.07,.16,.15,.02,.1,.04,.21,.02,.31-.02,.11-.11,.2-.22,.16-.12-.04-.04-.14-.06-.1Z"/><path class="cls-3" d="M85.01,47.44c.46,.11,.58,.27,.38,.49-.06,.06-.22,.08-.18-.02,.11-.25-.18-.29-.2-.47Z"/><path class="cls-3" d="M85.08,48.34c.21,0,.28,.12,.32,.26,.02,.1,.03,.24-.1,.27-.17,.04-.13-.12-.14-.21,0-.11-.14-.17-.08-.32Z"/><path class="cls-3" d="M84.99,49.95c-.02-.24,.23-.34,.11-.53-.02-.04,.04-.09,.1-.07,.04,.02,.1,.05,.11,.09,.06,.24-.06,.38-.33,.52Z"/><path class="cls-3" d="M85.69,50.75c.12-.18,.32-.31,.23-.59,.18,.38,.18,.39-.23,.59Z"/><path class="cls-3" d="M84.59,47.41s.04,0,.05,.02c.1,.15,.11,.31,.04,.48,0,.02-.07,.03-.09,.02-.22-.15,.08-.35,0-.51Z"/><path class="cls-3" d="M84.48,47.05l-.23-.5c.35,.06,.43,.21,.23,.5Z"/><path class="cls-3" d="M92.47,46.87c-.06,0-.1,.04-.11,.11-.16,.04-.26,.21-.43,.21,.02-.23,.31-.3,.32-.54,.12,.02,.22,.08,.22,.22Z"/><path class="cls-3" d="M88.18,48.63c-.03-.13,.03-.22,.08-.26,.11-.09-.19-.33,.09-.3,.19,.03,.1,.26,.07,.4-.02,.09-.12,.12-.24,.16Z"/><path class="cls-3" d="M87.19,49.71c.1,.35,.12,.55-.22,.65l.22-.65Z"/><path class="cls-3" d="M86.63,47.87c-.03-.16-.02-.3,.1-.45,.22,.22,.05,.34-.1,.45Z"/><path class="cls-3" d="M85.74,47.28c-.06-.04-.11-.06-.11-.08,0-.13-.15-.24-.05-.38,.03-.05,.1-.03,.14,0,.16,.14,.12,.28,.03,.45Z"/><path class="cls-3" d="M86.19,48.71c.14,.1,.11,.24,.09,.37,0,.06-.06,.08-.12,.08-.06,0-.08-.06-.07-.11,.03-.11-.02-.24,.1-.34Z"/><path class="cls-3" d="M88.86,47.91q.22,.19,.1,.63c-.03-.29,.06-.49-.1-.63Z"/><path class="cls-3" d="M89.71,47.95c.15,.11,.22,.24,.04,.44l-.04-.44Z"/><path class="cls-3" d="M87.59,47.61l-.04-.51c.21,.22,.21,.36,.03,.5h.01Z"/><path class="cls-3" d="M88.24,49.08c.15,.16,.09,.36,.09,.55h.01c-.08-.02-.23,.03-.17-.14,.05-.13,.05-.25,.04-.39l.02-.02Z"/><path class="cls-3" d="M91.41,48.02v.12s-.06,.02-.09,.03c-.06,.02-.13,.08-.16,0-.03-.07,.04-.11,.11-.13,.05,0,.1,0,.15-.01Z"/><path class="cls-3" d="M83.1,47.11c.06-.02,.13-.03,.19-.05,.05-.01,.11-.02,.12,.03,.01,.09-.06,.11-.13,.1-.06-.01-.12-.06-.17-.09h0Z"/><path class="cls-3" d="M91.4,47.72s-.03,.06-.05,.09c-.03,.03-.07,.05-.11,.08,0-.01-.02-.04-.02-.04,.03-.04,.06-.08,.09-.1,.02-.02,.06,0,.09-.01h0Z"/><path class="cls-3" d="M84.78,50.7s-.06,.06-.09,.05c-.05,0-.06-.07-.03-.11,.03-.04,.07-.06,.12-.04,.04,.01,.05,.04,0,.1Z"/><path class="cls-3" d="M91.72,47.4c.01-.14,.09-.21,.22-.22-.02,.13-.09,.21-.22,.22Z"/><path class="cls-3" d="M83.6,47.32l-.04,.02s-.01-.03,0-.04c.03-.03,.05-.02,.04,.02Z"/><path class="cls-3" d="M87.58,47.6s-.02,.09-.03,.08c-.08-.07,0-.06,.04-.07h-.01Z"/><path class="cls-3" d="M91.41,47.73c0-.07,.03-.11,.1-.12h0c0,.05-.05,.09-.1,.11h0Z"/><path class="cls-3" d="M88.21,49.1s-.1-.03-.06-.08c.04-.05,.07,0,.08,.06l-.02,.02Z"/><path class="cls-3" d="M84.31,52.91h-.12c0-.15-.03-.32,.11-.44,.03,.15,.04,.29,0,.44Z"/><path class="cls-3" d="M84.52,52.26s.06,.03,.08,.06c.04,.06,.05,.16-.02,.17-.09,.02-.06-.09-.07-.14,0-.03,.01-.07,.02-.1h-.01Z"/></g><g><path class="cls-3" d="M68.49,39.81c.12,.59,.3,1.02,.83,1.23,.51,.21,.88,.17,1.28-.23,.21-.21,.39-.45,.6-.66,.2-.2,.46-.3,.69-.11,.32,.25,.71,.29,1.07,.42,1.06,.4,2.13,.77,3.25,.95,.47,.08,.94,.12,1.41,.12,1.24,0,2.43-.88,2.2-2.47-.14-.96-.8-1.68-1.59-2.24-.67-.47-1.38-.63-2.19-.4-.43,.12-.55,.04-.78-.43-.22-.44-.23-.46-.6-.12-.5,.46-1.16,.65-1.69,1.07-.15,.12-.37,.1-.56,.11-.24,.01-.33,.13-.19,.33,.14,.2,.04,.25-.1,.39-.64,.65-1.39,.69-2.2,.48-.32-.08-.6-.12-.92,.05-.45,.23-.63,.56-.57,1.04,.02,.19,.04,.38,.06,.48Zm6.57-3.54c-.13,.11-.31,.06-.46,.13,.04,.12,.21,.24,.02,.38-.03,.02-.11,.03-.12,.01-.07-.13,.07-.21,.08-.33,0-.02,.02-.04,.03-.05,.13-.09,.27-.18,.44-.12,0,.02,0,.04,0,.05,.04,.05,.03,.07,0,.04-.02-.02,0-.07,0-.11Zm-4.27,3.8l-.11,.17c-.06,.11-.11,.23-.19,.33-.49,.62-1.14,.38-1.46-.07-.18-.26-.26-.54-.28-.84-.09-1,.5-1.29,1.23-1.09,.1,.03,.21,.07,.31,.07,.64,.05,1.28,.12,1.79-.43,.28-.29,.66-.45,1.04-.62,1.04-.45,2.15-.69,3.23-.99,.5-.14,1.01-.07,1.49,.21,.62,.37,1.14,.85,1.5,1.46,.35,.6,.44,1.25,.08,1.9-.08,.14-.16,.26-.34,.22-.4-.09-.81,.07-1.21-.09-.13-.05-.25-.07-.35,.1,.36,.48,.91,.28,1.47,.36-.44,.28-.8,.52-1.27,.51-1.89-.05-3.63-.68-5.36-1.36-.08-.03-.18-.06-.18-.15,0-.2-.13-.14-.25-.17-.51-.13-.77,.29-1.12,.49Zm2.89-3.1c.12-.15,.26-.17,.45-.13-.15,.14-.28,.18-.45,.13Z"/><path class="cls-3" d="M75.8,38.96c-.63-.36-1.3-.58-2-.65-.55-.05-.82,.33-.69,.88,.23,.95,1.08,1.22,1.83,.58,.29-.24,.62-.45,.85-.82Zm-.47,.02c-.17,.3-.4,.42-.58,.59-.46,.43-.83,.38-1.2-.16-.12-.17-.28-.35-.14-.58,.14-.24,.36-.26,.61-.23,.44,.07,.85,.24,1.32,.37Z"/><path class="cls-3" d="M69.11,39.3c.16,.19,.34,.4,.47,.28,.16-.15,.25-.19,.42-.06-.18,.23-.56,.19-.69,.49,.61,.08,.87-.03,1.26-.56-.06-.17-.29-.07-.36-.21,.07-.22,.32,.03,.41-.15q-.48-.26-1.51,.21Z"/><path class="cls-3" d="M78.58,39.71c.24-.05,.47-.09,.43-.39-.03-.22-.27-.34-.56-.29-.28,.05-.53,.31-.46,.51,.12,.32,.39,.16,.59,.16Z"/><path class="cls-3" d="M77.74,38.22c-.38-.03-.53,.13-.67,.33-.17,.25-.31,.51-.37,.8,0,.04,.06,.11,.11,.13,.1,.03,.16-.04,.18-.13,.08-.46,.39-.78,.74-1.14Z"/><path class="cls-3" d="M70.69,40.24l.1-.16c-.04-.14-.12-.24-.27-.16-.15,.08-.29,.18-.42,.28-.16,.13-.47,.27-.33,.46,.2,.28,.27-.18,.47-.2,.15-.02,.3-.15,.44-.23Z"/><path class="cls-3" d="M76.37,39.28s.08-.07,.09-.12c.04-.29,.07-.58,.24-.84,.03-.05,.01-.13-.05-.16-.06-.03-.13-.02-.17,.03-.22,.3-.26,.65-.28,1.01,0,.05,.07,.1,.17,.08Z"/><path class="cls-3" d="M76.67,39.96c-.02,.36,.16,.57,.21,.82,.02,.09,.09,.14,.19,.11,.11-.03,.12-.12,.08-.2-.11-.24-.14-.53-.48-.73Z"/><path class="cls-3" d="M76.47,40.81s.04-.04,.03-.05c-.09-.27-.18-.54-.29-.84-.17,.46-.15,.52,.25,.89Z"/><path class="cls-3" d="M75.78,40.13c-.14-.13-.23-.08-.23,.09,0,.27,.15,.47,.4,.65,.15-.33-.36-.47-.16-.76h0Z"/><path class="cls-3" d="M75.79,40.12l.05,.04s0-.03-.01-.03c-.01,0-.03,0-.05,0h0Z"/><path class="cls-3" d="M74.55,39.2c.06-.01,.15,0,.17-.05,.06-.09-.04-.18-.1-.18-.27-.02-.54,0-.94,0,.29,.22,.45,.4,.28,.72,.36-.07,.52-.24,.59-.5-.04,0-.08,.03-.11,.01-.04-.02-.03-.06,.02-.07,.03,0,.06,.04,.09,.07Z"/></g></g><g><path class="cls-3" d="M150.13,11.94c-.83,.99-1.78,1.8-3.05,2.16-.46,.13-.89,.37-1.24,.66-.69,.57-1.48,.9-2.29,1.23-.3,.12-.61,.24-.9,.39-.28,.15-.63,.27-.62,.68,.01,.36,.34,.45,.59,.57,2.25,1.07,4.34,2.53,6.9,2.85,.49,.06,.7,.27,.62,.79-.09,.61-.12,1.22-.19,1.83-.03,.27-.02,.53,.27,.63,.35,.12,.4-.18,.52-.4,.16-.32,.4-.73,.79-.4,.48,.4,.6,.18,.72-.25,.13-.45,.32-.88,.88-.73,.53,.14,.64-.06,.66-.52,.03-.74,.38-1.17,1.16-1.35,.7-.16,1.38-.43,2.08-.64,1.15-.34,2.29-.77,3.22-1.52,.64-.52,1.17-.46,1.76-.02,.91,.67,1.99,.58,3.02,.72,.41,.06,.6-.17,.62-.56,.03-.75-.11-1.46-.63-2.03-.38-.42-.34-.74,.06-1.1,.59-.54,.82-1.28,1.06-2,.2-.62-.11-1.01-.75-.9-1.49,.25-2.95,.72-4.03,1.77-.63,.61-1.08,.68-1.76,.32-.31-.16-.69-.2-.91-.5,0-.27,.22-.39,.32-.57,.27-.51,.2-.81-.34-.87-1.19-.14-2.31-.61-3.49-.75-.52-.06-1.1,.15-1.39-.52-.03-.06-.21-.12-.29-.09-.73,.29-1.15-.01-1.34-.81-.82,.62-1.45,1.26-2.03,1.94Zm-.24,1.02l.06,.04c.27-.78,.87-1.29,1.47-1.8,.08-.07,.25-.17,.27-.15,.54,.51,1.37,.09,1.89,.59,.25,.24,.5,.24,.8,.24,1.24-.03,2.4,.45,3.61,.64,.2,.03,.49,.15,.42,.4-.09,.29-.25,.62-.68,.55-.86-.13-1.73-.2-2.58-.38-1.73-.37-3.46-.38-5.2-.08l-.04-.03Zm6.24,6.26c-1.31,.44-2.67,.7-4.04,.88-1.36,.18-2.75-.02-4.31-.68,.23-.54,.72-.87,1.07-1.43,1.04,1.32,2.35,1.32,3.74,.93,.45-.13,.92-.22,1.38-.32,.26-.06,.5-.12,.49-.46,0-.34-.16-.6-.51-.58-.97,.06-1.86-.32-2.79-.44-.67-.09-1.35-.22-2.03,.23-.12-.68,.29-1.32-.39-1.8-.05,.49-.09,.89-.12,1.3-.07,1.07-.82,1.64-1.6,2.18-.18,.12-.36,.04-.52-.03-1.27-.61-2.54-1.23-3.83-1.86,.1-.37,.34-.44,.56-.53,.83-.36,1.67-.73,2.5-1.09,.13-.06,.32-.07,.39-.17,.63-.92,1.69-1.06,2.6-1.46,1.47-.64,3.02-.8,4.59-.57,1.44,.21,2.89,.34,4.31,.67,1.4,.32,2.67,.86,3.73,1.87-1.16,2.13-3.24,2.68-5.23,3.35Zm5.27-4.01c-.32-.28-.27-.45-.05-.7,.99-1.18,2.31-1.71,3.8-1.9,.3-.04,.56,.09,.43,.42-.28,.73-.42,1.58-1.35,1.84-.47,.13-.43,.45-.23,.75,.16,.24,.39,.43,.59,.64,.24,.24,.38,.52,.41,.86,.08,.74-.06,.87-.83,.83-1.04-.05-1.97-.4-2.88-1.1,1.05-.79,1.07-.82,.11-1.65Zm-10.76,3.4c-.47-.09-1.08-.24-1.04-.73,.04-.49,.69-.39,1.09-.39,.98,0,1.86,.46,2.8,.66-.96,.27-1.86,.65-2.85,.46Zm-.02,2.6c.07-.41,.31-.6,.75-.6,.58,0,.69,.1,.64,.69-.04,.49-.02,1.03-.81,.85-.23-.05-.29,.41-.61,.35-.12-.43-.04-.86,.03-1.28Zm2.41,.19c-.21,0-.46-.07-.45-.34,.02-.39,.29-.54,.65-.55,.17,0,.24,.11,.23,.29-.1,.23-.02,.61-.43,.61Z"/><path class="cls-3" d="M147.37,16.53c-.02-.29-.52-.67-.88-.66-.4,.01-.89,.41-.81,.7,.1,.4,.44,.53,.76,.56,.5,0,.95-.3,.93-.6Zm-.82,.11c-.06,0-.12-.06-.18-.09,.06-.04,.12-.1,.18-.1,.06,0,.12,.06,.18,.09-.06,.04-.12,.1-.18,.1Z"/><path class="cls-3" d="M154,16.04c.04-.43,.14-.84,.08-1.29,.69,.54,.68,.64-.08,1.29Z"/><path class="cls-3" d="M156.09,17.95c.16-.4,.36-.76,.49-1.23,.31,.75,.25,.9-.49,1.23Z"/><path class="cls-3" d="M152.55,16.02c-.15-.48,.08-.89-.16-1.24-.06-.08,.04-.19,.16-.22,.13-.03,.22,.06,.26,.15,.21,.45,.2,.86-.26,1.31Z"/><path class="cls-3" d="M158.42,14.8c.22,.08,.42,.22,.34,.54-.02,.08-.16,.21-.22,.2-.29-.06-.4-.29-.39-.56,0-.1,.1-.18,.27-.17Z"/><path class="cls-3" d="M160.54,15.95c0,.13-.11,.27-.3,.26-.22,0-.24-.2-.25-.38-.01-.19,.02-.37,.26-.32,.18,.03,.3,.17,.29,.44Z"/><path class="cls-3" d="M151.34,15.3c-.44-.42-.35-.75-.37-1.16,.56,.29,.47,.64,.37,1.16Z"/><path class="cls-3" d="M150.05,15.9c-.02,.11-.07,.24-.19,.22-.27-.06-.23-.33-.29-.52-.04-.13,.06-.22,.18-.19,.26,.05,.33,.25,.3,.49Z"/><path class="cls-3" d="M157.53,18.03c-.04,.14-.02,.34-.24,.3-.12-.02-.15-.14-.14-.25,0-.14,0-.32,.19-.34,.21-.02,.17,.18,.19,.3Z"/><path class="cls-3" d="M156.34,15.52c-.38-.19-.31-.46-.21-.72,.01-.03,.15-.04,.18-.02,.21,.24,.19,.48,.03,.74Z"/><path class="cls-3" d="M158.56,17.36c-.21-.07-.19-.26-.18-.42,.01-.14,.08-.28,.26-.25,.23,.04,.24,.23,.21,.4-.02,.14-.12,.25-.29,.26Z"/><path class="cls-3" d="M148.45,15.11c-.17-.03-.22-.2-.23-.39,0-.12,.07-.21,.2-.19,.2,.04,.32,.16,.29,.38-.02,.11-.08,.2-.26,.2Z"/><path class="cls-3" d="M155.13,16.82c-.04,.06-.07,.2-.14,.22-.16,.04-.27-.07-.27-.22,0-.09,.06-.23,.13-.25,.16-.05,.24,.07,.28,.25Z"/><path class="cls-3" d="M163.91,14.28c-.57-.21-.94,.47-1.59,.32,.62-.62,1.37-.82,2.1-1.07,.21-.07,.41,.11,.29,.28-.18,.26-.29,.79-.83,.46l-.02-.03,.04,.04Z"/><path class="cls-3" d="M162.67,16.54c.57-.07,1.14-.1,1.52,.7-.66-.18-1.14-.32-1.52-.7Z"/></g><g><path class="cls-3" d="M82.28,109.33c-.16,.41,.07,1.01-.39,1.23-.46,.22-.92-.21-1.39-.3-.47-.09-.59-.39-.38-.8,.12-.24,.28-.5,.5-.63,.56-.36,1.05-.81,1.7-1.04,.53-.19,1.08-.42,1.46-.89,.1-.12,.2-.24,.04-.38-.11-.09-.24-.05-.32,.04-.54,.56-1.3,.77-1.93,1.17-.88,.56-1.84,1.07-2.11,2.24-.32-.06-.61-.12-.91-.17-.51-.09-1.01-.22-1.52-.28-1.53-.18-3.5,.84-4.33,2.86-.23,.56-.53,1.09-.98,1.38-.82,.54-.96,1.18-.69,2.04,.12,.39,.23,.7,.7,.84,.93,.28,1.81,.69,2.54,1.36,.32,.29,.66,.53,1.02,.75,.52,.31,.57,.41,.25,.91-.29,.45-.51,.91-.35,1.45,.13,.43,.37,.83,.4,1.3,0,.08,.06,.17,.18,.18,.14,.01,.27-.04,.28-.17,.05-.53,.45-.84,.73-1.23,.3-.41,.43-.87,.32-1.37-.04-.2-.19-.39-.01-.64,.81,0,1.56-.34,2.3-.68,.52-.24,.93-.15,1.29,.28,.12,.14,.21,.29,.34,.43,.12,.14,.35,.13,.38,0,.08-.45,.7-.77,.31-1.35-.27-.4-.09-.72,.3-.98,.65-.44,1.35-.85,1.9-1.4,.63-.63,1.4-.78,2.19-.97,.18-.04,.36-.05,.53,.06,.39,.27,.86,.39,1.22,.75,.42,.42,.96,.75,1.49,1.02,.47,.24,1.03,.28,1.46-.1,.4-.34,.59-.77,.45-1.36-.18-.8-.78-1.2-1.37-1.62-.58-.41-.59-.48-.15-1.05,.13-.17,.28-.32,.4-.5,.23-.35,.51-.68,.57-1.13,.06-.48-.17-.81-.55-1.06-.35-.24-.64-.08-.91,.12-.31,.24-.63,.46-.91,.75-.56,.59-1.05,1.26-1.78,1.68-.4,.23-.77,.3-1.19,.06-.61-.34-1.28-.54-1.94-.78-.92-.33-.95-.36-.72-1.32,.18-.75,.46-1.47,.7-2.21-.68,.55-.88,.93-1.11,1.52Zm5.79,5.43c-.07-.21-.19-.2-.4-.2-.52,0-.63-.21-.48-.71,.04-.14,.1-.29,.08-.43-.02-.17-.17-.24-.34-.23-.15,0-.22,.09-.19,.23,.1,.42-.06,.47-.47,.49-1,.03-1.82,.56-2.57,1.19-.28,.24-.52,.5-.87,.64l.02-.02c-1.64,1.28-3.25,2.61-5.39,2.98-.3,.05-.6,.2-.76-.21-.04-.1-.07-.12-.18-.1-.92,.14-1.38-.06-2.09-.85l.02,.02c-.21,.03-.32-.13-.47-.24-.6-.46-1.16-.97-1.97-1.05-.22-.02-.43-.13-.44-.38-.02-.3,.23-.3,.44-.34,.03,0,.06,0,.09-.01,.21-.03,.49-.07,.43-.34-.06-.3-.33-.19-.52-.12-.21,.07-.42,.17-.56-.07-.18-.29,.08-.44,.26-.58,.59-.46,1.01-.99,1.2-1.75,.13-.49,.47-.96,.94-1.28h-.02c.81-1.12,1.91-1.55,3.29-1.41,1.26,.13,2.46,.49,3.7,.74,1.15,.23,2.19,.83,3.3,1.23,.45,.16,.9,.34,1.33,.57,.57,.3,1.05,.12,1.52-.2,.27-.19,.47-.47,.79-.59l.19-.2c.06-.18,.11-.37,.37-.33,.01-.13,.1-.17,.22-.17-.07-.48,.34-.6,.61-.82-.1,.36-.4,.55-.62,.8l-.21,.17c-.05,.19-.17,.31-.38,.33,0,.11-.07,.19-.18,.21-.04,.42,.36,.39,.58,.56h-.01c.21-.05,.36-.15,.38-.38-.16-.05-.42-.07-.23-.32,.31-.39,.63-.78,1.13-.95-.03-.13,0-.24,.09-.33,.08-.08,.16-.19,.3-.15,.14,.04,.16,.17,.18,.28,.03,.22-.01,.42-.22,.55-.01,.11-.06,.18-.19,.19-.28,.85-.9,1.4-1.64,1.84,.27,.13,.72-.36,.87,.24-.33,.18-.58-.14-.87-.08,0,.2,.07,.33,.3,.37,.44,.09,.87,.24,1.31,.33,.35,.07,.59,.27,.84,.68-.71-.06-1.14-.64-1.96-.63,.7,.41,1.25,.72,1.79,1.05,.42,.25,.41,.26,.11,.81-.53-.43-.96-1.03-1.84-1.18,.47,.38,.82,.65,1.16,.94,.14,.12,.25,.32,.07,.46-.15,.12-.37,.07-.47-.11-.3-.57-.88-.79-1.35-1.14l.08,.23v-.02c-.03-.06-.05-.13-.07-.19Zm-12.56,5.81c.03-.14,.08-.31,.27-.23,.07,.03,.09,.2,.13,.31l.4-.4-.02,.02c-.1-.14-.19-.3-.37-.36h.01c.07-.26,.22-.48,.48-.61,.65,.83,.48,1.55-.51,2.07-.01,.05-.02,.15-.04,.15-.13,.03-.12-.07-.12-.15-.23-.22-.3-.48-.23-.79Zm5.71-2.85c.09,.08,.17,.29,.03,.41-.28,.25-.54,.18-.85-.16,.33-.14,.47-.55,.82-.24Z"/><path class="cls-3" d="M81.39,108.81c-.09,.36-.33,.62-.58,.87l.02,.02c-.05-.43,.16-.72,.52-.93l.04,.04Z"/><path class="cls-3" d="M81.53,109.67c0-.06,0-.11,.02-.17,.03-.11,.07-.26,.2-.22,.16,.04,.07,.18,.02,.27-.04,.07-.11,.12-.16,.19l-.08-.07Z"/><path class="cls-3" d="M81.61,109.75c-.02,.12-.06,.22-.2,.22-.02,0-.05-.04-.05-.06-.01-.13,.04-.21,.18-.23l.08,.07Z"/><path class="cls-3" d="M81.35,108.77c.02-.08,.07-.11,.11-.07,.04,.04,0,.09-.07,.11l-.04-.04Z"/><path class="cls-3" d="M80.82,109.68s0,.07,0,.07c-.06,0-.05-.02,.03-.06l-.02-.02Z"/><path class="cls-3" d="M74.66,114.75c0-.47-.4-.87-.87-.87-.38,0-.83,.37-.84,.69-.02,.4,.42,.73,.98,.75,.51,.01,.74-.16,.74-.57Zm-.79-.16c-.06,0-.08-.03-.04-.08,.01-.01,.05-.02,.07,0,.02,0,.02,.03,.03,.05-.02,.01-.04,.04-.06,.04Z"/><path class="cls-3" d="M76.29,116.27c.35-.96,.16-1.82-.49-2.61-.15-.19-.23-.42-.54-.37-.13,.02-.23-.05-.23-.21,0-.19,.15-.25,.3-.26,.2-.02,.35,.07,.48,.21,.55,.58,.96,1.23,1.06,2.05,.06,.53-.12,.93-.6,1.18h.02Z"/><path class="cls-3" d="M76.27,116.25c-.21,1.01-1,1.18-1.84,1.27l.02,.02c.03-.22,.07-.44,.32-.5,.58-.13,.99-.56,1.52-.78h-.02Z"/><path class="cls-3" d="M81.04,114.53c.15-.3,.2-.45,.12-.53-.17-.17-.19-.31,.05-.38,.19-.06,.25,.12,.28,.27,.03,.17,.06,.36,.03,.53-.03,.19-.2,.34-.38,.28-.21-.07-.07-.24-.1-.17Z"/><path class="cls-3" d="M77.12,111.97c.79,.19,1,.47,.65,.84-.1,.11-.38,.13-.3-.04,.18-.42-.31-.5-.34-.81Z"/><path class="cls-3" d="M77.25,113.53c.36,0,.48,.21,.54,.45,.04,.17,.04,.41-.17,.46-.29,.06-.23-.2-.23-.36,0-.18-.23-.28-.14-.54Z"/><path class="cls-3" d="M77.1,116.3c-.04-.42,.39-.59,.19-.92-.04-.06,.07-.16,.17-.12,.08,.03,.18,.09,.2,.16,.11,.41-.11,.65-.56,.89Z"/><path class="cls-3" d="M78.31,117.67c.2-.31,.55-.53,.39-1.01,.31,.65,.3,.67-.39,1.01Z"/><path class="cls-3" d="M76.41,111.93s.07,.01,.08,.03c.17,.26,.2,.54,.06,.82-.01,.03-.12,.05-.16,.03-.39-.26,.14-.59,.01-.88Z"/><path class="cls-3" d="M76.22,111.31l-.4-.87c.61,.1,.75,.36,.4,.87Z"/><path class="cls-3" d="M89.96,110.99c-.11,.01-.17,.07-.19,.18-.27,.08-.44,.36-.75,.37,.04-.4,.54-.52,.55-.93,.21,.04,.37,.13,.38,.38Z"/><path class="cls-3" d="M82.57,114.02c-.05-.23,.05-.37,.14-.45,.18-.16-.32-.57,.15-.51,.33,.05,.18,.44,.12,.69-.03,.16-.2,.2-.41,.28Z"/><path class="cls-3" d="M80.88,115.88c.16,.6,.21,.95-.37,1.11l.37-1.11Z"/><path class="cls-3" d="M79.92,112.72c-.06-.28-.04-.52,.17-.77,.38,.38,.08,.58-.17,.77Z"/><path class="cls-3" d="M78.38,111.7c-.1-.07-.19-.1-.19-.13,0-.22-.25-.42-.09-.65,.06-.08,.17-.05,.24,.01,.27,.24,.2,.49,.04,.77Z"/><path class="cls-3" d="M79.16,114.15c.24,.17,.18,.42,.16,.64-.01,.1-.1,.14-.2,.13-.1-.01-.14-.1-.12-.19,.04-.19-.03-.41,.16-.58Z"/><path class="cls-3" d="M83.75,112.78q.38,.33,.17,1.08c-.05-.5,.11-.84-.17-1.08Z"/><path class="cls-3" d="M85.22,112.86c.26,.19,.37,.41,.07,.76l-.07-.76Z"/><path class="cls-3" d="M81.57,112.27l-.07-.88c.36,.38,.36,.62,.05,.86l.02,.02Z"/><path class="cls-3" d="M82.68,114.79c.25,.28,.15,.62,.15,.94l.02-.02c-.14-.02-.4,.08-.29-.22,.09-.22,.09-.44,.07-.66l.04-.04Z"/><path class="cls-3" d="M88.13,112.98v.2c-.05,.02-.11,.04-.16,.06-.1,.04-.22,.14-.28-.02-.05-.13,.07-.2,.19-.22,.08-.01,.17-.02,.26-.02Z"/><path class="cls-3" d="M73.84,111.4c.11-.03,.22-.06,.33-.09,.08-.02,.2-.03,.21,.06,.03,.15-.11,.19-.22,.17-.11-.02-.2-.1-.3-.15h-.02Z"/><path class="cls-3" d="M88.13,112.45s-.04,.11-.08,.15c-.06,.05-.13,.09-.19,.14-.01-.03-.04-.06-.03-.07,.05-.06,.1-.13,.16-.17,.04-.03,.11-.01,.16-.02l-.02-.02Z"/><path class="cls-3" d="M76.74,117.57s-.1,.1-.16,.09c-.09-.01-.1-.12-.06-.19,.04-.08,.12-.1,.21-.07,.07,.03,.09,.07,0,.17Z"/><path class="cls-3" d="M88.66,111.91c.02-.24,.15-.36,.39-.39-.03,.23-.15,.37-.39,.39Z"/><path class="cls-3" d="M74.71,111.77l-.06,.03s-.02-.05-.01-.06c.05-.05,.08-.04,.08,.03Z"/><path class="cls-3" d="M81.56,112.25c.03,.07-.03,.15-.05,.13-.14-.13,0-.1,.07-.11l-.02-.02Z"/><path class="cls-3" d="M88.14,112.47c0-.12,.06-.19,.18-.21h-.01c-.02,.09-.08,.15-.18,.19l.02,.02Z"/><path class="cls-3" d="M82.64,114.83c-.08-.02-.18-.06-.1-.14,.07-.08,.13,.02,.15,.1l-.04,.04Z"/><path class="cls-3" d="M75.92,121.38h-.2c.02-.26-.05-.55,.2-.75,.04,.25,.07,.5,0,.75Z"/><path class="cls-3" d="M76.29,120.26s.11,.05,.14,.1c.07,.11,.08,.27-.04,.3-.16,.03-.1-.15-.11-.24-.01-.05,.02-.11,.03-.17l-.02,.02Z"/></g><g><path class="cls-3" d="M132.72,89.86c.21,1.02,.51,1.75,1.43,2.12,.88,.35,1.51,.29,2.2-.4,.36-.37,.68-.78,1.04-1.14,.34-.34,.78-.51,1.19-.2,.55,.43,1.22,.5,1.84,.73,1.82,.68,3.66,1.32,5.59,1.63,.8,.13,1.61,.21,2.42,.21,2.12,0,4.18-1.51,3.79-4.24-.24-1.66-1.37-2.88-2.74-3.85-1.15-.82-2.38-1.09-3.76-.69-.75,.21-.94,.07-1.34-.74-.37-.75-.4-.78-1.03-.2-.86,.79-2,1.12-2.9,1.84-.27,.21-.63,.17-.96,.19-.41,.02-.56,.23-.33,.57,.23,.34,.07,.42-.18,.67-1.1,1.12-2.39,1.18-3.78,.82-.54-.14-1.03-.21-1.59,.09-.77,.4-1.08,.96-.98,1.78,.04,.33,.08,.66,.1,.83Zm11.29-6.08c-.23,.19-.53,.11-.78,.22,.07,.21,.37,.42,.03,.65-.05,.04-.19,.05-.2,.03-.12-.22,.12-.37,.13-.57,0-.03,.04-.06,.06-.09,.23-.16,.46-.31,.76-.21,0,.03-.01,.07,0,.09,.07,.08,.05,.12,0,.07-.03-.04-.01-.12-.01-.18Zm-7.35,6.53l-.19,.28c-.11,.19-.2,.4-.33,.56-.85,1.06-1.96,.65-2.51-.12-.31-.44-.44-.93-.49-1.45-.15-1.72,.85-2.22,2.11-1.87,.18,.05,.36,.11,.54,.13,1.1,.08,2.19,.2,3.08-.74,.47-.51,1.13-.78,1.78-1.06,1.79-.77,3.69-1.19,5.56-1.7,.86-.24,1.74-.12,2.55,.36,1.07,.63,1.96,1.45,2.58,2.51,.6,1.03,.75,2.14,.14,3.26-.13,.25-.28,.44-.59,.37-.68-.15-1.4,.11-2.07-.15-.22-.08-.43-.12-.61,.16,.62,.83,1.57,.48,2.53,.63-.75,.48-1.37,.9-2.19,.88-3.25-.08-6.24-1.18-9.22-2.34-.14-.05-.31-.11-.32-.26,0-.35-.22-.24-.43-.29-.88-.22-1.32,.5-1.93,.84Zm4.97-5.33c.21-.26,.44-.29,.78-.23-.26,.24-.49,.3-.78,.23Z"/><path class="cls-3" d="M145.3,88.4c-1.08-.62-2.23-.99-3.43-1.11-.94-.09-1.41,.58-1.19,1.51,.4,1.64,1.85,2.1,3.15,1,.5-.42,1.06-.77,1.47-1.41Zm-.8,.04c-.29,.52-.69,.72-1.01,1.02-.79,.74-1.43,.65-2.06-.27-.2-.29-.48-.59-.25-.99,.24-.41,.62-.45,1.05-.39,.76,.11,1.47,.41,2.27,.63Z"/><path class="cls-3" d="M133.79,88.98c.27,.32,.59,.69,.81,.49,.28-.25,.42-.32,.72-.1-.31,.39-.95,.33-1.19,.85,1.06,.14,1.5-.06,2.17-.96-.11-.29-.49-.12-.63-.37,.13-.38,.55,.05,.71-.25q-.82-.44-2.59,.36Z"/><path class="cls-3" d="M150.07,89.69c.41-.08,.81-.15,.74-.66-.05-.38-.47-.59-.96-.5-.49,.09-.92,.54-.79,.88,.21,.54,.67,.28,1.01,.28Z"/><path class="cls-3" d="M148.63,87.12c-.65-.06-.92,.23-1.15,.57-.29,.42-.53,.87-.63,1.38-.01,.06,.11,.2,.2,.22,.17,.05,.28-.07,.31-.22,.14-.79,.66-1.35,1.28-1.96Z"/><path class="cls-3" d="M136.51,90.6l.18-.27c-.07-.25-.21-.41-.47-.27-.26,.13-.5,.3-.72,.49-.27,.22-.81,.47-.57,.79,.35,.48,.46-.32,.81-.35,.26-.03,.51-.25,.76-.39Z"/><path class="cls-3" d="M146.28,88.95s.15-.11,.16-.2c.06-.5,.12-1,.4-1.45,.05-.09,.03-.22-.09-.27-.1-.05-.22-.04-.29,.05-.39,.51-.44,1.12-.48,1.73,0,.08,.12,.18,.3,.14Z"/><path class="cls-3" d="M146.78,90.11c-.04,.62,.27,.99,.36,1.41,.03,.15,.16,.25,.33,.2,.19-.05,.2-.2,.14-.34-.19-.41-.24-.92-.83-1.26Z"/><path class="cls-3" d="M146.44,91.57s.07-.07,.06-.08c-.16-.46-.32-.92-.5-1.44-.29,.78-.26,.89,.44,1.53Z"/><path class="cls-3" d="M145.26,90.41c-.24-.22-.4-.14-.4,.16,0,.46,.26,.8,.68,1.12,.26-.57-.61-.81-.27-1.3v.02Z"/><path class="cls-3" d="M145.27,90.39l.09,.08s-.01-.05-.03-.05c-.02,0-.05,0-.08,0v-.02Z"/><path class="cls-3" d="M143.14,88.81c.1-.02,.26-.02,.3-.08,.09-.16-.08-.3-.18-.31-.46-.03-.92-.01-1.61,0,.51,.37,.77,.69,.47,1.23,.62-.13,.89-.42,1.02-.86-.06,0-.14,.04-.19,.02-.07-.03-.05-.11,.03-.11,.05,0,.1,.07,.15,.12Z"/></g></g><g><path class="cls-3" d="M20.48,23.57c.21,1.02,.51,1.75,1.43,2.12,.88,.35,1.51,.29,2.2-.4,.36-.37,.68-.78,1.04-1.14,.34-.34,.78-.51,1.19-.2,.55,.43,1.22,.5,1.84,.73,1.82,.68,3.66,1.32,5.59,1.63,.8,.13,1.61,.21,2.42,.21,2.12,0,4.18-1.51,3.79-4.24-.24-1.66-1.37-2.88-2.74-3.85-1.15-.82-2.38-1.09-3.76-.69-.75,.21-.94,.07-1.34-.74-.37-.75-.4-.78-1.03-.2-.86,.79-2,1.12-2.9,1.84-.27,.21-.63,.17-.96,.19-.41,.02-.56,.23-.33,.57,.23,.34,.07,.42-.18,.67-1.1,1.12-2.39,1.18-3.78,.82-.54-.14-1.03-.21-1.59,.09-.77,.4-1.08,.96-.98,1.78,.04,.33,.08,.66,.1,.83Zm11.29-6.08c-.23,.19-.53,.11-.78,.22,.07,.21,.37,.42,.03,.65-.05,.04-.19,.05-.2,.03-.12-.22,.12-.37,.13-.57,0-.03,.04-.06,.06-.09,.23-.16,.46-.31,.76-.21,0,.03-.01,.07,0,.09,.07,.08,.05,.12,0,.07-.03-.04-.01-.12-.01-.18Zm-7.35,6.53l-.19,.28c-.11,.19-.2,.4-.33,.56-.85,1.06-1.96,.65-2.51-.12-.31-.44-.44-.93-.49-1.45-.15-1.72,.85-2.22,2.11-1.87,.18,.05,.36,.11,.54,.13,1.1,.08,2.19,.2,3.08-.74,.47-.51,1.13-.78,1.78-1.06,1.79-.77,3.69-1.19,5.56-1.7,.86-.24,1.74-.12,2.55,.36,1.07,.63,1.96,1.45,2.58,2.51,.6,1.03,.75,2.14,.14,3.26-.13,.25-.28,.44-.59,.37-.68-.15-1.4,.11-2.07-.15-.22-.08-.43-.12-.61,.16,.62,.83,1.57,.48,2.53,.63-.75,.48-1.37,.9-2.19,.88-3.25-.08-6.24-1.18-9.22-2.34-.14-.05-.31-.11-.32-.26,0-.35-.22-.24-.43-.29-.88-.22-1.32,.5-1.93,.84Zm4.97-5.33c.21-.26,.44-.29,.78-.23-.26,.24-.49,.3-.78,.23Z"/><path class="cls-3" d="M33.06,22.1c-1.08-.62-2.23-.99-3.43-1.11-.94-.09-1.41,.58-1.19,1.51,.4,1.64,1.85,2.1,3.15,1,.5-.42,1.06-.77,1.47-1.41Zm-.8,.04c-.29,.52-.69,.72-1.01,1.02-.79,.74-1.43,.65-2.06-.27-.2-.29-.48-.59-.25-.99,.24-.41,.62-.45,1.05-.39,.76,.11,1.47,.41,2.27,.63Z"/><path class="cls-3" d="M21.55,22.69c.27,.32,.59,.69,.81,.49,.28-.25,.42-.32,.72-.1-.31,.39-.95,.33-1.19,.85,1.06,.14,1.5-.06,2.17-.96-.11-.29-.49-.12-.63-.37,.13-.38,.55,.05,.71-.25q-.82-.44-2.59,.36Z"/><path class="cls-3" d="M37.83,23.4c.41-.08,.81-.15,.74-.66-.05-.38-.47-.59-.96-.5-.49,.09-.92,.54-.79,.88,.21,.54,.67,.28,1.01,.28Z"/><path class="cls-3" d="M36.39,20.82c-.65-.06-.92,.23-1.15,.57-.29,.42-.53,.87-.63,1.38-.01,.06,.11,.2,.2,.22,.17,.05,.28-.07,.31-.22,.14-.79,.66-1.35,1.28-1.96Z"/><path class="cls-3" d="M24.27,24.31l.18-.27c-.07-.25-.21-.41-.47-.27-.26,.13-.5,.3-.72,.49-.27,.22-.81,.47-.57,.79,.35,.48,.46-.32,.81-.35,.26-.03,.51-.25,.76-.39Z"/><path class="cls-3" d="M34.03,22.66s.15-.11,.16-.2c.06-.5,.12-1,.4-1.45,.05-.09,.03-.22-.09-.27-.1-.05-.22-.04-.29,.05-.39,.51-.44,1.12-.48,1.73,0,.08,.12,.18,.3,.14Z"/><path class="cls-3" d="M34.54,23.82c-.04,.62,.27,.99,.36,1.41,.03,.15,.16,.25,.33,.2,.19-.05,.2-.2,.14-.34-.19-.41-.24-.92-.83-1.26Z"/><path class="cls-3" d="M34.2,25.28s.07-.07,.06-.08c-.16-.46-.32-.92-.5-1.44-.29,.78-.26,.89,.44,1.53Z"/><path class="cls-3" d="M33.02,24.12c-.24-.22-.4-.14-.4,.16,0,.46,.26,.8,.68,1.12,.26-.57-.61-.81-.27-1.3v.02Z"/><path class="cls-3" d="M33.03,24.1l.09,.08s-.01-.05-.03-.05c-.02,0-.05,0-.08,0v-.02Z"/><path class="cls-3" d="M30.9,22.51c.1-.02,.26-.02,.3-.08,.09-.16-.08-.3-.18-.31-.46-.03-.92-.01-1.61,0,.51,.37,.77,.69,.47,1.23,.62-.13,.89-.42,1.02-.86-.06,0-.14,.04-.19,.02-.07-.03-.05-.11,.03-.11,.05,0,.1,.07,.15,.12Z"/></g></g></pattern></defs><rect id="_a_bc" data-name="1a_bc" class="cls-2" width="500" height="500"/><rect id="_2_bc_pattern" data-name="12_bc_pattern" class="cls-4" width="500" height="500"/></svg>