<?xml version="1.0" encoding="UTF-8"?><svg id="Background" xmlns="http://www.w3.org/2000/svg" xmlns:xlink="http://www.w3.org/1999/xlink" viewBox="0 0 500 500"><defs><style>.cls-1{fill:none;}.cls-2{fill:url(#linear-gradient);}.cls-3{fill:#f5a2ac;}.cls-4{fill:#fbfaf9;}.cls-5{fill:#9d5d30;}.cls-6{fill:#c4edf1;}.cls-7{fill:#dcdbda;}.cls-8{fill:#afdfe1;}.cls-9{fill:#4d4d4d;}.cls-10{fill:url(#New_Pattern_17);}</style><linearGradient id="linear-gradient" x1="250" y1="500" x2="250" y2="0" gradientTransform="matrix(1,0,0,1,0,0)" gradientUnits="userSpaceOnUse"><stop offset="0" stop-color="#bbb"/><stop offset=".02" stop-color="#c1c1c1"/><stop offset=".12" stop-color="#d8d8d8"/><stop offset=".23" stop-color="#e9e9e9"/><stop offset=".36" stop-color="#f5f5f5"/><stop offset=".55" stop-color="#fdfdfd"/><stop offset="1" stop-color="#fff"/></linearGradient><pattern id="New_Pattern_17" data-name="New Pattern 17" x="0" y="0" width="136.53" height="210.04" patternUnits="userSpaceOnUse" viewBox="0 0 136.53 210.04"><g><rect class="cls-1" x="0" y="0" width="136.53" height="210.04"/><g><g><path class="cls-4" d="M140.27,191.88c2.86-.34,5.69,0,8.52,.27,1.77,.17,2.15,.08,2.92-1.44,.25-.5,.38-1.07,.47-1.63,.36-2.32,.36-4.65,.22-6.99-.1-1.7-.23-1.82-1.93-1.84-4.89-.06-9.8,.22-14.67-.57-.28-.04-.57-.01-.85-.01-1.76,0-1.83,.12-2.2,1.86-.28,1.32,.12,2.6,.06,3.91-.09,2.03-.06,2.03,2.06,2.15,.36,.02,.84-.14,.99,.57-.86,0-1.69,0-2.52,0-.33,0-.74-.16-.87,.29-.35,1.16-1.19,2.02-2.07,3.11,1.68,.06,3.15-.02,4.58,.21,1.77,.28,3.53,.33,5.28,.12Z"/><path class="cls-4" d="M150.91,214.02c.35-3.75,.79-7.49,.51-11.26,0-2.17,.05-4.34-.01-6.5-.06-2.01-.56-2.8-2.18-3.18-2.39-.57-4.86-.79-7.3-.67-2.34,.11-4.65,.3-6.98-.04-1.64-.24-3.3-.11-4.96-.09-.71,0-1.15,.33-1.45,.98-.62,1.33-.83,2.72-.79,4.16,.06,2.16,.12,4.33,.22,6.49,.22,4.77-.02,9.56,.52,14.32,.44,3.84,.43,7.71,.82,11.56,.2,1.97,.3,2.12,2.16,2.68,2.13,.64,4.33,.99,6.52,1.38,3.85,.69,7.73,.49,11.59,.06,1.33-.15,1.61-.56,1.43-1.79-.86-6.03-.64-12.06-.08-18.09Z"/><path class="cls-6" d="M151.48,208.92c-.02-.63-.08-1.23-.06-1.48,.09-1.3,.19-2.6,.28-3.9,.06-.86,.11-1.73,.19-2.59,.07-.81,.41-2.07-.66-2.4-.54-.16-1.24-.13-1.8-.21-.63-.09-1.26-.16-1.89-.22-1.3-.13-2.6-.2-3.91-.25-3.11-.12-6.2-.29-9.31-.36-1.2-.03-2.4-.06-3.61-.09-.75-.02-2.72-.45-3.09,.44-.14,.35-.08,.75,0,1.12,.31,1.54,.03,3.21,.02,4.78-.02,1.94,.14,3.87,.08,5.8,0,.11,0,.23,.07,.32,.09,.11,.26,.13,.4,.11,1.84-.26,3.82-.06,5.67,.05,2.8,.16,5.56,.38,8.37,.46l8.75,.26c.48,.01,.53-.93,.5-1.83Z"/><path class="cls-9" d="M159.27,188.34c-.04,2.52,.53,4.86,.41,7.27-.14,2.85,.37,5.68,.35,8.54-.02,3.48-.1,6.95-.32,10.42-.02,.34-.11,.68-.09,1.02,.16,4.17-.54,8.31-.39,12.48,.04,1.13-.13,1.82-1.35,2.33-1.45,.6-2.62,1.78-3.96,2.65-1.61,1.04-3.36,1.45-5.14,1.55-1.41,.08-2.84,.14-4.24,.23-3.47,.22-6.81-.43-10.18-1-1.84-.31-3.54-1.21-5.42-1.36-.32-.03-.37-.35-.38-.66-.06-2.79-.13-5.58-.22-8.37-.06-1.82-.35-3.62-.47-5.44-.26-3.81-.42-7.61-.41-11.43,0-2.62-.18-5.25-.33-7.87-.09-1.67,.09-3.3,.43-4.93,.28-1.37,.92-2.45,2.17-3.11,1.61-.84,2.19-2.24,2.2-3.96,0-1.2-.03-2.4-.01-3.59,.01-1.08,.15-2.12,.49-3.18,.28-.89,.65-.99,1.45-.92,4.15,.34,8.29,.66,12.46,.61,1.94-.02,3.88,.05,5.8-.28,.95-.16,1.49,.2,1.95,.98,.6,1,.96,2.06,1.07,3.21,.05,.51,.06,1.03,.07,1.54,.08,2.65,1.28,3.68,4.07,3.26Zm-7.85,14.42c0-2.17,.05-4.34-.01-6.5-.06-2.01-.56-2.8-2.18-3.18-2.39-.57-4.86-.79-7.3-.67-2.34,.11-4.65,.3-6.98-.04-1.64-.24-3.3-.11-4.96-.09-.71,0-1.15,.33-1.45,.98-.62,1.33-.83,2.72-.79,4.16,.06,2.16,.12,4.33,.22,6.49,.22,4.77-.02,9.56,.52,14.32,.44,3.84,.43,7.71,.82,11.56,.2,1.97,.3,2.12,2.16,2.68,2.13,.64,4.33,.99,6.52,1.38,3.85,.69,7.73,.49,11.59,.06,1.33-.15,1.61-.56,1.43-1.79-.86-6.03-.64-12.06-.08-18.09,.35-3.75,.79-7.49,.51-11.26Zm7.22-12.78c-.42-.09-.6,.15-.83,.31-1.79,1.2-3.42,2.68-5.53,3.35-.61,.19-.54,.64-.51,1.1,.1,1.48,.24,2.96,.28,4.43,.1,3.31,.2,6.62-.06,9.92-.41,5.16-1.02,10.32-.89,15.51,.06,2.57,.33,5.12,.68,7.66,.1,.7,.42,.92,1.03,.58,1-.54,2.05-1.03,2.97-1.69,2.78-2.01,2.75-2.17,2.92-5.63,.18-3.64,.38-7.28,.43-10.92,.03-2.11,.27-4.2,.33-6.31,.12-4.85-.37-9.68-.4-14.52,0-1.27,.14-2.61-.42-3.79Zm-28.22,1.57c1.68,.06,3.15-.02,4.58,.21,1.77,.28,3.53,.33,5.28,.12,2.86-.34,5.69,0,8.52,.27,1.77,.17,2.15,.08,2.92-1.44,.25-.5,.38-1.07,.47-1.63,.36-2.32,.36-4.65,.22-6.99-.1-1.7-.23-1.82-1.93-1.84-4.89-.06-9.8,.22-14.67-.57-.28-.04-.57-.01-.85-.01-1.76,0-1.83,.12-2.2,1.86-.28,1.32,.12,2.6,.06,3.91-.09,2.03-.06,2.03,2.06,2.15,.36,.02,.84-.14,.99,.57-.86,0-1.69,0-2.52,0-.33,0-.74-.16-.87,.29-.35,1.16-1.19,2.02-2.07,3.11Zm27.25-2.16c-1.31,.06-1.81-1.01-2.66-1.51-1.24-.73-.19-1.86-.47-2.77-.1-.31,0-.68-.03-1.02-.11-1.28-.32-2.54-1.3-3.54-.03,2.21-.03,4.41-.09,6.6-.05,1.79-.28,3.51-1.39,4.99-.12,.16-.3,.37,.08,.68,2.35-.27,3.91-2.06,5.86-3.44Z"/><path class="cls-9" d="M131.38,200.2s.06,.03,.08,.06c.04,.05,.05,.12,.06,.19,.03,.25,.48,3.38,.84,3.19,.78-.41,1.27-1.06,1.7-1.77,.23-.39,.44-.8,.73-1.14,.32-.38,.83-.41,.86,.15,.13,2.16,.71,4.26,.7,6.43,0,.3-.04,.61-.44,.55-.39-.06-.31-.39-.29-.68,.14-1.81-.23-3.56-.63-5.52-.85,1.03-1.55,1.9-2.26,2.77-.99,1.22-1.31-1.33-1.51-1.85-.02-.05-.04-.11-.09-.14-.27-.17-.39,1.19-.44,1.41-.1,.44-.27,.89-.32,1.35-.08,.71-.2,1.37-.22,2.09,0,.11,0,.22-.05,.32s-.15,.18-.26,.16c-.19-.03-.23-.28-.22-.47,.07-1.19,.16-2.39,.39-3.56,.11-.57,.26-1.14,.45-1.69,.17-.5,.24-1.06,.46-1.52,.05-.11,.11-.21,.21-.27,.07-.04,.16-.06,.24-.03Z"/></g><g><path class="cls-3" d="M106.39,163.55c-.45-.21-.81-.02-1.14,.29-.67,.64-1.02,1.45-1.12,2.43-.53-.07-.65-.27-.77-.48-.51-.89-1.13-1.24-1.61-.86-.64,.51-.23,1.1,.02,1.62,.83,1.7,2.37,2.81,3.55,4.68,.65-2.11,.89-3.91,1.53-5.59,.09-.22,.1-.47,.14-.71,.02-.12,0-.24,0-.36,0-.46-.19-.83-.61-1.03Z"/><path class="cls-9" d="M107.93,164.65c-.11,.4-.25,.99-.44,1.55-.63,1.83-1.12,3.68-1.07,5.63,0,.3,.03,.62-.19,.86-.3,.32-.72,.65-.99,.05-.85-1.84-2.31-3.22-3.47-4.82-.25-.34-.52-.67-.72-1.04-.41-.76-.77-1.62-.2-2.38,.51-.68,1.4-.71,2.15-.39,.67,.29,1,0,1.36-.46,.15-.19,.32-.36,.48-.54,.46-.52,.96-.94,1.72-.62,.76,.32,1.37,1.19,1.37,2.16Zm-3.8,1.63c-.53-.07-.65-.27-.77-.48-.51-.89-1.13-1.24-1.61-.86-.64,.51-.23,1.1,.02,1.62,.83,1.7,2.37,2.81,3.55,4.68,.65-2.11,.89-3.91,1.53-5.59,.09-.22,.1-.47,.14-.71,.02-.12,0-.24,0-.36,0-.46-.19-.83-.61-1.03-.45-.21-.81-.02-1.14,.29-.67,.64-1.02,1.45-1.12,2.43Z"/></g></g><g><g><path class="cls-4" d="M3.74,191.88c2.86-.34,5.69,0,8.52,.27,1.77,.17,2.15,.08,2.92-1.44,.25-.5,.38-1.07,.47-1.63,.36-2.32,.36-4.65,.22-6.99-.1-1.7-.23-1.82-1.93-1.84-4.89-.06-9.8,.22-14.67-.57-.28-.04-.57-.01-.85-.01-1.76,0-1.83,.12-2.2,1.86-.28,1.32,.12,2.6,.06,3.91-.09,2.03-.06,2.03,2.06,2.15,.36,.02,.84-.14,.99,.57-.86,0-1.69,0-2.52,0-.33,0-.74-.16-.87,.29-.35,1.16-1.19,2.02-2.07,3.11,1.68,.06,3.15-.02,4.58,.21,1.77,.28,3.53,.33,5.28,.12Z"/><path class="cls-7" d="M15.28,192.83c2.35-.27,3.91-2.06,5.86-3.44-1.31,.06-1.81-1.01-2.66-1.51-1.24-.73-.19-1.86-.47-2.77-.1-.31,0-.68-.03-1.02-.11-1.28-.32-2.54-1.3-3.54-.03,2.21-.03,4.41-.09,6.6-.05,1.79-.28,3.51-1.39,4.99-.12,.16-.3,.37,.08,.68Z"/><path class="cls-4" d="M14.38,214.02c.35-3.75,.79-7.49,.51-11.26,0-2.17,.05-4.34-.01-6.5-.06-2.01-.56-2.8-2.18-3.18-2.39-.57-4.86-.79-7.3-.67-2.34,.11-4.65,.3-6.98-.04-1.64-.24-3.3-.11-4.96-.09-.71,0-1.15,.33-1.45,.98-.62,1.33-.83,2.72-.79,4.16,.06,2.16,.12,4.33,.22,6.49,.22,4.77-.02,9.56,.52,14.32,.44,3.84,.43,7.71,.82,11.56,.2,1.97,.3,2.12,2.16,2.68,2.13,.64,4.33,.99,6.52,1.38,3.85,.69,7.73,.49,11.59,.06,1.33-.15,1.61-.56,1.43-1.79-.86-6.03-.64-12.06-.08-18.09Z"/><path class="cls-7" d="M22.1,189.98c-.42-.09-.6,.15-.83,.31-1.79,1.2-3.42,2.68-5.53,3.35-.61,.19-.54,.64-.51,1.1,.1,1.48,.24,2.96,.28,4.44,.1,3.31,.2,6.62-.06,9.92-.41,5.16-1.02,10.32-.89,15.51,.06,2.57,.33,5.12,.68,7.66,.1,.7,.42,.92,1.03,.58,1-.54,2.05-1.03,2.97-1.69,2.78-2.01,2.75-2.17,2.92-5.63,.18-3.64,.38-7.28,.43-10.92,.03-2.11,.27-4.2,.33-6.31,.13-4.85-.37-9.68-.4-14.52,0-1.27,.14-2.61-.42-3.79Z"/><path class="cls-6" d="M14.95,208.92c-.02-.63-.08-1.23-.06-1.48,.09-1.3,.19-2.6,.28-3.9,.06-.86,.11-1.73,.19-2.59,.07-.81,.41-2.07-.66-2.4-.54-.16-1.24-.13-1.8-.21-.63-.09-1.26-.16-1.89-.22-1.3-.13-2.6-.2-3.91-.25-3.11-.12-6.2-.29-9.31-.36-1.2-.03-2.4-.06-3.61-.09-.75-.02-2.72-.45-3.09,.44-.14,.35-.08,.75,0,1.12,.31,1.54,.03,3.21,.02,4.78-.02,1.94,.14,3.87,.08,5.8,0,.11,0,.23,.07,.32,.09,.11,.26,.13,.4,.11,1.84-.26,3.82-.06,5.67,.05,2.8,.16,5.56,.38,8.37,.46l8.75,.26c.48,.01,.53-.93,.5-1.83Z"/><path class="cls-8" d="M23.17,204.91c-.04-.06-.08-.12-.13-.17v-.02c.17-2.52,.12-5.05-.16-7.57,0-.08-.03-.16-.05-.24,.05-.1,.09-.21,.1-.32,.23-.31,.28-.76,.07-1.09-.29-.46-.85-.6-1.33-.35-1.82,.97-3.59,1.77-5.46,2.47-.12,.04-.23,.11-.33,.19-.42,.2-.72,.66-.56,1.14,.02,.08,.06,.15,.1,.22,0,.03,0,.05,0,.08,0,1.56,.01,3.12,.02,4.68,0,1.44,.03,2.88-.36,4.28-.05,.19-.05,.36,0,.52,0,0-.01,.02-.02,.03l-.02,.06s-.02,.02-.02,.03c-.07,.11-.11,.23-.12,.36-.03,.13-.02,.26,.02,.39l.1,.23c.09,.15,.2,.26,.35,.35l.23,.1c.17,.05,.34,.05,.52,0,.08-.03,.17-.06,.24-.1h0s.07-.05,.09-.07c2.13-1.28,4.28-2.54,6.39-3.86,.44-.28,.62-.86,.35-1.33Z"/><g><path class="cls-9" d="M22.74,188.34c-.04,2.52,.53,4.86,.41,7.27-.14,2.85,.37,5.68,.35,8.54-.02,3.48-.1,6.95-.32,10.42-.02,.34-.11,.68-.09,1.02,.16,4.17-.54,8.31-.39,12.48,.04,1.13-.13,1.82-1.35,2.33-1.45,.6-2.62,1.78-3.96,2.65-1.61,1.04-3.36,1.45-5.14,1.55-1.41,.08-2.84,.14-4.24,.23-3.47,.22-6.81-.43-10.18-1-1.84-.31-3.54-1.21-5.42-1.36-.32-.03-.37-.35-.38-.66-.06-2.79-.13-5.58-.22-8.37-.06-1.82-.35-3.62-.47-5.44-.26-3.81-.42-7.61-.41-11.43,0-2.62-.18-5.25-.33-7.87-.09-1.67,.09-3.3,.43-4.93,.28-1.37,.92-2.45,2.17-3.11,1.61-.84,2.19-2.24,2.2-3.96,0-1.2-.03-2.4-.01-3.59,.01-1.08,.15-2.12,.49-3.18,.28-.89,.65-.99,1.45-.92,4.15,.34,8.29,.66,12.46,.61,1.94-.02,3.88,.05,5.8-.28,.95-.16,1.49,.2,1.95,.98,.6,1,.96,2.06,1.07,3.21,.05,.51,.06,1.03,.07,1.54,.08,2.65,1.28,3.68,4.07,3.26Zm-7.85,14.42c0-2.17,.05-4.34-.01-6.5-.06-2.01-.56-2.8-2.18-3.18-2.39-.57-4.86-.79-7.3-.67-2.34,.11-4.65,.3-6.98-.04-1.64-.24-3.3-.11-4.96-.09-.71,0-1.15,.33-1.45,.98-.62,1.33-.83,2.72-.79,4.16,.06,2.16,.12,4.33,.22,6.49,.22,4.77-.02,9.56,.52,14.32,.44,3.84,.43,7.71,.82,11.56,.2,1.97,.3,2.12,2.16,2.68,2.13,.64,4.33,.99,6.52,1.38,3.85,.69,7.73,.49,11.59,.06,1.33-.15,1.61-.56,1.43-1.79-.86-6.03-.64-12.06-.08-18.09,.35-3.75,.79-7.49,.51-11.26Zm7.22-12.78c-.42-.09-.6,.15-.83,.31-1.79,1.2-3.42,2.68-5.53,3.35-.61,.19-.54,.64-.51,1.1,.1,1.48,.24,2.96,.28,4.43,.1,3.31,.2,6.62-.06,9.92-.41,5.16-1.02,10.32-.89,15.51,.06,2.57,.33,5.12,.68,7.66,.1,.7,.42,.92,1.03,.58,1-.54,2.05-1.03,2.97-1.69,2.78-2.01,2.75-2.17,2.92-5.63,.18-3.64,.38-7.28,.43-10.92,.03-2.11,.27-4.2,.33-6.31,.12-4.85-.37-9.68-.4-14.52,0-1.27,.14-2.61-.42-3.79Zm-28.22,1.57c1.68,.06,3.15-.02,4.58,.21,1.77,.28,3.53,.33,5.28,.12,2.86-.34,5.69,0,8.52,.27,1.77,.17,2.15,.08,2.92-1.44,.25-.5,.38-1.07,.47-1.63,.36-2.32,.36-4.65,.22-6.99-.1-1.7-.23-1.82-1.93-1.84-4.89-.06-9.8,.22-14.67-.57-.28-.04-.57-.01-.85-.01-1.76,0-1.83,.12-2.2,1.86-.28,1.32,.12,2.6,.06,3.91-.09,2.03-.06,2.03,2.06,2.15,.36,.02,.84-.14,.99,.57-.86,0-1.69,0-2.52,0-.33,0-.74-.16-.87,.29-.35,1.16-1.19,2.02-2.07,3.11Zm27.25-2.16c-1.31,.06-1.81-1.01-2.66-1.51-1.24-.73-.19-1.86-.47-2.77-.1-.31,0-.68-.03-1.02-.11-1.28-.32-2.54-1.3-3.54-.03,2.21-.03,4.41-.09,6.6-.05,1.79-.28,3.51-1.39,4.99-.12,.16-.3,.37,.08,.68,2.35-.27,3.91-2.06,5.86-3.44Z"/><path class="cls-9" d="M8.57,188.43c2.1-.3,4.12,.21,6.16,.63-2.09,.32-4.13-.04-6.16-.63Z"/><path class="cls-9" d="M13.71,186.38c.33-1.29,.07-2.6,.26-3.89,.6,.84,.52,2.59-.26,3.89Z"/><path class="cls-9" d="M5.87,188.21c-1.15,.37-1.88,.03-2.74,.04q.76-.71,2.74-.04Z"/><path class="cls-9" d="M12.63,184.3c.43,.81,.32,1.52-.35,2.12,.12-.71,.23-1.42,.35-2.12Z"/><path class="cls-9" d="M10.83,185.13c.25,.76-.05,1.15-.25,1.57-.31-.53-.07-.94,.25-1.57Z"/></g><g><path class="cls-9" d="M9.73,200.77c.04,.49,0,1.01,.03,1.44,.07,1.21,.94,1.02,1.52,.32,.37-.45,.51-.78,.64-1.35,.08-.32,.2-.66,.45-.87,.07-.06,.18-.12,.27-.08,.13,.05,.14,.24,.11,.38-.22,1.18-.85,2.04-1.73,2.84-.45,.41-.4,.72-.05,1.15s.72,.82,1.1,1.19c.3,.3,.7,.45,1,.76,.12,.12,.22,.26,.24,.43,.13,1.06-1.24-.25-1.39-.4-.57-.56-1.01-1.29-1.76-1.64-.39,.68-.18,1.4-.18,2.1,0,.29,.03,.61-.39,.58-.29-.02-.31-.29-.3-.52,.09-2.05-.02-4.09-.09-6.15,0-.18-.02-1.1,.36-.88,.15,.09,.15,.55,.16,.71Z"/><path class="cls-9" d="M.74,200.63s-.04-.09-.05-.15l2.33-.15c.21-.01,.44-.02,.62,.1,.73,.5-.46,.49-.63,.51-.35,.05-.49,.21-.46,.56,.14,1.71,.06,3.51,.37,5.2,.04,.22,.29,.33,.5,.38s.46,.07,.62,.23c.02,.02,.05,.05,.05,.09,.01,.1-.12,.15-.22,.16-.85,.08-1.76,.12-2.61,.01-.03,0-.07,0-.1-.03-.07-.05-.03-.17,.05-.22s.17-.03,.26-.04c.85-.04,.88-1.04,.82-1.67-.09-1.02-.24-2.03-.2-3.06,.01-.35-.02-1.45-.39-1.6-.35-.14-.71,.08-.95-.32Z"/><path class="cls-9" d="M5.32,200.86s0-.05,0-.07c.02-.13,.05-.26,.13-.36s.23-.16,.35-.11c.15,.06,.19,.25,.21,.41,.13,1.2-.12,2.4-.19,3.61-.17,2.95-.07,2.52,2.18,2.58,.17,0,.33,.02,.52,.37-1.05,.44-2.08,.13-3.09,.09-.25,0-.45-.25-.41-.46,.2-1.01,.22-2.05,.26-3.07,.02-.53,.06-1.06,.09-1.59,.02-.47-.1-.91-.05-1.38Z"/></g></g><g><path class="cls-3" d="M51.72,174.47c-.45-.21-.81-.02-1.14,.29-.67,.64-1.02,1.45-1.12,2.43-.53-.07-.65-.27-.77-.48-.51-.89-1.13-1.24-1.61-.86-.64,.51-.23,1.1,.02,1.62,.83,1.7,2.37,2.81,3.55,4.68,.65-2.11,.89-3.91,1.53-5.59,.09-.22,.1-.47,.14-.71,.02-.12,0-.24,0-.36,0-.46-.19-.83-.61-1.03Z"/><path class="cls-9" d="M53.26,175.56c-.11,.4-.25,.99-.44,1.55-.63,1.83-1.12,3.68-1.07,5.63,0,.3,.03,.62-.19,.86-.3,.32-.72,.65-.99,.05-.85-1.84-2.31-3.22-3.47-4.82-.25-.34-.52-.67-.72-1.04-.41-.76-.77-1.62-.2-2.38,.51-.68,1.4-.71,2.15-.39,.67,.29,1,0,1.36-.46,.15-.19,.32-.36,.48-.54,.46-.52,.96-.94,1.72-.62,.76,.32,1.37,1.19,1.37,2.16Zm-3.8,1.63c-.53-.07-.65-.27-.77-.48-.51-.89-1.13-1.24-1.61-.86-.64,.51-.23,1.1,.02,1.62,.83,1.7,2.37,2.81,3.55,4.68,.65-2.11,.89-3.91,1.53-5.59,.09-.22,.1-.47,.14-.71,.02-.12,0-.24,0-.36,0-.46-.19-.83-.61-1.03-.45-.21-.81-.02-1.14,.29-.67,.64-1.02,1.45-1.12,2.43Z"/></g></g><g><g><path class="cls-4" d="M72.01,86.86c2.86-.34,5.69,0,8.52,.27,1.77,.17,2.15,.08,2.92-1.44,.25-.5,.38-1.07,.47-1.63,.36-2.32,.36-4.65,.22-6.99-.1-1.7-.23-1.82-1.93-1.84-4.89-.06-9.8,.22-14.67-.57-.28-.04-.57-.01-.85-.01-1.76,0-1.83,.12-2.2,1.86-.28,1.32,.12,2.6,.06,3.91-.09,2.03-.06,2.03,2.06,2.15,.36,.02,.84-.14,.99,.57-.86,0-1.69,0-2.52,0-.33,0-.74-.16-.87,.29-.35,1.16-1.19,2.02-2.07,3.11,1.68,.06,3.15-.02,4.58,.21,1.77,.28,3.53,.33,5.28,.12Z"/><path class="cls-7" d="M83.54,87.81c2.35-.27,3.91-2.06,5.86-3.44-1.31,.06-1.81-1.01-2.66-1.51-1.24-.73-.19-1.86-.47-2.77-.1-.31,0-.68-.03-1.02-.11-1.28-.32-2.54-1.3-3.54-.03,2.21-.03,4.41-.09,6.6-.05,1.79-.28,3.51-1.39,4.99-.12,.16-.3,.37,.08,.68Z"/><path class="cls-4" d="M82.65,109c.35-3.75,.79-7.49,.51-11.26,0-2.17,.05-4.34-.01-6.5-.06-2.01-.56-2.8-2.18-3.18-2.39-.57-4.86-.79-7.3-.67-2.34,.11-4.65,.3-6.98-.04-1.64-.24-3.3-.11-4.96-.09-.71,0-1.15,.33-1.45,.98-.62,1.33-.83,2.72-.79,4.16,.06,2.16,.12,4.33,.22,6.49,.22,4.77-.02,9.56,.52,14.32,.44,3.84,.43,7.71,.82,11.56,.2,1.97,.3,2.12,2.16,2.68,2.13,.64,4.33,.99,6.52,1.38,3.85,.69,7.73,.49,11.59,.06,1.33-.15,1.61-.56,1.43-1.79-.86-6.03-.64-12.06-.08-18.09Z"/><path class="cls-7" d="M90.37,84.96c-.42-.09-.6,.15-.83,.31-1.79,1.2-3.42,2.68-5.53,3.35-.61,.19-.54,.64-.51,1.1,.1,1.48,.24,2.96,.28,4.44,.1,3.31,.2,6.62-.06,9.92-.41,5.16-1.02,10.32-.89,15.51,.06,2.57,.33,5.12,.68,7.66,.1,.7,.42,.92,1.03,.58,1-.54,2.05-1.03,2.97-1.69,2.78-2.01,2.75-2.17,2.92-5.63,.18-3.64,.38-7.28,.43-10.92,.03-2.11,.27-4.2,.33-6.31,.13-4.85-.37-9.68-.4-14.52,0-1.27,.14-2.61-.42-3.79Z"/><path class="cls-6" d="M83.21,103.9c-.02-.63-.08-1.23-.06-1.48,.09-1.3,.19-2.6,.28-3.9,.06-.86,.11-1.73,.19-2.59,.07-.81,.41-2.07-.66-2.4-.54-.16-1.24-.13-1.8-.21-.63-.09-1.26-.16-1.89-.22-1.3-.13-2.6-.2-3.91-.25-3.11-.12-6.2-.29-9.31-.36-1.2-.03-2.4-.06-3.61-.09-.75-.02-2.72-.45-3.09,.44-.14,.35-.08,.75,0,1.12,.31,1.54,.03,3.21,.02,4.78-.02,1.94,.14,3.87,.08,5.8,0,.11,0,.23,.07,.32,.09,.11,.26,.13,.4,.11,1.84-.26,3.82-.06,5.67,.05,2.8,.16,5.56,.38,8.37,.46l8.75,.26c.48,.01,.53-.93,.5-1.83Z"/><path class="cls-8" d="M91.44,99.89c-.04-.06-.08-.12-.13-.17v-.02c.17-2.52,.12-5.05-.16-7.57,0-.08-.03-.16-.05-.24,.05-.1,.09-.21,.1-.32,.23-.31,.28-.76,.07-1.09-.29-.46-.85-.6-1.33-.35-1.82,.97-3.59,1.77-5.46,2.47-.12,.04-.23,.11-.33,.19-.42,.2-.72,.66-.56,1.14,.02,.08,.06,.15,.1,.22,0,.03,0,.05,0,.08,0,1.56,.01,3.12,.02,4.68,0,1.44,.03,2.88-.36,4.28-.05,.19-.05,.36,0,.52,0,0-.01,.02-.02,.03l-.02,.06s-.02,.02-.02,.03c-.07,.11-.11,.23-.12,.36-.03,.13-.02,.26,.02,.39l.1,.23c.09,.15,.2,.26,.35,.35l.23,.1c.17,.05,.34,.05,.52,0,.08-.03,.17-.06,.24-.1h0s.07-.05,.09-.07c2.13-1.28,4.28-2.54,6.39-3.86,.44-.28,.62-.86,.35-1.33Z"/><g><g><path class="cls-4" d="M71.37,110.62c.36,.04,.72,.08,1.09,.11,1,.06,1.59,.62,1.89,1.54,.09,.28,.21,.55,.24,.84,.04,.42,.35,.92,0,1.26-.41,.39-.78-.14-1.18-.24-.88-.21-1.74-.11-2.61,0-.72,.09-1.44,.22-2.15,.34-.31,.05-.46-.05-.49-.39-.14-1.8,1.48-3.53,3.23-3.45Zm1.08,2.58c-.02,.35,.35,.66,.75,.63,.34-.03,.71-.14,.67-.56-.05-.43-.46-.52-.8-.59-.36,.02-.6,.15-.62,.51Zm-2.58,.51c.35,.05,.63-.12,.71-.51-.03-.35-.18-.65-.56-.69-.36-.04-.63,.15-.7,.53-.07,.41,.21,.62,.54,.67Z"/><path class="cls-4" d="M68.05,112.08c-.22-.29-.53-.63-1.01-.55-.14,.02-.29,.04-.43,.09-1.09,.44-1.95,1.11-2.31,2.45,1.43,.13,2.5-.29,3.4-1.18,.22-.22,.58-.49,.34-.81Z"/><path class="cls-4" d="M76.41,110.98c-.48-.12-.73,.09-.94,.5-.2,.39-.3,.69,.07,1.05,.69,.67,1.63,.52,2.24,.84,.78,0,.91-.19,.65-.72-.43-.86-1.09-1.44-2.03-1.68Z"/></g><path class="cls-5" d="M74.28,111.71c-.24-.33-.55-.62-.91-.82-.19-.11-.66-.36-.94-.28-.19-.14-.51,.08-.35,.31,.24,.37-.2,.86-.33,1.2-.17,.43-.23,.97-.07,1.42,.16,.48,.62,.63,1.07,.74,.49,.12,.94,.04,1.34-.28,.34-.28,.62-.68,.62-1.13,0-.41-.2-.84-.44-1.17Z"/><path class="cls-5" d="M66.63,113.84c-.15,.13-.35,.2-.53,.28-.09,.04-.17,.08-.26,.1-.06,.02-.11,.01-.16,0-.09,.08-.24,.07-.32-.01-.15-.16-.2-.4-.13-.61,.07-.2,.21-.34,.32-.52,.01-.02,.03-.05,.04-.07,0,0,.03-.07,0-.02,.02-.05,.03-.1,.05-.14,.06-.11,.16-.15,.27-.19,.22-.07,.44-.03,.61,.13,.13,.12,.21,.3,.24,.47,.04,.21,.02,.44-.15,.59Z"/><path class="cls-3" d="M72.03,114.41c1.37-.06,2.6,.52,3.72,1.15,.89,.5,1.39,1.47,1.29,2.61-.09,.94-.55,1.53-1.47,1.83-1.3,.42-2.6,.74-3.97,.7-1.3,.06-2.52-.35-3.75-.66-.66-.17-.91-.71-1.19-1.21-.81-1.44,.09-3.56,1.69-3.93,1.21-.28,2.45-.44,3.69-.49Zm-1.64,2.22c-.02-.58-.46-1.09-.89-1.04-.42,.05-.86,.58-.83,.99,.05,.54,.42,.96,.85,.97,.46,.01,.88-.43,.87-.92Zm2.68,2.12c-.87,.71-1.78,.81-2.91,.16,.82,1.14,2.16,1.01,2.91-.16Zm-.61-2.12c-.03,.48,.52,1.12,.97,1.11,.43,0,.93-.47,.94-.88,.02-.54-.44-1.19-.86-1.23-.51-.05-1.01,.42-1.05,.99Z"/><g><path class="cls-5" d="M69.56,116.05c-.36,0-.44,.34-.47,.62-.03,.29,.14,.47,.44,.49,.32,0,.47-.18,.46-.48-.01-.29-.07-.63-.43-.64Z"/><path class="cls-5" d="M73.48,117.36c.33,.02,.58-.18,.53-.54-.04-.32-.13-.65-.59-.75-.25,.15-.59,.3-.58,.68,0,.38,.29,.59,.65,.61Z"/></g><g><path class="cls-5" d="M68.63,111.53c.29-.23,.39-.52,.08-.83-.83-.84-1.29-1.82-1.09-3.05-.81,1.17-.65,2.78,.26,3.7,.22,.23,.45,.41,.74,.18Z"/><path class="cls-5" d="M75.78,107.6c-.49,1.13-.78,2.35-1.89,3.04l.79,1.16c1.05-.98,1.58-2.97,1.1-4.2Z"/></g><g><path class="cls-5" d="M73.18,113.48c.11,.01,.2-.04,.24-.16,0-.14-.09-.18-.2-.19-.11,0-.23,.02-.24,.14-.01,.12,.08,.19,.2,.21Z"/><path class="cls-5" d="M69.92,113.32c.14,.03,.19-.06,.22-.16,.04-.13-.05-.19-.16-.21-.12-.03-.19,.05-.22,.16-.03,.13,.06,.18,.16,.22Z"/></g></g><g><path class="cls-9" d="M91,83.32c-.04,2.52,.53,4.86,.41,7.27-.14,2.85,.37,5.68,.35,8.54-.02,3.48-.1,6.95-.32,10.42-.02,.34-.11,.68-.09,1.02,.16,4.17-.54,8.31-.39,12.48,.04,1.13-.13,1.82-1.35,2.33-1.45,.6-2.62,1.78-3.96,2.65-1.61,1.04-3.36,1.45-5.14,1.55-1.41,.08-2.84,.14-4.24,.23-3.47,.22-6.81-.43-10.18-1-1.84-.31-3.54-1.21-5.42-1.36-.32-.03-.37-.35-.38-.66-.06-2.79-.13-5.58-.22-8.37-.06-1.82-.35-3.62-.47-5.44-.26-3.81-.42-7.61-.41-11.43,0-2.62-.18-5.25-.33-7.87-.09-1.67,.09-3.3,.43-4.93,.28-1.37,.92-2.45,2.17-3.11,1.61-.84,2.19-2.24,2.2-3.96,0-1.2-.03-2.4-.01-3.59,.01-1.08,.15-2.12,.49-3.18,.28-.89,.65-.99,1.45-.92,4.15,.34,8.29,.66,12.46,.61,1.94-.02,3.88,.05,5.8-.28,.95-.16,1.49,.2,1.95,.98,.6,1,.96,2.06,1.07,3.21,.05,.51,.06,1.03,.07,1.54,.08,2.65,1.28,3.68,4.07,3.26Zm-7.85,14.42c0-2.17,.05-4.34-.01-6.5-.06-2.01-.56-2.8-2.18-3.18-2.39-.57-4.86-.79-7.3-.67-2.34,.11-4.65,.3-6.98-.04-1.64-.24-3.3-.11-4.96-.09-.71,0-1.15,.33-1.45,.98-.62,1.33-.83,2.72-.79,4.16,.06,2.16,.12,4.33,.22,6.49,.22,4.77-.02,9.56,.52,14.32,.44,3.84,.43,7.71,.82,11.56,.2,1.97,.3,2.12,2.16,2.68,2.13,.64,4.33,.99,6.52,1.38,3.85,.69,7.73,.49,11.59,.06,1.33-.15,1.61-.56,1.43-1.79-.86-6.03-.64-12.06-.08-18.09,.35-3.75,.79-7.49,.51-11.26Zm7.22-12.78c-.42-.09-.6,.15-.83,.31-1.79,1.2-3.42,2.68-5.53,3.35-.61,.19-.54,.64-.51,1.1,.1,1.48,.24,2.96,.28,4.43,.1,3.31,.2,6.62-.06,9.92-.41,5.16-1.02,10.32-.89,15.51,.06,2.57,.33,5.12,.68,7.66,.1,.7,.42,.92,1.03,.58,1-.54,2.05-1.03,2.97-1.69,2.78-2.01,2.75-2.17,2.92-5.63,.18-3.64,.38-7.28,.43-10.92,.03-2.11,.27-4.2,.33-6.31,.12-4.85-.37-9.68-.4-14.52,0-1.27,.14-2.61-.42-3.79Zm-28.22,1.57c1.68,.06,3.15-.02,4.58,.21,1.77,.28,3.53,.33,5.28,.12,2.86-.34,5.69,0,8.52,.27,1.77,.17,2.15,.08,2.92-1.44,.25-.5,.38-1.07,.47-1.63,.36-2.32,.36-4.65,.22-6.99-.1-1.7-.23-1.82-1.93-1.84-4.89-.06-9.8,.22-14.67-.57-.28-.04-.57-.01-.85-.01-1.76,0-1.83,.12-2.2,1.86-.28,1.32,.12,2.6,.06,3.91-.09,2.03-.06,2.03,2.06,2.15,.36,.02,.84-.14,.99,.57-.86,0-1.69,0-2.52,0-.33,0-.74-.16-.87,.29-.35,1.16-1.19,2.02-2.07,3.11Zm27.25-2.16c-1.31,.06-1.81-1.01-2.66-1.51-1.24-.73-.19-1.86-.47-2.77-.1-.31,0-.68-.03-1.02-.11-1.28-.32-2.54-1.3-3.54-.03,2.21-.03,4.41-.09,6.6-.05,1.79-.28,3.51-1.39,4.99-.12,.16-.3,.37,.08,.68,2.35-.27,3.91-2.06,5.86-3.44Z"/><path class="cls-9" d="M89.25,117.66c.57,1.76,.16,3.43-.53,5.06,.06-1.7,.54-3.35,.53-5.06Z"/><path class="cls-9" d="M85.78,125.02c.21-.89,.24-1.78,.2-2.79,.8,1.04,.79,1.22-.2,2.79Z"/><path class="cls-9" d="M88.08,120.81c.09,.91-.1,1.78-.71,2.6,.11-.88,.22-1.76,.33-2.64l.38,.03Z"/><path class="cls-9" d="M76.83,83.41c2.1-.3,4.12,.21,6.16,.63-2.09,.32-4.13-.04-6.16-.63Z"/><path class="cls-9" d="M81.97,81.36c.33-1.29,.07-2.6,.26-3.89,.6,.84,.52,2.59-.26,3.89Z"/><path class="cls-9" d="M74.13,83.19c-1.15,.37-1.88,.03-2.74,.04q.76-.71,2.74-.04Z"/><path class="cls-9" d="M80.9,79.28c.43,.81,.32,1.52-.35,2.12,.12-.71,.23-1.42,.35-2.12Z"/><path class="cls-9" d="M79.1,80.11c.25,.76-.05,1.15-.25,1.57-.31-.53-.07-.94,.25-1.57Z"/></g><g><path class="cls-9" d="M63.12,95.18s.06,.03,.08,.06c.04,.05,.05,.12,.06,.19,.03,.25,.48,3.38,.84,3.19,.78-.41,1.27-1.06,1.7-1.77,.23-.39,.44-.8,.73-1.14,.32-.38,.83-.41,.86,.15,.13,2.16,.71,4.26,.7,6.43,0,.3-.04,.61-.44,.55-.39-.06-.31-.39-.29-.68,.14-1.81-.23-3.56-.63-5.52-.85,1.03-1.55,1.9-2.26,2.77-.99,1.22-1.31-1.33-1.51-1.85-.02-.05-.04-.11-.09-.14-.27-.17-.39,1.19-.44,1.41-.1,.44-.27,.89-.32,1.35-.08,.71-.2,1.37-.22,2.09,0,.11,0,.22-.05,.32s-.15,.18-.26,.16c-.19-.03-.23-.28-.22-.47,.07-1.19,.16-2.39,.39-3.56,.11-.57,.26-1.14,.45-1.69,.17-.5,.24-1.06,.46-1.52,.05-.11,.11-.21,.21-.27,.07-.04,.16-.06,.24-.03Z"/><path class="cls-9" d="M77.99,95.75c.04,.49,0,1.01,.03,1.44,.07,1.21,.94,1.02,1.52,.32,.37-.45,.51-.78,.64-1.35,.08-.32,.2-.66,.45-.87,.07-.06,.18-.12,.27-.08,.13,.05,.14,.24,.11,.38-.22,1.18-.85,2.04-1.73,2.84-.45,.41-.4,.72-.05,1.15s.72,.82,1.1,1.19c.3,.3,.7,.45,1,.76,.12,.12,.22,.26,.24,.43,.13,1.06-1.24-.25-1.39-.4-.57-.56-1.01-1.29-1.76-1.64-.39,.68-.18,1.4-.18,2.1,0,.29,.03,.61-.39,.58-.29-.02-.31-.29-.3-.52,.09-2.05-.02-4.09-.09-6.15,0-.18-.02-1.1,.36-.88,.15,.09,.15,.55,.16,.71Z"/><path class="cls-9" d="M69,95.61s-.04-.09-.05-.15l2.33-.15c.21-.01,.44-.02,.62,.1,.73,.5-.46,.49-.63,.51-.35,.05-.49,.21-.46,.56,.14,1.71,.06,3.51,.37,5.2,.04,.22,.29,.33,.5,.38s.46,.07,.62,.23c.02,.02,.05,.05,.05,.09,.01,.1-.12,.15-.22,.16-.85,.08-1.76,.12-2.61,.01-.03,0-.07,0-.1-.03-.07-.05-.03-.17,.05-.22s.17-.03,.26-.04c.85-.04,.88-1.04,.82-1.67-.09-1.02-.24-2.03-.2-3.06,.01-.35-.02-1.45-.39-1.6-.35-.14-.71,.08-.95-.32Z"/><path class="cls-9" d="M73.59,95.84s0-.05,0-.07c.02-.13,.05-.26,.13-.36s.23-.16,.35-.11c.15,.06,.19,.25,.21,.41,.13,1.2-.12,2.4-.19,3.61-.17,2.95-.07,2.52,2.18,2.58,.17,0,.33,.02,.52,.37-1.05,.44-2.08,.13-3.09,.09-.25,0-.45-.25-.41-.46,.2-1.01,.22-2.05,.26-3.07,.02-.53,.06-1.06,.09-1.59,.02-.47-.1-.91-.05-1.38Z"/></g><g><path class="cls-9" d="M75.04,112.75c-.03,.71,.2,1.23,.1,1.78-.06,.35,.28,.35,.5,.47,1.59,.87,2.21,2.68,1.45,4.21-.18,.37-.43,.62-.83,.82-2.88,1.41-5.81,1.31-8.73,.28-1.1-.39-1.46-1.45-1.43-2.51,.03-1.16,.12-2.38,1.35-3.04,.48-.26,.23-.7,.36-1.22-.69,.28-1.25,.49-1.79,.73-.41,.18-.84,.24-1.29,.22-.8-.04-.93-.23-.63-.94,.42-.99,1.17-1.66,2.12-2.14,.79-.4,.77-.4,.65-1.26-.17-1.19-.04-2.33,.63-3.38,.24-.38,.48-.71,1.02-.65,.06,.45-.22,.72-.35,1.05-.46,1.18-.18,2.38,.76,3.19,.19,.17,.39,.33,.68,.17,.97-.51,1.99-.35,3-.16,.77,.15,1.59-.17,1.96-.85,.38-.7,.8-1.41,.72-2.26-.02-.24-.14-.58,.21-.64,.28-.05,.44,.24,.55,.46,.24,.49,.46,1,.32,1.57-.07,.28-.09,.58-.16,.86-.21,.93-.21,.93,.69,1.26,.99,.36,1.6,1.13,2.08,2.01,.24,.45,.09,.77-.4,.93-.28,.1-.59,.1-.87,.03-.87-.24-1.8-.31-2.7-.98Zm-3.45,7.95c1.37,.04,2.67-.28,3.97-.7,.92-.29,1.38-.89,1.47-1.83,.11-1.14-.4-2.11-1.29-2.61-1.12-.63-2.35-1.21-3.72-1.15-1.24,.05-2.48,.2-3.69,.49-1.59,.37-2.49,2.49-1.69,3.93,.28,.5,.53,1.04,1.19,1.21,1.24,.32,2.45,.73,3.75,.66Zm-.23-10.08c-1.75-.08-3.36,1.65-3.23,3.45,.03,.35,.18,.44,.49,.39,.72-.12,1.43-.25,2.15-.34,.87-.11,1.73-.21,2.61,0,.39,.1,.77,.63,1.18,.24,.36-.34,.05-.84,0-1.26-.03-.28-.15-.56-.24-.84-.3-.92-.89-1.47-1.89-1.54-.36-.02-.72-.07-1.09-.11Zm-7.06,3.44c1.43,.13,2.5-.29,3.4-1.18,.22-.22,.58-.49,.34-.81-.22-.29-.53-.63-1.01-.55-.14,.02-.29,.04-.43,.09-1.09,.44-1.95,1.11-2.31,2.45Zm13.48-.7c.78,0,.91-.19,.65-.72-.43-.86-1.09-1.44-2.03-1.68-.48-.12-.73,.09-.94,.5-.2,.39-.3,.69,.07,1.05,.69,.67,1.63,.52,2.24,.84Zm-3.11-1.57c1.05-.98,1.58-2.97,1.1-4.2-.49,1.13-.78,2.35-1.89,3.04,.3,.44,.54,.79,.79,1.16Zm-7.05-4.16c-.81,1.17-.65,2.78,.26,3.7,.22,.23,.45,.41,.74,.18,.29-.23,.39-.52,.08-.83-.83-.84-1.29-1.82-1.09-3.05Z"/><path class="cls-9" d="M74.36,116.87c-.01,.41-.52,.87-.94,.88-.45,0-1-.63-.97-1.11,.04-.57,.54-1.04,1.05-.99,.43,.04,.88,.69,.86,1.23Zm-.94-.8c-.25,.15-.59,.3-.58,.68,0,.38,.29,.59,.65,.61,.33,.02,.58-.18,.53-.54-.04-.32-.13-.65-.59-.75Z"/><path class="cls-9" d="M70.38,116.64c.01,.49-.4,.93-.87,.92-.44-.01-.81-.43-.85-.97-.04-.41,.41-.94,.83-.99,.43-.05,.88,.46,.89,1.04Zm-.86,.53c.32,0,.47-.18,.46-.48-.01-.29-.07-.63-.43-.64-.36,0-.44,.34-.47,.62-.03,.29,.14,.47,.44,.49Z"/><path class="cls-9" d="M73.06,118.76c-.75,1.17-2.09,1.3-2.91,.16,1.13,.65,2.04,.55,2.91-.16Z"/><path class="cls-9" d="M70.58,113.19c-.08,.39-.36,.57-.71,.51-.34-.05-.61-.26-.54-.67,.06-.38,.34-.57,.7-.53,.38,.04,.53,.34,.56,.69Zm-.66,.13c.14,.03,.19-.06,.22-.16,.04-.13-.05-.19-.16-.21-.12-.03-.19,.05-.22,.16-.03,.13,.06,.18,.16,.22Z"/><path class="cls-9" d="M73.07,112.69c.34,.07,.75,.16,.8,.59,.05,.42-.33,.53-.67,.56-.39,.03-.76-.28-.75-.63,.02-.36,.26-.49,.62-.51Zm.35,.64c0-.14-.09-.18-.2-.19-.11,0-.23,.02-.24,.14-.01,.12,.08,.19,.2,.21,.11,.01,.2-.04,.24-.16Z"/></g></g><g><path class="cls-3" d="M119.99,69.45c-.45-.21-.81-.02-1.14,.29-.67,.64-1.02,1.45-1.12,2.43-.53-.07-.65-.27-.77-.48-.51-.89-1.13-1.24-1.61-.86-.64,.51-.23,1.1,.02,1.62,.83,1.7,2.37,2.81,3.55,4.68,.65-2.11,.89-3.91,1.53-5.59,.09-.22,.1-.47,.14-.71,.02-.12,0-.24,0-.36,0-.46-.19-.83-.61-1.03Z"/><path class="cls-9" d="M121.53,70.54c-.11,.4-.25,.99-.44,1.55-.63,1.83-1.12,3.68-1.07,5.63,0,.3,.03,.62-.19,.86-.3,.32-.72,.65-.99,.05-.85-1.84-2.31-3.22-3.47-4.82-.25-.34-.52-.67-.72-1.04-.41-.76-.77-1.62-.2-2.38,.51-.68,1.4-.71,2.15-.39,.67,.29,1,0,1.36-.46,.15-.19,.32-.36,.48-.54,.46-.52,.96-.94,1.72-.62,.76,.32,1.37,1.19,1.37,2.16Zm-3.8,1.63c-.53-.07-.65-.27-.77-.48-.51-.89-1.13-1.24-1.61-.86-.64,.51-.23,1.1,.02,1.62,.83,1.7,2.37,2.81,3.55,4.68,.65-2.11,.89-3.91,1.53-5.59,.09-.22,.1-.47,.14-.71,.02-.12,0-.24,0-.36,0-.46-.19-.83-.61-1.03-.45-.21-.81-.02-1.14,.29-.67,.64-1.02,1.45-1.12,2.43Z"/></g><g><path class="cls-3" d="M20.83,108.59c-.45-.21-.81-.02-1.14,.29-.67,.64-1.02,1.45-1.12,2.43-.53-.07-.65-.27-.77-.48-.51-.89-1.13-1.24-1.61-.86-.64,.51-.23,1.1,.02,1.62,.83,1.7,2.37,2.81,3.55,4.68,.65-2.11,.89-3.91,1.53-5.59,.09-.22,.1-.47,.14-.71,.02-.12,0-.24,0-.36,0-.46-.19-.83-.61-1.03Z"/><path class="cls-9" d="M22.38,109.68c-.11,.4-.25,.99-.44,1.55-.63,1.83-1.12,3.68-1.07,5.63,0,.3,.03,.62-.19,.86-.3,.32-.72,.65-.99,.05-.85-1.84-2.31-3.22-3.47-4.82-.25-.34-.52-.67-.72-1.04-.41-.76-.77-1.62-.2-2.38,.51-.68,1.4-.71,2.15-.39,.67,.29,1,0,1.36-.46,.15-.19,.32-.36,.48-.54,.46-.52,.96-.94,1.72-.62,.76,.32,1.37,1.19,1.37,2.16Zm-3.8,1.63c-.53-.07-.65-.27-.77-.48-.51-.89-1.13-1.24-1.61-.86-.64,.51-.23,1.1,.02,1.62,.83,1.7,2.37,2.81,3.55,4.68,.65-2.11,.89-3.91,1.53-5.59,.09-.22,.1-.47,.14-.71,.02-.12,0-.24,0-.36,0-.46-.19-.83-.61-1.03-.45-.21-.81-.02-1.14,.29-.67,.64-1.02,1.45-1.12,2.43Z"/></g><g><path class="cls-3" d="M114.57,143.17c-.45-.21-.81-.02-1.14,.29-.67,.64-1.02,1.45-1.12,2.43-.53-.07-.65-.27-.77-.48-.51-.89-1.13-1.24-1.61-.86-.64,.51-.23,1.1,.02,1.62,.83,1.7,2.37,2.81,3.55,4.68,.65-2.11,.89-3.91,1.53-5.59,.09-.22,.1-.47,.14-.71,.02-.12,0-.24,0-.36,0-.46-.19-.83-.61-1.03Z"/><path class="cls-9" d="M116.11,144.26c-.11,.4-.25,.99-.44,1.55-.63,1.83-1.12,3.68-1.07,5.63,0,.3,.03,.62-.19,.86-.3,.32-.72,.65-.99,.05-.85-1.84-2.31-3.22-3.47-4.82-.25-.34-.52-.67-.72-1.04-.41-.76-.77-1.62-.2-2.38,.51-.68,1.4-.71,2.15-.39,.67,.29,1,0,1.36-.46,.15-.19,.32-.36,.48-.54,.46-.52,.96-.94,1.72-.62,.76,.32,1.37,1.19,1.37,2.16Zm-3.8,1.63c-.53-.07-.65-.27-.77-.48-.51-.89-1.13-1.24-1.61-.86-.64,.51-.23,1.1,.02,1.62,.83,1.7,2.37,2.81,3.55,4.68,.65-2.11,.89-3.91,1.53-5.59,.09-.22,.1-.47,.14-.71,.02-.12,0-.24,0-.36,0-.46-.19-.83-.61-1.03-.45-.21-.81-.02-1.14,.29-.67,.64-1.02,1.45-1.12,2.43Z"/></g><g><path class="cls-3" d="M38.13,58.53c-.45-.21-.81-.02-1.14,.29-.67,.64-1.02,1.45-1.12,2.43-.53-.07-.65-.27-.77-.48-.51-.89-1.13-1.24-1.61-.86-.64,.51-.23,1.1,.02,1.62,.83,1.7,2.37,2.81,3.55,4.68,.65-2.11,.89-3.91,1.53-5.59,.09-.22,.1-.47,.14-.71,.02-.12,0-.24,0-.36,0-.46-.19-.83-.61-1.03Z"/><path class="cls-9" d="M39.67,59.63c-.11,.4-.25,.99-.44,1.55-.63,1.83-1.12,3.68-1.07,5.63,0,.3,.03,.62-.19,.86-.3,.32-.72,.65-.99,.05-.85-1.84-2.31-3.22-3.47-4.82-.25-.34-.52-.67-.72-1.04-.41-.76-.77-1.62-.2-2.38,.51-.68,1.4-.71,2.15-.39,.67,.29,1,0,1.36-.46,.15-.19,.32-.36,.48-.54,.46-.52,.96-.94,1.72-.62,.76,.32,1.37,1.19,1.37,2.16Zm-3.8,1.63c-.53-.07-.65-.27-.77-.48-.51-.89-1.13-1.24-1.61-.86-.64,.51-.23,1.1,.02,1.62,.83,1.7,2.37,2.81,3.55,4.68,.65-2.11,.89-3.91,1.53-5.59,.09-.22,.1-.47,.14-.71,.02-.12,0-.24,0-.36,0-.46-.19-.83-.61-1.03-.45-.21-.81-.02-1.14,.29-.67,.64-1.02,1.45-1.12,2.43Z"/></g></g><g><g><path class="cls-4" d="M150.91,3.98c.35-3.75,.79-7.49,.51-11.26,0-2.17,.05-4.34-.01-6.5-.06-2.01-.56-2.8-2.18-3.18-2.39-.57-4.86-.79-7.3-.67-2.34,.11-4.65,.3-6.98-.04-1.64-.24-3.3-.11-4.96-.09-.71,0-1.15,.33-1.45,.98-.62,1.33-.83,2.72-.79,4.16,.06,2.16,.12,4.33,.22,6.49,.22,4.77-.02,9.56,.52,14.32,.44,3.84,.43,7.71,.82,11.56,.2,1.97,.3,2.12,2.16,2.68,2.13,.64,4.33,.99,6.52,1.38,3.85,.69,7.73,.49,11.59,.06,1.33-.15,1.61-.56,1.43-1.79-.86-6.03-.64-12.06-.08-18.09Z"/><path class="cls-6" d="M151.48-1.12c-.02-.63-.08-1.23-.06-1.48,.09-1.3,.19-2.6,.28-3.9,.06-.86,.11-1.73,.19-2.59,.07-.81,.41-2.07-.66-2.4-.54-.16-1.24-.13-1.8-.21-.63-.09-1.26-.16-1.89-.22-1.3-.13-2.6-.2-3.91-.25-3.11-.12-6.2-.29-9.31-.36-1.2-.03-2.4-.06-3.61-.09-.75-.02-2.72-.45-3.09,.44-.14,.35-.08,.75,0,1.12,.31,1.54,.03,3.21,.02,4.78-.02,1.94,.14,3.87,.08,5.8,0,.11,0,.23,.07,.32,.09,.11,.26,.13,.4,.11,1.84-.26,3.82-.06,5.67,.05,2.8,.16,5.56,.38,8.37,.46l8.75,.26c.48,.01,.53-.93,.5-1.83Z"/><g><g><path class="cls-4" d="M139.63,5.6c.36,.04,.72,.08,1.09,.11,1,.06,1.59,.62,1.89,1.54,.09,.28,.21,.55,.24,.84,.04,.42,.35,.92,0,1.26-.41,.39-.78-.14-1.18-.24-.88-.21-1.74-.11-2.61,0-.72,.09-1.44,.22-2.15,.34-.31,.05-.46-.05-.49-.39-.14-1.8,1.48-3.53,3.23-3.45Zm1.08,2.58c-.02,.35,.35,.66,.75,.63,.34-.03,.71-.14,.67-.56-.05-.43-.46-.52-.8-.59-.36,.02-.6,.15-.62,.51Zm-2.58,.51c.35,.05,.63-.12,.71-.51-.03-.35-.18-.65-.56-.69-.36-.04-.63,.15-.7,.53-.07,.41,.21,.62,.54,.67Z"/><path class="cls-4" d="M136.31,7.06c-.22-.29-.53-.63-1.01-.55-.14,.02-.29,.04-.43,.09-1.09,.44-1.95,1.11-2.31,2.45,1.43,.13,2.5-.29,3.4-1.18,.22-.22,.58-.49,.34-.81Z"/></g><path class="cls-5" d="M134.89,8.82c-.15,.13-.35,.2-.53,.28-.09,.04-.17,.08-.26,.1-.06,.02-.11,.01-.16,0-.09,.08-.24,.07-.32-.01-.15-.16-.2-.4-.13-.61,.07-.2,.21-.34,.32-.52,.01-.02,.03-.05,.04-.07,0,0,.03-.07,0-.02,.02-.05,.03-.1,.05-.14,.06-.11,.16-.15,.27-.19,.22-.07,.44-.03,.61,.13,.13,.12,.21,.3,.24,.47,.04,.21,.02,.44-.15,.59Z"/><path class="cls-3" d="M140.29,9.39c1.37-.06,2.6,.52,3.72,1.15,.89,.5,1.39,1.47,1.29,2.61-.09,.94-.55,1.53-1.47,1.83-1.3,.42-2.6,.74-3.97,.7-1.3,.06-2.52-.35-3.75-.66-.66-.17-.91-.71-1.19-1.21-.81-1.44,.09-3.56,1.69-3.93,1.21-.28,2.45-.44,3.69-.49Zm-1.64,2.22c-.02-.58-.46-1.09-.89-1.04-.42,.05-.86,.58-.83,.99,.05,.54,.42,.96,.85,.97,.46,.01,.88-.43,.87-.92Zm2.68,2.12c-.87,.71-1.78,.81-2.91,.16,.82,1.14,2.16,1.01,2.91-.16Zm-.61-2.12c-.03,.48,.52,1.12,.97,1.11,.43,0,.93-.47,.94-.88,.02-.54-.44-1.19-.86-1.23-.51-.05-1.01,.42-1.05,.99Z"/><path class="cls-5" d="M136.9,6.51c.29-.23,.39-.52,.08-.83-.83-.84-1.29-1.82-1.09-3.05-.81,1.17-.65,2.78,.26,3.7,.22,.23,.45,.41,.74,.18Z"/></g><path class="cls-9" d="M159.27-21.7c-.04,2.52,.53,4.86,.41,7.27-.14,2.85,.37,5.68,.35,8.54-.02,3.48-.1,6.95-.32,10.42-.02,.34-.11,.68-.09,1.02,.16,4.17-.54,8.31-.39,12.48,.04,1.13-.13,1.82-1.35,2.33-1.45,.6-2.62,1.78-3.96,2.65-1.61,1.04-3.36,1.45-5.14,1.55-1.41,.08-2.84,.14-4.24,.23-3.47,.22-6.81-.43-10.18-1-1.84-.31-3.54-1.21-5.42-1.36-.32-.03-.37-.35-.38-.66-.06-2.79-.13-5.58-.22-8.37-.06-1.82-.35-3.62-.47-5.44-.26-3.81-.42-7.61-.41-11.43,0-2.62-.18-5.25-.33-7.87-.09-1.67,.09-3.3,.43-4.93,.28-1.37,.92-2.45,2.17-3.11,1.61-.84,2.19-2.24,2.2-3.96,0-1.2-.03-2.4-.01-3.59,.01-1.08,.15-2.12,.49-3.18,.28-.89,.65-.99,1.45-.92,4.15,.34,8.29,.66,12.46,.61,1.94-.02,3.88,.05,5.8-.28,.95-.16,1.49,.2,1.95,.98,.6,1,.96,2.06,1.07,3.21,.05,.51,.06,1.03,.07,1.54,.08,2.65,1.28,3.68,4.07,3.26Zm-7.85,14.42c0-2.17,.05-4.34-.01-6.5-.06-2.01-.56-2.8-2.18-3.18-2.39-.57-4.86-.79-7.3-.67-2.34,.11-4.65,.3-6.98-.04-1.64-.24-3.3-.11-4.96-.09-.71,0-1.15,.33-1.45,.98-.62,1.33-.83,2.72-.79,4.16,.06,2.16,.12,4.33,.22,6.49,.22,4.77-.02,9.56,.52,14.32,.44,3.84,.43,7.71,.82,11.56,.2,1.97,.3,2.12,2.16,2.68,2.13,.64,4.33,.99,6.52,1.38,3.85,.69,7.73,.49,11.59,.06,1.33-.15,1.61-.56,1.43-1.79-.86-6.03-.64-12.06-.08-18.09,.35-3.75,.79-7.49,.51-11.26Zm7.22-12.78c-.42-.09-.6,.15-.83,.31-1.79,1.2-3.42,2.68-5.53,3.35-.61,.19-.54,.64-.51,1.1,.1,1.48,.24,2.96,.28,4.43,.1,3.31,.2,6.62-.06,9.92-.41,5.16-1.02,10.32-.89,15.51,.06,2.57,.33,5.12,.68,7.66,.1,.7,.42,.92,1.03,.58,1-.54,2.05-1.03,2.97-1.69,2.78-2.01,2.75-2.17,2.92-5.63,.18-3.64,.38-7.28,.43-10.92,.03-2.11,.27-4.2,.33-6.31,.12-4.85-.37-9.68-.4-14.52,0-1.27,.14-2.61-.42-3.79Zm-28.22,1.57c1.68,.06,3.15-.02,4.58,.21,1.77,.28,3.53,.33,5.28,.12,2.86-.34,5.69,0,8.52,.27,1.77,.17,2.15,.08,2.92-1.44,.25-.5,.38-1.07,.47-1.63,.36-2.32,.36-4.65,.22-6.99-.1-1.7-.23-1.82-1.93-1.84-4.89-.06-9.8,.22-14.67-.57-.28-.04-.57-.01-.85-.01-1.76,0-1.83,.12-2.2,1.86-.28,1.32,.12,2.6,.06,3.91-.09,2.03-.06,2.03,2.06,2.15,.36,.02,.84-.14,.99,.57-.86,0-1.69,0-2.52,0-.33,0-.74-.16-.87,.29-.35,1.16-1.19,2.02-2.07,3.11Zm27.25-2.16c-1.31,.06-1.81-1.01-2.66-1.51-1.24-.73-.19-1.86-.47-2.77-.1-.31,0-.68-.03-1.02-.11-1.28-.32-2.54-1.3-3.54-.03,2.21-.03,4.41-.09,6.6-.05,1.79-.28,3.51-1.39,4.99-.12,.16-.3,.37,.08,.68,2.35-.27,3.91-2.06,5.86-3.44Z"/><path class="cls-9" d="M143.3,7.73c-.03,.71,.2,1.23,.1,1.78-.06,.35,.28,.35,.5,.47,1.59,.87,2.21,2.68,1.45,4.21-.18,.37-.43,.62-.83,.82-2.88,1.41-5.81,1.31-8.73,.28-1.1-.39-1.46-1.45-1.43-2.51,.03-1.16,.12-2.38,1.35-3.04,.48-.26,.23-.7,.36-1.22-.69,.28-1.25,.49-1.79,.73-.41,.18-.84,.24-1.29,.22-.8-.04-.93-.23-.63-.94,.42-.99,1.17-1.66,2.12-2.14,.79-.4,.77-.4,.65-1.26-.17-1.19-.04-2.33,.63-3.38,.24-.38,.48-.71,1.02-.65,.06,.45-.22,.72-.35,1.05-.46,1.18-.18,2.38,.76,3.19,.19,.17,.39,.33,.68,.17,.97-.51,1.99-.35,3-.16,.77,.15,1.59-.17,1.96-.85,.38-.7,.8-1.41,.72-2.26-.02-.24-.14-.58,.21-.64,.28-.05,.44,.24,.55,.46,.24,.49,.46,1,.32,1.57-.07,.28-.09,.58-.16,.86-.21,.93-.21,.93,.69,1.26,.99,.36,1.6,1.13,2.08,2.01,.24,.45,.09,.77-.4,.93-.28,.1-.59,.1-.87,.03-.87-.24-1.8-.31-2.7-.98Zm-3.45,7.95c1.37,.04,2.67-.28,3.97-.7,.92-.29,1.38-.89,1.47-1.83,.11-1.14-.4-2.11-1.29-2.61-1.12-.63-2.35-1.21-3.72-1.15-1.24,.05-2.48,.2-3.69,.49-1.59,.37-2.49,2.49-1.69,3.93,.28,.5,.53,1.04,1.19,1.21,1.24,.32,2.45,.73,3.75,.66Zm-.23-10.08c-1.75-.08-3.36,1.65-3.23,3.45,.03,.35,.18,.44,.49,.39,.72-.12,1.43-.25,2.15-.34,.87-.11,1.73-.21,2.61,0,.39,.1,.77,.63,1.18,.24,.36-.34,.05-.84,0-1.26-.03-.28-.15-.56-.24-.84-.3-.92-.89-1.47-1.89-1.54-.36-.02-.72-.07-1.09-.11Zm-7.06,3.44c1.43,.13,2.5-.29,3.4-1.18,.22-.22,.58-.49,.34-.81-.22-.29-.53-.63-1.01-.55-.14,.02-.29,.04-.43,.09-1.09,.44-1.95,1.11-2.31,2.45Zm13.48-.7c.78,0,.91-.19,.65-.72-.43-.86-1.09-1.44-2.03-1.68-.48-.12-.73,.09-.94,.5-.2,.39-.3,.69,.07,1.05,.69,.67,1.63,.52,2.24,.84Zm-3.11-1.57c1.05-.98,1.58-2.97,1.1-4.2-.49,1.13-.78,2.35-1.89,3.04,.3,.44,.54,.79,.79,1.16Zm-7.05-4.16c-.81,1.17-.65,2.78,.26,3.7,.22,.23,.45,.41,.74,.18,.29-.23,.39-.52,.08-.83-.83-.84-1.29-1.82-1.09-3.05Z"/></g><g><path class="cls-3" d="M89.1,3.57c-.45-.21-.81-.02-1.14,.29-.67,.64-1.02,1.45-1.12,2.43-.53-.07-.65-.27-.77-.48-.51-.89-1.13-1.24-1.61-.86-.64,.51-.23,1.1,.02,1.62,.83,1.7,2.37,2.81,3.55,4.68,.65-2.11,.89-3.91,1.53-5.59,.09-.22,.1-.47,.14-.71,.02-.12,0-.24,0-.36,0-.46-.19-.83-.61-1.03Z"/><path class="cls-9" d="M90.64,4.66c-.11,.4-.25,.99-.44,1.55-.63,1.83-1.12,3.68-1.07,5.63,0,.3,.03,.62-.19,.86-.3,.32-.72,.65-.99,.05-.85-1.84-2.31-3.22-3.47-4.82-.25-.34-.52-.67-.72-1.04-.41-.76-.77-1.62-.2-2.38,.51-.68,1.4-.71,2.15-.39,.67,.29,1,0,1.36-.46,.15-.19,.32-.36,.48-.54,.46-.52,.96-.94,1.72-.62,.76,.32,1.37,1.19,1.37,2.16Zm-3.8,1.63c-.53-.07-.65-.27-.77-.48-.51-.89-1.13-1.24-1.61-.86-.64,.51-.23,1.1,.02,1.62,.83,1.7,2.37,2.81,3.55,4.68,.65-2.11,.89-3.91,1.53-5.59,.09-.22,.1-.47,.14-.71,.02-.12,0-.24,0-.36,0-.46-.19-.83-.61-1.03-.45-.21-.81-.02-1.14,.29-.67,.64-1.02,1.45-1.12,2.43Z"/></g></g><g><g><path class="cls-4" d="M14.38,3.98c.35-3.75,.79-7.49,.51-11.26,0-2.17,.05-4.34-.01-6.5-.06-2.01-.56-2.8-2.18-3.18-2.39-.57-4.86-.79-7.3-.67-2.34,.11-4.65,.3-6.98-.04-1.64-.24-3.3-.11-4.96-.09-.71,0-1.15,.33-1.45,.98-.62,1.33-.83,2.72-.79,4.16,.06,2.16,.12,4.33,.22,6.49,.22,4.77-.02,9.56,.52,14.32,.44,3.84,.43,7.71,.82,11.56,.2,1.97,.3,2.12,2.16,2.68,2.13,.64,4.33,.99,6.52,1.38,3.85,.69,7.73,.49,11.59,.06,1.33-.15,1.61-.56,1.43-1.79-.86-6.03-.64-12.06-.08-18.09Z"/><path class="cls-7" d="M22.1-20.06c-.42-.09-.6,.15-.83,.31-1.79,1.2-3.42,2.68-5.53,3.35-.61,.19-.54,.64-.51,1.1,.1,1.48,.24,2.96,.28,4.44,.1,3.31,.2,6.62-.06,9.92-.41,5.16-1.02,10.32-.89,15.51,.06,2.57,.33,5.12,.68,7.66,.1,.7,.42,.92,1.03,.58,1-.54,2.05-1.03,2.97-1.69,2.78-2.01,2.75-2.17,2.92-5.63,.18-3.64,.38-7.28,.43-10.92,.03-2.11,.27-4.2,.33-6.31,.13-4.85-.37-9.68-.4-14.52,0-1.27,.14-2.61-.42-3.79Z"/><path class="cls-6" d="M14.95-1.12c-.02-.63-.08-1.23-.06-1.48,.09-1.3,.19-2.6,.28-3.9,.06-.86,.11-1.73,.19-2.59,.07-.81,.41-2.07-.66-2.4-.54-.16-1.24-.13-1.8-.21-.63-.09-1.26-.16-1.89-.22-1.3-.13-2.6-.2-3.91-.25-3.11-.12-6.2-.29-9.31-.36-1.2-.03-2.4-.06-3.61-.09-.75-.02-2.72-.45-3.09,.44-.14,.35-.08,.75,0,1.12,.31,1.54,.03,3.21,.02,4.78-.02,1.94,.14,3.87,.08,5.8,0,.11,0,.23,.07,.32,.09,.11,.26,.13,.4,.11,1.84-.26,3.82-.06,5.67,.05C.13,.15,2.9,.37,5.7,.45l8.75,.26c.48,.01,.53-.93,.5-1.83Z"/><path class="cls-8" d="M23.17-5.13c-.04-.06-.08-.12-.13-.17v-.02c.17-2.52,.12-5.05-.16-7.57,0-.08-.03-.16-.05-.24,.05-.1,.09-.21,.1-.32,.23-.31,.28-.76,.07-1.09-.29-.46-.85-.6-1.33-.35-1.82,.97-3.59,1.77-5.46,2.47-.12,.04-.23,.11-.33,.19-.42,.2-.72,.66-.56,1.14,.02,.08,.06,.15,.1,.22,0,.03,0,.05,0,.08,0,1.56,.01,3.12,.02,4.68,0,1.44,.03,2.88-.36,4.28-.05,.19-.05,.36,0,.52,0,0-.01,.02-.02,.03l-.02,.06s-.02,.02-.02,.03c-.07,.11-.11,.23-.12,.36-.03,.13-.02,.26,.02,.39l.1,.23c.09,.15,.2,.26,.35,.35l.23,.1c.17,.05,.34,.05,.52,0,.08-.03,.17-.06,.24-.1h0s.07-.05,.09-.07c2.13-1.28,4.28-2.54,6.39-3.86,.44-.28,.62-.86,.35-1.33Z"/><g><g><path class="cls-4" d="M3.1,5.6c.36,.04,.72,.08,1.09,.11,1,.06,1.59,.62,1.89,1.54,.09,.28,.21,.55,.24,.84,.04,.42,.35,.92,0,1.26-.41,.39-.78-.14-1.18-.24-.88-.21-1.74-.11-2.61,0-.72,.09-1.44,.22-2.15,.34-.31,.05-.46-.05-.49-.39-.14-1.8,1.48-3.53,3.23-3.45Zm1.08,2.58c-.02,.35,.35,.66,.75,.63,.34-.03,.71-.14,.67-.56-.05-.43-.46-.52-.8-.59-.36,.02-.6,.15-.62,.51Zm-2.58,.51c.35,.05,.63-.12,.71-.51-.03-.35-.18-.65-.56-.69-.36-.04-.63,.15-.7,.53-.07,.41,.21,.62,.54,.67Z"/><path class="cls-4" d="M8.15,5.96c-.48-.12-.73,.09-.94,.5-.2,.39-.3,.69,.07,1.05,.69,.67,1.63,.52,2.24,.84,.78,0,.91-.19,.65-.72-.43-.86-1.09-1.44-2.03-1.68Z"/></g><path class="cls-5" d="M6.01,6.69c-.24-.33-.55-.62-.91-.82-.19-.11-.66-.36-.94-.28-.19-.14-.51,.08-.35,.31,.24,.37-.2,.86-.33,1.2-.17,.43-.23,.97-.07,1.42,.16,.48,.62,.63,1.07,.74,.49,.12,.94,.04,1.34-.28,.34-.28,.62-.68,.62-1.13,0-.41-.2-.84-.44-1.17Z"/><path class="cls-3" d="M3.76,9.39c1.37-.06,2.6,.52,3.72,1.15,.89,.5,1.39,1.47,1.29,2.61-.09,.94-.55,1.53-1.47,1.83-1.3,.42-2.6,.74-3.97,.7-1.3,.06-2.52-.35-3.75-.66-.66-.17-.91-.71-1.19-1.21-.81-1.44,.09-3.56,1.69-3.93,1.21-.28,2.45-.44,3.69-.49Zm-1.64,2.22c-.02-.58-.46-1.09-.89-1.04-.42,.05-.86,.58-.83,.99,.05,.54,.42,.96,.85,.97,.46,.01,.88-.43,.87-.92Zm2.68,2.12c-.87,.71-1.78,.81-2.91,.16,.82,1.14,2.16,1.01,2.91-.16Zm-.61-2.12c-.03,.48,.52,1.12,.97,1.11,.43,0,.93-.47,.94-.88,.02-.54-.44-1.19-.86-1.23-.51-.05-1.01,.42-1.05,.99Z"/><g><path class="cls-5" d="M1.29,11.03c-.36,0-.44,.34-.47,.62-.03,.29,.14,.47,.44,.49,.32,0,.47-.18,.46-.48-.01-.29-.07-.63-.43-.64Z"/><path class="cls-5" d="M5.22,12.34c.33,.02,.58-.18,.53-.54-.04-.32-.13-.65-.59-.75-.25,.15-.59,.3-.58,.68,0,.38,.29,.59,.65,.61Z"/></g><g><path class="cls-5" d="M.37,6.51c.29-.23,.39-.52,.08-.83-.83-.84-1.29-1.82-1.09-3.05-.81,1.17-.65,2.78,.26,3.7,.22,.23,.45,.41,.74,.18Z"/><path class="cls-5" d="M7.51,2.58c-.49,1.13-.78,2.35-1.89,3.04l.79,1.16c1.05-.98,1.58-2.97,1.1-4.2Z"/></g><g><path class="cls-5" d="M4.91,8.46c.11,.01,.2-.04,.24-.16,0-.14-.09-.18-.2-.19-.11,0-.23,.02-.24,.14-.01,.12,.08,.19,.2,.21Z"/><path class="cls-5" d="M1.65,8.3c.14,.03,.19-.06,.22-.16,.04-.13-.05-.19-.16-.21-.12-.03-.19,.05-.22,.16-.03,.13,.06,.18,.16,.22Z"/></g></g><g><path class="cls-9" d="M22.74-21.7c-.04,2.52,.53,4.86,.41,7.27-.14,2.85,.37,5.68,.35,8.54-.02,3.48-.1,6.95-.32,10.42-.02,.34-.11,.68-.09,1.02,.16,4.17-.54,8.31-.39,12.48,.04,1.13-.13,1.82-1.35,2.33-1.45,.6-2.62,1.78-3.96,2.65-1.61,1.04-3.36,1.45-5.14,1.55-1.41,.08-2.84,.14-4.24,.23-3.47,.22-6.81-.43-10.18-1-1.84-.31-3.54-1.21-5.42-1.36-.32-.03-.37-.35-.38-.66-.06-2.79-.13-5.58-.22-8.37-.06-1.82-.35-3.62-.47-5.44-.26-3.81-.42-7.61-.41-11.43,0-2.62-.18-5.25-.33-7.87-.09-1.67,.09-3.3,.43-4.93,.28-1.37,.92-2.45,2.17-3.11,1.61-.84,2.19-2.24,2.2-3.96,0-1.2-.03-2.4-.01-3.59,.01-1.08,.15-2.12,.49-3.18,.28-.89,.65-.99,1.45-.92,4.15,.34,8.29,.66,12.46,.61,1.94-.02,3.88,.05,5.8-.28,.95-.16,1.49,.2,1.95,.98,.6,1,.96,2.06,1.07,3.21,.05,.51,.06,1.03,.07,1.54,.08,2.65,1.28,3.68,4.07,3.26ZM14.89-7.28c0-2.17,.05-4.34-.01-6.5-.06-2.01-.56-2.8-2.18-3.18-2.39-.57-4.86-.79-7.3-.67-2.34,.11-4.65,.3-6.98-.04-1.64-.24-3.3-.11-4.96-.09-.71,0-1.15,.33-1.45,.98-.62,1.33-.83,2.72-.79,4.16,.06,2.16,.12,4.33,.22,6.49,.22,4.77-.02,9.56,.52,14.32,.44,3.84,.43,7.71,.82,11.56,.2,1.97,.3,2.12,2.16,2.68,2.13,.64,4.33,.99,6.52,1.38,3.85,.69,7.73,.49,11.59,.06,1.33-.15,1.61-.56,1.43-1.79-.86-6.03-.64-12.06-.08-18.09,.35-3.75,.79-7.49,.51-11.26Zm7.22-12.78c-.42-.09-.6,.15-.83,.31-1.79,1.2-3.42,2.68-5.53,3.35-.61,.19-.54,.64-.51,1.1,.1,1.48,.24,2.96,.28,4.43,.1,3.31,.2,6.62-.06,9.92-.41,5.16-1.02,10.32-.89,15.51,.06,2.57,.33,5.12,.68,7.66,.1,.7,.42,.92,1.03,.58,1-.54,2.05-1.03,2.97-1.69,2.78-2.01,2.75-2.17,2.92-5.63,.18-3.64,.38-7.28,.43-10.92,.03-2.11,.27-4.2,.33-6.31,.12-4.85-.37-9.68-.4-14.52,0-1.27,.14-2.61-.42-3.79Zm-28.22,1.57c1.68,.06,3.15-.02,4.58,.21,1.77,.28,3.53,.33,5.28,.12,2.86-.34,5.69,0,8.52,.27,1.77,.17,2.15,.08,2.92-1.44,.25-.5,.38-1.07,.47-1.63,.36-2.32,.36-4.65,.22-6.99-.1-1.7-.23-1.82-1.93-1.84-4.89-.06-9.8,.22-14.67-.57-.28-.04-.57-.01-.85-.01-1.76,0-1.83,.12-2.2,1.86-.28,1.32,.12,2.6,.06,3.91-.09,2.03-.06,2.03,2.06,2.15,.36,.02,.84-.14,.99,.57-.86,0-1.69,0-2.52,0-.33,0-.74-.16-.87,.29-.35,1.16-1.19,2.02-2.07,3.11Zm27.25-2.16c-1.31,.06-1.81-1.01-2.66-1.51-1.24-.73-.19-1.86-.47-2.77-.1-.31,0-.68-.03-1.02-.11-1.28-.32-2.54-1.3-3.54-.03,2.21-.03,4.41-.09,6.6-.05,1.79-.28,3.51-1.39,4.99-.12,.16-.3,.37,.08,.68,2.35-.27,3.91-2.06,5.86-3.44Z"/><path class="cls-9" d="M20.99,12.64c.57,1.76,.16,3.43-.53,5.06,.06-1.7,.54-3.35,.53-5.06Z"/><path class="cls-9" d="M17.51,20c.21-.89,.24-1.78,.2-2.79,.8,1.04,.79,1.22-.2,2.79Z"/><path class="cls-9" d="M19.82,15.79c.09,.91-.1,1.78-.71,2.6,.11-.88,.22-1.76,.33-2.64l.38,.03Z"/></g><g><path class="cls-9" d="M6.78,7.73c-.03,.71,.2,1.23,.1,1.78-.06,.35,.28,.35,.5,.47,1.59,.87,2.21,2.68,1.45,4.21-.18,.37-.43,.62-.83,.82-2.88,1.41-5.81,1.31-8.73,.28-1.1-.39-1.46-1.45-1.43-2.51,.03-1.16,.12-2.38,1.35-3.04,.48-.26,.23-.7,.36-1.22-.69,.28-1.25,.49-1.79,.73-.41,.18-.84,.24-1.29,.22-.8-.04-.93-.23-.63-.94,.42-.99,1.17-1.66,2.12-2.14,.79-.4,.77-.4,.65-1.26-.17-1.19-.04-2.33,.63-3.38,.24-.38,.48-.71,1.02-.65,.06,.45-.22,.72-.35,1.05-.46,1.18-.18,2.38,.76,3.19,.19,.17,.39,.33,.68,.17,.97-.51,1.99-.35,3-.16,.77,.15,1.59-.17,1.96-.85,.38-.7,.8-1.41,.72-2.26-.02-.24-.14-.58,.21-.64,.28-.05,.44,.24,.55,.46,.24,.49,.46,1,.32,1.57-.07,.28-.09,.58-.16,.86-.21,.93-.21,.93,.69,1.26,.99,.36,1.6,1.13,2.08,2.01,.24,.45,.09,.77-.4,.93-.28,.1-.59,.1-.87,.03-.87-.24-1.8-.31-2.7-.98Zm-3.45,7.95c1.37,.04,2.67-.28,3.97-.7,.92-.29,1.38-.89,1.47-1.83,.11-1.14-.4-2.11-1.29-2.61-1.12-.63-2.35-1.21-3.72-1.15-1.24,.05-2.48,.2-3.69,.49-1.59,.37-2.49,2.49-1.69,3.93,.28,.5,.53,1.04,1.19,1.21,1.24,.32,2.45,.73,3.75,.66Zm-.23-10.08c-1.75-.08-3.36,1.65-3.23,3.45,.03,.35,.18,.44,.49,.39,.72-.12,1.43-.25,2.15-.34,.87-.11,1.73-.21,2.61,0,.39,.1,.77,.63,1.18,.24,.36-.34,.05-.84,0-1.26-.03-.28-.15-.56-.24-.84-.3-.92-.89-1.47-1.89-1.54-.36-.02-.72-.07-1.09-.11Zm-7.06,3.44c1.43,.13,2.5-.29,3.4-1.18,.22-.22,.58-.49,.34-.81-.22-.29-.53-.63-1.01-.55-.14,.02-.29,.04-.43,.09-1.09,.44-1.95,1.11-2.31,2.45Zm13.48-.7c.78,0,.91-.19,.65-.72-.43-.86-1.09-1.44-2.03-1.68-.48-.12-.73,.09-.94,.5-.2,.39-.3,.69,.07,1.05,.69,.67,1.63,.52,2.24,.84Zm-3.11-1.57c1.05-.98,1.58-2.97,1.1-4.2-.49,1.13-.78,2.35-1.89,3.04,.3,.44,.54,.79,.79,1.16ZM-.63,2.63c-.81,1.17-.65,2.78,.26,3.7,.22,.23,.45,.41,.74,.18,.29-.23,.39-.52,.08-.83-.83-.84-1.29-1.82-1.09-3.05Z"/><path class="cls-9" d="M6.1,11.85c-.01,.41-.52,.87-.94,.88-.45,0-1-.63-.97-1.11,.04-.57,.54-1.04,1.05-.99,.43,.04,.88,.69,.86,1.23Zm-.94-.8c-.25,.15-.59,.3-.58,.68,0,.38,.29,.59,.65,.61,.33,.02,.58-.18,.53-.54-.04-.32-.13-.65-.59-.75Z"/><path class="cls-9" d="M2.12,11.62c.01,.49-.4,.93-.87,.92-.44-.01-.81-.43-.85-.97-.04-.41,.41-.94,.83-.99,.43-.05,.88,.46,.89,1.04Zm-.86,.53c.32,0,.47-.18,.46-.48-.01-.29-.07-.63-.43-.64-.36,0-.44,.34-.47,.62-.03,.29,.14,.47,.44,.49Z"/><path class="cls-9" d="M4.8,13.74c-.75,1.17-2.09,1.3-2.91,.16,1.13,.65,2.04,.55,2.91-.16Z"/><path class="cls-9" d="M2.32,8.18c-.08,.39-.36,.57-.71,.51-.34-.05-.61-.26-.54-.67,.06-.38,.34-.57,.7-.53,.38,.04,.53,.34,.56,.69Zm-.66,.13c.14,.03,.19-.06,.22-.16,.04-.13-.05-.19-.16-.21-.12-.03-.19,.05-.22,.16-.03,.13,.06,.18,.16,.22Z"/><path class="cls-9" d="M4.8,7.67c.34,.07,.75,.16,.8,.59,.05,.42-.33,.53-.67,.56-.39,.03-.76-.28-.75-.63,.02-.36,.26-.49,.62-.51Zm.35,.64c0-.14-.09-.18-.2-.19-.11,0-.23,.02-.24,.14-.01,.12,.08,.19,.2,.21,.11,.01,.2-.04,.24-.16Z"/></g></g><g><path class="cls-3" d="M46.31,38.15c-.45-.21-.81-.02-1.14,.29-.67,.64-1.02,1.45-1.12,2.43-.53-.07-.65-.27-.77-.48-.51-.89-1.13-1.24-1.61-.86-.64,.51-.23,1.1,.02,1.62,.83,1.7,2.37,2.81,3.55,4.68,.65-2.11,.89-3.91,1.53-5.59,.09-.22,.1-.47,.14-.71,.02-.12,0-.24,0-.36,0-.46-.19-.83-.61-1.03Z"/><path class="cls-9" d="M47.85,39.24c-.11,.4-.25,.99-.44,1.55-.63,1.83-1.12,3.68-1.07,5.63,0,.3,.03,.62-.19,.86-.3,.32-.72,.65-.99,.05-.85-1.84-2.31-3.22-3.47-4.82-.25-.34-.52-.67-.72-1.04-.41-.76-.77-1.62-.2-2.38,.51-.68,1.4-.71,2.15-.39,.67,.29,1,0,1.36-.46,.15-.19,.32-.36,.48-.54,.46-.52,.96-.94,1.72-.62,.76,.32,1.37,1.19,1.37,2.16Zm-3.8,1.63c-.53-.07-.65-.27-.77-.48-.51-.89-1.13-1.24-1.61-.86-.64,.51-.23,1.1,.02,1.62,.83,1.7,2.37,2.81,3.55,4.68,.65-2.11,.89-3.91,1.53-5.59,.09-.22,.1-.47,.14-.71,.02-.12,0-.24,0-.36,0-.46-.19-.83-.61-1.03-.45-.21-.81-.02-1.14,.29-.67,.64-1.02,1.45-1.12,2.43Z"/></g></g></g></pattern></defs><rect id="__bc" data-name="5_bc" class="cls-2" width="500" height="500"/><g id="_1a_bc_pattern" data-name="11a_bc_pattern"><rect class="cls-10" width="500" height="500"/></g></svg>