<?xml version="1.0" encoding="UTF-8"?><svg id="Collar" xmlns="http://www.w3.org/2000/svg" viewBox="0 0 500 500"><defs><style>.cls-1{fill:#2443b4;}.cls-2{fill:#1c3590;}.cls-3{fill:#2a4ed3;}.cls-4{fill:#2e56e7;}.cls-5{fill:#7a96ff;}</style></defs><path class="cls-2" d="M476.34,495.78c8.54-9.44,15.37-20.36,23.66-29.98v-63.86c-.67-.25-1.34-.51-2.04-.76-10.47-3.81-21.43-5.99-32.28-8.45-10.02-2.28-20.06-4.63-29.8-7.97-4.43-1.52-8.68-3.52-13.16-4.79-4.35-1.23-8.48-3.17-12.8-4.2-1.82-.43-15.34-.99-15.77-1.9,1.96,4.11,4.77,7.78,6.87,11.94,2.36,4.69,4.98,9.26,7.83,13.67,4.22,6.53,5.92,12.88,8.02,20.21,2.57,9,5,18.05,7.48,27.08,4.64,17.01,6.52,35.42,7.46,53.25h40.44c1.43-1.36,2.79-2.78,4.1-4.22Z"/><path class="cls-1" d="M412.26,382.04c8.13,6.7,17.16,12.03,25.11,19.02,7.65,6.71,15.6,12.82,23.58,19.12,8.21,6.48,16.19,13.33,25.3,18.55,4.42,2.53,9.01,4.18,13.75,5.11v-41.9c-.67-.25-1.34-.51-2.04-.76-10.47-3.81-21.43-5.99-32.28-8.45-10.02-2.28-20.06-4.63-29.8-7.97-4.43-1.52-8.68-3.52-13.16-4.79-4.35-1.23-8.48-3.17-12.8-4.2-1.1-.26-6.47-.57-10.64-.97,.5,.09,1,.27,1.52,.54,3.04,1.6,5.88,3.5,8.64,5.52,.96,.09,1.92,.46,2.82,1.19Z"/><g><path class="cls-4" d="M124.76,347.35c3.16,2.93,5.49,6.64,7.77,10.27,2.72,4.34,5.21,9.14,8.88,12.86,4.36,4.41,10.02,5.57,15.96,6.56,1.29,.22,2.97,.82,4.27,.47,.79-.22,1.53-.89,1.64-1.65-2.03-.83-4.4-2.15-4.85-2.42-3.76-2.29-4.42-6.6-7.22-9.59-1.03-1.1-2.06-2.19-3.09-3.29-1.06-.67-2.16-1.26-3.29-1.79-1.22-.57-2.49-1.09-3.51-1.98-.8-.7-2.23-2.57-.88-3.23-1.38-1.69-2.62-3.5-3.78-5.32-2.5-3.91-6.41-6.68-8.67-10.75-.78-1.41-2.38-4.26-2.19-6.4-5.01,2.73-11.1,6.15-13.97,10.88,.05,0,.1-.02,.15-.02,4.82-.08,9.3,2.17,12.78,5.4Z"/><path class="cls-4" d="M399.16,337.31c-9.11-1.18-18.13-2.84-27.2-4.29-2.4-.38-4.74-.27-7.12-.59-6.53-.88-11.68,2.85-17.31,5.65-4.04,2.01-8.1,4.02-12.36,5.51-6.4,2.23-13.15,3.22-19.8,4.48-17.23,3.26-34.5,7.8-51.35,12.61-3.52,1.01-6.72,2.5-10.18,3.57-3.53,1.1-7.18,1.69-10.76,2.61-11.24,2.88-21.92,8.95-33.44,9.18-2.99,.84-6.04,1.56-9.1,1.68-.63,.02-1.3-.08-1.96-.17,.22,.3,.39,.64,.48,1.04,.2,.93-.78,2.56-.73,3.63,1.25,.02,2.5,.03,3.74,.02-.42-.6-.37-1.25,.68-1.84,.68-.38,1.51-.37,2.29-.36,4.1,.06,8.11-.51,12.18-.82,6.75-.52,12.9-3.08,19.54-4.01,3.82-.53,7.67-.84,11.48-1.67,1.11-.24,2.22-.52,3.34-.83-.58,.16-1.22,.65-1.85,1.13,.36-.12,.72-.24,1.08-.36-.02,.13-.08,.25-.15,.35,.87-.31,1.75-.61,2.63-.9-.61,.2-1.88,1.9-2.49,2.37-1.03,.79-2.05,1.38-3.23,1.95-2.83,1.37-5.7,2.64-8.6,3.82-2.03,.82-14.11,1.33-13.79,4.54,.12,1.22,1.66,1.65,2.88,1.78,8.88,.97,18.78-.08,27.76-.62,10.58-.63,21.08-2.02,31.5-3.94,17.24-3.3,33.92-9.1,51.34-11.4,2.47-.33,4.95-.44,7.44-.55l9.19-.42c2.79-.13,5.58-.25,8.36-.14,2.28,.1,4.55,.36,6.82,.61,6.97,.8,13.94,1.57,20.92,2.49,12.53,1.65,25.65,3.77,37.53,8.1,6.86,2.5,13.7,3.37,20.46,5.92,7.76,2.93,15.53,5.88,23.49,8.22,6.93,2.04,13.17,5.12,20.21,7.19,2.3,.68,4.62,1.22,6.95,1.7v-75.61c-33.21,7.61-66.34,12.81-100.84,8.36Z"/></g><path class="cls-3" d="M463.45,357.05c-8.73-1.35-17.42-3.1-26.25-3.69-3.68-.25-14.4-1.17-16.18,3.74-1.41,3.91,5.61,7.99,8.2,9.42,8.05,4.44,17.5,6.82,26.35,9.07,9.58,2.44,19.27,4.39,28.91,6.57,5.25,1.19,10.39,2.72,15.52,4.32v-30.35c-11.47,3.42-23.72,2.91-36.55,.93Z"/><g><path class="cls-4" d="M206.97,404.64c-1.23,.81-2.63,1.36-4.06,1.73-.47,1.31-.44,2.89-.19,4.17,.38,1.97,1.35,3.77,2.48,5.43,3.6,5.28,9,9.3,15.09,11.23,.19,.06,.4,.14,.59,.23,.47,.23,.86,.56,.82,1.05-1.2,.45-3.12,1.69-4.42,1.17-1.59-.34-3.17-.85-4.7-1.38-3.24-1.11-6.44-2.55-9.21-4.59-3.17-2.33-5.88-5.42-7.47-9.04-.78-1.77-1.56-4-1.48-5.97,.03-.68,.22-1.28,.3-1.79-1.05-.12-2.09-.29-3.11-.53-.02,0-.04-.01-.07-.02-.41,3.76,.63,7.54,2.51,10.8,7.07,12.32,23.31,16.69,36.4,12.7,.04-.07,.09-.13,.13-.19-2.71-.57-5.21-2.42-6.86-4.72-1.41-1.98-2.33-4.25-3.04-6.56-.62-2.01-.52-3.71-.8-5.7-.53-3.79-3.45-6.43-6.65-8.11-.8-.42-1.66-.99-1.78-1.88-.07-.5,.14-.99,.48-1.37-.13,.03-.25,.04-.38,.07-.48,.12-.95,.01-1.33-.29-.23,1.43-2.1,2.81-3.25,3.56Z"/><path class="cls-4" d="M195.81,395.71c1.85-.36,3.75-.31,5.63-.5,1.54-.16,3.11-.47,4.36-1.43,.37-.28,.97-.74,1.64-1.15-1.18,.02-2.52,.25-3.47,.17-3.45-.27-6.79-1.46-9.08-4.17-2.83-3.34-3.9-7.92-2.68-12.07-.02,.07-.33,.16-.69,.25-.51,.96-1.03,2.06-1.09,2.29-.29,1.1-.4,2.33-.34,3.54,.02,.08,.01,.09,0,.06,.04,.72,.12,1.43,.3,2.09,.48,1.74,1.4,3.32,2.5,4.75,1.5,1.94-.9,3.98-2.77,2.4-1.24-1.05-2.25-2.33-3.44-3.44-1.38,3.78,.18,8.42,3.56,10.6,2.19,1.41,3.73,2.02,6.32,2.06,1.64,.02,3.59-.27,5.18-1.09-1.78-.19-3.82-.76-4.04-2.12-.89-.49-1.65-1.21-1.89-2.26Zm10.81-3s-.08,.06-.13,.09c.04-.03,.08-.07,.13-.09Zm-1.32,.79h-.02c-.15,.08-.45,.15,.02,0Z"/><path class="cls-4" d="M175.41,398.67c-.37,.27-.89,.14-1.32-.02-1.11-.42-2.06-1.02-2.92-1.72-4.51,3.38-6.7,7.39-9.06,12.47-2.22,4.77-3.88,9.81-4.94,14.96-.17,.82-.38,1.73-1.07,2.19-3.29-11.75-2.2-23.59,4.13-33.61-1.12,1.08-2.16,2.24-3.08,3.49-4.04,5.54-6.23,12.39-5.84,19.25,.37,6.58,3.7,12.51,4.92,18.9,.86-.94,1.84-1.77,2.87-2.47,3.79-2.56,8.43-3.49,12.15-6.19,4.17-3.02,6.84-7.8,7.42-12.9,.29-2.56,.05-5.18-.72-7.64-.28-.88-3.25-6.2-2.54-6.72Zm1.86,14.44c-.39,3.33-1.3,6.82-3.75,9.27-1.26,1.27-2.9,2.08-4.51,2.87-3.06,1.5-5.93,2.4-8.34,4.96-.7,.74-1.34,1.56-2.2,2.1-.11,.07-.23,.14-.36,.13-.39-.01-.46-.57-.39-.96,.35-2.16,.78-4.48,2.39-5.96,3.26-3,7.61-4.27,10.88-7.29,.78-.72,1.53-1.58,1.66-2.63,.06-.49-.03-.99-.06-1.49-.08-1.15,.11-2.3,.29-3.44,.21-1.28,1.64-3.18,3.11-2.25,.28,.18,.5,.45,.68,.78,.62,1.13,.71,2.94,.6,3.9Z"/><path class="cls-4" d="M167.28,381.4c.3,.14,.57,.4,.72,.7,.24,.49,.29,1.05,.46,1.57,.2,.6,.55,1.15,1.02,1.57,.13,.11,.27,.22,.43,.26,.36,.09,.72-.18,.88-.5s.18-.7,.22-1.07c.36-3.65,3.29-6.9,6.88-7.64-.48,1.15-.92,2.29-1.32,3.42,.1,.26-.09,.67-.23,1.05-1.14,3.15-1.2,6.42-.95,9.68,.3,1.34,.86,2.62,1.75,3.66,.6,.71,1.34,1.28,2.07,1.86l1.44,1.13c-.3-1.17-.56-2.35-.73-3.55-.39-2.7-.4-5.47,.22-8.14,.85-3.6,2.91-6.76,5.86-8.97,1.5-1.12,3.18-1.99,4.93-2.65,1.97-.73,3.68-.54,5.58,.44-.51-1.11-1.25-2.12-2.21-2.94-.6-.52-1.32-.93-2.09-1.27,.12,.12,.25,.23,.36,.36,.15,.18,.29,.39,.31,.62,.01,.12,0,.23-.05,.33-.14,.32-.5,.56-.85,.68-1.43,.48-2.98-.09-4.48-.3-3.58-.5-7.1,1.1-10.71,1.36-.21,.02-.43,.02-.59-.1-.3-.23-.2-.7-.03-1.04,.5-1.03,1.36-1.88,2.41-2.54h-.02c-3.17,1-6.07,2.83-8.35,5.24-1.65,1.74-2.57,4.27-2.94,6.77Z"/></g><g><path class="cls-1" d="M205.29,393.51h.02c-.46,.14-.17,.07-.02,0Z"/><path class="cls-1" d="M190.09,382.65v.06s.02,.03,0-.06Z"/><path class="cls-1" d="M195.89,414.64c1.6,3.62,4.3,6.71,7.47,9.04,2.77,2.04,5.97,3.47,9.21,4.59,1.54,.53,3.11,1.03,4.7,1.38,1.3,.52,3.22-.72,4.42-1.17,.04-.49-.35-.82-.82-1.05-.19-.09-.4-.17-.59-.23-6.09-1.93-11.49-5.95-15.09-11.23-1.13-1.66-2.1-3.46-2.48-5.43-.25-1.28-.28-2.86,.19-4.17-.27,.07-.54,.15-.82,.2-2.4,.51-4.93,.59-7.39,.31-.08,.51-.27,1.11-.3,1.79-.08,1.97,.7,4.19,1.48,5.97Z"/><path class="cls-1" d="M190.24,399.11c-3.38-2.18-4.94-6.82-3.56-10.6,1.19,1.11,2.2,2.39,3.44,3.44,1.87,1.58,4.27-.46,2.77-2.4-1.1-1.43-2.02-3.01-2.5-4.75-.18-.66-.26-1.37-.3-2.09v-.06c-.06-1.21,.05-2.44,.34-3.54,.06-.24,.58-1.34,1.09-2.29-.47,.12-1.03,.23-1.13,.28-.84,.4-1.54,1.12-1.98,1.93-.63,1.14-.81,2.48-.68,3.77,.2,1.91,1.08,3.77,2.47,5.1,.6,.57,1.33,.89,.72,1.79-.53,.78-1.58,.7-2.25,.16-2.48-2.01-3.77-5.37-3.47-8.54-1.17,1.66-1.94,3.63-2.31,5.6-.64,3.4-.57,7.43,1.01,10.58,.06,.12,.12,.24,.19,.36,1.78,3.22,5.18,4.93,8.67,5.7,2.66,.59,5.45,.6,8.12,.07,2.08-.41,5.23-.93,6.34-2.97,1.19-2.19-2.28-.63-3.24-.53-.49,.05-1.33,.06-2.23-.04-1.58,.81-3.54,1.11-5.18,1.09-2.59-.04-4.14-.65-6.32-2.06Zm-5.5-5.47h0Z"/><path class="cls-1" d="M209.16,392.87c-.47-.2-1.07-.25-1.71-.23-.67,.41-1.26,.86-1.64,1.15-1.25,.96-2.82,1.27-4.36,1.43-1.88,.19-3.78,.14-5.63,.5,.24,1.05,.99,1.76,1.89,2.26-.01-.06-.03-.13-.03-.19,0-.16,.04-.34,.18-.41,.11-.05,.23-.03,.35,0,1.69,.38,3.46,.38,5.15,0,1.39-.31,2.84-.36,4.1-1.09,.9-.52,3.82-2.52,1.72-3.41Z"/><path class="cls-1" d="M177.15,394.11c-.89-1.04-1.44-2.32-1.75-3.66,.1,1.33,.25,2.65,.41,3.97,.36,2.94,3.22,5.38,5.99,6.26-.05-.02-.12-.17-.21-.39-.29-.76-.73-2.38-.79-2.61-.05-.19-.09-.39-.14-.58l-1.44-1.13c-.73-.57-1.47-1.15-2.07-1.86Z"/><path class="cls-1" d="M171.01,383.93c-.04,.36-.05,.74-.22,1.07s-.53,.59-.88,.5c-.16-.04-.3-.15-.43-.26-.47-.42-.83-.97-1.02-1.57-.17-.52-.22-1.08-.46-1.57-.15-.3-.42-.56-.72-.7-.16,1.06-.23,2.12-.2,3.11,.11,3.97,1.6,6.89,4.39,9.61,.51,.5,1.75,1.67,2.16,.34,.13-.42,.01-.88-.09-1.31-.37-1.51-.56-3.06-.59-4.61-.04-2.55,.74-5.6,1.65-7.98,.18-.47,.73-1.12,1.29-1.14,.44,0,.63,.11,.69,.28,.4-1.14,.84-2.27,1.32-3.42-3.59,.74-6.52,3.99-6.88,7.64Z"/><path class="cls-1" d="M318.13,374.01c-14.31-.24-27.72,2.47-41.64,5.06-13.89,2.59-27.81,4.71-41.92,5.76-1.95,.14-4.66,.97-6.53,.46-.14-.04-.3-.1-.34-.24-.07-.22,.21-.39,.43-.46,3.6-1.14,7.3-2.12,10.79-3.53,2.91-1.18,5.78-2.45,8.6-3.82,1.18-.57,2.2-1.15,3.23-1.95,.61-.47,1.88-2.17,2.49-2.37-.88,.29-1.76,.59-2.63,.9-.24,.38-.7,.62-1.13,.81-3.14,1.37-6.15,3.08-9.37,4.16-3.5,1.17-7.06,2.19-10.65,3.05-7.18,1.72-14.52,2.8-21.89,3.21-3.48,.2-6.95,.15-10.43,.15-1.93-.06-1.93-3.06,0-3,.38,.01,.77,.01,1.15,.02-.05-1.07,.93-2.7,.73-3.63-.09-.4-.26-.75-.48-1.04-1.63-.23-3.2-.41-3.82,1.43-.83,2.47,.96,6.11,2.57,7.87,4.86,5.83,16.03,2.1,22.24,1.45,5.61-.59,11.34-.92,16.99-1.39,15.34-1.3,30.71-2.66,45.9-5.22,6.89-1.16,13.65-2.72,20.45-4.33,5.4-1.28,9.96-.99,15.26-3.33Z"/><path class="cls-1" d="M253.82,364.25c3.46-1.08,6.66-2.57,10.18-3.57,7.61-2.17,15.31-4.03,23.11-5.37,16.25-2.79,32.85-3.46,48.87-7.53,3.21-.81,6.46-1.54,9.24-3.32,3-1.93,6.32-3.72,9.49-5.38,4.62-2.42,9.83-3.38,14.67-5.43l-4.21-.74c-4.48-.79-9.25-1.68-13.79-.86-3.72,.67-7.35,3.16-10.9,4.6-8.51,3.46-17.16,6.57-25.89,9.42-10.39,3.39-21.81,2.79-32.46,5.42-7.87,1.95-15.25,5.25-22.74,8.31-4.18,1.71-8.29,2.16-12.52,3.52-4.69,1.51-9.32,3.22-14.01,4.74-6.43,2.08-12.61,4.87-19.1,6.78-1.36,.4-2.75,.82-4.14,1.21,11.52-.24,22.2-6.3,33.44-9.18,3.57-.92,7.23-1.51,10.76-2.61Z"/><path class="cls-1" d="M165.03,379.58c.05-.12,.1-.25,.15-.37,.38-.98,.75-1.97,1.16-2.94-.24,.55-1.56,.21-3.07-.41-.11,.76-.85,1.44-1.64,1.65-1.3,.36-2.98-.25-4.27-.47-5.94-1-11.6-2.15-15.96-6.56-3.68-3.72-6.16-8.53-8.88-12.86-2.27-3.62-4.61-7.33-7.77-10.27-3.47-3.23-7.95-5.49-12.78-5.4-.05,0-.1,.01-.15,.02-.54,.89-.97,1.82-1.26,2.81,.52-1.83,11.98,5.94,12.73,6.73,4.54,4.81,7.27,11.02,11.17,16.31-.01-.05-.02-.09-.04-.14,1.68,2.89,4,5.39,6.77,7.16,.29,.18,.61,.29,.94,.32,3.16,2.02,6.68,3.37,10.31,4.27,1.99,.49,3.95,1.08,5.96,1.43,1.47,.25,4.95,.82,6.09-.41,.23-.25,.39-.55,.52-.87Z"/><path class="cls-1" d="M128,337.49c2.26,4.07,6.17,6.84,8.67,10.75,1.17,1.82,2.41,3.63,3.78,5.32,.03-.01,.05-.03,.08-.04,1.05-.44,3.49,.82,4.46,1.21,3.08,1.24,5.93,3.07,8.32,5.37,1.89,1.82,2.7,3.66,4.18,5.78,.81,1.16,1.97,2.02,3.12,2.86l.33,.24c1.65,1.22,3.3,2.43,4.95,3.65,.23,.17,.47,.38,.55,.63,.3,.04,.59,.08,.89,.1,.16,.01,.31,.05,.46,.1,.9-1.4,2.08-2.64,3.56-3.38,.41-.21,.91-.46,.95-.92,.07-.78-2.47-1.9-3.04-2.33-1.37-1.02-2.71-2.08-4.02-3.18-2.67-2.24-5.22-4.63-7.61-7.16-4.5-4.76-7.37-10.4-11.84-15.18-4.27-4.57-9.19-8.54-14.56-11.74-.43-.26-.89-.52-1.39-.49-.42,.02-.8,.23-1.16,.43-.88,.5-1.85,1.03-2.86,1.57-.19,2.14,1.41,4.99,2.19,6.4Z"/><path class="cls-1" d="M156.09,426.55c.69-.47,.9-1.37,1.07-2.19,1.06-5.16,2.72-10.19,4.94-14.96,2.36-5.08,4.55-9.08,9.06-12.47-1.5-1.22-2.73-2.76-4.03-4.26-.88-1.01-1.62-2.22-2.06-3.5-1.75,1.07-3.37,2.35-4.84,3.77-6.33,10.01-7.43,21.86-4.13,33.61Z"/></g><g><path class="cls-5" d="M176.18,371.94c-.16,.34-.27,.81,.03,1.04,.16,.12,.39,.12,.59,.1,3.6-.27,7.13-1.86,10.71-1.36,1.5,.21,3.04,.78,4.48,.3,.35-.12,.72-.36,.85-.68,.04-.1,.06-.21,.05-.33-.02-.23-.16-.44-.31-.62-.11-.13-.24-.24-.36-.36-1.71-.75-3.7-1.13-5.41-1.34-2.75-.34-5.58-.1-8.23,.72-1.06,.67-1.91,1.51-2.41,2.54Z"/><path class="cls-5" d="M175.98,408.43c-1.47-.93-2.9,.97-3.11,2.25-.19,1.14-.38,2.29-.29,3.44,.04,.5,.12,1,.06,1.49-.12,1.05-.88,1.91-1.66,2.63-3.27,3.02-7.62,4.29-10.88,7.29-1.61,1.48-2.04,3.8-2.39,5.96-.06,.39,0,.94,.39,.96,.13,0,.25-.06,.36-.13,.86-.55,1.5-1.36,2.2-2.1,2.41-2.56,5.28-3.45,8.34-4.96,1.61-.79,3.24-1.6,4.51-2.87,2.45-2.45,3.36-5.94,3.75-9.27,.11-.96,.02-2.77-.6-3.9-.18-.33-.41-.61-.68-.78Z"/><path class="cls-5" d="M211.45,402.67c.12,.89,.99,1.46,1.78,1.88,3.2,1.69,6.12,4.33,6.65,8.11,.28,1.99,.18,3.69,.8,5.7,.71,2.31,1.62,4.58,3.04,6.56,1.65,2.3,4.15,4.15,6.86,4.72,.11-.16,.25-.32,.42-.43,.4-.27,.82-.49,1.25-.7-.07-.06-.14-.12-.21-.18-1.49-1.33-2.94-2.71-4.09-4.35-2.15-3.08-2.64-6.84-3.18-10.46-.52-3.48-1.13-7.19-3.82-9.71-2.38-2.24-5.83-3.18-9.02-2.51-.34,.38-.54,.87-.48,1.37Z"/><path class="cls-5" d="M234.22,378.16c2.27-.57,4.48-1.51,6.76-1.89,2.67-.46,5.34-1.32,7.92-2.16,.27-.09,.53-.18,.8-.27,.63-.48,1.27-.97,1.85-1.13-1.11,.31-2.23,.58-3.34,.83-3.81,.84-7.66,1.14-11.48,1.67-6.64,.93-12.79,3.49-19.54,4.01-4.07,.31-8.08,.88-12.18,.82-.78-.01-1.61-.02-2.29,.36-1.05,.59-1.09,1.24-.68,1.84,5.78-.07,11.56-.54,17.27-1.43,4.92-.76,10.01-1.41,14.89-2.65Z"/><path class="cls-5" d="M165.89,372.63c-1.65-1.22-3.3-2.43-4.95-3.65l-.33-.24c-1.14-.84-2.3-1.7-3.12-2.86-1.48-2.12-2.29-3.96-4.18-5.78-2.39-2.3-5.24-4.13-8.32-5.37-.97-.39-3.42-1.65-4.46-1.21-.03,.01-.05,.03-.08,.04-1.35,.67,.08,2.53,.88,3.23,1.01,.89,2.29,1.41,3.51,1.98,1.13,.52,2.23,1.12,3.29,1.79-.28-.3-.56-.59-.83-.89,5.37,1.06,6.31,6.61,10.18,9.57,2.68,2.06,5.61,3.59,8.97,4.02-.08-.26-.32-.46-.55-.63Z"/></g><g><g><path d="M401.41,335.26c-8.35-1.13-16.65-2.63-25.03-3.49-7.14-.74-14.69-1.74-21.91-2-5.33-.19-10.85,3.03-15.56,5.22-.92,.43-1.84,.87-2.76,1.31-.82,.37-1.63,.75-2.44,1.17-3.18,1.51-6.39,2.95-9.79,3.93-11.05,3.17-22.67,3.01-33.88,5.37-13.87,2.92-26.82,9.13-40.59,12.52-8.05,1.99-15.92,5.61-23.88,8.12-8.5,2.68-16.58,6.79-25.68,7.38-1.29-4.81-6.17-8.47-11.01-9.19-2.7-.4-5.45-.09-8.15,.3-1.19,.17-2.39,.36-3.57,.6-.82,.17-1.67,.62-2.51,.41-.76-.19-1.57-1-2.21-1.46-1.6-1.15-3.16-2.35-4.69-3.6-3.04-2.5-5.92-5.21-8.6-8.1-5.82-6.29-10.68-14.04-17.27-19.56-2.45-2.05-5.5-3.44-7.53-5.91-.69-.84-1.29-1.83-2.25-2.34-1.49-.77-3.29-.15-4.82,.56-5.33,2.46-10,5.78-14.38,9.64-2.32,2.05-6.37,7.52-5.92,10.9,.46,3.41,5.76,2.39,8.59,3.62,6.9,3,9.77,8.49,13.63,14.68,2.35,3.78,4.96,7.46,8.46,10.26,3.62,2.9,7.82,4.92,12.26,6.22,4.82,1.41,9.86,2,14.88,2.11,.04,.32,.08,.63,.14,.95-.12,.36-.2,.72-.25,1.09-.15,.03-.29,.08-.44,.17-6.35,3.63-11.12,9.5-13.78,16.28-2.82,7.19-2.74,14.79-.4,22.09,1.24,3.85,2.89,7.67,3.38,11.71,.12,.95-.35,3.68,.3,4.45,1.99,2.34,5.26-4.99,7.33-6.28,3.22-2.01,6.95-2.99,10.2-4.93,5.77-3.42,9.63-9.47,10.39-16.12,.4-3.52-.14-7.07-1.43-10.34,1.24,.76,2.61,1.3,4.05,1.55,.59,.1,1.24-.07,1.6-.54,.86,.55,1.79,1.01,2.73,1.39-1,7.87,2.95,15.41,8.83,20.5,6.05,5.24,13.99,8.1,21.96,8.39,4.65,.17,9.23-.63,13.49-2.53,1.15-.51,3.44-.48,4.32-1.37,2.12-2.15,.12-1.66-1.29-2.39-3.82-1.99-5.84-4.87-7.12-9.1-1.07-3.53-1.08-7.28-2.08-10.82-.97-3.39-2.91-6.3-5.96-8.13-3-1.8-6.65-2.35-10.04-1.48-.25,.06-.45,.17-.6,.31-.07-.35-.16-.69-.29-1.03,1.55-1.33,2.57-3.13,2.87-5.12,.04-.26,.09-.55,.3-.71,.19-.15,.45-.16,.69-.16,3.58,.01,6.7-.18,10.25-.78,3.72-.42,7.46-.67,11.19-.99,7.63-.65,15.27-1.3,22.89-2.1,11.23-1.18,22.45-2.66,33.52-4.88,.32,.39,.83,.62,1.47,.43,4.87-1.46,9.77-2.84,14.7-4.12,6.69-1.42,13.74-2.51,20.3-4.54,3.09-.57,6.19-1.08,9.31-1.51,14.4-1.99,28.94-2.16,43.38-.57,28.21,3.11,55.33,12.25,82.08,21.32,12.35,4.19,24.7,8.4,37.2,12.14v-3.13c-24.42-7.35-48.28-16.5-72.78-23.6-13.65-3.95-27.51-7.25-41.61-9.13-14.43-1.93-28.97-2.24-43.45-.63-10.69,1.19-21.09,3.39-31.62,5.84-3.02,.7-6.02,1.41-8.98,2.16-6.32,1.6-12.71,2.91-19.13,3.99-15.2,2.56-30.56,3.92-45.9,5.22-5.65,.48-11.38,.8-16.99,1.39-6.2,.66-17.38,4.38-22.24-1.45-1.61-1.76-3.4-5.4-2.57-7.87,.62-1.84,2.19-1.66,3.82-1.43,.66,.09,1.33,.19,1.96,.17,3.06-.12,6.11-.83,9.1-1.68,1.4-.39,2.78-.81,4.14-1.21,6.49-1.91,12.67-4.69,19.1-6.78,4.69-1.52,9.32-3.23,14.01-4.74,4.23-1.37,8.35-1.81,12.52-3.52,7.49-3.07,14.87-6.37,22.74-8.31,11.19-2.76,22.66-2.48,33.79-5.4,8.86-2.32,18.09-3.96,25.99-8.86,8.23-5.11,15.68-3.9,24.61-3.07,10.79,1,21.43,2.22,32.17,3.74,12.53,1.78,25.09,2.47,37.74,1.97,12.56-.5,25.06-2.02,37.46-4.05,8.75-1.43,17.44-3.13,26.12-4.94v-3.06c-20.03,4.19-40.21,7.84-60.66,8.91-12.67,.66-25.35,.25-37.92-1.46Zm-236.9,45.18c-1.14,1.24-4.62,.67-6.09,.41-2.02-.35-3.98-.94-5.96-1.43-3.63-.9-7.15-2.25-10.31-4.27-.33-.03-.65-.14-.94-.32-2.77-1.77-5.08-4.27-6.77-7.16,.01,.05,.02,.09,.04,.14-3.9-5.29-6.62-11.49-11.17-16.31-.75-.79-12.21-8.57-12.73-6.73,.28-.99,.72-1.92,1.26-2.81,2.87-4.73,8.97-8.15,13.97-10.88,1.01-.55,1.97-1.08,2.86-1.57,.36-.21,.75-.42,1.16-.43,.5-.02,.96,.24,1.39,.49,5.37,3.2,10.29,7.17,14.56,11.74,4.47,4.78,7.34,10.42,11.84,15.18,2.39,2.53,4.94,4.93,7.61,7.16,1.31,1.1,2.65,2.16,4.02,3.18,.57,.43,3.1,1.55,3.04,2.33-.04,.46-.54,.71-.95,.92-1.48,.74-2.65,1.98-3.56,3.38-.15-.05-.3-.09-.46-.1-.3-.02-.6-.06-.89-.1-3.35-.43-6.28-1.97-8.97-4.02-3.87-2.96-4.81-8.51-10.18-9.57,.28,.3,.56,.59,.83,.89,1.03,1.1,2.06,2.19,3.09,3.29,2.8,2.99,3.47,7.3,7.22,9.59,.45,.27,2.81,1.59,4.85,2.42,1.5,.61,2.83,.96,3.07,.41-.41,.97-.78,1.96-1.16,2.94-.05,.12-.1,.25-.15,.37-.13,.31-.29,.62-.52,.87Zm14.15,32.58c-.57,5.1-3.25,9.87-7.42,12.9-3.72,2.7-8.36,3.63-12.15,6.19-1.03,.7-2.02,1.53-2.87,2.47-1.22-6.38-4.54-12.32-4.92-18.9-.39-6.87,1.8-13.72,5.84-19.25,.92-1.26,1.97-2.42,3.08-3.49,1.48-1.42,3.09-2.7,4.84-3.77,.44,1.28,1.18,2.49,2.06,3.5,1.31,1.5,2.53,3.04,4.03,4.26,.86,.7,1.81,1.3,2.92,1.72,.43,.16,.95,.29,1.32,.02-.71,.52,2.26,5.83,2.54,6.72,.77,2.46,1,5.08,.72,7.64Zm31.56-11.95c.38,.31,.86,.42,1.33,.29,.13-.03,.25-.04,.38-.07,3.19-.68,6.63,.27,9.02,2.51,2.68,2.52,3.3,6.23,3.82,9.71,.54,3.62,1.03,7.38,3.18,10.46,1.15,1.64,2.6,3.02,4.09,4.35,.07,.06,.14,.12,.21,.18-.43,.2-.85,.43-1.25,.7-.17,.12-.3,.27-.42,.43-.04,.06-.09,.12-.13,.19-13.09,3.99-29.33-.38-36.4-12.7-1.87-3.26-2.92-7.03-2.51-10.8,.02,0,.04,.01,.07,.02,1.02,.24,2.06,.42,3.11,.53,2.47,.27,4.99,.19,7.39-.31,.27-.06,.54-.13,.82-.2,1.43-.37,2.82-.91,4.06-1.73,1.14-.76,3.01-2.14,3.25-3.56Zm-15.32-12.44c2.29,2.71,5.63,3.9,9.08,4.17,.95,.07,2.28-.15,3.47-.17,.65-.01,1.25,.04,1.71,.23,2.1,.89-.82,2.89-1.72,3.41-1.26,.73-2.71,.78-4.1,1.09-1.69,.37-3.46,.37-5.15,0-.12-.03-.24-.05-.35,0-.14,.07-.18,.26-.18,.41,0,.07,.02,.13,.03,.19,.22,1.36,2.26,1.93,4.04,2.12,.91,.09,1.75,.09,2.23,.04,.96-.1,4.44-1.66,3.24,.53-1.11,2.03-4.26,2.55-6.34,2.97-2.67,.53-5.46,.51-8.12-.07-3.49-.77-6.89-2.48-8.67-5.7-.06-.12-.13-.24-.19-.36-1.57-3.15-1.65-7.18-1.01-10.58,.37-1.97,1.14-3.94,2.31-5.6-.31,3.17,.98,6.53,3.47,8.54,.67,.54,1.72,.62,2.25-.16,.61-.91-.12-1.22-.72-1.79-1.39-1.33-2.27-3.19-2.47-5.1-.13-1.29,.05-2.64,.68-3.77,.45-.81,1.14-1.53,1.98-1.93,.11-.05,.66-.16,1.13-.28,.36-.09,.67-.18,.69-.25-1.22,4.15-.15,8.73,2.68,12.07Zm-3.94-14.85c-1.75,.65-3.43,1.52-4.93,2.65-2.96,2.22-5.02,5.38-5.86,8.97-.63,2.67-.62,5.44-.22,8.14,.17,1.2,.43,2.38,.73,3.55,.05,.19,.09,.39,.14,.58,.06,.24,.5,1.85,.79,2.61,.09,.23,.16,.38,.21,.39-2.77-.89-5.63-3.33-5.99-6.26-.16-1.32-.31-2.64-.41-3.97-.25-3.26-.19-6.53,.95-9.68,.14-.38,.32-.79,.23-1.05-.06-.18-.26-.29-.69-.28-.55,.01-1.11,.66-1.29,1.14-.91,2.38-1.69,5.43-1.65,7.98,.03,1.55,.22,3.1,.59,4.61,.1,.43,.22,.89,.09,1.31-.42,1.33-1.65,.16-2.16-.34-2.79-2.72-4.28-5.64-4.39-9.61-.03-.99,.04-2.05,.2-3.11,.37-2.5,1.29-5.02,2.94-6.77,2.28-2.41,5.18-4.24,8.35-5.23h.02c2.65-.83,5.48-1.07,8.23-.73,1.7,.21,3.69,.59,5.41,1.34,.77,.34,1.49,.75,2.09,1.27,.96,.82,1.7,1.84,2.21,2.94-1.9-.98-3.62-1.17-5.58-.44Z"/><path d="M490.86,480.82c2.99-4.53,5.79-9.23,9.14-13.5v-4.61c-3.47,3.96-6.45,8.45-9.24,12.76-3.53,5.48-7.14,10.83-11.68,15.54-3.14,3.26-6.57,6.23-10.16,8.99h4.77c1.75-1.44,3.46-2.92,5.1-4.49,4.62-4.41,8.54-9.37,12.06-14.69Z"/></g><path d="M240.98,376.26c-2.28,.39-4.49,1.32-6.76,1.89-4.88,1.23-9.98,1.88-14.89,2.65-5.71,.89-11.49,1.36-17.27,1.43-1.25,.01-2.5,0-3.74-.02-.38,0-.77,0-1.15-.02-1.93-.06-1.93,2.94,0,3,3.48,0,6.95,.05,10.43-.15,7.37-.42,14.71-1.5,21.89-3.21,3.59-.86,7.15-1.88,10.65-3.05,3.22-1.08,6.23-2.79,9.37-4.16,.43-.19,.89-.43,1.13-.81,.07-.11,.13-.22,.15-.35-.36,.13-.72,.24-1.08,.36-.27,.09-.53,.18-.8,.27-2.57,.84-5.25,1.7-7.92,2.16Z"/><path d="M429.33,462.37c-2.07-12.81-4.55-25.65-8.21-38.11-5.1-17.34-12.59-34.55-22.65-49.7-1.3,.24-2.69,.19-3.91-.05-.69-.14-1.39-.33-2.07-.54,3.01,4.75,5.89,9.59,8.83,14.5,6.1,10.17,10.98,21.31,14.63,32.59,3.91,12.07,6.45,24.59,8.63,37.07,2.42,13.86,4.11,27.84,5.11,41.87h4c-.9-12.6-2.35-25.16-4.36-37.63Z"/></g></svg>