<?xml version="1.0" encoding="UTF-8"?><svg id="Headwear" xmlns="http://www.w3.org/2000/svg" xmlns:xlink="http://www.w3.org/1999/xlink" viewBox="0 0 500 500"><defs><style>.cls-1{fill:url(#linear-gradient);}.cls-2{fill:url(#linear-gradient-2);}</style><linearGradient id="linear-gradient" x1="249.3" y1="93.2" x2="222.58" y2="43.5" gradientTransform="matrix(1,0,0,1,0,0)" gradientUnits="userSpaceOnUse"><stop offset=".22" stop-color="#333"/><stop offset=".38" stop-color="#373837"/><stop offset="1" stop-color="#969c8f"/></linearGradient><linearGradient id="linear-gradient-2" x1="190.41" y1="119.2" x2="305.2" y2="119.2" gradientTransform="matrix(1,0,0,1,0,0)" gradientUnits="userSpaceOnUse"><stop offset="0" stop-color="#4d4d4d"/><stop offset=".5" stop-color="#373837"/><stop offset=".78" stop-color="#333"/></linearGradient></defs><g id="_" data-name="2"><path class="cls-1" d="M239.43,117.92c5.77,.48,11.55,.6,17.31,.03,7.77-.78,16.28-1.15,23.66-3.89,1.76-.65,3.5-1.49,4.88-2.76,3.83-3.53,2.28-12.28,2.3-17.09,.03-7-.5-14.04-2.18-20.85-.84-3.41-1.87-7.63-5.25-9.46-2.24-1.21-5.95-2.08-8.44-1.99-5.17,.19-11.1,1.29-15.83,3.41-.93,.42-1.82,.88-2.68,1.38-7.93,4.61-10.69,14.4-17.96,19.74-5.12,3.75-12.01,8.68-18.32,4.2-2.02-1.43-3.83-5.07-1.63-7.01,.24-.21,.51-.4,.83-.42,.59-.04,1.06,.55,1.14,1.14,.08,.59-.1,1.17-.21,1.75-.7,3.82,5.82,3.73,8.09,2.62,4.96-2.42,8.99-4.8,12.53-9.09,2.77-3.36,5.1-7.07,8.06-10.28,1.59-1.73,2.94-3.08-.41-2.54-2.37,.38-4.71,.82-7.13,.68-3.18-.18-6.47-.83-9.48-1.55-7.23-1.73-18.33-.63-20.1,8.27-.52,2.63-.24,5.32-.04,7.97,.23,3.13,.47,6.25,.7,9.38,.46,6.18,.92,12.36,1.38,18.55,.01,.14,0,.26-.03,.38,3.86,3.26,8.72,4.78,13.63,5.65,5.01,.88,10.13,1.35,15.19,1.77Z"/><path class="cls-2" d="M290.12,98.76c.41,.12-.44,11.21-.82,12.23-1.64,4.46-8.9,6.6-13.08,7.53-6.43,1.43-13.03,2.15-19.59,2.65-6.74,.51-13.51,.49-20.25-.06-9.4-.76-20.49-2.31-27.83-8.88-.43-.38-.52-.87-.41-1.31-.07-.14-.12-.3-.13-.49-.26-3.53-.53-7.05-.79-10.58,0,.11-6.65,3.84-7.3,4.34-2.44,1.89-4.93,4.18-6.63,6.78-1.91,2.93-3.01,7.06-2.87,10.53,.2,4.99,3.52,9.46,7.72,12.16,4.2,2.7,9.18,3.89,14.11,4.69,12.26,2,24.26,1.55,36.43-.46,3.39-.56,6.69-.54,10.04-1.14,6.93-1.24,14.15-2.46,20.91-4.78,6.42-2.21,13.41-5.27,18.4-9.89,.6-.56,1.31-1.25,2.05-2.05,3.29-3.54,7.08-8.99,3.95-12.68-3.5-4.14-8.71-7.06-13.91-8.61Z"/><path d="M302.19,102.07c-2.52-1.96-5.33-3.59-8.29-4.78-1.21-.49-2.45-.88-3.71-1.23,.12-6.76-.21-13.51-1.53-20.14-.94-4.69-1.42-10.05-5.25-13.41-3.27-2.88-8.66-3.54-12.84-3.2-6.61,.55-12.73,2.51-19,4.53-2.99,.97-6.16,.62-9.3,.89-3.3,.29-7.55,.2-10.75-.73-4.49-1.31-9.14-1.93-13.77-.92-4.03,.88-7.93,2.88-10.13,6.49-1.54,2.52-1.95,5.39-1.94,8.3,.02,3.43,.42,6.88,.68,10.29,.22,2.97,.44,5.93,.66,8.9-.07,.02-.14,.03-.21,.07-5.84,2.45-11.04,6.37-14.95,11.37-1.73,2.22-2.48,5.08-3.54,7.64-1.22,2.95-1.32,6.33-.42,9.38,1.23,4.16,4.16,7.69,7.71,10.18s7.7,4.01,11.92,5.03c9.57,2.31,19.55,2.05,29.3,1.45,6.47-.4,12.9-1.24,19.28-2.31,6.04-1.01,12.33-1.73,18.25-3.29,4.07-1.07,8.13-2.23,12.08-3.69,3.59-1.33,6.23-3.02,9.34-5.06,5.11-3.36,15.27-11.6,12.52-18.55-1.18-2.98-3.64-5.29-6.11-7.23Zm-91.56,8.05c-.46-6.18-.92-12.36-1.38-18.55-.23-3.13-.47-6.25-.7-9.38-.2-2.65-.48-5.34,.04-7.97,1.77-8.9,12.87-10,20.1-8.27,3,.72,6.29,1.37,9.48,1.55,2.42,.13,4.76-.31,7.13-.68,3.36-.54,2.01,.81,.41,2.54-2.95,3.21-5.29,6.92-8.06,10.28-3.54,4.29-7.57,6.67-12.53,9.09-2.27,1.11-8.79,1.2-8.09-2.62,.11-.58,.29-1.17,.21-1.75-.08-.59-.55-1.18-1.14-1.14-.32,.02-.59,.21-.83,.42-2.19,1.94-.38,5.58,1.63,7.01,6.32,4.48,13.21-.44,18.32-4.2,7.27-5.34,10.03-15.13,17.96-19.74,.86-.5,1.75-.97,2.68-1.38,4.73-2.12,10.66-3.22,15.83-3.41,2.49-.09,6.2,.78,8.44,1.99,3.38,1.82,4.4,6.04,5.25,9.46,1.69,6.81,2.21,13.85,2.18,20.85-.02,4.81,1.53,13.56-2.3,17.09-1.38,1.28-3.12,2.11-4.88,2.76-7.38,2.74-15.89,3.11-23.66,3.89-5.77,.58-11.54,.45-17.31-.03-5.07-.42-10.18-.89-15.19-1.77-4.92-.87-9.77-2.39-13.63-5.65,.02-.12,.04-.24,.03-.38Zm89.45,9.92c-.74,.79-1.45,1.49-2.05,2.05-5,4.63-11.98,7.68-18.4,9.89-6.76,2.32-13.99,3.54-20.91,4.78-3.35,.6-6.65,.58-10.04,1.14-12.17,2-24.17,2.45-36.43,.46-4.93-.8-9.91-1.99-14.11-4.69-4.2-2.7-7.52-7.18-7.72-12.16-.14-3.47,.96-7.6,2.87-10.53,1.69-2.6,4.19-4.89,6.63-6.78,.65-.5,7.31-4.23,7.3-4.34,.26,3.53,.53,7.05,.79,10.58,.01,.19,.06,.35,.13,.49-.11,.44-.02,.93,.41,1.31,7.34,6.57,18.44,8.11,27.83,8.88,6.73,.55,13.51,.57,20.25,.06,6.56-.49,13.16-1.21,19.59-2.65,4.19-.93,11.44-3.07,13.08-7.53,.38-1.02,1.23-12.11,.82-12.23,5.2,1.55,10.41,4.48,13.91,8.61,3.12,3.69-.66,9.14-3.95,12.68Z"/><g><path d="M285.17,99.17c-.09-1.27-.25-2.54-.45-3.8-.2-1.26-.4-2.48-.26-3.76,.14-1.28-1.86-1.27-2,0-.27,2.51,.54,5.07,.71,7.56,.18,2.58,.08,5.16-.25,7.72-.07,.54,.51,.99,1,1,.6,0,.93-.47,1-1,.34-2.56,.43-5.14,.25-7.72Z"/><path d="M281.1,102.5c-.54,.02-1,.44-1,1v3.67c0,.52,.46,1.02,1,1,.54-.02,1-.44,1-1v-3.67c0-.52-.46-1.02-1-1Z"/><path d="M278.45,107.46c-.1-.47-.19-.94-.29-1.41-.03-.13-.09-.24-.18-.34-.07-.11-.16-.19-.28-.26-.11-.07-.24-.11-.37-.12-.13-.03-.27-.02-.4,.02-.24,.08-.48,.23-.6,.46l-.1,.24c-.05,.18-.05,.35,0,.53,.1,.47,.19,.94,.29,1.41,.03,.13,.09,.24,.18,.34,.07,.11,.16,.19,.28,.26,.11,.07,.24,.11,.37,.12,.13,.03,.27,.02,.4-.02,.24-.08,.48-.23,.6-.46l.1-.24c.05-.18,.05-.35,0-.53Z"/><path d="M299.37,107.54c-.35-.39-1.06-.38-1.41,0-.38,.42-.37,1,0,1.41,.07,.08,.14,.16,.21,.25,.01,.02,.12,.17,.15,.21,.14,.2,.26,.42,.38,.64,.05,.1,.1,.21,.15,.31,0,.01,0,.02,.02,.04,.02,.06,.04,.12,.06,.17,.09,.25,.16,.5,.22,.76,.03,.12,.05,.24,.07,.36,0,.01,0,.07,.01,.11v.09c.03,.25,.04,.49,.03,.74,0,.12,0,.25-.02,.37,0,.06-.01,.12-.02,.18h0c-.05,.27-.1,.52-.17,.78-.15,.5,.18,1.11,.7,1.23,.53,.12,1.07-.16,1.23-.7,.7-2.42,.06-5.07-1.6-6.95Z"/></g></g></svg>