<?xml version="1.0" encoding="UTF-8"?><svg id="Headwear" xmlns="http://www.w3.org/2000/svg" viewBox="0 0 500 500"><defs><style>.cls-1{fill:#f8ccd4;}.cls-2{fill:#fff;}.cls-3{fill:#fbfaf9;}.cls-4{fill:#bbb;}.cls-5{fill:#dcdbda;}</style></defs><g><g><path class="cls-5" d="M393.23,182.96c-2.11-17-8.05-33.04-16.46-48.69-1.97-3.67-3.71-7.52-6.35-10.75-5.34-6.49-9.48-13.81-15.52-19.81-3.63-3.6-8.79-5.15-12.92-8.16-2.42-1.77-4.46-4.02-6.74-5.96-4.25-3.62-8.92-5.44-14.12-7.19-4.69-1.58-9.04-4.1-13.74-5.82-6.12-2.24-12.48-3.72-18.82-5.19-11.33-2.64-22.68-5.28-34.23-6.65-25.85-3.07-51.57,.97-76.1,9.08-4.53,1.5-8.89,3.48-13.1,5.72-9.58,5.1-18.44,11.54-26.26,19.06s-15.01,15.79-20.32,25.1c-1.94,3.4-3.73,6.87-5.51,10.35-1.36,2.64-2.71,5.28-3.81,8.03-1.49,3.75-2.48,7.68-3.46,11.59-2.68,10.68-6.11,21.02-9.05,31.62-.58,2.09-1.15,4.39-.24,6.36,.39,.85,1.16,1.63,2.1,1.67,1.27,.06,2.19-1.18,2.72-2.34,1.56-3.45,1.41-7.17,2.87-10.73,1.74-4.24,3.87-8.32,6.35-12.17,7.27-11.25,17.64-20.42,29.82-26.02,31.18-14.35,68.59-9.37,101.23-3.64,18.45,3.24,35.66,8.31,51.44,18.6,10.21,6.66,20.08,12.16,28.74,21.01,16.04,16.41,26.53,37.94,29.22,60.76,.38,3.25,.61,6.52,.68,9.8,.27,12.45-1.47,24.96-5.26,36.83-2.34,7.3-5.14,14.57-9.26,21.07-4.1,6.46-8.8,10.47-15.24,14.33-4.34,2.6-8.78,5.04-13.3,7.3-17.3,8.65-35.9,14.51-54.85,18.24-8.99,1.77-17.94,2.33-26.89,3.79-9.45,1.54-19.1,2.24-28.67,1.53-15.47-1.15-28.16-7.3-41.77-14.17-2.67-1.35-5.23-2.9-7.82-4.4-1.26-.73-2.53-1.46-3.81-2.14-.78-.41-1.73-.83-2.39-1.41-.64-.55-.96-1.16-1.81-1.5-.23-.09-.5-.17-.73-.06-.48,.23-.31,.95-.07,1.42,2.93,5.77,6.36,11.51,11.35,15.74,2.54,2.15,5.93,3.59,8.9,5.03,3.23,1.56,6.54,2.98,9.89,4.26,5.11,1.96,10.33,3.64,15.6,5.13,45.47,12.82,91.59,2.21,135.05-13.65,7.76-2.83,15.51-5.86,22.48-10.29,4.99-3.18,10.81-7.29,13.69-12.64,3-5.59,5.27-11.75,8.38-17.49,7.19-13.26,13.95-26.82,19.11-41.01,3.52-9.69,5.4-19.91,6.45-30.14,.96-9.36,2.13-18.58,2.97-27.87,.73-8.07,.56-15.9-.39-23.54Z"/><path class="cls-4" d="M241.54,138.44c18.45,3.24,35.66,8.31,51.44,18.6,10.21,6.66,20.08,12.16,28.74,21.01,16.04,16.41,26.53,37.94,29.22,60.76,.38,3.25,.61,6.52,.68,9.8,.21,9.36-.73,18.76-2.82,27.89,1.92-3.57,3.73-7.19,5.11-10.99,2.5-6.88,2.85-13.46,2.23-20.71-1.27-14.95-2.24-30.55-7.61-44.71-7.74-20.44-25.53-34.63-43.98-45.12-10.66-6.06-21.48-12.32-32.88-16.89-11.2-4.49-22.56-6.49-34.5-7.71-21.66-2.22-43.53-5.44-65.34-3.51-22.67,2-42.55,11.4-57.73,28.46-.73,.81-1.53,1.28-2.34,1.48-.14,.19-.28,.38-.42,.58-7.22,10.47-12.14,22.44-14.51,34.92,.42,.57,1.02,1.01,1.72,1.04,1.27,.06,2.19-1.18,2.72-2.34,1.56-3.45,1.41-7.17,2.87-10.73,1.74-4.24,3.87-8.32,6.35-12.17,7.27-11.25,17.64-20.42,29.82-26.02,31.18-14.35,68.59-9.37,101.23-3.64Z"/><g><path class="cls-4" d="M290.39,74.38c-.33-1.09-1.12-2.02-2.45-2.44-14.87-4.7-30.59-6.99-46.06-8.69-5.22-.57-10.03-.2-14.93,.6-13.21-1.19-26.61,2.39-39.4,6.1-.95,.28-1.59,.82-1.98,1.49-.52,.4-.88,.92-1.06,1.51-2.68,1.92-.8,7.13,3.09,6.19,8.95-2.16,17.97-3.83,27.1-4.94,22.49,.42,43.69,.06,65.75,5.77,2.23,.58,4.6,1.2,6.81,.52,2.49-.76,3.82-3.81,3.13-6.1Z"/><path class="cls-4" d="M146.53,91.88c-16.7,14-29.51,31.69-37.97,51.74-1.75,4.14,5.02,5.96,6.75,1.86,7.98-18.91,20.46-35.48,36.17-48.65,3.46-2.9-1.52-7.83-4.95-4.95Z"/><path class="cls-4" d="M387.96,157.08c-.42-1.88-1.89-2.61-3.36-2.49-1.93-7.33-4.43-14.55-7.63-21.63-.82-1.81-2.45-2.12-3.86-1.57-2.38-5.16-4.95-10.24-7.51-15.28-1.12-2.22-5.35-8.29-8.07-5.57-2.93,2.92,3.76,14.97,5.55,18.2,3.03,5.46,5.99,10.96,8.69,16.59,2.43,5.05,2.92,9.05,3.93,14.4,2.42,12.76,2.95,25.6,3.34,38.56,.47,15.19-.39,30.44-2.99,45.42-5.69,32.8-21.28,62.24-39.52,89.48-.76,1.14-1.42,2.9-.3,3.69-.07-.05,7.5-3.84,8.31-4.28,3.12-1.69,5.84-4.13,7.99-6.93,.72-.06,1.44-.39,2.07-1.12,6.16-7.08,10.17-15.14,13.27-23.61,.63-.25,1.21-.74,1.63-1.52,3.52-6.58,8.56-13.13,11.21-19.96,2.9-7.48,3.99-15.54,5.94-23.28,2.73-10.86,4.59-21.94,5.59-33.09,1.97-22.04,.52-44.38-4.29-65.98Z"/><path class="cls-4" d="M314.92,322.81c-7.39,3.42-17.55,8.14-18.85,8.73-13.32,5.97-27.24,10.69-41.63,13.24-16.94,3-34.12,5.32-51.37,4.61-11.13-.46-22.26-2.23-32.75-6.06-5.29-1.94-10.4-4.38-15.19-7.34-4.52-2.78-8.4-8.12-13.68-9.07-1.18,1.85,.16,4.22,1.45,5.98,4.67,6.37,7.48,8.8,14.34,12.2,7.38,3.66,14.93,6.65,22.92,8.69,16.02,4.1,32.78,4.83,49.21,3.43,16.77-1.43,33.42-4.58,49.45-9.73,15.91-5.11,31.55-11.2,42.61-24.24,.96-1.13,1.94-2.66,1.29-4-.01-.03-3.42,1.54-7.8,3.57Z"/></g><path d="M395.43,198.57c-.11-12.26-.96-22.97-4.47-34.91-3.74-12.74-9.02-25.05-16.03-36.33-11.2-18.04-26.96-33.46-45.95-42.96-7.04-3.52-14.46-6.22-21.94-8.69-22.02-7.28-44.83-12.69-68-13.47-28.34-.95-58.3,6.04-82.53,20.94-17.47,10.75-31.89,26.15-41.67,44.17-5.7,10.51-10.31,21.62-13.63,33.11-1.66,5.75-2.99,11.58-3.99,17.48-.9,5.28-3.3,9.78-2.67,15.41,.18,1.62,1.65,4.35,3.71,4.08,1.87-.24,3.76-4.08,4.64-5.54,2.7-4.53,4.44-9.54,6.55-14.35,3.11-7.06,7.7-13.34,13.23-18.7,22.14-21.41,53.07-22.76,81.83-21.2,34.87,1.89,72.3,10.24,100.54,31.75,22.78,17.35,40.52,42.11,43.13,71.51,1.24,14.02-.07,28.3-4.1,41.79-1.9,6.35-4.17,13.75-8.13,19.15-6.42,8.75-12.74,14.19-22.26,19.27-9.88,5.27-20.14,9.83-30.72,13.51-15.11,5.27-30.84,8.77-46.77,10.35-15.38,1.53-30.47,3.63-45.91,1.16-10.81-1.73-20.98-6.13-30.64-11.12-4.38-2.26-8.7-4.63-12.9-7.2-2.05-1.25-4.07-2.55-6.05-3.89-.82-.56-3.05-2.56-4.12-1.58-.62,.57-.21,2.9-.11,3.65,.18,1.34,.55,2.66,1.05,3.92,.95,2.4,2.36,4.59,3.85,6.7,2.44,3.46,5.16,6.75,8.27,9.63,2.92,2.7,6.4,5.49,9.99,7.18,6.05,2.83,12.33,5.17,18.7,7.17,7.39,2.33,14.94,4.41,22.6,5.6,10.96,1.7,22.37,2.82,33.4,1.15,4.3-.65,8.44-.77,12.77-1.22,14.62-1.54,28.46-5.29,42.8-8.83,13.11-3.24,25.73-8.17,38.28-13.16,15.04-5.98,25.69-13.23,34.06-27.09,7.25-19.12,21.71-35.58,27.22-55.18,5.77-20.55,6.18-42.1,5.98-63.3Zm-3.67,15.33c-.26,16.75-1.8,34.76-7.56,50.62-5.96,16.39-14.63,32.33-23.48,47.31-10.59,17.93-29.2,28.79-48.87,34.82-11.36,3.48-22.76,6.87-34.29,9.76-22.7,5.68-46.11,9.34-69.57,7.62-7.65-.56-15.14-2.34-22.5-4.42-1.63-.46-3.25-.94-4.86-1.43-7.01-2.16-13.91-4.72-20.53-7.92-.74,0-2.1-1.09-2.73-1.47-.88-.52-1.73-1.09-2.57-1.68-1.66-1.19-3.21-2.51-4.66-3.95-2.74-2.72-5.78-5.7-7.83-9-.89-1.43-2.37-3.38-2.17-5.14,.17-1.46,2.14,.73,2.64,.99,1.56,.8,3.1,1.61,4.61,2.47,2.98,1.7,5.9,3.52,8.96,5.06,13.61,6.87,26.3,13.02,41.77,14.17,9.56,.71,19.22,0,28.67-1.53,8.95-1.46,17.9-2.02,26.89-3.79,18.95-3.73,37.56-9.59,54.85-18.24,4.52-2.26,8.96-4.7,13.3-7.3,6.44-3.86,11.14-7.87,15.24-14.33,4.12-6.5,6.93-13.77,9.26-21.07,3.79-11.87,5.53-24.38,5.26-36.83-.07-3.27-.3-6.55-.68-9.8-2.69-22.82-13.17-44.35-29.22-60.76-8.66-8.85-18.53-14.35-28.74-21.01-15.78-10.29-32.98-15.36-51.44-18.6-32.64-5.73-70.05-10.71-101.23,3.64-12.18,5.61-22.55,14.78-29.82,26.02-3.68,5.69-6.57,11.88-8.57,18.35-.55,1.78-1.48,6.86-3.29,3.54-1.73-3.19,.35-8.05,1.27-11.21,2.68-9.18,5.32-18.39,8.53-27.41,2.43-6.83,4.55-13.89,7.88-20.38,4.31-8.38,9.63-16.25,15.84-23.34,29.14-33.3,75.95-46.97,118.94-41.19,12.18,1.64,24.58,2.94,36.41,6.44,14.51,4.29,27.91,8.94,41.32,15.74,21.57,10.95,38.47,30.84,49.39,51.97,5.98,11.57,10.4,22.44,12.18,35.48,1.71,12.51,1.56,25.19,1.37,37.79Z"/></g><path class="cls-2" d="M252.38,106.14c-1.09-1.38-2.45-2.74-4.11-4.02-10.61-8.24-27.33-9.45-37.28,.34-7.68,7.55-5.82,20.23,3.9,25.01,5.92,2.91,13.41,3.5,19.92,3.83,16.19,.83,26.8-13.39,17.57-25.16Z"/><g><path d="M210.08,101.26c.99-1.64,1.29-3.6,.88-5.47-.39-1.79-1.3-3.76-2.91-4.78-1.67-1.05-3.7-.82-5.14,.52-.65,.61-1.16,1.32-1.57,2.1-.83,1.16-1.34,2.66-1.48,4.03-.17,1.67,.18,3.49,1.37,4.75,2.45,2.59,7.03,1.82,8.84-1.16Z"/><path d="M254.5,104.23c-.06-1.91,.64-3.77,1.91-5.2,1.22-1.37,2.98-2.64,4.87-2.74,1.97-.1,3.63,1.1,4.22,2.98,.27,.85,.36,1.72,.34,2.6,.16,1.42-.14,2.97-.68,4.24-.67,1.54-1.87,2.95-3.52,3.47-3.4,1.05-7.02-1.86-7.14-5.35Z"/><path d="M241.77,110.8s-.03,.27-.02,.3c-.02,.1-.05,.21-.09,.31-.01,.04-.02,.05-.02,.06-.03,.05-.05,.1-.08,.15-.06,.11-.13,.23-.21,.33,.11-.16-.17,.19-.17,.19-.09,.1-.19,.19-.3,.28-.09,.08,.02,0-.15,.11-.13,.09-.28,.17-.42,.25,0,0-.41,.2-.23,.12-.14,.06-.3,.1-.45,.14-.3,.08-.6,.15-.91,.19-.75,.09-1.53,.04-2.28,0-.57-.04-1.43-.11-1.76-.17-.26-.05-.52-.12-.78-.19-.07-.02-.1-.03-.12-.03-.02-.01-.04-.03-.1-.06-.03-.02-.21-.14-.25-.15-.3-.27-.34-.53-.34-.91,0-.34,.05-.65,.12-.96,1.27-.14,2.66-.56,3.25-1.81,.36-.77,.45-1.68,0-2.44-.37-.64-.95-1.03-1.63-1.28-.14-.05-.28-.09-.43-.12-.01,0-.02-.01-.04-.02-.02,0-.05-.01-.07-.02-.01,0-.03-.01-.04-.02-.06-.03-.12-.05-.19-.06l-.27-.04c-.15-.14-.33-.26-.56-.31-1.15-.27-2.3-.46-3.47-.26-1.37,.23-2.78,1.32-2.79,2.81-.01,1.57,1.37,2.52,2.66,3.06,.1,.04,.21,.07,.32,.11-.23,.39-.58,.72-1.04,.97-1.07,.58-2.43,.56-3.6,.38-2.12-.33-4.62-1.61-4.52-4.02,.08-1.93-2.92-1.97-3-.04-.08,1.86,.8,3.71,2.21,4.91,.97,.83,2.09,1.38,3.29,1.73,0,.14,0,.28,.04,.41,.66,2.71,3.64,4.33,6.19,4.8,2.83,.52,5.75-.32,7.45-2.74,.11-.15,.17-.32,.2-.5,1.63,.05,3.3-.12,4.74-.95,1.61-.93,2.8-2.57,2.83-4.46,.04-1.93-2.96-1.98-3-.04Zm-11.56,5.78c-.94-.19-1.81-.53-2.61-1.04-.42-.27-.53-.38-.89-.74h0c1.38,0,2.77-.27,3.94-1,.16,.29,.35,.58,.6,.84,.69,.7,1.57,1.05,2.51,1.26-.33,.23-.76,.45-.98,.52-.88,.27-1.63,.35-2.56,.16Z"/><path class="cls-1" d="M269.62,115.35c-.4-1.31-1.42-2.27-2.69-2.74-.63-.23-1.41-.3-2.05-.11-.53,.15-.9,.49-1.19,.91-.15,.15-.28,.32-.38,.51-.23,.46-.29,.96-.28,1.46-.06,.77,.08,1.56,.38,2.27,.29,.87,.76,1.66,1.53,2.23,.61,.46,1.41,.6,2.15,.45,.82-.17,1.44-.75,1.93-1.4,.74-.99,.96-2.41,.6-3.59Z"/><path class="cls-1" d="M275.92,113.94s-.03-.07-.06-.1c-.08-.11-.17-.23-.26-.34-.01-.02-.03-.03-.04-.05-.14-.14-.3-.27-.48-.35-.15-.07-.3-.14-.45-.19-.05-.02-.11-.02-.17-.03l-.06-.04c-.23-.14-.49-.2-.76-.2l-.4,.05c-.25,.07-.47,.2-.66,.39-.17,.14-.3,.33-.42,.51-.12,.18-.2,.4-.27,.6-.05,.16-.07,.33-.09,.49h0c0,.06-.01,.12-.02,.17-.02,.22,.03,.45,.07,.67,.04,.21,.13,.41,.24,.59,.01,.02,.02,.04,.04,.05,.08,.11,.17,.24,.26,.34,.03,.04,.06,.07,.1,.1,.28,.22,.53,.41,.89,.49,.39,.08,.64,.08,1.03,0,.04,0,.09-.02,.13-.04,.16-.06,.32-.12,.47-.2,.14-.08,.27-.2,.4-.3,.04-.03,.08-.07,.11-.1,.11-.12,.21-.26,.31-.4,.03-.04,.05-.08,.07-.12,.17-.36,.24-.58,.26-.98,.02-.37-.1-.67-.25-1Z"/><path class="cls-1" d="M198.44,104.89c-.31-.79-.84-1.49-1.63-1.86-.9-.42-1.95-.42-2.8,.14-.02,.01-.04,.03-.06,.05-.01,0-.02,.01-.03,.02-1.29,.93-2.29,2.18-2.44,3.82,0,.07,0,.14,0,.22-.32,1.37-.07,3.01,1.28,3.73,.85,.45,1.83,.38,2.67-.05,.12-.06,.22-.15,.33-.22,.03-.01,.07-.01,.1-.03,.79-.31,1.38-.82,1.88-1.5,.39-.53,.67-1.17,.8-1.81,.17-.81,.22-1.71-.09-2.5Z"/><path class="cls-1" d="M190.09,103.53c0-.2-.07-.39-.18-.56-.21-.32-.51-.6-.9-.69l-.4-.05c-.27,0-.52,.07-.76,.2-.11,.05-.21,.11-.31,.18-.05,.04-.1,.08-.15,.12-.18,.04-.35,.09-.53,.19-.16,.09-.31,.2-.43,.34-.15,.14-.25,.3-.31,.48-.09,.18-.14,.37-.13,.58,0,.12,.02,.25,.06,.38-.01,.05-.04,.11-.05,.16-.04,.23-.08,.47-.09,.71,0,.25,.04,.5,.07,.74,.07,.25,.2,.47,.39,.66,.14,.15,.3,.25,.48,.31,.18,.09,.37,.14,.58,.13,.27,0,.52-.07,.76-.2,.14-.08,.27-.17,.4-.26,.21-.15,.44-.31,.61-.51,.28-.33,.44-.59,.59-1,.1-.29,.1-.6,.06-.9,.09-.12,.16-.26,.2-.41,.06-.2,.07-.4,.03-.6Z"/></g><g><path class="cls-2" d="M260.37,99.47c-.14-.21-.34-.4-.6-.46-.26-.06-.53-.04-.77,.1-.22,.13-.43,.28-.63,.44-.14,.11-.28,.24-.4,.38-.3,.32-.56,.69-.75,1.08-.07,.11-.11,.24-.12,.37-.03,.13-.02,.27,.02,.4,.06,.23,.24,.48,.46,.6,.23,.12,.51,.18,.77,.1,.24-.08,.49-.23,.6-.46,.09-.19,.2-.36,.32-.53,.15-.18,.31-.34,.49-.49,.08-.06,.16-.12,.25-.17,.22-.13,.39-.36,.46-.6,.04-.13,.05-.27,.02-.4,0-.13-.05-.26-.12-.37Z"/><path class="cls-2" d="M261.12,102.83c-.04-.12-.11-.23-.21-.32-.09-.1-.2-.17-.32-.21-.12-.06-.25-.09-.39-.09l-.27,.04c-.17,.05-.32,.13-.44,.26l-.16,.2c-.09,.16-.14,.32-.14,.5v.14c0,.14,.02,.27,.09,.39,.04,.12,.11,.23,.21,.32,.09,.1,.2,.17,.32,.21,.12,.06,.25,.09,.39,.09l.27-.04c.17-.05,.32-.13,.44-.26l.16-.2c.09-.16,.14-.32,.14-.5v-.14c0-.14-.02-.27-.09-.39Z"/><path class="cls-2" d="M206.64,93.11c-.08-.24-.23-.48-.46-.6-.22-.12-.52-.2-.77-.1-.75,.29-1.43,.71-1.98,1.3-.55,.59-.95,1.28-1.18,2.05-.15,.5,.18,1.11,.7,1.23,.54,.12,1.07-.16,1.23-.7,.03-.09,.06-.18,.1-.27,.11-.24,.24-.46,.39-.67,.19-.23,.4-.44,.63-.63,.23-.16,.48-.31,.74-.42l-.06,.03c.23-.09,.43-.22,.57-.44,.13-.21,.18-.53,.1-.77Z"/><path class="cls-2" d="M205.85,94.88c-1.29,0-1.29,2,0,2s1.29-2,0-2Z"/></g><g><path class="cls-5" d="M375.11,40.27c-2.6-10.9-9.18-20.87-20.19-24.44-.95-.31-1.82-.33-2.58-.16-.33-.14-.66-.28-1-.4-4.51-1.57-9.01-1.05-13.61-.23-6.86,1.23-13.62,2.96-19.4,6.65-1.07-.21-2.2-.04-3.2,.73-4.96,3.76-8.39,8.46-11.07,13.69-.77,1.19-1.48,2.45-2.11,3.77-.36,.76-.54,1.5-.58,2.2-.55,1.37-1.07,2.75-1.57,4.16-4.2,11.85-7.32,24.04-10.45,36.2-.05,.18-.07,.35-.1,.52-.01,.03-.03,.06-.04,.09-.15,.51-.28,1.03-.42,1.55-.37,.47-.68,1.04-.89,1.71-1.58,5.27-5.02,11.89-1.53,17.06,2.29,3.4,5.72,4.53,9.33,4.53,.8,.66,1.81,1.02,2.99,.87,5.07-.66,9.92-4.05,14.24-7.98,6.04-3.1,11.95-6.44,17.74-10,5.41-2.82,10.83-5.64,16.24-8.46,.97,.18,2.02,.08,3.1-.4,7.27-3.28,13.68-7.92,19.15-13.72,1.25-1.33,1.58-2.85,1.31-4.24,.49-.94,.93-1.9,1.3-2.9,.59-.73,1.15-1.48,1.68-2.24,3.82-5.51,3.14-12.35,1.66-18.57Z"/><path class="cls-3" d="M353.6,43.05c-2.7-7.28-10.38-11.56-18-10.17-4.08,.74-7.43,3.01-10.27,5.9-2.25,1.63-4.3,3.55-6.05,5.64-5.9,7.01-9.79,15.64-13.7,23.86-2.35,4.94-4.59,9.93-6.72,14.97-.49,1.15-.44,2.42,.64,3.23,.97,.72,2.41,.73,3.28-.2,2.68-2.83,5.68-5.29,9.04-7.29,3.59-2.14,7.46-3.59,11.38-4.97,7.96-2.81,16.15-6.03,23.02-11.04,3.2-2.34,5.94-5.17,7.35-8.94,1.29-3.44,1.3-7.53,.02-10.98Z"/><path class="cls-4" d="M372.26,30.46c-1.5-2.65-3.24-4.84-4.37-3.41-.29,.37-.3,.88-.27,1.35,.13,2.26,.85,4.44,1.33,6.65,3.86,17.89-8.23,31.11-22.78,39.47-8.7,5-17.87,9.1-26.68,13.89-4.94,2.69-12.93,5.78-15.47,11.24-4.37,9.37,9.67,.15,11.91-1.24,13.95-8.66,29.82-13.95,43.02-23.87,7.72-5.81,14.36-14.15,16.61-23.7,1.11-4.69,1.06-9.59-.42-14.19-.19-.59-1.41-3.61-2.86-6.19Z"/><path d="M354.77,13.54c-15.17-5.21-35.9,1.86-46.93,12.85-8.16,8.14-11.58,20.05-14.48,30.92-2.83,10.61-5.63,21.23-8.45,31.84-.72,2.71-1.44,5.41-2.15,8.12-.5,1.87,2.4,2.66,2.89,.8,2.75-10.35,5.49-20.7,8.24-31.05,2.39-9.01,4.35-18.42,8.4-26.86,1.89-3.93,4.27-7.62,7.36-10.72,3.26-3.27,5.43-6.06,9.82-8.13,9.18-4.33,18.98-7.5,29.3-6.14,14.59,1.94,26.19,16.12,26.31,30.63,.14,16.47-13.96,28.43-27.13,35.79-14.01,7.83-29.87,12.35-42.73,22.13-.33,.84-.64,1.7-.91,2.56,.02,.63,.09,1.27,.17,1.91,12.16-10.4,28.1-15.17,42.17-22.49,14.26-7.42,29.14-19.11,31.22-36.18,1.88-15.35-8.64-31.01-23.09-35.98Z"/></g><g><path class="cls-5" d="M118.56,21.84c4.9-8.85,13.04-15.92,23.48-16.36,.9-.04,1.66,.15,2.28,.49,.32-.04,.64-.08,.97-.11,4.3-.27,8.09,1.27,11.89,3.1,5.67,2.73,11.13,5.88,15.26,10.48,.98,.07,1.92,.5,2.61,1.41,3.4,4.47,5.25,9.39,6.31,14.59,.38,1.23,.7,2.49,.92,3.79,.13,.75,.1,1.44-.03,2.05,.14,1.32,.26,2.65,.35,4,.79,11.32,.55,22.68,.32,34.01,0,.17-.02,.32-.04,.48,0,.03,0,.06,0,.09,0,.48,0,.96,0,1.45,.21,.5,.34,1.07,.36,1.71,.1,4.96,1.49,11.56-2.8,15.2-2.82,2.4-6.07,2.56-9.22,1.68-.85,.38-1.82,.45-2.81,.03-4.25-1.8-7.64-5.93-10.46-10.39-4.51-4.16-8.83-8.49-13-12.99-4.02-3.77-8.05-7.53-12.07-11.29-.88-.08-1.78-.42-2.6-1.1-5.53-4.61-9.98-10.2-13.33-16.57-.77-1.46-.68-2.86-.11-4-.2-.93-.35-1.88-.43-2.84-.34-.78-.64-1.56-.92-2.35-1.99-5.72,.26-11.5,3.06-16.55Z"/><path class="cls-3" d="M135.41,29.6c4.51-5.61,12.52-7.11,18.81-3.65,3.37,1.86,5.64,4.83,7.29,8.21,1.5,2.09,2.73,4.39,3.66,6.73,3.13,7.9,4.01,16.63,5.03,25,.61,5.03,1.11,10.08,1.5,15.14,.09,1.15-.32,2.25-1.51,2.65-1.06,.35-2.33-.07-2.83-1.14-1.52-3.28-3.44-6.32-5.8-9.06-2.53-2.94-5.5-5.35-8.54-7.72-6.18-4.81-12.43-10.05-16.99-16.48-2.13-2.99-3.7-6.29-3.83-10.02-.12-3.41,1.08-7,3.21-9.66Z"/><path class="cls-4" d="M169.37,93.94c-.05-1.15-.47-2.4-1-3.36-2.84-5.18-8.82-10.59-13.37-14.29-6.37-5.16-13.07-9.54-18.51-15.77-5.46-6.25-10.22-13.94-12.34-22.01-2.86-10.87,3.61-20.7,8.78-29.7-4.61,1.08-8.14,4.46-11.2,7.9-2.54,2.86-4.11,6.4-4.76,10.15-.6,.4-1.09,1.01-1.35,1.88-1.92,6.39,.53,12.23,3.17,18.02,2.94,6.42,6.29,12.48,11.24,17.59,.42,.43,.87,.71,1.32,.87,3.04,3.48,6.4,6.69,10.04,9.55,4.24,3.32,8.78,6.23,12.65,10.01,3,2.93,7.57,12.5,12.45,12.31,2.25-.09,2.94-1.52,2.87-3.16Z"/><path d="M142.72,3.52c14.46-.86,30.78,10.31,37.7,22.54,5.13,9.06,5.22,20.24,5.1,30.4-.11,9.91-.24,19.83-.36,29.74-.03,2.53-.06,5.06-.09,7.58-.02,1.74-2.73,1.74-2.71,0,.12-9.67,.24-19.33,.36-29,.1-8.41,.68-17.07-.8-25.4-.69-3.88-1.86-7.66-3.8-11.1-2.05-3.63-3.25-6.59-6.57-9.45-6.93-5.99-14.69-11.12-23.99-12.43-13.15-1.85-26.68,7.68-30.3,20.26-4.11,14.29,5.26,28.11,14.93,37.69,10.29,10.2,22.99,17.97,31.8,29.59,.08,.82,.15,1.63,.17,2.45-.17,.54-.38,1.08-.61,1.62-8.05-11.99-20.76-20-31.22-29.77-10.61-9.91-20.71-23.68-18.39-39.03,2.09-13.8,15.02-24.88,28.8-25.7Z"/></g></g><g><path d="M360.95,296.01c-.58-.16-1.02,.2-1.23,.7-1.32,3.14-3.24,6.03-5.59,8.49-.89,.93,.52,2.35,1.41,1.41,2.6-2.73,4.64-5.9,6.1-9.37,.21-.5-.23-1.1-.7-1.23Z"/><path d="M124.92,123.79c-4.57,4.43-7.65,10.31-8.64,16.6-.2,1.26,1.73,1.8,1.93,.53,.93-5.98,3.77-11.51,8.12-15.72,.93-.9-.49-2.31-1.41-1.41Z"/><path d="M133.37,116.32c-.06-.23-.24-.48-.46-.6-.23-.12-.51-.18-.77-.1-.26,.08-.45,.23-.6,.46-.5,.75-1.01,1.51-1.51,2.26-.14,.21-.17,.54-.1,.77,.06,.23,.24,.48,.46,.6,.23,.12,.51,.18,.77,.1,.26-.08,.45-.23,.6-.46,.5-.75,1.01-1.51,1.51-2.26,.14-.21,.17-.54,.1-.77Z"/><path d="M123.11,22.62c-3.37,4.94-3.8,11.48-1.27,16.87,.55,1.16,2.27,.15,1.73-1.01-2.24-4.76-1.68-10.53,1.27-14.85,.73-1.07-1.01-2.07-1.73-1.01Z"/><path d="M131.6,51.49c-.36-.3-.7-.62-1.02-.97-.08-.09-.15-.18-.23-.27-.04-.04-.08-.09-.11-.14-.15-.2-.29-.4-.42-.61-.25-.39-.46-.81-.65-1.23-.02-.06-.05-.11-.07-.17-.04-.11-.08-.22-.12-.33-.08-.23-.15-.47-.21-.71-.13-.51-.73-.86-1.23-.7-.53,.17-.83,.69-.7,1.23,.51,2.06,1.69,3.97,3.33,5.31,.4,.33,1.02,.42,1.41,0,.34-.37,.43-1.06,0-1.41Z"/><path d="M369.32,38.04c-.42-1.21-2.36-.69-1.93,.53,1.58,4.49,1.53,9.35-.14,13.8-.45,1.21,1.48,1.73,1.93,.53,1.78-4.75,1.82-10.08,.14-14.86Z"/><path d="M366.33,60c-.12-.21-.36-.41-.6-.46-.26-.06-.54-.05-.77,.1l-.2,.16c-.07,.08-.13,.16-.18,.25-.21,.5-.49,.97-.81,1.4-.32,.39-.68,.75-1.07,1.07-.02,.02-.05,.04-.07,.05-.22,.15-.39,.33-.46,.6-.07,.24-.04,.56,.1,.77,.27,.42,.91,.68,1.37,.36,.59-.42,1.14-.9,1.59-1.48,.24-.31,.48-.63,.68-.97,.21-.35,.37-.72,.52-1.09,.09-.22,.01-.57-.1-.77Z"/><path d="M349.28,74.53c-5.02,3.64-10.59,6.42-16.53,8.2-1.23,.37-.71,2.3,.53,1.93,6.09-1.83,11.85-4.67,17.01-8.4,1.03-.75,.03-2.48-1.01-1.73Z"/><path d="M148.4,68.18c-2.91-1.84-5.82-3.68-8.74-5.52-1.09-.69-2.1,1.04-1.01,1.73,2.91,1.84,5.82,3.68,8.74,5.52,1.09,.69,2.1-1.04,1.01-1.73Z"/><path d="M141.6,47.5c-3.84-2.17-5.47-7.19-3.78-11.23,.21-.5-.22-1.1-.7-1.23-.58-.16-1.02,.2-1.23,.7-2.03,4.85,.15,10.92,4.7,13.49,1.12,.63,2.13-1.09,1.01-1.73Z"/><path d="M352.19,45.14c-.28-1.26-2.2-.72-1.93,.53,.93,4.24-.74,8.99-4.19,11.65-.43,.33-.66,.86-.36,1.37,.25,.42,.94,.69,1.37,.36,4.2-3.24,6.26-8.71,5.11-13.91Z"/><path d="M369.74,134.86c-1.89-2.63-3.78-5.26-5.66-7.89-.31-.44-.87-.65-1.37-.36-.43,.25-.68,.93-.36,1.37,1.89,2.63,3.78,5.26,5.66,7.89,.31,.44,.87,.65,1.37,.36,.43-.25,.68-.93,.36-1.37Z"/><path d="M377.62,153.98c-.76-3.63-2.05-7.14-3.79-10.42-.6-1.14-2.33-.13-1.73,1.01,1.66,3.13,2.86,6.47,3.59,9.94,.26,1.26,2.19,.73,1.93-.53Z"/><path d="M384.85,215.22c-.11-1.27-2.11-1.28-2,0,.55,6.19,.32,12.42-.73,18.55-.22,1.26,1.71,1.8,1.93,.53,1.09-6.31,1.37-12.71,.8-19.08Z"/><path d="M379.97,231.03c-.03-.27-.09-.51-.29-.71-.17-.17-.46-.3-.71-.29-.49,.02-1.06,.44-1,1,.08,.74,.11,1.49,.05,2.24-.01,.17-.03,.34-.05,.51,0,.04-.01,.09-.02,.13-.01,.09-.03,.19-.04,.28-.06,.37-.14,.73-.24,1.09-.13,.51,.17,1.11,.7,1.23,.52,.12,1.09-.16,1.23-.7,.41-1.56,.54-3.19,.36-4.79Z"/><path d="M379.66,251.49c-1.11,8.09-3.68,15.9-7.62,23.05-.62,1.13,1.1,2.14,1.73,1.01,4.02-7.3,6.69-15.27,7.82-23.53,.17-1.26-1.75-1.8-1.93-.53Z"/></g></svg>