<svg id="Headwear" xmlns="http://www.w3.org/2000/svg" xmlns:xlink="http://www.w3.org/1999/xlink" viewBox="0 0 500 500"><defs><style>.cls-1{fill:url(#linear-gradient);}.cls-2{fill:#fd523b;}.cls-3{fill:#e81423;}.cls-4{fill:#d87113;}.cls-5{fill:url(#linear-gradient-2);}.cls-6{fill:url(#linear-gradient-3);}.cls-7{fill:#f2881d;}.cls-8{fill:#9e5d30;}.cls-9{fill:#874c25;}.cls-10{fill:#6d4118;}.cls-11{fill:#009245;}.cls-12{fill:#006837;}.cls-13{fill:#fad331;}.cls-14{fill:#fff;}.cls-15{fill:#04b755;}.cls-16{fill:#ffbb8c;}.cls-17{fill:#f0efee;}.cls-18{fill:#dddcdb;}</style><linearGradient id="linear-gradient" x1="269.42" y1="104.7" x2="286.13" y2="26.44" gradientUnits="userSpaceOnUse"><stop offset="0.01" stop-color="#efb620"/><stop offset="0.34" stop-color="#f2881d"/><stop offset="1" stop-color="#d87113"/></linearGradient><linearGradient id="linear-gradient-2" x1="83.03" y1="199.75" x2="113.06" y2="173.24" gradientUnits="userSpaceOnUse"><stop offset="0.01" stop-color="#efb620"/><stop offset="0.25" stop-color="#f2881d"/><stop offset="0.39" stop-color="#ec851e"/><stop offset="0.58" stop-color="#db7c22"/><stop offset="0.8" stop-color="#bf6e29"/><stop offset="1" stop-color="#9e5d30"/></linearGradient><linearGradient id="linear-gradient-3" x1="252.62" y1="239.07" x2="215.78" y2="88.38" gradientUnits="userSpaceOnUse"><stop offset="0" stop-color="#f1981e"/><stop offset="0.65" stop-color="#f0aa1f"/><stop offset="1" stop-color="#efb620"/></linearGradient></defs><path class="cls-1" d="M202.2,80.14a325.13,325.13,0,0,1,47,2.3,330.67,330.67,0,0,1,46,8.94q15.21,4.11,30,9.67c10.94,4.13,21.33,8.11,30.1,16,3.66,3.29,8.36,5.07,12.46,7.7,5.6,3.6,10.15,8.12,15.3,12.13.87.69,1,.57,1.07-.47.37-6.82-4.06-13.58-8.23-18.63a187,187,0,0,0-16.52-16.88c-9.07-8.49-19.6-13.69-30.44-19.61-9-4.92-17.95-10.13-27.61-13.73a162.85,162.85,0,0,0-48.67-10.06,170,170,0,0,0-51.74,5.42,166.83,166.83,0,0,0-47.45,20.8.89.89,0,0,1-.45.15c-.15.16-.28.3-.4.45l0,.06-.16.23a7.78,7.78,0,0,0-.42.74c1.18-.22,2.36-.45,3.54-.65A318.78,318.78,0,0,1,202.2,80.14Z"/><path class="cls-2" d="M241.15,88.43a413.54,413.54,0,0,1,64.62,15.42,167.63,167.63,0,0,1,29.54,12.35,255.87,255.87,0,0,1,26.9,17.55c8,5.79,16.76,11.37,22.79,19.31,5,6.6,10.73,12.62,16.17,18.85.27.31.52.63.78,1,0-2.9,0-5.81-.21-8.71a16.48,16.48,0,0,0-1-5,14.46,14.46,0,0,0-2.84-4.21c-4.75-5.27-9.72-10.37-14.58-15.55a12.76,12.76,0,0,1-3.19-2.28q-6.33-5-12.87-9.65c-4.31-3.1-8.86-6-13.34-8.85-3.59-2.25-6.6-6.25-10.61-7.81-17.92-7-35.33-14.23-54.19-19a325.56,325.56,0,0,0-92.46-9.55,313.33,313.33,0,0,0-34.05,3.28q-6.12.54-12.24,1.32l-.1,0c-6.25,1.09-12.53,2.55-18.26,5.36a39.18,39.18,0,0,0-4.13,2.35c-1.18.76-2.58,1.61-3.12,3-.69,1.73-.41,3.61-.68,5.39,16.69-8.63,35-13.76,53.63-16.12C198.82,84.25,220.18,85.27,241.15,88.43Z"/><path class="cls-3" d="M401.78,161.43a7.65,7.65,0,0,0-1.09-5.08.94.94,0,0,0-1.09-.43,2.38,2.38,0,0,0-1-.38,1.51,1.51,0,0,0-.3,0,1.17,1.17,0,0,0-.34-.44c-8.35-6.34-16.95-12.35-25.59-18.28C364,131,355.57,125,347,119.43a43.55,43.55,0,0,0-6.83-3.73,1,1,0,0,0-.62-.67,237.17,237.17,0,0,1-22.1-9.56c-3.5-1.73-7-3.54-10.65-4.93a63,63,0,0,0-11.23-3c-1.47-.27-3-.49-4.44-.7a381.1,381.1,0,0,0-53.4-10.11c-9.35-1.17-18.74-2.38-28.17-2.4-4.81,0-9.61.18-14.42.31s-9.38.18-14.06.46a110.74,110.74,0,0,0-26.66,5.4.92.92,0,0,0-.84-.17l-4.9,1.28a.92.92,0,0,0-.59,0l-1.57.56-6.37,1.66-6.72,1.76-3.36.87-1.44.38-1,.25h-.08a1.12,1.12,0,0,0-.1-.81,2.61,2.61,0,0,1,.17-.28l.11-.16,0,0a6.39,6.39,0,0,1,.5-.54,3.47,3.47,0,0,1,.29-.25h0l0,0,.15-.11a6.8,6.8,0,0,1,.7-.38,1,1,0,0,0,.36-1.37,1,1,0,0,0-1.37-.35,6,6,0,0,0-2.62,2.38,2.83,2.83,0,0,0-.2.28,1,1,0,0,0-1,.71c-.07.19-.12.38-.17.57h0a2.81,2.81,0,0,0-.83,2.21c-.37,1.43-.14,3.28,1.68,3.37a4,4,0,0,0,2.12-.75,8.14,8.14,0,0,0,1.61-.69c.36-.2.71-.4,1.08-.57l.09,0h0a2.65,2.65,0,0,1,.3-.11l.3-.08.11,0h0a1.16,1.16,0,0,0,.84-.48l.54-.21c4.89-1.79,9.8-3.51,14.71-5.25l3.22-.84a.84.84,0,0,0,1,.35c8.75-2.92,17.7-5.49,26.92-6.31,4.58-.4,9.17-.46,13.76-.59s9.45-.28,14.18-.36a204.5,204.5,0,0,1,27.75,1.9c9.34,1.12,18.67,2.43,27.93,4.08q10,1.77,19.83,4.14a1.08,1.08,0,0,0,.92,1.33c2.68.3,5.36.59,8,1l.86.23a.79.79,0,0,0,.7.93c1.31.21,2.6.45,3.9.7a1,1,0,0,0,.33.35,24.24,24.24,0,0,0,6.84,2.47,50.52,50.52,0,0,1,8.11,2.9c5.4,2.39,10.75,4.91,16.12,7.37a1.08,1.08,0,0,0,1.51-.86c1.09.47,2.19.92,3.28,1.38a1.06,1.06,0,0,0,.82,1.58,19.61,19.61,0,0,1,4,.85.91.91,0,0,0,.36,1.28q9.06,5,17.83,10.6a1,1,0,0,0,.41.71l22.45,17.18a66.81,66.81,0,0,1,5.89,4.93.75.75,0,0,0,0,.33c1.32,3.89,4.21,6.8,7,9.67l2.33,2.38c.6.61,1.28,1.62,2.11,1.94a1.4,1.4,0,0,0,.73.06,29.38,29.38,0,0,0,3.27,5.09.78.78,0,0,0,.4.28c.09.37.19.74.27,1.12.25,1.13,1.93.83,2-.27,0-.93,0-1.85,0-2.77A26.79,26.79,0,0,0,401.78,161.43Z"/><path class="cls-4" d="M394.53,249.84c-.6-.91-1.22-1.8-1.83-2.7a138.83,138.83,0,0,1-3.25,14.73,73.68,73.68,0,0,1-2.8,8.05,58,58,0,0,0,10.78-11,18.44,18.44,0,0,0-2.19-8Z"/><path class="cls-5" d="M93.57,170c-2.07,1.55-3.69,3.49-5.6,5.11a29.62,29.62,0,0,0-2,2.76c-5.58,9.56,1.36,24.55,9.45,31.45.49-2.61,1-5.22,1.51-7.87,2.74-13.9,9.5-27.44,15-40.42.57-1.32,1.15-2.6,1.75-3.86-3.83,2.68-8.33,4-12.23,6.94Z"/><path class="cls-6" d="M387.5,201.77a228.47,228.47,0,0,0-23.41-28.26c-16.92-17.34-36.75-31.93-58.82-42-25.53-11.67-53.26-15.88-81.16-16.19-14.81-.16-29.62.61-44.39,1.67-14.57,1-29.21,2.6-43.3,6.64-12.67,3.64-24.91,9.61-34.93,18.26-6.87,5.92-13.6,13.19-17,21.71-.8,2-2.11,4.71-1.93,6.9.59,7.26,7.34-.89,9.69-2.6s4.85-3.48,7.3-5.16c4.41-3,8.73-6.17,13.27-9,13.6-8.49,29.57-13.92,45.08-17.64,16.42-3.94,33.53-3.93,50.24-2.38,5.3.49,10.59.95,15.88,1.55,20,2.25,38.56,7.85,57.11,15.38A190.84,190.84,0,0,1,310.62,166c6.48,4,12.71,8.45,18.86,13,9,6.65,17.44,13.06,25.55,20.79a367.7,367.7,0,0,1,25.52,26.56c4.36,5.09,8.51,9.78,12.61,15.1,2.88,3.73,4.3,7.26,6.41,11.3.3.59.61,1.18.92,1.76,9.24-12.67,4.08-25.23-3.05-37.28Q392.76,209.28,387.5,201.77Z"/><path class="cls-7" d="M104,142.55c2.7-1.57,5.42-3.11,8-4.84,2-1.35,6.24-3.67,6.75-6.34a2.87,2.87,0,0,1,.51-1.15,84.28,84.28,0,0,0-17.78,11.65,87.22,87.22,0,0,0-7,6.67Q99.14,145.38,104,142.55Z"/><path class="cls-7" d="M125.51,131.37l-.07.94a3.66,3.66,0,0,1,2.53.54c12.41-6.65,26.18-11.69,40.19-11.39a2.18,2.18,0,0,1,.38.05c3.27-.2,6,2.15,9,3.24a5.64,5.64,0,0,0,4.52,0,42.63,42.63,0,0,0,4.94-2.87,13.51,13.51,0,0,1,4.26-1.87,5.83,5.83,0,0,1,4.35,1.22,7.34,7.34,0,0,0,3.84,1.56c2.05.13,4.06.25,6.08.55a35.27,35.27,0,0,0,5.79.65,17.67,17.67,0,0,0,5.26-1.08c3.36-1.1,6.67-2.44,10.22-1.46s7,3.3,10.72,2.42,6.73-3.55,10.22-5.06a22.82,22.82,0,0,1,5.51-1.56,256.49,256.49,0,0,0-29.1-1.92c-14.81-.16-29.62.61-44.39,1.67-14.57,1-29.21,2.6-43.3,6.64a104.16,104.16,0,0,0-14.32,5.26A3.18,3.18,0,0,1,125.51,131.37Z"/><path class="cls-7" d="M397.44,217.17q-4.68-7.89-9.94-15.4a228.47,228.47,0,0,0-23.41-28.26,198.87,198.87,0,0,0-55.46-40.43c1.55,1.85,2.65,4,4.13,5.91a4.87,4.87,0,0,0,2,1.71,11.67,11.67,0,0,1,3.16,1.62c1.6,1.39,2.22,3.68,3,5.56a19,19,0,0,0,4.23,5.83c1.62,1.62,3.41,3.07,5.14,4.58a41.44,41.44,0,0,1,4.9,5.1,43.19,43.19,0,0,0,4.2,4.76,16.92,16.92,0,0,0,5.69,3.08c4.29,1.61,7.64,4.43,11.16,7.27,3.92,3.17,8.66,4.82,13.47,6.14,3,.82,5.76,1.33,7.69,4a27.53,27.53,0,0,1,2.83,5.92,20.36,20.36,0,0,0,3.33,5.72c3.27,3.92,4.95,8.65,7.49,13s6.48,7.29,8.62,11.73l0,.08c.62.15,1.25.29,1.88.42a1.61,1.61,0,0,1,.29.09A89.35,89.35,0,0,0,397.44,217.17Z"/><path class="cls-7" d="M403.43,229.34a1.76,1.76,0,0,1-1.31.7,2,2,0,0,1-1,.26,25.59,25.59,0,0,1-10.5-2.81,26.57,26.57,0,0,1-6.09-3.88c-2.79-1.09-4.09-4.33-5.3-6.73a28.13,28.13,0,0,0-5.82-7.88c-1-.94-2.08-1.8-3-2.83a40.65,40.65,0,0,1-3.08-4.54c-4.88-7.33-12.86-11.15-20.5-14.93-8.14-4-15.45-12.19-22.43-18.09-7.38-6.24-15.57-11.32-23.06-17.46a65.07,65.07,0,0,0-6.05-4.68,53.54,53.54,0,0,0-8.9-4.27l-20-8.1a28.74,28.74,0,0,0-5.4-1.79,29.51,29.51,0,0,0-6.51-.24c-6,.24-12.13,1-18.09.71-5.34-.22-10.72-1.24-16.07-1.65-4.43-.34-8.58.29-12.89.14s-8.19-2.07-12.35-2.64c-2.24-.3-4.56-.22-6.73-.87a14.93,14.93,0,0,0-4.05-1.09,10.37,10.37,0,0,0-3.8,1.07c-4.81,2-9.85,2.09-14.91,2.86a303.41,303.41,0,0,0-33.11,7.14c-5,1.34-9.42,4.33-13.25,7.82-2.42,2.19-4.7,4.64-7.65,6-1.77.84-3.72,1.25-5.55,2-4.87,1.93-8.47,5.84-12.34,9.21-3.66,3.17-7.48,6.09-10.64,9.81,1.76,3.11,7.12-3.23,9.16-4.71,2.42-1.75,4.85-3.48,7.3-5.16,4.41-3,8.73-6.17,13.27-9,13.6-8.49,29.57-13.92,45.08-17.64,16.42-3.94,33.53-3.93,50.24-2.38,5.3.49,10.59.95,15.88,1.55,20,2.25,38.56,7.85,57.11,15.38A190.84,190.84,0,0,1,310.62,166c6.48,4,12.71,8.45,18.86,13,9,6.65,17.44,13.06,25.55,20.79a367.7,367.7,0,0,1,25.52,26.56c4.36,5.09,8.51,9.78,12.61,15.1,2.88,3.73,4.3,7.26,6.41,11.3.3.59.61,1.18.92,1.76C406.66,246,406.4,237.58,403.43,229.34Z"/><path class="cls-8" d="M379.39,149.71a103.41,103.41,0,0,0-11.8-9.57c-4.25-3.11-8.51-6.23-12.83-9.26A194.36,194.36,0,0,0,328,114.67a197,197,0,0,0-30.47-11.26c-20.92-6.15-42.27-11.31-63.94-14-20.64-2.58-41.65-2.9-62.22.48-24.59,4-54.23,13-70.16,33.26a82.4,82.4,0,0,0-9.33,15.11c-1,2.05-8.51,13.15-3.8,13.84,2.57.38,3.77-3.22,5.09-4.82a56.94,56.94,0,0,1,5.93-6,80.73,80.73,0,0,1,13.73-9.85,110.85,110.85,0,0,1,31.71-11.89c14.54-3.17,29.45-4.23,44.28-5.14a430.65,430.65,0,0,1,46.43-.75,209.33,209.33,0,0,1,44.81,6.62,172.82,172.82,0,0,1,34.49,13.57c22.06,11.49,41.68,27.45,58.16,46a235.11,235.11,0,0,1,22.53,29.92c2.32,3.65,4.66,7.31,6.72,11.12,1.91,3.53,2.81,8.61,7,4.24,2.56-2.68,3.31-6.56,3.94-10.21,3.06-17.7-8.56-34.87-19.49-47.46C388.46,161.77,384.73,155,379.39,149.71Z"/><path class="cls-9" d="M383.55,184.63c-2.81-3.26-5.22-6.85-6.58-8.37-6.47-7.29-13-14.5-19.94-21.39-9.08-9-18.92-17.69-29.69-24.66a285.2,285.2,0,0,0-40.86-17.29c-6.67-2.28-13.65-3.5-20.6-4.68-9-1.52-17.65-4.18-26.84-4.6-9-.43-18.62.44-27.33.2-15.24-.43-30.37.12-45.33,3.27-8.6,1.81-17,4.24-25.43,6.85a29.83,29.83,0,0,1-10.77,3.57,72.41,72.41,0,0,1-13.61,6.57,3.52,3.52,0,0,1-4.43-3.38,22,22,0,0,1,4.54-11.64,65.94,65.94,0,0,0-15.48,14,82.4,82.4,0,0,0-9.33,15.11c-1,2.05-8.51,13.15-3.8,13.84,2.57.38,3.77-3.22,5.09-4.82a56.94,56.94,0,0,1,5.93-6,80.73,80.73,0,0,1,13.73-9.85,110.85,110.85,0,0,1,31.71-11.89c14.54-3.17,29.45-4.23,44.28-5.14a430.65,430.65,0,0,1,46.43-.75,209.33,209.33,0,0,1,44.81,6.62,172.82,172.82,0,0,1,34.49,13.57c22.06,11.49,41.68,27.45,58.16,46a235.11,235.11,0,0,1,22.53,29.92c3.53,5.57,5.5,12.1,8.15,17.85,3.7,8.06,8.55-4.39,9.44-7.72a45.68,45.68,0,0,0,.92-20.07c-1.5-7.61-5.22-14.62-9.7-20.95-1-1.42-2.73-3-4.24-2.12a24.72,24.72,0,0,1-.9,7.89c-.71,2.48-2,5-4.33,6.12C391.17,192.31,387.06,188.72,383.55,184.63Z"/><path class="cls-10" d="M121.94,116.43a2,2,0,0,0-2.83,0c-.2.22-.42.43-.63.65a2.34,2.34,0,0,0-.39,0,10,10,0,0,0-4.93,1.31,10.22,10.22,0,0,0-2,1.54,6,6,0,0,0-1.68,2.46,2.78,2.78,0,0,0,1.25,3.14,3.77,3.77,0,0,0,2.74.27,6.45,6.45,0,0,0,2.11-1c.79-.52,1.55-1.09,2.3-1.67a30.88,30.88,0,0,0,4.1-3.82A2,2,0,0,0,121.94,116.43Z"/><path class="cls-10" d="M165.34,102.26a2,2,0,0,0-1.39-1.4l-8.5-2.17a2,2,0,0,0-2.26.92,3.7,3.7,0,0,0-.24.54c-1.45.44-2.9.86-4.34,1.33a4.11,4.11,0,0,0-3,2.7,3.07,3.07,0,0,0,2.58,3.63,3.75,3.75,0,0,0,2.12-.2c.64-.25,1.18-.68,1.81-.93,1.07-.43,2.37.07,3.41.43a13.51,13.51,0,0,0,4.68,1.06C163.24,108.07,166.09,105.49,165.34,102.26Z"/><path class="cls-10" d="M164.08,113.81a22.39,22.39,0,0,0-7.12-.27c-2.14.28-4.18,1-6.31,1.32s-3.86-.72-5.93-.91a10.79,10.79,0,0,0-3.48.34,2,2,0,0,0-1.6.14l-.78.42-.64.12a1.73,1.73,0,0,0-1.12.82l-6.85,3.66a2,2,0,0,0-.82,2.49,2,2,0,0,0,2.36,1.16,67,67,0,0,0,15.8-4.23l.18-.09a10.2,10.2,0,0,0,3,.07c2-.23,3.87-.84,5.82-1.22a17.12,17.12,0,0,1,6.46,0C165.53,118.15,166.61,114.29,164.08,113.81Z"/><path class="cls-10" d="M301.91,125.26c-1.93-4.56-5.57-8-9.64-10.75a55.77,55.77,0,0,0-6.5-3.62,57.77,57.77,0,0,0-7.22-3.15c-3-1-5.87-.22-8.83.62a40.24,40.24,0,0,1-9.24,1.5c-2.59.11-5.54.23-8-.74s-2.7-3.48-4.58-5c-2.25-1.86-5.6-1.53-7.88.11a11.76,11.76,0,0,0-3.94,6.08,59.13,59.13,0,0,0-10.48-.33c-4,.15-8.11.46-12.07-.24a19.19,19.19,0,0,1-5.38-1.71c-1.91-1-3.76-2-6-1.3-1.74.5-3,1.78-4.4,2.81a6.87,6.87,0,0,1-5.34,1.3c-2.52-.47-3.6,3.39-1.06,3.86a11,11,0,0,0,6.22-.52l.21-.1a1.94,1.94,0,0,0,2.2.88,16.71,16.71,0,0,1,2-.55c.22,0,.46-.11.69-.15a2.4,2.4,0,0,0,1.14.4,17.6,17.6,0,0,0,5.51-.34,1.89,1.89,0,0,0,1.29-1.13c.6.16,1.21.3,1.82.41,8.11,1.43,16.4-.76,24.47.89a2.23,2.23,0,0,0,1.53-.22,1.54,1.54,0,0,0,.51.18l.53.06h0q15.39,1.53,30.58,4.57a135,135,0,0,1,14.61,3.36c4.13,1.32,7.77,5,12.35,4.47a2.31,2.31,0,0,0,1.06-.39c.13.26.27.51.38.78a2,2,0,0,0,2.74.72A2,2,0,0,0,301.91,125.26Z"/><path class="cls-10" d="M265.57,99.51a2.29,2.29,0,0,0-.51-.88,2,2,0,0,0-1.23-.56,6,6,0,0,1-1.18-.31c-.16-.08-.33-.15-.48-.24a2.07,2.07,0,0,0-1.54-.2,1.51,1.51,0,0,0-.33.13,2,2,0,0,0-1.47.21,2,2,0,0,0-.92,1.2,1.93,1.93,0,0,0,.2,1.54,5.6,5.6,0,0,0,.67.79,6.13,6.13,0,0,0,.81.61,4.74,4.74,0,0,0,1.49.57,6,6,0,0,0,1,.11,5.15,5.15,0,0,0,1-.11,4,4,0,0,0,1.5-.6,2.07,2.07,0,0,0,.82-1A1.88,1.88,0,0,0,265.57,99.51Z"/><path class="cls-10" d="M219.62,93.49a4.27,4.27,0,0,0-3.32.27h-.08l-8.65,1.58a2,2,0,0,0-.88,3.34c2,1.58,4.59,1.65,7,1.59a28.16,28.16,0,0,0,7.35-1.19,2,2,0,0,0,1.47-1.93A4.12,4.12,0,0,0,219.62,93.49Z"/><path class="cls-10" d="M415.45,211.44a1.46,1.46,0,0,0-.42-.65,1.5,1.5,0,0,0-.64-.41,1.48,1.48,0,0,0-.27-.1,2.09,2.09,0,0,0-3.65-.37c-1.74,2.7-5.51.57-7.17-1a18.68,18.68,0,0,1-3.51-4.27c-.94-1.65-1-3.55-1.83-5.25a4.79,4.79,0,0,0-4.13-2.88,6.33,6.33,0,0,0-4.68,2.64,2.76,2.76,0,0,0-.39,2.49,6.32,6.32,0,0,0,1.86,2.23,17.06,17.06,0,0,1,2.28,2.93,22.2,22.2,0,0,1,.74,2.53,2,2,0,0,0,1.46,1.4c1.2,2.34,2.33,4.73,3.7,7,1.07,1.77,2.23,3.48,3.41,5.17l1.73,2.43a6.16,6.16,0,0,0,1.71,1.91c1.84,1,3.68-.52,4.91-1.77a14,14,0,0,0,2.92-4.37,9.67,9.67,0,0,0,.76-5.87,1.89,1.89,0,0,0,.79-.48l.32-.4a2,2,0,0,0,.27-1v-1.13A1.53,1.53,0,0,0,415.45,211.44Z"/><path class="cls-10" d="M351.68,134.8c-1.88-2.18-4.22-4.27-7.07-5a9.53,9.53,0,0,0-2.13-.31,5.32,5.32,0,0,0-1.26.1,1.85,1.85,0,0,0-.84.51,4.13,4.13,0,0,0-.68.07,2,2,0,0,0-1.4,1.39c-.58,2.08.53,3.91,1.86,5.41a42.56,42.56,0,0,0,3.26,3.32,14.69,14.69,0,0,0,8.78,4.21,2,2,0,0,0,1.72-1C355.87,140.48,353.65,137.1,351.68,134.8Z"/><path class="cls-10" d="M367.21,146.85a1.45,1.45,0,0,0-.36-.68,1.48,1.48,0,0,0-.56-.52l-.48-.2a2.11,2.11,0,0,0-1.06,0l-.14.06a1.33,1.33,0,0,0-.19-.14,1.53,1.53,0,0,0-.75-.23,1.52,1.52,0,0,0-.79,0l-.48.2a2.07,2.07,0,0,0-.72.72l-.2.48a1.91,1.91,0,0,0,0,1.06l0,.12,0,.06c.07.17.14.36.22.52l.07.11a5.58,5.58,0,0,0,.37.48,3.09,3.09,0,0,0,1.27.77l.24.07.63.08h.26c.21,0,.43-.05.64-.1a.2.2,0,0,0,.11,0,4.17,4.17,0,0,0,.58-.24,2.5,2.5,0,0,0,.62-.46,3.11,3.11,0,0,0,.39-.49.57.57,0,0,0,.08-.13,1.44,1.44,0,0,0,.24-.74A1.56,1.56,0,0,0,367.21,146.85Z"/><path class="cls-10" d="M373.12,165.7a10.81,10.81,0,0,0-3.42-1,8.12,8.12,0,0,1-3.41-.71c-2.59-1.45-5.11-3.06-7.65-4.59a2,2,0,0,0-2,0c-2.4,1.67-1.64,4.55.44,6.1s4.35,2.91,6.55,4.29,4.42,2.71,6.67,4c1.18.68,3.77,1.69,3.65,3.31s2.06,2.42,3.24,1.61a1.57,1.57,0,0,0,.37.05,2,2,0,0,0,2-2A11.4,11.4,0,0,0,373.12,165.7Z"/><path class="cls-10" d="M400.65,175.6a7.47,7.47,0,0,0-1.28-2.38,1.85,1.85,0,0,0-.45-2,48.59,48.59,0,0,1-5-4.92c-.37-.42-.73-.85-1.09-1.29l-.52-.66-.08-.09v0l-.29-.37-.38-.54.13-.17a2,2,0,0,0,.27-1c0-.17-.05-.35-.07-.53a2,2,0,0,0-.52-.88l-1.49-1.89a2.35,2.35,0,0,0-1.42-.59,1.52,1.52,0,0,0-.7.15,4.8,4.8,0,0,0-.3-.6c-1.32-2.21-4.78-.2-3.45,2a2.6,2.6,0,0,1,.22.73,12.13,12.13,0,0,1-.05,1.48,10.06,10.06,0,0,0,.1,2.95,4.54,4.54,0,0,0,2.16,2.88c.4.22,1,.46,1.33.59a3.23,3.23,0,0,1,.58.31s.15.2.18.26a11.38,11.38,0,0,1,.37,1.18,8.76,8.76,0,0,0,.6,1.57,5.11,5.11,0,0,0,2.89,2.33c1.75.62,3.77.53,4.44,2.6a2,2,0,0,0,3.85-1.07Z"/><path class="cls-10" d="M330.91,114.36a20.48,20.48,0,0,0-4.39-1.77l-10.13-3.79a1.63,1.63,0,0,0-.43-.08,4.47,4.47,0,0,0-2.74-1.9,2.06,2.06,0,0,0-2.46,1.4,2,2,0,0,0,1.4,2.46.72.72,0,0,1,.6.4,5,5,0,0,1,.63,1.53,7.88,7.88,0,0,0,1.87,3.54,10.65,10.65,0,0,0,3.31,1.8,24.11,24.11,0,0,0,4.13,1.82,12.93,12.93,0,0,0,4.43.18c1.4-.17,3.48-.18,4.52-1.27C333,117.28,332.36,115.36,330.91,114.36Z"/><path class="cls-10" d="M188.4,87.19a4.52,4.52,0,0,0-3.16-.21,22.81,22.81,0,0,0-3.92,1h0a2,2,0,0,0-2.46,1.39A4,4,0,0,0,181,94a4.87,4.87,0,0,0,2.88.45,10.18,10.18,0,0,0,2.7-.83,8.39,8.39,0,0,0,2-1.15,3.49,3.49,0,0,0,1.26-2.56A3,3,0,0,0,188.4,87.19Z"/><path class="cls-9" d="M126.9,116.54l.06-.1c.34-.53-.47-1-.83-.54a1,1,0,0,0-.62,0,.52.52,0,0,0-.34.45,18.16,18.16,0,0,1-1.59,1.18c-.15.1-.3.2-.46.29L123,118h0l-.12,0-.09,0h-.2s0,0,0,0a.5.5,0,0,0-.88.47,2.72,2.72,0,0,1-.42-.34l0,0a.4.4,0,0,0,.21-.54,3.25,3.25,0,0,1-.15-1.31.49.49,0,0,0,.07-.25c0-.1,0-.2,0-.3,0-.37.13-.73.18-1.09a4.45,4.45,0,0,0-.28-3,.42.42,0,0,0-.39-.23,1.68,1.68,0,0,0-.62-.44,4.29,4.29,0,0,0-1.29-.4,2.1,2.1,0,0,0-1.91.78,17.45,17.45,0,0,0-3.51.62.46.46,0,0,0-.34.5,8.06,8.06,0,0,0-1.89.57c-.59.27-.08,1.13.5.87a10.11,10.11,0,0,1,4.26-.69c.91,0,1.82,0,2.73-.1a9,9,0,0,0,.24,2.87,5.94,5.94,0,0,0,1.79,3.16,3.7,3.7,0,0,0,1.09.62.51.51,0,0,0,.58.28l.24-.09a2.81,2.81,0,0,0,1.33-.2,3.87,3.87,0,0,0,1.49-1.17,7.61,7.61,0,0,1-.19,2c-.08.32-.16.63-.25.94a25.42,25.42,0,0,1-1.14,2.86.54.54,0,0,0,0,.43c-.09.21-.18.42-.28.63-.27.57.54,1.07.87.5a20.37,20.37,0,0,0,2.23-5.69,11.1,11.1,0,0,0,.4-2.91A1.73,1.73,0,0,0,126.9,116.54Z"/><path class="cls-9" d="M185.91,89c-1-.46-2.25.24-3.19.72-1.19.61-2.29,1.36-3.41,2.07A13.28,13.28,0,0,1,174.08,94a.44.44,0,0,0-.47-.54,37,37,0,0,0-4.94.45,8.31,8.31,0,0,0-3.49,2,22.41,22.41,0,0,1-7.85,4.23.39.39,0,0,0-.19.1h0l.46-.26c.55-.34,0-1.2-.5-.87a8.06,8.06,0,0,1-4.49,1.18.48.48,0,0,0-.31-.34,8.64,8.64,0,0,0-4.33-.49c-1.22.18-2.82.57-3.14,1.95-.14.59-.05,1.21-.24,1.8a3.29,3.29,0,0,1-1.1,1.55,4.19,4.19,0,0,1-2.91.65.43.43,0,0,0-.5,0h-.26a.45.45,0,0,0-.69-.27,9.37,9.37,0,0,0-3.57,4.94,5.21,5.21,0,0,0-.31,3.32c.23.75.78,1.5,1,2.27,0,.18-.06.35-.11.53a.41.41,0,0,0,0,.31l-.09.17a.42.42,0,0,1,0,.1.46.46,0,0,0-.18.26,2.33,2.33,0,0,0-.08.46,2.63,2.63,0,0,0-.09.3,5,5,0,0,0,0,2.31,2,2,0,0,0,.48,1l0,0s0,0,0,.05a.51.51,0,0,0,.69.18.5.5,0,0,0,.23-.52.46.46,0,0,0-.18-.49,4.78,4.78,0,0,1-.3-2.48,3.88,3.88,0,0,1,.14-.45.49.49,0,0,0,.34-.31,2.35,2.35,0,0,0,.14-.9,1.82,1.82,0,0,0,0-1,7.06,7.06,0,0,0-.27-3,.52.52,0,0,0-.35-.34c-.11-2.39,1.78-4.31,3.69-5.52.51,0,1,.06,1.53,0a4.14,4.14,0,0,0,1.57-.47,4.36,4.36,0,0,0,2.07-2.49,3,3,0,0,0,.12-.67l0,0a6,6,0,0,1,2.53-1.8c1.13-.32,2.3.16,3.42.31h.23a8.07,8.07,0,0,0,2.38.49,16.3,16.3,0,0,0,3.56.1,9.79,9.79,0,0,0,2.07-.44,4.85,4.85,0,0,0,1.47-.35,13.32,13.32,0,0,0,3.45-2.57,11.3,11.3,0,0,1,4.14-2.35,26.46,26.46,0,0,1,3.73-.84l.4,0c1.59,0,3.16.34,4.61-.46s2.53-1.87,3.85-2.71a29.05,29.05,0,0,1,4.42-2.32A.51.51,0,0,0,185.91,89Z"/><path class="cls-9" d="M245.25,102.51a3.88,3.88,0,0,1-.08-1.36,4.7,4.7,0,0,0-.08-1.45,2.26,2.26,0,0,0-.36-.73l.06,0a.51.51,0,0,0-.36-.86h-.05a.44.44,0,0,0-.45-.33h-.28a.21.21,0,0,0-.11,0h-.15a35.14,35.14,0,0,1-5.52-.35l-.14,0v0s0,0,0,0a.61.61,0,0,0-.15-.36l0,0,0-.06a1,1,0,0,1-.11-.17,3.65,3.65,0,0,1-.18-.34l0-.09-.06-.19a2.71,2.71,0,0,1-.09-.41v.07a.53.53,0,0,0-.15-.35.52.52,0,0,0-.32-.14l-.27-.39a.68.68,0,0,0,0-.19c0-.12-.1-.23-.14-.35a.44.44,0,0,0,0-.3,3.77,3.77,0,0,0-1.35-2.28.54.54,0,0,0-.33-.12.55.55,0,0,0-.22-.5,9.75,9.75,0,0,0-3.06-1.48c-.3-.12-.61-.23-.91-.36-.52-.23-1-.48-1.55-.73a.52.52,0,0,0-.65-.34l-.38-.19c-.38-.2-.9.19-.72.6a.54.54,0,0,0-.2.66c.76,1.73,2.73,2.25,4.39,2.7a5.73,5.73,0,0,1,2.59,1.21A20.17,20.17,0,0,1,235.87,96a.51.51,0,0,0,0,.48,4.66,4.66,0,0,0,.43.66c.35,1.62,2,2.5,3.54,2.71a7.69,7.69,0,0,0,4-.38h0a1,1,0,0,1,.2.31,1.78,1.78,0,0,1,.11.52,10.83,10.83,0,0,0,.1,2.48A.5.5,0,0,0,245.25,102.51Z"/><path class="cls-9" d="M278,108.47a3.31,3.31,0,0,1-.55-1.19,3.78,3.78,0,0,1,0-1.3,2,2,0,0,0-.17-1.16,1.55,1.55,0,0,0,.24-.44.5.5,0,0,0-.73-.57c-.3.17-.6.32-.9.47l-.1,0s0,0,0,0a8.89,8.89,0,0,1-4.23,1,5.28,5.28,0,0,1-2.33-.64,6,6,0,0,1-1.66-1.54.49.49,0,0,0-.47-.47h0l-.14-.18a.52.52,0,0,0-.85.3c-.83.19-1.61.55-2.44.77a3.58,3.58,0,0,1-3.42-.87.51.51,0,0,0-.73,0,.54.54,0,0,0-.44.58,1.1,1.1,0,0,1-.51.24,4.39,4.39,0,0,1-1.33-.24,3.12,3.12,0,0,0-1.6.17.5.5,0,0,0-1-.13c-.14.34-.29.68-.45,1a8.11,8.11,0,0,0-1.95,2.83,1.28,1.28,0,0,1-.55.14c-.64,0-.64,1,0,1a2,2,0,0,0,.61-.1.45.45,0,0,0,.59-.07l.36-.47a6.64,6.64,0,0,0,.9-1,9,9,0,0,0,1-1.82,2.69,2.69,0,0,1,1.44-.59c.8,0,1.5.44,2.31.22a2.19,2.19,0,0,0,.84-.44,5.64,5.64,0,0,0,7.1,0l.33.59a4.12,4.12,0,0,0,1,1.2,5.2,5.2,0,0,0,3,1,9.87,9.87,0,0,0,3.75-.74,12.18,12.18,0,0,0,1.57-.62,11.07,11.07,0,0,1-.07,1.14,4.23,4.23,0,0,0,.77,2.32.5.5,0,1,0,.86-.51Z"/><path class="cls-9" d="M293.68,102.63a9.23,9.23,0,0,1-6.67,2.66,6.73,6.73,0,0,0-2.57.25.54.54,0,0,0-.27.75c-.32.31-.62.66-.91,1l-1.32,1.46c-.42.48.28,1.19.71.71s.83-.92,1.24-1.39a6.88,6.88,0,0,1,1.29-1.35c.53-.32,1.17.11,1.73.18a4.38,4.38,0,0,0,1.83-.22,11.57,11.57,0,0,0,5.64-3.33C294.79,102.86,294.14,102.18,293.68,102.63Z"/><path class="cls-9" d="M344.73,129.66a6,6,0,0,1-1.21-2.39,13,13,0,0,0-1-2.56,11.19,11.19,0,0,0-4-3.84c-.55-.33-1.05.54-.5.87a10,10,0,0,1,3.85,3.83c.81,1.58.93,3.46,2.21,4.8C344.47,130.83,345.18,130.13,344.73,129.66Z"/><path class="cls-9" d="M362.73,141.77h0c-2.32.08-2.59-3.24-3.28-4.79a4.19,4.19,0,0,0-2.05-2.18,33.24,33.24,0,0,0-3.37-1.26.45.45,0,0,0-.6.46,5.21,5.21,0,0,0-2.17.24c-.6.21-.34,1.17.27,1,2.77-.95,5.29,1.05,6.69,3.28a36.88,36.88,0,0,0,1.85,3.39,2.36,2.36,0,0,0,3,.82A.5.5,0,0,0,362.73,141.77Z"/><path class="cls-9" d="M347.16,142.12a9.54,9.54,0,0,1-2,1.56,3.78,3.78,0,0,1-1.3-.05,3.55,3.55,0,0,1-1.3-.5,2.54,2.54,0,0,1-.68-2.17,4.19,4.19,0,0,1,.7-2.48.5.5,0,0,0-.18-.68.51.51,0,0,0-.69.18,4.75,4.75,0,0,0-.81,2.48,5.26,5.26,0,0,0,.3,2.49,2.92,2.92,0,0,0,2,1.55,5.57,5.57,0,0,0,1.63.21.38.38,0,0,0,.3.08,3.51,3.51,0,0,0,1.11-.3.32.32,0,0,0,.18-.18,3,3,0,0,0,1.52-1.7A.5.5,0,0,0,347.16,142.12Z"/><path class="cls-9" d="M393.19,174.16c-.36-.52-1.23,0-.86.51A38.19,38.19,0,0,1,398.44,189c.12.63,1.09.36,1-.27A38.81,38.81,0,0,0,393.19,174.16Z"/><path class="cls-11" d="M116.05,129.42c-.32-1.26-2-1.71-3.09-2a3.42,3.42,0,0,0-3.55,1.2,20.76,20.76,0,0,1-6.48,4.49,55.11,55.11,0,0,0-6.27,3.47,8.46,8.46,0,0,1-2.61,1.15c-3.59.71-10.52-4.58-12.66.71a2.34,2.34,0,0,0-.08,1.63,1.52,1.52,0,0,0,1.84,1c.47-.11,1,.35,1.24.87a3.27,3.27,0,0,1-.25,2.43,14.6,14.6,0,0,1-1.65,2.8,18.92,18.92,0,0,0-1.82,2.47,3.13,3.13,0,0,0,.09,3.21,3,3,0,0,0,2.87,1.32,9.21,9.21,0,0,0,3.12-1.47l.9-.51a1.5,1.5,0,0,0,.38.32,1.52,1.52,0,0,0,1.82-.23,36.86,36.86,0,0,0,4-5.61l7.23-6.9a1.6,1.6,0,0,0,1.71-.28,37.57,37.57,0,0,1,7.32-5.33c1.3-.72,2.64-1.34,4-1.93C115.25,131.76,116.4,130.77,116.05,129.42Z"/><path class="cls-11" d="M269.23,115.54a24,24,0,0,1-7.08-2.08c-1.59-.74-3.21-2-5-2.09-2-.07-3.86.69-6,.24-1-.21-1.82-.88-2.94-.77a17.42,17.42,0,0,0-2.72.67,20.4,20.4,0,0,1-3.82.42c-.67,0-1.49,0-1.75-.64s.19-1.28-.07-1.84a17.84,17.84,0,0,1-11.89-1.3,1.38,1.38,0,0,1-.62-.49,1.21,1.21,0,0,1-.11-.65c.14-1.65,1.92-3.12,1.3-4.65-3.94,0-5.29,3.34-7.9,5.59-2.82,2.44-7.29,2.67-10.65,1.42-1.17-.43-1.36-1.24-2.18-1.88-.29-.23-2.18-.93-2.21-1-1.64-3.53-6.38-4.82-10-4.57a14.16,14.16,0,0,0-6.12,1.84c-1.74,1-3.17,2.43-4.84,3.53a6.91,6.91,0,0,1-2.51,1.15c-1.08.2-2.17-.23-3.25.09s-1.58,1.19-2.51,1.58c-1.12.47-1.84-.3-2.66-.91-2.06-1.54-4.26-.3-6,1a9.31,9.31,0,0,1-6.87,2,1.22,1.22,0,0,0-1.11.41,1.42,1.42,0,0,0-.25-.24,3.28,3.28,0,0,0-1.2-.51c-2.21-.46-4.47,1.09-6.14,2.33a1.76,1.76,0,0,0-.71,1.08c-.94.31-1.84.75-2.76,1.13-1.2.49-2.42.91-3.66,1.28s-3,2.11-4.16,2.83c.41.57,1.26.52,1.95.41a28.83,28.83,0,0,0,6.43-1.53c1-.41,2-.93,3.1-1.27,2.14-.7,4.41-.3,6.58.1a1.55,1.55,0,0,0,1.85-1,1.58,1.58,0,0,0,0-.38q.38,0,.75,0c2.14-.12,4.78-.06,6.54-1.47l-.29.6c1.07,1.19,3.35-.1,4.55,1,1.53,1.35,1.25,3.72,3.07,5.08,2.51,1.85,6,1.18,8.54-.33s6-5.37,6.51-8.3a30.5,30.5,0,0,0,.23-3.31,4.86,4.86,0,0,1,1.15-3c1.48-1.52,2.59-.29,4.08.2.44.28.89.54,1.31.84l.18.13.36.31a8.73,8.73,0,0,1,.68.68c.11.11.21.24.31.36l0,0,.14.19a7.86,7.86,0,0,1,.54.87,1.51,1.51,0,0,0,1.08.71,1.16,1.16,0,0,0,.42.37,1.36,1.36,0,0,0,.4.14,6.92,6.92,0,0,0-.63,1.77,7.81,7.81,0,0,0,1.36,6.2,1.6,1.6,0,0,0,1.55.61,3.51,3.51,0,0,0,2,.74,46.29,46.29,0,0,0,6.12,0,38.3,38.3,0,0,0,6.41-.77,22.31,22.31,0,0,0,5.78-2.08,10.18,10.18,0,0,0,2.26-1.57,8.71,8.71,0,0,0,3.9,3,11.23,11.23,0,0,0,6.14,1.34,14.7,14.7,0,0,0,4.86-1.37c1.68-.81,3-2.87,4.53-3.53s4.28-.07,5.93,0c6,.17,11.62,1.83,17.65,2.32C271.19,118.69,271.09,115.78,269.23,115.54Z"/><path class="cls-11" d="M374.65,180a6.74,6.74,0,0,0,3.78-.19,2.76,2.76,0,0,0,1.75-3.12,4.15,4.15,0,0,0-2-2c-2.26-1.44-4.7-1.89-6.9-3.72-1.9-1.58-3.77-3.33-6.08-4.15a2.76,2.76,0,0,1-1.2-.62c-1.14-1.22.25-3.79-.73-5.31s-2.61-1.56-4.11-1.48a12.73,12.73,0,0,1-4.18-.08,3.77,3.77,0,0,1-2.63-2.36c-.4-1.28.09-2.78-.57-4-1-1.72-3.49-1.5-5.24-2.41-2.23-1.17-3-4.11-5-5.53a10.14,10.14,0,0,0-2.87-1.17c-2.11-.64-4.89-1.68-5.91-3.83s-.78-3.47-3.46-4.75a32.65,32.65,0,0,0-6.78-2,42.28,42.28,0,0,0-5.67-1.32c-1.24-.11-3.55.49-1.78,2.23.79.77,1.66.8,2.33,1.6,2.3,2.71,6,3.73,8.3,6.39,3,3.38,1.1,7.88,4.65,11.25a23.51,23.51,0,0,0,4.36,3.11A15.54,15.54,0,0,0,337,157.7a54.77,54.77,0,0,0,5.87,3.54,27.08,27.08,0,0,1,7.6,5.83,18.09,18.09,0,0,0,6.31,4.85c2.67,1.21,5.53.89,7.58,3.24,2.61,3,6.44,4.21,10.23,4.85Z"/><path class="cls-11" d="M417.47,229.87a16.79,16.79,0,0,0-4.74-5c-1.51-1.05-3.85-1.56-5.09-3a1.54,1.54,0,0,0-.4-1.14l-2.88-3.21a1.41,1.41,0,0,0-1-.45c-.57-.76-1.11-1.53-1.64-2.22-1.66-2.18-3.09-4.9-5.08-6.77-1.63-1.54-2.89-2.44-3.69-4.72a6.21,6.21,0,0,0-.63-1.47,4.24,4.24,0,0,0-1.11-1,16.57,16.57,0,0,1-3.78-2.95c-.88-1.11-1.47-2.64-2.83-3.06-.95,1.36,2,3.59,2.78,4.3,1.46,1.39,2.25,3.27,3.3,5,1.48,2.36,3,4.69,4.61,7s3.1,4.3,4.72,6.39a1.24,1.24,0,0,0-.15,1.7,44,44,0,0,1,2.89,5c.39.81.77,1.63,1.1,2.47.16.4.29.77.47,1.12a3.73,3.73,0,0,0,3.18,3.59,78.79,78.79,0,0,0,8.69.78A1.51,1.51,0,0,0,417.47,229.87Z"/><path class="cls-12" d="M200.5,117.8l-.13,0a1.36,1.36,0,0,1-.1-.21l0,0a3,3,0,0,0,0-1.26,7.56,7.56,0,0,0-.36-1.11,1.59,1.59,0,0,0-.16-.41,5,5,0,0,1-.16-.51,3.26,3.26,0,0,1-.09-.45l.1-.09a2.28,2.28,0,0,0,.27-2.59,3.35,3.35,0,0,0-1.88-1.42c.28.12-.09,0-.14-.08s-.32-.21-.33-.21-.17-.16-.26-.24l-.06-.06-.07-.11a4.09,4.09,0,0,0-2-1.67,6.18,6.18,0,0,0-2.22-.26,1.55,1.55,0,0,0-1.45,1.1,2.44,2.44,0,0,0,0,1.26,13.26,13.26,0,0,1-.63,2.38,1.19,1.19,0,0,0,0,.83h0a1.62,1.62,0,0,0-.89.69,1.57,1.57,0,0,0-.16,1.16,1.51,1.51,0,0,0,1.85,1c.1,0,.44-.21.54-.16-.2,0-.24,0-.13,0h.27l.16,0,.22,0,.16.06h0l.07,0a4.27,4.27,0,0,1,.51.3s.36.28.09.05l.18.16a6.57,6.57,0,0,1,.86.89,1.56,1.56,0,0,0,.16.2l0,0c.12.16.23.32.35.47.29.39.58.77.88,1.14a7.7,7.7,0,0,0,2,1.73,1.52,1.52,0,0,0,1.18.13,2.06,2.06,0,0,0,.83.2,1.71,1.71,0,0,0,1.61-1.25A1.52,1.52,0,0,0,200.5,117.8Z"/><path class="cls-12" d="M94.82,142.73a52.42,52.42,0,0,0-9.67-1.21,1,1,0,0,0,0,2l1.15.07a.91.91,0,0,0,.66.65l7,1.25a1,1,0,0,0,1.23-.7,3.93,3.93,0,0,0-.35-2.06Z"/><path class="cls-12" d="M103.88,137.66a5.38,5.38,0,0,0-1.93-4.21,1.08,1.08,0,0,0-.71-.29,1,1,0,0,0-.7.29,1.1,1.1,0,0,0-.24,1l0,0a1,1,0,0,0-.29.7h0a1,1,0,0,0,.08,1.29,3.69,3.69,0,0,1,.38.41,4.68,4.68,0,0,1,.43.75,4.17,4.17,0,0,1,.26,1l0-.21a1.06,1.06,0,0,0,.3.69,1,1,0,0,0,.7.3,1,1,0,0,0,.71-.3,1.11,1.11,0,0,0,.28-.51A1,1,0,0,0,103.88,137.66Z"/><path class="cls-12" d="M114.53,130.25l0,0a8,8,0,0,0,.08-.84,1,1,0,0,0-1-1,1,1,0,0,0-1,1c0,.16,0,.31,0,.47a6.3,6.3,0,0,1-.31,1.13,5.28,5.28,0,0,1-.5.9,1,1,0,0,0-.1.77,1.07,1.07,0,0,0,.46.6,1,1,0,0,0,1.37-.36,5.3,5.3,0,0,0,.42-.73l.11-.08.1-.1a3.46,3.46,0,0,0,.22-.31,1.81,1.81,0,0,0,.16-.35,1.66,1.66,0,0,0,.1-.53v-.15C114.57,130.51,114.56,130.38,114.53,130.25Z"/><path class="cls-12" d="M81.87,151.38h0S81.9,151.35,81.87,151.38Z"/><path class="cls-12" d="M82,151.74l0,0h0Z"/><path class="cls-12" d="M91.47,148.42a1,1,0,0,0-1.41,0l-.73.84a1.1,1.1,0,0,0-.77.08,18.71,18.71,0,0,1-2.73,1.14,22.07,22.07,0,0,1-3,.75.93.93,0,0,0-.65.6h0l-.14-.08s.08.09,0,0h0l0-.06v0l0,0a1.05,1.05,0,0,0,0-.19v0h0v0a1,1,0,0,0,.27-1.27,1,1,0,0,0-1.37-.36,2.08,2.08,0,0,0-.83,2.25,2.46,2.46,0,0,0,1.65,1.76,4.62,4.62,0,0,0,2.5,0,11.11,11.11,0,0,0,2.48-.94.91.91,0,0,0,.46-.62l.11,0v0a1,1,0,0,0,1.71.71l2.62-3a1,1,0,0,0,.3-.71A1,1,0,0,0,91.47,148.42Z"/><path class="cls-12" d="M81.89,151.37Z"/><path class="cls-12" d="M81.87,151.39l0,0h0Z"/><path class="cls-12" d="M178.17,120.34a6,6,0,0,1-.6-.53c-.09-.1-.18-.19-.27-.3l-.07-.08-.07-.1a6.12,6.12,0,0,1-.43-.69c-.07-.13-.13-.26-.19-.4.08.17-.06-.17-.08-.22a5,5,0,0,1-.21-.78c0-.06,0-.11,0-.17s0-.07,0-.09,0-.24,0-.36a5.36,5.36,0,0,1,0-.8,1.1,1.1,0,0,1,0-.18h0v0c0-.15.06-.29.1-.44a1,1,0,0,0-.7-1.23.27.27,0,0,0-.09,0,.82.82,0,0,0-.12-.2l.17-.38a1,1,0,0,0-.36-1.36,1,1,0,0,0-1.37.35,8.63,8.63,0,0,0-1.09,4.28,4.74,4.74,0,0,0,.75,2.12,6.23,6.23,0,0,0,2,3.08,1,1,0,0,0,1.37,0,1,1,0,0,0,1.26-.09A1,1,0,0,0,178.17,120.34Z"/><path class="cls-12" d="M189.66,113.86c-.23-1.94-1.45-3.36-2.79-4.69a1,1,0,0,0-1.41,1.41c.94,1,2,2,2.21,3.36a3.72,3.72,0,0,1-1.12,3.15c-.93.89.49,2.3,1.42,1.41A5.63,5.63,0,0,0,189.66,113.86Z"/><path class="cls-12" d="M160.17,116.81a1,1,0,0,0-1.37-.36.72.72,0,0,1-.19.11c.07,0,0,0-.05,0h-.27a3.9,3.9,0,0,1-.73-.13,9.79,9.79,0,0,0-1.93-.29,8.17,8.17,0,0,0-4,.9,1,1,0,0,0-.36,1.37,1,1,0,0,0,1.37.36,6,6,0,0,1,3.45-.6c1.18.14,2.5.76,3.69,0A1,1,0,0,0,160.17,116.81Z"/><path class="cls-12" d="M208.46,111.22a6.65,6.65,0,0,0-2.58-5,1,1,0,0,0-1.37.36,1,1,0,0,0,.36,1.36,4.64,4.64,0,0,1,1.6,3.62,12.08,12.08,0,0,1-1.35,5.12,1,1,0,0,0,.36,1.37,1,1,0,0,0,1.36-.36A13.81,13.81,0,0,0,208.46,111.22Z"/><path class="cls-12" d="M215.09,110.91a1,1,0,0,0-1.23.7,33.5,33.5,0,0,1-1.07,4.53,1,1,0,1,0,1.92.53,32.09,32.09,0,0,0,1.08-4.53A1,1,0,0,0,215.09,110.91Z"/><path class="cls-12" d="M239.5,111.89a1.24,1.24,0,0,0-.12-.23,1,1,0,0,0-.28-.66,1,1,0,0,0-.71-.29,1,1,0,0,0-.71.29l0,0-.23.13-.23.07a.94.94,0,0,0-.91-.66,19.72,19.72,0,0,1-5.26-.07c-.55-.08-2.74-.28-3.22-1.05l.23,0a1,1,0,0,0,.7-.29,1,1,0,0,0,.3-.71,1.24,1.24,0,0,0-.28-.69l.07.1a1.88,1.88,0,0,1-.21-.36,2.85,2.85,0,0,1-.11-.39,2.29,2.29,0,0,1,0-.37,3.39,3.39,0,0,1,.11-.43l-.08.2a.81.81,0,0,0,.12-.37.78.78,0,0,0,0-.4,1,1,0,0,0-.46-.6,1.12,1.12,0,0,0-.51-.11.91.91,0,0,0-1,0,4.49,4.49,0,0,0,.3,7.56,8.66,8.66,0,0,0,4.6.85,16.38,16.38,0,0,0,2.79-.35,8.52,8.52,0,0,0-2,3.6,1,1,0,0,0,.15.81,1.42,1.42,0,0,0,0,.2,1,1,0,0,0,1,1,1,1,0,0,0,1-1c0,.25,0,0,0,0s0-.16,0-.23l.12-.46c0-.16.1-.3.16-.45v-.06a2,2,0,0,1,.1-.21,6.07,6.07,0,0,1,.48-.82,2.43,2.43,0,0,1,.14-.2v0l0,0,.32-.36a8.53,8.53,0,0,1,.69-.65l0,0,0,0,.19-.14.4-.25.42-.23.18-.08h.06a5,5,0,0,1,.95-.29A1,1,0,0,0,239.5,111.89Z"/><path class="cls-12" d="M329.71,135.17a1,1,0,0,0-1.42,0c-.18.18-.36.35-.56.52l-.15.12,0,0h0l-.31.22a9.33,9.33,0,0,1-1.38.77l0,0-.17.06-.36.13c-.24.08-.49.15-.74.21l-.37.08-.24,0-.1,0h-.11l-.19,0-.43,0a1,1,0,0,0,0,2,10,10,0,0,0,6.63-2.89A1,1,0,0,0,329.71,135.17Z"/><path class="cls-12" d="M342.16,146.21a.05.05,0,0,1,0,0,1,1,0,0,0-1.13.46,6.66,6.66,0,0,1-.86,1.17,14.36,14.36,0,0,1-5.76,2.38,1,1,0,0,0-.71,1.09,1,1,0,0,0,1,.87,8.58,8.58,0,0,0,4.11-.87.72.72,0,0,0,.47-.13,4.71,4.71,0,0,1,1.78-.61,3.69,3.69,0,0,0,1.74-.9,2.27,2.27,0,0,0,.66-1.76c0-.08,0-.14,0-.22A1,1,0,0,0,342.16,146.21Z"/><path class="cls-12" d="M352.71,154.85s0,0,0-.06h0a2.45,2.45,0,0,1,0-.27.93.93,0,0,0-.79-.7l-.14-.23a6.74,6.74,0,0,0-3-2.06,1,1,0,0,0-1.37.36,1,1,0,0,0,.36,1.37c.94.4,3.07,1.35,2.59,2.64l-.11.21a1.19,1.19,0,0,1-.09.15,3.13,3.13,0,0,1-1.69,1c-.94.28-1.93.39-2.85.74a1.17,1.17,0,0,0-.45.29,8.57,8.57,0,0,1-2-.11,1.23,1.23,0,0,0-.53-.35,1,1,0,0,0-1,.26,1.12,1.12,0,0,0-.31.52.89.89,0,0,0,.44,1.09,1.22,1.22,0,0,0,.5.35,5.35,5.35,0,0,0,1,.18,11.44,11.44,0,0,0,1.94.06,14.26,14.26,0,0,0,3.68-.5C351.14,159.12,353,157.23,352.71,154.85Z"/><path class="cls-12" d="M363.3,164.83c-.16,0-.32,0-.47,0a4.13,4.13,0,0,0,.85-3,1,1,0,0,0-.87-1,1,1,0,0,0-1.1.72,8.12,8.12,0,0,1-1.63,3.07l-.21.13a7.77,7.77,0,0,1-1.83.63c-.8,0-1.6.06-2.4.05a.91.91,0,0,0-.94,1.11,6.31,6.31,0,0,1-.83-.21c-.42-.13-2.52-.93-2.31-1.52.42-1.22-1.51-1.75-1.93-.54-.52,1.49.89,2.63,2,3.27a9.41,9.41,0,0,0,3.88,1.13,8.64,8.64,0,0,0,3.83-.59c.77-.31,1.53-.75,2.33-1,.62-.09,1.24-.19,1.86-.31C364.72,166.57,364.36,164.9,363.3,164.83Z"/><path class="cls-12" d="M379.74,175.69c-1.05,0-1.48.72-2.26,1.27a1.92,1.92,0,0,1-1.11.2c-.57,0-1.13,0-1.7,0a12.52,12.52,0,0,1-6.1-1.58c-1.1-.67-2.1,1.06-1,1.73a14.14,14.14,0,0,0,6.71,1.83c.63,0,1.32.08,2,.06a.87.87,0,0,0,.81.44,4.29,4.29,0,0,0,3.51-2.44A1,1,0,0,0,379.74,175.69Z"/><path class="cls-12" d="M417.32,229.73a.94.94,0,0,0-1-.21v-.07a1.85,1.85,0,0,0-.05-.46.91.91,0,0,0-.5-.58,2,2,0,0,0-.1-.21c0-.09-.12-.16-.17-.24a5.16,5.16,0,0,0-2.49-2.81,1.66,1.66,0,0,0-.21-.06,4.55,4.55,0,0,0-1.72-.65,1.08,1.08,0,0,0-.77.1,1,1,0,0,0,.24,1.83l.4.09a3.48,3.48,0,0,0,.14.64,4.36,4.36,0,0,0,.17.51.93.93,0,0,1,0,.1,3.49,3.49,0,0,1-2.36.16c-.86-.18-1.73-.14-2.18.75,0,0,0,.11-.07.17-.23-.06-.47-.12-.69-.2-.94-.36-1-2-1-2.83a1,1,0,0,0-2,0c0,1.5.26,3.66,1.74,4.46a4.25,4.25,0,0,0,.72.32,1.13,1.13,0,0,0,.23.48l.79,1c.57.73,1.67.07,1.7-.71l0-.31a14.3,14.3,0,0,0,1.62,0,3,3,0,0,1,1,0c.29.08.46.33.7.5a1.89,1.89,0,0,0,2,.09c.07,0,.11-.09.17-.13l.06,0a1.12,1.12,0,0,0,1.44.46l.08,0,.12,0a3.08,3.08,0,0,0,1.86-.71A1,1,0,0,0,417.32,229.73Z"/><path class="cls-12" d="M408.91,223.31h-.06a.75.75,0,0,0,.1-.2,1,1,0,0,0-.7-1.23c-.34-.1-.68-.21-1-.34h-.05l0,0-.24-.11-.4-.25-.11-.08-.18-.18,0,0v0l-.11-.17s-.07-.18-.08-.21a3,3,0,0,1-.08-.32,6.36,6.36,0,0,0-.2-.66,8.07,8.07,0,0,0-3.46-3.55,1,1,0,0,0-1,1.73c.34.22.67.43,1,.67l.18.13.18.15a5.14,5.14,0,0,1,.42.38,3.69,3.69,0,0,1,.38.41l0,0,0,.05.15.23.14.24a1.39,1.39,0,0,0,.06.13q.1.31.18.63a3.62,3.62,0,0,0,1.07,1.82.78.78,0,0,0-.37.35,1.47,1.47,0,0,0-.13,1,1.44,1.44,0,0,0,.42.67,2.28,2.28,0,0,0,1.25.54c.88.12,1.79.16,2.68.23a1,1,0,0,0,.71-.29,1,1,0,0,0-.71-1.71Z"/><path d="M418.83,231.25c-1-2.72-2.27-5.72-4.84-7.34a6.64,6.64,0,0,0-2-.84,8.56,8.56,0,0,1-2.68-.75c-1.3-.85-1.44-2.94-2.16-4.22a8.41,8.41,0,0,0-3.29-3,13.84,13.84,0,0,1-4.21-3.43c-2.33-3-4.14-6.48-6.45-9.55a92.63,92.63,0,0,0-8.59-9.86,1,1,0,0,0-1.42,1.42,87,87,0,0,1,7.55,8.5c2.35,3,4.3,6.25,6.42,9.42a15.11,15.11,0,0,0,3.28,3.71c1.27,1,2.81,1.55,4,2.59s1.48,2.67,2.15,4.1a4.78,4.78,0,0,0,.73,1.1l-.42.09a6.93,6.93,0,0,1-1.82,0l.2,0a1.11,1.11,0,0,0-.76.1,1,1,0,0,0-.36,1.37,1,1,0,0,0,.6.46,8,8,0,0,0,1.83.09,8.48,8.48,0,0,0,1.8-.31,1.07,1.07,0,0,0,.63-.57,6.05,6.05,0,0,0,.64.24,14.06,14.06,0,0,1,2.88.77,6,6,0,0,1,1.85,1.54,15,15,0,0,1,2.23,4.18c-1.4.59-3.4-.2-4.75-.43-1.74-.3-3.43-.29-4.8,1-.95.87.46,2.28,1.41,1.41,1.32-1.21,3.64-.25,5.16,0,1.78.31,3.45.33,4.92-.85A1,1,0,0,0,418.83,231.25Z"/><path d="M375.6,172.57c-3-.93-4.25-4.39-7-5.82-1.28-.67-3.69-.59-4.11-2.21s.05-3.18-1.06-4.59a5.42,5.42,0,0,0-3.71-1.82c-1.37-.15-5.8.83-5.95-1-.06-.75.29-1.5.21-2.28a4.11,4.11,0,0,0-.86-2.06,7.94,7.94,0,0,0-3.52-2.39c-1.5-.6-3.38-.93-4.5-2.19s-.8-3-2.1-4-3.2-.53-4.73-1a8,8,0,0,1-3.93-2.8,7.43,7.43,0,0,1-1.24-2.6,5.82,5.82,0,0,0-.8-2.43A5.06,5.06,0,0,0,330,134c-1.08-.4-2.18-.76-3.29-1.07a46.18,46.18,0,0,0-14.18-1.7,1,1,0,0,0-.5,1.86l2.89,1.84.17.08a20.73,20.73,0,0,0,4.82,5,20.08,20.08,0,0,0,3.44,2c1.27.57,2.67,1,3.18,2.46a14,14,0,0,1,.39,3.77,10.61,10.61,0,0,0,.81,3.55,14.16,14.16,0,0,0,4.91,5.67c4.59,3.31,10.25,4.52,14.48,8.41,3.32,3,6.47,7.14,11.22,7.79a8.94,8.94,0,0,1,2.54.33,5.49,5.49,0,0,1,1.64,1.58,15,15,0,0,0,3,2.72,14.26,14.26,0,0,0,7.71,2.4,1,1,0,0,0,.53.24c3,.4,7.63.11,7.89-3.91C381.87,173.51,378,173.31,375.6,172.57Zm3.91,4.84c-.75,1.85-3,1.83-4.77,1.63a.85.85,0,0,0-.76-.36,12.53,12.53,0,0,1-7.46-2.14,14.19,14.19,0,0,1-2.84-2.69,5.24,5.24,0,0,0-2.78-2c-1.14-.27-2.31-.13-3.45-.47a10.5,10.5,0,0,1-3.14-1.65,56.18,56.18,0,0,1-5.27-4.85,26.43,26.43,0,0,0-6-4.35c-2.46-1.27-5.05-2.25-7.45-3.63a14.39,14.39,0,0,1-5.63-5.2c-1.31-2.34-.77-4.81-1.34-7.31-.68-3-3.31-3.58-5.67-4.89a18.45,18.45,0,0,1-6.62-6.28,43.57,43.57,0,0,1,7.86,1.07,38.56,38.56,0,0,1,5,1.46h0l-.07,0-.12.09a7.63,7.63,0,0,1-1.13.67l-.28.13h0l-.12,0c-.2.08-.41.15-.61.21l-.6.16-.34.06-.13,0h-.05a1,1,0,0,0-1,1c0,.49.45,1.07,1,1a9.12,9.12,0,0,0,5.12-2.28,6.73,6.73,0,0,1,.32,1.19,9.32,9.32,0,0,0,.74,2,9.88,9.88,0,0,0,6.37,5.07,10.84,10.84,0,0,0,2.2.26A1.73,1.73,0,0,1,342.4,147a7.61,7.61,0,0,0,.65,1.57l-.08,0a31.6,31.6,0,0,1-6.79,2.49,1,1,0,1,0,.53,1.93,33.6,33.6,0,0,0,7.27-2.69.83.83,0,0,0,.3-.26c.09.08.16.16.25.23a15.08,15.08,0,0,0,3.93,1.75c1.26.45,3,1.17,3.46,2.55.41,1.15-.26,2.34,0,3.48h-.19l-3.93.7a1,1,0,0,0-.7,1.23,1,1,0,0,0,1.23.69l3.93-.69a.89.89,0,0,0,.62-.53,6.24,6.24,0,0,0,3.63.66c1.6,0,3.58-.42,5,.6s.78,2.9,1.13,4.3a3.25,3.25,0,0,0,.53,1.16l-.15,0a12.12,12.12,0,0,1-7.88.58,1,1,0,0,0-.53,1.93A14.4,14.4,0,0,0,364,168a.82.82,0,0,0,.46-.62,5,5,0,0,0,.95.39,8.29,8.29,0,0,1,3.81,1.91c1.11,1.08,2,2.36,3.2,3.35l0,0-1.53.63a.84.84,0,0,0-.34.17.75.75,0,0,0-.25.28,1,1,0,0,0-.1.78,1,1,0,0,0,.45.59,1,1,0,0,0,.78.1l2.23-.9a1,1,0,0,0,.34-.18.87.87,0,0,0,.26-.28s0-.05,0-.07a10.87,10.87,0,0,0,2,.62C377.63,175.08,380.3,175.45,379.51,177.41Z"/><path d="M267.79,113.66a56,56,0,0,0-9.19-2.26,66.85,66.85,0,0,0-17.81-.58l0-.9a1,1,0,0,0-1-1,40.21,40.21,0,0,1-5.37.23,13.2,13.2,0,0,1-4.68-.61c-1.54-.64-1.29-1.66-.59-2.89a4.9,4.9,0,0,0,.87-3.29c-.06-.47-.57-.69-1-.73-3.12-.38-5.79,1.5-8,3.51s-4.49,4.53-7.83,4.43a7,7,0,0,1-4.09-1.46,19.91,19.91,0,0,1-3-3.79,10.09,10.09,0,0,0-6.54-3.84,15.13,15.13,0,0,0-7.73.93c-2.78,1.09-5,3.23-7.78,4.29a6.9,6.9,0,0,1-2,.45,9.43,9.43,0,0,0-2.19.08c-1.43.38-2.22,1.78-3.62,2.24-1.59.51-2.79,0-4.17-.8a3.36,3.36,0,0,0-3.84.42,19.87,19.87,0,0,1-4.7,2.92,13.12,13.12,0,0,1-4.94.65c-2.62,0-5.51,0-7.08,2.41a.93.93,0,0,0-.15.56,20.82,20.82,0,0,0-5.9,1.92c-2.26,1.14-4.44,3.6-7.12,3.46-1.29-.06-1.28,1.94,0,2,2.92.15,5-2,7.39-3.34a18.33,18.33,0,0,1,9.26-2.34c3.29,0,6.4,1.64,9.67,1.46a6.16,6.16,0,0,0,4.94-2.69c1.22,1.1,1.66,3,2.31,4.44a6.2,6.2,0,0,0,5.09,4c5,.59,9.92-2.31,12.61-6.39a1,1,0,0,0,1,.08c.71-.36,1.58.22,2.09.69.74.69,1.34,1.52,2.16,2.15a7.3,7.3,0,0,0,2.89,1.23c1.17.28,2.34.52,3.52.78a1,1,0,0,0,1.16-.65,6.06,6.06,0,0,0,3.36,1.37A40.76,40.76,0,0,0,226,118.89,12.23,12.23,0,0,0,236,122c4-.48,7.52-2.54,10.68-4.92a1,1,0,0,0,1.16-1.6,1.11,1.11,0,0,0-1.7-.48c-2.93,2.3-6.28,4.44-10,5a10.21,10.21,0,0,1-9.16-3,1,1,0,0,0-1.21-.16,38.8,38.8,0,0,1-18.54,4.06,5.15,5.15,0,0,1-3.89-1.4,5.93,5.93,0,0,1-1.73-3.53c-.12-1.22.44-2.41.21-3.62-.28-1.49-1.64-2.38-2.73-3.29-1.8-1.51-4.36-4.48-7-3.41-2.09.83-2.06,3.23-2.22,5.14a.93.93,0,0,0-.49-.34h-.06a5.24,5.24,0,0,0-2.5-1.38,1,1,0,0,0-.77.1,1.07,1.07,0,0,0-.46.6,1,1,0,0,0,.11.77,1,1,0,0,0,.59.46,4.75,4.75,0,0,1,.64.2,4.43,4.43,0,0,1,.7.41,4,4,0,0,1,.52.49.87.87,0,0,0,.34.22l.62,1a1,1,0,0,0,.19.21,12.42,12.42,0,0,1-9.15,7.94c-1.52.29-3.52.39-4.82-.59a6.54,6.54,0,0,1-1.84-2.92c-.23-.55-.45-1.13-.7-1.69l0-.07.09-.23a12.8,12.8,0,0,1,1.53-2.63,1,1,0,0,0,.1-.77,1.1,1.1,0,0,0-.46-.6,1,1,0,0,0-.77-.1,1.15,1.15,0,0,0-.6.46,12.51,12.51,0,0,0-1.14,1.84,4.66,4.66,0,0,0-1.8-1.4,1,1,0,0,0-1.47.6c-.86,3.08-4.84,2.5-7.16,1.93a26.21,26.21,0,0,0-7.13-.94c1.63-1.19,4.5-.62,6.31-.68a14.09,14.09,0,0,0,8.05-3.1,9.71,9.71,0,0,1,1.6-1.18c.94-.45,1.69.41,2.51.77a6.38,6.38,0,0,0,3.66.41,7,7,0,0,0,3.31-1.74,2.47,2.47,0,0,1,1.9-.7,9.18,9.18,0,0,0,2.39-.22c2.87-.71,5.08-2.81,7.67-4.1A13.47,13.47,0,0,1,199,102.4c3,.39,4.85,2.09,6.54,4.49a15,15,0,0,0,1.54,1.87.86.86,0,0,0-.05.65,7.26,7.26,0,0,1-.62,6.21,1,1,0,0,0,.36,1.37,1,1,0,0,0,1.37-.36,9.35,9.35,0,0,0,1.2-6.12,8.38,8.38,0,0,0,5.87.85h0c-.07.42-.14.84-.22,1.26q-.26,1.26-.57,2.49a1,1,0,0,0,1.93.53,47.13,47.13,0,0,0,1-5,13.14,13.14,0,0,0,2.83-1.88c2.34-2,4.63-4.94,7.86-5.15a9.78,9.78,0,0,1-.73,1.32,5.26,5.26,0,0,0-.71,1.91,3.28,3.28,0,0,0,1.84,3.27,11.24,11.24,0,0,0,4.86,1,37.52,37.52,0,0,0,5.51-.09v.68a13.63,13.63,0,0,0-4.84,4,1,1,0,0,0-.1.77,1,1,0,0,0,.46.6,1,1,0,0,0,1.37-.36h0l.12-.15c.07-.08.14-.17.22-.25s.31-.35.47-.52a14.11,14.11,0,0,1,1.07-1l.12-.09h0a3.15,3.15,0,0,1,.29-.22l.59-.39a12,12,0,0,1,1.27-.7.84.84,0,0,0,.42-.53,64.73,64.73,0,0,1,16,.18,63.82,63.82,0,0,1,7.76,1.56c1.51.4,5.79,1,5.76,3.2a1,1,0,0,0,2,0C271.77,115.53,269.7,114.32,267.79,113.66Zm-75.91-3.91c.1-1.22.43-2.85,2.06-2.15s3.11,2.36,4.46,3.49c.62.52,1.41,1,1.45,1.91a16.15,16.15,0,0,1-.27,1.94,7.45,7.45,0,0,0,.78,3.82,8.08,8.08,0,0,0,.77,1.25c-1-.21-2-.42-3-.66a5.2,5.2,0,0,1-2.78-1.56,9.5,9.5,0,0,0-2.41-2.15,3.82,3.82,0,0,0-2.27-.43A17.12,17.12,0,0,0,191.88,109.75Z"/><path d="M115.89,128c-.88.3-1.86-.9-2.58-1.3a3.33,3.33,0,0,0-3.08-.17,5.78,5.78,0,0,0-2.38,2.32c-.7,1.14-1.23,2.67-2.69,3-1.25.27-2.56-.1-3.82.13a8,8,0,0,0-3,1.32c-1.77,1.19-3.39,3.12-5.57,3.52-3,.56-5.77-1.95-8.78-2a4.53,4.53,0,0,0-4.72,3.64c-.34,2.27,1.5,3.15,3.07,4.22.48.33.89.63.61,1.29a6.17,6.17,0,0,1-1.38,1.55,12.14,12.14,0,0,0-2.29,3.05c-1,2.09-.86,5.09,1.29,6.44,2.56,1.59,5.36-.34,7.28-2,1-.85-.44-2.26-1.41-1.42-1.5,1.31-5.05,3.58-5.72.23-.49-2.4,1.66-4.14,3.1-5.7a5,5,0,0,0,.59-.8l7.79.84a1,1,0,0,0,1-1,1,1,0,0,0-1-1L85,143.35a2.62,2.62,0,0,0-1-1.94c-1.12-1-3.79-1.69-2.36-3.6,1.73-2.32,5.33-.23,7.38.46a7.46,7.46,0,0,0,6-.2c1.79-.89,3.15-2.42,4.85-3.44a5.69,5.69,0,0,1,1.4-.6.69.69,0,0,0,.2.29c.1.11.21.22.3.33l.11.12v0a4.68,4.68,0,0,1,.44.71l.09.19c0,.13.1.27.14.4a6.14,6.14,0,0,1,.15.72l0,.28a1,1,0,0,0,2,0,6.39,6.39,0,0,0-1.08-3.25,7.2,7.2,0,0,0,2.4-.21,4.82,4.82,0,0,0,2.44-2c.71-1,1.15-2.44,2.24-3.16s2.14.38,3.1,1a2.92,2.92,0,0,0,2.57.44C117.63,129.49,117.11,127.56,115.89,128Z"/><path class="cls-13" d="M133.16,125.89a1.42,1.42,0,0,0,.81.7c.76.19,1.66-.37,1.42-1.22l0-.05a1.23,1.23,0,0,0,.23-.28,1,1,0,0,0,.92-1.45,10.27,10.27,0,0,1-1.85-6c0-2.72-.11-5.39-.06-8.11a1.91,1.91,0,0,1,.31-1.23,3,3,0,0,1,.7-.52,6.23,6.23,0,0,0,1.43-2c1.12-1.85,2.71-.85,4.33-1.78a3,3,0,0,0,1.29-1.65,4.6,4.6,0,0,1,.83-1.84.86.86,0,0,0,.3-.76,29,29,0,0,0,3-1.29,15.21,15.21,0,0,1,5.25.35c1.69.42,3.34,1.57,5.13,1.2a21.56,21.56,0,0,0,4.84-2,17.19,17.19,0,0,0,4.25-3,1,1,0,0,0,.13-1.2c2-.21,4-.2,6-.5a23.07,23.07,0,0,0,9-3.91,1,1,0,0,0-.77-1.83c-9.24,1.68-18.49,3.35-27.73,5.09a.83.83,0,0,0-.7,1c-1.78.44-3.55.91-5.3,1.43a.93.93,0,0,0-.66.69c-2.22.53-4.43,1.12-6.63,1.72a.9.9,0,0,0-.69.7,65.36,65.36,0,0,0-9.06,3.58L118,106.77a.79.79,0,0,0-.46,1l-.64.16c-1.25.29-.72,2.22.53,1.93,1-.24,2-.49,3-.76a.83.83,0,0,0,.24.43,11.08,11.08,0,0,0,1.69,1.26,1.34,1.34,0,0,0-.12.24,9.42,9.42,0,0,0-.47,5.38c.19,1,1.21.76,1.76.35a8.28,8.28,0,0,1,2.68-1.72,1.05,1.05,0,0,1,.55-.07c.42.07.63.54.75.95a13.8,13.8,0,0,1,.17,5.47,21.66,21.66,0,0,1-1.76,6.3,4.37,4.37,0,0,0-1.14,3.07,2.13,2.13,0,0,0,1,1.84,3.24,3.24,0,0,0,1.31.28,2.53,2.53,0,0,0,2.08-.48,2.5,2.5,0,0,0,.51-1.19,22.66,22.66,0,0,0,.61-3.35c.1-1.38.75-4,2.55-2.44.94.84,1.1,2.23,2.8,1.93a1.26,1.26,0,0,0,.69-.34,1.44,1.44,0,0,0,.3-.77c.3-2-.56-4-.84-6.08a22,22,0,0,1-.16-2.3"/><path class="cls-13" d="M290.3,100.41c-2.61-.71-5.57,0-8.12-1.55-.61-.37-1.2-.76-1.79-1.15a.87.87,0,0,0-1.23.22c-4.75-.28-9.05-2.52-13.49-4a31.82,31.82,0,0,0-6.54-1.43c-2.45-.28-4.95-.49-7.14-1.73a1,1,0,0,0-1.48.95c-4.39-1.45-9.1-1.3-13.58-2.41a.93.93,0,0,0-1,.36,1,1,0,0,1-.1-.27c-.24-1.26-2.17-.73-1.93.53.28,1.49,1.84,2.07,2.55,3.29s.47,3.31,2.19,3.79c2.26.62,5.68-2.24,7.26.53s-1.15,6.44.74,9.1a3.16,3.16,0,0,0,4.76.19c.8-.95.93-2.28,1.35-3.45s1.45-2.37,2.67-2.14a2,2,0,0,0,2.81,1.11c.93-.54,1.83-1.89,2.69-1.25.45.33.44,1,.8,1.44a1.7,1.7,0,0,0,2,.12,7.27,7.27,0,0,1,1.94-1c2.11-.38,3.56,2.58,5.7,2.55,1.12,0,2-.86,2.95-1.49s2.24-1.07,3.09-.34c1.17,1,.25,3,.74,4.4a2.4,2.4,0,0,0,3.89.75c.91-1,.93-3,2.26-3.36a3.54,3.54,0,0,1,1.61.11c2.42.47,5.61-.31,7.11-2.36A5.74,5.74,0,0,0,290.3,100.41Z"/><path class="cls-13" d="M371.53,141.22a2.3,2.3,0,0,1-.35-.1l-.28-.16a2.72,2.72,0,0,1-.24-.24.7.7,0,0,0-.33-.2.62.62,0,0,0-.38-.09.66.66,0,0,0-.39.09.67.67,0,0,0-.18.11.81.81,0,0,0-.37-.33,22.78,22.78,0,0,1-3.66-2.07,30.56,30.56,0,0,0-2.74-2.19,17.32,17.32,0,0,0-4.54-3.57.91.91,0,0,0-.52-.11,1,1,0,0,0-.95-1,2.52,2.52,0,0,1-.61-.11.84.84,0,0,0-.45-1l-.24-.09h0c-.63-.28-1.28-.51-1.93-.73-.33-.29-.65-.58-1-.85a21.6,21.6,0,0,0-4.41-2.67,1,1,0,0,0-1.1-.66,6.83,6.83,0,0,0-1.53-2c-.95-.87-2.36.54-1.41,1.41a5,5,0,0,1,1.34,1.91,15.08,15.08,0,0,1,.46,2.41,3.34,3.34,0,0,0,1,1.87,2.44,2.44,0,0,0,.87.5l-.33.61-1,1.83c-.64,1.17-1.28,2.34-1.93,3.51-.74,1.37-3.06,4.75-.33,5.58,2.28.69,2.87-2.71,3.2-4.15a9.68,9.68,0,0,1,3.53-5.49,1,1,0,0,0,.3-.36l0,0a1,1,0,0,0,.9.23,12.19,12.19,0,0,1,1.34-.26c.34,0,.67-.07,1-.08a4.86,4.86,0,0,0,2.28.71.86.86,0,0,0,.48.84,15.34,15.34,0,0,1,5,4.29,13.45,13.45,0,0,1,.8,1.29.93.93,0,0,0,.15,1.56,14.62,14.62,0,0,0,5.44,1.23.85.85,0,0,0,.8-.43,3.7,3.7,0,0,0,.28.28,4.87,4.87,0,0,0,.52.37,3.64,3.64,0,0,0,.57.25,1.74,1.74,0,0,0,.39.11.78.78,0,0,0,.4,0,.81.81,0,0,0,.37-.12.7.7,0,0,0,.28-.26.75.75,0,0,0,.18-.34,1,1,0,0,0-.7-1.23Z"/><path class="cls-13" d="M409.12,190a5.33,5.33,0,0,0-.64-1,160.64,160.64,0,0,0-19-27.83.86.86,0,0,0-.47-.29c-.94-1.44-1.92-2.86-3-4.24-.77-1-2.5,0-1.73,1a76.06,76.06,0,0,1,6.75,10.78,32.23,32.23,0,0,0,3,5.34c1.18,1.52,2.94,2.62,3.71,4.42,1.38,3.2.37,7,2.27,10a7.27,7.27,0,0,0,.53.71,1.08,1.08,0,0,0,.22.76,2.67,2.67,0,0,0,.83.68l0,0,.21.11.06,0a6.52,6.52,0,0,0,1.47.41,7.07,7.07,0,0,0,2.61.49l.83.15a4,4,0,0,0,1.31.49,1.1,1.1,0,0,0,1.13-.46A.94.94,0,0,0,409.12,190Z"/><path d="M186.76,87.24c-4.61-1.56-7.36,3.84-11.32,4.9a18.7,18.7,0,0,1-4.61.2,10.33,10.33,0,0,0-3.73.74c-2.21.9-4,2.44-6,3.73a9.08,9.08,0,0,1-7.45,1.57c-2.46-.52-5-1.25-7.43-.35a5.14,5.14,0,0,0-2.39,1.65,4.79,4.79,0,0,0-.74,1.37c-.25.72-.28,1.76-.94,2.24-1.14.81-2.73.14-3.86.87a8.86,8.86,0,0,0-4.08,9.28,5.42,5.42,0,0,1-.2,3.24,5.53,5.53,0,0,0-.26,2.32c.17,1.63.95,3.1,1.33,4.69.13.57.41,2.15-.31,2.53s-.88-1-1.27-1.44a2.18,2.18,0,0,0-3.36.53c-1,1.52.08,3.41-.93,4.93-.81,1.22-4,2.51-4,.1,0-3,2.57-5.21,3-8.07.37-2.39.7-5.12-.45-7.33a2,2,0,0,0-.53-.67c-1.16-.82-4.57,2.09-4.5,2.2-.51-.78,0-2.42,0-3.19A4.08,4.08,0,0,0,122,110c-1.26-1.29-3.49-.87-5.07-.7a34.52,34.52,0,0,0-7,1.51c-1.22.4-.7,2.33.53,1.93a31.62,31.62,0,0,1,6-1.38c1.06-.14,4-.88,4.32.54.48,2-1.09,4.31.51,6.06,1,1.1,2.4.63,3.39-.25.82-.73,2-2.6,2.28-.31.55,4.73-3.35,8.26-3.76,12.8-.38,4.23,5,4.19,7.19,1.82a5.13,5.13,0,0,0,1.09-1.86c.35-1.07,0-2.13.19-3.19.31-1.58.72.11,1.07.6a2,2,0,0,0,1.92.88c1.75-.2,2.6-2.06,2.58-3.64,0-1.83-.93-3.46-1.35-5.19a5.16,5.16,0,0,1,.33-3.08,7.09,7.09,0,0,0-.07-3.6c-.5-2.47.07-4.84,2.33-6.25a.91.91,0,0,0,.45-.81l.26-.06c1.48-.25,3.3,0,4.48-1.15s.87-2.87,1.95-4a5.17,5.17,0,0,1,4.12-1c1.91.2,3.73.9,5.65,1a9.08,9.08,0,0,0,4.39-.82c2.71-1.2,4.84-3.36,7.5-4.66,2-1,3.92-.79,6-.81a9.39,9.39,0,0,0,5-1.33c2.28-1.38,5-4.87,7.95-3.87C187.45,89.58,188,87.65,186.76,87.24Z"/><path d="M276.31,102.2c-1.63.78-3.53,1.72-5.38,1.16-1.44-.44-2.24-2-3.82-2.18s-2.94,1.42-4.66.87c-1.46-.47-1.95-2-3.66-1-1,.57-1.46.88-2.61.39a2.49,2.49,0,0,0-1.91-.15c-1.57.57-1.91,2.39-2.75,3.64a4.37,4.37,0,0,1-1.82,1.56,2.76,2.76,0,0,1-2.27,0,1.63,1.63,0,0,1-.31-.42,5.14,5.14,0,0,1-.59-1.36,6,6,0,0,1,.08-2.1c.2-1.44.59-3.49-.17-4.81-1.32-2.27-4.05-1.76-6.24-1.69a4,4,0,0,1-1.66-.15c-.85-.34-1-1.17-1.19-2a8,8,0,0,0-7-6c-.39,0-2.22-.3-2.5.06-.45.58.87,1.2,1.25,1.46,1,.7,2.51.65,3.62,1.34a6,6,0,0,1,2.47,3c.45,1.22.51,2.52,1.56,3.43a4.37,4.37,0,0,0,2.84.9c1.86,0,5.22-1,5.35,1.81.07,1.62-.35,3.19-.06,4.8a4.45,4.45,0,0,0,.91,2.63,4.63,4.63,0,0,0,3.14,1.34,5.13,5.13,0,0,0,4.07-2.4c.55-.77.8-1.85,1.4-2.55s2.12.07,3,0a3.89,3.89,0,0,0,1.21-.29c.27-.11.69-.51,1-.56.64-.1,1.56.88,2.28,1.1a4.89,4.89,0,0,0,2.28.12c1-.2,2-1.19,3-.83.71.25,1.28,1,1.92,1.45a5.49,5.49,0,0,0,2.64.79,11.73,11.73,0,0,0,5.54-1.58C278.48,103.37,277.47,101.65,276.31,102.2Z"/><path d="M372.46,143c-1.59-1.17-3.58-1.15-5.46-1.25a6.59,6.59,0,0,1-2.77-.58,5,5,0,0,1-1.88-2.1,17.76,17.76,0,0,0-3.32-4.89,11.29,11.29,0,0,0-5.33-2.7,1,1,0,0,0-1.11.57c-2.11.06-3.72,1.66-4.67,3.46a24.52,24.52,0,0,0-1.25,3.21c-.38,1.05-1,2.76-2.08,3.3-1.33.64-.91-2-.68-2.55a11,11,0,0,1,1.64-2.62c1.3-1.68,2.72-3.31,3.2-5.44a1,1,0,0,0-1-1.27c-1.32.06-1.79-1.92-2.17-2.89a18.41,18.41,0,0,0-1.83-3.66,16.17,16.17,0,0,0-6.06-5.58c-1.14-.6-2.15,1.13-1,1.72a14.82,14.82,0,0,1,6.43,6.78c.84,1.73,1.42,4.59,3.34,5.4-.81,1.95-2.45,3.46-3.59,5.23s-2.05,4.68-.24,6.41c2.28,2.18,4.74-1.36,5.52-3.22.92-2.18,1.67-6.49,4.8-6.3a.82.82,0,0,0,.83-.45,9.44,9.44,0,0,1,4.5,2.69c1.32,1.45,1.88,3.35,3,4.91a6.23,6.23,0,0,0,4.6,2.48c1.85.21,3.92-.1,5.51,1.06C372.49,145.51,373.48,143.78,372.46,143Z"/><path d="M410.82,191.92l-7.5-1.32c-.39-.07-1.17-.06-1.48-.32s-.43-1.31-.53-1.8c-.22-1.09-.47-2.16-.75-3.22a38.57,38.57,0,0,0-5.64-12.08,111.17,111.17,0,0,1-6.68-10.61c-1.77-3.26-3.45-6.58-5.51-9.68a28.78,28.78,0,0,0-8.62-8.75c-1.09-.68-2.1,1.05-1,1.72,6.63,4.11,10,11.44,13.59,18a122,122,0,0,0,6.76,10.66A37.25,37.25,0,0,1,399,187.28c.46,2,.38,4.46,2.71,5.06,2.78.71,5.74,1,8.57,1.5C411.55,194.07,412.09,192.14,410.82,191.92Z"/><path class="cls-14" d="M134.08,102.28a1,1,0,0,0-1.37-.36l-6.79,3.36a1,1,0,0,0-.36,1.37,1,1,0,0,0,1.37.36l6.79-3.36A1,1,0,0,0,134.08,102.28Z"/><path class="cls-14" d="M247.6,92.91l-6.78-.65a1,1,0,0,0-1,1,1,1,0,0,0,1,1l6.78.65a1,1,0,0,0,1-1A1,1,0,0,0,247.6,92.91Z"/><path class="cls-14" d="M248.79,104.9l.13.16a2.69,2.69,0,0,1-.26-.44,2.73,2.73,0,0,1-.1-.41,1.85,1.85,0,0,1,0-.47,3.25,3.25,0,0,1,.11-.42,2.36,2.36,0,0,1,.24-.4l-.13.16a1.05,1.05,0,0,0,.29-.7,1,1,0,0,0-.29-.71,1,1,0,0,0-.71-.29,1,1,0,0,0-.7.29,4,4,0,0,0-.66,1.17,3.74,3.74,0,0,0-.18,1.15,3.56,3.56,0,0,0,.18,1.13,3.77,3.77,0,0,0,.67,1.19,1,1,0,0,0,1.41,0,1,1,0,0,0,.29-.71A1.12,1.12,0,0,0,248.79,104.9Z"/><path class="cls-14" d="M128.32,129.62l-.1-.24a1,1,0,0,0-.36-.36l-.24-.1a1.15,1.15,0,0,0-.26,0,1.19,1.19,0,0,0-.08-.16.75.75,0,0,0-.28-.25.66.66,0,0,0-.38-.12.65.65,0,0,0-.39,0l-.24.1a1,1,0,0,0-.36.36l-.1.23a1,1,0,0,0,0,.54,1.34,1.34,0,0,0,.14.38.75.75,0,0,0,.07.12,1.79,1.79,0,0,0,.25.31,1.83,1.83,0,0,0,.31.24,2.92,2.92,0,0,0,.36.17l.15,0a1.81,1.81,0,0,0,.4,0,1.4,1.4,0,0,0,.41-.06,1.15,1.15,0,0,0,.6-.46.81.81,0,0,0,.12-.37A.78.78,0,0,0,128.32,129.62Z"/><path class="cls-14" d="M134.57,92.25a1,1,0,0,0-1.37-.36l-2.83,1.41a1,1,0,0,0,1,1.73l2.83-1.41A1,1,0,0,0,134.57,92.25Z"/><path class="cls-15" d="M180.52,117.86l-.11,0,.09,0Z"/><path class="cls-15" d="M183.86,117a1,1,0,0,0-1.37.35v0l.05-.06-.07.1a1.8,1.8,0,0,1-.2.19l0,0-.2.12-.13.07h0l0,0-.14,0a1.05,1.05,0,0,1-.24.06h0a4.56,4.56,0,0,1-.52,0h0l-.27-.07-.09,0,0,0-.05,0h0l-.09,0-.07,0-.08,0a.15.15,0,0,1-.08,0h0l0,0,0,0-.09-.09a1,1,0,0,0-1.42,1.41,3.6,3.6,0,0,0,2.83,1,3.65,3.65,0,0,0,2.74-1.59A1,1,0,0,0,183.86,117Z"/><path class="cls-15" d="M182.48,117.38c-.09.1,0,.06,0,0Z"/><path class="cls-15" d="M180.26,117.72l-.1-.06h0Z"/><path class="cls-15" d="M83.9,147.88a1,1,0,0,0-.46-.6,1,1,0,0,0-.77-.1l-.24.1a1,1,0,0,0-.36.36c-.39.55-.78,1.11-1.18,1.66a.81.81,0,0,0-.12.37.78.78,0,0,0,0,.4,1,1,0,0,0,.46.6,1,1,0,0,0,.77.1l.24-.1a1,1,0,0,0,.36-.36l1.18-1.66a.81.81,0,0,0,.12-.37A.78.78,0,0,0,83.9,147.88Z"/><path class="cls-15" d="M336.64,145.74h0Z"/><path class="cls-15" d="M339.8,145.83a1,1,0,0,0-1.37-.36l-.14.07-.28.1-.31.08-.15,0h0c-.1,0-.06,0,0,0a2.28,2.28,0,0,0-.26,0h-.32l-.3,0c.05,0,.09,0,0,0h0l-.14,0a4.4,4.4,0,0,1-.62-.18l-.12,0h0l-.28-.14a2.61,2.61,0,0,1-.28-.17l-.12-.08c-.16-.15-.33-.3-.48-.47a1,1,0,0,0-1.41,0,1,1,0,0,0,0,1.41,5.32,5.32,0,0,0,6.3,1.16A1,1,0,0,0,339.8,145.83Z"/><path class="cls-15" d="M337.55,145.74h0Z"/><path class="cls-15" d="M223.79,107.51a1,1,0,0,0-1.37-.36,1.06,1.06,0,0,0-.46.6l0,.08a3.38,3.38,0,0,1-.34.58,3.48,3.48,0,0,1-.47.47,3.11,3.11,0,0,1-.38.25,1,1,0,0,0-.46.59,1,1,0,0,0,.1.78,1,1,0,0,0,.59.45,1,1,0,0,0,.77-.1,4.42,4.42,0,0,0,2.15-2.57A1,1,0,0,0,223.79,107.51Z"/><path class="cls-15" d="M85,138.53a.92.92,0,0,0-.25-.44l-.21-.16a1,1,0,0,0-.5-.13h-.57a.73.73,0,0,0-.38.08.94.94,0,0,0-.53.53.86.86,0,0,0-.09.39l0,.26a.94.94,0,0,0,.26.44l.2.16a1.11,1.11,0,0,0,.5.14H84a.79.79,0,0,0,.38-.09.72.72,0,0,0,.33-.21.83.83,0,0,0,.2-.32.73.73,0,0,0,.09-.38Z"/><path class="cls-15" d="M201.86,105.39a9.82,9.82,0,0,0-3.48-1.81,1,1,0,0,0-1.23.7,1,1,0,0,0,.7,1.23,7.71,7.71,0,0,1,.92.32,9,9,0,0,1,1.75,1l-.06,0a1.05,1.05,0,0,0,.69.29,1,1,0,0,0,.71-.3,1,1,0,0,0,.29-.7A1,1,0,0,0,201.86,105.39Z"/><path class="cls-8" d="M198.58,72.27l-.12-.2-.05-.09a.08.08,0,0,1,0,0,.18.18,0,0,1,0,.06.5.5,0,1,0-1-.26,1.05,1.05,0,0,0,.07.63c.07.16.19.3.26.46a.6.6,0,0,1,0,.19.85.85,0,0,1-.15.32,1.68,1.68,0,0,1-1.42.59,1.93,1.93,0,0,1-1.82-2.2.52.52,0,0,0-.35-.61.51.51,0,0,0-.62.35,3,3,0,0,0,1.55,3.16,2.83,2.83,0,0,0,3.52-.78,1.61,1.61,0,0,0,.29-1A1.4,1.4,0,0,0,198.58,72.27Z"/><path class="cls-8" d="M198.39,71.94Z"/><path class="cls-8" d="M224.56,62.66a7.16,7.16,0,0,1-3.11,5.08,5.46,5.46,0,0,1-2.81,1c-.85,0-2.17-.15-2.52-1.07-.22-.6-1.19-.34-1,.26a3.07,3.07,0,0,0,2.75,1.78,6.18,6.18,0,0,0,3.66-.82,8.19,8.19,0,0,0,4-6.18C225.64,62,224.64,62,224.56,62.66Z"/><path class="cls-8" d="M250.05,66.89c-.07,1-.18,1.91-.34,2.85a6.67,6.67,0,0,1-.71,2.45c-.71,1.08-2.61,1.62-3.48.42-.37-.52-1.24,0-.86.5a3.15,3.15,0,0,0,4.81.08,5.26,5.26,0,0,0,1.12-2.73,28.33,28.33,0,0,0,.46-3.57C251.09,66.25,250.09,66.25,250.05,66.89Z"/><path class="cls-8" d="M265.16,60.87c0,.45,0,.9,0,1.35a8.52,8.52,0,0,1-.09,1.24,2.45,2.45,0,0,1-1,1.5,2.4,2.4,0,0,1-3.29-.54.54.54,0,0,0-.69-.18.52.52,0,0,0-.18.69,3.42,3.42,0,0,0,4.54,1A3.46,3.46,0,0,0,265.93,64a5.74,5.74,0,0,0,.18-1.44c0-.55,0-1.11.05-1.66A.5.5,0,0,0,265.16,60.87Z"/><path class="cls-8" d="M277.87,73.68a8.75,8.75,0,0,0-1.59-2.54c-.43-.48-1.13.23-.7.71a6,6,0,0,1,1.72,3.89,1.36,1.36,0,0,1-.95,1.36,1.28,1.28,0,0,1-1.48-.69c-.29-.57-1.15-.06-.86.51a2.27,2.27,0,0,0,2.21,1.22,2.3,2.3,0,0,0,2-1.71A4.51,4.51,0,0,0,277.87,73.68Z"/><path class="cls-8" d="M295.74,68.12l-.24,3a6.91,6.91,0,0,1-.44,2.67,2.69,2.69,0,0,1-1.51,1.3c-.54.17-1.49.17-1.7-.5s-1.15-.35-1,.27a2.09,2.09,0,0,0,2.18,1.32,3.44,3.44,0,0,0,2.42-1.26,5,5,0,0,0,.95-3l.3-3.76C296.79,67.47,295.79,67.48,295.74,68.12Z"/><path class="cls-8" d="M318.17,87a.5.5,0,0,0-1,0,12.35,12.35,0,0,0,.2,1.47,1.88,1.88,0,0,1-.11,1.3c-.49.79-1.59.81-2.4.77a2.74,2.74,0,0,1-1.39-.25,3.07,3.07,0,0,1-.74-1,16.42,16.42,0,0,1-1.31-2.78c-.22-.6-1.19-.34-1,.27a19,19,0,0,0,1.61,3.34,2.85,2.85,0,0,0,1.1,1.13,4.49,4.49,0,0,0,1.82.29A3.4,3.4,0,0,0,318,90.34C318.78,89.3,318.21,88.09,318.17,87Z"/><path class="cls-8" d="M343.33,107.79l-1.88-1.15a.48.48,0,0,0-.27-.73,10.11,10.11,0,0,1-2.07-1c-.57-.44-1.1-1-1.62-1.43q-1.85-1.67-3.66-3.37t-3.5-3.36a10.52,10.52,0,0,1-2.68-3.54c-.23-.6-1.2-.34-1,.26,0,0,0,0,0,0-.55-.83-1.08-1.68-1.57-2.55a.5.5,0,0,0-.87.5,45.18,45.18,0,0,0,17.17,17,.46.46,0,0,0,.32,0l.12,0s0,0,.07,0a.48.48,0,0,0,.59-.08l.3.16A.5.5,0,0,0,343.33,107.79Z"/><path class="cls-8" d="M370.8,115.49c-.34-.39-.95,0-.83.48a2.27,2.27,0,0,1-.48,2,39.56,39.56,0,0,1-9-.86c-1.11-.2-2.24-.39-3.35-.64l-.74-.25a.45.45,0,0,0-.35-.51l-3.85-1.08a.5.5,0,0,0-.38.91,12.87,12.87,0,0,0,1.57.8l.82.42a23.78,23.78,0,0,0,5.6,2.54,22.16,22.16,0,0,0,6,1.48c1.61.13,3.85.16,5.12-1S371.82,116.65,370.8,115.49Z"/><path class="cls-8" d="M192.83,64.42c-.5,1-.76,2.08-1.22,3.1a10.93,10.93,0,0,1-1.37,2.24.46.46,0,0,0-.63.19,9,9,0,0,1-1.74,2.18c-.67.45-1.37.87-2.08,1.28a.49.49,0,0,0-.67-.2q-4.49,2.42-9.19,4.39s0,0-.07.05a.45.45,0,0,0-.31,0,83.2,83.2,0,0,1-10.91,4.87c-.6.22-.35,1.18.26,1l1.43-.53a.46.46,0,0,0,.55.25l1-.28a.44.44,0,0,0,.3,0,66.77,66.77,0,0,0,12.48-5,62,62,0,0,0,5.72-3.4c.28-.19.54-.4.81-.6a18.78,18.78,0,0,0,1.87-1.46,11.71,11.71,0,0,0,1.79-1.59,11.88,11.88,0,0,0,2.87-6.1C193.82,64.29,193.11,63.86,192.83,64.42Z"/><path d="M327,143.27l-.06-.08a2.68,2.68,0,0,0-.28-.3,2.51,2.51,0,0,0-.24-.19c-.19-.14-.39-.28-.59-.4a17.1,17.1,0,0,1-2.81-1.86,11.52,11.52,0,0,1-1.65-.82c-1.91-1.17-3.13-3.35-5-4.33a1.36,1.36,0,0,1-.67-.88c-.38-.2-.75-.41-1.13-.6a172.82,172.82,0,0,0-34.49-13.57,196.48,196.48,0,0,0-33.21-5.81,2.09,2.09,0,0,1,.12.67,2.2,2.2,0,0,1-.54,1.37c20.26,1.94,40.14,6.47,58.85,15A184.35,184.35,0,0,1,327,143.33.21.21,0,0,0,327,143.27Z"/><path d="M411.72,188.8a96.08,96.08,0,0,0-7.93-13.58.93.93,0,0,0,.19-.57c-.07-3.71,0-7.46-.29-11.16a15.44,15.44,0,0,0-3.48-8.93c-2.36-2.87-5.06-5.49-7.6-8.19l-7.09-7.56a5.08,5.08,0,0,0,.61-3.66c-.27-9.21-6-17-12.26-23.23-8.71-8.7-17.49-17.37-27.8-24.27-5.63-3.76-11.74-6.08-17.51-9.33A196.76,196.76,0,0,0,307.85,68,165.13,165.13,0,0,0,259.4,56a170.22,170.22,0,0,0-100.26,22c-2.3,1.31-5,2.18-7,3.87A17,17,0,0,0,149.76,85c-6.57,1.15-13.13,2.75-19.11,5.76-2.49,1.25-5.78,2.82-7.29,5.28s-.21,5.85-1.83,8.31l0,.06-.43.23c-5.43,3-10.68,4.64-14.76,9.49-5.13,6.1-10.18,11.75-14,18.81-.85,1.55-1.82,3.11-2.81,4.69a5.67,5.67,0,0,1,2.46.49,81.78,81.78,0,0,1,9.29-15c15.93-20.3,45.57-29.22,70.16-33.26,20.57-3.38,41.58-3.06,62.22-.48,19.67,2.47,39.07,7,58.14,12.36a6.75,6.75,0,0,1-2.35,1.5,9.89,9.89,0,0,1-3.55.36,3.93,3.93,0,0,0-3.05,1.16c-.73.81-1.11,2-2.11,2.59a1.13,1.13,0,0,1-1.21,0c-.4-.32-.22-1.08-.21-1.53a4.53,4.53,0,0,0-1-3.35,2.7,2.7,0,0,0-2.7-.75c-1,.3-1.64,1.18-2.54,1.66-1.14.6-.13,2.32,1,1.72.66-.35,1.78-1.77,2.57-1.42,1.11.51.57,2.57.69,3.5.3,2.28,2.93,2.89,4.66,1.73a9,9,0,0,0,2.09-2.49c.83-1.17,2.17-.74,3.42-.8a8.75,8.75,0,0,0,6.24-3,1.28,1.28,0,0,0,.15-.28l3.71,1.08A197,197,0,0,1,328,114.67a194.36,194.36,0,0,1,26.77,16.21c4.32,3,8.58,6.15,12.83,9.26a103.41,103.41,0,0,1,11.8,9.57c5.34,5.27,9.07,12.06,14,17.73,10.93,12.59,22.55,29.76,19.49,47.46-.51,3-1.12,6.06-2.69,8.56a7.51,7.51,0,0,1,2,.41C417.36,213.22,416.92,199.18,411.72,188.8ZM152.42,84.62l.16-.23,0-.06c.12-.15.25-.29.4-.45a.89.89,0,0,0,.45-.15,166.83,166.83,0,0,1,47.45-20.8,170,170,0,0,1,51.74-5.42,162.85,162.85,0,0,1,48.67,10.06C311,71.17,319.92,76.38,329,81.3c10.84,5.92,21.37,11.12,30.44,19.61a187,187,0,0,1,16.52,16.88c4.17,5,8.6,11.81,8.23,18.63-.06,1-.2,1.16-1.07.47-5.15-4-9.7-8.53-15.3-12.13-4.1-2.63-8.8-4.41-12.46-7.7-8.77-7.9-19.16-11.88-30.1-16q-14.74-5.55-30-9.67a330.67,330.67,0,0,0-46-8.94,325.13,325.13,0,0,0-47-2.3,318.78,318.78,0,0,0-46.66,4.57c-1.18.2-2.36.43-3.54.65A7.78,7.78,0,0,1,152.42,84.62Zm248.75,87.29c-5.44-6.23-11.16-12.25-16.17-18.85-6-7.94-14.8-13.52-22.79-19.31a255.87,255.87,0,0,0-26.9-17.55,167.63,167.63,0,0,0-29.54-12.35,413.54,413.54,0,0,0-64.62-15.42c-21-3.16-42.33-4.18-63.41-1.5-18.61,2.36-36.94,7.49-53.63,16.12.27-1.78,0-3.66.68-5.39.54-1.38,1.94-2.23,3.12-3A39.18,39.18,0,0,1,132,92.32c5.73-2.81,12-4.27,18.26-5.36l.1,0q6.12-.78,12.24-1.32a313.33,313.33,0,0,1,34.05-3.28,325.56,325.56,0,0,1,92.46,9.55c18.86,4.73,36.27,11.95,54.19,19,4,1.56,7,5.56,10.61,7.81,4.48,2.8,9,5.75,13.34,8.85s8.65,6.34,12.87,9.65a12.76,12.76,0,0,0,3.19,2.28c4.86,5.18,9.83,10.28,14.58,15.55a14.46,14.46,0,0,1,2.84,4.21,16.48,16.48,0,0,1,1,5c.18,2.9.18,5.81.21,8.71C401.69,172.54,401.44,172.22,401.17,171.91Z"/><path d="M136.45,123.61c11.86-3.41,24.11-5,36.38-6.1a.87.87,0,0,0-.09-.11,3.18,3.18,0,0,1-.43-1.48,2.17,2.17,0,0,1,0-.36l-3.12.28a4.91,4.91,0,0,1-.71.48,6.86,6.86,0,0,1-2.65.77c-1.63.17-3.26-.14-4.88,0a1.17,1.17,0,0,1-.88-.28c-5.22.68-10.41,1.53-15.55,2.65q-4.5,1-8.92,2.29A8.58,8.58,0,0,1,136.45,123.61Z"/><path d="M407.76,235.3a10.41,10.41,0,0,1,.11-1.08,18.56,18.56,0,0,1,.73-3.08,3.77,3.77,0,0,1-.89.05,1.47,1.47,0,0,1-.83-.11,1.4,1.4,0,0,1-.67-.53,3.28,3.28,0,0,1-.81-1.12,13.47,13.47,0,0,1-.51-1.47l-.09-.22,0-.1a4,4,0,0,1-.26-.6l-.27-.61a19,19,0,0,1-1.05-2.81,1.81,1.81,0,0,1,0-.23c-.38-.83-.77-1.71-1.2-2.52-2.06-3.81-4.4-7.47-6.72-11.12a235.11,235.11,0,0,0-22.53-29.92c-.21-.24-.43-.47-.65-.71a7.88,7.88,0,0,1-3.49-.85,228.46,228.46,0,0,1,18.94,23.5q5.26,7.51,9.94,15.4c7.13,12.05,12.29,24.61,3.05,37.28-.31-.58-.62-1.17-.92-1.76-2.11-4-3.53-7.57-6.41-11.3-4.1-5.32-8.25-10-12.61-15.1A367.7,367.7,0,0,0,355,199.73c-8.11-7.73-16.54-14.14-25.55-20.79-6.15-4.54-12.38-9-18.86-13a190.84,190.84,0,0,0-29.52-15.33C262.55,143.09,244,137.49,224,135.24c-5.29-.6-10.58-1.06-15.88-1.55-16.71-1.55-33.82-1.56-50.24,2.38-15.51,3.72-31.48,9.15-45.08,17.64-4.54,2.84-8.86,6-13.27,9-2.45,1.68-4.88,3.41-7.3,5.16s-9.1,9.86-9.69,2.6c-.18-2.19,1.13-4.9,1.93-6.9,3.43-8.52,10.16-15.79,17-21.71a87,87,0,0,1,22.93-14,10.67,10.67,0,0,1,.51-2.32,99.35,99.35,0,0,0-12.11,5.87,80.73,80.73,0,0,0-13.73,9.85,56.94,56.94,0,0,0-5.93,6c-.68.83-1.34,2.18-2.16,3.24a1.71,1.71,0,0,1-.41.94A5.8,5.8,0,0,1,87.78,153a16.34,16.34,0,0,1-2.61.43,2.25,2.25,0,0,1,.34,1,3.11,3.11,0,0,1-.44,1.41,54.87,54.87,0,0,0-4.95,15.77,32.43,32.43,0,0,0,1.28,16c3.26,8.85,5.89,18,13.58,24l-.21,1.12c.73.28,1.45.59,2.17.89.09-.45.19-.9.28-1.35a1.15,1.15,0,0,0,.22-1.09c.35-1.68.71-3.35,1.11-5a227.42,227.42,0,0,1,11.81-35.2c.61-1.44,1.57-2.68,2.19-4.15a97.39,97.39,0,0,1,4.44-9.14c.72-1.33,1.47-2.65,2.2-4A49.23,49.23,0,0,1,126,150.3c19.7-7.75,40.8-14.52,62.34-14.72,22.13-.2,43.52,3.72,64.84,9.43q5.82,1.56,11.53,3.49c13.31,4.5,25.93,10.81,38.35,17.33,9.35,4.91,18,11,26.48,17.23s15.74,14,23.94,20.79a208.87,208.87,0,0,1,20.41,19.5c5.27,5.77,10.56,11.25,13.94,18.39,3,6.43-1.34,16.39-3.66,22.78-1.5,4.12-3.19,8.21-5,12.26.77-.54,1.56-1.06,2.36-1.55a.88.88,0,0,0,1,0c5.92-3.65,12.53-7.78,16.55-13.53,3.59-5.15,5.88-10.84,8.19-16.62C408.76,241.37,407.53,239,407.76,235.3ZM111.94,161.05c-5.54,13-12.3,26.52-15,40.42-.52,2.65-1,5.26-1.51,7.87-8.09-6.9-15-21.89-9.45-31.45a29.62,29.62,0,0,1,2-2.76c1.91-1.62,3.53-3.56,5.6-5.11l7.89-5.89c3.9-2.91,8.4-4.26,12.23-6.94C113.09,158.45,112.51,159.73,111.94,161.05ZM386.65,269.92a73.68,73.68,0,0,0,2.8-8.05,138.83,138.83,0,0,0,3.25-14.73c.61.9,1.23,1.79,1.83,2.7l.71,1.12a18.44,18.44,0,0,1,2.19,8A58,58,0,0,1,386.65,269.92Z"/><path class="cls-16" d="M313.59,84.24a25.63,25.63,0,0,1-2.89-1.52.28.28,0,0,1,.05.11,17.51,17.51,0,0,0,1.63,4.67,6.48,6.48,0,0,0,1.31,1.64,2.18,2.18,0,0,0,1.85.73,2.2,2.2,0,0,0,1.21-2.75C316.29,85.71,314.85,84.86,313.59,84.24Z"/><path d="M315.58,84.23c-1.67-1.17-3.79-1.62-5.27-3.09a.5.5,0,0,0-.7.71,6.42,6.42,0,0,0,.75.63.5.5,0,0,0-.57.61,18.38,18.38,0,0,0,1.69,4.85c.74,1.31,2.08,2.94,3.72,3a2.89,2.89,0,0,0,2.64-2.77C318,86.49,316.85,85.12,315.58,84.23Zm0,5.64a2.18,2.18,0,0,1-1.85-.73,6.48,6.48,0,0,1-1.31-1.64,17.51,17.51,0,0,1-1.63-4.67.28.28,0,0,0-.05-.11,25.63,25.63,0,0,0,2.89,1.52c1.26.62,2.7,1.47,3.16,2.88A2.2,2.2,0,0,1,315.54,89.87Z"/><path class="cls-16" d="M262.43,61.46a2.65,2.65,0,0,0-1.1,2.28,1.22,1.22,0,0,0,1.8.76,3.51,3.51,0,0,0,1.61-2.26,6.63,6.63,0,0,0,.21-3C264.1,60,263.24,60.69,262.43,61.46Z"/><path d="M265.59,58.41a.53.53,0,0,0-.86-.3c-1.05.92-2.17,1.8-3.16,2.79a3.43,3.43,0,0,0-1.19,3.15A2.14,2.14,0,0,0,263,65.59a3.6,3.6,0,0,0,2.45-2.32,7.73,7.73,0,0,0,.48-4.53A.41.41,0,0,0,265.59,58.41Zm-.85,3.83a3.51,3.51,0,0,1-1.61,2.26,1.22,1.22,0,0,1-1.8-.76,2.65,2.65,0,0,1,1.1-2.28c.81-.77,1.67-1.49,2.52-2.22A6.63,6.63,0,0,1,264.74,62.24Z"/><path class="cls-16" d="M292.39,71.63a6.61,6.61,0,0,0-.56,1.8c-.13,1.26,1.27,1.29,2,.56a3.93,3.93,0,0,0,.79-1.5,15.72,15.72,0,0,0,.51-2,14.54,14.54,0,0,0,.22-3.36,15.15,15.15,0,0,0-2.09,2.82A13.36,13.36,0,0,0,292.39,71.63Z"/><path d="M295.67,65.79a.45.45,0,0,0-.55.08,16.1,16.1,0,0,0-2.8,3.62,15.92,15.92,0,0,0-.95,2,5.71,5.71,0,0,0-.55,2.21,1.92,1.92,0,0,0,2.7,1.65c1.39-.51,1.91-2.1,2.26-3.4a16.07,16.07,0,0,0,.48-5.69A.52.52,0,0,0,295.67,65.79Zm-.58,4.68a15.72,15.72,0,0,1-.51,2,3.93,3.93,0,0,1-.79,1.5c-.69.73-2.09.7-2-.56a6.61,6.61,0,0,1,.56-1.8,13.36,13.36,0,0,1,.83-1.7,15.15,15.15,0,0,1,2.09-2.82A14.54,14.54,0,0,1,295.09,70.47Z"/><path class="cls-16" d="M245.91,71.73c.25,1.28,1.82.57,2.39,0,1.25-1.32,1.47-3.23,1.48-5l-2,2.08C247,69.5,245.67,70.52,245.91,71.73Z"/><path d="M250.77,65.65l.59-.61c.45-.46-.25-1.17-.7-.71l-.45.46a.45.45,0,0,0-.44.46l-2.94,3c-1,1-2.23,2.16-1.88,3.72s1.92,1.72,3.1,1.13a5,5,0,0,0,2.32-3.19A14.31,14.31,0,0,0,250.77,65.65Zm-2.47,6c-.57.6-2.14,1.31-2.39,0s1.11-2.23,1.84-3l2-2.08C249.77,68.47,249.55,70.38,248.3,71.7Z"/><path class="cls-16" d="M219.93,67.75c2.89-1,4.07-4,4.65-6.77a20.34,20.34,0,0,0-4.62,2.3,19.26,19.26,0,0,0-2,1.52c-.54.48-1.4,1.15-1.35,2,.05.63.66,1,1.2,1.14A3.59,3.59,0,0,0,219.93,67.75Z"/><path d="M218.92,69a6.66,6.66,0,0,0,4.5-2.61A13.42,13.42,0,0,0,225.76,60c.1-.63-.87-.9-1-.26,0,0,0,0,0,.08a21.31,21.31,0,0,0-5.33,2.57,20.65,20.65,0,0,0-2.29,1.78,3.74,3.74,0,0,0-1.52,2.35C215.51,68.28,217.46,69.12,218.92,69Zm-2.29-2.22c0-.81.81-1.48,1.35-2a19.26,19.26,0,0,1,2-1.52,20.34,20.34,0,0,1,4.62-2.3c-.58,2.8-1.76,5.79-4.65,6.77a3.59,3.59,0,0,1-2.1.15C217.29,67.75,216.68,67.39,216.63,66.76Z"/><path class="cls-16" d="M339.29,93.59c0,1.73,0,3.47.06,5.2,0,1,.47,3.3,2,2.57,1.71-.84,1-3.27.33-4.53A37.08,37.08,0,0,0,339.29,93.59Z"/><path d="M339.38,91.88c-.28-.53-1-.13-.9.38a.49.49,0,0,0-.18.37c-.06,1.92-.06,3.85,0,5.77.05,1.25.19,2.78,1.23,3.62a2.26,2.26,0,0,0,3.34-.85,4.76,4.76,0,0,0-.24-4.55C341.78,94.9,340.29,93.59,339.38,91.88Zm1.93,9.48c-1.49.73-1.91-1.61-2-2.57-.1-1.73-.1-3.47-.06-5.2a37.08,37.08,0,0,1,2.35,3.24C342.35,98.09,343,100.52,341.31,101.36Z"/><path class="cls-16" d="M194.54,68.67c0,.66,0,1.33,0,2a2.25,2.25,0,0,0,1.5,2.25,1,1,0,0,0,1-.28,1.17,1.17,0,0,0,.05-1.2C196.65,70.29,195.39,69.59,194.54,68.67Z"/><path d="M196.84,69.4c-.84-.75-2.24-1.56-2.09-2.86a.51.51,0,0,0-.5-.5.7.7,0,0,1-.64,0,.51.51,0,0,0-.35.62c.52,1.33.16,2.77.32,4.15a3.24,3.24,0,0,0,1.94,2.92,2,2,0,0,0,2.67-1.19C198.53,71.41,197.68,70.15,196.84,69.4Zm.23,3.22a1,1,0,0,1-1,.28,2.25,2.25,0,0,1-1.5-2.25c-.06-.65,0-1.32,0-2,.85.92,2.11,1.62,2.58,2.75A1.17,1.17,0,0,1,197.07,72.62Z"/><path class="cls-16" d="M274.41,73.89c0,.72,0,2.1.86,2.45a.94.94,0,0,0,1.14-.57,1.92,1.92,0,0,0-.12-1.62,15.92,15.92,0,0,0-2-2.7C274.33,72.26,274.36,73.08,274.41,73.89Z"/><path d="M274.37,69.32v-.25a.43.43,0,0,0,0-.23v-.06c0-.64-1-.64-1,0a2.78,2.78,0,0,0,0,.51,42,42,0,0,0,.05,4.76c.07,1.07.21,2.44,1.21,3.08a2,2,0,0,0,2.81-1.24c.42-1.35-.43-2.65-1.24-3.66A7.12,7.12,0,0,1,274.37,69.32Zm2,6.45a.94.94,0,0,1-1.14.57c-.81-.35-.81-1.73-.86-2.45s-.08-1.63-.09-2.44a15.92,15.92,0,0,1,2,2.7A1.92,1.92,0,0,1,276.41,75.77Z"/><path d="M94.17,163.43a23,23,0,0,1-4.26,3.06,7.83,7.83,0,0,1-2.31,1,1.25,1.25,0,0,1-1-.18.68.68,0,0,1-.29-.76c.28-.57-.58-1.08-.86-.5a1.71,1.71,0,0,0,.77,2.21,3.26,3.26,0,0,0,3-.29,23.36,23.36,0,0,0,5.68-3.86C95.35,163.7,94.64,163,94.17,163.43Z"/><path d="M105.9,156.4a.51.51,0,0,0-.69-.18l-2.06,1.15a.5.5,0,0,0-.18.68.51.51,0,0,0,.69.18l2.06-1.15A.51.51,0,0,0,105.9,156.4Z"/><path d="M140.72,138.08a62.31,62.31,0,0,0-9.13,3.51c-.58.27-.07,1.14.5.86A61.39,61.39,0,0,1,141,139,.5.5,0,0,0,140.72,138.08Z"/><path d="M147.56,137.17a.5.5,0,0,0-.23-.3.46.46,0,0,0-.38-.05l-.76.19a.48.48,0,0,0-.29.23.3.3,0,0,0-.06.18.28.28,0,0,0,0,.2.46.46,0,0,0,.23.3.56.56,0,0,0,.38.05l.75-.19a.5.5,0,0,0,.3-.23.32.32,0,0,0,.06-.18A.34.34,0,0,0,147.56,137.17Z"/><path d="M202.23,130.94a103.79,103.79,0,0,0-10.73-.58.5.5,0,0,0,0,1,103.79,103.79,0,0,1,10.73.58C202.87,132,202.87,131,202.23,130.94Z"/><path d="M187.17,130.58l-1.88.22a.49.49,0,0,0-.35.15.49.49,0,0,0-.15.35c0,.24.23.53.5.5l1.88-.22a.55.55,0,0,0,.36-.15.5.5,0,0,0,.14-.35C187.66,130.84,187.45,130.55,187.17,130.58Z"/><path d="M275.05,145.38l-8.86-3.17c-.6-.21-.86.75-.26,1l8.86,3.16C275.4,146.56,275.66,145.59,275.05,145.38Z"/><path d="M283.23,148.5a.58.58,0,0,0-.3-.23l-1.12-.39a.49.49,0,0,0-.39.06.51.51,0,0,0-.23.29.53.53,0,0,0,.05.39.62.62,0,0,0,.3.23l1.13.39a.5.5,0,0,0,.38-.05.46.46,0,0,0,.23-.3A.49.49,0,0,0,283.23,148.5Z"/><path d="M403.59,237.83c-.06-.64-1.06-.65-1,0a13.71,13.71,0,0,1-.12,3.56,11,11,0,0,1-1,3.27c-.37.69-1,1.23-1.68.61a7.33,7.33,0,0,0-1.84-1.54c-.6-.24-.86.72-.27,1,.8.33,1.17,1.28,1.95,1.68a2,2,0,0,0,2.52-.92,9.87,9.87,0,0,0,1.25-3.58A14.49,14.49,0,0,0,403.59,237.83Z"/><path d="M393.45,235.56c-5.24-2.67-7.1-9-12-12.11-.55-.34-1.05.52-.51.86,4.92,3.1,6.74,9.43,12,12.11C393.51,236.72,394,235.85,393.45,235.56Z"/><path d="M362.75,203.4l-1.3-1.33a.49.49,0,0,0-.7.7l1.3,1.34a.51.51,0,0,0,.7,0A.5.5,0,0,0,362.75,203.4Z"/><path d="M379.32,124.65c-.3-.56-1.16-.06-.86.51a12.11,12.11,0,0,1,1.42,6,.5.5,0,0,0,1,0A13,13,0,0,0,379.32,124.65Z"/><path d="M370.89,124.21l-4.84-3.34a.5.5,0,0,0-.68.18.5.5,0,0,0,.18.68l4.83,3.34a.5.5,0,1,0,.51-.86Z"/><path d="M376.17,127.37a.53.53,0,0,0-.23-.3l-.85-.57a.55.55,0,0,0-.38,0,.58.58,0,0,0-.3.23.53.53,0,0,0-.05.39.57.57,0,0,0,.23.3l.85.56a.46.46,0,0,0,.38,0,.5.5,0,0,0,.3-.23A.5.5,0,0,0,376.17,127.37Z"/><path d="M195,77.7a72,72,0,0,0-7.91.25c-.63,0-.64,1,0,1A72,72,0,0,1,195,78.7C195.63,78.72,195.63,77.72,195,77.7Z"/><path d="M203,78a.53.53,0,0,0-.35-.15H202a.32.32,0,0,0-.19,0,.42.42,0,0,0-.26.26.32.32,0,0,0-.05.19.53.53,0,0,0,.15.36.52.52,0,0,0,.35.14h.57a.41.41,0,0,0,.19,0,.44.44,0,0,0,.16-.1.37.37,0,0,0,.1-.17.3.3,0,0,0,.05-.19A.51.51,0,0,0,203,78Z"/><path d="M263.75,82a66.56,66.56,0,0,0-12-1.37.5.5,0,0,0,0,1A65.27,65.27,0,0,1,263.48,83C264.11,83.14,264.38,82.17,263.75,82Z"/><path d="M274.33,83.73l-3.68-.45a.5.5,0,0,0,0,1l3.68.45a.5.5,0,0,0,0-1Z"/><path d="M327.25,98.8l-3.4-1.1a.5.5,0,0,0-.26,1l3.4,1.09a.5.5,0,0,0,.61-.35A.5.5,0,0,0,327.25,98.8Z"/><path d="M115.41,123.74a.51.51,0,0,0-.71,0,1.78,1.78,0,0,1-.81.46,1,1,0,0,1-.41-.07,2.32,2.32,0,0,0-.58-.13c-.29,0-1.51.16-1.49-.38a.5.5,0,0,0-.85-.35.69.69,0,0,1-.92.18.68.68,0,0,1-.16-.89.5.5,0,0,0-.86-.51,1.7,1.7,0,0,0,.45,2.22,1.67,1.67,0,0,0,1.62.13,1.48,1.48,0,0,0,.38.33,2.76,2.76,0,0,0,1.5.25c.53,0,1,.29,1.52.2a3,3,0,0,0,1.32-.74A.49.49,0,0,0,115.41,123.74Z"/><path d="M113.44,117.2a.52.52,0,0,0-.61-.35l-.41.09a2.16,2.16,0,0,1-.36,0l-.15,0-.06,0s0,0,0-.05a.56.56,0,0,1,0-.08s0,0,0-.06v-.05a.49.49,0,0,0,0-.67.51.51,0,0,0-.71,0,1.14,1.14,0,0,0,.14,1.64,2.09,2.09,0,0,0,1.93.22A.51.51,0,0,0,113.44,117.2Z"/><path d="M123.27,122.44a.5.5,0,0,0-.68-.18c-.19.14-.38.28-.58.4l-.17.08-.07,0-.16,0h-.23l-.12,0-.05,0,0,0-.06-.06s0,0,0,0l0-.06a.51.51,0,0,0-.62-.35.51.51,0,0,0-.35.61,1.41,1.41,0,0,0,1.36,1,2.62,2.62,0,0,0,1.64-.7.55.55,0,0,0,.23-.29A.53.53,0,0,0,123.27,122.44Z"/><path d="M121.6,122.81s-.07,0,0,0Z"/><path d="M103.57,128a.5.5,0,0,0-.68.18.16.16,0,0,1,0,.07s0,0,0,.05l-.06.06,0,0-.08,0h0l-.09,0-.07,0h0a.41.41,0,0,0-.11,0h0l-.11,0,0,0-.08-.06a.52.52,0,0,0-.61.08,1.38,1.38,0,0,1-.3.24,2,2,0,0,1-.28.15.93.93,0,0,1-.3.05h-.19l-.08-.06-.06-.06,0-.06,0-.06h0s0-.12,0-.12v-.06c0,.1,0,0,0,0h0a.5.5,0,1,0-.71-.7,1.33,1.33,0,0,0,.36,2,1.83,1.83,0,0,0,2.07-.28,1.51,1.51,0,0,0,1.81-.72A.5.5,0,0,0,103.57,128Z"/><path d="M188.21,91.68a.52.52,0,0,0-.69-.18.5.5,0,0,0-.18.68,3.08,3.08,0,0,1,.24,2.86.5.5,0,0,0,.35.61.5.5,0,0,0,.61-.35A4,4,0,0,0,188.21,91.68Z"/><path d="M187.06,98.29a.51.51,0,0,0-.71,0c-.11.11-.25.25-.35.33l-.17.11-.05,0s0,0,0,0l-.11,0h-.17l0,0s0,0,0,0h0c0-.07,0,0,0,0l0,0h0a.5.5,0,0,0-.83-.22l-.06,0,0,0h0l-.08,0h-.22l-.1,0H184l0,0-.08,0,0,0-.06-.07c.07.08,0,0,0,0l-.06-.11a.5.5,0,0,0-.68-.18.52.52,0,0,0-.18.69,1.52,1.52,0,0,0,2,.7,1.14,1.14,0,0,0,.83.29,2.19,2.19,0,0,0,1.4-.79A.51.51,0,0,0,187.06,98.29Z"/><path d="M162,107.77a.5.5,0,0,0-.71,0,2.5,2.5,0,0,1-.32.33h0l-.1.06-.21.12-.08,0c.1,0,0,0,0,0l-.21.07-.22,0h-.16a3.27,3.27,0,0,1-.44,0h0l-.13,0-.22-.06-.1,0h0l-.2-.1-.11-.07s-.1-.08-.06,0,0-.05,0-.05l-.09-.09a.5.5,0,0,0-.71.71,2.93,2.93,0,0,0,4.22-.22A.51.51,0,0,0,162,107.77Z"/><path d="M153.41,105.68a.53.53,0,0,0-.36-.15,4.18,4.18,0,0,1-1.06,0l-.5-.1a.51.51,0,0,0-.58.26l0,0a.51.51,0,0,0-.62.34c0-.06,0,0,0,0l-.06.11,0,.09s-.08.1-.05.07-.07.07-.06.07l-.08.07-.09.08,0,0-.19.12-.11.06-.05,0h0l-.22.07-.12,0h-.28s-.07,0-.07,0l-.08,0a1.44,1.44,0,0,1-.4-.13,1.47,1.47,0,0,1-.62-.59.5.5,0,0,0-.87.51,2.44,2.44,0,0,0,4.38-.3l.06,0a4.72,4.72,0,0,0,1.83.13.6.6,0,0,0,.36-.14.52.52,0,0,0,.14-.36A.5.5,0,0,0,153.41,105.68Z"/><path d="M140.66,111.58a.51.51,0,0,0-.7,0,.94.94,0,0,1-.1.1l-.05,0-.07,0h0l-.11,0h-.24l-.13,0,0,0a.41.41,0,0,1-.11-.07l0,0-.08-.08,0-.07,0-.06h0a1,1,0,0,0,0-.1s0-.06,0-.08v0a.49.49,0,0,0-.14-.32.5.5,0,0,0-.85.36,1.68,1.68,0,0,0,1.1,1.45,1.63,1.63,0,0,0,1.71-.43A.5.5,0,0,0,140.66,111.58Z"/><path d="M174.23,100.13a1.39,1.39,0,0,0-.21-.27,1.15,1.15,0,0,0-.29-.2,1.11,1.11,0,0,0-.44-.12.86.86,0,0,0-.16,0l-.06,0a.53.53,0,0,0-.39,0,1,1,0,0,0-.4.45,1.15,1.15,0,0,0-.13.6.81.81,0,0,0,0,.31.9.9,0,0,0,.13.28,1.38,1.38,0,0,0,.29.3,1.34,1.34,0,0,0,.27.13,1.22,1.22,0,0,0,.6,0,1.17,1.17,0,0,0,.53-.27,1.37,1.37,0,0,0,.19-.23,1.18,1.18,0,0,0,.12-.28A1.07,1.07,0,0,0,174.23,100.13Z"/><path d="M177.51,103a.29.29,0,0,0-.1-.16.42.42,0,0,0-.16-.11.45.45,0,0,0-.2,0l-.13,0a.42.42,0,0,0-.22.13l-.08.1a.52.52,0,0,0-.07.25v.14a.41.41,0,0,0,0,.19.34.34,0,0,0,.1.16.42.42,0,0,0,.16.11.43.43,0,0,0,.19,0l.14,0a.42.42,0,0,0,.22-.13l.08-.1a.54.54,0,0,0,.06-.25v-.14A.31.31,0,0,0,177.51,103Z"/><path d="M213.79,99.39c-.86.37-2.35,1-3-.12a.48.48,0,0,0-.43-.25A5.6,5.6,0,0,1,208,98.8a1.66,1.66,0,0,1-1.11-1.37c0-.64-1-.64-1,0a2.57,2.57,0,0,0,1.43,2.15,5.53,5.53,0,0,0,2.82.45,2.37,2.37,0,0,0,1.62.84,5.26,5.26,0,0,0,2.51-.61C214.88,100,214.37,99.14,213.79,99.39Z"/><path d="M221.18,96.94a.51.51,0,0,0-.71,0h0l-.11.07-.15,0a.38.38,0,0,1-.15,0l-.14,0-.12-.06,0,0a.5.5,0,0,0-.71,0,.51.51,0,0,0,0,.7,1.55,1.55,0,0,0,2.12,0A.51.51,0,0,0,221.18,96.94Z"/><path d="M292.07,106.6a.5.5,0,0,0-.61-.35.51.51,0,0,0-.35.62,1.63,1.63,0,0,1,.07.28s0-.05,0,0a.28.28,0,0,1,0,.09.92.92,0,0,1,0,.16c0,.1,0,.21,0,.31v0h0l0,.17c0,.11-.06.2-.09.3l0,.06h0a.61.61,0,0,1-.07.14,1.69,1.69,0,0,1-.17.29l0,.05h0l-.11.13a.5.5,0,0,0,.7.71A3.21,3.21,0,0,0,292.07,106.6Z"/><path d="M289.15,109.23a.52.52,0,0,0-.62.35,3.38,3.38,0,0,1-.11.34,2.73,2.73,0,0,1-.32.55,3,3,0,0,1-.43.44.49.49,0,0,0-.15.36.47.47,0,0,0,.15.35.51.51,0,0,0,.35.15.58.58,0,0,0,.35-.15,3.46,3.46,0,0,0,1.13-1.77A.52.52,0,0,0,289.15,109.23Z"/><path d="M280.29,117a.51.51,0,0,0-.62-.35,1.84,1.84,0,0,1-.91.13l-.09,0h0l-.09-.06,0,0-.05-.05a0,0,0,0,1,0,0c0-.13,0,.05,0,0h0v0a.51.51,0,0,0-.3-.46.51.51,0,0,0-.55.11c.07-.06-.05,0-.05,0l0,0h0l-.13,0c.07,0,0,0,0,0h-.07l-.1,0h0l0,0-.07,0-.06-.06,0,0,0,0,0-.1s0,0,0,0v-.12l0-.08s.05-.14,0,0a.5.5,0,0,0-.18-.68.49.49,0,0,0-.68.18,1.5,1.5,0,0,0,.33,1.79,2.41,2.41,0,0,1,2,.78,2.45,2.45,0,0,0,1.58-.09A.5.5,0,0,0,280.29,117Z"/><path d="M290.47,120.58a.5.5,0,0,0-.61-.35,2.26,2.26,0,0,1-.37.11h-.1l-.19,0-.38,0h0l-.11,0-.18,0-.19,0-.08,0h0a3.65,3.65,0,0,1-.34-.18l-.16-.11h0l-.08-.07a2.54,2.54,0,0,1-.28-.29.5.5,0,0,0-.71,0,.51.51,0,0,0,0,.71,3.24,3.24,0,0,0,3.47,1A.51.51,0,0,0,290.47,120.58Z"/><path d="M292.82,118.9a.53.53,0,0,0-.3-.23.62.62,0,0,0-.38,0c.13,0,0,0,0,0l-.12,0-.13,0h0a.45.45,0,0,0-.12,0h-.26s-.08,0-.11,0h-.05l-.13,0s-.25-.06-.25-.09.08,0,0,0l-.06,0-.11-.06-.22-.15a.53.53,0,0,0-.39,0,.52.52,0,0,0-.3.23.51.51,0,0,0,0,.38.58.58,0,0,0,.23.3,2.61,2.61,0,0,0,2.62.27.5.5,0,0,0,.23-.3A.53.53,0,0,0,292.82,118.9Z"/><path d="M233.78,98.74a1.11,1.11,0,0,0-.17-.3,1.05,1.05,0,0,0-.24-.23.75.75,0,0,0-.13-.06l-.13-.05H233a.41.41,0,0,0-.23-.15.51.51,0,0,0-.38,0,1.12,1.12,0,0,0-.53.91,1.18,1.18,0,0,0,.13.52l0,.06a1.58,1.58,0,0,0,.12.15l.14.11.07,0a.85.85,0,0,0,.24.09,1.09,1.09,0,0,0,.26,0,1.11,1.11,0,0,0,.5-.14,1,1,0,0,0,.19-.16,1,1,0,0,0,.19-.32.24.24,0,0,0,0-.08,1.23,1.23,0,0,0,0-.19A.8.8,0,0,0,233.78,98.74Z"/><path d="M210.87,91.89a1.38,1.38,0,0,0-1.08-.63,2.5,2.5,0,0,0-1.23.26c-.19.08-.35.16-.53.22l-.29.08h-.2a.48.48,0,0,1-.27-.16c-.06-.06,0,0,0,0s0,0,0,0h0s0,0,0,0v0a.19.19,0,0,1,0-.07.5.5,0,1,0-1-.27,1.13,1.13,0,0,0,.48,1.3,1.6,1.6,0,0,0,1.38.2c.44-.12.81-.37,1.24-.47l.08,0h.25a0,0,0,0,0,0,0h0l.1,0,.08,0h0s0,0,0,0,0,0,0,0l0,0a.51.51,0,0,0,.68.17A.5.5,0,0,0,210.87,91.89Z"/><path d="M267.12,108.67a2.91,2.91,0,0,0-2.76-1,6.34,6.34,0,0,1-1.47.37.37.37,0,0,1-.24-.18s0-.11,0,0,0,0,0,0a.49.49,0,0,0,.12-.63.5.5,0,0,0-.68-.18,1,1,0,0,0-.21,1.49,1.47,1.47,0,0,0,1.69.51,4,4,0,0,1,1.59-.32,2,2,0,0,1,1.29.78.5.5,0,0,0,.7-.71Z"/><path d="M242.07,107.18v0h0a.13.13,0,0,0,0,0v0Z"/><path d="M242.7,108.06h-.07l-.12,0,0,0c-.05,0-.17-.14,0,0l-.11-.1-.06-.08-.12-.2s0,0,0-.06,0-.1,0-.15v-.16a.07.07,0,0,0,0,0v0l0-.1,0-.06a.18.18,0,0,0,.05-.07l0,0v0a.5.5,0,0,0-.7-.71,1.77,1.77,0,0,0,.41,2.6,1.55,1.55,0,0,0,.81.23.5.5,0,0,0,0-1Z"/><path d="M242.17,107Z"/><path d="M242.07,107.37v0h0v0Z"/><path d="M315.56,113.94a1.76,1.76,0,0,1-1.17-2.44c.2-.35-.13-.91-.56-.74a.92.92,0,0,1-1.05-.24.94.94,0,0,1-.29-1,.5.5,0,0,0-.35-.62.51.51,0,0,0-.61.35,2.09,2.09,0,0,0,1.74,2.6,2.8,2.8,0,0,0,.26,1.68,2.65,2.65,0,0,0,2,1.45c.27,0,.5-.25.5-.5A.51.51,0,0,0,315.56,113.94Z"/><path d="M328.43,118.55a.51.51,0,0,0-.68-.18l-.06,0h0l-.16,0-.35.08h-.58l-.11,0-.16,0-.31-.1h0l-.08,0-.16-.09-.15-.09-.06,0,0,0a.5.5,0,1,0-.71.71,3.24,3.24,0,0,0,3.44.44A.51.51,0,0,0,328.43,118.55Z"/><path d="M341.8,133h-.06l-.15,0-.12,0-.08,0a1.13,1.13,0,0,1-.21-.12l-.08-.06-.08-.06-.18-.19h0a.1.1,0,0,0,0-.05.57.57,0,0,0-.08-.13l-.06-.12v0s0,0,0,0-.06-.19-.08-.29a.47.47,0,0,0-.41-.36.51.51,0,0,0-.5.24c0-.05,0,0,0,0l-.05,0h0l-.06,0-.07,0h-.22l-.07,0-.06,0-.05,0h0a.21.21,0,0,0,0-.06c.06.08,0,0,0,0s0-.05,0-.07h0v-.14l0-.09h0l.07-.11h0l0,0,.1-.05a.51.51,0,0,0,.18-.69.52.52,0,0,0-.69-.18,1.42,1.42,0,0,0-.4,2.15,1.33,1.33,0,0,0,1.08.42,1.36,1.36,0,0,0,.41-.09,2.44,2.44,0,0,0,2,1.27.5.5,0,0,0,.5-.5A.51.51,0,0,0,341.8,133Z"/><path d="M365.05,147.2a.49.49,0,0,0-.35-.15.49.49,0,0,0-.36.15.42.42,0,0,0-.09.14.45.45,0,0,0-.12-.2.46.46,0,0,0-.35-.14.5.5,0,0,0-.35.14,1.11,1.11,0,0,0-.08,1.49l.15.19.2.17a1.26,1.26,0,0,0,.33.16,1,1,0,0,0,.84-.09L365,149a.54.54,0,0,0,.15-.38v-.13l0-.31c0-.2,0-.4,0-.6A.56.56,0,0,0,365.05,147.2Z"/><path d="M305.58,116.35A.51.51,0,0,0,305,116l0,0s-.08,0,0,0h0s-.1-.06,0,0l-.07-.07c.05.06,0,0,0,0h0a.28.28,0,0,1,0-.09.51.51,0,0,0-.86-.35l-.12.13-.06.06h0a1.19,1.19,0,0,1-.15.09l-.08,0h0a1.89,1.89,0,0,1-.34.09l-.1,0h-.3l-.16,0-.17,0h-.05l-.05,0-.15-.09-.06,0h0l-.14-.14,0,0s-.05-.06,0-.06a.53.53,0,0,0-.69-.18.51.51,0,0,0-.18.69,2.37,2.37,0,0,0,3,.71,1.18,1.18,0,0,0,1.18.37A.52.52,0,0,0,305.58,116.35Z"/><path d="M310.61,127.53a6.61,6.61,0,0,1-4.46-.82c-.3-.18-.61-.52-1-.45a1.72,1.72,0,0,1-.81.08,1.42,1.42,0,0,1-1.11-1.1.51.51,0,0,0-.5-.5.51.51,0,0,0-.5.5,2.42,2.42,0,0,0,3,2,7.61,7.61,0,0,0,5.66,1.21C311.5,128.39,311.24,127.42,310.61,127.53Z"/><path d="M318,128.48a.5.5,0,0,0-.61-.35l-.17,0a2.68,2.68,0,0,1-.49,0l-.35-.08-.1,0h0l-.2-.11a.51.51,0,0,0-.69.18.53.53,0,0,0,.18.69,2.83,2.83,0,0,0,2.09.29A.51.51,0,0,0,318,128.48Z"/><path d="M325,124.47a.5.5,0,1,0-.86.5s0,0,0,0a.2.2,0,0,1,0,.11.38.38,0,0,1,0,.15.94.94,0,0,1,0,.16.75.75,0,0,1-.07.12.6.6,0,0,1-.08.08l-.15.09a.47.47,0,0,0-.23.3.5.5,0,0,0,.05.38.5.5,0,0,0,.3.23l.13,0a.48.48,0,0,0,.26-.07,1.54,1.54,0,0,0,.65-2.11Z"/><path d="M326.08,129l-.1-.08a.45.45,0,0,0-.25-.07,1.36,1.36,0,0,0-.49,0,1.43,1.43,0,0,0-.44.19,1.59,1.59,0,0,0-.66.83.53.53,0,0,0,.05.39.57.57,0,0,0,.3.23.51.51,0,0,0,.6-.32v0a.86.86,0,0,1,.1-.16l.1-.11.13-.07.14,0a1.08,1.08,0,0,1,.18,0,.47.47,0,0,0,.35-.15.49.49,0,0,0,.15-.35A.51.51,0,0,0,326.08,129Z"/><path d="M395.61,196.26a2.83,2.83,0,0,0-3,1.11.49.49,0,0,0,.18.68.5.5,0,0,0,.68-.18,1.83,1.83,0,0,1,1.86-.65,1.8,1.8,0,0,1,.87.55,1.88,1.88,0,0,1,.42.89.53.53,0,0,0,.5.5c.24,0,.54-.23.5-.5A2.83,2.83,0,0,0,395.61,196.26Z"/><path d="M406.33,209.45a.51.51,0,0,0-.68.18l0,.05h0l0,0a.86.86,0,0,1-.14.13c.09-.08,0,0,0,0l-.08,0-.07,0h0l-.19,0H405a.17.17,0,0,1-.1,0h0c.08,0,0,0-.05,0l-.09,0h0l0,0-.08,0h0s-.1-.09-.13-.13l0,0a.21.21,0,0,1,0-.06.58.58,0,0,1-.08-.14s0,0,0,0h0a.86.86,0,0,1,.07-.1.51.51,0,0,0-.18-.69.43.43,0,0,0-.25,0,.39.39,0,0,0-.18,0,.51.51,0,0,0-.5.5v0l0,0-.07.05-.12.07-.11.05-.08,0-.26.07h-.4l-.23-.05a1.94,1.94,0,0,1-.37-.2l-.08-.07a.6.6,0,0,1-.08-.08l-.08-.09-.06-.08a1.71,1.71,0,0,1-.13-.23l0-.07s0,0,0,0,0-.08,0-.12l0-.14s0-.06,0-.08a2.43,2.43,0,0,1,0-.27.5.5,0,0,0-1,0,2.42,2.42,0,0,0,1.65,2.38,2.32,2.32,0,0,0,1.84-.21,1.91,1.91,0,0,0,1,.77,1.81,1.81,0,0,0,2-.77A.51.51,0,0,0,406.33,209.45Z"/><path d="M412.21,213a.51.51,0,0,0-.69,0l.05,0-.15.09-.12,0h-.16l-.14,0-.1-.06-.07-.07a.5.5,0,0,0-.71.71,1.49,1.49,0,0,0,1,.46,1.44,1.44,0,0,0,1.06-.38.48.48,0,0,0,0-.7Z"/><path d="M409.78,203.29a.5.5,0,0,0-.68.18c-.07.15-.15.29-.23.44a1.83,1.83,0,0,1-.26.42c.09-.1,0,0,0,0l-.08.08a.57.57,0,0,1-.16.15c.12,0,0,0-.05,0l-.09.05-.05,0h0l-.1,0h-.19s-.13,0-.18,0h0l-.1-.06h0l-.07-.06c-.06-.06,0,0,0,0a.56.56,0,0,0-.05-.08v-.06h0a.5.5,0,0,0-.35-.61.5.5,0,0,0-.61.35,1.38,1.38,0,0,0,1.57,1.56c1-.09,1.49-1,1.87-1.76A.49.49,0,0,0,409.78,203.29Z"/><path d="M407.22,197.67a.5.5,0,0,0-.91-.12l-.12.18a1.89,1.89,0,0,1-.2.2,2.26,2.26,0,0,1-.26.16l-.3.08h-.09a.5.5,0,0,0-.5.5.51.51,0,0,0,.5.5,2.14,2.14,0,0,0,1.83-1.13A.5.5,0,0,0,407.22,197.67Z"/><path d="M382.17,184.09a.5.5,0,0,0-.7,0l0,0a.39.39,0,0,1-.11.06l-.07,0h-.11l-.17-.05a.75.75,0,0,1-.17-.1l-.11-.11a.75.75,0,0,1-.07-.12.19.19,0,0,1,0-.08.11.11,0,0,1,0-.08v0a.5.5,0,0,0-.35-.61.51.51,0,0,0-.61.35,1.38,1.38,0,0,0,.38,1.34,1.72,1.72,0,0,0,1.23.51,1.34,1.34,0,0,0,.83-.34.48.48,0,0,0,0-.7Z"/><path d="M390.13,186.77c-.45-.46-1.16.25-.71.71a.46.46,0,0,1,.16.39.55.55,0,0,1,0,.26.77.77,0,0,1-.11.27,1.38,1.38,0,0,1-1.12.64,5.81,5.81,0,0,1-1.81-.14,1.07,1.07,0,0,1-.69-.33.26.26,0,0,1,0-.35.5.5,0,1,0-.86-.51,1.32,1.32,0,0,0,.35,1.73,3.82,3.82,0,0,0,2,.58,3.89,3.89,0,0,0,2-.22,2.16,2.16,0,0,0,1.15-1.24A1.68,1.68,0,0,0,390.13,186.77Z"/><path d="M392.63,183.47h-1.69a.5.5,0,0,0-.5.5.51.51,0,0,0,.5.5h1.69a.5.5,0,0,0,0-1Z"/><path d="M384.64,165.76a.51.51,0,0,0-.58-.35h-.16l-.12,0h0l-.07,0-.06,0h0l-.08-.08,0,0a.25.25,0,0,1,0-.07h0a.19.19,0,0,0,0-.07.11.11,0,0,0,0-.05h0v-.08s0,0,0,0h0v0s0,0,0-.07l0-.06h0a.57.57,0,0,1,.08-.13l0-.06.05,0,.06,0s.15-.07,0,0a.53.53,0,0,0,.3-.23.53.53,0,0,0,0-.39.51.51,0,0,0-.62-.34,1.54,1.54,0,0,0-1,1.82,1.52,1.52,0,0,0,.67.88,1.55,1.55,0,0,0,1.11.2A.51.51,0,0,0,384.64,165.76Z"/><path d="M383.46,164.89s0,0,0,0h0S383.47,164.88,383.46,164.89Z"/><path d="M383.94,165.41Z"/><path d="M375.07,166.66a.5.5,0,0,0-.51.86,3.07,3.07,0,0,1,.31.17s0,0,.05.05a.8.8,0,0,1,.13.13l0,0,.09.14a1.09,1.09,0,0,1,.08.15l0,0c0-.07,0,0,0,0s.06.22.09.33h0v.07a.48.48,0,0,1,0,.17.57.57,0,0,0,0,.13v0a.29.29,0,0,1,0,.09.88.88,0,0,1-.05.15h0s0,.07,0,.07a.52.52,0,0,0,.18.69.51.51,0,0,0,.69-.18A2.37,2.37,0,0,0,375.07,166.66Z"/><path d="M373.44,159a.49.49,0,0,0-.7,0,1.25,1.25,0,0,1-.35.16,1.14,1.14,0,0,1-.46,0l-.17,0-.16-.07a.92.92,0,0,1-.37-.31.5.5,0,0,0-.71,0s-.12.11-.09.09l-.07,0-.08,0-.09,0H370a1.34,1.34,0,0,1-.27-.07,1,1,0,0,1-.35-.25.57.57,0,0,1-.12-.33.5.5,0,0,0-1,0,1.83,1.83,0,0,0,2.59,1.48,2.13,2.13,0,0,0,2.61-.07A.49.49,0,0,0,373.44,159Z"/><path class="cls-17" d="M372.27,86.83a2.79,2.79,0,0,0-.39-1.23,34.51,34.51,0,0,0-.57-8.5C371,71.84,369.53,64.25,365,63c-.36-1-.74-2.05-1.14-3.07-.57-1.46-2.47-2.81-4-1.64-2.33,1.74-5,2.46-7.62,3.52a32.21,32.21,0,0,0-7.66,4.49,86.62,86.62,0,0,1-16,10.1,2.22,2.22,0,0,0-1.3,1.67,7.88,7.88,0,0,0-3.08,9.59,3.46,3.46,0,0,0,2,1.83c1.26,3.61,4.61,6.65,7.25,9.31a95.41,95.41,0,0,0,10,8.68c7.06,5.33,14.86,9.26,23.73,10.23a2.25,2.25,0,0,0,2-.69,2.41,2.41,0,0,0,1.17-1.65A95.61,95.61,0,0,0,372.27,86.83Z"/><path class="cls-18" d="M367.81,65.61a2.62,2.62,0,0,0-2.36-1.9c.07-.56.13-1.13.18-1.69.32-3.52-5.18-3.5-5.49,0a70.93,70.93,0,0,1-15.28,37.62c-1.48,1.88-2.41,3.35-1.51,5.8a13.23,13.23,0,0,0,4.56,5.57,23,23,0,0,0,11,4.1,10.34,10.34,0,0,0,3.88,1.49c.27.18.54.36.81.57a2.06,2.06,0,0,0,1.56.41,2.4,2.4,0,0,0,3.51-1.73q1.21-6,2.61-11.92a2.6,2.6,0,0,0-.46-2.27A81.67,81.67,0,0,0,367.81,65.61Z"/><path d="M369.55,67.3a46.41,46.41,0,0,0-7-11.4,1.18,1.18,0,0,0-1.43-.18L343.45,66c-5.13,3-10.41,5.85-15.07,9.56C325,78.31,320,82,322.41,86.8a46.49,46.49,0,0,0,11.07,13.76c6.56,5.78,13.36,11.75,21.44,15.3a34.65,34.65,0,0,0,14,3.14,1.08,1.08,0,0,0,1.07-.76,2.08,2.08,0,0,0,.13-.3C374.55,101.42,376.46,83.45,369.55,67.3Zm-23.16,40.84c-3.41-2.46-6.61-5.21-9.78-8a62.89,62.89,0,0,1-7.82-7.66,17.77,17.77,0,0,1-4.32-9.68c3.17-4.11,7.46-7.18,11.85-9.88,5.32-3.27,10.78-6.32,16.17-9.46l9-5.23c9.93,12.47,11.67,29.38,9.41,44.72A124.3,124.3,0,0,1,368,116.62C360.06,116.38,352.74,112.72,346.39,108.14Z"/><path d="M365.52,71.87a1,1,0,0,0-1.23-.7,1,1,0,0,0-.7,1.23,25.93,25.93,0,0,1,1.76,11.43c-.1,1.28,1.9,1.28,2,0A27.44,27.44,0,0,0,365.52,71.87Z"/><path d="M366.75,94.88a1,1,0,0,0-1,1l-.71,5.65a1,1,0,0,0,1,1,1,1,0,0,0,1-1l.71-5.65A1,1,0,0,0,366.75,94.88Z"/><path class="cls-17" d="M188.19,58.33A62.16,62.16,0,0,0,176.09,51a32.66,32.66,0,0,0-8.53-2.94c-3.19-.57-6.13.31-9.21.09-4.77-.35-6.5,7-7.66,10.62-2.11,6.53-3.35,13.31-6.9,19.29-1.44,2.42-2.2,6.21.66,8,2.06,1.28,4.69,1.08,7.07.65,9.85-1.79,18.84-6.65,27.63-11.44l8.42-4.58c1.83-1,3.81-2.16,4.53-4.12A5.91,5.91,0,0,0,190.84,61,19.55,19.55,0,0,0,188.19,58.33Z"/><path class="cls-18" d="M156.43,51.33a8.12,8.12,0,0,0,0-3.92c-2.76.74-3.7,3.69-4.34,6.15q-2.16,8.31-5,16.41c-1.17,3.28-7.1,12.74-3,15.41a8.1,8.1,0,0,0,5,.84,49.77,49.77,0,0,0,7.77-1.09c2.9-.64,5.74-1.06,8.41-2.5a8.6,8.6,0,0,0,2.54-1.93c4.56-5.43-5.63-11.07-8.3-15.25a19.51,19.51,0,0,1-3.27-12.73C156.27,52.26,156.35,51.79,156.43,51.33Z"/><path d="M156,54.06a.8.8,0,0,0-1,.55,32.5,32.5,0,0,0-1.7,5.34.78.78,0,1,0,1.51.42,32.31,32.31,0,0,1,1.7-5.35A.79.79,0,0,0,156,54.06Z"/><path d="M151.66,66.77a39.19,39.19,0,0,0-2.45,11.41c-.06,1,1.51,1,1.57,0a38.06,38.06,0,0,1,2.39-11C153.53,66.25,152,65.84,151.66,66.77Z"/><path d="M192.36,61.76a1.24,1.24,0,0,0-.3-.75,44.29,44.29,0,0,0-25-14.09,43.08,43.08,0,0,0-7.34-.74c-2.16,0-5-.34-6.38,1.7a23.9,23.9,0,0,0-1.72,3.7q-.87,2-1.68,4.08c-1.07,2.71-2.08,5.45-3,8.22a162.39,162.39,0,0,0-5.1,18.79,1.11,1.11,0,0,0,.23,1,1.31,1.31,0,0,0-.17,2.17c3.27,2.47,7.62,2.18,11.41,1.34a80.57,80.57,0,0,0,13.28-4.44c4.32-1.8,8.54-3.84,12.72-6,3.61-1.83,7.72-3.47,10.7-6.3C192.31,68.3,193.89,64.53,192.36,61.76Zm-2,4.05a8.11,8.11,0,0,1-2.91,3.74c-2.92,2.27-6.55,3.76-9.83,5.41-7.47,3.77-15.11,7.31-23.22,9.48-3.55,1-7.71,1.74-10.95-.42a1,1,0,0,0,.68-.81A160.37,160.37,0,0,1,154,52a10.74,10.74,0,0,1,1.42-3c.66-.73,2.57-.49,3.47-.5a39.81,39.81,0,0,1,6.72.53,42.56,42.56,0,0,1,12.79,4.26,41.77,41.77,0,0,1,10.8,8.1,1.16,1.16,0,0,0,.48.74C190.81,63,190.77,64.64,190.4,65.81Z"/></svg>