<svg id="Headwear" xmlns="http://www.w3.org/2000/svg" viewBox="0 0 500 500"><defs><style>.cls-1{fill:#dddcdb;}.cls-2{fill:#ff5a4c;}.cls-3{fill:#f44940;}.cls-4{fill:#e53c38;}.cls-5{fill:#fcfbfa;}.cls-6{fill:#bcbcbc;}.cls-7{fill:#f0efee;}</style></defs><path class="cls-1" d="M75.5,184.32c-6.55,5.14-13.21,9.23-16.68,17.19-9.36,21.51,3,40.29,15.79,57,7.46,9.78,15.74,19.28,26.18,25.92a71.75,71.75,0,0,1-3.28-7.68A112.17,112.17,0,0,1,93.78,264l-3.74.77c-2.21.46-3.14-2.92-.93-3.37l3.83-.8c-.07-.34-.13-.69-.2-1h.13a98.05,98.05,0,0,1-1.36-19.86l-6.14-.49c-2.24-.19-2.25-3.69,0-3.5l6.29.51c.31-5.36,1-10.68,1.8-16-1.14-.2-2.3-.4-3.45-.58a1.76,1.76,0,0,1-1.22-2.15,1.8,1.8,0,0,1,2.15-1.22q1.55.24,3.09.51c.86-5.06,1.86-10.14,2.87-15.3,2.74-13.9,9.5-27.44,15-40.42.57-1.32,1.15-2.6,1.75-3.86-4.18,2.92-8.19,6.1-12.53,9C92.43,172,83.75,177.85,75.5,184.32Z"/><path class="cls-1" d="M394.53,249.84c-.6-.91-1.22-1.8-1.83-2.7a138.83,138.83,0,0,1-3.25,14.73c-4.31,15.33-14.09,28.75-21.62,43l12.21-4c8-2.64,16.55-4.86,23.74-9.48a29,29,0,0,0,7.4-6.76v-4.17a1.73,1.73,0,0,1-.15-.27A208.88,208.88,0,0,0,394.53,249.84Z"/><path class="cls-2" d="M408.67,200.15a301,301,0,0,0-10.39-35,99,99,0,0,0-7.67-16.23c-15.11-25.21-35.14-46.7-61.79-60.23C315.41,81.84,302,77.19,287.5,72.9c-11.83-3.49-24.23-4.8-36.41-6.43a144.71,144.71,0,0,0-70.5,8A261.68,261.68,0,0,0,150,89.08c-10.11,5.5-19.34,12.49-28.09,19.93a231.27,231.27,0,0,0-26.65,26.74,224,224,0,0,0-21.75,30.59,216.4,216.4,0,0,0-13.64,27.29c4.75-5,10.52-9.07,15.87-13.26,7.79-6.08,15.67-12.06,23.81-17.65,4.41-3,8.73-6.17,13.27-9s9.24-4.81,14-7.1c10-4.83,20.31-8,31.1-10.54,16.42-3.94,33.53-3.93,50.24-2.38,5.3.49,10.59.95,15.88,1.55,20,2.25,38.56,7.85,57.11,15.38A190.84,190.84,0,0,1,310.62,166c6.48,4,12.71,8.45,18.86,13,9,6.65,17.44,13.06,25.55,20.79a367.7,367.7,0,0,1,25.52,26.56c4.36,5.09,8.51,9.78,12.61,15.1,2.88,3.73,4.3,7.26,6.41,11.3,2.5,4.8,5,9.64,7.59,14.38,2.2,4,3.85,8.61,7,12.09.75.82,1.78-5,2-6.6,0-.18,0-.31,0-.38.1-3.58.08-7.23.1-10.82a221.25,221.25,0,0,0-1.21-24.69A280.44,280.44,0,0,0,408.67,200.15Z"/><path class="cls-3" d="M415.08,236.67a280.44,280.44,0,0,0-6.41-36.52,301,301,0,0,0-10.39-35,99,99,0,0,0-7.67-16.23c-15.11-25.21-35.14-46.7-61.79-60.23C315.41,81.84,302,77.19,287.5,72.9c-11.83-3.49-24.23-4.8-36.41-6.43a144.71,144.71,0,0,0-70.5,8A261.68,261.68,0,0,0,150,89.08c-10.11,5.5-19.34,12.49-28.09,19.93a231.27,231.27,0,0,0-26.65,26.74,224,224,0,0,0-21.75,30.59,216.4,216.4,0,0,0-13.64,27.29c4.75-5,10.52-9.07,15.87-13.26s11-8.45,16.55-12.51a3.68,3.68,0,0,1,.3-4.15c18.4-23.69,40.4-45,66.16-60.57,22-13.29,46.83-22.2,72.65-23a132.41,132.41,0,0,1,69.29,17.17A134.54,134.54,0,0,1,351,147.67c12.25,21.62,30.37,45.64,25.29,72a3.34,3.34,0,0,1-.49,1.23q2.43,2.69,4.8,5.43c4.36,5.09,8.51,9.78,12.61,15.1,2.88,3.73,4.3,7.26,6.41,11.3,2.5,4.8,5,9.64,7.59,14.38,2.2,4,3.85,8.61,7,12.09.75.82,1.78-5,2-6.6,0-.18,0-.31,0-.38.1-3.58.08-7.23.1-10.82A221.25,221.25,0,0,0,415.08,236.67Z"/><path class="cls-4" d="M407.45,257.21c-.67-1.27-1.35-2.52-2-3.76a183.56,183.56,0,0,0-15.66-24.24c-11.72-15.51-25.32-29.48-38.88-43.36-8.15-8.34-17.25-15.49-25.43-23.66-8.42-8.4-22.35-12.89-33.15-17.32C256,130,218.43,120.8,178.91,123.86c-21,1.63-42.18,12.7-60.65,22-10.75,5.42-21.44,11.09-31.09,18.3a171.87,171.87,0,0,0-17.13,15c-5,4.85-7.43,8.08-10.06,14.22,5-4.66,10.34-8.81,15.73-13,7.79-6.08,15.67-12.06,23.81-17.65,4.41-3,8.73-6.17,13.27-9s9.24-4.81,14-7.1c10-4.83,20.31-8,31.1-10.54,16.42-3.94,33.53-3.93,50.24-2.38,5.3.49,10.59.95,15.88,1.55,20,2.25,38.56,7.85,57.11,15.38A190.84,190.84,0,0,1,310.62,166c6.48,4,12.71,8.45,18.86,13,9,6.65,17.44,13.06,25.55,20.79a367.7,367.7,0,0,1,25.52,26.56c4.36,5.09,8.51,9.78,12.61,15.1,2.88,3.73,4.3,7.26,6.41,11.3,2.5,4.8,5,9.64,7.59,14.38,2.16,4,3.8,8.45,6.85,11.9-1.89-2.14-1.63-10.58-2.78-13.66A73.05,73.05,0,0,0,407.45,257.21Z"/><path class="cls-5" d="M254.7,83.2a27.54,27.54,0,0,0-11.62-6.31,30.82,30.82,0,0,0-14.29.27c-7.3,1.76-12.72,5.8-14.44,13.27a20.46,20.46,0,0,0,5.1,18.75c8.4,8.76,22.9,7.74,32.41,1.27,6-4.12,10-11.82,8.09-19.14A17.2,17.2,0,0,0,254.7,83.2Z"/><path class="cls-5" d="M330.26,172.93a8.56,8.56,0,0,0,.44-.91c3.32-8.11-2.07-18.13-8.86-22.55-6.18-4-16.18-4.23-22.7-.94-3.06,1.54-7.57,5.42-5.81,9.39,1.34,3,8.43,5.59,11.16,7a3.76,3.76,0,0,0,1.14.36C310.3,168.82,325.44,181.59,330.26,172.93Z"/><path class="cls-5" d="M401.72,170.4c-.78-2.25-1.77-4.52-2.32-6.4a48.75,48.75,0,0,0-2.84-8,48.26,48.26,0,0,0-3.61-5.9,141.26,141.26,0,0,1-10.41-17.87,9,9,0,0,0-2.72-3.67c-6.25-4.32-14.49,9.4-16.28,13.71a29.12,29.12,0,0,0,.25,23.29c6,12.9,21.8,19.13,35.14,15.06C403.92,179.12,403.23,174.78,401.72,170.4Z"/><path class="cls-5" d="M325.16,85.53c-.75-2.39-3.45-3.07-5.77-3.82-2.58-.83-4.7-3.2-7.62-2.74a5,5,0,0,0-3.94,3.51,2.48,2.48,0,0,0-.51,1.16c-.88,6.11,1.72,12.45,8.14,14.15a9.75,9.75,0,0,0,12.18-8.92A3.48,3.48,0,0,0,325.16,85.53Z"/><path class="cls-5" d="M179.92,104.7a10.56,10.56,0,0,0-3.38-1.06,3.35,3.35,0,0,0-1.6-.29c-4.59.26-9.23,2-9.81,7.18-.53,4.73,3,8.6,7.36,9.85s9.51-.31,11.61-4.54S184.06,106.81,179.92,104.7Z"/><path class="cls-5" d="M125.32,108.28c-1.74-1.94-4.56-1-5.59,1a4.5,4.5,0,0,0-1.11.67l-12.31,10.16a2.83,2.83,0,0,0-1.08,3,3.87,3.87,0,0,0,.2,5.94c5.44,4,13.88,1,18.45-3.06C129.08,121.41,130.05,113.54,125.32,108.28Z"/><path class="cls-5" d="M106.3,155.87a11.86,11.86,0,0,0-5.65-5.18c-4.61-1.84-11.39-1.79-15.45,1.37-5,3.86-9.75,13.95-5.91,19.87,3.73,5.74,11.06.52,14.92-2.25C97.81,167.1,109.16,161.45,106.3,155.87Z"/><path class="cls-5" d="M406.88,218.06a8,8,0,0,0-6.46-1.83,4.54,4.54,0,0,0-2.3.37,9.85,9.85,0,0,0-6.22,9c.08,4.4,3.34,7.34,7.43,8.28s8.59.24,10.13-4.3C410.79,225.69,410.11,220.84,406.88,218.06Z"/><path class="cls-1" d="M260,91.31a13.78,13.78,0,0,0-1.59-3.69c.3,5.7-3.78,11.76-8.18,15a30.15,30.15,0,0,1-17.35,5.43c-8.36.12-15.67-3.46-18.72-9.61a20.32,20.32,0,0,0,5.34,10.72c8.4,8.76,22.9,7.74,32.41,1.27C257.9,106.33,261.82,98.63,260,91.31Z"/><path class="cls-1" d="M330.32,160a9.39,9.39,0,0,1-6.16,5.86c-5.65,2.14-13.62.72-18.18-3l-1.81-.68a3.77,3.77,0,0,1-.6-.31c-3.77-.21-7.44-1.12-9.95-3.46,1.87,2.81,8.3,5.15,10.87,6.48a3.76,3.76,0,0,0,1.14.36c4.67,3.53,19.81,16.3,24.63,7.64a8.56,8.56,0,0,0,.44-.91A16,16,0,0,0,330.32,160Z"/><path class="cls-1" d="M401.29,169.23c-7,4.86-16.91,2.33-24.14-.93-5.9-2.65-13.09-7.24-15.89-13.58a27.86,27.86,0,0,0,2.53,10.84c6,12.9,21.8,19.13,35.14,15.06,5-1.5,4.3-5.84,2.79-10.22C401.58,170,401.44,169.62,401.29,169.23Z"/><path class="cls-1" d="M325.16,85.53c-.75-2.39-3.45-3.07-5.77-3.82-2-.63-3.65-2.14-5.63-2.64a3.88,3.88,0,0,1,.65,1.2,3.56,3.56,0,0,1-2.45,4.3c-1.59.52-3.21.9-4.8,1.41h0c0,5.31,2.7,10.33,8.3,11.81a9.75,9.75,0,0,0,12.18-8.92A3.48,3.48,0,0,0,325.16,85.53Z"/><path class="cls-1" d="M174.68,117.85c-4.24,0-8.17-2.08-9.55-5.5.42,3.89,3.56,6.94,7.36,8,4.38,1.25,9.51-.31,11.61-4.54a8,8,0,0,0,.79-2.68A13.75,13.75,0,0,1,174.68,117.85Z"/><path class="cls-1" d="M104.89,123.51a3.82,3.82,0,0,0,.54,5.57c5.44,4,13.88,1,18.45-3.06a12.88,12.88,0,0,0,4-13C125,122.7,114.88,128.78,104.89,123.51Z"/><path class="cls-1" d="M106.3,155.87a10.89,10.89,0,0,0-2.07-2.73c-4.22,9-16.77,15.39-26.33,13.67a9.27,9.27,0,0,0,1.39,5.12c3.73,5.74,11.06.52,14.92-2.25C97.81,167.1,109.16,161.45,106.3,155.87Z"/><path class="cls-1" d="M392.19,227.66c.89,3.26,3.72,5.44,7.14,6.23,4.17,1,8.59.24,10.13-4.3a12,12,0,0,0,.39-6.3C405.55,228.65,396.62,231.76,392.19,227.66Z"/><path class="cls-6" d="M115,158a11.51,11.51,0,0,0,1.61-4.22c-13.9,8.21-26.22,19-39.3,28.46-8.76,6.33-18.86,13.71-21.75,24.73-3.35,12.78,2.44,27.27,9.07,38,2.64,6,6.54,10.51,10,15.87,1.31,2,3.12,4.06,5.52,4.19-1.64-12.88-8.92-23.78-4.27-37,2.73-7.76,8.25-12.07,14.37-17.07,6.29-5.15,8.6-10.54,10.52-18.31a120.67,120.67,0,0,1,13.47-33.4C114.49,158.79,114.74,158.38,115,158Z"/><path class="cls-6" d="M404.82,267.51a116.35,116.35,0,0,1-5.45-12.24c-.41-1.1-7-11-7.28-10.34-2.82,6.33-3.28,12.39-5.74,18.74-2.37,6.12-8.19,13.49-7.48,20.26,3.67-.83,7.68-1.57,11.36-.4,4.33,1.38,7.29,5.19,11.33,7.05,4.4,2,11-2.53,11.39-7C413.42,277.61,407.28,272.42,404.82,267.51Z"/><path d="M412.54,203.55a328.71,328.71,0,0,0-10.12-35.77,119.26,119.26,0,0,0-7-16.43c-4.95-9.38-11.82-18.8-18-27.55-6.46-9.15-14-17.88-23.65-23.79-8.34-5.12-16-11.23-24.82-15.64a163.82,163.82,0,0,0-21.94-8.69C285,68.4,262.22,63,239,62.21c-29.71-1-58.1,5.27-83.92,19.91A230.71,230.71,0,0,0,73.23,161,219.91,219.91,0,0,0,56,195.16c-.26.63-.49,1.27-.74,1.91a1.69,1.69,0,0,0-.23.42c-.16.43-.29.86-.43,1.29l-.3.76a1.62,1.62,0,0,0-.09.4,52.5,52.5,0,0,0,4.23,40.2c3.41,6.34,7.76,12.13,12.07,17.87a176.83,176.83,0,0,0,13.39,16.16A79.76,79.76,0,0,0,102,288.67a1.39,1.39,0,0,0,1.14.14,89.9,89.9,0,0,0,6.35,9.51c.12.15.23.3.35.44.84-.62,1.68-1.23,2.51-1.87a112.51,112.51,0,0,1-9-14.46,77.5,77.5,0,0,1-8.49-29.69c-.26-3.84-.42-7.69-.57-11.53a100.59,100.59,0,0,1,.91-16.53,164.69,164.69,0,0,1,3.39-18.57,227.42,227.42,0,0,1,11.81-35.2c.61-1.44,1.57-2.68,2.19-4.15a97.39,97.39,0,0,1,4.44-9.14c.72-1.33,1.47-2.65,2.2-4A49.23,49.23,0,0,1,126,150.3c19.7-7.75,40.8-14.52,62.34-14.72,22.13-.2,43.52,3.72,64.84,9.43q5.82,1.56,11.53,3.49c13.31,4.5,25.93,10.81,38.35,17.33,9.35,4.91,18,11,26.48,17.23s15.74,14,23.94,20.79a208.87,208.87,0,0,1,20.41,19.5c5.27,5.77,10.56,11.25,13.94,18.39,3,6.43-1.34,16.39-3.66,22.78-5.7,15.69-13.9,31-22.35,45.37,1.09-.17,2.2-.34,3.31-.54a3.42,3.42,0,0,1,.44,0c.11-.21.2-.43.31-.64,9.17-3,18.43-5.79,27.5-9.07,9.3-3.37,21.95-9.49,24.94-19.65,3.08-10.5,1.2-21.91.58-32.62A267.47,267.47,0,0,0,412.54,203.55Zm-300.6-42.5c-5.54,13-12.3,26.52-15,40.42-1,5.16-2,10.24-2.87,15.3q-1.55-.27-3.09-.51a1.8,1.8,0,0,0-2.15,1.22A1.76,1.76,0,0,0,90,219.63c1.15.18,2.31.38,3.45.58-.83,5.33-1.49,10.65-1.8,16l-6.29-.51c-2.25-.19-2.24,3.31,0,3.5l6.14.49a98.05,98.05,0,0,0,1.36,19.86h-.13c.07.35.13.7.2,1l-3.83.8c-2.21.45-1.28,3.83.93,3.37l3.74-.77a112.17,112.17,0,0,0,3.73,12.74,71.75,71.75,0,0,0,3.28,7.68c-10.44-6.64-18.72-16.14-26.18-25.92-12.74-16.71-25.15-35.49-15.79-57,3.47-8,10.13-12,16.68-17.19,8.25-6.47,16.93-12.35,25.66-18.15,4.34-2.88,8.35-6.06,12.53-9C113.09,158.45,112.51,159.73,111.94,161.05ZM411.18,280.54v4.12a29,29,0,0,1-7.4,6.76c-7.19,4.62-15.7,6.84-23.74,9.48l-12.21,4c7.53-14.27,17.31-27.69,21.62-43a138.83,138.83,0,0,0,3.25-14.73c.61.9,1.23,1.79,1.83,2.7A208.88,208.88,0,0,1,411,280.22a1.73,1.73,0,0,0,.15.27Zm5-8.36c0,.07,0,.2,0,.38-.21,1.64-1.24,7.42-2,6.6-3.15-3.48-4.8-8.05-7-12.09-2.58-4.74-5.09-9.58-7.59-14.38-2.11-4-3.53-7.57-6.41-11.3-4.1-5.32-8.25-10-12.61-15.1A367.7,367.7,0,0,0,355,199.73c-8.11-7.73-16.54-14.14-25.55-20.79-6.15-4.54-12.38-9-18.86-13a190.84,190.84,0,0,0-29.52-15.33C262.55,143.09,244,137.49,224,135.24c-5.29-.6-10.58-1.06-15.88-1.55-16.71-1.55-33.82-1.56-50.24,2.38-10.79,2.58-21.06,5.71-31.1,10.54-4.74,2.29-9.48,4.29-14,7.1s-8.86,6-13.27,9c-8.14,5.59-16,11.57-23.81,17.65-5.35,4.19-11.12,8.28-15.87,13.26a216.4,216.4,0,0,1,13.64-27.29,224,224,0,0,1,21.75-30.59A231.27,231.27,0,0,1,121.88,109c8.75-7.44,18-14.43,28.09-19.93a261.68,261.68,0,0,1,30.62-14.6,144.71,144.71,0,0,1,70.5-8c12.18,1.63,24.58,2.94,36.41,6.43,14.51,4.29,27.91,8.94,41.32,15.75,26.65,13.53,46.68,35,61.79,60.23a99,99,0,0,1,7.67,16.23,301,301,0,0,1,10.39,35,280.44,280.44,0,0,1,6.41,36.52,221.25,221.25,0,0,1,1.21,24.69C416.27,265,416.29,268.6,416.19,272.18Z"/><path class="cls-7" d="M363.34,104.09a3.63,3.63,0,0,0-.49-1.56,43.55,43.55,0,0,0-.73-10.83c-.43-6.71-2.27-16.39-8.1-18-.47-1.31-.95-2.61-1.46-3.91-.73-1.86-3.15-3.58-5.14-2.09-3,2.22-6.32,3.14-9.7,4.48A41.58,41.58,0,0,0,328,77.91c-6.54,5-12.94,9.42-20.42,12.87a2.84,2.84,0,0,0-1.65,2.13c-4,2.79-5.85,7.55-3.93,12.23a4.44,4.44,0,0,0,2.53,2.33c1.61,4.6,5.88,8.48,9.25,11.86a118,118,0,0,0,12.78,11.06c9,6.8,18.94,11.8,30.25,13.05a2.84,2.84,0,0,0,2.56-.89,3,3,0,0,0,1.49-2.09A121.78,121.78,0,0,0,363.34,104.09Z"/><path class="cls-1" d="M357.67,77.05a3.35,3.35,0,0,0-3-2.42c.08-.72.16-1.44.22-2.16.41-4.48-6.59-4.46-7,0a90.22,90.22,0,0,1-19.46,47.94c-1.89,2.4-3.07,4.27-1.93,7.4a16.89,16.89,0,0,0,5.81,7.1c4.15,3.15,9,4.53,14.05,5.23a13.16,13.16,0,0,0,5,1.89c.34.24.68.46,1,.73a2.66,2.66,0,0,0,2,.52c1.78.74,4,.24,4.47-2.2q1.54-7.62,3.33-15.19a3.31,3.31,0,0,0-.6-2.9A103.94,103.94,0,0,0,357.67,77.05Z"/><path d="M359.88,79.21A58.89,58.89,0,0,0,351,64.67a1.51,1.51,0,0,0-1.81-.23L326.62,77.58c-6.55,3.81-13.27,7.44-19.2,12.18-4.36,3.48-10.74,8.21-7.62,14.3a59.51,59.51,0,0,0,14.11,17.54c8.36,7.36,17,15,27.33,19.49a44.2,44.2,0,0,0,17.81,4,1.36,1.36,0,0,0,1.36-1,1.09,1.09,0,0,0,.16-.38C366.25,122.68,368.68,99.78,359.88,79.21Zm-29.52,52c-4.35-3.14-8.41-6.64-12.46-10.15a80.73,80.73,0,0,1-10-9.77c-2.91-3.56-5.13-7.73-5.5-12.33,4-5.25,9.5-9.16,15.1-12.6,6.78-4.16,13.73-8.05,20.61-12.06l11.45-6.66c12.66,15.9,14.88,37.45,12,57a156.5,156.5,0,0,1-3.67,17.38C347.78,141.75,338.46,137.09,330.36,131.25Z"/><path d="M94.1,186.72a167.92,167.92,0,0,0-16.92,4.92c-4.91,1.72-10.15,3.43-14,7-.94.87.47,2.29,1.42,1.41,3.84-3.55,9.2-5.16,14-6.82a165.39,165.39,0,0,1,16-4.61C95.88,188.36,95.35,186.43,94.1,186.72Z"/><path d="M93,200.45a83.5,83.5,0,0,0-30,15.36c-1,.8.42,2.21,1.42,1.41a81.17,81.17,0,0,1,29.12-14.84A1,1,0,0,0,93,200.45Z"/><path d="M87.33,219.69c-7.9,2.55-13.24,9.24-18.13,15.58-.78,1,1,2,1.73,1,4.54-5.89,9.58-12.29,16.94-14.66C89.09,221.22,88.56,219.29,87.33,219.69Z"/><path d="M82.66,242a1,1,0,0,0-1.42,0,20.75,20.75,0,0,0-4.4,7.59,1,1,0,0,0,.7,1.23,1,1,0,0,0,1.23-.7,18.56,18.56,0,0,1,3.89-6.71A1,1,0,0,0,82.66,242Z"/><path d="M400.52,264.06a10.18,10.18,0,0,0-9.11-4.29,1,1,0,0,0-1,1,1,1,0,0,0,1,1,8.19,8.19,0,0,1,7.38,3.3,1,1,0,0,0,1.37.36A1,1,0,0,0,400.52,264.06Z"/><path d="M390.51,271.76a1,1,0,0,0-1,1.73,22.36,22.36,0,0,1,10.9,15.07c.25,1.26,2.18.73,1.93-.53A24.33,24.33,0,0,0,390.51,271.76Z"/><path d="M387.2,292.86a33.45,33.45,0,0,0-2.87-7.73,1,1,0,1,0-1.72,1,32.19,32.19,0,0,1,2.67,7.25,1,1,0,1,0,1.92-.53Z"/><path d="M357.4,88.44a1,1,0,0,0-1.23-.7,1,1,0,0,0-.69,1.23,20.24,20.24,0,0,1,1.37,9.91,1,1,0,0,0,1,1,1,1,0,0,0,1-1A21.41,21.41,0,0,0,357.4,88.44Z"/><path d="M357.71,109.05a98.38,98.38,0,0,1-2,20c-.26,1.26,1.66,1.8,1.93.53a100.76,100.76,0,0,0,2.09-20.57A1,1,0,0,0,357.71,109.05Z"/><path d="M154.84,56.67a1,1,0,0,0-1.36.35q-1.59,3.36-3.16,6.71a1,1,0,0,0,.36,1.37,1,1,0,0,0,1.37-.36L155.2,58A1,1,0,0,0,154.84,56.67Z"/><path d="M148.76,70.39l-3.12,10.89a1,1,0,0,0,1.93.53l3.12-10.89A1,1,0,0,0,148.76,70.39Z"/><path d="M118.15,120.53a1,1,0,0,0-1.37-.36,88.53,88.53,0,0,0-13.31,11.91c-.87.95.54,2.37,1.41,1.41a86.58,86.58,0,0,1,12.91-11.59A1,1,0,0,0,118.15,120.53Z"/><path d="M96.33,140.15a1,1,0,0,0-1.37.36l-5.63,7.92a1,1,0,0,0,.36,1.37,1,1,0,0,0,1.37-.36l5.63-7.92A1,1,0,0,0,96.33,140.15Z"/><path d="M401.43,181.81A79.85,79.85,0,0,0,390,160.54c-.76-1-2.5,0-1.72,1a78.37,78.37,0,0,1,11.27,20.8C399.94,183.55,401.87,183,401.43,181.81Z"/><path d="M406.33,204.78l-2.58-8.3c-.38-1.23-2.31-.7-1.93.53l2.58,8.3C404.78,206.54,406.71,206,406.33,204.78Z"/><path d="M411.2,246.2q-2.46-11.44-4.65-22.94c-.24-1.26-2.17-.73-1.93.53q2.19,11.51,4.65,22.94C409.54,248,411.47,247.46,411.2,246.2Z"/><path d="M405.25,241.3q-.4-2.84-.79-5.65a1,1,0,0,0-1.23-.69,1,1,0,0,0-.7,1.23q.39,2.82.79,5.64a1,1,0,0,0,1.23.7A1,1,0,0,0,405.25,241.3Z"/><path class="cls-7" d="M195,62.68c-4.54-3.82-10.74-7-15.41-9.34a42,42,0,0,0-10.89-3.74c-4.06-.73-7.8.4-11.73.11-6.08-.45-8.28,8.95-9.76,13.54-2.69,8.32-4.26,17-8.79,24.58-1.84,3.09-2.81,7.91.84,10.19,2.62,1.64,6,1.38,9,.83,12.56-2.27,24-8.46,35.22-14.57l10.72-5.84c2.34-1.28,4.86-2.76,5.78-5.26s0-5.14-1.61-7.12A25.09,25.09,0,0,0,195,62.68Z"/><path class="cls-1" d="M154.55,53.75a10.39,10.39,0,0,0,0-5c-3.51.94-4.71,4.71-5.53,7.84-1.84,7-4,14-6.39,20.9-1.48,4.18-9,16.25-3.79,19.65,1.84,1.18,4.17,1.2,6.35,1.07a63.47,63.47,0,0,0,9.89-1.39c3.7-.82,7.32-1.36,10.72-3.19A10.87,10.87,0,0,0,169,91.18c5.81-6.92-7.18-14.11-10.58-19.44-3.06-4.8-4.9-10.57-4.16-16.22C154.34,54.94,154.45,54.34,154.55,53.75Z"/><path d="M154,57.23a1,1,0,0,0-1.23.7,41.81,41.81,0,0,0-2.17,6.81,1,1,0,0,0,1.93.54,41,41,0,0,1,2.17-6.82A1,1,0,0,0,154,57.23Z"/><path d="M148.46,73.44A49.91,49.91,0,0,0,145.35,88c-.08,1.29,1.92,1.28,2,0a48.05,48.05,0,0,1,3-14C150.85,72.76,148.92,72.24,148.46,73.44Z"/><path d="M200.34,67.05a1.47,1.47,0,0,0-.39-1,56.3,56.3,0,0,0-41.16-18.91c-2.76,0-6.4-.43-8.13,2.17a28.8,28.8,0,0,0-2.19,4.71c-.74,1.72-1.45,3.46-2.14,5.2-1.37,3.46-2.66,6.95-3.84,10.48A206.38,206.38,0,0,0,136,93.69a1.38,1.38,0,0,0,.29,1.23,1.66,1.66,0,0,0-.22,2.76c4.16,3.15,9.71,2.79,14.54,1.71a101,101,0,0,0,16.92-5.66c5.51-2.3,10.88-4.89,16.21-7.58,4.61-2.33,9.85-4.42,13.64-8C200.27,75.38,202.29,70.57,200.34,67.05Zm-2.5,5.15A10.33,10.33,0,0,1,194.13,77c-3.72,2.89-8.35,4.79-12.53,6.89C172.08,88.67,162.35,93.18,152,96c-4.52,1.21-9.83,2.22-14-.54a1.32,1.32,0,0,0,.87-1,205.17,205.17,0,0,1,12.56-39.75c.52-1.19.93-2.84,1.81-3.82s3.28-.62,4.43-.63a50.19,50.19,0,0,1,8.57.67,54.28,54.28,0,0,1,16.29,5.42A53,53,0,0,1,196.34,66.6a1.5,1.5,0,0,0,.62.94C198.37,68.57,198.31,70.71,197.84,72.2Z"/></svg>