<svg id="Headwear" xmlns="http://www.w3.org/2000/svg" viewBox="0 0 500 500"><defs><style>.cls-1{fill:#fcfbfa;}.cls-2{fill:#666;}.cls-3{fill:#333;}.cls-4{fill:#dddcdb;}.cls-5{fill:#4d4d4d;}.cls-6{fill:#1a1a1a;}.cls-7{fill:#eae9e8;}.cls-8{fill:#d8d7d6;}.cls-9{fill:#fff;}</style></defs><path class="cls-1" d="M393.23,183c-2.11-17-8.06-33-16.46-48.69-2-3.67-3.71-7.52-6.36-10.74-5.34-6.5-9.48-13.82-15.52-19.81-3.62-3.6-8.79-5.15-12.92-8.17-2.43-1.76-4.46-4-6.74-6C331,86,326.3,84.15,321.1,82.4c-4.69-1.58-9-4.1-13.74-5.82a159.66,159.66,0,0,0-18.82-5.19c-11.32-2.64-22.68-5.28-34.23-6.65-25.85-3.07-51.57,1-76.1,9.08a84.68,84.68,0,0,0-13.1,5.73,117.59,117.59,0,0,0-26.27,19.06c-7.7,7.41-15,15.79-20.32,25.1-1.93,3.4-3.72,6.87-5.51,10.35-1.36,2.64-2.72,5.28-3.81,8a90.86,90.86,0,0,0-3.46,11.59c-2.69,10.67-6.12,21-9.06,31.62-.58,2.09-1.14,4.39-.23,6.36a2.63,2.63,0,0,0,2.09,1.67c1.27.06,2.2-1.18,2.72-2.34,1.56-3.45,1.41-7.17,2.87-10.73a74.51,74.51,0,0,1,6.36-12.17,71.29,71.29,0,0,1,29.82-26c31.18-14.35,68.59-9.37,101.23-3.64C260,141.68,277.2,146.75,293,157c10.22,6.66,20.09,12.16,28.74,21a105,105,0,0,1,29.22,60.76q.57,4.88.68,9.8a112.73,112.73,0,0,1-5.26,36.83c-2.33,7.3-5.14,14.57-9.26,21.07s-8.8,10.47-15.24,14.33q-6.51,3.9-13.3,7.3a215.21,215.21,0,0,1-54.85,18.24c-9,1.77-17.94,2.33-26.89,3.79a122.4,122.4,0,0,1-28.67,1.53c-15.47-1.15-28.15-7.3-41.77-14.17-2.67-1.35-5.23-2.9-7.82-4.4-1.26-.73-2.52-1.46-3.81-2.15a12.41,12.41,0,0,1-2.39-1.41c-.64-.55-1-1.15-1.81-1.5a.93.93,0,0,0-.73-.05c-.48.23-.31.94-.07,1.42,2.93,5.77,6.36,11.51,11.35,15.74,2.54,2.15,5.93,3.59,8.91,5,3.23,1.56,6.54,3,9.89,4.26,5.11,2,10.33,3.64,15.6,5.13,45.47,12.82,91.6,2.21,135.05-13.65,7.76-2.83,15.51-5.86,22.48-10.29,5-3.18,10.81-7.3,13.69-12.64,3-5.59,5.26-11.75,8.38-17.49,7.19-13.26,14-26.82,19.11-41a125.7,125.7,0,0,0,6.45-30.15c1-9.35,2.13-18.57,3-27.87A110.49,110.49,0,0,0,393.23,183Z"/><path class="cls-2" d="M367.82,290.58l-8,5.28a4.18,4.18,0,0,1-2.17.89c-.79,0-1.64-.65-1.53-1.43-1.59,1.93-4.13,4.06-6.27,2.75-3.14-1.91,0-7.8-2.81-10.16-1.44.78-2.19,2.38-2.85,3.88-5.41,12.19-10.51,22-22.33,29q-6.51,3.9-13.3,7.3a215.21,215.21,0,0,1-54.85,18.24c-9,1.77-17.94,2.33-26.89,3.79a122.4,122.4,0,0,1-28.67,1.53c-15.47-1.15-28.15-7.3-41.77-14.17-2.67-1.35-5.23-2.9-7.82-4.4-1.26-.73-2.52-1.46-3.81-2.15a12.41,12.41,0,0,1-2.39-1.41c-.64-.55-1-1.15-1.81-1.5a.93.93,0,0,0-.73-.05c-.48.23-.31.94-.07,1.42,2.93,5.77,6.36,11.51,11.35,15.74,2.54,2.15,5.93,3.59,8.91,5,3.23,1.56,6.54,3,9.89,4.26,5.11,2,10.33,3.64,15.6,5.13,45.47,12.82,91.6,2.21,135.05-13.65,7.76-2.83,15.51-5.86,22.48-10.29,5-3.18,10.81-7.3,13.69-12.64,5.48-10.2,10.49-20.38,17.42-29.74l-3.62,2.32a2.28,2.28,0,0,1-1.34.49c-1-.1-1.36-1.47-1.21-2.5S368.45,291.4,367.82,290.58Z"/><path class="cls-3" d="M329.15,317.36a5.6,5.6,0,0,1-1-.87,56.34,56.34,0,0,1-6.34,4.35q-6.51,3.9-13.3,7.3a215.21,215.21,0,0,1-54.85,18.24c-9,1.77-17.94,2.33-26.89,3.79a122.4,122.4,0,0,1-28.67,1.53c-15.47-1.15-28.15-7.3-41.77-14.17-2.67-1.35-5.23-2.9-7.82-4.4-1.26-.73-2.52-1.46-3.81-2.15a12.41,12.41,0,0,1-2.39-1.41c-.64-.55-1-1.15-1.81-1.5a.93.93,0,0,0-.73-.05c-.48.23-.31.94-.07,1.42l.88,1.7a4.78,4.78,0,0,1,3.22,1.39,94.59,94.59,0,0,0,31.83,19.37c13.3,1.17,26,5.93,39.11,7.66a207,207,0,0,0,23.74-.7c10.38-1.78,20.32-5.1,30.57-8.42,11.82-3.83,23.78-7.29,35.5-11.42A104.87,104.87,0,0,0,329.15,317.36Z"/><path class="cls-3" d="M369.08,299.19c.27-.75.52-1.51.77-2.26a2.36,2.36,0,0,0,.1-1.67,3,3,0,0,1-2.39.68,7.62,7.62,0,0,1,1-5.05,24.2,24.2,0,0,0-5.39,3.5c-1.28,1.1-2.63,2.42-4.32,2.43a1.2,1.2,0,0,0-.68.11.91.91,0,0,0-.26.29c-3.78,5.58-6.42,12-9.88,17.8-3.65,6.16-7.49,12.2-11.47,18.15-.77,1.14-1.43,2.9-.3,3.68-.07,0,7.5-3.83,8.31-4.27a25.57,25.57,0,0,0,8-6.93,3,3,0,0,0,2.07-1.12A80.82,80.82,0,0,0,369.08,299.19Z"/><path class="cls-4" d="M241.54,138.44C260,141.68,277.2,146.75,293,157c10.22,6.66,20.09,12.16,28.74,21a105,105,0,0,1,29.22,60.76q.57,4.88.68,9.8a113.1,113.1,0,0,1-4.9,35.63c14.23-23.79,12.76-54.29,1.9-79.32a95.69,95.69,0,0,0-29.76-37.45c-12.56-9.55-24.24-19.05-39.8-23.52-16.93-4.86-34.22-9.62-51.59-12.6-14-2.4-28.48-.63-42.41-2.93a4.85,4.85,0,0,1-2.58.69c-20.36.07-39.77,4.42-56.64,16.28-4,2.83-7.9,6-10.6,10.17a119.45,119.45,0,0,0-6.12,11.64c-4,8-9,15.42-11.42,24.12a5.31,5.31,0,0,1-.57,1.32,2.11,2.11,0,0,0,1.42.7c1.27.06,2.2-1.18,2.72-2.34,1.56-3.45,1.41-7.17,2.87-10.73a74.51,74.51,0,0,1,6.36-12.17,71.29,71.29,0,0,1,29.82-26C171.49,127.73,208.9,132.71,241.54,138.44Z"/><path class="cls-4" d="M291.05,72.33C275.23,67.22,258,65,241.87,63.25a54.11,54.11,0,0,0-14.93.6c-13.21-1.18-26.61,2.39-39.41,6.1a3.33,3.33,0,0,0-2,1.49A2.92,2.92,0,0,0,184.5,73c-2.69,1.92-.8,7.13,3.09,6.19a235.47,235.47,0,0,1,27.1-4.94c14.55.27,29.13.19,43.61,1.79a186.44,186.44,0,0,1,25.79,4.68c8.89,2.28,13,5.62,19.74-1.81a1.25,1.25,0,0,0,.44-.85c0-.45-.49-.72-.89-.91A113.09,113.09,0,0,0,291.05,72.33Z"/><path class="cls-4" d="M146.53,91.88a134.94,134.94,0,0,0-28.07,32.52,108.34,108.34,0,0,0-9.86,19.15c-1.94,5.27-2.21,10.84-3.8,16.15-1.41,4.69-2.91,8.83-3.34,13.88a1.67,1.67,0,0,0,.14,1,1.13,1.13,0,0,0,1.59.11,3.16,3.16,0,0,0,.91-1.51c2.6-7,5.07-13.68,7.92-20.54,8.92-21.48,21.43-40.8,39.46-55.86C154.94,93.93,150,89,146.53,91.88Z"/><path class="cls-4" d="M388,157.08a3,3,0,0,0-3.37-2.49A135.91,135.91,0,0,0,377,133a2.84,2.84,0,0,0-3.86-1.56c-2.38-5.16-5-10.24-7.5-15.28-1.13-2.22-5.35-8.29-8.08-5.58-2.93,2.92,3.76,15,5.55,18.21,3,5.45,6,11,8.7,16.58,2.43,5.05,2.92,9.05,3.93,14.4,2.43,12.76,2.95,25.6,3.35,38.56a225.7,225.7,0,0,1-3,45.41,173.32,173.32,0,0,1-6.9,26.63c-3,8.72-7.14,16.94-10.29,25.58,1.11.37,2.24-.4,3.19-1.1,1.85-1.37,3.91-3.3,6.19-3.84-.28.06-1.76,8.29,2.72,4.2a30.34,30.34,0,0,0,6.16-8,70.45,70.45,0,0,0,3.6-7.73c2.9-7.48,4-15.53,5.94-23.28a215.2,215.2,0,0,0,1.3-99.07Z"/><path d="M395.43,198.57c-.11-12.26-1-23-4.47-34.91a147.78,147.78,0,0,0-16-36.33c-11.2-18-26.95-33.46-45.94-43a163.82,163.82,0,0,0-21.94-8.69C285,68.4,262.22,63,239,62.21c-28.34-1-58.29,6-82.53,20.94a118.05,118.05,0,0,0-41.66,44.18,167.15,167.15,0,0,0-13.64,33.11,160.76,160.76,0,0,0-4,17.48c-.9,5.28-3.3,9.78-2.67,15.41.18,1.63,1.65,4.35,3.71,4.09,1.88-.24,3.76-4.08,4.64-5.54,2.7-4.53,4.43-9.54,6.55-14.35a59.57,59.57,0,0,1,13.24-18.7c22.14-21.4,53.07-22.76,81.83-21.2,34.86,1.89,72.29,10.24,100.54,31.76,22.78,17.35,40.52,42.11,43.13,71.5a112,112,0,0,1-4.1,41.8c-1.9,6.35-4.17,13.75-8.13,19.15a61.12,61.12,0,0,1-22.27,19.28A216.3,216.3,0,0,1,283,334.63,203.25,203.25,0,0,1,236.2,345c-15.38,1.53-30.46,3.63-45.9,1.16-10.82-1.73-21-6.12-30.65-11.12-4.38-2.26-8.7-4.63-12.9-7.2q-3.08-1.87-6.06-3.9c-.82-.56-3.05-2.56-4.12-1.58-.61.57-.21,2.9-.11,3.65a16.58,16.58,0,0,0,1,3.92,32.67,32.67,0,0,0,3.85,6.71,60.26,60.26,0,0,0,8.27,9.63,41.37,41.37,0,0,0,10,7.17,150.52,150.52,0,0,0,18.7,7.18,155.57,155.57,0,0,0,22.61,5.6c10.95,1.7,22.36,2.81,33.4,1.15,4.3-.65,8.44-.77,12.76-1.22,14.63-1.54,28.46-5.29,42.8-8.83,13.11-3.24,25.73-8.17,38.28-13.16,15-6,25.69-13.23,34.06-27.1,7.26-19.12,21.71-35.57,27.22-55.17C395.22,241.32,395.63,219.77,395.43,198.57Zm-3.67,15.33c-.26,16.74-1.8,34.76-7.56,50.62-6,16.39-14.64,32.32-23.49,47.3-10.59,17.93-29.19,28.79-48.87,34.82-11.36,3.48-22.76,6.87-34.29,9.76-22.7,5.67-46.11,9.34-69.56,7.62a113.55,113.55,0,0,1-22.5-4.42c-1.63-.46-3.25-.93-4.86-1.43a147.52,147.52,0,0,1-20.53-7.92c-.74,0-2.09-1.1-2.73-1.47-.88-.53-1.73-1.09-2.56-1.69a37.29,37.29,0,0,1-4.66-3.95c-2.74-2.72-5.78-5.7-7.83-9-.88-1.43-2.37-3.38-2.17-5.14.17-1.46,2.15.74,2.65,1,1.55.8,3.09,1.61,4.61,2.48,3,1.7,5.9,3.51,9,5.06,13.62,6.87,26.3,13,41.77,14.17a122.4,122.4,0,0,0,28.67-1.53c8.95-1.46,17.9-2,26.89-3.79a215.21,215.21,0,0,0,54.85-18.24q6.78-3.39,13.3-7.3C328.29,317,333,313,337.09,306.51s6.93-13.77,9.26-21.07a112.73,112.73,0,0,0,5.26-36.83q-.11-4.92-.68-9.8a105,105,0,0,0-29.22-60.76c-8.65-8.85-18.52-14.35-28.74-21-15.77-10.29-33-15.36-51.43-18.6-32.64-5.73-70-10.71-101.23,3.64a71.29,71.29,0,0,0-29.82,26,74.55,74.55,0,0,0-8.58,18.35c-.55,1.78-1.47,6.87-3.28,3.54s.34-8.05,1.26-11.2c2.69-9.18,5.32-18.4,8.54-27.41,2.43-6.83,4.55-13.9,7.88-20.38a116,116,0,0,1,15.84-23.35c29.14-33.3,75.94-47,118.94-41.18,12.18,1.64,24.58,2.94,36.41,6.43,14.51,4.29,27.91,8.94,41.32,15.75,21.57,10.95,38.48,30.83,49.39,52,6,11.57,10.4,22.44,12.18,35.48C392.1,188.62,392,201.3,391.76,213.9Z"/><path class="cls-2" d="M214.77,78.78C212,77.17,208,77,205,77,193.43,77,182,82.32,175.39,92c-1.85,2.73-3.3,6.36-1.66,9.21a7.92,7.92,0,0,0,3.39,2.9,22,22,0,0,0,14,1.66c4.52-.84,8.46-3.23,12.89-4.21s8-1.31,11.17-4.95,4.75-11.18,2-15.56A6.81,6.81,0,0,0,214.77,78.78Z"/><path class="cls-2" d="M279.51,91.83c-4.89-5-11.27-8.2-18.12-7.62-4.55.39-9.59,1.07-12.69,4.67-7.65,8.89.43,22.45,8.86,27.4,7.19,4.22,19.68,7.59,27.57,3.53a6.73,6.73,0,0,0,3.15-3.15,9.08,9.08,0,0,0,.59-3.84C288.76,105.57,285.12,97.54,279.51,91.83Z"/><path d="M361,296a1,1,0,0,0-1.23.7,28.26,28.26,0,0,1-5.59,8.49c-.88.93.53,2.34,1.42,1.41a30.91,30.91,0,0,0,6.1-9.37A1,1,0,0,0,361,296Z"/><path d="M124.92,123.79a29.61,29.61,0,0,0-8.63,16.61c-.2,1.26,1.73,1.8,1.93.53a27.82,27.82,0,0,1,8.12-15.72C127.26,124.31,125.85,122.9,124.92,123.79Z"/><path d="M384.85,215.22c-.11-1.27-2.11-1.28-2,0a71.15,71.15,0,0,1-.73,18.55c-.21,1.26,1.71,1.8,1.93.53A73.48,73.48,0,0,0,384.85,215.22Z"/><path d="M380,231a1.08,1.08,0,0,0-.29-.7,1,1,0,0,0-1.71.7,12.88,12.88,0,0,1,0,2.24c0,.17,0,.34,0,.51s0,.09,0,.14,0,.18,0,.28c-.07.37-.15.73-.24,1.09a1,1,0,0,0,.7,1.23,1,1,0,0,0,1.23-.7A13.1,13.1,0,0,0,380,231Z"/><path d="M379.66,251.49A66.23,66.23,0,0,1,372,274.54c-.62,1.13,1.11,2.14,1.73,1A67.87,67.87,0,0,0,381.59,252C381.76,250.76,379.84,250.22,379.66,251.49Z"/><path class="cls-2" d="M373.18,105.69a19.09,19.09,0,0,0-1.92-10.58,7.05,7.05,0,0,0-1.17-1.71,1.11,1.11,0,0,1-.07-.16c-2.09-4.78-5.21-10.5-9-14.14-1.55-1.47-3.4-2.4-4.94-4a24.63,24.63,0,0,0-5.79-4.94c-6.83-3.67-15.54-4.79-23.19-4.74a32.83,32.83,0,0,0-21.36,7.42A80.8,80.8,0,0,0,298,79.47,32.81,32.81,0,0,0,294.4,83c-.56.76-.71,2.06-1.31,2.7-.18.19-.37.38-.55.58C288.38,91,290.85,97,296.77,98.07c15.49,2.81,28.94,15.13,34.32,29.74a50.7,50.7,0,0,1,2.55,11.81c.44,3.76,1.66,7.74,5.2,9.73,5.5,3.11,11.48-.43,16.38-5.07a7.54,7.54,0,0,0,1.47-1.09c6.23-5.95,13-11.7,15.51-20.3C373.81,117.27,373.8,111.46,373.18,105.69Z"/><path class="cls-5" d="M371.3,97.9a1.16,1.16,0,0,0-1-1,53.26,53.26,0,0,0-1.67-6.81c-.53-1.65-3.18-1.07-2.64.59a49.22,49.22,0,0,1-7.94,45.11c-1.72,2.21-3.73,4.8-6.07,6.37-2.17,1.46-4.79,1.57-4.73,5.09,0,1.25,9.64-3.48,10.42-4.18a42.15,42.15,0,0,0,7.56-9.3c4-6.47,7.26-13.8,7.52-21.49A72.3,72.3,0,0,0,371.3,97.9Z"/><path d="M373.53,97.47a47.94,47.94,0,0,0-19.89-26.62A43.72,43.72,0,0,0,321,64.92a47.24,47.24,0,0,0-28.12,17.66c-.83,1.12-1.6,2.28-2.31,3.47-.9,1.49,1.37,3,2.26,1.47C303.92,69,329.36,61,348.71,71.1a45.38,45.38,0,0,1,20.83,23.06,40.91,40.91,0,0,1-.41,31.3c-4.66,11.1-13.95,20.43-25.39,24.42-1.63.57-1.06,3.21.59,2.64a46.47,46.47,0,0,0,25.34-21.94A44.19,44.19,0,0,0,373.53,97.47Z"/><path class="cls-3" d="M346.15,116.13a26.07,26.07,0,0,0,1.37-8.2,25.74,25.74,0,0,0-.5-5.33,5.34,5.34,0,0,0-1.65-2.87c-.09-.33-.16-.65-.26-1-2-6.15-7.21-11.7-14.05-11.77a2.18,2.18,0,0,0-1.57.59c-.75-.06-1.49-.09-2.23-.08a2.62,2.62,0,0,0-1.34-.14c-3,.4-6,.7-8.93,1.24a14.1,14.1,0,0,0-2.08.54,6.48,6.48,0,0,0-5.7,7.94A6.65,6.65,0,0,0,311,100.2c1.84,4.16,5.87,6.64,9.6,9a40,40,0,0,1,10.55,9.23,36.06,36.06,0,0,1,3.72,5.86,10.57,10.57,0,0,0,1.82,3.07,3.42,3.42,0,0,0,4.05.44c2.19-1.19,3.72-4,4.54-6.26A14.61,14.61,0,0,0,346.15,116.13Z"/><path class="cls-6" d="M346.77,98.7a2.07,2.07,0,0,0-1.35-1.57c-.1-1-.23-2.08-.38-3.11a2.26,2.26,0,1,0-4.4,1c.68,4.59.92,9.41-.29,13.94a20.68,20.68,0,0,1-2.35,5.54,15.74,15.74,0,0,1-1.72,2.33,16.8,16.8,0,0,0-2.25,2.37c-1.15,1.93,0,4.82,1.29,6.46a4.72,4.72,0,0,0,5.72,1.47c4.1-1.8,5.22-7.58,5.82-11.51A58.08,58.08,0,0,0,346.77,98.7Z"/><path d="M348.62,113.36a29.88,29.88,0,0,0-1.19-15.74,19.33,19.33,0,0,0-9.67-10.72c-5.17-2.39-11.08-2.27-16.64-1.74-9.32.9-20.43,5.4-12.57,16.29,2.59,3.59,6.56,5.62,10.32,7.78a29.91,29.91,0,0,1,5.66,3.92,28.66,28.66,0,0,1,4.1,4.9c1.2,1.78,2.28,3.64,3.36,5.49s2,4,3.72,5.1c3.92,2.4,9-3.48,10.64-6.65C347.66,119.4,348.15,116.2,348.62,113.36Zm-12.25,12.2a52.65,52.65,0,0,1-2.94-4.91c-1-1.62-1.94-3.22-3-4.76a27.89,27.89,0,0,0-8.3-7.89c-3.33-2.06-7.14-3.65-9.93-6.46-7.37-7.43-.36-12.44,7.33-13.49,4.83-.65,10.1-1,14.82.43,9.5,2.81,12.84,13,12,22-.41,4.18-.82,8.48-3.14,12.1C341.7,124.84,338.93,129,336.37,125.56Z"/><path d="M365.45,95.82c-.62-1-2.22-.15-1.6.84a21,21,0,0,1,1.35,19.75c-.48,1.06,1.24,1.61,1.71.57A22.66,22.66,0,0,0,365.45,95.82Z"/><path d="M363.33,126.67a.92.92,0,0,0-1.25.26,38.76,38.76,0,0,1-5.37,8,.93.93,0,0,0-.06,1.27.9.9,0,0,0,1.27.06,40.41,40.41,0,0,0,5.68-8.38A.94.94,0,0,0,363.33,126.67Z"/><path d="M343.64,104.19c-.2-1.14-2-.74-1.76.4a19.86,19.86,0,0,1-1,10.35c-.41,1.09,1.31,1.64,1.72.56A21.9,21.9,0,0,0,343.64,104.19Z"/><path class="cls-5" d="M116.19,70.56a16.89,16.89,0,0,1,4.38-8.41A6.49,6.49,0,0,1,122,61l.1-.12c4.35-5,9.9-8.72,15.44-12.3,2.24-1.45,6.43-1.48,9.07-1.87a46,46,0,0,1,8.75-.78c2.5.14,5,1.2,7.41,1.92a22.29,22.29,0,0,1,3.3,1.17c1.23.58,2.33,1.4,3.55,2a36,36,0,0,1,7,4.13,43.21,43.21,0,0,1,6.67,6.06,16.53,16.53,0,0,1,2.11,3.93c1.41,3.33,5.05,7.42,2.85,11.06a9.78,9.78,0,0,1-4.08,3.41,43.4,43.4,0,0,1-7.09,2.63c-11.82,3.6-23.4,7.75-31.21,18a44.91,44.91,0,0,0-5.24,9.28c-1.35,3.06-3.42,6.09-6.92,6.85-5.45,1.18-9.56-3.37-12.48-8.55a6.31,6.31,0,0,1-.95-1.31c-3.7-6.64-7.93-13.26-7.76-21.15A39.32,39.32,0,0,1,116.19,70.56Z"/><path class="cls-3" d="M129.09,112.58c.3-2.91-4.61-9.24-5.23-10.46-3.73-7.39-6.24-13.86-5.82-22.47.26-5.34,3.29-10.26,2.84-15.48-.65-.18-1,.14-1.43.66A34.75,34.75,0,0,0,113,90a35.2,35.2,0,0,0,8,17.26c1.16,1.41,4.46,7,6.41,6.81C128.51,114,129,113.4,129.09,112.58Z"/><path d="M118.05,63.54a42.26,42.26,0,0,1,23.71-17.23,38.62,38.62,0,0,1,29.08,3.54,41.68,41.68,0,0,1,19.07,22.23c.41,1.15.75,2.33,1.05,3.52.36,1.5-1.94,2.15-2.3.65-4.53-18.49-23.87-31.89-42.81-28.44a40,40,0,0,0-23.58,14,36.1,36.1,0,0,0-7.83,26.48,38.73,38.73,0,0,0,15,27.2c1.22.9.05,3-1.19,2.07a41,41,0,0,1-15.61-25.1A38.94,38.94,0,0,1,118.05,63.54Z"/><path class="cls-3" d="M136,88.4a23.12,23.12,0,0,1,.24-7.33,22.41,22.41,0,0,1,1.36-4.52,4.66,4.66,0,0,1,1.93-2.19c.13-.27.25-.54.39-.8,2.82-5,8.27-8.86,14.19-7.73a1.93,1.93,0,0,1,1.26.79c.66.08,1.3.18,2,.31a2.48,2.48,0,0,1,1.17.11c2.51.87,5.06,1.66,7.52,2.64a12.68,12.68,0,0,1,1.7.82,5.72,5.72,0,0,1,3.54,7.86,5.93,5.93,0,0,1-2.08,2.39c-2.32,3.28-6.24,4.72-9.87,6.07A35.21,35.21,0,0,0,148.62,93a31.64,31.64,0,0,0-4.24,4.42,9.25,9.25,0,0,1-2.11,2.34,3,3,0,0,1-3.58-.33c-1.69-1.41-2.52-4.1-2.84-6.2A12.92,12.92,0,0,1,136,88.4Z"/><path class="cls-6" d="M144.36,87.1a22.55,22.55,0,0,1-1.42-12.93,2.06,2.06,0,0,0-2.38-2.42,2.41,2.41,0,0,0-2.12,1.4c-2,3.7-2.34,8-2.21,12.11a33.79,33.79,0,0,0,.42,4.13,3,3,0,0,0-.12,1,11.64,11.64,0,0,0,.65,3.42,21,21,0,0,0,.71,2.67c.69,2,2,4.43,4.55,4,2.26-.34,3.51-3.16,4.2-5.06a2.37,2.37,0,0,0,.13-.62,4.9,4.9,0,0,0,.25-1.1C147.22,91.29,145.26,89.2,144.36,87.1Z"/><path d="M134.84,93.44c.84,3,4.24,9,8,7.6,1.7-.62,2.93-2.45,4.1-3.76s2.51-2.83,3.86-4.16a25.33,25.33,0,0,1,4.4-3.53,26.77,26.77,0,0,1,5.58-2.4c3.62-1.21,7.41-2.28,10.28-4.94,8.69-8-.14-13.87-8-16.27-4.71-1.42-9.8-2.56-14.7-1.39a17,17,0,0,0-10.22,7.59,26.4,26.4,0,0,0-3.77,13.4A26.88,26.88,0,0,0,134.84,93.44Zm2.66,1c-1.37-3.54-1-7.33-.6-11,.82-8,5.47-16.14,14.18-16.91,4.33-.39,8.83.8,12.89,2.21,6.47,2.24,11.66,7.8,4,12.94-2.9,1.94-6.48,2.65-9.71,3.85a24.72,24.72,0,0,0-8.56,5.38c-1.2,1.14-2.33,2.36-3.44,3.59a46.41,46.41,0,0,1-3.4,3.74C140,100.77,138.36,96.71,137.5,94.48Z"/><path d="M121,69.79A19.65,19.65,0,0,0,117.65,83c.12,1.16,1.91.89,1.79-.26a17.71,17.71,0,0,1,3-11.84C123.14,69.91,121.7,68.83,121,69.79Z"/><path d="M122.08,95.26l0-.06s-.05-.1-.08-.14l-.14-.25-.3-.58c-.17-.37-.32-.75-.46-1.13-.07-.19-.13-.38-.19-.58h0c0-.05,0-.11-.05-.16l-.06-.27a11.68,11.68,0,0,1-.24-1.29.91.91,0,0,0-1-.77.93.93,0,0,0-.76,1,13,13,0,0,0,1.93,5.33.9.9,0,0,0,1.27.15A.93.93,0,0,0,122.08,95.26Z"/><path d="M141.4,77.31a.91.91,0,0,0-1.18.5,21.37,21.37,0,0,0-.16,10.8.92.92,0,0,0,1,.76.91.91,0,0,0,.76-1,19.53,19.53,0,0,1,.06-9.87A.92.92,0,0,0,141.4,77.31Z"/><path class="cls-7" d="M261.35,117.56c-.23-3.3-2.28-5.78-4.45-8.14-1.72-1.87-3.19-3.86-5.35-5.31a34.72,34.72,0,0,0-5.43-2.86,68.49,68.49,0,0,0-26.71-5.91,57.45,57.45,0,0,0-11.63,1.11c-3.09.63-6.62,1.13-9.53,2.31-5.54,2.23-11,6-12.77,12-1.19,4-.22,7.35.41,11.27a21.67,21.67,0,0,0,.57,3.92,42.67,42.67,0,0,0,2.7,5.72c3,5.77,8.9,9.41,14.7,12,4.61-.31,7.88-1.23,12.31.73s8.75,2.78,13.33,3.78c1,0,2-.09,3-.18,8.41-.78,15.26-4.5,21.72-9.69.29-.23.56-.46.83-.71C260.27,132.74,261.85,124.54,261.35,117.56Z"/><path class="cls-8" d="M210.66,103.18a7.8,7.8,0,0,0,.57,3c1.9,4.82,6.33,9.46,11.62,10.08,4.51.54,8.81-1.74,12.23-4.47a16.22,16.22,0,0,0,2.87-3c.26-.36,1.9-3.06.45-3a.73.73,0,0,0-.28.1,72.08,72.08,0,0,1-8,3.11c-2.19.77-3.48,1.86-5.93,1.73a15.18,15.18,0,0,1-4.15-.65c-3.74-1.3-4.25-3.94-5.67-7.18-.32-.72-.84-1.48-1.62-1.54A1.73,1.73,0,0,0,210.66,103.18Z"/><path class="cls-8" d="M261.56,119.47A37.06,37.06,0,0,1,247,138.07a34.84,34.84,0,0,1-18.62,6,18.2,18.2,0,0,1-6.88-1.06,9.45,9.45,0,0,1-5.14-4.52.52.52,0,0,0-.25-.31c-.17-.08-.36,0-.51.16a6.54,6.54,0,0,1-5.08,1.66,14.6,14.6,0,0,1-4.21-1.26,45.05,45.05,0,0,1-7.17-3.54c-4.56-2.92-8.15-9.33-9.33-14.48-.59-2.61-.32-5.49-.43-8.17a17.69,17.69,0,0,1,1.92-9.09c-3.71,1.93-5,6.43-5.87,10.2a21.59,21.59,0,0,0-.82,5.86c.14,3.49,1.86,6.7,3.66,9.68a47.11,47.11,0,0,0,10.15,11.69,19,19,0,0,0,3.63,2.36,5.17,5.17,0,0,1,2.48.51c1.91.89,6-.74,8.34-.27a30,30,0,0,1,5.2,2,52.54,52.54,0,0,0,11.32,2.87,48.81,48.81,0,0,0,11.3-2c7-2.12,12.37-4.94,16.62-11A25.22,25.22,0,0,0,261.56,119.47Z"/><path d="M261.58,114.4c0-1.11-1.94-3.15-2.63-4-1.31-1.53-2.87-2.89-4.3-4.31-2.9-2.88-6.63-4.62-10.41-6.16-5.46-2.24-11-4.35-16.88-5.27a56.64,56.64,0,0,0-23.74,1.39c-6.15,1.69-13.57,3.87-16.85,9.84-4,7.33-3.9,15.85-.47,23.38a29.56,29.56,0,0,0,11.6,12.61c4.22,2.56,9.61,4,14.52,2.82a1.12,1.12,0,0,1,1.29.34,13.47,13.47,0,0,0,4.11,2.32,36.87,36.87,0,0,0,7.49,1.52c6.55.71,13.45.56,19.68-2.07,5.51-2.34,11.39-6.69,14.33-12C263,128.31,264.48,120.71,261.58,114.4Zm-1.24,10.93c-1.52,6.85-6.37,12.48-12.12,16.26-3,2-6.23,3-9.51,4.46-3.48,1.49-7.52,1.26-11.29,1a24.24,24.24,0,0,1-7.65-1.5,11.48,11.48,0,0,1-5.87-4.95c-2.09,2.07-5.52,1.76-8.36,1s-6.4-1.73-8.76-3.52a29.65,29.65,0,0,1-5.45-6.1,27.81,27.81,0,0,1-5.53-15.13A20.09,20.09,0,0,1,189,106c3.12-5.34,10.17-7.14,15.68-8.53,16.76-4.22,34.69-.25,48.62,10A17.42,17.42,0,0,1,260.34,125.33Z"/><path d="M221.27,112.74c-3.58,6.6-5.43,14-6.51,21.36a6.27,6.27,0,0,0,.12,3.25c.79,1.93,1.91-2.76,2-3.19.38-2.38.88-4.77,1.39-7.13a50.62,50.62,0,0,1,4.61-13.45A.9.9,0,0,0,221.27,112.74Z"/><path class="cls-6" d="M238.44,102.89a1.33,1.33,0,0,0-.05-.19c-.22-.77-1.24-1.48-1.84-2a11.55,11.55,0,0,0-2.44-1.57A31.08,31.08,0,0,0,220.72,96c-3.26,0-7.27.63-8.58,4.15-.8,2.14.27,3.91,1.42,5.65a20.42,20.42,0,0,0,4.2,5,16.64,16.64,0,0,0,2.22,1.87,7.39,7.39,0,0,0,3.11.89c2.6.19,5.41-.85,7.78-1.86a36.81,36.81,0,0,0,6.46-3.67C239.09,106.72,239,104.74,238.44,102.89Z"/><path class="cls-9" d="M221,98a6.15,6.15,0,0,0-4.46,1.58,1,1,0,0,0,0,1.41,1,1,0,0,0,1.42,0l.17-.15,0,0c.13-.1.27-.18.41-.27l.43-.22h0l.23-.08.47-.13.23,0,.09,0,.43,0H221a1,1,0,0,0,1-1A1,1,0,0,0,221,98Z"/><path class="cls-9" d="M220.4,101.37a1,1,0,0,0,0,2A1,1,0,0,0,220.4,101.37Z"/><path d="M235.27,106.2c-4.24,2.31-9.27,4.5-14.12,2.92-4.28-1.39-8.37-6.26-7.74-11a5.45,5.45,0,0,0-1.27,2c-.8,2.14.27,3.91,1.42,5.65a20.42,20.42,0,0,0,4.2,5,16.64,16.64,0,0,0,2.22,1.87,7.39,7.39,0,0,0,3.11.89c2.6.19,5.41-.85,7.78-1.86a36.81,36.81,0,0,0,6.46-3.67c1.59-1.11,1.62-2.85,1.24-4.54A11.21,11.21,0,0,1,235.27,106.2Z"/><path class="cls-6" d="M178.37,106.27a37.14,37.14,0,0,0-11.28-4,1.54,1.54,0,0,0-1.84,1,1.5,1.5,0,0,0,1,1.84,34.82,34.82,0,0,1,10.57,3.74,1.53,1.53,0,0,0,2-.54A1.51,1.51,0,0,0,178.37,106.27Z"/><path class="cls-6" d="M177.06,115.45A174.93,174.93,0,0,0,158,112.78c-1.92-.17-1.91,2.83,0,3a167.63,167.63,0,0,1,18.27,2.57C178.15,118.72,179,115.83,177.06,115.45Z"/><path class="cls-6" d="M283,123.11a1.51,1.51,0,0,0-1.81-1.09q-4.77,1.17-9.62,1.9a1.5,1.5,0,0,0-1.09,1.82,1.54,1.54,0,0,0,1.82,1.09c3.23-.49,6.44-1.12,9.61-1.9A1.52,1.52,0,0,0,283,123.11Z"/><path class="cls-6" d="M302.44,129.88a186.7,186.7,0,0,1-24.79,3.48c-1.91.14-2,3.14-.08,3a193.67,193.67,0,0,0,25.6-3.57C305.06,132.4,304.33,129.48,302.44,129.88Z"/><path class="cls-6" d="M198.49,108.21a1.5,1.5,0,0,0,.13,3A1.5,1.5,0,0,0,198.49,108.21Z"/><path class="cls-6" d="M193.37,113.8a1.5,1.5,0,0,0,.13,3A1.5,1.5,0,0,0,193.37,113.8Z"/><path class="cls-6" d="M205,114.14a1.5,1.5,0,0,0,.13,3A1.5,1.5,0,0,0,205,114.14Z"/><path class="cls-6" d="M255.39,118.88a1.5,1.5,0,0,0-.41-.64l-.32-.22a1.45,1.45,0,0,0-.76-.18l-.28,0a1.17,1.17,0,0,0-.58.15,1.09,1.09,0,0,0-.46.33,1,1,0,0,0-.29.5,1.14,1.14,0,0,0-.11.58l.07.4a1.52,1.52,0,0,0,.42.64l.31.22a1.47,1.47,0,0,0,.77.17H254a1.1,1.1,0,0,0,.57-.15,1.18,1.18,0,0,0,.47-.33,1.65,1.65,0,0,0,.39-1.08Z"/><path class="cls-6" d="M245.25,120.48a1.5,1.5,0,0,0,.13,3A1.5,1.5,0,0,0,245.25,120.48Z"/><path class="cls-6" d="M252.87,127.57a1.18,1.18,0,0,0-.33-.47,1.08,1.08,0,0,0-.5-.28,1.14,1.14,0,0,0-.58-.11l-.39.07a1.5,1.5,0,0,0-.65.42l-.22.31a1.47,1.47,0,0,0-.17.77v.28a1.73,1.73,0,0,0,.49,1,1.07,1.07,0,0,0,.49.29,1.17,1.17,0,0,0,.59.1l.39-.07a1.53,1.53,0,0,0,.65-.41l.22-.32a1.54,1.54,0,0,0,.17-.76v-.28A1.29,1.29,0,0,0,252.87,127.57Z"/><path class="cls-6" d="M214.66,83.65a6.05,6.05,0,0,0-5.23-.89,5.92,5.92,0,0,0-3.62,3.32,5.9,5.9,0,0,0-1.26,5.25c1.22,3.81,6.67,3.91,9.56,2.15A6,6,0,0,0,217,88.7,5.87,5.87,0,0,0,214.66,83.65Z"/><path class="cls-9" d="M211.36,84.61a1,1,0,0,0-1.37-.36,7.34,7.34,0,0,0-3.28,4,1,1,0,0,0,.7,1.24,1,1,0,0,0,1.23-.7,1.06,1.06,0,0,1,.09-.25h0l0,0,.06-.12A4.52,4.52,0,0,1,209,88c.09-.15.18-.3.28-.45l.14-.2.07-.08a6.73,6.73,0,0,1,.75-.76l.21-.17c-.25.21,0,0,0,0A5,5,0,0,1,211,86,1,1,0,0,0,211.36,84.61Z"/><path class="cls-9" d="M208.73,88.54c.08-.17,0-.06,0,0Z"/><path class="cls-9" d="M211.43,87.59a.78.78,0,0,0-.21-.33.83.83,0,0,0-.32-.2.86.86,0,0,0-.39-.09l-.26,0a1,1,0,0,0-.44.25l-.16.21a1,1,0,0,0-.14.5v.28a.86.86,0,0,0,.09.39.75.75,0,0,0,.21.32.69.69,0,0,0,.32.21.73.73,0,0,0,.38.08l.27,0a.94.94,0,0,0,.44-.26l.16-.2a1,1,0,0,0,.13-.51V88A.71.71,0,0,0,211.43,87.59Z"/><path class="cls-6" d="M266.25,89.66a8.8,8.8,0,0,0-4.93-2.35,8.59,8.59,0,0,0-3.53-.19,4.33,4.33,0,0,0-2.71,2.08,6.81,6.81,0,0,0-.89,3.32A5.87,5.87,0,0,0,255.45,98a6,6,0,0,0,5.76,1.91,7.12,7.12,0,0,0,2-.74,5.89,5.89,0,0,0,2-1.31,6,6,0,0,0,1.06-1.44c.09-.13.19-.25.27-.38A5.25,5.25,0,0,0,266.25,89.66Z"/><path class="cls-9" d="M260.81,89.57a1,1,0,0,0-.46-.6l-.24-.1a1,1,0,0,0-.53,0,4.14,4.14,0,0,0-2.33,1.27,4.19,4.19,0,0,0-.75,1.08,4.77,4.77,0,0,0-.42,1.53,1,1,0,0,0,.3.71,1,1,0,0,0,.7.29,1,1,0,0,0,.71-.29,1.13,1.13,0,0,0,.29-.67l0,.11a3.16,3.16,0,0,1,.18-.67,5.39,5.39,0,0,1,.3-.52,2.53,2.53,0,0,1,.95-.74,3.15,3.15,0,0,1,.62-.17,1,1,0,0,0,.59-.46A1,1,0,0,0,260.81,89.57Z"/><path class="cls-9" d="M260.14,91.75a1,1,0,0,0,0,2A1,1,0,0,0,260.14,91.75Z"/></svg>