<?xml version="1.0" encoding="UTF-8"?><svg id="Headwear" xmlns="http://www.w3.org/2000/svg" xmlns:xlink="http://www.w3.org/1999/xlink" viewBox="0 0 500 500"><defs><style>.cls-1{fill:url(#linear-gradient);}.cls-2{fill:#fbfaf9;}.cls-3{fill:url(#linear-gradient-2);}</style><linearGradient id="linear-gradient" x1="228.59" y1="85.13" x2="276.3" y2="115.54" gradientTransform="matrix(1,0,0,1,0,0)" gradientUnits="userSpaceOnUse"><stop offset="0" stop-color="#fbedb1"/><stop offset="1" stop-color="#b0df34"/></linearGradient><linearGradient id="linear-gradient-2" x1="247.63" y1="36.43" x2="289.34" y2="41.24" gradientTransform="translate(8.22 -35.53) rotate(8.17)" xlink:href="#linear-gradient"/></defs><g id="_" data-name="8"><path class="cls-1" d="M271.16,115.56c-1.28-4.72-2-9.63-3.02-14.42-3.63-17.11-8.13-34.11-14.8-50.32-2.63,4.58-5.23,9.18-7.79,13.81-8.68,15.66-16.96,31.55-24.85,47.62-1.7,3.46-4.38,6.84-3.71,10.92,.64,3.9,3.52,7.05,6.84,8.98,8.14,4.73,17.65,7.71,27.09,7.88,8.02,.14,23.41,.45,22.51-11.17-.35-4.49-1.09-8.95-2.27-13.3Z"/><g><path class="cls-2" d="M233.24,112.8c.11-.32,.16-.66,.14-1.02-.05-.91-.41-1.65-.99-2.34-.37-.44-.89-.82-1.42-1.06-.72-.33-1.37-.51-2.16-.58-.26-.02-.53-.02-.8,0-.64-.04-1.24,.09-1.86,.36-.65,.29-1.14,.8-1.56,1.36-.64,.86-.86,2.02-.65,3.07,.17,1.35,.93,2.51,2.14,3.17,.1,.05,.21,.1,.31,.15,.07,.04,.13,.1,.21,.14,.87,.46,1.79,.66,2.73,.64,.08,0,.15,.02,.23,.02,1.01,0,1.9-.38,2.55-1.04,.32-.29,.58-.63,.75-1.01,.27-.6,.4-1.22,.37-1.85Z"/><path class="cls-2" d="M247.36,129.92c.11-.32,.16-.66,.14-1.02-.05-.91-.41-1.65-.99-2.34-.37-.44-.89-.82-1.42-1.06-.72-.33-1.37-.51-2.16-.58-.26-.02-.53-.02-.8,0-.64-.04-1.24,.09-1.86,.36-.65,.29-1.14,.8-1.56,1.36-.64,.86-.86,2.02-.65,3.07,.17,1.35,.93,2.51,2.14,3.17,.1,.05,.21,.1,.31,.15,.07,.04,.13,.1,.21,.14,.87,.46,1.79,.66,2.73,.64,.08,0,.15,.02,.23,.02,1.01,0,1.9-.38,2.55-1.04,.32-.29,.58-.63,.75-1.01,.27-.6,.4-1.22,.37-1.85Z"/><path class="cls-2" d="M264.6,116.6c.11-.32,.16-.66,.14-1.02-.05-.91-.41-1.65-.99-2.34-.37-.44-.89-.82-1.42-1.06-.72-.33-1.37-.51-2.16-.58-.26-.02-.53-.02-.8,0-.64-.04-1.24,.09-1.86,.36-.65,.29-1.14,.8-1.56,1.36-.64,.86-.86,2.02-.65,3.07,.17,1.35,.93,2.51,2.14,3.17,.1,.05,.21,.1,.31,.15,.07,.04,.13,.1,.21,.14,.87,.46,1.79,.66,2.73,.64,.08,0,.15,.02,.23,.02,1.01,0,1.9-.38,2.55-1.04,.32-.29,.58-.63,.75-1.01,.27-.6,.4-1.22,.37-1.85Z"/><path class="cls-2" d="M248.93,103.27c.11-.32,.16-.66,.14-1.02-.05-.91-.41-1.65-.99-2.34-.37-.44-.89-.82-1.42-1.06-.72-.33-1.37-.51-2.16-.58-.26-.02-.53-.02-.8,0-.64-.04-1.24,.09-1.86,.36-.65,.29-1.14,.8-1.56,1.36-.64,.86-.86,2.02-.65,3.07,.17,1.35,.93,2.51,2.14,3.17,.1,.05,.21,.1,.31,.15,.07,.04,.13,.1,.21,.14,.87,.46,1.79,.66,2.73,.64,.08,0,.15,.02,.23,.02,1.01,0,1.9-.38,2.55-1.04,.32-.29,.58-.63,.75-1.01,.27-.6,.4-1.22,.37-1.85Z"/><path class="cls-2" d="M262.25,86.81c.11-.32,.16-.66,.14-1.02-.05-.91-.41-1.65-.99-2.34-.37-.44-.89-.82-1.42-1.06-.72-.33-1.37-.51-2.16-.58-.26-.02-.53-.02-.8,0-.64-.04-1.24,.09-1.86,.36-.65,.29-1.14,.8-1.56,1.36-.64,.86-.86,2.02-.65,3.07,.17,1.35,.93,2.51,2.14,3.17,.1,.05,.21,.1,.31,.15,.07,.04,.13,.1,.21,.14,.87,.46,1.79,.66,2.73,.64,.08,0,.15,.02,.23,.02,1.01,0,1.9-.38,2.55-1.04,.32-.29,.58-.63,.75-1.01,.27-.6,.4-1.22,.37-1.85Z"/><path class="cls-2" d="M255.98,68c.11-.32,.16-.66,.14-1.02-.05-.91-.41-1.65-.99-2.34-.37-.44-.89-.82-1.42-1.06-.72-.33-1.37-.51-2.16-.58-.26-.02-.53-.02-.8,0-.64-.04-1.24,.09-1.86,.36-.65,.29-1.14,.8-1.56,1.36-.64,.86-.86,2.02-.65,3.07,.17,1.35,.93,2.51,2.14,3.17,.1,.05,.21,.1,.31,.15,.07,.04,.13,.1,.21,.14,.87,.46,1.79,.66,2.73,.64,.08,0,.15,.02,.23,.02,1.01,0,1.9-.38,2.55-1.04,.32-.29,.58-.63,.75-1.01,.27-.6,.4-1.22,.37-1.85Z"/><path class="cls-2" d="M243.44,82.89c.11-.32,.16-.66,.14-1.02-.05-.91-.41-1.65-.99-2.34-.37-.44-.89-.82-1.42-1.06-.72-.33-1.37-.51-2.16-.58-.26-.02-.53-.02-.8,0-.64-.04-1.24,.09-1.86,.36-.65,.29-1.14,.8-1.56,1.36-.64,.86-.86,2.02-.65,3.07,.17,1.35,.93,2.51,2.14,3.17,.1,.05,.21,.1,.31,.15,.07,.04,.13,.1,.21,.14,.87,.46,1.79,.66,2.73,.64,.08,0,.15,.02,.23,.02,1.01,0,1.9-.38,2.55-1.04,.32-.29,.58-.63,.75-1.01,.27-.6,.4-1.22,.37-1.85Z"/><path class="cls-2" d="M269.31,135.41c.11-.32,.16-.66,.14-1.02-.05-.91-.41-1.65-.99-2.34-.37-.44-.89-.82-1.42-1.06-.72-.33-1.37-.51-2.16-.58-.26-.02-.53-.02-.8,0-.64-.04-1.24,.09-1.86,.36-.65,.29-1.14,.8-1.56,1.36-.64,.86-.86,2.02-.65,3.07,.17,1.35,.93,2.51,2.14,3.17,.1,.05,.21,.1,.31,.15,.07,.04,.13,.1,.21,.14,.87,.46,1.79,.66,2.73,.64,.08,0,.15,.02,.23,.02,1.01,0,1.9-.38,2.55-1.04,.32-.29,.58-.63,.75-1.01,.27-.6,.4-1.22,.37-1.85Z"/></g><path d="M272.9,112.9c-3.06-15.94-6.58-31.84-11.62-47.28-2-6.11-4.24-12.13-6.76-18.04-.36-.84-1.63-.69-2.03,0-10.68,18.54-20.81,37.39-30.37,56.53-2.79,5.58-7.28,11.33-7.51,17.8-.23,6.72,6.04,12.19,11.59,14.86,5.29,2.55,10.96,4.28,16.76,5.17,2.5,.38,5.17,.89,7.67,1.04,4.38,.26,9.34,.18,13.61-.94,3.17-.83,7.21-2.09,9.56-4.48,1.56-1.59,2.11-3.57,2.18-5.65,.07-2.19-.38-4.48-.75-6.52-.76-4.17-1.52-8.34-2.32-12.5Zm-21.98,27.13c-9.44-.16-18.95-3.15-27.09-7.88-3.33-1.93-6.2-5.09-6.84-8.98-.67-4.08,2.02-7.46,3.71-10.92,7.89-16.08,16.17-31.96,24.85-47.62,2.56-4.62,5.16-9.22,7.79-13.81,6.67,16.2,11.17,33.2,14.8,50.32,1.02,4.79,1.74,9.69,3.02,14.42,1.18,4.35,1.92,8.8,2.27,13.3,.91,11.62-14.49,11.31-22.51,11.17Z"/><g><path d="M216.62,119.52c-.9-1.14-3.85-1.21-5-1.48-24.64-5.76-51.89,1.15-73.07,14.29-6.21,3.86-12.01,8.38-17.26,13.48-1.39,1.35,.74,3.47,2.12,2.12,18.03-17.53,42.75-27.72,67.84-28.52,4.1-.13,8.22-.01,12.3,.37,2.51,.23,4.88,.73,7.34,1.2,1.32,.25,4.09,1.21,5.24,.54,.31-.18,.61-.54,.69-.9,.1-.45,0-.81-.22-1.1Z"/><path d="M202.61,367.2c-.66-2.51-2.01-4.72-3.01-7.09-.3-.71-.52-1.42-.69-2.14,.23-1.81,.69-3.61,1.42-5.38,.49-1.18-.61-1.91-1.62-1.77-.02-.02-.04-.05-.07-.07l.02-.06c.73-1.78-2.17-2.56-2.89-.8-1.79,4.36-4.14,8.84-4.94,13.52-.73,4.25-.38,8.93,1.61,12.82,.42,.82,1.18,1.84,2.12,2.74-1.33,2.12-2.91,4.1-4.09,6.3-1.89,3.49-2.73,7.54-2.28,11.49,.41,3.61,1.79,8.39,5.89,9.27,1.88,.4,2.69-2.49,.8-2.89-3.16-.67-3.75-5.47-3.81-8.09-.07-3.69,1.12-7.03,3.08-10.1,.91-1.43,1.9-2.81,2.81-4.23,1.6,.78,3.28,.8,4.51-.91,1.18-1.63,1.5-4.11,1.68-6.05,.21-2.18,0-4.43-.55-6.55Zm-7.49,7.68c-1.75-3.28-2.01-7.52-1.31-11.12,.42-2.16,1.16-4.27,1.99-6.35,.02,.1,.04,.21,.06,.31-.26,2.05-.26,4.14,.02,6.2,.55,4.06,1.94,8.08,.27,12.07-.04,.1-.09,.19-.14,.29-.35-.44-.65-.92-.9-1.4Zm5.04-1.13c-.09,.89-.27,1.78-.51,2.65-.21,.75-.31,1.77-1.16,1.63,.25-.52,.5-1.05,.7-1.59,1.13-3.01,.83-6.07,.3-9.14,.08,.23,.16,.46,.23,.7,.49,1.87,.64,3.82,.45,5.75Z"/><path d="M357.54,229.98c-3.23-19.07-10.12-36.86-20.28-53.25-4.66-7.51-11.1-13.98-17.32-20.21-6.51-6.52-13.42-12.76-21.38-17.47-5.15-3.04-11.39-5.59-17.23-6.93-1.65-.38-6.13-1.6-7.12,.64s7.67,2.16,9.58,2.91c3.71,1.46,7.68,2.85,11.2,4.75,6.44,3.48,12.14,8.17,17.59,13.02,3.84,3.41,7.36,7.14,10.76,10.98,4.99,5.63,10.04,11.54,14.13,18,4.4,6.95,7.56,14.84,10.29,22.57,2.41,6.81,4.46,13.76,5.94,20.83,2.93,13.97,3.57,28.57,.08,42.5-2.1,8.39-5.53,16.38-9.51,24.04-1.95,3.75-4.1,7.37-6.16,11.06-1.76,3.15-4.25,5.76-5.87,8.96-.1,.2,3.56-1.04,3.96-1.33,1.08-.77,1.69-1.59,2.46-2.66,2.48-3.45,4.43-7.51,6.46-11.23,4.13-7.58,7.83-15.44,10.36-23.71,4.33-14.12,4.52-28.98,2.06-43.46Z"/></g><g><polygon class="cls-3" points="258.58 17.2 263.13 31.13 277.19 35.28 265.35 43.92 265.75 58.57 253.88 49.97 240.06 54.88 244.57 40.93 235.64 29.31 250.29 29.29 258.58 17.2"/><path d="M266.8,60.57l-13.09-9.48-15.23,5.41,4.97-15.37-9.85-12.81,16.16-.03,9.14-13.32,5.02,15.36,15.5,4.57-13.06,9.52,.44,16.15Zm-29.14-30.26l8.02,10.43-4.05,12.52,12.4-4.4,10.66,7.72-.36-13.15,10.63-7.75-12.62-3.72-4.09-12.51-7.44,10.85-13.16,.02Z"/></g></g></svg>