<?xml version="1.0" encoding="UTF-8"?><svg id="Headwear" xmlns="http://www.w3.org/2000/svg" xmlns:xlink="http://www.w3.org/1999/xlink" viewBox="0 0 500 500"><defs><style>.cls-1{fill:url(#New_Gradient_Swatch_11);}.cls-2{fill:url(#linear-gradient);}.cls-3{fill:url(#linear-gradient-3);}.cls-4{fill:url(#linear-gradient-4);}.cls-5{fill:url(#linear-gradient-2);}</style><linearGradient id="New_Gradient_Swatch_11" data-name="New Gradient Swatch 11" x1="229.44" y1="64.13" x2="290.31" y2="102.93" gradientTransform="matrix(1,0,0,1,0,0)" gradientUnits="userSpaceOnUse"><stop offset="0" stop-color="#ca86b4"/><stop offset="1" stop-color="#71cdf2"/></linearGradient><linearGradient id="linear-gradient" x1="218.81" y1="102.07" x2="286.05" y2="102.07" gradientTransform="matrix(1,0,0,1,0,0)" gradientUnits="userSpaceOnUse"><stop offset="0" stop-color="#fbfaf9"/><stop offset="1" stop-color="#dcdbda"/></linearGradient><linearGradient id="linear-gradient-2" x1="228.94" y1="81.11" x2="280.9" y2="81.11" xlink:href="#linear-gradient"/><linearGradient id="linear-gradient-3" x1="239.81" y1="59.52" x2="276.94" y2="59.52" xlink:href="#linear-gradient"/><linearGradient id="linear-gradient-4" x1="249" y1="40.44" x2="270.37" y2="40.44" xlink:href="#linear-gradient"/></defs><g id="_" data-name="7"><path class="cls-1" d="M283.76,102.96c-1.64-6.02-2.56-12.28-3.85-18.39-4.63-21.83-10.37-43.52-18.88-64.2-3.35,5.85-6.67,11.72-9.94,17.61-11.07,19.98-21.64,40.25-31.7,60.76-2.16,4.41-5.59,8.73-4.74,13.93,.82,4.97,4.48,9,8.73,11.46,10.38,6.03,22.51,9.84,34.56,10.05,10.23,.18,29.87,.57,28.71-14.26-.45-5.73-1.39-11.41-2.89-16.97Z"/><path class="cls-2" d="M285.87,103.92c-.08-.33-.2-.69-.34-1.08-.19-.53-2.31-4.19-2.21-4.39-1.53,2.86-4.41,4.83-7.49,5.85s-6.38,1.2-9.63,1.2c-10.12,.03-20.8-2.46-30.36-5.79-1.44-.5-2.99-.94-4.38-1.58s-2.4-1.68-3.54-2.65c-1.21-1.02-2.45-2.09-3.11-3.53-.67-1.45-.67-3.11-.66-4.71,0,.62-1.99,2.54-2.39,3.16-.77,1.2-1.32,2.49-2.04,3.71-4.88,8.29,11.2,15.96,16.96,18.2,11.42,4.45,24.03,5.46,36.18,3.82,3.01-.41,6.25-1.26,8.81-3.06,2.69-1.89,5.07-5.74,4.21-9.16Z"/><path class="cls-5" d="M280.5,79.98c-.46-1.17-1.33-1.82-2.83-.99-3.46,1.93-5.96,4.13-10.19,4.15-7.23,.03-14.43-.31-21.34-2.62-4.06-1.36-10.06-3.07-11.46-7.71-.88-2.93-4.66-1.83-4.93,.78-.11,1.03-.03,1.31-.44,2.37-.31,.82-.52,1.51-.23,2.37,.61,1.81,2.97,3.33,4.44,4.37,6.05,4.31,13.35,6.89,20.69,7.88s15.64,.9,22.43-2.06c1.62-.71,3.3-1.7,3.9-3.36,.43-1.18,.56-3.65-.04-5.19Z"/><path class="cls-3" d="M272.66,59.7c-.23,.49-.55,.97-1.08,1.4-1.56,1.27-3.45,2.12-5.4,2.57-6.35,1.46-13.14-.85-18.01-5.05-2.66-2.29-4.86-5.66-4.22-9.11-2.52,1.79-5.05,6.76-3.82,9.87,.29,.75,.86,1.35,1.44,1.91,5.43,5.25,14.02,7.99,21.43,8.21,4.21,.13,11.92-.21,13.73-5.1,.87-2.35-1.03-6.07-2.57-7.76-.92,.91-1.01,2.01-1.5,3.06Z"/><path class="cls-4" d="M270.34,41.89c-.18-1.79-1.04-3.54-.69-5.3-.07,1.07-.75,2.03-1.62,2.64s-1.93,.92-2.98,1.11c-2.15,.4-4.38,.36-6.51-.11-2.77-.61-4.02-2.63-5.47-4.84-.53-.81-1.09-1.81-.7-2.7-.71,1.05-1.36,2.13-1.96,3.24-.7,1.31-1.34,2.7-1.4,4.18-.2,5.11,7.07,7,10.94,7.66,1.44,.24,2.89,.45,4.35,.35,3.35-.23,6.26-2.36,6.07-5.95,0-.1-.01-.2-.02-.3Z"/><path d="M285.98,99.57c-3.91-20.34-8.39-40.62-14.83-60.33-2.55-7.79-5.41-15.47-8.62-23.02-.45-1.07-2.08-.89-2.59,0-13.62,23.65-26.55,47.71-38.75,72.12-3.56,7.13-9.29,14.45-9.58,22.72-.3,8.57,7.71,15.55,14.78,18.96,6.74,3.25,13.98,5.47,21.38,6.6,3.19,.49,6.6,1.13,9.78,1.32,5.59,.33,11.92,.22,17.37-1.2,4.04-1.06,9.2-2.66,12.2-5.72,1.99-2.02,2.69-4.56,2.78-7.2,.1-2.79-.49-5.72-.96-8.32-.97-5.32-1.95-10.64-2.96-15.95Zm-28.04,34.62c-12.05-.21-24.18-4.02-34.56-10.05-4.24-2.47-7.91-6.49-8.73-11.46-.86-5.2,2.57-9.52,4.74-13.93,10.06-20.51,20.63-40.77,31.7-60.76,3.27-5.9,6.59-11.77,9.94-17.61,8.51,20.67,14.25,42.36,18.88,64.2,1.3,6.11,2.22,12.37,3.85,18.39,1.51,5.55,2.45,11.23,2.89,16.97,1.16,14.83-18.48,14.43-28.71,14.26Z"/></g></svg>