<svg id="Headwear" xmlns="http://www.w3.org/2000/svg" xmlns:xlink="http://www.w3.org/1999/xlink" viewBox="0 0 500 500"><defs><style>.cls-1{fill:url(#radial-gradient);}.cls-2{fill:url(#radial-gradient-2);}.cls-3{fill:url(#radial-gradient-3);}.cls-4{fill:url(#radial-gradient-4);}.cls-5{fill:url(#radial-gradient-5);}.cls-6{fill:url(#radial-gradient-6);}.cls-7{fill:url(#radial-gradient-7);}.cls-8{fill:url(#radial-gradient-8);}.cls-9{fill:url(#radial-gradient-9);}.cls-10{fill:url(#radial-gradient-10);}.cls-11{fill:url(#radial-gradient-11);}.cls-12{fill:url(#radial-gradient-12);}.cls-13{fill:url(#radial-gradient-13);}.cls-14{fill:url(#radial-gradient-14);}.cls-15{fill:url(#radial-gradient-15);}.cls-16{fill:url(#radial-gradient-16);}.cls-17{fill:url(#radial-gradient-17);}.cls-18{fill:url(#radial-gradient-18);}.cls-19{fill:url(#radial-gradient-19);}.cls-20{fill:url(#radial-gradient-20);}.cls-21{fill:url(#radial-gradient-21);}.cls-22{fill:url(#radial-gradient-22);}.cls-23{fill:url(#radial-gradient-23);}.cls-24{fill:url(#radial-gradient-24);}.cls-25{fill:url(#radial-gradient-25);}.cls-26{fill:url(#radial-gradient-26);}.cls-27{fill:url(#radial-gradient-27);}.cls-28{fill:url(#radial-gradient-28);}.cls-29{fill:url(#radial-gradient-29);}.cls-30{fill:url(#radial-gradient-30);}.cls-31{fill:url(#radial-gradient-31);}.cls-32{fill:url(#radial-gradient-32);}.cls-33{fill:url(#radial-gradient-33);}.cls-34{fill:url(#radial-gradient-34);}.cls-35{fill:url(#radial-gradient-35);}.cls-36{fill:url(#radial-gradient-36);}.cls-37{fill:url(#radial-gradient-37);}.cls-38{fill:url(#radial-gradient-38);}.cls-39{fill:url(#radial-gradient-39);}.cls-40{fill:url(#radial-gradient-40);}.cls-41{fill:url(#radial-gradient-41);}.cls-42{fill:url(#radial-gradient-42);}.cls-43{fill:url(#radial-gradient-43);}.cls-44{fill:url(#radial-gradient-44);}.cls-45{fill:url(#radial-gradient-45);}.cls-46{fill:url(#radial-gradient-46);}.cls-47{fill:url(#radial-gradient-47);}.cls-48{fill:url(#linear-gradient);}.cls-49{fill:url(#linear-gradient-2);}.cls-50{fill:url(#linear-gradient-3);}.cls-51{fill:url(#linear-gradient-4);}.cls-52{fill:url(#linear-gradient-5);}.cls-53{fill:url(#linear-gradient-6);}.cls-54{fill:url(#linear-gradient-7);}.cls-55{fill:#fad331;}</style><radialGradient id="radial-gradient" cx="126" cy="137.42" r="14.64" gradientUnits="userSpaceOnUse"><stop offset="0" stop-color="#fbb03b"/><stop offset="0.23" stop-color="#f7a836"/><stop offset="0.58" stop-color="#eb9328"/><stop offset="1" stop-color="#d87113"/></radialGradient><radialGradient id="radial-gradient-2" cx="143.6" cy="119.75" r="15.77" xlink:href="#radial-gradient"/><radialGradient id="radial-gradient-3" cx="167.71" cy="128.55" r="20.89" xlink:href="#radial-gradient"/><radialGradient id="radial-gradient-4" cx="111.54" cy="158.26" r="11.9" xlink:href="#radial-gradient"/><radialGradient id="radial-gradient-5" cx="102.31" cy="181.47" r="7.47" xlink:href="#radial-gradient"/><radialGradient id="radial-gradient-6" cx="301.72" cy="147.44" r="21.65" xlink:href="#radial-gradient"/><radialGradient id="radial-gradient-7" cx="193.62" cy="113.71" r="19.12" xlink:href="#radial-gradient"/><radialGradient id="radial-gradient-8" cx="280.68" cy="132.04" r="14.29" xlink:href="#radial-gradient"/><radialGradient id="radial-gradient-9" cx="165.05" cy="100.15" r="17.66" xlink:href="#radial-gradient"/><radialGradient id="radial-gradient-10" cx="260.16" cy="138.01" r="12.81" xlink:href="#radial-gradient"/><radialGradient id="radial-gradient-11" cx="244.54" cy="126.64" r="12.1" xlink:href="#radial-gradient"/><radialGradient id="radial-gradient-12" cx="220.08" cy="125.92" r="16.57" xlink:href="#radial-gradient"/><radialGradient id="radial-gradient-13" cx="304.71" cy="112.36" r="15.05" xlink:href="#radial-gradient"/><radialGradient id="radial-gradient-14" cx="327.56" cy="132.03" r="21.54" xlink:href="#radial-gradient"/><radialGradient id="radial-gradient-15" cx="366.5" cy="182.18" r="20.27" xlink:href="#radial-gradient"/><radialGradient id="radial-gradient-16" cx="391.42" cy="176.78" r="8.77" xlink:href="#radial-gradient"/><radialGradient id="radial-gradient-17" cx="382.69" cy="153.1" r="14.29" xlink:href="#radial-gradient"/><radialGradient id="radial-gradient-18" cx="384.89" cy="209.04" r="18.37" xlink:href="#radial-gradient"/><radialGradient id="radial-gradient-19" cx="191.55" cy="83.6" r="15.84" xlink:href="#radial-gradient"/><radialGradient id="radial-gradient-20" cx="349.07" cy="155.91" r="23.26" xlink:href="#radial-gradient"/><radialGradient id="radial-gradient-21" cx="264.59" cy="124.98" r="4.38" xlink:href="#radial-gradient"/><radialGradient id="radial-gradient-22" cx="327.42" cy="176.74" r="13.97" xlink:href="#radial-gradient"/><radialGradient id="radial-gradient-23" cx="350.43" cy="113.7" r="15.18" xlink:href="#radial-gradient"/><radialGradient id="radial-gradient-24" cx="330.84" cy="99.54" r="16.11" xlink:href="#radial-gradient"/><radialGradient id="radial-gradient-25" cx="366.43" cy="134.02" r="17.47" xlink:href="#radial-gradient"/><radialGradient id="radial-gradient-26" cx="215.98" cy="98.74" r="16.43" xlink:href="#radial-gradient"/><radialGradient id="radial-gradient-27" cx="294.47" cy="336.71" r="4.74" xlink:href="#radial-gradient"/><radialGradient id="radial-gradient-28" cx="310.58" cy="336.98" r="12.85" xlink:href="#radial-gradient"/><radialGradient id="radial-gradient-29" cx="219.14" cy="357" r="8.84" xlink:href="#radial-gradient"/><radialGradient id="radial-gradient-30" cx="323.06" cy="322.22" r="6.32" xlink:href="#radial-gradient"/><radialGradient id="radial-gradient-31" cx="255.05" cy="350.73" r="8.29" xlink:href="#radial-gradient"/><radialGradient id="radial-gradient-32" cx="237.25" cy="355.97" r="12.57" xlink:href="#radial-gradient"/><radialGradient id="radial-gradient-33" cx="278.53" cy="347.95" r="14.25" xlink:href="#radial-gradient"/><radialGradient id="radial-gradient-34" cx="351.01" cy="202.86" r="17.32" xlink:href="#radial-gradient"/><radialGradient id="radial-gradient-35" cx="391.96" cy="238.98" r="15.34" xlink:href="#radial-gradient"/><radialGradient id="radial-gradient-36" cx="340.85" cy="321.32" r="15.42" xlink:href="#radial-gradient"/><radialGradient id="radial-gradient-37" cx="381.19" cy="279.6" r="11.89" xlink:href="#radial-gradient"/><radialGradient id="radial-gradient-38" cx="357.57" cy="301.02" r="15.93" xlink:href="#radial-gradient"/><radialGradient id="radial-gradient-39" cx="364.95" cy="231" r="19.75" xlink:href="#radial-gradient"/><radialGradient id="radial-gradient-40" cx="357.77" cy="275.93" r="17.17" xlink:href="#radial-gradient"/><radialGradient id="radial-gradient-41" cx="339.31" cy="302.73" r="0.92" xlink:href="#radial-gradient"/><radialGradient id="radial-gradient-42" cx="197.36" cy="357.31" r="12.57" xlink:href="#radial-gradient"/><radialGradient id="radial-gradient-43" cx="370.56" cy="255.66" r="17.63" xlink:href="#radial-gradient"/><radialGradient id="radial-gradient-44" cx="181.03" cy="350.48" r="3.56" xlink:href="#radial-gradient"/><radialGradient id="radial-gradient-45" cx="165.02" cy="348.28" r="10.83" xlink:href="#radial-gradient"/><radialGradient id="radial-gradient-46" cx="141.82" cy="334.19" r="8.2" xlink:href="#radial-gradient"/><radialGradient id="radial-gradient-47" cx="150.68" cy="337.09" r="5.8" xlink:href="#radial-gradient"/><linearGradient id="linear-gradient" x1="290.71" y1="97.37" x2="290.71" y2="38.97" gradientUnits="userSpaceOnUse"><stop offset="0" stop-color="#255a2d"/><stop offset="0.19" stop-color="#447b42"/><stop offset="0.42" stop-color="#659e58"/><stop offset="0.64" stop-color="#7db767"/><stop offset="0.84" stop-color="#8bc671"/><stop offset="1" stop-color="#90cb74"/></linearGradient><linearGradient id="linear-gradient-2" x1="288.73" y1="56.37" x2="288.73" y2="26.44" xlink:href="#linear-gradient"/><linearGradient id="linear-gradient-3" x1="264.32" y1="73.77" x2="264.32" y2="18.98" xlink:href="#linear-gradient"/><linearGradient id="linear-gradient-4" x1="258.6" y1="118.91" x2="258.6" y2="65.23" xlink:href="#linear-gradient"/><linearGradient id="linear-gradient-5" x1="240.73" y1="84.44" x2="240.73" y2="25.28" xlink:href="#linear-gradient"/><linearGradient id="linear-gradient-6" x1="234.11" y1="116.42" x2="234.11" y2="52.74" xlink:href="#linear-gradient"/><linearGradient id="linear-gradient-7" x1="295" y1="122.02" x2="295" y2="71.12" xlink:href="#linear-gradient"/></defs><path class="cls-1" d="M139.3,138.22a1.17,1.17,0,0,1-.41-.47,23.39,23.39,0,0,0-12.52-12.33,1.62,1.62,0,0,1-1.1-1.39,10.78,10.78,0,0,1-1.45-2.48c-2,2.74-4.07,5.47-6,8.29-2.22,3.32-4.38,7.26-3.54,11.38a1.57,1.57,0,0,1-1.63,1.87A20.63,20.63,0,0,0,122.75,153a1.27,1.27,0,0,1,.46.33A70,70,0,0,1,138,143.19a1.59,1.59,0,0,1-.06-.85A19.89,19.89,0,0,1,139.3,138.22Z"/><path class="cls-2" d="M159.67,120.26a33,33,0,0,0-8.33-8.9c-1.63-1.19-3.44-2.06-5.1-3.18a7.88,7.88,0,0,1-2.11-2c-.41-.58-.61-1.38-1-1.94l-.27.15a8.34,8.34,0,0,1-1.46,1.23l-2.93,2.46c-1.79,1.5-3.62,3-5.34,4.55s-6.27,7.13-5.48,9.62a3.9,3.9,0,0,0,1.67,1.48c1.45.89,3.43,1.81,4.21,2.4a25.79,25.79,0,0,1,7.51,9C145.42,128.78,153.19,125.09,159.67,120.26Z"/><path class="cls-3" d="M182.14,123.72c-4.81-1.93-10.08-4-13.23-8.29-3.8,5.14-9.4,8.55-14.69,12s-11,7.88-13,14.2c16.49-7.35,34.67-9.41,52.95-8.86C192.33,128.09,186.51,125.48,182.14,123.72Z"/><path class="cls-4" d="M109.94,144.31a78.67,78.67,0,0,0-5,10.21,58.34,58.34,0,0,0-2.27,6.51c-.56,2.1-.87,4.37.27,6.33a1.38,1.38,0,0,1,.12,1.22l.41.41c.23.22.46.43.7.63l.37.3.2.16,0,0,.12.09.17.12.43.3c.25.18.52.36.78.52.53.34,1.08.64,1.64.93a.66.66,0,0,1,.15.14q1.17-2.1,2.47-4.11a72.83,72.83,0,0,1,10.45-12.7A23.36,23.36,0,0,1,109.94,144.31Z"/><path class="cls-5" d="M102.16,171.84c-.81,2.3-1.58,4.61-2.27,6.95-.92,3.15-3,8-1.26,11.2s2.73-1.76,3.28-3.54a74.56,74.56,0,0,1,4.75-11.69,1.86,1.86,0,0,1-.31-.1A22.29,22.29,0,0,1,102.16,171.84Z"/><path class="cls-6" d="M323.22,159c-.49-7.2-1.2-15.37-6.21-21-4.23-4.71-10.78-6.85-14-12.33-8.91,6.59-18.27,13.92-22.76,24.29A105.58,105.58,0,0,1,293,157c6.37,4.15,12.6,7.85,18.49,12.19l0,0,10-10A1.49,1.49,0,0,1,323.22,159Z"/><path class="cls-7" d="M213.1,115.24q-5-5.38-10-10.78-3-3.27-6.07-6.55A10.79,10.79,0,0,1,195,95a102.53,102.53,0,0,0-10.93,8.68c-3.56,3.26-7.87,6.91-9.07,11.78a1.3,1.3,0,0,1-.86,1c3.35,2.53,7.73,3.88,11.49,5.53,4.89,2.14,9.81,5.41,11.54,10.53C199.43,124.25,207.21,120.58,213.1,115.24Z"/><path class="cls-8" d="M294.2,128.65c.41-2.49-2.44-4.55-4.12-5.94-1.84-1.52-3.63-3.34-4.18-5.67a61.47,61.47,0,0,0-5.33,5,7.77,7.77,0,0,1-7,2.74,1.62,1.62,0,0,1-1.09,1.28l-.58.2h-.05l-.24.11c-.34.16-.67.33-1,.52s-.62.4-.93.62l0,0-.19.15-.42.37c-.27.25-.53.52-.78.79a5.71,5.71,0,0,0-.39.47,2.65,2.65,0,0,0-.17.22c-.2.29-.38.58-.56.89.48.42,1,.83,1.42,1.26,4.47,4.17,8.42,9.36,9.74,15.34C282,139.7,287.82,133.86,294.2,128.65Z"/><path class="cls-9" d="M155.21,110.61a36,36,0,0,1,6.8,7.78,25.78,25.78,0,0,0,5.65-6.49,1.53,1.53,0,0,1,2.6,0,11.92,11.92,0,0,0,1.85,2.68c1.31-5.26,5.65-9.2,9.49-12.75l.22-.19h0c1.7-5.27-4.46-8.57-8-10.9a38.4,38.4,0,0,1-9.49-8.84c-2.13,3.52-5,6.53-7.68,9.62-3.18,3.65-6.37,7.85-6.89,12.82a1.61,1.61,0,0,1-1.74,1.43c.81.53,1.72,1,2.52,1.44A37.17,37.17,0,0,1,155.21,110.61Z"/><path class="cls-10" d="M264.67,132.25a1.61,1.61,0,0,1-.72-.62h0q-.68-.59-1.35-1.14a16.73,16.73,0,0,0-2.54-2.08c-1-.51-2.17.12-3.14.48a23.94,23.94,0,0,0-12,10.18,154,154,0,0,1,30.47,8.75C274.09,141.56,269.49,136.49,264.67,132.25Z"/><path class="cls-11" d="M249.44,129.64a25.25,25.25,0,0,1,4.57-2.76,20.8,20.8,0,0,1,4-1.53c-.06-.19-.11-.38-.18-.57s-.07-.21-.11-.31l0-.06a5.12,5.12,0,0,0-.31-.62,6,6,0,0,0-.38-.64l-.18-.27-.1-.14-.07-.08a1.47,1.47,0,0,1-.1-.13l-.25-.27c-.16-.17-.32-.34-.49-.49a1.37,1.37,0,0,1-.43-1.06l-.56-.1c-5.13-.89-10.28-1.69-15.42-2.52-2.9-.46-5.43-.23-7.34-2,0,0,0,0,0,0a.86.86,0,0,1-.07.1l-.18.29a4.66,4.66,0,0,0-.25.5,5.77,5.77,0,0,0-.3,1.08,5.35,5.35,0,0,0,0,1,1.21,1.21,0,0,1-.09.54c5.82,4.53,10.94,9.61,11.41,17.53a.76.76,0,0,1,0,.15A27.23,27.23,0,0,1,249.44,129.64Z"/><path class="cls-12" d="M239.51,137.1c-.32-5.46-4-10-8-13.44s-8.82-6.36-12.86-10c-.45.57-.94,1.11-1.44,1.64,1.23,1.42-.85,3.49-2.15,2.08-2,1.75-4.1,3.31-6.19,4.92-3.69,2.85-7.43,6.18-8.79,10.77a359.65,359.65,0,0,1,39.94,5.11A1.45,1.45,0,0,1,239.51,137.1Z"/><path class="cls-13" d="M293.34,121.52a11.25,11.25,0,0,1,3.61,4.94c1.92-1.48,3.86-2.93,5.78-4.34.86-.64,1.88.09,2.2.89a10.15,10.15,0,0,0,1.95,3,208.13,208.13,0,0,1,13.77-17.42,1.68,1.68,0,0,1-.58-.8l0-.13-.17-.31,0-.06h0c-.09-.08-.17-.18-.26-.27s-.42-.3-.06-.06l-.32-.22a6.54,6.54,0,0,0-.59-.3l-.24-.11-.4-.14-.84-.25-1.75-.43c-2.37-.58-4.8-1.44-5.83-3.78a1.46,1.46,0,0,1-1-1.35,2.55,2.55,0,0,0-2.11-2.05,6.07,6.07,0,0,0-4,.8,30.22,30.22,0,0,0-6.43,4.36c-3.75,3.28-6.87,7.59-7.19,12.7v.05C289.2,118.52,291.69,120.12,293.34,121.52Z"/><path class="cls-14" d="M346,131c-5.28-9-16.38-13.48-20.64-23.13A203.13,203.13,0,0,0,309.14,128l-.07.08c1,.79,2,1.5,3,2.19,3,2,6,4.1,8.21,7,4.07,5.39,5.16,12.28,5.71,18.92A52.75,52.75,0,0,1,346,131Z"/><path class="cls-15" d="M369.31,202.05c1.82-2.91,4.64-5.19,7.4-7.23,3.74-2.78,8.59-6.09,9.1-11.16a1.51,1.51,0,0,1,1.35-1.44,27.65,27.65,0,0,0-3.57-7.43,41.3,41.3,0,0,0-8.47-8.94c-.86-.69-1.75-1.34-2.65-2a9.46,9.46,0,0,0-2.38-1.53c-1-.25-2.34,1.08-3.12,1.57l-3.07,2c-4.14,2.63-8.55,5.07-12.29,8.27a18.92,18.92,0,0,0-5.77,7.75C354.88,187,364.38,192.79,369.31,202.05Z"/><path class="cls-16" d="M391,186.05c1,.88,2.23,1.64,3.31,2.41,1.94-3.45,1.43-8,.67-11.72s-1.79-7.76-1.58-11.64a11.11,11.11,0,0,0-1.27,2.32,1.55,1.55,0,0,1-1.52,1,60.36,60.36,0,0,0-3.35,6.61A28,28,0,0,1,391,186.05Z"/><path class="cls-17" d="M376.05,161.42a1.23,1.23,0,0,1-.36,1.08c.58.45,1.15.9,1.7,1.35a43.58,43.58,0,0,1,7.9,8.21,61.41,61.41,0,0,1,4.11-7.45,1.58,1.58,0,0,1,.29-.34c-3.72-9.69-3.5-20.71-7.84-30.14a19.21,19.21,0,0,1-1.72,3.75,1.33,1.33,0,0,1-.24.31A42.07,42.07,0,0,0,376.05,161.42Z"/><path class="cls-18" d="M392.86,191.15c-.36-.3-.74-.6-1.14-.88-.69-.49-1.36-1-2-1.5a1.53,1.53,0,0,1-1.64-1.44v0l-.15-.16c-1.47,3.56-4.46,6.3-7.57,8.67-3.57,2.72-7.88,5.43-9.46,9.8.13.36.28.71.4,1.08a1.34,1.34,0,0,1,0,.76l.38.3c.83.64,1.65,1.29,2.46,2a31.77,31.77,0,0,1,4.38,4.45,29.53,29.53,0,0,1,6.31,16.77c1.11-3.16,3.57-5.64,6.1-7.91,2.86-2.57,6.3-5.21,7.21-9.1a1.5,1.5,0,0,1-1.39-2.23,16.33,16.33,0,0,0,.29-15.46,15.36,15.36,0,0,0-2.7-3.72A1.63,1.63,0,0,1,392.86,191.15Z"/><path class="cls-19" d="M175.11,88c.88.59,1.76,1.16,2.66,1.74,3.24,2.11,6.66,5.24,7.24,9.1A108.55,108.55,0,0,1,195.45,91a1.51,1.51,0,0,1,2.2,1.69c-.29,1,.48,1.89,1.11,2.61.39.46.8.91,1.22,1.35a39.38,39.38,0,0,1,8-12,60.07,60.07,0,0,0-11-16.24,73.2,73.2,0,0,0-12.58,7.4,63.28,63.28,0,0,0-6.17,5.15c-1.6,1.54-3.59,3.69-3.05,6.09A1.52,1.52,0,0,1,175.11,88Z"/><path class="cls-20" d="M336.29,171.28c2.78,2.64,5.81,5.4,7,9.05a23.1,23.1,0,0,1,7.42-9.3c4.44-3.47,9.41-6.29,14.15-9.31,1.93-1.23,4-3,6.27-2.18a56.34,56.34,0,0,0-3.84-8.08,36.19,36.19,0,0,0-6.16-7.42c-3.89-3.76-8.17-7.46-10.2-12.54-.47.26-.93.54-1.39.82a1.67,1.67,0,0,1-1.58,1c-1.66-.12-5.74,4.39-6.91,5.51a50.3,50.3,0,0,0-6.46,7.51,49.09,49.09,0,0,0-4.84,8.67c-1,2.2-2.6,4-2.69,5.91a3.82,3.82,0,0,0,.73,2.35C329.74,166.2,333.71,168.83,336.29,171.28Z"/><path class="cls-21" d="M261.08,125.57a15.9,15.9,0,0,1,3,2.22l.81.68a12.09,12.09,0,0,1,2.06-2.52,13,13,0,0,1,2.81-2l-1.75-.49c-2.8-.8-5.64-1.44-8.5-2a10.31,10.31,0,0,1,1.59,3.92A1,1,0,0,1,261.08,125.57Z"/><path class="cls-22" d="M340.76,182.88c-.28-4.44-4.71-7.69-7.66-10.5l-10.54-10-8.7,8.71a78.33,78.33,0,0,1,7.85,7,105.58,105.58,0,0,1,10.85,13.06q4.05-3.95,8.41-7.55A1.6,1.6,0,0,1,340.76,182.88Z"/><path class="cls-23" d="M336.1,115.45a1.36,1.36,0,0,1-.34.64c.69.62,1.38,1.22,2.07,1.82,3.95,3.43,8.08,6.91,10.75,11.46.79-.47,1.59-.91,2.41-1.33a1.55,1.55,0,0,1,1.92.36,33.34,33.34,0,0,1,10.61-13.83,1.39,1.39,0,0,1,1.58.06c-.58-3.58-3.22-6.46-5.57-9A38.75,38.75,0,0,1,353.71,98l-.95,1.15a1.28,1.28,0,0,1-2.08-.09l-.17.21a1.68,1.68,0,0,1-.34.27,1.91,1.91,0,0,1-.86.69A22.49,22.49,0,0,0,336.1,115.45Z"/><path class="cls-24" d="M313.79,101.93l.24.09.4.14a8.29,8.29,0,0,0,.85.25c.58.16,1.16.29,1.75.44,2.25.55,4.6,1.37,5.65,3.52.74-.82,1.46-1.64,2.21-2.45a1.52,1.52,0,0,1,2.51.67,21.88,21.88,0,0,0,6,9.3,25.66,25.66,0,0,1,14.71-16.36,1.9,1.9,0,0,1,.25-.35c.9-1-3.2-3.39-3.82-3.73-1.73-1-3.58-1.72-5.39-2.52-3.12-1.38-6.23-3-8.25-5.75A46.87,46.87,0,0,0,313.82,101a1.59,1.59,0,0,1-.67.58l0,0C313.38,101.74,313.59,101.83,313.79,101.93Z"/><path class="cls-25" d="M354.67,132.42c2.33,4.1,6.3,7.22,9.6,10.52a36.49,36.49,0,0,1,6.14,7.95c.87,1.57,1.64,3.2,2.35,4.85a45.31,45.31,0,0,1,4.59-19.19,1.67,1.67,0,0,1,.32-.44c.19-.32.35-.66.52-1a1.6,1.6,0,0,1-1.71-1.44,51.71,51.71,0,0,0-7-21.38,22.12,22.12,0,0,1-1.17,3,1.45,1.45,0,0,1-.38.51,1.64,1.64,0,0,1-1.28.7,1.39,1.39,0,0,1-1-.37,1.89,1.89,0,0,1-.68,1A29.75,29.75,0,0,0,354.67,132.42Z"/><path class="cls-26" d="M202,98.78l4.65,5q4.31,4.67,8.63,9.32a21.28,21.28,0,0,0,2-2.46,1.51,1.51,0,0,1,2.35-.3,46.64,46.64,0,0,0,8.66,6.9A30.12,30.12,0,0,0,227.54,95c-.64-1.39-9.7-15.2-10.14-14.76-.65.65-1.31,1.3-2,2a1.47,1.47,0,0,1-.51.34l-.16.13a35.39,35.39,0,0,0-12.08,15.23A1.89,1.89,0,0,1,202,98.78Z"/><path class="cls-27" d="M289.38,336.43a29,29,0,0,1,5.18,4.64,20.92,20.92,0,0,1,5-8.73Q294.52,334.53,289.38,336.43Z"/><path class="cls-28" d="M322.42,331.35l-1.1-1c-.55-.51-1.5-2.08-2.21-2.26l-.21-.16c-.2-.14-.4-.28-.61-.41a11.78,11.78,0,0,0-1.36-.72l-.05,0-.09,0-.37-.14c-.23-.08-.47-.15-.71-.21s-.47-.12-.71-.17l-.28,0-.26,0a1.77,1.77,0,0,1-1.09-.51c-1.59.85-3.2,1.69-4.82,2.5-3,1.48-5.81,4.51-7.81,7.36a31.2,31.2,0,0,0-2.19,4.68c-.83,1.73-2.62,4-2.07,6a3.16,3.16,0,0,0,2.85,2.08,9,9,0,0,0,3.67-.68,159.44,159.44,0,0,0,18.8-7.75,6.48,6.48,0,0,0,2.09-1.39,4.56,4.56,0,0,0,.2-5.14A8.07,8.07,0,0,0,322.42,331.35Z"/><path class="cls-29" d="M229.36,349.78c-.85.13-1.7.25-2.55.39a134,134,0,0,1-17.88,1.76,17.88,17.88,0,0,1,7.79,12.28l1.93-.08a13.29,13.29,0,0,1,4-9.78A23.23,23.23,0,0,1,229.36,349.78Z"/><path class="cls-30" d="M321.85,320.84c-1.61,1-3.25,1.91-4.89,2.83a12.74,12.74,0,0,1,6.77,5.07,35.35,35.35,0,0,1,5.43-13.05A53.47,53.47,0,0,1,321.85,320.84Z"/><path class="cls-31" d="M253.7,346.38c-2.75.54-5.49,1-8.22,1.34a38.43,38.43,0,0,1,10.92,9.76l1.37-.38A21.94,21.94,0,0,1,264.63,344Q259.19,345.3,253.7,346.38Z"/><path class="cls-32" d="M241.43,348.92a1.35,1.35,0,0,1-.58-.6c-.61-1.3-6.62,1.58-7.39,2a40.46,40.46,0,0,0-7.64,5.25c-.56.51-5.67,8.48-4.18,8.38,3.4-.25,6.94-1.08,10.3-1a46.77,46.77,0,0,0,10.61-1l5.18-1c1.33-.25,2.67-.51,4-.85,3.72-1-.83-4.57-2.15-5.75A35.86,35.86,0,0,0,241.43,348.92Z"/><path class="cls-33" d="M293.7,343.07c-.55-.52-1.11-1-1.55-1.38-1.56-1.39-3.3-4.12-5.69-3.91s-4.53,1.71-6.79,2.31-4.23,1.05-6.36,1.51c-4.28.93-7.9,4.21-10.23,7.81a10.3,10.3,0,0,0-1.76,7.65,1.35,1.35,0,0,0,.49.92,1.55,1.55,0,0,0,.95.14c10.44-.86,20.44-4.45,30.22-8.2a4.69,4.69,0,0,0,2.64-1.84C296.56,346.26,295.16,344.47,293.7,343.07Z"/><path class="cls-34" d="M363.85,208c1.1-.72,2.45-1.92,3.85-2.18,0,0,0-.08,0-.13-4-9.79-13.62-15.67-22.57-20.72,0,0,0,.09,0,.13a1.6,1.6,0,0,1-2.63,1.06c-2.86,2.38-5.61,4.89-8.26,7.5a105.34,105.34,0,0,1,12.82,27.1q5.32-4.65,11.05-8.82C360,210.57,361.92,209.26,363.85,208Z"/><path class="cls-35" d="M399.05,219.09a32.59,32.59,0,0,1-4.87,5.09c-2.84,2.53-6.59,5.41-6.89,9.53a1.6,1.6,0,0,1-2.49,1.17c0,.34-.06.68-.1,1a1.61,1.61,0,0,1-1.38,1.39c.48,1.16,1.17,2.25,1.74,3.36a34.22,34.22,0,0,1,2.44,6.07,33.69,33.69,0,0,1,1.22,12.15,40.69,40.69,0,0,0,10.84-19.64,40.22,40.22,0,0,0,.93-11.93A63.38,63.38,0,0,0,399.05,219.09Z"/><path class="cls-36" d="M351.12,312.39c-2.34-2-5.47-2.78-7.92-4.66a9.65,9.65,0,0,1-2-2.15c.12.17-5.43,6.16-5.92,6.78a51.84,51.84,0,0,0-5.27,7.72,36.28,36.28,0,0,0-3.2,8.61c-.53,2.12-1.9,5.73-.12,7.58,1.23,1.28,3.35.75,5,.14,7.67-2.84,15.45-5.73,22.1-10.5C358.55,322.48,354.42,315.25,351.12,312.39Z"/><path class="cls-37" d="M388.36,265.08c-1.54,1.95-3.88,3.3-5.82,4.87a28.66,28.66,0,0,0-6.09,6.87c0,.06,0,.12,0,.19a41.26,41.26,0,0,1-3.1,9.94,1.23,1.23,0,0,1-.62.59c.2.25.4.51.57.77,1.24,1.81,1.73,3.88,2.58,5.81-.34-.76,6.23-7.36,6.9-8.4,1.94-3,3.57-6.51,5.22-9.69a11.56,11.56,0,0,0,1.64-6.7A15.62,15.62,0,0,0,388.36,265.08Z"/><path class="cls-38" d="M369.68,287.91c-1.37-1.22-3.76-3.37-3.08-3.93a56.68,56.68,0,0,1-12.7,7.69c-4,1.83-9,3.9-10.72,8.38a1.6,1.6,0,0,1-.28.48,1.72,1.72,0,0,1,0,.64c-.62,3.25,3.4,5.08,5.71,6.21a16.28,16.28,0,0,1,5.62,4c1.18,1.42,1.39,5.64,2.72,6.46,1.88,1.16,3.94-2.65,4.5-3.9.68-1.5,1.13-3.1,1.77-4.62a42.83,42.83,0,0,1,4.29-7c1.36-2,3.57-3.43,4.4-5.77A8.52,8.52,0,0,0,369.68,287.91Z"/><path class="cls-39" d="M351.61,248.61c0,1.52,0,3,0,4.58a6.88,6.88,0,0,1,1-1.09c5.18-10.93,17.66-14.12,27.84-18.82a1.76,1.76,0,0,1,1.44,0,26.61,26.61,0,0,0-1.24-8.93,25.67,25.67,0,0,0-5-9,32.47,32.47,0,0,0-4.16-4c-.79-.65-1.6-1.28-2.41-1.89a9.61,9.61,0,0,0-1-.72c-.16.09-.3.2-.45.29a142.73,142.73,0,0,0-19.27,14.46,1.53,1.53,0,0,1-.45.28,101.22,101.22,0,0,1,2.95,15Q351.5,243.69,351.61,248.61Z"/><path class="cls-40" d="M351.1,289.67c2.53-1.17,5.07-2.27,7.48-3.68a46.62,46.62,0,0,0,7.82-5.78,1.52,1.52,0,0,1,2.56,1.06,7,7,0,0,0,1.85,4,38.41,38.41,0,0,0,1.87-5.29,1.42,1.42,0,0,1-.57-1.14c-.15-6.11-5.33-10.26-10.2-13-3.86-2.21-9-4.3-10-9a1,1,0,0,1-.42.13,111.75,111.75,0,0,1-5.13,28.54c-1,3.25-2.18,6.49-3.48,9.66A25.59,25.59,0,0,1,351.1,289.67Z"/><path class="cls-41" d="M340,302.55a7.46,7.46,0,0,1-.05-.95c-.4.76-.81,1.51-1.23,2.26l1-1.05A1.52,1.52,0,0,1,340,302.55Z"/><path class="cls-42" d="M203.84,352.78a1.46,1.46,0,0,1-.94-.85c-1.59-.05-3.17-.11-4.76-.23a71.25,71.25,0,0,1-9.2-1.31,16.55,16.55,0,0,0-5.25,3.86,15.57,15.57,0,0,0-2,2.73c-.25.42-.47.85-.68,1.29,1.5.46,3,.91,4.5,1.33A113.55,113.55,0,0,0,208,364c1.91.14,3.82.21,5.73.22A14.69,14.69,0,0,0,203.84,352.78Z"/><path class="cls-43" d="M384.35,246.68a34.46,34.46,0,0,0-2.68-6,17.51,17.51,0,0,1-1.68-3.95c-9.22,3.93-20.86,7.2-25,17.18a1.54,1.54,0,0,1-.71.79,1.48,1.48,0,0,1,.43,1c.17,2.37,2.38,3.93,4.23,5.05,2.37,1.44,4.89,2.6,7.2,4.16,3.56,2.42,6.73,5.67,8.15,9.68a31,31,0,0,1,5.18-6c1.39-1.23,2.93-2.25,4.4-3.38a7.38,7.38,0,0,0,2.91-3.63,1.21,1.21,0,0,1-1.21-1.42A31.66,31.66,0,0,0,384.35,246.68Z"/><path class="cls-44" d="M184.71,349.38c-2.5-.67-5-1.46-7.36-2.34a19,19,0,0,1,2.77,6.88A19.78,19.78,0,0,1,184.71,349.38Z"/><path class="cls-45" d="M170.6,344.34c-3.5-1.52-7-3.19-10.5-4.94a1.19,1.19,0,0,1-.56.28,8.35,8.35,0,0,0-1.49.38l-.34.12-.05,0h0c-.24.11-.47.22-.69.34a11.86,11.86,0,0,0-1.21.78l-.11.08-.27.23-.56.53-.52.57-.23.28c.23-.28,0,0-.05.07a9.87,9.87,0,0,0-.8,1.32l-.16.32-.07.17q-.12.28-.21.57c-.08.25-.15.5-.21.76a128,128,0,0,0,24.94,10.94,2.28,2.28,0,0,1-.06-.39A15.78,15.78,0,0,0,170.6,344.34Z"/><path class="cls-46" d="M144.79,332.6a29.2,29.2,0,0,0-4.7-6.62c-.29-.3-.66-.63-1.08-.56s-.74.81-.75,1.39c-.08,3.66,1.5,7.06,3.27,10.17a11.33,11.33,0,0,0,2.67,3.7c.68.53,4.13,2.29,4.27,3A39.86,39.86,0,0,0,144.79,332.6Z"/><path class="cls-47" d="M145.2,331.29c-.2,1.08,1.16,2.24,1.63,3.19a20.64,20.64,0,0,1,.73,2,22.54,22.54,0,0,0,.94,2.21c.4.86,1.14,3.62,1.94,4.1s.63.13,1.11-.61a10.83,10.83,0,0,1,1.64-2.6c.38-.36,2.63-2.32,3.16-2.05C152.61,335.63,149.09,332.83,145.2,331.29Z"/><path class="cls-48" d="M270.66,73.61l-1.1,2.17a1,1,0,0,1-.59.46.82.82,0,0,1-.27,0,69.13,69.13,0,0,1,3.76,11.31,44.18,44.18,0,0,1,.92,9.8,78,78,0,0,1,7.54-8,81.05,81.05,0,0,1,16.77-11.83.93.93,0,0,1-.52-1.1A138.11,138.11,0,0,1,312.73,39a83.24,83.24,0,0,0-42,34.06A1.17,1.17,0,0,1,270.66,73.61Z"/><path class="cls-49" d="M281.62,56.37A85.55,85.55,0,0,1,294,46.3c2.81-6.14,1-13.32,2.4-19.86-2.53,1.88-5,3.81-7.45,5.83-1.49,1.25-3,2.52-4.42,3.82a9.89,9.89,0,0,0-3,5.19C280.36,46,281.71,51.65,281.62,56.37Z"/><path class="cls-50" d="M250.2,45.44a1.06,1.06,0,0,1-1.49.87c4.74,6.47,9.15,13.42,10.66,21.42,1.08-2,2.17-4.07,3.26-6.11.51-1,1.77-.41,1.86.5a44.35,44.35,0,0,0,3.22,11.65c.06-.08.11-.16.18-.24a8,8,0,0,1,.64-.66.64.64,0,0,0,0-.07,86.18,86.18,0,0,1,7.76-10.74q1.81-2.14,3.77-4.15a.88.88,0,0,1-.47-.83c.13-6.69.27-13.54-1.73-20-1-3.19-2.54-6.16-3.71-9.29a33.26,33.26,0,0,1-1.72-6.42l-17,32.39c-.6,1.14-2.33.12-1.73-1q3.14-6,6.28-12a.82.82,0,0,1-.18-.41A37.67,37.67,0,0,0,248.55,19,100.33,100.33,0,0,1,250.2,45.44Z"/><path class="cls-51" d="M271.16,101a.76.76,0,0,1,.07-.93l0,0a41.94,41.94,0,0,0-1.47-15c-1.95-6.74-5.4-13-6.81-19.86l-6,11.23c-2.29,4.31-4.68,8.6-6.76,13-3.87,8.26-6.54,18.22-2.19,26.85a.58.58,0,0,1,0,.18l.54,0a104.8,104.8,0,0,1,16.54,2.38A41.92,41.92,0,0,0,270,107.77,42.78,42.78,0,0,0,271.16,101Z"/><path class="cls-52" d="M237.78,63.42c3,3.21,5.15,7,7.61,10.6a30.32,30.32,0,0,1,4.91,10.42c1.69-1.58,2.59-4.53,3.68-6.58,1.38-2.62,3.52-6.33,3.62-9.22.16-4.3-2.91-9.24-5-12.81a99.3,99.3,0,0,0-6.71-9.93c-2.25-3-4.53-6.06-7-8.94-4.17-4.89-9-9.43-15.1-11.68a165,165,0,0,1,12.79,37C237,62.67,237.42,63,237.78,63.42Z"/><path class="cls-53" d="M243.83,105.55a39.47,39.47,0,0,1,3-13.31c1.23-3.08,2.26-4.45,1.52-7.78A31.88,31.88,0,0,0,244,74.64a61.51,61.51,0,0,0-8.21-10.4c-4.67-4.79-10.41-8.28-16.24-11.5a71.73,71.73,0,0,1,10.68,37.11.91.91,0,0,1-.63.9A36.84,36.84,0,0,1,232.82,105c.06,3.8-.27,8.49,3.85,10.32a15.13,15.13,0,0,0,5.46,1l3.77.12A25,25,0,0,1,243.83,105.55Z"/><path class="cls-54" d="M273.19,100.82a44.86,44.86,0,0,1-6,18.56c3,.75,6,1.62,9,2.64a52.73,52.73,0,0,0,9.82-10.36c2.86-3.82,5.44-7.84,8.18-11.75a121.27,121.27,0,0,1,9.2-11.62,116.54,116.54,0,0,1,19.35-17.17A76.72,76.72,0,0,0,313,73.37,78.52,78.52,0,0,0,273.19,100.82Z"/><path d="M326.82,68.58a79.92,79.92,0,0,0-27.67,8.19,136,136,0,0,1,16.73-39.15,1,1,0,0,0-1.13-1.47,85,85,0,0,0-18,8.39c1.76-6.6-.11-13.91,2.43-20.42A1,1,0,0,0,297.71,23q-5.58,4-10.84,8.45c-1.65,1.39-3.36,2.76-4.88,4.29a8.89,8.89,0,0,0-1.76,2.4c-.05-.24-.1-.47-.17-.7a91.34,91.34,0,0,0-3.63-9.3,32.33,32.33,0,0,1-2.37-10.06c-.06-.93-1.38-1.44-1.87-.51q-5.37,10.26-10.76,20.5a39.32,39.32,0,0,0-13.76-22.51,1,1,0,0,0-1.67,1,98.63,98.63,0,0,1,2.2,28.92.71.71,0,0,0,0,.21c-4.51-6.1-9.09-12.46-15-17.24a29.93,29.93,0,0,0-11-5.76,1,1,0,0,0-1.13,1.47,163.46,163.46,0,0,1,13,35.8c-5.13-4.34-11.13-7.64-17-10.83-.82-.45-2,.5-1.37,1.37a69.76,69.76,0,0,1,12.56,39.39s0,0,0,0a1.06,1.06,0,0,0-.57,1.41,34.44,34.44,0,0,1,3.14,14.12c0,3.76,0,8,3.18,10.63,3,2.36,7.06,2.23,10.64,2.31a102.55,102.55,0,0,1,14.95,1.45c1.75.3,3.48.66,5.2,1a1.11,1.11,0,0,0,1.15.28c2.85.67,5.67,1.47,8.46,2.38-.4.81.45,2,1.35,1.33,7.8-5.4,13-13.39,18.27-21.11A124.36,124.36,0,0,1,313.63,81a114.28,114.28,0,0,1,13.69-10.51C328.08,70,327.88,68.46,326.82,68.58Zm-45.31-27.3a9.89,9.89,0,0,1,3-5.19c1.45-1.3,2.93-2.57,4.42-3.82,2.43-2,4.92-4,7.45-5.83-1.36,6.54.41,13.72-2.4,19.86a85.55,85.55,0,0,0-12.4,10.07C281.71,51.65,280.36,46,281.51,41.28Zm21.84,1.8A82.25,82.25,0,0,1,312.73,39a138.11,138.11,0,0,0-15.56,37.47.93.93,0,0,0,.52,1.1,81.05,81.05,0,0,0-16.77,11.83,78,78,0,0,0-7.54,8,44.18,44.18,0,0,0-.92-9.8,69.13,69.13,0,0,0-3.76-11.31.82.82,0,0,0,.27,0,1,1,0,0,0,.59-.46l1.1-2.17a1.17,1.17,0,0,0,.12-.58A82,82,0,0,1,303.35,43.08Zm-43.52-2.71a.82.82,0,0,0,.18.41q-3.15,6-6.28,12c-.6,1.13,1.13,2.15,1.73,1l17-32.39a33.26,33.26,0,0,0,1.72,6.42c1.17,3.13,2.72,6.1,3.71,9.29,2,6.46,1.86,13.31,1.73,20a.88.88,0,0,0,.47.83q-1.95,2-3.77,4.15a86.18,86.18,0,0,0-7.76,10.74.64.64,0,0,1,0,.07,8,8,0,0,0-.64.66c-.07.08-.12.16-.18.24a44.35,44.35,0,0,1-3.22-11.65c-.09-.91-1.35-1.46-1.86-.5-1.09,2-2.18,4.07-3.26,6.11-1.51-8-5.92-15-10.66-21.42a1.06,1.06,0,0,0,1.49-.87A100.33,100.33,0,0,0,248.55,19,37.67,37.67,0,0,1,259.83,40.37Zm-36-15.09c6.07,2.25,10.93,6.79,15.1,11.68,2.45,2.88,4.73,5.91,7,8.94a99.3,99.3,0,0,1,6.71,9.93c2.05,3.57,5.12,8.51,5,12.81-.1,2.89-2.24,6.6-3.62,9.22-1.09,2-2,5-3.68,6.58A30.32,30.32,0,0,0,245.39,74c-2.46-3.6-4.61-7.39-7.61-10.6-.36-.39-.76-.75-1.14-1.13A165,165,0,0,0,223.85,25.28Zm18.28,91a15.13,15.13,0,0,1-5.46-1c-4.12-1.83-3.79-6.52-3.85-10.32a36.84,36.84,0,0,0-3.21-14.28.91.91,0,0,0,.63-.9,71.73,71.73,0,0,0-10.68-37.11c5.83,3.22,11.57,6.71,16.24,11.5A61.51,61.51,0,0,1,244,74.64a31.88,31.88,0,0,1,4.39,9.82c.74,3.33-.29,4.7-1.52,7.78a39.47,39.47,0,0,0-3,13.31,25,25,0,0,0,2.07,10.87Zm23.05,2.61a104.8,104.8,0,0,0-16.54-2.38l-.54,0a.58.58,0,0,0,0-.18c-4.35-8.63-1.68-18.59,2.19-26.85,2.08-4.42,4.47-8.71,6.76-13l6-11.23c1.41,6.87,4.86,13.12,6.81,19.86a41.94,41.94,0,0,1,1.47,15l0,0a.76.76,0,0,0-.07.93,42.78,42.78,0,0,1-1.21,6.73A41.92,41.92,0,0,1,265.18,118.91Zm38.26-30.62a121.27,121.27,0,0,0-9.2,11.62c-2.74,3.91-5.32,7.93-8.18,11.75A52.73,52.73,0,0,1,276.24,122c-3-1-6-1.89-9-2.64a44.86,44.86,0,0,0,6-18.56A78.52,78.52,0,0,1,313,73.37a76.72,76.72,0,0,1,9.82-2.25A116.54,116.54,0,0,0,303.44,88.29Z"/><path d="M270.4,36.43a1,1,0,0,0-1,1,43.27,43.27,0,0,1-1.46,9,1,1,0,0,0,1.93.53,45.58,45.58,0,0,0,1.53-9.57A1,1,0,0,0,270.4,36.43Z"/><path d="M290.71,37.77a1,1,0,0,0-1.83.24,10.13,10.13,0,0,1-.41,1.71c0,.14-.09.28-.14.41a1.19,1.19,0,0,1-.08.2s-.12.27,0,.11,0,.08,0,.11l-.09.2c-.06.14-.13.28-.2.41a1,1,0,1,0,1.72,1,11.88,11.88,0,0,0,1.22-3.63A1.09,1.09,0,0,0,290.71,37.77Z"/><path d="M297.42,55.21a1,1,0,0,0-1.36.36l-3.72,5A1,1,0,0,0,292.7,62a1,1,0,0,0,1.37-.36l3.71-5.05A1,1,0,0,0,297.42,55.21Z"/><path d="M286.11,68.23,278.8,81a1,1,0,0,0,1.72,1l7.31-12.73A1,1,0,0,0,286.11,68.23Z"/><path d="M261.85,80.51a1,1,0,0,0-1.23.7l-.84,4.23a1,1,0,1,0,1.92.53c.29-1.41.57-2.82.85-4.23A1,1,0,0,0,261.85,80.51Z"/><path d="M257.83,96.74a39.12,39.12,0,0,0-1.44,10.15,1,1,0,0,0,2,0,36.83,36.83,0,0,1,1.37-9.62A1,1,0,0,0,257.83,96.74Z"/><path d="M304.43,83.62a1,1,0,0,0-1.41,0,26.1,26.1,0,0,1-2.6,2.86,22.69,22.69,0,0,1-2.88,2.32,1,1,0,1,0,1,1.73,26.48,26.48,0,0,0,5.88-5.5A1,1,0,0,0,304.43,83.62Z"/><path d="M287.19,103.74a1,1,0,0,0-1.37.36,30.34,30.34,0,0,1-7.09,10c-.94.88.47,2.29,1.41,1.41a31.85,31.85,0,0,0,7.41-10.42A1,1,0,0,0,287.19,103.74Z"/><path d="M231.79,76.13,231,71.9a1,1,0,0,0-1.23-.7,1,1,0,0,0-.7,1.23l.84,4.23a1,1,0,0,0,1.23.7A1,1,0,0,0,231.79,76.13Z"/><path d="M237.85,107.27a22.77,22.77,0,0,1-2.6-11.67c.06-1.29-1.94-1.29-2,0a24.75,24.75,0,0,0,2.87,12.68C236.72,109.42,238.45,108.41,237.85,107.27Z"/><path d="M235.25,46.47A35.32,35.32,0,0,0,232.59,38a1,1,0,0,0-1.73,1,33.09,33.09,0,0,1,2.46,8,1,1,0,0,0,1.23.69A1,1,0,0,0,235.25,46.47Z"/><path d="M242.45,63.74c-.24-.41-.45-.82-.65-1.25a1.08,1.08,0,0,0-.08-.19c0,.08,0,.07,0,0s-.08-.19-.11-.28-.17-.48-.25-.72a12.5,12.5,0,0,1-.52-2.65,1,1,0,1,0-2,0,14.44,14.44,0,0,0,1.89,6.14,1,1,0,1,0,1.73-1Z"/><path d="M253.28,32.64a1,1,0,0,0-1.23-.69,1,1,0,0,0-.7,1.23,10,10,0,0,1,.4,1.45,6.79,6.79,0,0,1,.15,1.23,8.46,8.46,0,0,1-.29,2.72,1,1,0,0,0,1.93.53A11.07,11.07,0,0,0,253.28,32.64Z"/><path d="M390.1,261.75a43.73,43.73,0,0,0,13.31-35.4c-.42-4.31-2-8.48-2.13-12.81a1.59,1.59,0,0,0-1.31-1.43,19.37,19.37,0,0,0,.43-15.78,18.68,18.68,0,0,0-3.85-5.91c2.24-3.61,2.3-8,1.68-12.25-.82-5.59-3.17-11.34-1-16.92.48-1.24-1.15-2.35-2.2-1.69a14.13,14.13,0,0,0-2.95,2.46c-3.71-10.82-3.26-23-9.49-32.88a1.51,1.51,0,0,0-2.79.76,15.16,15.16,0,0,1-.48,2.32,54.92,54.92,0,0,0-9.15-24.54,1.52,1.52,0,0,0-2.8.75,16.76,16.76,0,0,1-.44,2.22,26.61,26.61,0,0,0-4.38-6.21c-2.61-2.93-5.68-5.8-7-9.6a1.51,1.51,0,0,0-2.5-.66l-1.71,2.06A6.36,6.36,0,0,0,349.2,93a24.79,24.79,0,0,0-5.77-3.45c-3.85-1.75-8.53-3.16-10.7-7.11a1.52,1.52,0,0,0-2.05-.53,49.89,49.89,0,0,0-19.36,17.47c-.75-2.81-3.73-4.39-6.64-4.05-3.4.4-6.58,2.7-9.23,4.75-4,3.13-7.43,7.21-8.91,12.05-1.88,1.45-3.66,3-5.47,4.53a25.15,25.15,0,0,0-3.05,2.59c-.78.87-1.67,2.18-2.94,2.35-1.76.24-4.76-1.22-6.49-1.7-4.21-1.17-8.42-2.39-12.73-3.14-7-1.2-13.93-2.26-20.89-3.38l-.26,0a35,35,0,0,0-1.7-5.67C234,96,225.84,85.56,218.55,77a1.52,1.52,0,0,0-2.12,0c-1,1-2,2-3.05,3l-.12.06c-1,.75-2,1.56-3,2.4a62.36,62.36,0,0,0-11.86-17,1.56,1.56,0,0,0-1.82-.24,74.38,74.38,0,0,0-15.37,9.21c-3.51,2.73-8.75,6.49-9.07,11.33-.35-.29-.71-.57-1.05-.88a34.84,34.84,0,0,1-5.67-6.57,1.52,1.52,0,0,0-2.59,0c-4.54,9.29-15,15-16.11,26a1.71,1.71,0,0,0,0,.32,3.79,3.79,0,0,1-.3-.4c-.76-1.23-1.12-2.73-2.71-3.13-1.83-.45-3.42,1.52-4.66,2.56-3.19,2.68-6.58,5.23-9.49,8.22a19.61,19.61,0,0,0-3.82,5.29,1.55,1.55,0,0,0-2.5.09c-2.91,4-6,7.9-8.66,12.09-2,3.19-3.52,6.72-3.41,10.45a1.52,1.52,0,0,0-2.26.36,84.24,84.24,0,0,0-7.25,14.38c-1.57,4.05-3.62,9-1.86,13.28a1.51,1.51,0,0,0,.15,1.89l.06.07c-2.67,7.18-6.28,16.31-5.47,23.52.18,1.63,1.65,4.35,3.71,4.09,1.88-.24,3.76-4.08,4.64-5.54,2.7-4.53,4.43-9.54,6.55-14.35a59.57,59.57,0,0,1,13.24-18.7c22.14-21.4,53.07-22.76,81.83-21.2,24,1.3,49.15,5.65,71.73,15.24a1.42,1.42,0,0,0,.74.32,133.19,133.19,0,0,1,28.07,16.2c22.78,17.35,40.52,42.11,43.13,71.5a112,112,0,0,1-4.1,41.8c-1.9,6.35-4.17,13.75-8.13,19.15a61.12,61.12,0,0,1-22.27,19.28A216.3,216.3,0,0,1,283,334.63,203.25,203.25,0,0,1,236.2,345c-15.38,1.53-30.46,3.63-45.9,1.16-10.82-1.73-21-6.12-30.65-11.12-5.71-2.95-11.06-6-16.17-9.28a50.34,50.34,0,0,0-5.86-4.19c-.74-.45-2.09-2.06-3.11-1.38-2.27,1.52.46,6.42,1.27,8.07,1.74,3.49,3.27,7.32,5.52,10.52a38.63,38.63,0,0,0,5.2,6.23c7.05,6.6,16.64,10.5,25.61,13.77a153.13,153.13,0,0,0,28.82,7.44,93.9,93.9,0,0,0,24.27.44,275.1,275.1,0,0,0,37.29-6.26c12.27-3,24.84-5.26,36.82-9.38,4.1-1.41,8.12-3,12.13-4.66L339,335.18c6.94-2.81,17-5.77,20.44-13a93.8,93.8,0,0,1,9.47-16.43c3.62-4.85,8.3-8.57,12-13.36,4.08-5.34,7.82-10.37,10.51-16.45a12.92,12.92,0,0,0,1.17-7.44A23.93,23.93,0,0,0,390.1,261.75Zm10.39-34.44a40.22,40.22,0,0,1-.93,11.93,40.69,40.69,0,0,1-10.84,19.64,33.69,33.69,0,0,0-1.22-12.15,34.22,34.22,0,0,0-2.44-6.07c-.57-1.11-1.26-2.2-1.74-3.36a1.61,1.61,0,0,0,1.38-1.39c0-.35.07-.69.1-1a1.6,1.6,0,0,0,2.49-1.17c.3-4.12,4-7,6.89-9.53a32.59,32.59,0,0,0,4.87-5.09A63.38,63.38,0,0,1,400.49,227.31ZM386.81,261.6a7.38,7.38,0,0,1-2.91,3.63c-1.47,1.13-3,2.15-4.4,3.38a31,31,0,0,0-5.18,6c-1.42-4-4.59-7.26-8.15-9.68-2.31-1.56-4.83-2.72-7.2-4.16-1.85-1.12-4.06-2.68-4.23-5.05a1.48,1.48,0,0,0-.43-1,1.54,1.54,0,0,0,.71-.79c4.11-10,15.75-13.25,25-17.18a17.51,17.51,0,0,0,1.68,3.95,34.46,34.46,0,0,1,2.68,6,31.66,31.66,0,0,1,1.25,13.5A1.21,1.21,0,0,0,386.81,261.6Zm10.27-65.36a16.33,16.33,0,0,1-.29,15.46,1.5,1.5,0,0,0,1.39,2.23c-.91,3.89-4.35,6.53-7.21,9.1-2.53,2.27-5,4.75-6.1,7.91a29.53,29.53,0,0,0-6.31-16.77,31.77,31.77,0,0,0-4.38-4.45c-.81-.67-1.63-1.32-2.46-2l-.38-.3a1.34,1.34,0,0,0,0-.76c-.12-.37-.27-.72-.4-1.08,1.58-4.37,5.89-7.08,9.46-9.8,3.11-2.37,6.1-5.11,7.57-8.67l.15.16v0a1.53,1.53,0,0,0,1.64,1.44c.64.51,1.31,1,2,1.5.4.28.78.58,1.14.88a1.63,1.63,0,0,0,1.52,1.37A15.36,15.36,0,0,1,397.08,196.24ZM329.73,155a49.09,49.09,0,0,1,4.84-8.67,50.3,50.3,0,0,1,6.46-7.51c1.17-1.12,5.25-5.63,6.91-5.51a1.67,1.67,0,0,0,1.58-1c.46-.28.92-.56,1.39-.82,2,5.08,6.31,8.78,10.2,12.54a36.19,36.19,0,0,1,6.16,7.42,56.34,56.34,0,0,1,3.84,8.08c-2.32-.83-4.34,1-6.27,2.18-4.74,3-9.71,5.84-14.15,9.31a23.1,23.1,0,0,0-7.42,9.3c-1.17-3.65-4.2-6.41-7-9.05-2.58-2.45-6.55-5.08-8.52-8a3.82,3.82,0,0,1-.73-2.35C327.13,159,328.78,157.21,329.73,155ZM326,156.24c-.55-6.64-1.64-13.53-5.71-18.92-2.22-2.95-5.2-5-8.21-7-1-.69-2.05-1.4-3-2.19l.07-.08a203.13,203.13,0,0,1,16.26-20.17C329.66,117.48,340.76,122,346,131A52.75,52.75,0,0,0,326,156.24Zm25.59,17.9c3.74-3.2,8.15-5.64,12.29-8.27l3.07-2c.78-.49,2.16-1.82,3.12-1.57a9.46,9.46,0,0,1,2.38,1.53c.9.63,1.79,1.28,2.65,2a41.3,41.3,0,0,1,8.47,8.94,27.65,27.65,0,0,1,3.57,7.43,1.51,1.51,0,0,0-1.35,1.44c-.51,5.07-5.36,8.38-9.1,11.16-2.76,2-5.58,4.32-7.4,7.23-4.93-9.26-14.43-15.07-23.47-20.16A18.92,18.92,0,0,1,351.61,174.14Zm40.48-6.72a11.11,11.11,0,0,1,1.27-2.32c-.21,3.88.81,7.84,1.58,11.64s1.27,8.27-.67,11.72c-1.08-.77-2.28-1.53-3.31-2.41a28,28,0,0,0-3.74-11,60.36,60.36,0,0,1,3.35-6.61A1.55,1.55,0,0,0,392.09,167.42Zm-12.2-29.23a1.33,1.33,0,0,0,.24-.31,19.21,19.21,0,0,0,1.72-3.75c4.34,9.43,4.12,20.45,7.84,30.14a1.58,1.58,0,0,0-.29.34,61.41,61.41,0,0,0-4.11,7.45,43.58,43.58,0,0,0-7.9-8.21c-.55-.45-1.12-.9-1.7-1.35a1.23,1.23,0,0,0,.36-1.08A42.07,42.07,0,0,1,379.89,138.19Zm-13.2-21.64a1.64,1.64,0,0,0,1.28-.7,1.45,1.45,0,0,0,.38-.51,22.12,22.12,0,0,0,1.17-3,51.71,51.71,0,0,1,7,21.38,1.6,1.6,0,0,0,1.71,1.44c-.17.33-.33.67-.52,1a1.67,1.67,0,0,0-.32.44,45.31,45.31,0,0,0-4.59,19.19c-.71-1.65-1.48-3.28-2.35-4.85a36.49,36.49,0,0,0-6.14-7.95c-3.3-3.3-7.27-6.42-9.6-10.52A29.75,29.75,0,0,1,365,117.16a1.89,1.89,0,0,0,.68-1A1.39,1.39,0,0,0,366.69,116.55Zm-17.38-16.28a1.91,1.91,0,0,0,.86-.69,1.68,1.68,0,0,0,.34-.27l.17-.21a1.28,1.28,0,0,0,2.08.09l.95-1.15a38.75,38.75,0,0,0,5.82,7.54c2.35,2.59,5,5.47,5.57,9a1.39,1.39,0,0,0-1.58-.06,33.34,33.34,0,0,0-10.61,13.83A1.55,1.55,0,0,0,351,128c-.82.42-1.62.86-2.41,1.33-2.67-4.55-6.8-8-10.75-11.46-.69-.6-1.38-1.2-2.07-1.82a1.36,1.36,0,0,0,.34-.64A22.49,22.49,0,0,1,349.31,100.27Zm-35.49.75a46.87,46.87,0,0,1,17.11-15.84c2,2.76,5.13,4.37,8.25,5.75,1.81.8,3.66,1.55,5.39,2.52.62.34,4.72,2.77,3.82,3.73a1.9,1.9,0,0,0-.25.35,25.66,25.66,0,0,0-14.71,16.36,21.88,21.88,0,0,1-6-9.3,1.52,1.52,0,0,0-2.51-.67c-.75.81-1.47,1.63-2.21,2.45-1.05-2.15-3.4-3-5.65-3.52-.59-.15-1.17-.28-1.75-.44a8.29,8.29,0,0,1-.85-.25L314,102l-.24-.09c-.2-.1-.41-.19-.6-.31l0,0A1.59,1.59,0,0,0,313.82,101Zm-25,15.19c.32-5.11,3.44-9.42,7.19-12.7a30.22,30.22,0,0,1,6.43-4.36,6.07,6.07,0,0,1,4-.8,2.55,2.55,0,0,1,2.11,2.05,1.46,1.46,0,0,0,1,1.35c1,2.34,3.46,3.2,5.83,3.78l1.75.43.84.25.4.14.24.11a6.54,6.54,0,0,1,.59.3l.32.22c-.36-.24,0,0,.06.06s.17.19.26.27h0l0,.06.17.31,0,.13a1.68,1.68,0,0,0,.58.8A208.13,208.13,0,0,0,306.88,126a10.15,10.15,0,0,1-1.95-3c-.32-.8-1.34-1.53-2.2-.89-1.92,1.41-3.86,2.86-5.78,4.34a11.25,11.25,0,0,0-3.61-4.94c-1.65-1.4-4.14-3-4.56-5.26ZM268,123.51l1.75.49a13,13,0,0,0-2.81,2,12.09,12.09,0,0,0-2.06,2.52l-.81-.68a15.9,15.9,0,0,0-3-2.22,1,1,0,0,0,0-.16,10.31,10.31,0,0,0-1.59-3.92C262.33,122.07,265.17,122.71,268,123.51Zm-53.2-40.86.16-.13a1.47,1.47,0,0,0,.51-.34c.65-.66,1.31-1.31,2-2,.44-.44,9.5,13.37,10.14,14.76a30.12,30.12,0,0,1,.65,22.28,46.64,46.64,0,0,1-8.66-6.9,1.51,1.51,0,0,0-2.35.3,21.28,21.28,0,0,1-2,2.46q-4.32-4.66-8.63-9.32l-4.65-5a1.89,1.89,0,0,0,.74-.9A35.39,35.39,0,0,1,214.77,82.65Zm-36.52-1.72a63.28,63.28,0,0,1,6.17-5.15A73.2,73.2,0,0,1,197,68.38a60.07,60.07,0,0,1,11,16.24,39.38,39.38,0,0,0-8,12c-.42-.44-.83-.89-1.22-1.35-.63-.72-1.4-1.6-1.11-2.61a1.51,1.51,0,0,0-2.2-1.69A108.55,108.55,0,0,0,185,98.82c-.58-3.86-4-7-7.24-9.1-.9-.58-1.78-1.15-2.66-1.74a1.52,1.52,0,0,0,.09-1C174.66,84.62,176.65,82.47,178.25,80.93Zm-28.52,23.41c.52-5,3.71-9.17,6.89-12.82,2.69-3.09,5.55-6.1,7.68-9.62a38.4,38.4,0,0,0,9.49,8.84c3.57,2.33,9.73,5.63,8,10.9h0l-.22.19c-3.84,3.55-8.18,7.49-9.49,12.75a11.92,11.92,0,0,1-1.85-2.68,1.53,1.53,0,0,0-2.6,0,25.78,25.78,0,0,1-5.65,6.49,36,36,0,0,0-6.8-7.78,37.17,37.17,0,0,0-4.7-3.4c-.8-.48-1.71-.91-2.52-1.44A1.61,1.61,0,0,0,149.73,104.34Zm-47.82,82.11c-.55,1.78-1.47,6.87-3.28,3.54s.34-8.05,1.26-11.2c.69-2.34,1.46-4.65,2.27-6.95a22.29,22.29,0,0,0,4.19,2.82,1.86,1.86,0,0,0,.31.1A74.56,74.56,0,0,0,101.91,186.45Zm8.58-18.35q-1.3,2-2.47,4.11a.66.66,0,0,0-.15-.14c-.56-.29-1.11-.59-1.64-.93-.26-.16-.53-.34-.78-.52l-.43-.3-.17-.12-.12-.09,0,0-.2-.16-.37-.3c-.24-.2-.47-.41-.7-.63l-.41-.41a1.38,1.38,0,0,0-.12-1.22c-1.14-2-.83-4.23-.27-6.33a58.34,58.34,0,0,1,2.27-6.51,78.67,78.67,0,0,1,5-10.21,23.36,23.36,0,0,0,11,11.09A72.83,72.83,0,0,0,110.49,168.1ZM138,143.19a70,70,0,0,0-14.81,10.1,1.27,1.27,0,0,0-.46-.33,20.63,20.63,0,0,1-10.06-9.87,1.57,1.57,0,0,0,1.63-1.87c-.84-4.12,1.32-8.06,3.54-11.38,1.89-2.82,3.93-5.55,6-8.29a10.78,10.78,0,0,0,1.45,2.48,1.62,1.62,0,0,0,1.1,1.39,23.39,23.39,0,0,1,12.52,12.33,1.17,1.17,0,0,0,.41.47,19.89,19.89,0,0,0-1.34,4.12A1.59,1.59,0,0,0,138,143.19Zm-4.52-17c-.78-.59-2.76-1.51-4.21-2.4a3.9,3.9,0,0,1-1.67-1.48c-.79-2.49,3.77-8.05,5.48-9.62s3.55-3,5.34-4.55l2.93-2.46a8.34,8.34,0,0,0,1.46-1.23l.27-.15c.42.56.62,1.36,1,1.94a7.88,7.88,0,0,0,2.11,2c1.66,1.12,3.47,2,5.1,3.18a33,33,0,0,1,8.33,8.9c-6.48,4.83-14.25,8.52-18.66,15A25.79,25.79,0,0,0,133.5,126.17Zm7.74,15.5c2-6.32,7.62-10.67,13-14.2s10.89-6.9,14.69-12c3.15,4.24,8.42,6.36,13.23,8.29,4.37,1.76,10.19,4.37,12.05,9.09C175.91,132.26,157.73,134.32,141.24,141.67Zm44.38-19.73c-3.76-1.65-8.14-3-11.49-5.53a1.3,1.3,0,0,0,.86-1c1.2-4.87,5.51-8.52,9.07-11.78A102.53,102.53,0,0,1,195,95a10.79,10.79,0,0,0,2.07,3q3,3.28,6.07,6.55,5,5.4,10,10.78c-5.89,5.34-13.67,9-15.94,17.23C195.43,127.35,190.51,124.08,185.62,121.94Zm14.49,11.13c1.36-4.59,5.1-7.92,8.79-10.77,2.09-1.61,4.23-3.17,6.19-4.92,1.3,1.41,3.38-.66,2.15-2.08.5-.53,1-1.07,1.44-1.64,4,3.64,8.74,6.44,12.86,10s7.65,8,8,13.44a1.45,1.45,0,0,0,.54,1.08A359.65,359.65,0,0,0,200.11,133.07Zm31-13.5a1.21,1.21,0,0,0,.09-.54,5.35,5.35,0,0,1,0-1,5.77,5.77,0,0,1,.3-1.08,4.66,4.66,0,0,1,.25-.5l.18-.29a.86.86,0,0,0,.07-.1s0,0,0,0c1.91,1.82,4.44,1.59,7.34,2,5.14.83,10.29,1.63,15.42,2.52l.56.1a1.37,1.37,0,0,0,.43,1.06c.17.15.33.32.49.49l.25.27a1.47,1.47,0,0,0,.1.13l.07.08.1.14.18.27a6,6,0,0,1,.38.64,5.12,5.12,0,0,1,.31.62l0,.06c0,.1.08.21.11.31s.12.38.18.57a20.8,20.8,0,0,0-4,1.53,25.25,25.25,0,0,0-4.57,2.76,27.23,27.23,0,0,0-6.94,7.61.76.76,0,0,0,0-.15C242,129.18,236.92,124.1,231.1,119.57Zm13.83,19.49a23.94,23.94,0,0,1,12-10.18c1-.36,2.17-1,3.14-.48a16.73,16.73,0,0,1,2.54,2.08q.67.56,1.35,1.14h0a1.61,1.61,0,0,0,.72.62c4.82,4.24,9.42,9.31,10.73,15.56A154,154,0,0,0,244.93,139.06Zm23.62-7.36c-.46-.43-.94-.84-1.42-1.26.18-.31.36-.6.56-.89a2.65,2.65,0,0,1,.17-.22,5.71,5.71,0,0,1,.39-.47c.25-.27.51-.54.78-.79l.42-.37.19-.15,0,0c.31-.22.61-.43.93-.62s.65-.36,1-.52l.24-.11h.05l.58-.2a1.62,1.62,0,0,0,1.09-1.28,7.77,7.77,0,0,0,7-2.74,61.47,61.47,0,0,1,5.33-5c.55,2.33,2.34,4.15,4.18,5.67,1.68,1.39,4.53,3.45,4.12,5.94-6.38,5.21-12.23,11-15.91,18.39C277,141.06,273,135.87,268.55,131.7Zm42.91,37.53c-5.89-4.34-12.12-8-18.49-12.19a105.58,105.58,0,0,0-12.76-7.1c4.49-10.37,13.85-17.7,22.76-24.29,3.26,5.48,9.81,7.62,14,12.33,5,5.6,5.72,13.77,6.21,21a1.49,1.49,0,0,0-1.75.25l-10,10Zm10.25,8.82a78.33,78.33,0,0,0-7.85-7l8.7-8.71,10.54,10c2.95,2.81,7.38,6.06,7.66,10.5a1.6,1.6,0,0,0,.21.68q-4.37,3.6-8.41,7.55A105.58,105.58,0,0,0,321.71,178.05Zm12.56,15.6c2.65-2.61,5.4-5.12,8.26-7.5a1.6,1.6,0,0,0,2.63-1.06s0-.09,0-.13c8.95,5,18.55,10.93,22.57,20.72,0,0,0,.09,0,.13-1.4.26-2.75,1.46-3.85,2.18-1.93,1.27-3.84,2.58-5.71,3.94q-5.73,4.15-11.05,8.82A105.34,105.34,0,0,0,334.27,193.65ZM348,223.83a1.53,1.53,0,0,0,.45-.28,142.73,142.73,0,0,1,19.27-14.46c.15-.09.29-.2.45-.29a9.61,9.61,0,0,1,1,.72c.81.61,1.62,1.24,2.41,1.89a32.47,32.47,0,0,1,4.16,4,25.67,25.67,0,0,1,5,9,26.61,26.61,0,0,1,1.24,8.93,1.76,1.76,0,0,0-1.44,0c-10.18,4.7-22.66,7.89-27.84,18.82a6.88,6.88,0,0,0-1,1.09c0-1.53,0-3.06,0-4.58q-.11-4.92-.68-9.8A101.22,101.22,0,0,0,348,223.83ZM339.9,301.6a7.46,7.46,0,0,0,.05.95,1.52,1.52,0,0,0-.32.26l-1,1.05C339.09,303.11,339.5,302.36,339.9,301.6ZM145,339.56a22.13,22.13,0,0,1-5.45-9.93,2.3,2.3,0,0,1,.34-2.39c-.29.27,3.65,5.29,4,5.85a34.74,34.74,0,0,1,3,5.91c.25.53.61,2.37,1,3.58C147,341.54,146,340.58,145,339.56Zm1.86-6a7.62,7.62,0,0,0-.76-1.83c.94,1.17,3.45,2,4.76,2.77,1.81,1.06,3.63,2.1,5.51,3a11.94,11.94,0,0,0-5.19,4.43,19,19,0,0,0-2.48-6.11c-.46-.68-1-1.1-1.52-1.73A2.7,2.7,0,0,1,146.84,333.53Zm5.71,12.7c.06-.26.13-.51.21-.76s.13-.38.21-.57l.07-.17.16-.32a9.87,9.87,0,0,1,.8-1.32s.28-.35.05-.07l.23-.28.52-.57.56-.53.27-.23.11-.08a11.86,11.86,0,0,1,1.21-.78c.22-.12.45-.23.69-.34h0l.05,0,.34-.12a8.35,8.35,0,0,1,1.49-.38,1.19,1.19,0,0,0,.56-.28c3.52,1.75,7,3.42,10.5,4.94a15.78,15.78,0,0,1,6.83,12.44,2.28,2.28,0,0,0,.06.39A128,128,0,0,1,152.55,346.23Zm24.8.81c2.41.88,4.86,1.67,7.36,2.34a19.78,19.78,0,0,0-4.59,4.54A19,19,0,0,0,177.35,347ZM208,364a113.55,113.55,0,0,1-22.5-4.42c-1.5-.42-3-.87-4.5-1.33.21-.44.43-.87.68-1.29a15.57,15.57,0,0,1,2-2.73,16.55,16.55,0,0,1,5.25-3.86,71.25,71.25,0,0,0,9.2,1.31c1.59.12,3.17.18,4.76.23a1.46,1.46,0,0,0,.94.85,14.69,14.69,0,0,1,9.88,11.46C211.81,364.23,209.9,364.16,208,364Zm8.73.19a17.88,17.88,0,0,0-7.79-12.28,134,134,0,0,0,17.88-1.76c.85-.14,1.7-.26,2.55-.39a23.23,23.23,0,0,0-6.7,4.57,13.29,13.29,0,0,0-4,9.78Zm15.08-1.43c-3.36.53-6.76.92-10.16,1.18-1.49.1,3.62-7.87,4.18-8.38a40.46,40.46,0,0,1,7.64-5.25c.77-.43,6.78-3.31,7.39-2a1.35,1.35,0,0,0,.58.6c2.06,1,14.44,8.53,10.11,10.6-2.82,1.35-7.09,1.4-10.17,1.86S234.89,362.3,231.8,362.78Zm24.6-5.3a38.43,38.43,0,0,0-10.92-9.76c2.73-.38,5.47-.8,8.22-1.34q5.49-1.08,10.93-2.4a21.94,21.94,0,0,0-6.86,13.12Zm21.51-3.9c-3.42,1-6.86,2-10.29,2.91-3,.85-6.35,1.91-5.65-2.26a18.55,18.55,0,0,1,3.39-6.72c2.77-3.25,3.87-5,7.95-5.91,1.57-.34,13.42-3,13.66-4.29a1.54,1.54,0,0,0,.71,1.57c.31.22.63.44.94.68l.22.16,0,0,.45.36c.61.51,1.2,1,1.77,1.6,1.11,1.1,2.34,2,3.45,3.07a2.27,2.27,0,0,1-.14,3,6.55,6.55,0,0,1-2.89,1.58C287,350.88,282.47,352.26,277.91,353.58Zm16.65-12.51a29,29,0,0,0-5.18-4.64q5.14-1.9,10.17-4.09A20.92,20.92,0,0,0,294.56,341.07ZM322,331.68c.93,1.58,1.73,3.42,1.2,5.13-.6,2-2.73,3-4.65,3.78-5.23,2.09-10.56,3.94-15.95,5.57a20.6,20.6,0,0,1-3.94.89.91.91,0,0,1-.76-.17.9.9,0,0,1-.18-.61,17.92,17.92,0,0,1,3-10.77c2-2.85,4.85-5.88,7.81-7.36,1.62-.81,3.23-1.65,4.82-2.5a1.77,1.77,0,0,0,1.09.51l.26,0,.28,0c.24,0,.48.1.71.17s.48.13.71.21l.37.14.09,0,.05,0a11.78,11.78,0,0,1,1.36.72c.21.13.41.27.61.41l.21.16.23.19a11.44,11.44,0,0,1,1.06,1l.26.3.15.18c.14.19.28.39.41.6C321.49,330.78,321.77,331.22,322,331.68Zm-5.08-8c1.64-.92,3.28-1.86,4.89-2.83a53.47,53.47,0,0,0,7.31-5.15,35.35,35.35,0,0,0-5.43,13.05A12.74,12.74,0,0,0,317,323.67Zm37.93.73a16.13,16.13,0,0,1-4.25,3.1,40,40,0,0,1-4.82,2.16c-5.08,2-10.06,4.54-15.23,6.27a3.77,3.77,0,0,1-2.14.23,2.86,2.86,0,0,1-1.87-2.25c-1.06-5.15,1.76-11.22,4.36-15.5a58.82,58.82,0,0,1,4.91-6.81c.45-.55,5.42-5.86,5.31-6a9.65,9.65,0,0,0,2,2.15c2.45,1.88,5.58,2.63,7.92,4.66a13.8,13.8,0,0,1,4.93,8.85A4.22,4.22,0,0,1,354.89,324.4Zm16.73-30.24c-.82,2.57-2.68,4.75-4.26,6.89-.91,1.24-1.79,2.52-2.62,3.82a69.81,69.81,0,0,0-4.23,7.61c-.77,1.6-1.51,3.46-2.92,4.59-1.14-.92-1.39-3.47-2.43-4.79a17.91,17.91,0,0,0-6.55-4.9c-2.31-1.13-6.33-3-5.71-6.21a1.72,1.72,0,0,0,0-.64,1.6,1.6,0,0,0,.28-.48c1.67-4.48,6.69-6.55,10.72-8.38A56.68,56.68,0,0,0,366.6,284a18.56,18.56,0,0,0,2.83,4.22C371,290.06,372.39,291.75,371.62,294.16Zm-.81-8.9a7,7,0,0,1-1.85-4,1.52,1.52,0,0,0-2.56-1.06,46.62,46.62,0,0,1-7.82,5.78c-2.41,1.41-4.95,2.51-7.48,3.68a25.59,25.59,0,0,0-8.23,5.43c1.3-3.17,2.44-6.41,3.48-9.66a111.75,111.75,0,0,0,5.13-28.54,1,1,0,0,0,.42-.13c1,4.72,6.15,6.81,10,9,4.87,2.78,10,6.93,10.2,13a1.42,1.42,0,0,0,.57,1.14A38.41,38.41,0,0,1,370.81,285.26ZM388,276c-1.65,3.18-3.28,6.71-5.22,9.69-.67,1-7.24,7.64-6.9,8.4-.85-1.93-1.34-4-2.58-5.81-.17-.26-.37-.52-.57-.77a1.23,1.23,0,0,0,.62-.59,41.26,41.26,0,0,0,3.1-9.94c0-.07,0-.13,0-.19a28.66,28.66,0,0,1,6.09-6.87c1.94-1.57,4.28-2.92,5.82-4.87a15.62,15.62,0,0,1,1.26,4.25A11.56,11.56,0,0,1,388,276Z"/><path class="cls-55" d="M196.38,115.42l-4.65-4.25a1,1,0,0,0-1.41,0l-4.16,5.24a1,1,0,0,0,0,1.42,1,1,0,0,0,1.41,0l3.57-4.49,3.82,3.49C195.91,117.7,197.33,116.29,196.38,115.42Z"/><path class="cls-55" d="M171.06,127.33a4.11,4.11,0,0,0-3.64-.43,6.17,6.17,0,0,0-3,2.44,3,3,0,0,0-.57,1.8,1.61,1.61,0,0,0,1.44,1.6,1.56,1.56,0,0,0,1.46-1.17,1.34,1.34,0,0,0-.46-1.42,4,4,0,0,1,1.5-1.25l.08,0,.1,0,.37-.11.29-.06c-.18,0,.2,0,.24,0s.41,0,.19,0a1.31,1.31,0,0,1,.27.06,1.6,1.6,0,0,1,.31.1l.19.09.27.18h0l.14.12.19.2s0,0,0,0l.09.12c.05.09.1.18.14.27l.05.14a1,1,0,0,0,0,.17h0c0,.12,0,.24,0,.36a1,1,0,0,0,1,1,1,1,0,0,0,1-1A3.61,3.61,0,0,0,171.06,127.33Z"/><path class="cls-55" d="M221.35,128.26,218,124.63a1,1,0,0,0-1-.26,5,5,0,0,0-3.46,3.75,1,1,0,0,0,.7,1.23,1,1,0,0,0,1.23-.7c0-.18.08-.35.13-.52a.43.43,0,0,0,0-.11,1.47,1.47,0,0,0,.06-.14,4.12,4.12,0,0,1,.27-.45l.08-.12a1.67,1.67,0,0,1,.12-.13,2.73,2.73,0,0,1,.34-.34l.14-.11.12-.08a1.71,1.71,0,0,1,.23-.13l2.95,3.16a1,1,0,0,0,1.41,0A1,1,0,0,0,221.35,128.26Z"/><path class="cls-55" d="M260.5,137.26a3.76,3.76,0,0,0-4.44,2.32,1,1,0,1,0,1.93.53l0-.07a1.19,1.19,0,0,1,.09-.15l.05-.09.1-.11.15-.14,0,0h0l.38-.22h0s0,0,0,0l.21-.07.21-.05.15,0h-.12a1.35,1.35,0,0,1,.45,0l.14,0-.12,0c.06,0,.2,0,.26.06s.14,0,.21.06h0l.06,0,.41.25.06,0,.18.17.16.18.06.06c.09.14.18.27.26.41a2.26,2.26,0,0,1,.11.22l0,.06h0c.05.16.11.32.15.48a2,2,0,0,1,.05.24v.11a1,1,0,1,0,2,0A4.74,4.74,0,0,0,260.5,137.26Z"/><path class="cls-55" d="M246.8,125.41l-2.41-2.76a1,1,0,0,0-1.22-.16l-2.71,1.56a1,1,0,1,0,1,1.73l2-1.15,1.91,2.19a1,1,0,0,0,1.42,0A1,1,0,0,0,246.8,125.41Z"/><path class="cls-55" d="M217.64,101.86l-2.55-3.93a1,1,0,0,0-1.73,0c-.89,1.3-1.78,2.59-2.66,3.89a1,1,0,0,0,.35,1.37,1,1,0,0,0,1.37-.36l1.78-2.6,1.72,2.63a1,1,0,1,0,1.72-1Z"/><path class="cls-55" d="M194.86,85.86a4.9,4.9,0,0,0-4.26-1.08,4.78,4.78,0,0,0-3.38,2.5,1,1,0,1,0,1.73,1,2.82,2.82,0,0,1,.21-.38l.09-.14,0,0,.27-.29.17-.14h0a5.93,5.93,0,0,1,.65-.36l.08,0,.2-.07.39-.1.18,0h0l.4,0h.39l.14,0,.1,0,.38.11s.26.08.12,0,0,0,.07,0,.26.14.38.21l.11.08.09.08a1,1,0,1,0,1.41-1.41Z"/><path class="cls-55" d="M168.93,97.32a1,1,0,0,0-1.21-.15,13.09,13.09,0,0,0-5.06,6.65,1,1,0,0,0,.7,1.23,1,1,0,0,0,1.23-.7c0-.15.1-.31.16-.46l.07-.18,0,0v0a9,9,0,0,1,.4-.83,12.16,12.16,0,0,1,1-1.59h0l.15-.19.32-.37c.2-.23.42-.45.64-.66s.48-.44.69-.62l0,0,.1.17a2.82,2.82,0,0,1,.21.38.45.45,0,0,0,0,.1s0,.1,0,.11.09.27.13.41l.09.38V101a1.94,1.94,0,0,0,0,.24,1,1,0,1,0,2,0A5.83,5.83,0,0,0,168.93,97.32Z"/><path class="cls-55" d="M144.31,117.54a4.22,4.22,0,0,0-4,3.35,1,1,0,0,0,1.93.53,4.12,4.12,0,0,1,.13-.47s0,0,0,0,0,0,0,0a1.55,1.55,0,0,1,.12-.22l.12-.2.07-.09a3,3,0,0,1,.3-.32l.12-.11.12-.08.36-.2.11,0,.23-.07.12,0h.21a1.61,1.61,0,0,1,.22,0l.07,0,.23.06.08,0,.4.22,0,0h0l.18.17.15.16,0,.07a2.12,2.12,0,0,1,.12.2s.06.14.08.17,0,.09,0,.1a1.62,1.62,0,0,1,0,.19s0,.06,0,.09,0,.19,0,.28a1,1,0,0,0,1,1,1,1,0,0,0,1-1A3.72,3.72,0,0,0,144.31,117.54Z"/><path class="cls-55" d="M130.55,140.6a4.78,4.78,0,0,0-5.7-2.87,4.8,4.8,0,0,0-3.17,5.54,1,1,0,0,0,1.23.7,1,1,0,0,0,.7-1.23l0-.17c0-.1,0-.21,0-.31s0-.19,0-.28v0l0-.05a6.48,6.48,0,0,1,.17-.63s0,0,0-.05l0-.06c0-.08.08-.17.13-.25l.15-.24a.44.44,0,0,1,.08-.11l0,0a3.42,3.42,0,0,1,.42-.43l0-.05,0,0,.28-.17.25-.13.16-.05.27-.07.14,0h.72l.27.07a2.8,2.8,0,0,1,.31.09l.09,0,.06,0a4.76,4.76,0,0,1,.49.28l.13.1a1.7,1.7,0,0,1,.24.22,1.8,1.8,0,0,1,.19.2l0,0,0,.06.15.24s.17.36.1.18a1,1,0,0,0,1.23.7A1,1,0,0,0,130.55,140.6Z"/><path class="cls-55" d="M307.27,150.74a4.71,4.71,0,0,0-9.28.81,1,1,0,0,0,2,0,.32.32,0,0,0,0-.08v-.05c0-.1,0-.2.07-.3a2.5,2.5,0,0,1,.09-.25.61.61,0,0,1,.05-.12,2.52,2.52,0,0,1,.58-.82,2.65,2.65,0,0,1,.81-.59l.12-.05.25-.09.3-.07.07,0h.06a3.62,3.62,0,0,1,.57,0l.14,0a1.14,1.14,0,0,1,.25.06l.29.1.14.06a3.36,3.36,0,0,1,.51.32l.1.08a2.19,2.19,0,0,1,.23.21l.17.19.06.06,0,.06c.1.17.2.33.29.51l.06.17c0,.1.06.2.08.3a1,1,0,1,0,1.93-.53Z"/><path class="cls-55" d="M286.76,131.17l-1.91-1.95c-.65-.66-1.39-1.35-2.4-1a7.49,7.49,0,0,0-2.12,1.65l-2.08,1.84a1,1,0,0,0,1.41,1.42l1.72-1.52.84-.74c.25-.23.5-.49.78-.7.24.23.46.47.68.7.56.56,1.11,1.13,1.66,1.69C286.25,133.51,287.66,132.09,286.76,131.17Z"/><path class="cls-55" d="M308.91,115.24l-2.73-2.64a1,1,0,0,0-1.41,0,18.63,18.63,0,0,1-3.8,3.68,1,1,0,0,0-.36,1.37A1,1,0,0,0,302,118a19.91,19.91,0,0,0,3.57-3.23l1.95,1.89a1,1,0,1,0,1.41-1.42Z"/><path class="cls-55" d="M335.36,102c-.72-1.52-1.45-3-2.17-4.55a1,1,0,0,0-1.37-.36,8.68,8.68,0,0,0-3.69,4.47,1,1,0,0,0,.7,1.23,1,1,0,0,0,1.23-.7s.08-.21.09-.22l.09-.2a6,6,0,0,1,.3-.56c.1-.17.2-.33.32-.5l.15-.2.1-.13a6.51,6.51,0,0,1,.83-.83c.56,1.19,1.13,2.38,1.69,3.56a1,1,0,0,0,1.37.36A1,1,0,0,0,335.36,102Z"/><path class="cls-55" d="M331.78,133.18a4.31,4.31,0,0,0-8.52.84,1,1,0,0,0,1,1,1,1,0,0,0,1-1,1.41,1.41,0,0,1,0-.2,1.1,1.1,0,0,1,0-.16,2.68,2.68,0,0,1,.07-.27l.06-.14a2.7,2.7,0,0,1,.24-.44l.08-.12.13-.14a1.7,1.7,0,0,1,.19-.19l.15-.13.12-.08.23-.14.19-.1.16,0,.26-.07.15,0a2.57,2.57,0,0,1,.48,0h.08l.27.07a1.14,1.14,0,0,1,.26.09h0l0,0c.15.09.3.17.44.27a.73.73,0,0,1,.13.1,1.8,1.8,0,0,1,.2.19l.15.16a1.21,1.21,0,0,0,.1.14c.05.08.1.16.14.24l.07.14a2.85,2.85,0,0,1,.14.5,1,1,0,0,0,1.93-.54Z"/><path class="cls-55" d="M327.47,177c.06.06.06.05,0,0h0Z"/><path class="cls-55" d="M326.85,176.85h0Z"/><path class="cls-55" d="M327.86,177.6s0,0,0,.1v0S327.87,177.63,327.86,177.6Z"/><path class="cls-55" d="M327.68,177.21c0-.06-.08-.09,0,0Z"/><path class="cls-55" d="M327.74,174.94a3,3,0,0,0-3.41,1.51,1,1,0,0,0-.1.77,1,1,0,0,0,.46.6,1,1,0,0,0,1.37-.36,2,2,0,0,1,.14-.25l.09-.09,0-.05.05,0a1.71,1.71,0,0,1,.23-.13l.12,0,.12,0h.29l.06,0,.1,0,.13.07,0,0-.06-.06a.27.27,0,0,0,.08.07h0a.86.86,0,0,1,.14.13l.1.12-.05-.06v0a2.53,2.53,0,0,1,.13.22c0,.05,0,.1,0,.14h0a.15.15,0,0,1,0,.08h0a.13.13,0,0,0,0,.06.06.06,0,0,1,0,0,1.83,1.83,0,0,1,0,.33,1,1,0,0,0,.3.71,1,1,0,0,0,.7.29,1,1,0,0,0,.71-.29,1.16,1.16,0,0,0,.29-.71A3,3,0,0,0,327.74,174.94Z"/><path class="cls-55" d="M353.48,154.26l-3.33-2.89a1.06,1.06,0,0,0-1.22-.15,16.12,16.12,0,0,0-4.9,3.39,1,1,0,0,0,1.41,1.41,14.72,14.72,0,0,1,3.85-2.75l2.77,2.41a1,1,0,0,0,1.42,0A1,1,0,0,0,353.48,154.26Z"/><path class="cls-55" d="M354.8,114.4l-.06-.05s0,0,.07.07h0Z"/><path class="cls-55" d="M354.37,114.11l.06,0-.06,0Z"/><path class="cls-55" d="M354.06,112a3.81,3.81,0,0,0-3.47,2.08,10.25,10.25,0,0,0-.93,2.31,1,1,0,1,0,1.93.53c.1-.35.21-.7.34-1l.06-.14.09-.2c.08-.16.17-.33.26-.48l.12-.2.12-.15a.76.76,0,0,1,.1-.12,1.21,1.21,0,0,1,.16-.16l.18-.16.09-.06.21-.13h0l.18,0,.09,0,.34,0H354l.11,0,.23.06h0l0,0,0,0c.08,0,.09,0,.06,0a1.21,1.21,0,0,0,.25.13l0,0,0,0s0,0,.06.05l0,0h0s0,0,0,0,0,.08,0,.11v0a1,1,0,1,0,2,0A2.85,2.85,0,0,0,354.06,112Z"/><path class="cls-55" d="M372.27,130.85l-.51-.17-.25-.1-.05,0,0,0a10,10,0,0,1-.93-.46,9,9,0,0,1-.88-.54l-.43-.31,0,0v0l-.24-.2a1,1,0,0,0-.84-.27.94.94,0,0,0-.73.48,19.26,19.26,0,0,0-1.48,5.1,1.08,1.08,0,0,0,.1.77,1,1,0,0,0,.6.46,1,1,0,0,0,1.23-.7,18.38,18.38,0,0,1,.5-2.43c.11-.38.23-.76.36-1.13a12.44,12.44,0,0,0,3.11,1.51,1,1,0,0,0,1.23-.7A1,1,0,0,0,372.27,130.85Z"/><path class="cls-55" d="M386,158a9.55,9.55,0,0,0-1.76-3.89,1,1,0,0,0-.86-.49,1,1,0,0,0-.86.49l-2.34,4.25a1,1,0,0,0,1.73,1c.51-.91,1-1.83,1.52-2.75,0,.07.08.14.11.21l.05.1v0s0,.1.05.14.12.32.17.48a8.32,8.32,0,0,1,.26,1,1,1,0,0,0,1.23.69A1,1,0,0,0,386,158Z"/><path class="cls-55" d="M375.34,182.86a11.34,11.34,0,0,1-4.28-4.82,1,1,0,0,0-1.57-.2l-5.6,4.5a1,1,0,0,0,0,1.42,1,1,0,0,0,1.42,0l4.58-3.69a13.33,13.33,0,0,0,4.44,4.52C375.43,185.27,376.43,183.54,375.34,182.86Z"/><path class="cls-55" d="M354.73,203.58c-1.72-3.24-7.13-3.23-8.81,0a1,1,0,1,0,1.72,1,3.87,3.87,0,0,1,.27-.43l0-.07.16-.17.17-.15,0,0h0l.42-.26.19-.1.1,0a3.88,3.88,0,0,1,.45-.14l.27-.06h0l.51,0,.47,0h.05l.27,0a4.34,4.34,0,0,1,.48.14l.13,0,.13.05c.15.08.29.17.43.26l.05,0,0,0a1.22,1.22,0,0,1,.17.15,3.71,3.71,0,0,1,.27.29l.07.1.15.27a1,1,0,1,0,1.73-1Z"/><path class="cls-55" d="M371.24,227.79a16.82,16.82,0,0,0-3.65-4.1,1,1,0,0,0-1.22-.16,9.85,9.85,0,0,0-3.64,4.31,1,1,0,0,0,.36,1.37,1,1,0,0,0,1.37-.36,8.87,8.87,0,0,1,.56-1.11c.1-.17.21-.34.32-.5l.2-.27.11-.14a9.49,9.49,0,0,1,.82-.86l.35-.3a14.77,14.77,0,0,1,2.69,3.12,1,1,0,0,0,1.37.36A1,1,0,0,0,371.24,227.79Z"/><path class="cls-55" d="M392.57,212.63c-1.06-1.38-2.11-2.77-3.17-4.16a1,1,0,0,0-1.36-.36,5.8,5.8,0,0,0-2.9,3.55,1,1,0,0,0,.7,1.23,1,1,0,0,0,1.23-.69c0-.15.09-.3.14-.44h0l0,0a2.4,2.4,0,0,1,.11-.23,4.11,4.11,0,0,1,.24-.39,1.74,1.74,0,0,1,.11-.18l0,0,0,0a4.85,4.85,0,0,1,.56-.55c.85,1.1,1.69,2.21,2.53,3.32a1,1,0,0,0,1.37.36A1,1,0,0,0,392.57,212.63Z"/><path class="cls-55" d="M373.94,254.31a4.08,4.08,0,0,0-5.06.66,3.31,3.31,0,0,0-.91,3,1,1,0,0,0,1.23.69,1,1,0,0,0,.7-1.22h0v-.27l.07-.25v0l0,0a2.54,2.54,0,0,1,.16-.28v0l0,0a1.67,1.67,0,0,1,.23-.23l.09-.09a3.52,3.52,0,0,1,.46-.28l.09,0,.07,0,.24-.07.26-.06H372l.2,0,.3.09.05,0,.09,0,.27.16.2.13.18.15a2.39,2.39,0,0,1,.22.23l.18.2.12.17q.18.29.33.57l.09.2c0,.09.07.17.1.26a4.64,4.64,0,0,1,.17.64c0,.11.05.22.07.33h0c0,.06,0,.12,0,.18a1,1,0,0,0,2,0A6.18,6.18,0,0,0,373.94,254.31Z"/><path class="cls-55" d="M396.6,240.81l-1.68-2.33a1,1,0,0,0-1.37-.36,13.52,13.52,0,0,0-3.6,3,1,1,0,1,0,1.41,1.41A12.61,12.61,0,0,1,392.9,241a4.12,4.12,0,0,1,.4-.33l.11-.08.21-.15a1.88,1.88,0,0,1,.18-.12l1.07,1.48a1,1,0,0,0,1.73-1Z"/><path class="cls-55" d="M355.65,276.11c.06.22,0,.09,0,0Z"/><path class="cls-55" d="M355.81,276.66c0,.13,0,.07,0,0Z"/><path class="cls-55" d="M357.37,275.07a4.46,4.46,0,0,0-2.4-2.14,3.55,3.55,0,0,0-1.91-.12,1,1,0,0,0-.7,1.18,7.15,7.15,0,0,0-2.63,3,1.14,1.14,0,0,0-.1.77,1,1,0,0,0,.46.59,1,1,0,0,0,1.37-.35,5.91,5.91,0,0,1,.66-1.11,6,6,0,0,1,.94-.95,6.52,6.52,0,0,1,.78-.51,1,1,0,0,0,.46-.59l.11,0,.3.16.17.11c.07.08.17.15.24.22s.16.18.24.27v0l.11.15c.06.11.12.22.17.33h0v0a1.77,1.77,0,0,0,.06.17,2,2,0,0,1,.09.35.07.07,0,0,1,0,.05v-.09c0,.06,0,.12,0,.18s0,.24,0,.35l0,.15-.06.18c0,.08,0,.09,0,.07a1.05,1.05,0,0,0-.07.7,1,1,0,0,0,.46.6,1,1,0,0,0,1.36-.36,3.42,3.42,0,0,0,.36-1.69A4.33,4.33,0,0,0,357.37,275.07Z"/><path class="cls-55" d="M360.54,298.1a3.87,3.87,0,0,0-3.72,3.65,1,1,0,0,0,2,0c0-.05,0-.1,0-.15l0,.11a1,1,0,0,1,.05-.22l.06-.22v0l0-.05a3.72,3.72,0,0,1,.22-.38l0,0,.16-.17.16-.14.08-.06a3.13,3.13,0,0,1,.36-.19l.09,0,.21-.06.08,0h.38l.07,0,.21.05.12.05a2.68,2.68,0,0,1,.33.18l.09.06.12.11.16.16.06.07a3.37,3.37,0,0,1,.22.35l0,.08a1.66,1.66,0,0,1,.06.21c0,.06,0,.13,0,.19v.1a1,1,0,0,0,2,0A3.85,3.85,0,0,0,360.54,298.1Z"/><path class="cls-55" d="M345.35,321.61a3.15,3.15,0,0,0-1.24-1.75,3.31,3.31,0,0,0-4.12.5,7,7,0,0,0-1.51,1.91,1,1,0,1,0,1.73,1,8,8,0,0,1,.56-.87l.05-.05c.06-.08.13-.15.19-.22l.36-.35.07-.06h0l.17-.11a1.38,1.38,0,0,1,.24-.14l.08,0c.08,0,.41-.16.45-.12h.23l.16.05.05,0,.15.09h0l.15.14.08.09.06.09a.64.64,0,0,0,.08.14v0a.83.83,0,0,1,0,.15v.07s0,0,0,.06h0a1,1,0,0,0,0,1.42,1,1,0,0,0,1.41,0A2.29,2.29,0,0,0,345.35,321.61Z"/><path class="cls-55" d="M312.65,334.21a4.11,4.11,0,0,0-5.9,1.45,1,1,0,1,0,1.73,1c0-.1.1-.19.15-.29l.07-.09.2-.21.1-.09a5.09,5.09,0,0,1,.5-.3l.08,0,.32-.1.13,0,.11,0h.56l.43.12s0,0,.08,0h0l.15.08.27.18a1,1,0,0,0,.77.11,1.07,1.07,0,0,0,.6-.46A1,1,0,0,0,312.65,334.21Z"/><path class="cls-55" d="M311.13,335.64l.09,0h0Z"/><path class="cls-55" d="M278.4,348.13l.05-.09h0A.41.41,0,0,0,278.4,348.13Z"/><path class="cls-55" d="M280.75,347.73c.09.09.1.09.08.06l-.06-.05Z"/><path class="cls-55" d="M282.66,346.88a3.43,3.43,0,0,0-1.63-1.23,3.91,3.91,0,0,0-1.92-.12,3.49,3.49,0,0,0-2.77,2.3,1,1,0,0,0,.7,1.23,1,1,0,0,0,1.23-.7l0,0,0-.08a.41.41,0,0,1,.07-.11s0-.05.05-.08h0l0-.05s0,0,0,.05l.11-.12.1-.09.23-.14.13-.07.55-.15h.53l.3.08.09,0a2.2,2.2,0,0,1,.26.15s0,0,0,0l0,0h0l.06.05h0c.07.07.31.38.1.1a1.1,1.1,0,0,0,.6.46,1.08,1.08,0,0,0,.77-.1A1,1,0,0,0,282.66,346.88Z"/><path class="cls-55" d="M236,359.69s0,0,0,0a0,0,0,0,1,0,0Z"/><path class="cls-55" d="M240.59,359.12a3.33,3.33,0,0,0-6.58.77,1,1,0,0,0,2,0v-.19h0v0c0-.16,0-.09,0,0,0-.09.07-.29.08-.32l.09-.17.11-.16h0l.27-.28h0l.17-.1.15-.08h0l.18-.06h.39l.19,0,.15.05,0,0c.1,0,.2.12.3.18l0,0a.86.86,0,0,1,.14.13.52.52,0,0,1,.1.11l0,0,.1.16,0,.08h0l0,.09c0,.07,0,.14,0,.22a1,1,0,0,0,1.93-.53Z"/><path class="cls-55" d="M201.15,361.12l-1.2-2.77a.92.92,0,0,0-.48-.41,1,1,0,0,0-.65-.05l-2.67.6a1,1,0,0,0-.69,1.23,1,1,0,0,0,1.23.7l1.82-.41c.3.71.61,1.41.91,2.12a1,1,0,0,0,.6.46,1.08,1.08,0,0,0,.77-.1,1.06,1.06,0,0,0,.46-.6A1.21,1.21,0,0,0,201.15,361.12Z"/><path class="cls-55" d="M167.77,349.51a2.89,2.89,0,0,0-1.87-2,3.41,3.41,0,0,0-2.64.09,2.57,2.57,0,0,0-1.14,1.05,1,1,0,0,0,.36,1.37,1,1,0,0,0,1.37-.36.22.22,0,0,1,.05-.08l.08-.09,0,0h0l.06,0a.19.19,0,0,1,.08-.05l0,0,.07,0,.06,0-.05,0,.25-.07h.42l.27.07c.11,0,.39.18.06,0l.24.12.09.06.16.15h0l0,0,.05.09c0,.08.06.18.07.25a1,1,0,0,0,1.23.7A1,1,0,0,0,167.77,349.51Z"/><path class="cls-55" d="M164.49,349.25h0Z"/><path class="cls-55" d="M164,349.45h0l.1-.06-.08.05Z"/><path class="cls-55" d="M164.19,349.32l0,0,0,0,.08,0Z"/><path d="M196.38,113.42l-4.65-4.25a1,1,0,0,0-1.41,0l-4.16,5.24a1,1,0,0,0,0,1.42,1,1,0,0,0,1.41,0l3.57-4.49,3.82,3.49C195.91,115.7,197.33,114.29,196.38,113.42Z"/><path d="M171.06,125.33a4.11,4.11,0,0,0-3.64-.43,6.17,6.17,0,0,0-3,2.44,3,3,0,0,0-.57,1.8,1.61,1.61,0,0,0,1.44,1.6,1.56,1.56,0,0,0,1.46-1.17,1.34,1.34,0,0,0-.46-1.42,4,4,0,0,1,1.5-1.25l.08,0,.1,0,.37-.11.29-.06c-.18,0,.2,0,.24,0s.41,0,.19,0a1.31,1.31,0,0,1,.27.06,1.6,1.6,0,0,1,.31.1l.19.09.27.18h0l.14.12.19.2,0,0,.09.12c.05.09.1.18.14.27l.05.14a1,1,0,0,0,0,.17h0c0,.12,0,.24,0,.36a1,1,0,0,0,1,1,1,1,0,0,0,1-1A3.61,3.61,0,0,0,171.06,125.33Z"/><path d="M221.35,126.26,218,122.63a1,1,0,0,0-1-.26,5,5,0,0,0-3.46,3.75,1,1,0,0,0,.7,1.23,1,1,0,0,0,1.23-.7c0-.18.08-.35.13-.52a.43.43,0,0,0,0-.11,1.47,1.47,0,0,0,.06-.14,4.12,4.12,0,0,1,.27-.45l.08-.12a1.67,1.67,0,0,1,.12-.13,2.73,2.73,0,0,1,.34-.34l.14-.11.12-.08a1.71,1.71,0,0,1,.23-.13l2.95,3.16a1,1,0,0,0,1.41,0A1,1,0,0,0,221.35,126.26Z"/><path d="M260.5,135.26a3.76,3.76,0,0,0-4.44,2.32,1,1,0,1,0,1.93.53l0-.07a1.19,1.19,0,0,1,.09-.15l.05-.09.1-.11.15-.14,0,0h0l.38-.22h0s0,0,0,0l.21-.07.21-.05.15,0h-.12a1.35,1.35,0,0,1,.45,0l.14,0-.12,0c.06,0,.2,0,.26.06s.14,0,.21.06h0l.06,0,.41.25.06,0,.18.17.16.18.06.06c.09.14.18.27.26.41a2.26,2.26,0,0,1,.11.22l0,.06h0c.05.16.11.32.15.48a2,2,0,0,1,.05.24v.11a1,1,0,1,0,2,0A4.74,4.74,0,0,0,260.5,135.26Z"/><path d="M246.8,123.41l-2.41-2.76a1,1,0,0,0-1.22-.16l-2.71,1.56a1,1,0,1,0,1,1.73l2-1.15,1.91,2.19a1,1,0,0,0,1.42,0A1,1,0,0,0,246.8,123.41Z"/><path d="M217.64,99.86l-2.55-3.93a1,1,0,0,0-1.73,0c-.89,1.3-1.78,2.59-2.66,3.89a1,1,0,0,0,.35,1.37,1,1,0,0,0,1.37-.36l1.78-2.6,1.72,2.63a1,1,0,1,0,1.72-1Z"/><path d="M194.86,83.86a4.9,4.9,0,0,0-4.26-1.08,4.78,4.78,0,0,0-3.38,2.5,1,1,0,1,0,1.73,1,2.82,2.82,0,0,1,.21-.38l.09-.14,0,0,.27-.29.17-.14h0a5.93,5.93,0,0,1,.65-.36l.08,0,.2-.07.39-.1.18,0h0l.4,0h.39l.14,0,.1,0,.38.11s.26.08.12,0,0,0,.07,0,.26.14.38.21l.11.08.09.08a1,1,0,1,0,1.41-1.41Z"/><path d="M168.93,95.32a1,1,0,0,0-1.21-.15,13.09,13.09,0,0,0-5.06,6.65,1,1,0,0,0,.7,1.23,1,1,0,0,0,1.23-.7c0-.15.1-.31.16-.46l.07-.18,0,0v0a9,9,0,0,1,.4-.83,12.16,12.16,0,0,1,1-1.59h0l.15-.19.32-.37c.2-.23.42-.45.64-.66s.48-.44.69-.62l0,0,.1.17a2.82,2.82,0,0,1,.21.38.45.45,0,0,0,0,.1s0,.1,0,.11.09.27.13.41l.09.38V99a1.94,1.94,0,0,0,0,.24,1,1,0,1,0,2,0A5.83,5.83,0,0,0,168.93,95.32Z"/><path d="M144.31,115.54a4.22,4.22,0,0,0-4,3.35,1,1,0,0,0,1.93.53,4.12,4.12,0,0,1,.13-.47s0,0,0,0,0,0,0,0a1.55,1.55,0,0,1,.12-.22l.12-.2.07-.09a3,3,0,0,1,.3-.32l.12-.11.12-.08.36-.2.11,0,.23-.07.12,0h.21a1.61,1.61,0,0,1,.22,0l.07,0,.23.06.08,0,.4.22,0,0h0l.18.17.15.16,0,.07a2.12,2.12,0,0,1,.12.2s.06.14.08.17,0,.09,0,.1a1.62,1.62,0,0,1,0,.19s0,.06,0,.09,0,.19,0,.28a1,1,0,0,0,1,1,1,1,0,0,0,1-1A3.72,3.72,0,0,0,144.31,115.54Z"/><path d="M130.55,138.6a4.78,4.78,0,0,0-5.7-2.87,4.8,4.8,0,0,0-3.17,5.54,1,1,0,0,0,1.23.7,1,1,0,0,0,.7-1.23l0-.17c0-.1,0-.21,0-.31s0-.19,0-.28v0l0-.05a6.48,6.48,0,0,1,.17-.63s0,0,0-.05l0-.06c0-.08.08-.17.13-.25l.15-.24a.44.44,0,0,1,.08-.11l0,0a3.42,3.42,0,0,1,.42-.43l0-.05,0,0,.28-.17.25-.13.16-.05.27-.07.14,0h.72l.27.07a2.8,2.8,0,0,1,.31.09l.09,0,.06,0a4.76,4.76,0,0,1,.49.28l.13.1a1.7,1.7,0,0,1,.24.22,1.8,1.8,0,0,1,.19.2l0,0,0,.06.15.24s.17.36.1.18a1,1,0,0,0,1.23.7A1,1,0,0,0,130.55,138.6Z"/><path d="M307.27,148.74a4.71,4.71,0,0,0-9.28.81,1,1,0,0,0,2,0,.32.32,0,0,0,0-.08v-.05c0-.1,0-.2.07-.3a2.5,2.5,0,0,1,.09-.25.61.61,0,0,1,.05-.12,2.52,2.52,0,0,1,.58-.82,2.65,2.65,0,0,1,.81-.59l.12-.05.25-.09.3-.07.07,0h.06a3.62,3.62,0,0,1,.57,0l.14,0a1.14,1.14,0,0,1,.25.06l.29.1.14.06a3.36,3.36,0,0,1,.51.32l.1.08a2.19,2.19,0,0,1,.23.21l.17.19.06.06,0,.06c.1.17.2.33.29.51l.06.17c0,.1.06.2.08.3a1,1,0,1,0,1.93-.53Z"/><path d="M286.76,129.17l-1.91-1.95c-.65-.66-1.39-1.35-2.4-1a7.49,7.49,0,0,0-2.12,1.65l-2.08,1.84a1,1,0,0,0,1.41,1.42l1.72-1.52.84-.74c.25-.23.5-.49.78-.7.24.23.46.47.68.7.56.56,1.11,1.13,1.66,1.69C286.25,131.51,287.66,130.09,286.76,129.17Z"/><path d="M308.91,113.24l-2.73-2.64a1,1,0,0,0-1.41,0,18.63,18.63,0,0,1-3.8,3.68,1,1,0,0,0-.36,1.37A1,1,0,0,0,302,116a19.91,19.91,0,0,0,3.57-3.23l1.95,1.89a1,1,0,1,0,1.41-1.42Z"/><path d="M335.36,100c-.72-1.52-1.45-3-2.17-4.55a1,1,0,0,0-1.37-.36,8.68,8.68,0,0,0-3.69,4.47,1,1,0,0,0,.7,1.23,1,1,0,0,0,1.23-.7s.08-.21.09-.22l.09-.2a6,6,0,0,1,.3-.56c.1-.17.2-.33.32-.5l.15-.2.1-.13a6.51,6.51,0,0,1,.83-.83c.56,1.19,1.13,2.38,1.69,3.56a1,1,0,0,0,1.37.36A1,1,0,0,0,335.36,100Z"/><path d="M331.78,131.18a4.31,4.31,0,0,0-8.52.84,1,1,0,0,0,1,1,1,1,0,0,0,1-1,1.41,1.41,0,0,1,0-.2,1.1,1.1,0,0,1,0-.16,2.68,2.68,0,0,1,.07-.27l.06-.14a2.7,2.7,0,0,1,.24-.44l.08-.12.13-.14a1.7,1.7,0,0,1,.19-.19l.15-.13.12-.08.23-.14.19-.1.16,0,.26-.07.15,0a2.57,2.57,0,0,1,.48,0h.08l.27.07a1.14,1.14,0,0,1,.26.09h0l0,0c.15.09.3.17.44.27a.73.73,0,0,1,.13.1,1.8,1.8,0,0,1,.2.19l.15.16a1.21,1.21,0,0,0,.1.14c.05.08.1.16.14.24l.07.14a2.85,2.85,0,0,1,.14.5,1,1,0,0,0,1.93-.54Z"/><path d="M327.47,175c.06.06.06.05,0,0h0Z"/><path d="M326.85,174.85h0Z"/><path d="M327.86,175.6s0,0,0,.1v0S327.87,175.63,327.86,175.6Z"/><path d="M327.68,175.21c0-.06-.08-.09,0,0Z"/><path d="M327.74,172.94a3,3,0,0,0-3.41,1.51,1,1,0,0,0-.1.77,1,1,0,0,0,.46.6,1,1,0,0,0,1.37-.36,2,2,0,0,1,.14-.25l.09-.09,0-.05.05,0a1.71,1.71,0,0,1,.23-.13l.12,0,.12,0h.29l.06,0,.1,0,.13.07,0,0-.06-.06a.27.27,0,0,0,.08.07h0a.86.86,0,0,1,.14.13l.1.12-.05-.06v0a2.53,2.53,0,0,1,.13.22c0,.05,0,.1,0,.14h0a.15.15,0,0,1,0,.08h0a.13.13,0,0,0,0,.06.06.06,0,0,1,0,0,1.83,1.83,0,0,1,0,.33,1,1,0,0,0,.3.71,1,1,0,0,0,.7.29,1,1,0,0,0,.71-.29,1.16,1.16,0,0,0,.29-.71A3,3,0,0,0,327.74,172.94Z"/><path d="M353.48,152.26l-3.33-2.89a1.06,1.06,0,0,0-1.22-.15,16.12,16.12,0,0,0-4.9,3.39,1,1,0,0,0,1.41,1.41,14.72,14.72,0,0,1,3.85-2.75l2.77,2.41a1,1,0,0,0,1.42,0A1,1,0,0,0,353.48,152.26Z"/><path d="M354.8,112.4l-.06-.05s0,0,.07.07h0Z"/><path d="M354.37,112.11l.06,0-.06,0Z"/><path d="M354.06,110a3.81,3.81,0,0,0-3.47,2.08,10.25,10.25,0,0,0-.93,2.31,1,1,0,1,0,1.93.53c.1-.35.21-.7.34-1l.06-.14.09-.2c.08-.16.17-.33.26-.48l.12-.2.12-.15a.76.76,0,0,1,.1-.12,1.21,1.21,0,0,1,.16-.16l.18-.16.09-.06.21-.13h0l.18,0,.09,0,.34,0H354l.11,0,.23.06h0l0,0,0,0c.08,0,.09,0,.06,0a1.21,1.21,0,0,0,.25.13l0,0,0,0s0,0,.06.05l0,0h0s0,0,0,0,0,.08,0,.11v0a1,1,0,1,0,2,0A2.85,2.85,0,0,0,354.06,110Z"/><path d="M372.27,128.85l-.51-.17-.25-.1-.05,0,0,0a10,10,0,0,1-.93-.46,9,9,0,0,1-.88-.54l-.43-.31,0,0v0l-.24-.2a1,1,0,0,0-.84-.27.94.94,0,0,0-.73.48,19.26,19.26,0,0,0-1.48,5.1,1.08,1.08,0,0,0,.1.77,1,1,0,0,0,.6.46,1,1,0,0,0,1.23-.7,18.38,18.38,0,0,1,.5-2.43c.11-.38.23-.76.36-1.13a12.44,12.44,0,0,0,3.11,1.51,1,1,0,0,0,1.23-.7A1,1,0,0,0,372.27,128.85Z"/><path d="M386,156a9.55,9.55,0,0,0-1.76-3.89,1,1,0,0,0-.86-.49,1,1,0,0,0-.86.49l-2.34,4.25a1,1,0,0,0,1.73,1c.51-.91,1-1.83,1.52-2.75,0,.07.08.14.11.21l.05.1v0s0,.1.05.14.12.32.17.48a8.32,8.32,0,0,1,.26,1,1,1,0,0,0,1.23.69A1,1,0,0,0,386,156Z"/><path d="M375.34,180.86a11.34,11.34,0,0,1-4.28-4.82,1,1,0,0,0-1.57-.2l-5.6,4.5a1,1,0,0,0,0,1.42,1,1,0,0,0,1.42,0l4.58-3.69a13.33,13.33,0,0,0,4.44,4.52C375.43,183.27,376.43,181.54,375.34,180.86Z"/><path d="M354.73,201.58c-1.72-3.24-7.13-3.23-8.81,0a1,1,0,1,0,1.72,1,3.87,3.87,0,0,1,.27-.43l0-.07.16-.17.17-.15,0,0h0l.42-.26.19-.1.1,0a3.88,3.88,0,0,1,.45-.14l.27-.06h0l.51,0,.47,0h.05l.27,0a4.34,4.34,0,0,1,.48.14l.13,0,.13.05c.15.08.29.17.43.26l.05,0,0,0a1.22,1.22,0,0,1,.17.15,3.71,3.71,0,0,1,.27.29l.07.1.15.27a1,1,0,1,0,1.73-1Z"/><path d="M371.24,225.79a16.82,16.82,0,0,0-3.65-4.1,1,1,0,0,0-1.22-.16,9.85,9.85,0,0,0-3.64,4.31,1,1,0,0,0,.36,1.37,1,1,0,0,0,1.37-.36,8.87,8.87,0,0,1,.56-1.11c.1-.17.21-.34.32-.5l.2-.27.11-.14a9.49,9.49,0,0,1,.82-.86l.35-.3a14.77,14.77,0,0,1,2.69,3.12,1,1,0,0,0,1.37.36A1,1,0,0,0,371.24,225.79Z"/><path d="M392.57,210.63c-1.06-1.38-2.11-2.77-3.17-4.16a1,1,0,0,0-1.36-.36,5.8,5.8,0,0,0-2.9,3.55,1,1,0,0,0,.7,1.23,1,1,0,0,0,1.23-.69c0-.15.09-.3.14-.44h0l0,0a2.4,2.4,0,0,1,.11-.23,4.11,4.11,0,0,1,.24-.39,1.74,1.74,0,0,1,.11-.18l0,0,0,0a4.85,4.85,0,0,1,.56-.55c.85,1.1,1.69,2.21,2.53,3.32a1,1,0,0,0,1.37.36A1,1,0,0,0,392.57,210.63Z"/><path d="M373.94,252.31a4.08,4.08,0,0,0-5.06.66,3.31,3.31,0,0,0-.91,3,1,1,0,0,0,1.23.69,1,1,0,0,0,.7-1.22h0v-.27l.07-.25v0l0,0a2.54,2.54,0,0,1,.16-.28v0l0,0a1.67,1.67,0,0,1,.23-.23.76.76,0,0,1,.09-.09,3.52,3.52,0,0,1,.46-.28l.09,0,.07,0,.24-.07.26-.06H372l.2,0,.3.09.05,0,.09,0,.27.16.2.13.18.15a2.39,2.39,0,0,1,.22.23l.18.2.12.17q.18.29.33.57l.09.2c0,.09.07.17.1.26a4.64,4.64,0,0,1,.17.64c0,.11.05.22.07.33h0c0,.06,0,.12,0,.18a1,1,0,0,0,2,0A6.18,6.18,0,0,0,373.94,252.31Z"/><path d="M396.6,238.81l-1.68-2.33a1,1,0,0,0-1.37-.36,13.52,13.52,0,0,0-3.6,3,1,1,0,1,0,1.41,1.41A12.61,12.61,0,0,1,392.9,239a4.12,4.12,0,0,1,.4-.33l.11-.08.21-.15a1.88,1.88,0,0,1,.18-.12l1.07,1.48a1,1,0,0,0,1.73-1Z"/><path d="M355.65,274.11c.06.22,0,.09,0,0Z"/><path d="M355.81,274.66c0,.13,0,.07,0,0Z"/><path d="M357.37,273.07a4.46,4.46,0,0,0-2.4-2.14,3.55,3.55,0,0,0-1.91-.12,1,1,0,0,0-.7,1.18,7.15,7.15,0,0,0-2.63,3,1.14,1.14,0,0,0-.1.77,1,1,0,0,0,.46.59,1,1,0,0,0,1.37-.35,5.91,5.91,0,0,1,.66-1.11,6,6,0,0,1,.94-.95,6.52,6.52,0,0,1,.78-.51,1,1,0,0,0,.46-.59l.11,0,.3.16.17.11c.07.08.17.15.24.22s.16.18.24.27v0l.11.15c.06.11.12.22.17.33h0v0a1.77,1.77,0,0,0,.06.17,2,2,0,0,1,.09.35.07.07,0,0,1,0,.05v-.09c0,.06,0,.12,0,.18s0,.24,0,.35l0,.15-.06.18c0,.08,0,.09,0,.07a1.05,1.05,0,0,0-.07.7,1,1,0,0,0,.46.6,1,1,0,0,0,1.36-.36,3.42,3.42,0,0,0,.36-1.69A4.33,4.33,0,0,0,357.37,273.07Z"/><path d="M360.54,296.1a3.87,3.87,0,0,0-3.72,3.65,1,1,0,0,0,2,0c0-.05,0-.1,0-.15l0,.11a1,1,0,0,1,.05-.22l.06-.22v0l0-.05a3.72,3.72,0,0,1,.22-.38l0,0,.16-.17.16-.14.08-.06a3.13,3.13,0,0,1,.36-.19l.09,0,.21-.06.08,0h.38l.07,0,.21.05.12.05a2.68,2.68,0,0,1,.33.18l.09.06.12.11.16.16.06.07a3.37,3.37,0,0,1,.22.35l0,.08a1.66,1.66,0,0,1,.06.21c0,.06,0,.13,0,.19v.1a1,1,0,0,0,2,0A3.85,3.85,0,0,0,360.54,296.1Z"/><path d="M345.35,319.61a3.15,3.15,0,0,0-1.24-1.75,3.31,3.31,0,0,0-4.12.5,7,7,0,0,0-1.51,1.91,1,1,0,1,0,1.73,1,8,8,0,0,1,.56-.87l.05-.05c.06-.08.13-.15.19-.22l.36-.35.07-.06h0l.17-.11a1.38,1.38,0,0,1,.24-.14l.08,0c.08,0,.41-.16.45-.12h.23l.16.05.05,0,.15.09h0l.15.14.08.09.06.09a.64.64,0,0,0,.08.14v0a.83.83,0,0,1,0,.15v.07s0,0,0,.06h0a1,1,0,0,0,0,1.42,1,1,0,0,0,1.41,0A2.29,2.29,0,0,0,345.35,319.61Z"/><path d="M312.65,332.21a4.11,4.11,0,0,0-5.9,1.45,1,1,0,1,0,1.73,1c0-.1.1-.19.15-.29l.07-.09.2-.21.1-.09a5.09,5.09,0,0,1,.5-.3l.08,0,.32-.1.13,0,.11,0h.56l.43.12s0,0,.08,0h0l.15.08.27.18a1,1,0,0,0,.77.11,1.07,1.07,0,0,0,.6-.46A1,1,0,0,0,312.65,332.21Z"/><path d="M311.13,333.64l.09,0h0Z"/><path d="M278.4,346.13l.05-.09h0A.41.41,0,0,0,278.4,346.13Z"/><path d="M280.75,345.73c.09.09.1.09.08.06l-.06-.05Z"/><path d="M282.66,344.88a3.43,3.43,0,0,0-1.63-1.23,3.91,3.91,0,0,0-1.92-.12,3.49,3.49,0,0,0-2.77,2.3,1,1,0,0,0,.7,1.23,1,1,0,0,0,1.23-.7l0,0,0-.08a.41.41,0,0,1,.07-.11s0-.05.05-.08h0l0-.05s0,0,0,.05l.11-.12.1-.09.23-.14.13-.07.55-.15h.53l.3.08.09,0a2.2,2.2,0,0,1,.26.15s0,0,0,0l0,0h0l.06.05h0c.07.07.31.38.1.1a1.1,1.1,0,0,0,.6.46,1.08,1.08,0,0,0,.77-.1A1,1,0,0,0,282.66,344.88Z"/><path d="M236,357.69s0,0,0,0a0,0,0,0,1,0,0Z"/><path d="M240.59,357.12a3.33,3.33,0,0,0-6.58.77,1,1,0,0,0,2,0v-.19h0v0c0-.16,0-.09,0,0,0-.09.07-.29.08-.32l.09-.17.11-.16h0l.27-.28h0l.17-.1.15-.08h0l.18-.06h.39l.19,0,.15.05,0,0c.1,0,.2.12.3.18l0,0a.86.86,0,0,1,.14.13.52.52,0,0,1,.1.11l0,0,.1.16,0,.08h0l0,.09c0,.07,0,.14,0,.22a1,1,0,0,0,1.93-.53Z"/><path d="M201.15,359.12l-1.2-2.77a.92.92,0,0,0-.48-.41,1,1,0,0,0-.65-.05l-2.67.6a1,1,0,0,0-.69,1.23,1,1,0,0,0,1.23.7l1.82-.41c.3.71.61,1.41.91,2.12a1,1,0,0,0,.6.46,1.08,1.08,0,0,0,.77-.1,1.06,1.06,0,0,0,.46-.6A1.21,1.21,0,0,0,201.15,359.12Z"/><path d="M167.77,347.51a2.89,2.89,0,0,0-1.87-2,3.41,3.41,0,0,0-2.64.09,2.57,2.57,0,0,0-1.14,1.05,1,1,0,0,0,.36,1.37,1,1,0,0,0,1.37-.36.22.22,0,0,1,.05-.08l.08-.09,0,0h0l.06,0a.19.19,0,0,1,.08-.05l0,0,.07,0,.06,0-.05,0,.25-.07h.42l.27.07c.11,0,.39.18.06,0l.24.12.09.06.16.15h0l0,0,.05.09c0,.08.06.18.07.25a1,1,0,0,0,1.23.7A1,1,0,0,0,167.77,347.51Z"/><path d="M164.49,347.25h0Z"/><path d="M164,347.45h0l.1-.06-.08.05Z"/><path d="M164.19,347.32l0,0,0,0,.08,0Z"/></svg>