<svg id="Headwear" xmlns="http://www.w3.org/2000/svg" viewBox="0 0 500 500"><defs><style>.cls-1{fill:#f2881d;}.cls-2{fill:#d87113;}.cls-3{fill:#ffe6bc;}.cls-4{fill:#f2d5aa;}.cls-5{fill:#fcfbfa;}.cls-6{fill:#1a1a1a;}.cls-7{fill:#fff;}</style></defs><path class="cls-1" d="M393.23,183c-2.11-17-8.06-33-16.46-48.69-2-3.67-3.71-7.52-6.36-10.74-5.34-6.5-9.48-13.82-15.52-19.81-3.62-3.6-8.79-5.15-12.92-8.17-2.43-1.76-4.46-4-6.74-6C331,86,326.3,84.15,321.1,82.4c-4.69-1.58-9-4.1-13.74-5.82a159.66,159.66,0,0,0-18.82-5.19c-11.32-2.64-22.68-5.28-34.23-6.65-25.85-3.07-51.57,1-76.1,9.08a84.68,84.68,0,0,0-13.1,5.73,117.59,117.59,0,0,0-26.27,19.06c-7.7,7.41-15,15.79-20.32,25.1-1.93,3.4-3.72,6.87-5.51,10.35-1.36,2.64-2.72,5.28-3.81,8a90.86,90.86,0,0,0-3.46,11.59c-2.69,10.67-6.12,21-9.06,31.62-.58,2.09-1.14,4.39-.23,6.36a2.63,2.63,0,0,0,2.09,1.67c1.27.06,2.2-1.18,2.72-2.34,1.56-3.45,1.41-7.17,2.87-10.73a74.51,74.51,0,0,1,6.36-12.17,71.29,71.29,0,0,1,29.82-26c31.18-14.35,68.59-9.37,101.23-3.64C260,141.68,277.2,146.75,293,157c10.22,6.66,20.09,12.16,28.74,21a105,105,0,0,1,29.22,60.76q.57,4.88.68,9.8a112.73,112.73,0,0,1-5.26,36.83c-2.33,7.3-5.14,14.57-9.26,21.07s-8.8,10.47-15.24,14.33q-6.51,3.9-13.3,7.3a215.21,215.21,0,0,1-54.85,18.24c-9,1.77-17.94,2.33-26.89,3.79a122.4,122.4,0,0,1-28.67,1.53c-15.47-1.15-28.15-7.3-41.77-14.17-2.67-1.35-5.23-2.9-7.82-4.4-1.26-.73-2.52-1.46-3.81-2.15a12.41,12.41,0,0,1-2.39-1.41c-.64-.55-1-1.15-1.81-1.5a.93.93,0,0,0-.73-.05c-.48.23-.31.94-.07,1.42,2.93,5.77,6.36,11.51,11.35,15.74,2.54,2.15,5.93,3.59,8.91,5,3.23,1.56,6.54,3,9.89,4.26,5.11,2,10.33,3.64,15.6,5.13,45.47,12.82,91.6,2.21,135.05-13.65,7.76-2.83,15.51-5.86,22.48-10.29,5-3.18,10.81-7.3,13.69-12.64,3-5.59,5.26-11.75,8.38-17.49,7.19-13.26,14-26.82,19.11-41a125.7,125.7,0,0,0,6.45-30.15c1-9.35,2.13-18.57,3-27.87A110.49,110.49,0,0,0,393.23,183Z"/><path class="cls-2" d="M291.05,72.33C275.23,67.22,258,65,241.87,63.25a54.11,54.11,0,0,0-14.93.6c-13.21-1.18-26.61,2.39-39.41,6.1a3.33,3.33,0,0,0-2,1.49A2.92,2.92,0,0,0,184.5,73c-2.69,1.92-.8,7.13,3.09,6.19a235.47,235.47,0,0,1,27.1-4.94c14.55.27,29.13.19,43.61,1.79a186.44,186.44,0,0,1,25.79,4.68c8.89,2.28,13,5.62,19.74-1.81a1.25,1.25,0,0,0,.44-.85c0-.45-.49-.72-.89-.91A113.09,113.09,0,0,0,291.05,72.33Z"/><path class="cls-2" d="M146.53,91.88a134.94,134.94,0,0,0-28.07,32.52,108.34,108.34,0,0,0-9.86,19.15c-1.94,5.27-2.21,10.84-3.8,16.15-1.41,4.69-2.91,8.83-3.34,13.88a1.67,1.67,0,0,0,.14,1,1.13,1.13,0,0,0,1.59.11,3.16,3.16,0,0,0,.91-1.51c2.6-7,5.07-13.68,7.92-20.54,8.92-21.48,21.43-40.8,39.46-55.86C154.94,93.93,150,89,146.53,91.88Z"/><path class="cls-2" d="M388,157.08a3,3,0,0,0-3.37-2.49A135.91,135.91,0,0,0,377,133a2.84,2.84,0,0,0-3.86-1.56c-2.38-5.16-5-10.24-7.5-15.28-1.13-2.22-5.35-8.29-8.08-5.58-2.93,2.92,3.76,15,5.55,18.21,3,5.45,6,11,8.7,16.58,2.43,5.05,2.92,9.05,3.93,14.4,2.43,12.76,2.95,25.6,3.35,38.56a225.7,225.7,0,0,1-3,45.41c-5.69,32.81-21.28,62.24-39.51,89.48-.77,1.14-1.43,2.9-.3,3.68-.07,0,7.5-3.83,8.31-4.27a25.57,25.57,0,0,0,8-6.93,3,3,0,0,0,2.07-1.12c6.16-7.08,10.17-15.14,13.27-23.61a3.22,3.22,0,0,0,1.64-1.52c3.51-6.58,8.55-13.13,11.2-20,2.9-7.48,4-15.53,5.94-23.28a215.2,215.2,0,0,0,1.3-99.07Z"/><path class="cls-2" d="M314.92,322.81c-7.39,3.42-17.55,8.14-18.85,8.73a178.27,178.27,0,0,1-41.64,13.24c-16.94,3-34.12,5.31-51.36,4.61a108.38,108.38,0,0,1-32.75-6.06,84.49,84.49,0,0,1-15.2-7.34c-4.51-2.78-8.39-8.12-13.67-9.07-1.18,1.85.15,4.22,1.45,6,4.66,6.36,7.48,8.79,14.33,12.19a116,116,0,0,0,22.92,8.69c16,4.1,32.79,4.83,49.22,3.43a223.93,223.93,0,0,0,49.45-9.73c15.91-5.11,31.55-11.2,42.61-24.24,1-1.14,1.94-2.66,1.29-4C322.71,319.22,319.3,320.79,314.92,322.81Z"/><path d="M395.43,198.57c-.11-12.26-1-23-4.47-34.91a147.78,147.78,0,0,0-16-36.33c-11.2-18-26.95-33.46-45.94-43a163.82,163.82,0,0,0-21.94-8.69C285,68.4,262.22,63,239,62.21c-28.34-1-58.29,6-82.53,20.94a118.05,118.05,0,0,0-41.66,44.18,167.15,167.15,0,0,0-13.64,33.11,160.76,160.76,0,0,0-4,17.48c-.9,5.28-3.3,9.78-2.67,15.41.18,1.63,1.65,4.35,3.71,4.09,1.88-.24,3.76-4.08,4.64-5.54,2.7-4.53,4.43-9.54,6.55-14.35a59.57,59.57,0,0,1,13.24-18.7c22.14-21.4,53.07-22.76,81.83-21.2,34.86,1.89,72.29,10.24,100.54,31.76,22.78,17.35,40.52,42.11,43.13,71.5a112,112,0,0,1-4.1,41.8c-1.9,6.35-4.17,13.75-8.13,19.15a61.12,61.12,0,0,1-22.27,19.28A216.3,216.3,0,0,1,283,334.63,203.25,203.25,0,0,1,236.2,345c-15.38,1.53-30.46,3.63-45.9,1.16-10.82-1.73-21-6.12-30.65-11.12-4.38-2.26-8.7-4.63-12.9-7.2q-3.08-1.87-6.06-3.9c-.82-.56-3.05-2.56-4.12-1.58-.61.57-.21,2.9-.11,3.65a16.58,16.58,0,0,0,1,3.92,32.67,32.67,0,0,0,3.85,6.71,60.26,60.26,0,0,0,8.27,9.63,41.37,41.37,0,0,0,10,7.17,150.52,150.52,0,0,0,18.7,7.18,155.57,155.57,0,0,0,22.61,5.6c10.95,1.7,22.36,2.81,33.4,1.15,4.3-.65,8.44-.77,12.76-1.22,14.63-1.54,28.46-5.29,42.8-8.83,13.11-3.24,25.73-8.17,38.28-13.16,15-6,25.69-13.23,34.06-27.1,7.26-19.12,21.71-35.57,27.22-55.17C395.22,241.32,395.63,219.77,395.43,198.57Zm-3.67,15.33c-.26,16.74-1.8,34.76-7.56,50.62-6,16.39-14.64,32.32-23.49,47.3-10.59,17.93-29.19,28.79-48.87,34.82-11.36,3.48-22.76,6.87-34.29,9.76-22.7,5.67-46.11,9.34-69.56,7.62a113.55,113.55,0,0,1-22.5-4.42c-1.63-.46-3.25-.93-4.86-1.43a147.52,147.52,0,0,1-20.53-7.92c-.74,0-2.09-1.1-2.73-1.47-.88-.53-1.73-1.09-2.56-1.69a37.29,37.29,0,0,1-4.66-3.95c-2.74-2.72-5.78-5.7-7.83-9-.88-1.43-2.37-3.38-2.17-5.14.17-1.46,2.15.74,2.65,1,1.55.8,3.09,1.61,4.61,2.48,3,1.7,5.9,3.51,9,5.06,13.62,6.87,26.3,13,41.77,14.17a122.4,122.4,0,0,0,28.67-1.53c8.95-1.46,17.9-2,26.89-3.79a215.21,215.21,0,0,0,54.85-18.24q6.78-3.39,13.3-7.3C328.29,317,333,313,337.09,306.51s6.93-13.77,9.26-21.07a112.73,112.73,0,0,0,5.26-36.83q-.11-4.92-.68-9.8a105,105,0,0,0-29.22-60.76c-8.65-8.85-18.52-14.35-28.74-21-15.77-10.29-33-15.36-51.43-18.6-32.64-5.73-70-10.71-101.23,3.64a71.29,71.29,0,0,0-29.82,26,74.55,74.55,0,0,0-8.58,18.35c-.55,1.78-1.47,6.87-3.28,3.54s.34-8.05,1.26-11.2c2.69-9.18,5.32-18.4,8.54-27.41,2.43-6.83,4.55-13.9,7.88-20.38a116,116,0,0,1,15.84-23.35c29.14-33.3,75.94-47,118.94-41.18,12.18,1.64,24.58,2.94,36.41,6.43,14.51,4.29,27.91,8.94,41.32,15.75,21.57,10.95,38.48,30.83,49.39,52,6,11.57,10.4,22.44,12.18,35.48C392.1,188.62,392,201.3,391.76,213.9Z"/><path d="M361,296a1,1,0,0,0-1.23.7,28.26,28.26,0,0,1-5.59,8.49c-.88.93.53,2.34,1.42,1.41a30.91,30.91,0,0,0,6.1-9.37A1,1,0,0,0,361,296Z"/><path d="M124.92,123.79a29.61,29.61,0,0,0-8.63,16.61c-.2,1.26,1.73,1.8,1.93.53a27.82,27.82,0,0,1,8.12-15.72C127.26,124.31,125.85,122.9,124.92,123.79Z"/><path d="M384.85,215.22c-.11-1.27-2.11-1.28-2,0a71.15,71.15,0,0,1-.73,18.55c-.21,1.26,1.71,1.8,1.93.53A73.48,73.48,0,0,0,384.85,215.22Z"/><path d="M380,231a1.08,1.08,0,0,0-.29-.7,1,1,0,0,0-1.71.7,12.88,12.88,0,0,1,0,2.24c0,.17,0,.34,0,.51s0,.09,0,.14,0,.18,0,.28c-.07.37-.15.73-.24,1.09a1,1,0,0,0,.7,1.23,1,1,0,0,0,1.23-.7A13.1,13.1,0,0,0,380,231Z"/><path d="M379.66,251.49A66.23,66.23,0,0,1,372,274.54c-.62,1.13,1.11,2.14,1.73,1A67.87,67.87,0,0,0,381.59,252C381.76,250.76,379.84,250.22,379.66,251.49Z"/><path class="cls-1" d="M385.53,107.78a21.26,21.26,0,0,0-2.68-11.61,7.82,7.82,0,0,0-1.4-1.83l-.08-.18c-3.71-7.48-9.3-13.73-14.92-19.83A6.71,6.71,0,0,0,361.89,72a18.17,18.17,0,0,0-3.62-2.33c-6.53-3.12-15-3.58-22.11-2.87-15,1.5-29.14,8.37-38.8,20.07a7.9,7.9,0,0,0-1.58,3l-.58.68c-4.36,5.38-1.3,11.93,5.31,12.8,17.3,2.3,32.84,15.23,39.57,31.13a55.84,55.84,0,0,1,3.45,12.94c.69,4.15,2.25,8.49,6.28,10.51,6.25,3.15,12.69-1.09,17.87-6.48a8,8,0,0,0,1.56-1.29c6.59-6.92,13.83-13.64,16.11-23.3C386.84,120.57,386.52,114.13,385.53,107.78Z"/><path class="cls-2" d="M383,99.26a1.27,1.27,0,0,0-1.16-1.07,57.46,57.46,0,0,0-2.21-7.46c-.67-1.79-3.57-1-2.89.8a54.59,54.59,0,0,1-6.41,50.38c-1.78,2.53-3.88,5.51-6.39,7.37-2.32,1.73-5.22,2-5,5.88.09,1.39,10.5-4.36,11.33-5.17a46.59,46.59,0,0,0,7.88-10.7c4.05-7.38,7.31-15.67,7.19-24.2C385.33,109.74,384.18,104.46,383,99.26Z"/><path d="M385.48,98.66a53.09,53.09,0,0,0-23.43-28.43,48.51,48.51,0,0,0-36.5-4.84,52.39,52.39,0,0,0-30.2,21c-.86,1.28-1.65,2.61-2.38,4-.92,1.7,1.67,3.21,2.59,1.51,11.33-21.08,39.08-31.3,61-21.14a50.32,50.32,0,0,1,24.29,24.44,45.37,45.37,0,0,1,1.2,34.68c-4.57,12.54-14.38,23.37-26.83,28.38-1.77.72-1,3.62.79,2.9A51.49,51.49,0,0,0,383,135.53,49,49,0,0,0,385.48,98.66Z"/><path class="cls-3" d="M356.14,120.77a29,29,0,0,0,1.09-9.16,27.8,27.8,0,0,0-.84-5.87,5.94,5.94,0,0,0-2-3.09c-.11-.36-.21-.71-.34-1.06-2.56-6.7-8.59-12.58-16.17-12.29a2.45,2.45,0,0,0-1.72.74c-.82,0-1.65,0-2.47,0a3.07,3.07,0,0,0-1.48-.09c-3.27.61-6.59,1.1-9.83,1.86a15,15,0,0,0-2.27.7,7.18,7.18,0,0,0-5.89,9.09,7.36,7.36,0,0,0,2.13,3.36c2.27,4.52,6.86,7,11.12,9.41a44.3,44.3,0,0,1,12.16,9.66,40.5,40.5,0,0,1,4.43,6.29,11.4,11.4,0,0,0,2.18,3.31,3.8,3.8,0,0,0,4.51.27c2.36-1.43,3.91-4.63,4.7-7.17A16.38,16.38,0,0,0,356.14,120.77Z"/><path class="cls-4" d="M355.92,101.44a2.31,2.31,0,0,0-1.59-1.67c-.16-1.15-.36-2.29-.58-3.43a2.5,2.5,0,1,0-4.82,1.33c1,5,1.52,10.37.41,15.45a22.93,22.93,0,0,1-2.3,6.27,19.07,19.07,0,0,1-1.78,2.67,17.65,17.65,0,0,0-2.38,2.74c-1.16,2.2.31,5.34,1.77,7.08a5.23,5.23,0,0,0,6.41,1.33c4.45-2.21,5.38-8.67,5.84-13.05A64.27,64.27,0,0,0,355.92,101.44Z"/><path d="M358.74,117.58a33.22,33.22,0,0,0-2.15-17.37,21.46,21.46,0,0,0-11.27-11.37c-5.86-2.37-12.4-1.93-18.53-1-10.27,1.48-22.34,7.06-13.06,18.7,3.06,3.84,7.56,5.88,11.84,8.07a33.63,33.63,0,0,1,6.48,4,31.56,31.56,0,0,1,4.79,5.21c1.43,1.91,2.72,3.91,4,5.91,1.2,1.84,2.39,4.35,4.38,5.45,4.47,2.44,9.82-4.33,11.44-7.93C358,124.31,358.37,120.74,358.74,117.58Zm-12.93,14.15a56.89,56.89,0,0,1-3.51-5.28c-1.15-1.74-2.32-3.46-3.61-5.11a31.06,31.06,0,0,0-9.61-8.31c-3.79-2.09-8.1-3.66-11.34-6.62-8.55-7.84-1.06-13.76,7.41-15.32,5.31-1,11.13-1.61,16.43-.31,10.67,2.61,14.91,13.66,14.43,23.7-.23,4.64-.46,9.42-2.83,13.56C351.68,130.65,348.83,135.38,345.81,131.73Z"/><path class="cls-1" d="M126.6,62.83a18.64,18.64,0,0,1,6.15-8.52,7.14,7.14,0,0,1,1.77-1l.12-.11c5.58-4.81,12.26-8,18.92-11a6,6,0,0,1,4.51-.34,16,16,0,0,1,3.74-.66c6.38-.3,13.44,2.24,18.95,5.24,11.67,6.35,20.83,16.78,24.68,29.6a7,7,0,0,1,.25,3l.24.74c1.7,5.87-3,10.15-8.7,8.6-14.86-4.06-31.92,1.14-42.83,11.76a49.64,49.64,0,0,0-7.23,9.34c-2,3.13-4.74,6.12-8.7,6.39-6.17.42-9.94-5.23-12.31-11.39a6.73,6.73,0,0,1-.83-1.58c-3-7.88-6.58-15.82-5.12-24.45A43.63,43.63,0,0,1,126.6,62.83Z"/><path class="cls-2" d="M134,111c.79-3.14-3.58-10.88-4.06-12.32-2.9-8.7-4.62-16.2-2.77-25.58,1.14-5.82,5.25-10.72,5.6-16.52-.68-.31-1.17,0-1.68.49A38.47,38.47,0,0,0,120,83.6a39,39,0,0,0,6,20.23c1,1.73,3.78,8.36,5.93,8.5A1.76,1.76,0,0,0,134,111Z"/><path d="M129.76,55.43a46.9,46.9,0,0,1,28.78-15.1,42.82,42.82,0,0,1,31.33,8.56,46.22,46.22,0,0,1,17.35,27.45c.26,1.33.45,2.68.58,4,.16,1.69-2.46,2-2.62.34-2-21-21.06-38.82-42.4-38.08a44.35,44.35,0,0,0-28.1,11.55A40,40,0,0,0,121.83,82c-.58,11.76,3.69,23.92,12.1,32.26,1.19,1.18-.43,3.28-1.64,2.08a45.36,45.36,0,0,1-13.09-30A43.16,43.16,0,0,1,129.76,55.43Z"/><path class="cls-3" d="M145.5,85.59a25.63,25.63,0,0,1,1.44-8,25,25,0,0,1,2.23-4.74,5.22,5.22,0,0,1,2.46-2.1c.19-.27.36-.54.56-.81,3.89-5,10.49-8.39,16.81-6.2a2.16,2.16,0,0,1,1.26,1.07c.7.19,1.4.41,2.08.65a2.75,2.75,0,0,1,1.27.32c2.61,1.35,5.28,2.62,7.82,4.09a15,15,0,0,1,1.73,1.18,6.34,6.34,0,0,1,2.63,9.19,6.5,6.5,0,0,1-2.67,2.28c-3.07,3.23-7.6,4.18-11.8,5.08a38.82,38.82,0,0,0-12.75,5,34.8,34.8,0,0,0-5.36,4.16A10.46,10.46,0,0,1,150.52,99a3.34,3.34,0,0,1-3.87-.94c-1.63-1.81-2.11-4.91-2.12-7.25A14.63,14.63,0,0,1,145.5,85.59Z"/><path class="cls-4" d="M154.84,85.5a25,25,0,0,1,.52-14.41,2.28,2.28,0,0,0-2.22-3,2.7,2.7,0,0,0-2.56,1.2c-2.73,3.74-3.85,8.39-4.36,12.92a35.4,35.4,0,0,0-.2,4.6,3.28,3.28,0,0,0-.29,1,13.06,13.06,0,0,0,.16,3.85,24.35,24.35,0,0,0,.35,3c.44,2.32,1.49,5.17,4.34,5.15,2.54,0,4.36-2.91,5.43-4.88a2.58,2.58,0,0,0,.24-.65,5.24,5.24,0,0,0,.45-1.18C157.3,90.56,155.49,88,154.84,85.5Z"/><path d="M143.38,90.92c.43,3.46,3.2,10.55,7.6,9.64,2-.41,3.62-2.22,5.11-3.47s3.21-2.71,4.91-4A28.21,28.21,0,0,1,166.38,90a29.89,29.89,0,0,1,6.52-1.74c4.16-.74,8.49-1.3,12.06-3.76,10.83-7.43,2.08-15.24-6.2-19.14-4.94-2.32-10.34-4.39-15.9-3.89a18.87,18.87,0,0,0-12.43,6.68,29.22,29.22,0,0,0-6.3,14.1C143.63,85,143,88.1,143.38,90.92Zm2.75,1.57c-.93-4.1.1-8.19,1.11-12.17,2.18-8.59,8.6-16.82,18.27-16.28,4.81.27,9.56,2.3,13.79,4.5C186,72,190.83,79,181.6,83.37c-3.5,1.67-7.53,1.88-11.27,2.67a27.4,27.4,0,0,0-10.25,4.53c-1.51,1.06-3,2.21-4.36,3.39a54.44,54.44,0,0,1-4.33,3.55C147.9,99.8,146.72,95.08,146.13,92.49Z"/><path d="M132,62.76a21.78,21.78,0,0,0-5.82,13.92c-.06,1.29,1.94,1.29,2,0a19.58,19.58,0,0,1,5.24-12.5C134.32,63.24,132.91,61.82,132,62.76Z"/><path d="M129.09,90.87l0-.08a1.11,1.11,0,0,1-.07-.16c0-.1-.08-.2-.11-.29s-.16-.46-.23-.69a10,10,0,0,1-.33-1.31c0-.22-.09-.44-.12-.67h0a1.1,1.1,0,0,1,0-.18l0-.31a14.25,14.25,0,0,1-.05-1.46,1,1,0,0,0-2,0,14.7,14.7,0,0,0,1.26,6.17,1,1,0,0,0,1.37.36A1,1,0,0,0,129.09,90.87Z"/><path d="M376.45,97.26c-.74-1-2.47,0-1.73,1a23.28,23.28,0,0,1,2.54,21.81c-.48,1.2,1.45,1.71,1.93.53A25.16,25.16,0,0,0,376.45,97.26Z"/><path d="M375.73,131.53a1,1,0,0,0-1.37.36,43.29,43.29,0,0,1-5.52,9.19,1,1,0,0,0,0,1.41,1,1,0,0,0,1.41,0,45.38,45.38,0,0,0,5.84-9.59A1,1,0,0,0,375.73,131.53Z"/><path d="M352.73,107.68c-.28-1.25-2.2-.72-1.93.54a22,22,0,0,1-.57,11.51c-.4,1.23,1.53,1.75,1.93.53A24.09,24.09,0,0,0,352.73,107.68Z"/><path d="M153.17,74.28a1,1,0,0,0-1.37.36,23.52,23.52,0,0,0-1.92,11.82,1,1,0,0,0,1,1,1,1,0,0,0,1-1,21.65,21.65,0,0,1,1.64-10.81A1,1,0,0,0,153.17,74.28Z"/><path class="cls-3" d="M269.9,116.26c-5-9.42-14.25-12.71-24.18-15.19a6.55,6.55,0,0,0-1.32-.18,56.49,56.49,0,0,0-20.2-3.27,75.45,75.45,0,0,0-21.53,3.74c-5.43,1.75-11.38,3.6-15.07,8-5.58,2.94-10,8.46-10.4,14.8a12.25,12.25,0,0,0,3.37,9.68,6.87,6.87,0,0,0,5.3,5.74,43.27,43.27,0,0,0,37.19-6.41c3.64,4.82,10.29,9,15,11.71A39,39,0,0,0,248.21,149a8.3,8.3,0,0,0,2.54,1.05,27.15,27.15,0,0,0,23-4.74,14.76,14.76,0,0,0,2.37-2,6.89,6.89,0,0,0,1.88-7.13C280,128.72,273.48,123,269.9,116.26Z"/><path class="cls-5" d="M256.69,150.93a1.54,1.54,0,0,0-1.07-.44l-.39,0a1.56,1.56,0,0,0-.26.11.05.05,0,0,1,0,0l-.07,0h-.06l-.44-.06h-.12l-.45.06h-.07l-.05,0-.33.14a1.35,1.35,0,0,0-.33-.27,1.54,1.54,0,0,0-1.15-.16,1.59,1.59,0,0,0-.9.69l-.15.36a1.55,1.55,0,0,0,0,.8,4.34,4.34,0,0,0,.55,1.48,4.17,4.17,0,0,0,1,1.2,1.54,1.54,0,0,0,1.06.44l.4-.05a1.49,1.49,0,0,0,.66-.39l2.2-1.82a1.52,1.52,0,0,0,0-2.12Z"/><path class="cls-5" d="M198.28,142.62a1.48,1.48,0,0,0-1.3-.74l-3.4.28a1.78,1.78,0,0,0-1.06.45,1.5,1.5,0,0,0-1.93.15,1.53,1.53,0,0,0,0,2.12c.18.17.36.35.53.54a.76.76,0,0,1,.11.14l0,0h0a1.27,1.27,0,0,1,.13.19,6.18,6.18,0,0,1,.37.61l.18.35,0,.08v0a1.57,1.57,0,0,0,.69.89,1.51,1.51,0,0,0,1.16.15,7.12,7.12,0,0,0,4.44-3.75A1.58,1.58,0,0,0,198.28,142.62Z"/><path class="cls-4" d="M278.83,133.34c-.44-1.9-2-5.13-3.91-2.42-2.74,3.88-4.33,7.57-8.45,10.43-7.18,5-16.42,3.48-23.93.39a47.93,47.93,0,0,1-12.69-7.83c-2.64-2.17-5.49-7.39-9.33-6.93-5,.59-9.5,4.28-14.52,5.33a27.83,27.83,0,0,1-15.23-1.08,12.41,12.41,0,0,1-5.91-4,10.75,10.75,0,0,1-1.6-7.82,31.5,31.5,0,0,1,2.51-7.77c-6.91,3.34-9.47,9.91-7.9,17.33a12,12,0,0,0,6.43,8.41,21.68,21.68,0,0,0,3.2,1.21,2.09,2.09,0,0,0,1.26,1.82c4.91,2.46,9.94,1.35,15.06.43a54.51,54.51,0,0,0,15.58-5.36,4.32,4.32,0,0,1,2.83-.76,4.19,4.19,0,0,1,1.46.77l9.49,6.74c2.29,1.62,5,2.18,7.16,3.67,1.93,1.31,4,3,6.36,3.47,1.79.4,3.67.05,5.51.35,5.23.84,10.54,1.14,15.62-.7A17.62,17.62,0,0,0,278,140.11a10.89,10.89,0,0,0,.9-6.6A1.36,1.36,0,0,0,278.83,133.34Z"/><path d="M277,124.86c-5.36-10.3-12.45-18.75-23.58-23.06A82.75,82.75,0,0,0,227,96.51c-7.64-.32-15.09-.49-22.38,1.86a83.11,83.11,0,0,0-15.08,6.33c-9.28,5.17-17.62,13.77-14.09,25.2,1.89,6.1,7.33,10.61,13.34,12.67a1.46,1.46,0,0,0-.39,1.43,18.89,18.89,0,0,0,3.23,6.58,1.55,1.55,0,0,0,2.05.54,15.51,15.51,0,0,0,6.68-6.54,1.71,1.71,0,0,0,.16-1c7.75-1,15.18-4.78,22-8.44,7.26,6,14.77,12.08,23.76,15.3.72.26,1.46.49,2.21.7a10,10,0,0,0,1.4,4.33,19.09,19.09,0,0,0,1.08,1.72,2.15,2.15,0,0,0,3,.71,16,16,0,0,0,1.87-1.43c.55-.45,1.09-.92,1.6-1.42a26.93,26.93,0,0,0,2.26-2.52,26.4,26.4,0,0,0,12.06-3.35c3.86-2.23,7.38-5.76,8.38-10.24C281.25,134.06,279.26,129.18,277,124.86Zm-80.37,20-.05.06-.08.09c-.12.15-.24.3-.37.44a10,10,0,0,1-.71.74q-.36.36-.75.69l-.31.25-.31.23c-.21.15-.44.29-.66.43a18.42,18.42,0,0,1-1-1.66,15.44,15.44,0,0,1-1.08-2.89c.47.1.94.19,1.41.26a25.3,25.3,0,0,0,4.58.3C197.13,144.21,196.9,144.57,196.65,144.91Zm57.74,8.93-.61.51-.37.3-.11.09-.09.07-.15.1c-.22-.34-.44-.69-.64-1s-.29-.56-.43-.85l-.06-.13h0c0-.12-.09-.24-.13-.37a5.15,5.15,0,0,1-.16-.56,36.31,36.31,0,0,0,4.15.57l-.07.07C255.29,153,254.84,153.44,254.39,153.84Zm17.94-8.57c-6.67,5.07-15.29,5.26-23,3-9.78-2.81-17.86-9.59-25.53-16a1.58,1.58,0,0,0-1.82-.23c-7.87,4.24-16.3,8.79-25.49,8.76-6.88,0-14.24-3.66-17.38-10-5.31-10.68,6.21-19.88,14.19-24.76,9.17-5.6,20-7.36,30.6-7.11,11.06.25,23.56.72,33.1,7s18.72,16.73,20.37,28.29C278,138.76,275.82,142.61,272.33,145.27Z"/><path class="cls-6" d="M238.63,100.3a3.76,3.76,0,0,0-.41-.83,7.71,7.71,0,0,0-4-2.51,21.38,21.38,0,0,0-8.94-1.15,11.84,11.84,0,0,0-5.58.28,9.82,9.82,0,0,0-3.26.62,6.28,6.28,0,0,0-3.86,4.2c-.5,2.22.79,3.83,2.17,5.4a20.42,20.42,0,0,0,4.83,4.35c4.16,2.45,9.14,1.5,13.11-.87a36.88,36.88,0,0,0,5.91-4.5A3.24,3.24,0,0,0,238.63,100.3Z"/><path class="cls-6" d="M184.37,108.27a37.14,37.14,0,0,0-11.28-4,1.54,1.54,0,0,0-1.84,1,1.5,1.5,0,0,0,1,1.84,34.82,34.82,0,0,1,10.57,3.74,1.53,1.53,0,0,0,2-.54A1.51,1.51,0,0,0,184.37,108.27Z"/><path class="cls-6" d="M177.06,115.45A174.93,174.93,0,0,0,158,112.78c-1.92-.17-1.91,2.83,0,3a167.63,167.63,0,0,1,18.27,2.57C178.15,118.72,179,115.83,177.06,115.45Z"/><path class="cls-6" d="M280.83,111.22a1.52,1.52,0,0,0-1.84-1q-4.74,1.29-9.57,2.13a1.51,1.51,0,0,0-1,1.85,1.55,1.55,0,0,0,1.84,1q4.83-.86,9.57-2.14A1.51,1.51,0,0,0,280.83,111.22Z"/><path class="cls-6" d="M300.45,117.51a187.66,187.66,0,0,1-24.7,4.09c-1.91.18-1.93,3.18,0,3a193.12,193.12,0,0,0,25.5-4.2C303.13,120,302.33,117.07,300.45,117.51Z"/><path class="cls-6" d="M190.18,116.12a1.5,1.5,0,0,0,0,3A1.5,1.5,0,0,0,190.18,116.12Z"/><path class="cls-6" d="M184.82,121.48a1.5,1.5,0,0,0,0,3A1.5,1.5,0,0,0,184.82,121.48Z"/><path class="cls-6" d="M196.4,122.33a1.5,1.5,0,0,0,0,3A1.5,1.5,0,0,0,196.4,122.33Z"/><path class="cls-6" d="M269.56,124.28a1.39,1.39,0,0,0-.39-.66l-.3-.24a1.54,1.54,0,0,0-.76-.2h-.28a1.06,1.06,0,0,0-.58.13,1.14,1.14,0,0,0-.48.31,1,1,0,0,0-.31.48,1.15,1.15,0,0,0-.13.58l.05.4a1.59,1.59,0,0,0,.39.66l.3.23a1.48,1.48,0,0,0,.76.21h.28a1.15,1.15,0,0,0,.58-.13,1.11,1.11,0,0,0,.48-.31,1.14,1.14,0,0,0,.31-.48,1.08,1.08,0,0,0,.13-.58Z"/><path class="cls-6" d="M259.36,125.44a1.5,1.5,0,0,0,0,3A1.5,1.5,0,0,0,259.36,125.44Z"/><path class="cls-6" d="M266.66,132.85a1.36,1.36,0,0,0-.79-.79,1.15,1.15,0,0,0-.58-.13l-.4,0a1.59,1.59,0,0,0-.66.39l-.24.3a1.57,1.57,0,0,0-.2.76v.28a1.06,1.06,0,0,0,.13.58,1,1,0,0,0,.31.48,1.08,1.08,0,0,0,.48.31,1.06,1.06,0,0,0,.58.13l.4-.05a1.49,1.49,0,0,0,.66-.39l.23-.3a1.45,1.45,0,0,0,.21-.76v-.28A1.15,1.15,0,0,0,266.66,132.85Z"/><path class="cls-6" d="M272.25,91.66a8.8,8.8,0,0,0-4.93-2.35,8.59,8.59,0,0,0-3.53-.19,4.33,4.33,0,0,0-2.71,2.08,6.81,6.81,0,0,0-.89,3.32,5.87,5.87,0,0,0,1.26,5.45,6,6,0,0,0,5.76,1.91,7.12,7.12,0,0,0,2-.74,5.89,5.89,0,0,0,2-1.31,6,6,0,0,0,1.06-1.44c.09-.13.19-.25.27-.38A5.25,5.25,0,0,0,272.25,91.66Z"/><path class="cls-6" d="M214.66,83.65a6.05,6.05,0,0,0-5.23-.89,5.92,5.92,0,0,0-3.62,3.32,5.9,5.9,0,0,0-1.26,5.25c1.22,3.81,6.67,3.91,9.56,2.15A6,6,0,0,0,217,88.7,5.87,5.87,0,0,0,214.66,83.65Z"/><path class="cls-6" d="M235.62,62.43a1.29,1.29,0,0,0-1,.34,1.49,1.49,0,0,0-2.35,1.78,16.81,16.81,0,0,1,2.19,10.35,1.5,1.5,0,0,0,1.43,1.56A1.53,1.53,0,0,0,237.47,75l.59-4c.19-1.25.44-2.52.55-3.78C238.79,65.12,238,62.63,235.62,62.43Z"/><path class="cls-6" d="M253.88,66.71c-.32-2.42-5.54-4.55-7.32-2.38-.74.91.63,5,.73,6.14a34.88,34.88,0,0,1-2,14.67c-.61,1.69,1.71,2.54,2.69,1.27a28.67,28.67,0,0,0,5.61-12.86A23.09,23.09,0,0,0,253.88,66.71Z"/><path class="cls-6" d="M267.55,66.31a1.51,1.51,0,0,0-1.69,1l0,.11a1.52,1.52,0,0,0-1.21.39,1.51,1.51,0,0,0-2.86.89,21,21,0,0,1-.59,10.68,1.51,1.51,0,0,0,2.69,1.27,30.68,30.68,0,0,0,4.93-12.82A1.48,1.48,0,0,0,267.55,66.31Z"/><path class="cls-6" d="M281.75,70.71a1.53,1.53,0,0,0-1.6-1.15c-.08,0-.14,0-.21.06a1.56,1.56,0,0,0-1.26-.78,1.54,1.54,0,0,0-1.56,1.44c-.39,2.65-.77,5.31-1.15,8a1.49,1.49,0,0,0,1,1.49,1.57,1.57,0,0,0,1.72-.62,14.62,14.62,0,0,0,2.8-6.23A2.93,2.93,0,0,0,281.75,70.71Z"/><path class="cls-6" d="M224.47,64.37a1.42,1.42,0,0,0-.28-.5c-.84-.87-4.4-.5-5,.57s1,5.13,1.17,6.27a1.51,1.51,0,0,0,1.4,1.16,1.57,1.57,0,0,0,1.49-1C223.71,69.72,225,66,224.47,64.37Z"/><path class="cls-6" d="M392.47,168.14a2.09,2.09,0,0,0-.24-.6.54.54,0,0,0-.07-.13c-.1-.13-.2-.27-.31-.39a2.28,2.28,0,0,0-.48-.39l-.13-.07a3.43,3.43,0,0,0-.48-.19l-.4-.06a1.15,1.15,0,0,0-.26,0l.32-.45c1.05-1.63-1.55-3.13-2.59-1.52-6.24,9.65-17.88,13.15-28.29,16.22a1.5,1.5,0,0,0,.4,2.94A58.81,58.81,0,0,0,378.67,180c3.93-1.35,12-3.4,11.93-8.62a1.34,1.34,0,0,0,.62-.58l.16-.36a1.38,1.38,0,0,0,0-.45,1.5,1.5,0,0,0,.89-.69l.16-.36A1.51,1.51,0,0,0,392.47,168.14Z"/><path class="cls-6" d="M394,188.4a2,2,0,0,0-1.83-1l.65-.5a1.53,1.53,0,0,0,0-2.13,1.55,1.55,0,0,0-2.12,0,25.39,25.39,0,0,1-10.35,5.1,1.52,1.52,0,0,0-1.1,1.45,1.54,1.54,0,0,0,1.1,1.44,12.33,12.33,0,0,0,6.73.38,12.51,12.51,0,0,0,3.1-1.13,10.5,10.5,0,0,0,1.4-.86c.13-.09.25-.19.37-.29A1.71,1.71,0,0,0,394,188.4Z"/><path class="cls-6" d="M393.22,208.55a1.61,1.61,0,0,0-.71-.83l.13-.08c1.63-1,.13-3.63-1.51-2.59-10.22,6.47-23,2.69-34.33,4a1.52,1.52,0,0,0-1.06,2.56c2.2,2.45,6.14,2.11,9.12,2.28,3.83.22,7.66.4,11.5.43a107.16,107.16,0,0,0,11.47-.42,7,7,0,0,0,4.31-1.46A3.72,3.72,0,0,0,393.22,208.55Z"/><path class="cls-6" d="M391.48,229.11a22.94,22.94,0,0,1-7.6.86,8.72,8.72,0,0,0-3.3,0,2.32,2.32,0,0,0-1.75,2.86,1.57,1.57,0,0,0,1.44,1.1q3.51.45,7,.67a8.08,8.08,0,0,0,2.86-.12,2.48,2.48,0,0,0,1.9-2.36s0-.07,0-.1l.22-.06A1.5,1.5,0,0,0,391.48,229.11Z"/><path class="cls-6" d="M389.16,245.25a135.68,135.68,0,0,1-15.62-.4,1.51,1.51,0,0,0-1.5,1.5c-.06,3.3,4.68,3.38,7,3.63a52.94,52.94,0,0,0,9.75.19,1.54,1.54,0,0,0,1.5-1.5,49.79,49.79,0,0,0-1.09-3.42Z"/><path class="cls-6" d="M388.12,261.8c.24-1.14-1-2.47-2.2-1.66l-.35.23a1.27,1.27,0,0,0-1.72-.18,23.87,23.87,0,0,1-22.77,2c-1.73-.78-3.25,1.65-1.52,2.59a25.52,25.52,0,0,0,15.24,2.73l.18,0a16.94,16.94,0,0,0,2.14-.09c4-.24,8.14-1,10.7-4.28A1.55,1.55,0,0,0,388.12,261.8Z"/><path class="cls-6" d="M380.54,278.6a1.42,1.42,0,0,0-1.33-.7,1.77,1.77,0,0,0-1.37.07A18.51,18.51,0,0,1,372,279.4c-1.44.12-3,0-4.18.71l-1.17-.09a1.5,1.5,0,0,0-.4,2.94l1.42.36a1.52,1.52,0,0,0,1.13-.17,24.7,24.7,0,0,0,11.22-2.5A1.51,1.51,0,0,0,380.54,278.6Z"/><path class="cls-6" d="M373,292.64a1.55,1.55,0,0,0-2-.12,1.4,1.4,0,0,0-1.58-.09,18.28,18.28,0,0,1-12.39,1.9,1.51,1.51,0,0,0-1.46,2.51c3.76,4.41,11,4.7,15.24.9a1.28,1.28,0,0,0,.42-1.23,13.23,13.23,0,0,0,1.76-1.75A1.54,1.54,0,0,0,373,292.64Z"/><path class="cls-6" d="M385.67,153.06a1.55,1.55,0,0,0-1.42-.39,1.55,1.55,0,0,0-.71-1.6,1.52,1.52,0,0,0-2.05.54,16.56,16.56,0,0,1-8.19,6.63,1.53,1.53,0,0,0-1.08,1.65,1.49,1.49,0,0,0,1.48,1.3l.39-.07v0l.07,0a20.09,20.09,0,0,0,11.5-5.93A1.54,1.54,0,0,0,385.67,153.06Z"/><path class="cls-6" d="M130.18,132.62a30,30,0,0,1-14-2.21,1.5,1.5,0,0,0-1.85,1,1.33,1.33,0,0,0,.11,1,1.61,1.61,0,0,0-.87,1,1.52,1.52,0,0,0,1,1.85c5.14,2,10.74,1.11,16,.25C132.24,135.29,131.87,132.48,130.18,132.62Z"/><path class="cls-6" d="M123.05,145.29a1.55,1.55,0,0,0-1.84-1,17.81,17.81,0,0,1-9.59-1.34,1.54,1.54,0,0,0-2.05.54,1.6,1.6,0,0,0,.08,1.66,1.55,1.55,0,0,0-1.63.67,3.08,3.08,0,0,0-.39,2.46,1.52,1.52,0,0,0,1.85,1,1.41,1.41,0,0,0,.91-.75c3.83,1.08,7.9-.09,11.61-1.39A1.52,1.52,0,0,0,123.05,145.29Z"/><path class="cls-6" d="M110.91,158.38a1.38,1.38,0,0,0-.78-.54l-3.68-.57a1.68,1.68,0,0,0-1.16.16,1.49,1.49,0,0,0-.68.89,1.51,1.51,0,0,0,.15,1.16,2.69,2.69,0,0,0,.22.28c-.16.05-.31.11-.47.15a1.5,1.5,0,1,0,.79,2.89,21.84,21.84,0,0,0,5.19-2.22,1.5,1.5,0,0,0,.71-1.49A1.4,1.4,0,0,0,110.91,158.38Z"/><path class="cls-6" d="M104.78,172.2a2.34,2.34,0,0,0-2.21-1.62,1.5,1.5,0,0,0-1.5,1.5,1.72,1.72,0,0,0,.11.5L98.86,174a1.55,1.55,0,0,0-.69.9,1.49,1.49,0,0,0,.15,1.15,1.52,1.52,0,0,0,2.05.54l3.09-1.85a3.77,3.77,0,0,0,1.09-.79A1.88,1.88,0,0,0,104.78,172.2Z"/><path class="cls-6" d="M361.64,312.93a1.53,1.53,0,0,0-1.84-1.05,40.73,40.73,0,0,1-15.86-.57,1.5,1.5,0,0,0-1.15,2.74,21.28,21.28,0,0,0,10,3.8c2.69.25,5.58-.55,6.91-3,.29,0,.57-.07.85-.12A1.51,1.51,0,0,0,361.64,312.93Z"/><path class="cls-6" d="M130.76,119.83c-.15,0-.31,0-.46,0h-.19c-.3-.07-.61-.13-.91-.22l-.44-.15-.11,0-.07,0a7.29,7.29,0,0,1-.78-.42l-.35-.22-.24-.18a8.24,8.24,0,0,1-.62-.56c-.11-.11-.21-.23-.32-.35s-.09-.1-.13-.16a7.94,7.94,0,0,1-.5-.78,1.51,1.51,0,0,0-2-.54,1.55,1.55,0,0,0-.59.66,1.28,1.28,0,0,0-.7.62l-.71,1.39a1.53,1.53,0,0,0,.54,2,1.59,1.59,0,0,0,1.38,0,6,6,0,0,0,1.78,1.22,12.1,12.1,0,0,0,5.47.73,1.5,1.5,0,0,0,0-3Z"/><path class="cls-7" d="M221,98a6.15,6.15,0,0,0-4.46,1.58,1,1,0,0,0,0,1.41,1,1,0,0,0,1.42,0l.17-.15,0,0c.13-.1.27-.18.41-.27l.43-.22h0l.23-.08.47-.13.23,0,.09,0,.43,0H221a1,1,0,0,0,1-1A1,1,0,0,0,221,98Z"/><path class="cls-7" d="M220.4,101.37a1,1,0,0,0,0,2A1,1,0,0,0,220.4,101.37Z"/><path class="cls-7" d="M211.36,84.61a1,1,0,0,0-1.37-.36,7.34,7.34,0,0,0-3.28,4,1,1,0,0,0,.7,1.24,1,1,0,0,0,1.23-.7,1.06,1.06,0,0,1,.09-.25h0l0,0,.06-.12A4.52,4.52,0,0,1,209,88c.09-.15.18-.3.28-.45l.14-.2.07-.08a6.73,6.73,0,0,1,.75-.76l.21-.17c-.25.21,0,0,0,0A5,5,0,0,1,211,86,1,1,0,0,0,211.36,84.61Z"/><path class="cls-7" d="M208.73,88.54c.08-.17,0-.06,0,0Z"/><path class="cls-7" d="M211.43,87.59a.78.78,0,0,0-.21-.33.83.83,0,0,0-.32-.2.86.86,0,0,0-.39-.09l-.26,0a1,1,0,0,0-.44.25l-.16.21a1,1,0,0,0-.14.5v.28a.86.86,0,0,0,.09.39.75.75,0,0,0,.21.32.69.69,0,0,0,.32.21.73.73,0,0,0,.38.08l.27,0a.94.94,0,0,0,.44-.26l.16-.2a1,1,0,0,0,.13-.51V88A.71.71,0,0,0,211.43,87.59Z"/><path class="cls-7" d="M266.81,91.57a1,1,0,0,0-.46-.6l-.24-.1a1,1,0,0,0-.53,0,4.14,4.14,0,0,0-2.33,1.27,4.19,4.19,0,0,0-.75,1.08,4.77,4.77,0,0,0-.42,1.53,1,1,0,0,0,.3.71,1,1,0,0,0,.7.29,1,1,0,0,0,.71-.29,1.13,1.13,0,0,0,.29-.67l0,.11a3.16,3.16,0,0,1,.18-.67,5.39,5.39,0,0,1,.3-.52,2.53,2.53,0,0,1,.95-.74,3.15,3.15,0,0,1,.62-.17,1,1,0,0,0,.59-.46A1,1,0,0,0,266.81,91.57Z"/><path class="cls-7" d="M266.14,93.75a1,1,0,0,0,0,2A1,1,0,0,0,266.14,93.75Z"/></svg>