<?xml version="1.0" encoding="UTF-8"?><svg id="Headwear" xmlns="http://www.w3.org/2000/svg" viewBox="0 0 500 500"><defs><style>.cls-1{fill:#faaf3b;}.cls-2{fill:#fa6155;}.cls-3{fill:#ff0;}.cls-4{fill:#71cdf2;}.cls-5{fill:#a0db91;}</style></defs><g id="unicorn"><path d="M280.39,53.86c0-3.16-.71-6.47-2.34-6.98-.44-.14-.91,.03-1.33,.21-5.19,2.16-9.45,6.04-12.79,10.5-1.98,2.65-4.74,5.64-5.42,8.93-.05,.25-.09,.5-.23,.72-.15,.24-.4,.41-.63,.57-2.21,1.57-3.68,4.88-4.9,7.26-.66,1.3-1.27,2.67-1.42,4.12-.05,.47-.06,.96-.29,1.37-.19,.35-.53,.59-.84,.84-3.58,2.83-5.09,7.63-6.96,11.63-.44,.94-.88,2.02-.48,2.97,0,0-4.84,5.83-5.19,6.53-1.37,2.78-2.1,5.85-2.51,8.91-.09,.65-.16,1.3-.39,1.92-.3,.82-.85,1.53-1.31,2.27-6.02,9.8,2.48,17.84,11.77,20.12,9.52,2.33,18.23-.61,20.43-10.91,1.14-5.32,3.22-10.45,2.99-15.97-.02-.59-.15-1.29-.69-1.52,3.25-3.18,3.97-8.81,4.48-13.12,.06-.55,.01-1.25-.5-1.44,2.88-2.25,3.59-6.65,4.42-9.99,.22-.9,.45-1.81,.47-2.73,0-.29-.46-2.66-.48-2.63,2.44-3.31,3.3-8.16,3.65-12.17,.13-1.5-.06-4.4-.94-5.53,.9-.74,1.41-3.27,1.41-5.9Zm-1.96-1.76c.05,2.24-.69,5.49-.9,6.13-1.41,4.4-6.77,5.3-10.79,5.83-1.63,.22-3.28,.52-4.8,1.16,1.27-2.43,2.56-4.85,4.42-6.95,1.52-1.71,2.86-3.71,4.52-5.27,1.66-1.55,4.09-2.78,6.34-3.07,.86-.11,1.16,.85,1.2,2.17Zm-16.06,69.07c-.76,2.73-1.5,5.65-3.25,7.94-2.05,2.69-5.08,2.91-8.23,2.71-3.8-.24-7.89-.43-11.34-2.23-2-1.04-3.8-2.7-4.68-4.77,.04-.12,.06-.25,.05-.4-.06-1.92,.14-3.74,.52-5.49,1.88-5.95,9.06-6.56,14.3-6.2,3.11,.21,6.12,.28,9.18-.4,2.31-.51,4.54-1.39,6.61-2.54-1.06,3.8-2.11,7.59-3.17,11.39Zm6.2-22.3c-.84,3.01-1.94,5.36-4.01,7.76-1.94,2.26-4.72,3.04-7.57,3.5-3.36,.54-6.69-.05-10.06-.06-3.19,0-6.58,.7-9.27,2.34,1.12-.68,1.16-3.66,1.5-4.79,.52-1.71,1.3-3.37,2.24-4.88,1.86-2.97,4.6-5.62,8.1-6.45,3.28-.78,6.72-.32,10.05-.28,3.34,.05,6.56-.37,9.55-1.93,.25-.13,.6-.31,.99-.52-.52,1.76-1.04,3.53-1.53,5.3Zm2.49-10.58c-1.55,2.56-3.83,4.48-7.59,5.01-3.09,.44-6.23,.03-9.32,.02-1.66,0-3.33,.14-4.94,.51s-2.64,1.32-2.72-.64c-.09-2.21,1.69-5.04,2.97-6.71,2.97-3.86,7.63-6.31,12.46-6.71,2.62-.22,5.11,.21,7.7,.4,1.74,.13,3.43-.33,4.79-1.31-.9,3.29-1.72,6.72-3.36,9.42Zm2.91-12.49c-1.72,1.31-3.99,1.86-6.83,1.55-2.61-.28-5.26-.25-7.84,.26-2.02,.4-3.97,1.16-5.72,2.23,1.76-3.53,3.64-7.98,6.87-10.42,2.84-2.15,6.48-2.79,9.91-3.28,2.62-.38,5.56-1.37,7.38-3.33-.27,2.17,.23,4.27-.21,6.47-.58,2.93-1.77,5.15-3.58,6.52Z"/><path class="cls-4" d="M249.74,112.73c-5.24-.36-12.42,.25-14.3,6.2-.38,1.75-.57,3.57-.52,5.49,0,.15-.02,.28-.05,.4,.88,2.07,2.68,3.73,4.68,4.77,3.45,1.8,7.54,1.99,11.34,2.23,3.15,.2,6.18-.02,8.23-2.71,1.75-2.29,2.49-5.21,3.25-7.94,1.06-3.8,2.11-7.59,3.17-11.39-2.07,1.16-4.3,2.03-6.61,2.54-3.06,.68-6.08,.61-9.18,.4Z"/><path class="cls-5" d="M259.56,96.02c-3.34-.05-6.77-.51-10.05,.28-3.5,.83-6.24,3.48-8.1,6.45-.95,1.51-1.73,3.17-2.24,4.88-.34,1.13-.38,4.1-1.5,4.79,2.69-1.65,6.08-2.35,9.27-2.34,3.37,0,6.7,.6,10.06,.06,2.85-.46,5.63-1.25,7.57-3.5,2.07-2.4,3.17-4.75,4.01-7.76,.49-1.77,1.01-3.54,1.53-5.3-.39,.22-.74,.39-.99,.52-2.99,1.56-6.21,1.98-9.55,1.93Z"/><path class="cls-3" d="M261.92,79.78c-4.84,.4-9.5,2.85-12.46,6.71-1.28,1.67-3.06,4.5-2.97,6.71,.08,1.96,1.13,1.01,2.72,.64,1.62-.37,3.29-.52,4.94-.51,3.1,0,6.24,.42,9.32-.02,3.76-.54,6.04-2.45,7.59-5.01,1.64-2.7,2.46-6.13,3.36-9.42-1.37,.99-3.06,1.44-4.79,1.31-2.59-.19-5.08-.61-7.7-.4Z"/><path class="cls-1" d="M270.36,66.14c-3.43,.5-7.08,1.13-9.91,3.28-3.23,2.45-5.11,6.89-6.87,10.42,1.75-1.07,3.7-1.83,5.72-2.23,2.58-.51,5.23-.54,7.84-.26,2.84,.31,5.11-.24,6.83-1.55,1.81-1.38,3-3.59,3.58-6.52,.44-2.2-.07-4.3,.21-6.47-1.83,1.96-4.76,2.95-7.38,3.33Z"/><path class="cls-2" d="M277.23,49.93c-2.25,.3-4.68,1.52-6.34,3.07-1.67,1.56-3,3.56-4.52,5.27-1.86,2.09-3.15,4.52-4.42,6.95,1.52-.64,3.17-.94,4.8-1.16,4.01-.53,9.38-1.42,10.79-5.83,.2-.64,.95-3.89,.9-6.13-.03-1.32-.34-2.28-1.2-2.17Z"/></g></svg>