<?xml version="1.0" encoding="UTF-8"?>
<svg id="Background" xmlns="http://www.w3.org/2000/svg" xmlns:xlink="http://www.w3.org/1999/xlink" viewBox="0 0 500 500">
  <defs>
    <style>
      .cls-1 {
        fill: none;
      }

      .cls-2 {
        fill: url(#linear-gradient);
      }

      .cls-3 {
        fill: #9fe8e6;
      }

      .cls-4 {
        fill: #ddf7f7;
      }

      .cls-5 {
        fill: url(#New_Pattern_12);
      }
    </style>
    <linearGradient id="linear-gradient" x1="250" y1="500" x2="250" y2="0" gradientTransform="matrix(1, 0, 0, 1, 0, 0)" gradientUnits="userSpaceOnUse">
      <stop offset="0" stop-color="#bbb"/>
      <stop offset=".02" stop-color="#c1c1c1"/>
      <stop offset=".12" stop-color="#d8d8d8"/>
      <stop offset=".23" stop-color="#e9e9e9"/>
      <stop offset=".36" stop-color="#f5f5f5"/>
      <stop offset=".55" stop-color="#fdfdfd"/>
      <stop offset="1" stop-color="#fff"/>
    </linearGradient>
    <pattern id="New_Pattern_12" data-name="New Pattern 12" x="0" y="0" width="215.9" height="243.82" patternUnits="userSpaceOnUse" viewBox="0 0 215.9 243.82">
      <g>
        <rect class="cls-1" width="215.9" height="243.82"/>
        <g>
          <g>
            <g>
              <path class="cls-3" d="M154.23,200.92c-1.85-.03-3.7,.09-5.55-.2-.87-.13-1.35,.28-1.53,1.16-.36,1.81-.84,3.6-1.17,5.42-.69,3.82-1.67,7.54-3.22,11.11-.17,.39-.52,.78-.19,1.26,.36-.02,.62-.23,.89-.43,1.83-1.34,3.13-3.21,4.65-4.85,1.92-2.07,3.33-4.5,4.63-6.97,.88-1.68,1.93-3.3,2.49-5.14,.38-1.23,.31-1.33-1-1.36Z"/>
              <path class="cls-3" d="M138.52,210.12c-.8-2.69-1.66-5.37-2.09-8.14-.14-.93-.49-1.06-1.24-1.05-2.35,.02-4.7,0-7.29,0,1.07,3.51,3.51,6.11,5.1,9.17,1.68,3.24,4.12,6,6.55,8.72,.23,.26,.42,.7,.96,.59,.17-.86-.28-1.63-.43-2.43-.44-2.31-.88-4.63-1.55-6.87Z"/>
            </g>
            <path class="cls-4" d="M145.75,205.63c.3-1.31,.54-2.63,.73-3.96,.13-.92-.07-1.15-1-1.01-2.4,.36-4.81,.2-7.22,.29-.96,.04-1.21,.31-1.08,1.23,.17,1.16,.46,2.3,.75,3.44,.69,2.71,1.75,5.31,2.17,8.1,.25,1.69,.83,3.32,1.35,5.3,1.18-1.92,1.84-3.64,2.32-5.42,.72-2.64,1.35-5.31,1.97-7.98Z"/>
            <g>
              <path class="cls-4" d="M138.54,199.99c.57,.69,1.68,.14,2.54,.2,.11,0,.22-.01,.33-.04,.32-.09,.46-.33,.36-.63-.56-1.56-.74-3.24-1.45-4.81-.57,.99-.93,1.97-1.23,2.98-.23,.78-1.12,1.61-.55,2.3Z"/>
              <path class="cls-4" d="M143.39,200.27c.91-.38,1.81-.15,2.76-.48-.51-1.3-.99-2.54-1.47-3.77-.77,1.32-1.51,2.55-1.29,4.25Z"/>
              <path class="cls-4" d="M151.26,199.87c-.73-1.8-1.08-3.59-2.27-4.99-.17,.07-.26,.09-.27,.12-.17,.64-.35,1.28-.49,1.93-.67,3.24-.53,3.38,3.03,2.95Z"/>
              <path class="cls-4" d="M152.68,199.93c1.01,.18,1.94,.13,3.02-.04-.4-1.77-1.16-3.28-2.12-5.1-.75,1.88-.7,3.5-.9,5.14Z"/>
              <path class="cls-4" d="M132.54,200.14c-.85-2.04-1.4-3.97-2.41-5.73-.22,.13-.35,.17-.41,.25-.88,1.29-1.11,2.87-2.03,4.16-.42,.59,.08,1.04,.71,1.18,1.3,.29,2.61,.26,4.13,.13Z"/>
              <path class="cls-4" d="M134.85,200.18c.34,.03,.67,.04,1.01,.07,.65,.07,1-.2,.84-.86-.34-1.42-.18-2.92-.85-4.49-1.09,1.07-1.31,2.47-2.03,3.58-.79,1.22-.5,1.57,1.03,1.69Z"/>
            </g>
            <g>
              <path class="cls-3" d="M142.24,198.87c1.13-1.45,1.32-3,1.55-4.52,.06-.39-.21-.62-.6-.65-.39-.02-.78-.03-1.17-.02-.73,.02-.98,.37-.79,1.1,.34,1.29,.64,2.59,1.01,4.09Z"/>
              <path class="cls-3" d="M152.33,196.46q.51-3.03-2.54-2.91c-.05,0-.1,.04-.47,.2,1.19,1.44,1.42,3.26,2.48,4.74,.54-.67,.42-1.38,.53-2.03Z"/>
              <path class="cls-3" d="M146.99,198.91c.13-1.43,.82-2.71,.9-4.11,.02-.33,.14-.68-.11-.96-.17-.2-1.86-.25-2.13-.05-.47,.34-.55,.87-.41,1.35,.38,1.32,.81,2.63,1.75,3.77Z"/>
              <path class="cls-3" d="M137.8,198.85c.97-1.64,1.34-3.35,1.8-5.1-1.11-.31-2.08-.27-3.13-.08,.2,.94,.32,1.82,.58,2.67,.24,.79-.14,1.76,.75,2.52Z"/>
              <path class="cls-3" d="M135.26,193.64c-1.53-.2-2.93-.23-4.47,0,.61,1.67,1.16,3.24,2.07,4.8,1.21-1.49,1.79-3.08,2.4-4.8Z"/>
            </g>
            <path d="M156.16,198.39c.21,.51,.5,1.01,.48,1.6-.11,1.31-.55,2.53-1.16,3.66-1.6,2.94-2.89,6.07-4.93,8.76-2.03,2.67-4.06,5.36-6.69,7.49-.47,.38-.98,.74-1.52,1.02-1.14,.58-1.32,.43-2.27-.47-2.21-2.09-3.89-4.61-5.8-6.94-.9-1.09-1.51-2.35-2.21-3.56-1.06-1.84-2.09-3.69-3.31-5.44-.8-1.15-1.31-2.45-1.78-3.78-.37-1.05-.23-2,.25-2.85,.68-1.22,1.24-2.5,1.9-3.73,.46-.86,1.07-1.26,2.13-1.25,3.75,.02,7.5,.1,11.25,.18,3.19,.06,6.38-.04,9.57-.18,1.25-.06,1.93,.31,2.35,1.53,.47,1.37,1.2,2.65,1.76,3.99Zm-6.84-4.64c1.19,1.44,1.42,3.26,2.48,4.74,.54-.67,.42-1.38,.53-2.03q.51-3.03-2.54-2.91c-.05,0-.1,.04-.47,.2Zm-1.08,3.17c-.67,3.24-.53,3.38,3.03,2.95-.73-1.8-1.08-3.59-2.27-4.99-.17,.07-.26,.09-.27,.12-.17,.64-.35,1.28-.49,1.93Zm-3-1.79c.38,1.32,.81,2.63,1.75,3.77,.13-1.43,.82-2.71,.9-4.11,.02-.33,.14-.68-.11-.96-.17-.2-1.86-.25-2.13-.05-.47,.34-.55,.87-.41,1.35Zm-.56,.88c-.77,1.32-1.51,2.55-1.29,4.25,.91-.38,1.81-.15,2.76-.48-.51-1.3-.99-2.54-1.47-3.77Zm-3.45-1.25c.34,1.29,.64,2.59,1.01,4.09,1.13-1.45,1.32-3,1.55-4.52,.06-.39-.21-.62-.6-.65-.39-.02-.78-.03-1.17-.02-.73,.02-.98,.37-.79,1.1Zm-.91-.07c-.57,.99-.93,1.97-1.23,2.98-.23,.78-1.12,1.61-.55,2.3,.57,.69,1.68,.14,2.54,.2,.11,0,.22-.01,.33-.04,.32-.09,.46-.33,.36-.63-.56-1.56-.74-3.24-1.45-4.81Zm-3.86-1.04c.2,.94,.32,1.82,.58,2.67,.24,.79-.14,1.76,.75,2.52,.97-1.64,1.34-3.35,1.8-5.1-1.11-.31-2.08-.27-3.13-.08Zm-.62,1.23c-1.09,1.07-1.31,2.47-2.03,3.58-.79,1.22-.5,1.57,1.03,1.69,.34,.03,.67,.04,1.01,.07,.65,.07,1-.2,.84-.86-.34-1.42-.18-2.92-.85-4.49Zm-5.05-1.26c.61,1.67,1.16,3.24,2.07,4.8,1.21-1.49,1.79-3.08,2.4-4.8-1.53-.2-2.93-.23-4.47,0Zm-2.38,6.37c1.3,.29,2.61,.26,4.13,.13-.85-2.04-1.4-3.97-2.41-5.73-.22,.13-.35,.17-.41,.25-.88,1.29-1.11,2.87-2.03,4.16-.42,.59,.08,1.04,.71,1.18Zm11.66,16.99c-.44-2.31-.88-4.63-1.55-6.87-.8-2.69-1.66-5.37-2.09-8.14-.14-.93-.49-1.06-1.24-1.05-2.35,.02-4.7,0-7.29,0,1.07,3.51,3.51,6.11,5.1,9.17,1.68,3.24,4.12,6,6.55,8.72,.23,.26,.42,.7,.96,.59,.17-.86-.28-1.63-.43-2.43Zm3.71-3.38c.72-2.64,1.35-5.31,1.97-7.98,.3-1.31,.54-2.63,.73-3.96,.13-.92-.07-1.15-1-1.01-2.4,.36-4.81,.2-7.22,.29-.96,.04-1.21,.31-1.08,1.23,.17,1.16,.46,2.3,.75,3.44,.69,2.71,1.75,5.31,2.17,8.1,.25,1.69,.83,3.32,1.35,5.3,1.18-1.92,1.84-3.64,2.32-5.42Zm10.45-12.69c-1.85-.03-3.7,.09-5.55-.2-.87-.13-1.35,.28-1.53,1.16-.36,1.81-.84,3.6-1.17,5.42-.69,3.82-1.67,7.54-3.22,11.11-.17,.39-.52,.78-.19,1.26,.36-.02,.62-.23,.89-.43,1.83-1.34,3.13-3.21,4.65-4.85,1.92-2.07,3.33-4.5,4.63-6.97,.88-1.68,1.93-3.3,2.49-5.14,.38-1.23,.31-1.33-1-1.36Zm1.48-1.03c-.4-1.77-1.16-3.28-2.12-5.1-.75,1.88-.7,3.5-.9,5.14,1.01,.18,1.94,.13,3.02-.04Z"/>
          </g>
          <g>
            <g>
              <path class="cls-4" d="M123.46,245.2c.27,.32,.78,.06,1.19,.09,.05,0,.1,0,.15-.02,.15-.04,.22-.15,.17-.29-.26-.73-.34-1.51-.68-2.24-.27,.46-.43,.92-.57,1.39-.11,.36-.52,.75-.26,1.07Z"/>
              <path class="cls-4" d="M125.72,245.33c.42-.18,.84-.07,1.29-.22-.24-.61-.46-1.18-.69-1.76-.36,.61-.7,1.19-.6,1.98Z"/>
              <path class="cls-4" d="M129.39,245.15c-.34-.84-.5-1.68-1.06-2.33-.08,.03-.12,.04-.12,.06-.08,.3-.17,.6-.23,.9-.31,1.51-.25,1.58,1.41,1.37Z"/>
              <path class="cls-4" d="M130.05,245.18c.47,.08,.9,.06,1.41-.02-.19-.82-.54-1.53-.99-2.38-.35,.88-.33,1.63-.42,2.4Z"/>
              <path class="cls-4" d="M120.65,245.27c-.4-.95-.65-1.85-1.12-2.67-.1,.06-.16,.08-.19,.12-.41,.6-.52,1.34-.95,1.94-.2,.28,.04,.49,.33,.55,.61,.14,1.22,.12,1.93,.06Z"/>
              <path class="cls-4" d="M121.73,245.29c.16,.01,.31,.02,.47,.03,.31,.03,.47-.09,.39-.4-.16-.66-.09-1.36-.4-2.09-.51,.5-.61,1.15-.94,1.67-.37,.57-.23,.73,.48,.79Z"/>
            </g>
            <g>
              <path class="cls-3" d="M125.18,244.68c.53-.68,.61-1.4,.72-2.11,.03-.18-.1-.29-.28-.3-.18-.01-.37-.02-.55,0-.34,.01-.46,.17-.37,.51,.16,.6,.3,1.21,.47,1.91Z"/>
              <path class="cls-3" d="M129.89,243.56q.24-1.41-1.19-1.36s-.05,.02-.22,.09c.55,.67,.66,1.52,1.16,2.21,.25-.31,.2-.64,.25-.95Z"/>
              <path class="cls-3" d="M127.39,244.7c.06-.67,.38-1.26,.42-1.92,0-.15,.06-.32-.05-.45-.08-.09-.87-.12-.99-.02-.22,.16-.26,.41-.19,.63,.18,.62,.38,1.23,.81,1.76Z"/>
              <path class="cls-3" d="M123.11,244.67c.45-.77,.63-1.56,.84-2.38-.52-.14-.97-.13-1.46-.04,.09,.44,.15,.85,.27,1.24,.11,.37-.06,.82,.35,1.17Z"/>
              <path class="cls-3" d="M121.92,242.24c-.72-.09-1.37-.11-2.08,0,.29,.78,.54,1.51,.96,2.24,.56-.69,.83-1.44,1.12-2.24Z"/>
            </g>
            <path d="M131.67,244.46c.1,.24,.23,.47,.22,.75-.05,.61-.26,1.18-.54,1.71-.75,1.37-1.35,2.83-2.3,4.09-.95,1.25-1.89,2.5-3.12,3.49-.22,.18-.46,.35-.71,.47-.53,.27-.61,.2-1.06-.22-1.03-.98-1.81-2.15-2.71-3.24-.42-.51-.71-1.1-1.03-1.66-.5-.86-.98-1.72-1.54-2.54-.37-.54-.61-1.14-.83-1.76-.17-.49-.11-.93,.11-1.33,.32-.57,.58-1.17,.89-1.74,.22-.4,.5-.59,.99-.59,1.75,0,3.5,.05,5.25,.08,1.49,.03,2.98-.02,4.46-.09,.58-.03,.9,.14,1.1,.71,.22,.64,.56,1.24,.82,1.86Zm-3.19-2.16c.55,.67,.66,1.52,1.16,2.21,.25-.31,.2-.64,.25-.95q.24-1.41-1.19-1.36s-.05,.02-.22,.09Zm-.5,1.48c-.31,1.51-.25,1.58,1.41,1.37-.34-.84-.5-1.68-1.06-2.33-.08,.03-.12,.04-.12,.06-.08,.3-.17,.6-.23,.9Zm-1.4-.83c.18,.62,.38,1.23,.81,1.76,.06-.67,.38-1.26,.42-1.92,0-.15,.06-.32-.05-.45-.08-.09-.87-.12-.99-.02-.22,.16-.26,.41-.19,.63Zm-.26,.41c-.36,.61-.7,1.19-.6,1.98,.42-.18,.84-.07,1.29-.22-.24-.61-.46-1.18-.69-1.76Zm-1.61-.58c.16,.6,.3,1.21,.47,1.91,.53-.68,.61-1.4,.72-2.11,.03-.18-.1-.29-.28-.3-.18-.01-.37-.02-.55,0-.34,.01-.46,.17-.37,.51Zm-.42-.03c-.27,.46-.43,.92-.57,1.39-.11,.36-.52,.75-.26,1.07,.27,.32,.78,.06,1.19,.09,.05,0,.1,0,.15-.02,.15-.04,.22-.15,.17-.29-.26-.73-.34-1.51-.68-2.24Zm-1.8-.49c.09,.44,.15,.85,.27,1.24,.11,.37-.06,.82,.35,1.17,.45-.77,.63-1.56,.84-2.38-.52-.14-.97-.13-1.46-.04Zm-.29,.58c-.51,.5-.61,1.15-.94,1.67-.37,.57-.23,.73,.48,.79,.16,.01,.31,.02,.47,.03,.31,.03,.47-.09,.39-.4-.16-.66-.09-1.36-.4-2.09Zm-2.36-.59c.29,.78,.54,1.51,.96,2.24,.56-.69,.83-1.44,1.12-2.24-.72-.09-1.37-.11-2.08,0Zm-1.11,2.97c.61,.14,1.22,.12,1.93,.06-.4-.95-.65-1.85-1.12-2.67-.1,.06-.16,.08-.19,.12-.41,.6-.52,1.34-.95,1.94-.2,.28,.04,.49,.33,.55Zm5.44,7.93c-.2-1.08-.41-2.16-.72-3.21-.37-1.25-.77-2.5-.97-3.8-.07-.43-.23-.49-.58-.49-1.1,0-2.19,0-3.4,0,.5,1.64,1.64,2.85,2.38,4.28,.78,1.51,1.92,2.8,3.05,4.07,.11,.12,.2,.33,.45,.27,.08-.4-.13-.76-.2-1.13Zm1.73-1.58c.33-1.23,.63-2.48,.92-3.72,.14-.61,.25-1.23,.34-1.85,.06-.43-.03-.53-.47-.47-1.12,.17-2.24,.09-3.37,.14-.45,.02-.57,.14-.5,.57,.08,.54,.22,1.07,.35,1.61,.32,1.26,.82,2.48,1.01,3.78,.12,.79,.39,1.55,.63,2.47,.55-.9,.86-1.7,1.08-2.53Zm4.87-5.92c-.86-.02-1.73,.04-2.59-.09-.4-.06-.63,.13-.71,.54-.17,.84-.39,1.68-.55,2.53-.32,1.78-.78,3.52-1.5,5.18-.08,.18-.24,.36-.09,.59,.17,0,.29-.11,.41-.2,.86-.63,1.46-1.5,2.17-2.26,.89-.97,1.56-2.1,2.16-3.25,.41-.79,.9-1.54,1.16-2.4,.18-.57,.15-.62-.47-.63Zm.69-.48c-.19-.82-.54-1.53-.99-2.38-.35,.88-.33,1.63-.42,2.4,.47,.08,.9,.06,1.41-.02Z"/>
          </g>
        </g>
        <g>
          <g>
            <g>
              <path class="cls-3" d="M46.28,200.92c-1.85-.03-3.7,.09-5.55-.2-.87-.13-1.35,.28-1.53,1.16-.36,1.81-.84,3.6-1.17,5.42-.69,3.82-1.67,7.54-3.22,11.11-.17,.39-.52,.78-.19,1.26,.36-.02,.62-.23,.89-.43,1.83-1.34,3.13-3.21,4.65-4.85,1.92-2.07,3.33-4.5,4.63-6.97,.88-1.68,1.93-3.3,2.49-5.14,.38-1.23,.31-1.33-1-1.36Z"/>
              <path class="cls-3" d="M30.58,210.12c-.8-2.69-1.66-5.37-2.09-8.14-.14-.93-.49-1.06-1.24-1.05-2.35,.02-4.7,0-7.29,0,1.07,3.51,3.51,6.11,5.1,9.17,1.68,3.24,4.12,6,6.55,8.72,.23,.26,.42,.7,.96,.59,.17-.86-.28-1.63-.43-2.43-.44-2.31-.88-4.63-1.55-6.87Z"/>
            </g>
            <path class="cls-4" d="M37.8,205.63c.3-1.31,.54-2.63,.73-3.96,.13-.92-.07-1.15-1-1.01-2.4,.36-4.81,.2-7.22,.29-.96,.04-1.21,.31-1.08,1.23,.17,1.16,.46,2.3,.75,3.44,.69,2.71,1.75,5.31,2.17,8.1,.25,1.69,.83,3.32,1.35,5.3,1.18-1.92,1.84-3.64,2.32-5.42,.72-2.64,1.35-5.31,1.97-7.98Z"/>
            <g>
              <path class="cls-4" d="M30.6,199.99c.57,.69,1.68,.14,2.54,.2,.11,0,.22-.01,.33-.04,.32-.09,.46-.33,.36-.63-.56-1.56-.74-3.24-1.45-4.81-.57,.99-.93,1.97-1.23,2.98-.23,.78-1.12,1.61-.55,2.3Z"/>
              <path class="cls-4" d="M35.45,200.27c.91-.38,1.81-.15,2.76-.48-.51-1.3-.99-2.54-1.47-3.77-.77,1.32-1.51,2.55-1.29,4.25Z"/>
              <path class="cls-4" d="M43.31,199.87c-.73-1.8-1.08-3.59-2.27-4.99-.17,.07-.26,.09-.27,.12-.17,.64-.35,1.28-.49,1.93-.67,3.24-.53,3.38,3.03,2.95Z"/>
              <path class="cls-4" d="M44.73,199.93c1.01,.18,1.94,.13,3.02-.04-.4-1.77-1.16-3.28-2.12-5.1-.75,1.88-.7,3.5-.9,5.14Z"/>
              <path class="cls-4" d="M24.59,200.14c-.85-2.04-1.4-3.97-2.41-5.73-.22,.13-.35,.17-.41,.25-.88,1.29-1.11,2.87-2.03,4.16-.42,.59,.08,1.04,.71,1.18,1.3,.29,2.61,.26,4.13,.13Z"/>
              <path class="cls-4" d="M26.9,200.18c.34,.03,.67,.04,1.01,.07,.65,.07,1-.2,.84-.86-.34-1.42-.18-2.92-.85-4.49-1.09,1.07-1.31,2.47-2.03,3.58-.79,1.22-.5,1.57,1.03,1.69Z"/>
            </g>
            <g>
              <path class="cls-3" d="M34.29,198.87c1.13-1.45,1.32-3,1.55-4.52,.06-.39-.21-.62-.6-.65-.39-.02-.78-.03-1.17-.02-.73,.02-.98,.37-.79,1.1,.34,1.29,.64,2.59,1.01,4.09Z"/>
              <path class="cls-3" d="M44.38,196.46q.51-3.03-2.54-2.91c-.05,0-.1,.04-.47,.2,1.19,1.44,1.42,3.26,2.48,4.74,.54-.67,.42-1.38,.53-2.03Z"/>
              <path class="cls-3" d="M39.04,198.91c.13-1.43,.82-2.71,.9-4.11,.02-.33,.14-.68-.11-.96-.17-.2-1.86-.25-2.13-.05-.47,.34-.55,.87-.41,1.35,.38,1.32,.81,2.63,1.75,3.77Z"/>
              <path class="cls-3" d="M29.85,198.85c.97-1.64,1.34-3.35,1.8-5.1-1.11-.31-2.08-.27-3.13-.08,.2,.94,.32,1.82,.58,2.67,.24,.79-.14,1.76,.75,2.52Z"/>
              <path class="cls-3" d="M27.31,193.64c-1.53-.2-2.93-.23-4.47,0,.61,1.67,1.16,3.24,2.07,4.8,1.21-1.49,1.79-3.08,2.4-4.8Z"/>
            </g>
            <path d="M48.21,198.39c.21,.51,.5,1.01,.48,1.6-.11,1.31-.55,2.53-1.16,3.66-1.6,2.94-2.89,6.07-4.93,8.76-2.03,2.67-4.06,5.36-6.69,7.49-.47,.38-.98,.74-1.52,1.02-1.14,.58-1.32,.43-2.27-.47-2.21-2.09-3.89-4.61-5.8-6.94-.9-1.09-1.51-2.35-2.21-3.56-1.06-1.84-2.09-3.69-3.31-5.44-.8-1.15-1.31-2.45-1.78-3.78-.37-1.05-.23-2,.25-2.85,.68-1.22,1.24-2.5,1.9-3.73,.46-.86,1.07-1.26,2.13-1.25,3.75,.02,7.5,.1,11.25,.18,3.19,.06,6.38-.04,9.57-.18,1.25-.06,1.93,.31,2.35,1.53,.47,1.37,1.2,2.65,1.76,3.99Zm-6.84-4.64c1.19,1.44,1.42,3.26,2.48,4.74,.54-.67,.42-1.38,.53-2.03q.51-3.03-2.54-2.91c-.05,0-.1,.04-.47,.2Zm-1.08,3.17c-.67,3.24-.53,3.38,3.03,2.95-.73-1.8-1.08-3.59-2.27-4.99-.17,.07-.26,.09-.27,.12-.17,.64-.35,1.28-.49,1.93Zm-3-1.79c.38,1.32,.81,2.63,1.75,3.77,.13-1.43,.82-2.71,.9-4.11,.02-.33,.14-.68-.11-.96-.17-.2-1.86-.25-2.13-.05-.47,.34-.55,.87-.41,1.35Zm-.56,.88c-.77,1.32-1.51,2.55-1.29,4.25,.91-.38,1.81-.15,2.76-.48-.51-1.3-.99-2.54-1.47-3.77Zm-3.45-1.25c.34,1.29,.64,2.59,1.01,4.09,1.13-1.45,1.32-3,1.55-4.52,.06-.39-.21-.62-.6-.65-.39-.02-.78-.03-1.17-.02-.73,.02-.98,.37-.79,1.1Zm-.91-.07c-.57,.99-.93,1.97-1.23,2.98-.23,.78-1.12,1.61-.55,2.3,.57,.69,1.68,.14,2.54,.2,.11,0,.22-.01,.33-.04,.32-.09,.46-.33,.36-.63-.56-1.56-.74-3.24-1.45-4.81Zm-3.86-1.04c.2,.94,.32,1.82,.58,2.67,.24,.79-.14,1.76,.75,2.52,.97-1.64,1.34-3.35,1.8-5.1-1.11-.31-2.08-.27-3.13-.08Zm-.62,1.23c-1.09,1.07-1.31,2.47-2.03,3.58-.79,1.22-.5,1.57,1.03,1.69,.34,.03,.67,.04,1.01,.07,.65,.07,1-.2,.84-.86-.34-1.42-.18-2.92-.85-4.49Zm-5.05-1.26c.61,1.67,1.16,3.24,2.07,4.8,1.21-1.49,1.79-3.08,2.4-4.8-1.53-.2-2.93-.23-4.47,0Zm-2.38,6.37c1.3,.29,2.61,.26,4.13,.13-.85-2.04-1.4-3.97-2.41-5.73-.22,.13-.35,.17-.41,.25-.88,1.29-1.11,2.87-2.03,4.16-.42,.59,.08,1.04,.71,1.18Zm11.66,16.99c-.44-2.31-.88-4.63-1.55-6.87-.8-2.69-1.66-5.37-2.09-8.14-.14-.93-.49-1.06-1.24-1.05-2.35,.02-4.7,0-7.29,0,1.07,3.51,3.51,6.11,5.1,9.17,1.68,3.24,4.12,6,6.55,8.72,.23,.26,.42,.7,.96,.59,.17-.86-.28-1.63-.43-2.43Zm3.71-3.38c.72-2.64,1.35-5.31,1.97-7.98,.3-1.31,.54-2.63,.73-3.96,.13-.92-.07-1.15-1-1.01-2.4,.36-4.81,.2-7.22,.29-.96,.04-1.21,.31-1.08,1.23,.17,1.16,.46,2.3,.75,3.44,.69,2.71,1.75,5.31,2.17,8.1,.25,1.69,.83,3.32,1.35,5.3,1.18-1.92,1.84-3.64,2.32-5.42Zm10.45-12.69c-1.85-.03-3.7,.09-5.55-.2-.87-.13-1.35,.28-1.53,1.16-.36,1.81-.84,3.6-1.17,5.42-.69,3.82-1.67,7.54-3.22,11.11-.17,.39-.52,.78-.19,1.26,.36-.02,.62-.23,.89-.43,1.83-1.34,3.13-3.21,4.65-4.85,1.92-2.07,3.33-4.5,4.63-6.97,.88-1.68,1.93-3.3,2.49-5.14,.38-1.23,.31-1.33-1-1.36Zm1.48-1.03c-.4-1.77-1.16-3.28-2.12-5.1-.75,1.88-.7,3.5-.9,5.14,1.01,.18,1.94,.13,3.02-.04Z"/>
          </g>
          <g>
            <g>
              <path class="cls-4" d="M15.51,245.2c.27,.32,.78,.06,1.19,.09,.05,0,.1,0,.15-.02,.15-.04,.22-.15,.17-.29-.26-.73-.34-1.51-.68-2.24-.27,.46-.43,.92-.57,1.39-.11,.36-.52,.75-.26,1.07Z"/>
              <path class="cls-4" d="M17.77,245.33c.42-.18,.84-.07,1.29-.22-.24-.61-.46-1.18-.69-1.76-.36,.61-.7,1.19-.6,1.98Z"/>
              <path class="cls-4" d="M21.44,245.15c-.34-.84-.5-1.68-1.06-2.33-.08,.03-.12,.04-.12,.06-.08,.3-.17,.6-.23,.9-.31,1.51-.25,1.58,1.41,1.37Z"/>
              <path class="cls-4" d="M22.1,245.18c.47,.08,.9,.06,1.41-.02-.19-.82-.54-1.53-.99-2.38-.35,.88-.33,1.63-.42,2.4Z"/>
              <path class="cls-4" d="M12.71,245.27c-.4-.95-.65-1.85-1.12-2.67-.1,.06-.16,.08-.19,.12-.41,.6-.52,1.34-.95,1.94-.2,.28,.04,.49,.33,.55,.61,.14,1.22,.12,1.93,.06Z"/>
              <path class="cls-4" d="M13.78,245.29c.16,.01,.31,.02,.47,.03,.31,.03,.47-.09,.39-.4-.16-.66-.09-1.36-.4-2.09-.51,.5-.61,1.15-.94,1.67-.37,.57-.23,.73,.48,.79Z"/>
            </g>
            <g>
              <path class="cls-3" d="M17.23,244.68c.53-.68,.61-1.4,.72-2.11,.03-.18-.1-.29-.28-.3-.18-.01-.37-.02-.55,0-.34,.01-.46,.17-.37,.51,.16,.6,.3,1.21,.47,1.91Z"/>
              <path class="cls-3" d="M21.94,243.56q.24-1.41-1.19-1.36s-.05,.02-.22,.09c.55,.67,.66,1.52,1.16,2.21,.25-.31,.2-.64,.25-.95Z"/>
              <path class="cls-3" d="M19.45,244.7c.06-.67,.38-1.26,.42-1.92,0-.15,.06-.32-.05-.45-.08-.09-.87-.12-.99-.02-.22,.16-.26,.41-.19,.63,.18,.62,.38,1.23,.81,1.76Z"/>
              <path class="cls-3" d="M15.16,244.67c.45-.77,.63-1.56,.84-2.38-.52-.14-.97-.13-1.46-.04,.09,.44,.15,.85,.27,1.24,.11,.37-.06,.82,.35,1.17Z"/>
              <path class="cls-3" d="M13.97,242.24c-.72-.09-1.37-.11-2.08,0,.29,.78,.54,1.51,.96,2.24,.56-.69,.83-1.44,1.12-2.24Z"/>
            </g>
            <path d="M23.72,244.46c.1,.24,.23,.47,.22,.75-.05,.61-.26,1.18-.54,1.71-.75,1.37-1.35,2.83-2.3,4.09-.95,1.25-1.89,2.5-3.12,3.49-.22,.18-.46,.35-.71,.47-.53,.27-.61,.2-1.06-.22-1.03-.98-1.81-2.15-2.71-3.24-.42-.51-.71-1.1-1.03-1.66-.5-.86-.98-1.72-1.54-2.54-.37-.54-.61-1.14-.83-1.76-.17-.49-.11-.93,.11-1.33,.32-.57,.58-1.17,.89-1.74,.22-.4,.5-.59,.99-.59,1.75,0,3.5,.05,5.25,.08,1.49,.03,2.98-.02,4.46-.09,.58-.03,.9,.14,1.1,.71,.22,.64,.56,1.24,.82,1.86Zm-3.19-2.16c.55,.67,.66,1.52,1.16,2.21,.25-.31,.2-.64,.25-.95q.24-1.41-1.19-1.36s-.05,.02-.22,.09Zm-.5,1.48c-.31,1.51-.25,1.58,1.41,1.37-.34-.84-.5-1.68-1.06-2.33-.08,.03-.12,.04-.12,.06-.08,.3-.17,.6-.23,.9Zm-1.4-.83c.18,.62,.38,1.23,.81,1.76,.06-.67,.38-1.26,.42-1.92,0-.15,.06-.32-.05-.45-.08-.09-.87-.12-.99-.02-.22,.16-.26,.41-.19,.63Zm-.26,.41c-.36,.61-.7,1.19-.6,1.98,.42-.18,.84-.07,1.29-.22-.24-.61-.46-1.18-.69-1.76Zm-1.61-.58c.16,.6,.3,1.21,.47,1.91,.53-.68,.61-1.4,.72-2.11,.03-.18-.1-.29-.28-.3-.18-.01-.37-.02-.55,0-.34,.01-.46,.17-.37,.51Zm-.42-.03c-.27,.46-.43,.92-.57,1.39-.11,.36-.52,.75-.26,1.07,.27,.32,.78,.06,1.19,.09,.05,0,.1,0,.15-.02,.15-.04,.22-.15,.17-.29-.26-.73-.34-1.51-.68-2.24Zm-1.8-.49c.09,.44,.15,.85,.27,1.24,.11,.37-.06,.82,.35,1.17,.45-.77,.63-1.56,.84-2.38-.52-.14-.97-.13-1.46-.04Zm-.29,.58c-.51,.5-.61,1.15-.94,1.67-.37,.57-.23,.73,.48,.79,.16,.01,.31,.02,.47,.03,.31,.03,.47-.09,.39-.4-.16-.66-.09-1.36-.4-2.09Zm-2.36-.59c.29,.78,.54,1.51,.96,2.24,.56-.69,.83-1.44,1.12-2.24-.72-.09-1.37-.11-2.08,0Zm-1.11,2.97c.61,.14,1.22,.12,1.93,.06-.4-.95-.65-1.85-1.12-2.67-.1,.06-.16,.08-.19,.12-.41,.6-.52,1.34-.95,1.94-.2,.28,.04,.49,.33,.55Zm5.44,7.93c-.2-1.08-.41-2.16-.72-3.21-.37-1.25-.77-2.5-.97-3.8-.07-.43-.23-.49-.58-.49-1.1,0-2.19,0-3.4,0,.5,1.64,1.64,2.85,2.38,4.28,.78,1.51,1.92,2.8,3.05,4.07,.11,.12,.2,.33,.45,.27,.08-.4-.13-.76-.2-1.13Zm1.73-1.58c.33-1.23,.63-2.48,.92-3.72,.14-.61,.25-1.23,.34-1.85,.06-.43-.03-.53-.47-.47-1.12,.17-2.24,.09-3.37,.14-.45,.02-.57,.14-.5,.57,.08,.54,.22,1.07,.35,1.61,.32,1.26,.82,2.48,1.01,3.78,.12,.79,.39,1.55,.63,2.47,.55-.9,.86-1.7,1.08-2.53Zm4.87-5.92c-.86-.02-1.73,.04-2.59-.09-.4-.06-.63,.13-.71,.54-.17,.84-.39,1.68-.55,2.53-.32,1.78-.78,3.52-1.5,5.18-.08,.18-.24,.36-.09,.59,.17,0,.29-.11,.41-.2,.86-.63,1.46-1.5,2.17-2.26,.89-.97,1.56-2.1,2.16-3.25,.41-.79,.9-1.54,1.16-2.4,.18-.57,.15-.62-.47-.63Zm.69-.48c-.19-.82-.54-1.53-.99-2.38-.35,.88-.33,1.63-.42,2.4,.47,.08,.9,.06,1.41-.02Z"/>
          </g>
        </g>
        <g>
          <g>
            <g>
              <path class="cls-3" d="M208.2,79.01c-1.85-.03-3.7,.09-5.55-.2-.87-.13-1.35,.28-1.53,1.16-.36,1.81-.84,3.6-1.17,5.42-.69,3.82-1.67,7.54-3.22,11.11-.17,.39-.52,.78-.19,1.26,.36-.02,.62-.23,.89-.43,1.83-1.34,3.13-3.21,4.65-4.85,1.92-2.07,3.33-4.5,4.63-6.97,.88-1.68,1.93-3.3,2.49-5.14,.38-1.23,.31-1.33-1-1.36Z"/>
              <path class="cls-3" d="M192.5,88.21c-.8-2.69-1.66-5.37-2.09-8.14-.14-.93-.49-1.06-1.24-1.05-2.35,.02-4.7,0-7.29,0,1.07,3.51,3.51,6.11,5.1,9.17,1.68,3.24,4.12,6,6.55,8.72,.23,.26,.42,.7,.96,.59,.17-.86-.28-1.63-.43-2.43-.44-2.31-.88-4.63-1.55-6.87Z"/>
            </g>
            <path class="cls-4" d="M199.72,83.72c.3-1.31,.54-2.63,.73-3.96,.13-.92-.07-1.15-1-1.01-2.4,.36-4.81,.2-7.22,.29-.96,.04-1.21,.31-1.08,1.23,.17,1.16,.46,2.3,.75,3.44,.69,2.71,1.75,5.31,2.17,8.1,.25,1.69,.83,3.32,1.35,5.3,1.18-1.92,1.84-3.64,2.32-5.42,.72-2.64,1.35-5.31,1.97-7.98Z"/>
            <g>
              <path class="cls-4" d="M192.52,78.08c.57,.69,1.68,.14,2.54,.2,.11,0,.22-.01,.33-.04,.32-.09,.46-.33,.36-.63-.56-1.56-.74-3.24-1.45-4.81-.57,.99-.93,1.97-1.23,2.98-.23,.78-1.12,1.61-.55,2.3Z"/>
              <path class="cls-4" d="M197.37,78.36c.91-.38,1.81-.15,2.76-.48-.51-1.3-.99-2.54-1.47-3.77-.77,1.32-1.51,2.55-1.29,4.25Z"/>
              <path class="cls-4" d="M205.24,77.96c-.73-1.8-1.08-3.59-2.27-4.99-.17,.07-.26,.09-.27,.12-.17,.64-.35,1.28-.49,1.93-.67,3.24-.53,3.38,3.03,2.95Z"/>
              <path class="cls-4" d="M206.66,78.02c1.01,.18,1.94,.13,3.02-.04-.4-1.77-1.16-3.28-2.12-5.1-.75,1.88-.7,3.5-.9,5.14Z"/>
              <path class="cls-4" d="M186.52,78.23c-.85-2.04-1.4-3.97-2.41-5.73-.22,.13-.35,.17-.41,.25-.88,1.29-1.11,2.87-2.03,4.16-.42,.59,.08,1.04,.71,1.18,1.3,.29,2.61,.26,4.13,.13Z"/>
              <path class="cls-4" d="M188.82,78.27c.34,.03,.67,.04,1.01,.07,.65,.07,1-.2,.84-.86-.34-1.42-.18-2.92-.85-4.49-1.09,1.07-1.31,2.47-2.03,3.58-.79,1.22-.5,1.57,1.03,1.69Z"/>
            </g>
            <g>
              <path class="cls-3" d="M196.22,76.95c1.13-1.45,1.32-3,1.55-4.52,.06-.39-.21-.62-.6-.65-.39-.02-.78-.03-1.17-.02-.73,.02-.98,.37-.79,1.1,.34,1.29,.64,2.59,1.01,4.09Z"/>
              <path class="cls-3" d="M206.3,74.55q.51-3.03-2.54-2.91c-.05,0-.1,.04-.47,.2,1.19,1.44,1.42,3.26,2.48,4.74,.54-.67,.42-1.38,.53-2.03Z"/>
              <path class="cls-3" d="M200.96,77c.13-1.43,.82-2.71,.9-4.11,.02-.33,.14-.68-.11-.96-.17-.2-1.86-.25-2.13-.05-.47,.34-.55,.87-.41,1.35,.38,1.32,.81,2.63,1.75,3.77Z"/>
              <path class="cls-3" d="M191.77,76.94c.97-1.64,1.34-3.35,1.8-5.1-1.11-.31-2.08-.27-3.13-.08,.2,.94,.32,1.82,.58,2.67,.24,.79-.14,1.76,.75,2.52Z"/>
              <path class="cls-3" d="M189.23,71.73c-1.53-.2-2.93-.23-4.47,0,.61,1.67,1.16,3.24,2.07,4.8,1.21-1.49,1.79-3.08,2.4-4.8Z"/>
            </g>
            <path d="M210.13,76.48c.21,.51,.5,1.01,.48,1.6-.11,1.31-.55,2.53-1.16,3.66-1.6,2.94-2.89,6.07-4.93,8.76-2.03,2.67-4.06,5.36-6.69,7.49-.47,.38-.98,.74-1.52,1.02-1.14,.58-1.32,.43-2.27-.47-2.21-2.09-3.89-4.61-5.8-6.94-.9-1.09-1.51-2.35-2.21-3.56-1.06-1.84-2.09-3.69-3.31-5.44-.8-1.15-1.31-2.45-1.78-3.78-.37-1.05-.23-2,.25-2.85,.68-1.22,1.24-2.5,1.9-3.73,.46-.86,1.07-1.26,2.13-1.25,3.75,.02,7.5,.1,11.25,.18,3.19,.06,6.38-.04,9.57-.18,1.25-.06,1.93,.31,2.35,1.53,.47,1.37,1.2,2.65,1.76,3.99Zm-6.84-4.64c1.19,1.44,1.42,3.26,2.48,4.74,.54-.67,.42-1.38,.53-2.03q.51-3.03-2.54-2.91c-.05,0-.1,.04-.47,.2Zm-1.08,3.17c-.67,3.24-.53,3.38,3.03,2.95-.73-1.8-1.08-3.59-2.27-4.99-.17,.07-.26,.09-.27,.12-.17,.64-.35,1.28-.49,1.93Zm-3-1.79c.38,1.32,.81,2.63,1.75,3.77,.13-1.43,.82-2.71,.9-4.11,.02-.33,.14-.68-.11-.96-.17-.2-1.86-.25-2.13-.05-.47,.34-.55,.87-.41,1.35Zm-.56,.88c-.77,1.32-1.51,2.55-1.29,4.25,.91-.38,1.81-.15,2.76-.48-.51-1.3-.99-2.54-1.47-3.77Zm-3.45-1.25c.34,1.29,.64,2.59,1.01,4.09,1.13-1.45,1.32-3,1.55-4.52,.06-.39-.21-.62-.6-.65-.39-.02-.78-.03-1.17-.02-.73,.02-.98,.37-.79,1.1Zm-.91-.07c-.57,.99-.93,1.97-1.23,2.98-.23,.78-1.12,1.61-.55,2.3,.57,.69,1.68,.14,2.54,.2,.11,0,.22-.01,.33-.04,.32-.09,.46-.33,.36-.63-.56-1.56-.74-3.24-1.45-4.81Zm-3.86-1.04c.2,.94,.32,1.82,.58,2.67,.24,.79-.14,1.76,.75,2.52,.97-1.64,1.34-3.35,1.8-5.1-1.11-.31-2.08-.27-3.13-.08Zm-.62,1.23c-1.09,1.07-1.31,2.47-2.03,3.58-.79,1.22-.5,1.57,1.03,1.69,.34,.03,.67,.04,1.01,.07,.65,.07,1-.2,.84-.86-.34-1.42-.18-2.92-.85-4.49Zm-5.05-1.26c.61,1.67,1.16,3.24,2.07,4.8,1.21-1.49,1.79-3.08,2.4-4.8-1.53-.2-2.93-.23-4.47,0Zm-2.38,6.37c1.3,.29,2.61,.26,4.13,.13-.85-2.04-1.4-3.97-2.41-5.73-.22,.13-.35,.17-.41,.25-.88,1.29-1.11,2.87-2.03,4.16-.42,.59,.08,1.04,.71,1.18Zm11.66,16.99c-.44-2.31-.88-4.63-1.55-6.87-.8-2.69-1.66-5.37-2.09-8.14-.14-.93-.49-1.06-1.24-1.05-2.35,.02-4.7,0-7.29,0,1.07,3.51,3.51,6.11,5.1,9.17,1.68,3.24,4.12,6,6.55,8.72,.23,.26,.42,.7,.96,.59,.17-.86-.28-1.63-.43-2.43Zm3.71-3.38c.72-2.64,1.35-5.31,1.97-7.98,.3-1.31,.54-2.63,.73-3.96,.13-.92-.07-1.15-1-1.01-2.4,.36-4.81,.2-7.22,.29-.96,.04-1.21,.31-1.08,1.23,.17,1.16,.46,2.3,.75,3.44,.69,2.71,1.75,5.31,2.17,8.1,.25,1.69,.83,3.32,1.35,5.3,1.18-1.92,1.84-3.64,2.32-5.42Zm10.45-12.69c-1.85-.03-3.7,.09-5.55-.2-.87-.13-1.35,.28-1.53,1.16-.36,1.81-.84,3.6-1.17,5.42-.69,3.82-1.67,7.54-3.22,11.11-.17,.39-.52,.78-.19,1.26,.36-.02,.62-.23,.89-.43,1.83-1.34,3.13-3.21,4.65-4.85,1.92-2.07,3.33-4.5,4.63-6.97,.88-1.68,1.93-3.3,2.49-5.14,.38-1.23,.31-1.33-1-1.36Zm1.48-1.03c-.4-1.77-1.16-3.28-2.12-5.1-.75,1.88-.7,3.5-.9,5.14,1.01,.18,1.94,.13,3.02-.04Z"/>
          </g>
          <g>
            <g>
              <path class="cls-3" d="M184.75,123.73c-.86-.02-1.73,.04-2.59-.09-.4-.06-.63,.13-.71,.54-.17,.84-.39,1.68-.55,2.53-.32,1.78-.78,3.52-1.5,5.18-.08,.18-.24,.36-.09,.59,.17,0,.29-.11,.41-.2,.86-.63,1.46-1.5,2.17-2.26,.89-.97,1.56-2.1,2.16-3.25,.41-.79,.9-1.54,1.16-2.4,.18-.57,.15-.62-.47-.63Z"/>
              <path class="cls-3" d="M177.42,128.02c-.37-1.25-.77-2.5-.97-3.8-.07-.43-.23-.49-.58-.49-1.1,0-2.19,0-3.4,0,.5,1.64,1.64,2.85,2.38,4.28,.78,1.51,1.92,2.8,3.05,4.07,.11,.12,.2,.33,.45,.27,.08-.4-.13-.76-.2-1.13-.2-1.08-.41-2.16-.72-3.21Z"/>
            </g>
            <path class="cls-4" d="M180.79,125.92c.14-.61,.25-1.23,.34-1.85,.06-.43-.03-.53-.47-.47-1.12,.17-2.24,.09-3.37,.14-.45,.02-.57,.14-.5,.57,.08,.54,.22,1.07,.35,1.61,.32,1.26,.82,2.48,1.01,3.78,.12,.79,.39,1.55,.63,2.47,.55-.9,.86-1.7,1.08-2.53,.33-1.23,.63-2.48,.92-3.72Z"/>
            <g>
              <path class="cls-4" d="M177.43,123.29c.27,.32,.78,.06,1.19,.09,.05,0,.1,0,.15-.02,.15-.04,.22-.15,.17-.29-.26-.73-.34-1.51-.68-2.24-.27,.46-.43,.92-.57,1.39-.11,.36-.52,.75-.26,1.07Z"/>
              <path class="cls-4" d="M179.69,123.42c.42-.18,.84-.07,1.29-.22-.24-.61-.46-1.18-.69-1.76-.36,.61-.7,1.19-.6,1.98Z"/>
              <path class="cls-4" d="M183.36,123.24c-.34-.84-.5-1.68-1.06-2.33-.08,.03-.12,.04-.12,.06-.08,.3-.17,.6-.23,.9-.31,1.51-.25,1.58,1.41,1.37Z"/>
              <path class="cls-4" d="M184.03,123.26c.47,.08,.9,.06,1.41-.02-.19-.82-.54-1.53-.99-2.38-.35,.88-.33,1.63-.42,2.4Z"/>
              <path class="cls-4" d="M174.63,123.36c-.4-.95-.65-1.85-1.12-2.67-.1,.06-.16,.08-.19,.12-.41,.6-.52,1.34-.95,1.94-.2,.28,.04,.49,.33,.55,.61,.14,1.22,.12,1.93,.06Z"/>
              <path class="cls-4" d="M175.7,123.38c.16,.01,.31,.02,.47,.03,.31,.03,.47-.09,.39-.4-.16-.66-.09-1.36-.4-2.09-.51,.5-.61,1.15-.94,1.67-.37,.57-.23,.73,.48,.79Z"/>
            </g>
            <g>
              <path class="cls-3" d="M179.15,122.77c.53-.68,.61-1.4,.72-2.11,.03-.18-.1-.29-.28-.3-.18-.01-.37-.02-.55,0-.34,.01-.46,.17-.37,.51,.16,.6,.3,1.21,.47,1.91Z"/>
              <path class="cls-3" d="M183.86,121.65q.24-1.41-1.19-1.36s-.05,.02-.22,.09c.55,.67,.66,1.52,1.16,2.21,.25-.31,.2-.64,.25-.95Z"/>
              <path class="cls-3" d="M181.37,122.79c.06-.67,.38-1.26,.42-1.92,0-.15,.06-.32-.05-.45-.08-.09-.87-.12-.99-.02-.22,.16-.26,.41-.19,.63,.18,.62,.38,1.23,.81,1.76Z"/>
              <path class="cls-3" d="M177.08,122.76c.45-.77,.63-1.56,.84-2.38-.52-.14-.97-.13-1.46-.04,.09,.44,.15,.85,.27,1.24,.11,.37-.06,.82,.35,1.17Z"/>
              <path class="cls-3" d="M175.9,120.33c-.72-.09-1.37-.11-2.08,0,.29,.78,.54,1.51,.96,2.24,.56-.69,.83-1.44,1.12-2.24Z"/>
            </g>
            <path d="M185.65,122.55c.1,.24,.23,.47,.22,.75-.05,.61-.26,1.18-.54,1.71-.75,1.37-1.35,2.83-2.3,4.09-.95,1.25-1.89,2.5-3.12,3.49-.22,.18-.46,.35-.71,.47-.53,.27-.61,.2-1.06-.22-1.03-.98-1.81-2.15-2.71-3.24-.42-.51-.71-1.1-1.03-1.66-.5-.86-.98-1.72-1.54-2.54-.37-.54-.61-1.14-.83-1.76-.17-.49-.11-.93,.11-1.33,.32-.57,.58-1.17,.89-1.74,.22-.4,.5-.59,.99-.59,1.75,0,3.5,.05,5.25,.08,1.49,.03,2.98-.02,4.46-.09,.58-.03,.9,.14,1.1,.71,.22,.64,.56,1.24,.82,1.86Zm-3.19-2.16c.55,.67,.66,1.52,1.16,2.21,.25-.31,.2-.64,.25-.95q.24-1.41-1.19-1.36s-.05,.02-.22,.09Zm-.5,1.48c-.31,1.51-.25,1.58,1.41,1.37-.34-.84-.5-1.68-1.06-2.33-.08,.03-.12,.04-.12,.06-.08,.3-.17,.6-.23,.9Zm-1.4-.83c.18,.62,.38,1.23,.81,1.76,.06-.67,.38-1.26,.42-1.92,0-.15,.06-.32-.05-.45-.08-.09-.87-.12-.99-.02-.22,.16-.26,.41-.19,.63Zm-.26,.41c-.36,.61-.7,1.19-.6,1.98,.42-.18,.84-.07,1.29-.22-.24-.61-.46-1.18-.69-1.76Zm-1.61-.58c.16,.6,.3,1.21,.47,1.91,.53-.68,.61-1.4,.72-2.11,.03-.18-.1-.29-.28-.3-.18-.01-.37-.02-.55,0-.34,.01-.46,.17-.37,.51Zm-.42-.03c-.27,.46-.43,.92-.57,1.39-.11,.36-.52,.75-.26,1.07,.27,.32,.78,.06,1.19,.09,.05,0,.1,0,.15-.02,.15-.04,.22-.15,.17-.29-.26-.73-.34-1.51-.68-2.24Zm-1.8-.49c.09,.44,.15,.85,.27,1.24,.11,.37-.06,.82,.35,1.17,.45-.77,.63-1.56,.84-2.38-.52-.14-.97-.13-1.46-.04Zm-.29,.58c-.51,.5-.61,1.15-.94,1.67-.37,.57-.23,.73,.48,.79,.16,.01,.31,.02,.47,.03,.31,.03,.47-.09,.39-.4-.16-.66-.09-1.36-.4-2.09Zm-2.36-.59c.29,.78,.54,1.51,.96,2.24,.56-.69,.83-1.44,1.12-2.24-.72-.09-1.37-.11-2.08,0Zm-1.11,2.97c.61,.14,1.22,.12,1.93,.06-.4-.95-.65-1.85-1.12-2.67-.1,.06-.16,.08-.19,.12-.41,.6-.52,1.34-.95,1.94-.2,.28,.04,.49,.33,.55Zm5.44,7.93c-.2-1.08-.41-2.16-.72-3.21-.37-1.25-.77-2.5-.97-3.8-.07-.43-.23-.49-.58-.49-1.1,0-2.19,0-3.4,0,.5,1.64,1.64,2.85,2.38,4.28,.78,1.51,1.92,2.8,3.05,4.07,.11,.12,.2,.33,.45,.27,.08-.4-.13-.76-.2-1.13Zm1.73-1.58c.33-1.23,.63-2.48,.92-3.72,.14-.61,.25-1.23,.34-1.85,.06-.43-.03-.53-.47-.47-1.12,.17-2.24,.09-3.37,.14-.45,.02-.57,.14-.5,.57,.08,.54,.22,1.07,.35,1.61,.32,1.26,.82,2.48,1.01,3.78,.12,.79,.39,1.55,.63,2.47,.55-.9,.86-1.7,1.08-2.53Zm4.87-5.92c-.86-.02-1.73,.04-2.59-.09-.4-.06-.63,.13-.71,.54-.17,.84-.39,1.68-.55,2.53-.32,1.78-.78,3.52-1.5,5.18-.08,.18-.24,.36-.09,.59,.17,0,.29-.11,.41-.2,.86-.63,1.46-1.5,2.17-2.26,.89-.97,1.56-2.1,2.16-3.25,.41-.79,.9-1.54,1.16-2.4,.18-.57,.15-.62-.47-.63Zm.69-.48c-.19-.82-.54-1.53-.99-2.38-.35,.88-.33,1.63-.42,2.4,.47,.08,.9,.06,1.41-.02Z"/>
          </g>
          <g>
            <g>
              <path class="cls-3" d="M214.24,158.61c-1.3-.02-2.6,.06-3.89-.14-.61-.09-.95,.2-1.07,.81-.26,1.27-.59,2.52-.82,3.8-.48,2.67-1.17,5.29-2.25,7.78-.12,.27-.36,.55-.13,.88,.25-.01,.43-.16,.62-.3,1.29-.94,2.19-2.25,3.26-3.4,1.34-1.45,2.34-3.15,3.25-4.89,.62-1.18,1.35-2.31,1.75-3.6,.26-.86,.22-.94-.7-.95Z"/>
              <path class="cls-3" d="M203.23,165.06c-.56-1.88-1.16-3.76-1.46-5.7-.1-.65-.34-.74-.87-.74-1.65,.01-3.29,0-5.11,0,.75,2.46,2.46,4.28,3.57,6.43,1.17,2.27,2.89,4.2,4.59,6.11,.16,.18,.3,.49,.67,.41,.12-.6-.2-1.14-.3-1.7-.31-1.62-.62-3.24-1.08-4.82Z"/>
            </g>
            <path class="cls-4" d="M208.29,161.91c.21-.92,.38-1.85,.51-2.78,.09-.64-.05-.8-.7-.7-1.68,.25-3.37,.14-5.06,.21-.67,.03-.85,.21-.75,.86,.12,.82,.32,1.61,.53,2.41,.48,1.9,1.23,3.72,1.52,5.68,.18,1.18,.58,2.33,.94,3.71,.82-1.35,1.29-2.55,1.63-3.8,.5-1.85,.95-3.72,1.38-5.59Z"/>
            <g>
              <path class="cls-4" d="M203.25,157.96c.4,.48,1.17,.1,1.78,.14,.08,0,.16,0,.23-.03,.23-.06,.33-.23,.25-.44-.39-1.09-.52-2.27-1.02-3.37-.4,.69-.65,1.38-.86,2.09-.16,.54-.78,1.13-.39,1.61Z"/>
              <path class="cls-4" d="M206.64,158.16c.64-.27,1.27-.11,1.94-.33-.36-.91-.69-1.78-1.03-2.64-.54,.92-1.06,1.79-.9,2.98Z"/>
              <path class="cls-4" d="M212.16,157.88c-.51-1.26-.75-2.52-1.59-3.5-.12,.05-.18,.06-.19,.08-.12,.45-.25,.9-.34,1.35-.47,2.27-.37,2.37,2.12,2.06Z"/>
              <path class="cls-4" d="M213.15,157.92c.71,.12,1.36,.09,2.12-.03-.28-1.24-.82-2.3-1.49-3.58-.53,1.32-.49,2.45-.63,3.6Z"/>
              <path class="cls-4" d="M199.04,158.07c-.6-1.43-.98-2.78-1.69-4.01-.16,.09-.25,.12-.28,.17-.61,.9-.78,2.01-1.42,2.92-.3,.42,.06,.73,.5,.83,.91,.2,1.83,.18,2.89,.09Z"/>
              <path class="cls-4" d="M200.66,158.09c.23,.02,.47,.03,.71,.05,.46,.05,.7-.14,.59-.61-.24-.99-.13-2.04-.6-3.14-.77,.75-.92,1.73-1.42,2.51-.55,.85-.35,1.1,.72,1.19Z"/>
            </g>
            <g>
              <path class="cls-3" d="M205.84,157.17c.79-1.02,.92-2.1,1.09-3.17,.04-.27-.15-.44-.42-.45-.27-.02-.55-.02-.82-.01-.51,.02-.69,.26-.55,.77,.24,.9,.45,1.82,.71,2.87Z"/>
              <path class="cls-3" d="M212.91,155.49q.36-2.12-1.78-2.04s-.07,.03-.33,.14c.83,1.01,1,2.28,1.74,3.32,.38-.47,.3-.97,.37-1.42Z"/>
              <path class="cls-3" d="M209.16,157.21c.09-1,.58-1.9,.63-2.88,.01-.23,.1-.47-.08-.67-.12-.14-1.3-.17-1.49-.04-.33,.24-.38,.61-.29,.95,.27,.93,.57,1.85,1.22,2.64Z"/>
              <path class="cls-3" d="M202.72,157.16c.68-1.15,.94-2.35,1.26-3.57-.78-.22-1.46-.19-2.19-.06,.14,.66,.23,1.28,.41,1.87,.17,.55-.1,1.24,.53,1.76Z"/>
              <path class="cls-3" d="M200.94,153.51c-1.07-.14-2.06-.16-3.13,0,.43,1.17,.82,2.27,1.45,3.37,.84-1.04,1.25-2.16,1.68-3.37Z"/>
            </g>
            <path d="M215.59,156.84c.15,.36,.35,.71,.33,1.12-.08,.92-.39,1.78-.82,2.56-1.12,2.06-2.03,4.26-3.46,6.14-1.42,1.87-2.85,3.75-4.69,5.25-.33,.27-.69,.52-1.07,.71-.8,.41-.92,.3-1.59-.33-1.55-1.47-2.72-3.23-4.07-4.86-.63-.76-1.06-1.65-1.55-2.5-.75-1.29-1.47-2.59-2.32-3.82-.56-.8-.92-1.72-1.25-2.65-.26-.73-.16-1.4,.17-2,.47-.86,.87-1.75,1.33-2.61,.32-.6,.75-.88,1.49-.88,2.63,.01,5.26,.07,7.89,.13,2.23,.05,4.47-.03,6.71-.13,.88-.04,1.35,.22,1.64,1.07,.33,.96,.84,1.86,1.23,2.8Zm-4.79-3.25c.83,1.01,1,2.28,1.74,3.32,.38-.47,.3-.97,.37-1.42q.36-2.12-1.78-2.04s-.07,.03-.33,.14Zm-.76,2.22c-.47,2.27-.37,2.37,2.12,2.06-.51-1.26-.75-2.52-1.59-3.5-.12,.05-.18,.06-.19,.08-.12,.45-.25,.9-.34,1.35Zm-2.1-1.25c.27,.93,.57,1.85,1.22,2.64,.09-1,.58-1.9,.63-2.88,.01-.23,.1-.47-.08-.67-.12-.14-1.3-.17-1.49-.04-.33,.24-.38,.61-.29,.95Zm-.39,.62c-.54,.92-1.06,1.79-.9,2.98,.64-.27,1.27-.11,1.94-.33-.36-.91-.69-1.78-1.03-2.64Zm-2.42-.87c.24,.9,.45,1.82,.71,2.87,.79-1.02,.92-2.1,1.09-3.17,.04-.27-.15-.44-.42-.45-.27-.02-.55-.02-.82-.01-.51,.02-.69,.26-.55,.77Zm-.63-.05c-.4,.69-.65,1.38-.86,2.09-.16,.54-.78,1.13-.39,1.61,.4,.48,1.17,.1,1.78,.14,.08,0,.16,0,.23-.03,.23-.06,.33-.23,.25-.44-.39-1.09-.52-2.27-1.02-3.37Zm-2.71-.73c.14,.66,.23,1.28,.41,1.87,.17,.55-.1,1.24,.53,1.76,.68-1.15,.94-2.35,1.26-3.57-.78-.22-1.46-.19-2.19-.06Zm-.43,.86c-.77,.75-.92,1.73-1.42,2.51-.55,.85-.35,1.1,.72,1.19,.23,.02,.47,.03,.71,.05,.46,.05,.7-.14,.59-.61-.24-.99-.13-2.04-.6-3.14Zm-3.54-.88c.43,1.17,.82,2.27,1.45,3.37,.84-1.04,1.25-2.16,1.68-3.37-1.07-.14-2.06-.16-3.13,0Zm-1.67,4.46c.91,.2,1.83,.18,2.89,.09-.6-1.43-.98-2.78-1.69-4.01-.16,.09-.25,.12-.28,.17-.61,.9-.78,2.01-1.42,2.92-.3,.42,.06,.73,.5,.83Zm8.17,11.9c-.31-1.62-.62-3.24-1.08-4.82-.56-1.88-1.16-3.76-1.46-5.7-.1-.65-.34-.74-.87-.74-1.65,.01-3.29,0-5.11,0,.75,2.46,2.46,4.28,3.57,6.43,1.17,2.27,2.89,4.2,4.59,6.11,.16,.18,.3,.49,.67,.41,.12-.6-.2-1.14-.3-1.7Zm2.6-2.37c.5-1.85,.95-3.72,1.38-5.59,.21-.92,.38-1.85,.51-2.78,.09-.64-.05-.8-.7-.7-1.68,.25-3.37,.14-5.06,.21-.67,.03-.85,.21-.75,.86,.12,.82,.32,1.61,.53,2.41,.48,1.9,1.23,3.72,1.52,5.68,.18,1.18,.58,2.33,.94,3.71,.82-1.35,1.29-2.55,1.63-3.8Zm7.32-8.89c-1.3-.02-2.6,.06-3.89-.14-.61-.09-.95,.2-1.07,.81-.26,1.27-.59,2.52-.82,3.8-.48,2.67-1.17,5.29-2.25,7.78-.12,.27-.36,.55-.13,.88,.25-.01,.43-.16,.62-.3,1.29-.94,2.19-2.25,3.26-3.4,1.34-1.45,2.34-3.15,3.25-4.89,.62-1.18,1.35-2.31,1.75-3.6,.26-.86,.22-.94-.7-.95Zm1.04-.72c-.28-1.24-.82-2.3-1.49-3.58-.53,1.32-.49,2.45-.63,3.6,.71,.12,1.36,.09,2.12-.03Z"/>
          </g>
        </g>
        <g>
          <g>
            <g>
              <path class="cls-3" d="M100.25,79.01c-1.85-.03-3.7,.09-5.55-.2-.87-.13-1.35,.28-1.53,1.16-.36,1.81-.84,3.6-1.17,5.42-.69,3.82-1.67,7.54-3.22,11.11-.17,.39-.52,.78-.19,1.26,.36-.02,.62-.23,.89-.43,1.83-1.34,3.13-3.21,4.65-4.85,1.92-2.07,3.33-4.5,4.63-6.97,.88-1.68,1.93-3.3,2.49-5.14,.38-1.23,.31-1.33-1-1.36Z"/>
              <path class="cls-3" d="M84.55,88.21c-.8-2.69-1.66-5.37-2.09-8.14-.14-.93-.49-1.06-1.24-1.05-2.35,.02-4.7,0-7.29,0,1.07,3.51,3.51,6.11,5.1,9.17,1.68,3.24,4.12,6,6.55,8.72,.23,.26,.42,.7,.96,.59,.17-.86-.28-1.63-.43-2.43-.44-2.31-.88-4.63-1.55-6.87Z"/>
            </g>
            <path class="cls-4" d="M91.78,83.72c.3-1.31,.54-2.63,.73-3.96,.13-.92-.07-1.15-1-1.01-2.4,.36-4.81,.2-7.22,.29-.96,.04-1.21,.31-1.08,1.23,.17,1.16,.46,2.3,.75,3.44,.69,2.71,1.75,5.31,2.17,8.1,.25,1.69,.83,3.32,1.35,5.3,1.18-1.92,1.84-3.64,2.32-5.42,.72-2.64,1.35-5.31,1.97-7.98Z"/>
            <g>
              <path class="cls-4" d="M84.57,78.08c.57,.69,1.68,.14,2.54,.2,.11,0,.22-.01,.33-.04,.32-.09,.46-.33,.36-.63-.56-1.56-.74-3.24-1.45-4.81-.57,.99-.93,1.97-1.23,2.98-.23,.78-1.12,1.61-.55,2.3Z"/>
              <path class="cls-4" d="M89.42,78.36c.91-.38,1.81-.15,2.76-.48-.51-1.3-.99-2.54-1.47-3.77-.77,1.32-1.51,2.55-1.29,4.25Z"/>
              <path class="cls-4" d="M97.29,77.96c-.73-1.8-1.08-3.59-2.27-4.99-.17,.07-.26,.09-.27,.12-.17,.64-.35,1.28-.49,1.93-.67,3.24-.53,3.38,3.03,2.95Z"/>
              <path class="cls-4" d="M98.71,78.02c1.01,.18,1.94,.13,3.02-.04-.4-1.77-1.16-3.28-2.12-5.1-.75,1.88-.7,3.5-.9,5.14Z"/>
              <path class="cls-4" d="M78.57,78.23c-.85-2.04-1.4-3.97-2.41-5.73-.22,.13-.35,.17-.41,.25-.88,1.29-1.11,2.87-2.03,4.16-.42,.59,.08,1.04,.71,1.18,1.3,.29,2.61,.26,4.13,.13Z"/>
              <path class="cls-4" d="M80.87,78.27c.34,.03,.67,.04,1.01,.07,.65,.07,1-.2,.84-.86-.34-1.42-.18-2.92-.85-4.49-1.09,1.07-1.31,2.47-2.03,3.58-.79,1.22-.5,1.57,1.03,1.69Z"/>
            </g>
            <g>
              <path class="cls-3" d="M88.27,76.95c1.13-1.45,1.32-3,1.55-4.52,.06-.39-.21-.62-.6-.65-.39-.02-.78-.03-1.17-.02-.73,.02-.98,.37-.79,1.1,.34,1.29,.64,2.59,1.01,4.09Z"/>
              <path class="cls-3" d="M98.36,74.55q.51-3.03-2.54-2.91c-.05,0-.1,.04-.47,.2,1.19,1.44,1.42,3.26,2.48,4.74,.54-.67,.42-1.38,.53-2.03Z"/>
              <path class="cls-3" d="M93.01,77c.13-1.43,.82-2.71,.9-4.11,.02-.33,.14-.68-.11-.96-.17-.2-1.86-.25-2.13-.05-.47,.34-.55,.87-.41,1.35,.38,1.32,.81,2.63,1.75,3.77Z"/>
              <path class="cls-3" d="M83.82,76.94c.97-1.64,1.34-3.35,1.8-5.1-1.11-.31-2.08-.27-3.13-.08,.2,.94,.32,1.82,.58,2.67,.24,.79-.14,1.76,.75,2.52Z"/>
              <path class="cls-3" d="M81.28,71.73c-1.53-.2-2.93-.23-4.47,0,.61,1.67,1.16,3.24,2.07,4.8,1.21-1.49,1.79-3.08,2.4-4.8Z"/>
            </g>
            <path d="M102.18,76.48c.21,.51,.5,1.01,.48,1.6-.11,1.31-.55,2.53-1.16,3.66-1.6,2.94-2.89,6.07-4.93,8.76-2.03,2.67-4.06,5.36-6.69,7.49-.47,.38-.98,.74-1.52,1.02-1.14,.58-1.32,.43-2.27-.47-2.21-2.09-3.89-4.61-5.8-6.94-.9-1.09-1.51-2.35-2.21-3.56-1.06-1.84-2.09-3.69-3.31-5.44-.8-1.15-1.31-2.45-1.78-3.78-.37-1.05-.23-2,.25-2.85,.68-1.22,1.24-2.5,1.9-3.73,.46-.86,1.07-1.26,2.13-1.25,3.75,.02,7.5,.1,11.25,.18,3.19,.06,6.38-.04,9.57-.18,1.25-.06,1.93,.31,2.35,1.53,.47,1.37,1.2,2.65,1.76,3.99Zm-6.84-4.64c1.19,1.44,1.42,3.26,2.48,4.74,.54-.67,.42-1.38,.53-2.03q.51-3.03-2.54-2.91c-.05,0-.1,.04-.47,.2Zm-1.08,3.17c-.67,3.24-.53,3.38,3.03,2.95-.73-1.8-1.08-3.59-2.27-4.99-.17,.07-.26,.09-.27,.12-.17,.64-.35,1.28-.49,1.93Zm-3-1.79c.38,1.32,.81,2.63,1.75,3.77,.13-1.43,.82-2.71,.9-4.11,.02-.33,.14-.68-.11-.96-.17-.2-1.86-.25-2.13-.05-.47,.34-.55,.87-.41,1.35Zm-.56,.88c-.77,1.32-1.51,2.55-1.29,4.25,.91-.38,1.81-.15,2.76-.48-.51-1.3-.99-2.54-1.47-3.77Zm-3.45-1.25c.34,1.29,.64,2.59,1.01,4.09,1.13-1.45,1.32-3,1.55-4.52,.06-.39-.21-.62-.6-.65-.39-.02-.78-.03-1.17-.02-.73,.02-.98,.37-.79,1.1Zm-.91-.07c-.57,.99-.93,1.97-1.23,2.98-.23,.78-1.12,1.61-.55,2.3,.57,.69,1.68,.14,2.54,.2,.11,0,.22-.01,.33-.04,.32-.09,.46-.33,.36-.63-.56-1.56-.74-3.24-1.45-4.81Zm-3.86-1.04c.2,.94,.32,1.82,.58,2.67,.24,.79-.14,1.76,.75,2.52,.97-1.64,1.34-3.35,1.8-5.1-1.11-.31-2.08-.27-3.13-.08Zm-.62,1.23c-1.09,1.07-1.31,2.47-2.03,3.58-.79,1.22-.5,1.57,1.03,1.69,.34,.03,.67,.04,1.01,.07,.65,.07,1-.2,.84-.86-.34-1.42-.18-2.92-.85-4.49Zm-5.05-1.26c.61,1.67,1.16,3.24,2.07,4.8,1.21-1.49,1.79-3.08,2.4-4.8-1.53-.2-2.93-.23-4.47,0Zm-2.38,6.37c1.3,.29,2.61,.26,4.13,.13-.85-2.04-1.4-3.97-2.41-5.73-.22,.13-.35,.17-.41,.25-.88,1.29-1.11,2.87-2.03,4.16-.42,.59,.08,1.04,.71,1.18Zm11.66,16.99c-.44-2.31-.88-4.63-1.55-6.87-.8-2.69-1.66-5.37-2.09-8.14-.14-.93-.49-1.06-1.24-1.05-2.35,.02-4.7,0-7.29,0,1.07,3.51,3.51,6.11,5.1,9.17,1.68,3.24,4.12,6,6.55,8.72,.23,.26,.42,.7,.96,.59,.17-.86-.28-1.63-.43-2.43Zm3.71-3.38c.72-2.64,1.35-5.31,1.97-7.98,.3-1.31,.54-2.63,.73-3.96,.13-.92-.07-1.15-1-1.01-2.4,.36-4.81,.2-7.22,.29-.96,.04-1.21,.31-1.08,1.23,.17,1.16,.46,2.3,.75,3.44,.69,2.71,1.75,5.31,2.17,8.1,.25,1.69,.83,3.32,1.35,5.3,1.18-1.92,1.84-3.64,2.32-5.42Zm10.45-12.69c-1.85-.03-3.7,.09-5.55-.2-.87-.13-1.35,.28-1.53,1.16-.36,1.81-.84,3.6-1.17,5.42-.69,3.82-1.67,7.54-3.22,11.11-.17,.39-.52,.78-.19,1.26,.36-.02,.62-.23,.89-.43,1.83-1.34,3.13-3.21,4.65-4.85,1.92-2.07,3.33-4.5,4.63-6.97,.88-1.68,1.93-3.3,2.49-5.14,.38-1.23,.31-1.33-1-1.36Zm1.48-1.03c-.4-1.77-1.16-3.28-2.12-5.1-.75,1.88-.7,3.5-.9,5.14,1.01,.18,1.94,.13,3.02-.04Z"/>
          </g>
          <g>
            <g>
              <path class="cls-3" d="M149.52,137.02c-1.85-.03-3.7,.09-5.55-.2-.87-.13-1.35,.28-1.53,1.16-.36,1.81-.84,3.6-1.17,5.42-.69,3.82-1.67,7.54-3.22,11.11-.17,.39-.52,.78-.19,1.26,.36-.02,.62-.23,.89-.43,1.83-1.34,3.13-3.21,4.65-4.85,1.92-2.07,3.33-4.5,4.63-6.97,.88-1.68,1.93-3.3,2.49-5.14,.38-1.23,.31-1.33-1-1.36Z"/>
              <path class="cls-3" d="M133.81,146.23c-.8-2.69-1.66-5.37-2.09-8.14-.14-.93-.49-1.06-1.24-1.05-2.35,.02-4.7,0-7.29,0,1.07,3.51,3.51,6.11,5.1,9.17,1.68,3.24,4.12,6,6.55,8.72,.23,.26,.42,.7,.96,.59,.17-.86-.28-1.63-.43-2.43-.44-2.31-.88-4.63-1.55-6.87Z"/>
            </g>
            <path class="cls-4" d="M141.04,141.73c.3-1.31,.54-2.63,.73-3.96,.13-.92-.07-1.15-1-1.01-2.4,.36-4.81,.2-7.22,.29-.96,.04-1.21,.31-1.08,1.23,.17,1.16,.46,2.3,.75,3.44,.69,2.71,1.75,5.31,2.17,8.1,.25,1.69,.83,3.32,1.35,5.3,1.18-1.92,1.84-3.64,2.32-5.42,.72-2.64,1.35-5.31,1.97-7.98Z"/>
            <g>
              <path class="cls-4" d="M133.83,136.09c.57,.69,1.68,.14,2.54,.2,.11,0,.22-.01,.33-.04,.32-.09,.46-.33,.36-.63-.56-1.56-.74-3.24-1.45-4.81-.57,.99-.93,1.97-1.23,2.98-.23,.78-1.12,1.61-.55,2.3Z"/>
              <path class="cls-4" d="M138.68,136.37c.91-.38,1.81-.15,2.76-.48-.51-1.3-.99-2.54-1.47-3.77-.77,1.32-1.51,2.55-1.29,4.25Z"/>
              <path class="cls-4" d="M146.55,135.98c-.73-1.8-1.08-3.59-2.27-4.99-.17,.07-.26,.09-.27,.12-.17,.64-.35,1.28-.49,1.93-.67,3.24-.53,3.38,3.03,2.95Z"/>
              <path class="cls-4" d="M147.97,136.03c1.01,.18,1.94,.13,3.02-.04-.4-1.77-1.16-3.28-2.12-5.1-.75,1.88-.7,3.5-.9,5.14Z"/>
              <path class="cls-4" d="M127.83,136.24c-.85-2.04-1.4-3.97-2.41-5.73-.22,.13-.35,.17-.41,.25-.88,1.29-1.11,2.87-2.03,4.16-.42,.59,.08,1.04,.71,1.18,1.3,.29,2.61,.26,4.13,.13Z"/>
              <path class="cls-4" d="M130.13,136.28c.34,.03,.67,.04,1.01,.07,.65,.07,1-.2,.84-.86-.34-1.42-.18-2.92-.85-4.49-1.09,1.07-1.31,2.47-2.03,3.58-.79,1.22-.5,1.57,1.03,1.69Z"/>
            </g>
            <g>
              <path class="cls-3" d="M137.53,134.97c1.13-1.45,1.32-3,1.55-4.52,.06-.39-.21-.62-.6-.65-.39-.02-.78-.03-1.17-.02-.73,.02-.98,.37-.79,1.1,.34,1.29,.64,2.59,1.01,4.09Z"/>
              <path class="cls-3" d="M147.62,132.56q.51-3.03-2.54-2.91c-.05,0-.1,.04-.47,.2,1.19,1.44,1.42,3.26,2.48,4.74,.54-.67,.42-1.38,.53-2.03Z"/>
              <path class="cls-3" d="M142.27,135.02c.13-1.43,.82-2.71,.9-4.11,.02-.33,.14-.68-.11-.96-.17-.2-1.86-.25-2.13-.05-.47,.34-.55,.87-.41,1.35,.38,1.32,.81,2.63,1.75,3.77Z"/>
              <path class="cls-3" d="M133.08,134.96c.97-1.64,1.34-3.35,1.8-5.1-1.11-.31-2.08-.27-3.13-.08,.2,.94,.32,1.82,.58,2.67,.24,.79-.14,1.76,.75,2.52Z"/>
              <path class="cls-3" d="M130.54,129.74c-1.53-.2-2.93-.23-4.47,0,.61,1.67,1.16,3.24,2.07,4.8,1.21-1.49,1.79-3.08,2.4-4.8Z"/>
            </g>
            <path d="M151.44,134.5c.21,.51,.5,1.01,.48,1.6-.11,1.31-.55,2.53-1.16,3.66-1.6,2.94-2.89,6.07-4.93,8.76-2.03,2.67-4.06,5.36-6.69,7.49-.47,.38-.98,.74-1.52,1.02-1.14,.58-1.32,.43-2.27-.47-2.21-2.09-3.89-4.61-5.8-6.94-.9-1.09-1.51-2.35-2.21-3.56-1.06-1.84-2.09-3.69-3.31-5.44-.8-1.15-1.31-2.45-1.78-3.78-.37-1.05-.23-2,.25-2.85,.68-1.22,1.24-2.5,1.9-3.73,.46-.86,1.07-1.26,2.13-1.25,3.75,.02,7.5,.1,11.25,.18,3.19,.06,6.38-.04,9.57-.18,1.25-.06,1.93,.31,2.35,1.53,.47,1.37,1.2,2.65,1.76,3.99Zm-6.84-4.64c1.19,1.44,1.42,3.26,2.48,4.74,.54-.67,.42-1.38,.53-2.03q.51-3.03-2.54-2.91c-.05,0-.1,.04-.47,.2Zm-1.08,3.17c-.67,3.24-.53,3.38,3.03,2.95-.73-1.8-1.08-3.59-2.27-4.99-.17,.07-.26,.09-.27,.12-.17,.64-.35,1.28-.49,1.93Zm-3-1.79c.38,1.32,.81,2.63,1.75,3.77,.13-1.43,.82-2.71,.9-4.11,.02-.33,.14-.68-.11-.96-.17-.2-1.86-.25-2.13-.05-.47,.34-.55,.87-.41,1.35Zm-.56,.88c-.77,1.32-1.51,2.55-1.29,4.25,.91-.38,1.81-.15,2.76-.48-.51-1.3-.99-2.54-1.47-3.77Zm-3.45-1.25c.34,1.29,.64,2.59,1.01,4.09,1.13-1.45,1.32-3,1.55-4.52,.06-.39-.21-.62-.6-.65-.39-.02-.78-.03-1.17-.02-.73,.02-.98,.37-.79,1.1Zm-.91-.07c-.57,.99-.93,1.97-1.23,2.98-.23,.78-1.12,1.61-.55,2.3,.57,.69,1.68,.14,2.54,.2,.11,0,.22-.01,.33-.04,.32-.09,.46-.33,.36-.63-.56-1.56-.74-3.24-1.45-4.81Zm-3.86-1.04c.2,.94,.32,1.82,.58,2.67,.24,.79-.14,1.76,.75,2.52,.97-1.64,1.34-3.35,1.8-5.1-1.11-.31-2.08-.27-3.13-.08Zm-.62,1.23c-1.09,1.07-1.31,2.47-2.03,3.58-.79,1.22-.5,1.57,1.03,1.69,.34,.03,.67,.04,1.01,.07,.65,.07,1-.2,.84-.86-.34-1.42-.18-2.92-.85-4.49Zm-5.05-1.26c.61,1.67,1.16,3.24,2.07,4.8,1.21-1.49,1.79-3.08,2.4-4.8-1.53-.2-2.93-.23-4.47,0Zm-2.38,6.37c1.3,.29,2.61,.26,4.13,.13-.85-2.04-1.4-3.97-2.41-5.73-.22,.13-.35,.17-.41,.25-.88,1.29-1.11,2.87-2.03,4.16-.42,.59,.08,1.04,.71,1.18Zm11.66,16.99c-.44-2.31-.88-4.63-1.55-6.87-.8-2.69-1.66-5.37-2.09-8.14-.14-.93-.49-1.06-1.24-1.05-2.35,.02-4.7,0-7.29,0,1.07,3.51,3.51,6.11,5.1,9.17,1.68,3.24,4.12,6,6.55,8.72,.23,.26,.42,.7,.96,.59,.17-.86-.28-1.63-.43-2.43Zm3.71-3.38c.72-2.64,1.35-5.31,1.97-7.98,.3-1.31,.54-2.63,.73-3.96,.13-.92-.07-1.15-1-1.01-2.4,.36-4.81,.2-7.22,.29-.96,.04-1.21,.31-1.08,1.23,.17,1.16,.46,2.3,.75,3.44,.69,2.71,1.75,5.31,2.17,8.1,.25,1.69,.83,3.32,1.35,5.3,1.18-1.92,1.84-3.64,2.32-5.42Zm10.45-12.69c-1.85-.03-3.7,.09-5.55-.2-.87-.13-1.35,.28-1.53,1.16-.36,1.81-.84,3.6-1.17,5.42-.69,3.82-1.67,7.54-3.22,11.11-.17,.39-.52,.78-.19,1.26,.36-.02,.62-.23,.89-.43,1.83-1.34,3.13-3.21,4.65-4.85,1.92-2.07,3.33-4.5,4.63-6.97,.88-1.68,1.93-3.3,2.49-5.14,.38-1.23,.31-1.33-1-1.36Zm1.48-1.03c-.4-1.77-1.16-3.28-2.12-5.1-.75,1.88-.7,3.5-.9,5.14,1.01,.18,1.94,.13,3.02-.04Z"/>
          </g>
          <g>
            <g>
              <path class="cls-3" d="M76.8,123.73c-.86-.02-1.73,.04-2.59-.09-.4-.06-.63,.13-.71,.54-.17,.84-.39,1.68-.55,2.53-.32,1.78-.78,3.52-1.5,5.18-.08,.18-.24,.36-.09,.59,.17,0,.29-.11,.41-.2,.86-.63,1.46-1.5,2.17-2.26,.89-.97,1.56-2.1,2.16-3.25,.41-.79,.9-1.54,1.16-2.4,.18-.57,.15-.62-.47-.63Z"/>
              <path class="cls-3" d="M69.47,128.02c-.37-1.25-.77-2.5-.97-3.8-.07-.43-.23-.49-.58-.49-1.1,0-2.19,0-3.4,0,.5,1.64,1.64,2.85,2.38,4.28,.78,1.51,1.92,2.8,3.05,4.07,.11,.12,.2,.33,.45,.27,.08-.4-.13-.76-.2-1.13-.2-1.08-.41-2.16-.72-3.21Z"/>
            </g>
            <path class="cls-4" d="M72.84,125.92c.14-.61,.25-1.23,.34-1.85,.06-.43-.03-.53-.47-.47-1.12,.17-2.24,.09-3.37,.14-.45,.02-.57,.14-.5,.57,.08,.54,.22,1.07,.35,1.61,.32,1.26,.82,2.48,1.01,3.78,.12,.79,.39,1.55,.63,2.47,.55-.9,.86-1.7,1.08-2.53,.33-1.23,.63-2.48,.92-3.72Z"/>
            <g>
              <path class="cls-4" d="M69.48,123.29c.27,.32,.78,.06,1.19,.09,.05,0,.1,0,.15-.02,.15-.04,.22-.15,.17-.29-.26-.73-.34-1.51-.68-2.24-.27,.46-.43,.92-.57,1.39-.11,.36-.52,.75-.26,1.07Z"/>
              <path class="cls-4" d="M71.74,123.42c.42-.18,.84-.07,1.29-.22-.24-.61-.46-1.18-.69-1.76-.36,.61-.7,1.19-.6,1.98Z"/>
              <path class="cls-4" d="M75.42,123.24c-.34-.84-.5-1.68-1.06-2.33-.08,.03-.12,.04-.12,.06-.08,.3-.17,.6-.23,.9-.31,1.51-.25,1.58,1.41,1.37Z"/>
              <path class="cls-4" d="M76.08,123.26c.47,.08,.9,.06,1.41-.02-.19-.82-.54-1.53-.99-2.38-.35,.88-.33,1.63-.42,2.4Z"/>
              <path class="cls-4" d="M66.68,123.36c-.4-.95-.65-1.85-1.12-2.67-.1,.06-.16,.08-.19,.12-.41,.6-.52,1.34-.95,1.94-.2,.28,.04,.49,.33,.55,.61,.14,1.22,.12,1.93,.06Z"/>
              <path class="cls-4" d="M67.76,123.38c.16,.01,.31,.02,.47,.03,.31,.03,.47-.09,.39-.4-.16-.66-.09-1.36-.4-2.09-.51,.5-.61,1.15-.94,1.67-.37,.57-.23,.73,.48,.79Z"/>
            </g>
            <g>
              <path class="cls-3" d="M71.21,122.77c.53-.68,.61-1.4,.72-2.11,.03-.18-.1-.29-.28-.3-.18-.01-.37-.02-.55,0-.34,.01-.46,.17-.37,.51,.16,.6,.3,1.21,.47,1.91Z"/>
              <path class="cls-3" d="M75.91,121.65q.24-1.41-1.19-1.36s-.05,.02-.22,.09c.55,.67,.66,1.52,1.16,2.21,.25-.31,.2-.64,.25-.95Z"/>
              <path class="cls-3" d="M73.42,122.79c.06-.67,.38-1.26,.42-1.92,0-.15,.06-.32-.05-.45-.08-.09-.87-.12-.99-.02-.22,.16-.26,.41-.19,.63,.18,.62,.38,1.23,.81,1.76Z"/>
              <path class="cls-3" d="M69.13,122.76c.45-.77,.63-1.56,.84-2.38-.52-.14-.97-.13-1.46-.04,.09,.44,.15,.85,.27,1.24,.11,.37-.06,.82,.35,1.17Z"/>
              <path class="cls-3" d="M67.95,120.33c-.72-.09-1.37-.11-2.08,0,.29,.78,.54,1.51,.96,2.24,.56-.69,.83-1.44,1.12-2.24Z"/>
            </g>
            <path d="M77.7,122.55c.1,.24,.23,.47,.22,.75-.05,.61-.26,1.18-.54,1.71-.75,1.37-1.35,2.83-2.3,4.09-.95,1.25-1.89,2.5-3.12,3.49-.22,.18-.46,.35-.71,.47-.53,.27-.61,.2-1.06-.22-1.03-.98-1.81-2.15-2.71-3.24-.42-.51-.71-1.1-1.03-1.66-.5-.86-.98-1.72-1.54-2.54-.37-.54-.61-1.14-.83-1.76-.17-.49-.11-.93,.11-1.33,.32-.57,.58-1.17,.89-1.74,.22-.4,.5-.59,.99-.59,1.75,0,3.5,.05,5.25,.08,1.49,.03,2.98-.02,4.46-.09,.58-.03,.9,.14,1.1,.71,.22,.64,.56,1.24,.82,1.86Zm-3.19-2.16c.55,.67,.66,1.52,1.16,2.21,.25-.31,.2-.64,.25-.95q.24-1.41-1.19-1.36s-.05,.02-.22,.09Zm-.5,1.48c-.31,1.51-.25,1.58,1.41,1.37-.34-.84-.5-1.68-1.06-2.33-.08,.03-.12,.04-.12,.06-.08,.3-.17,.6-.23,.9Zm-1.4-.83c.18,.62,.38,1.23,.81,1.76,.06-.67,.38-1.26,.42-1.92,0-.15,.06-.32-.05-.45-.08-.09-.87-.12-.99-.02-.22,.16-.26,.41-.19,.63Zm-.26,.41c-.36,.61-.7,1.19-.6,1.98,.42-.18,.84-.07,1.29-.22-.24-.61-.46-1.18-.69-1.76Zm-1.61-.58c.16,.6,.3,1.21,.47,1.91,.53-.68,.61-1.4,.72-2.11,.03-.18-.1-.29-.28-.3-.18-.01-.37-.02-.55,0-.34,.01-.46,.17-.37,.51Zm-.42-.03c-.27,.46-.43,.92-.57,1.39-.11,.36-.52,.75-.26,1.07,.27,.32,.78,.06,1.19,.09,.05,0,.1,0,.15-.02,.15-.04,.22-.15,.17-.29-.26-.73-.34-1.51-.68-2.24Zm-1.8-.49c.09,.44,.15,.85,.27,1.24,.11,.37-.06,.82,.35,1.17,.45-.77,.63-1.56,.84-2.38-.52-.14-.97-.13-1.46-.04Zm-.29,.58c-.51,.5-.61,1.15-.94,1.67-.37,.57-.23,.73,.48,.79,.16,.01,.31,.02,.47,.03,.31,.03,.47-.09,.39-.4-.16-.66-.09-1.36-.4-2.09Zm-2.36-.59c.29,.78,.54,1.51,.96,2.24,.56-.69,.83-1.44,1.12-2.24-.72-.09-1.37-.11-2.08,0Zm-1.11,2.97c.61,.14,1.22,.12,1.93,.06-.4-.95-.65-1.85-1.12-2.67-.1,.06-.16,.08-.19,.12-.41,.6-.52,1.34-.95,1.94-.2,.28,.04,.49,.33,.55Zm5.44,7.93c-.2-1.08-.41-2.16-.72-3.21-.37-1.25-.77-2.5-.97-3.8-.07-.43-.23-.49-.58-.49-1.1,0-2.19,0-3.4,0,.5,1.64,1.64,2.85,2.38,4.28,.78,1.51,1.92,2.8,3.05,4.07,.11,.12,.2,.33,.45,.27,.08-.4-.13-.76-.2-1.13Zm1.73-1.58c.33-1.23,.63-2.48,.92-3.72,.14-.61,.25-1.23,.34-1.85,.06-.43-.03-.53-.47-.47-1.12,.17-2.24,.09-3.37,.14-.45,.02-.57,.14-.5,.57,.08,.54,.22,1.07,.35,1.61,.32,1.26,.82,2.48,1.01,3.78,.12,.79,.39,1.55,.63,2.47,.55-.9,.86-1.7,1.08-2.53Zm4.87-5.92c-.86-.02-1.73,.04-2.59-.09-.4-.06-.63,.13-.71,.54-.17,.84-.39,1.68-.55,2.53-.32,1.78-.78,3.52-1.5,5.18-.08,.18-.24,.36-.09,.59,.17,0,.29-.11,.41-.2,.86-.63,1.46-1.5,2.17-2.26,.89-.97,1.56-2.1,2.16-3.25,.41-.79,.9-1.54,1.16-2.4,.18-.57,.15-.62-.47-.63Zm.69-.48c-.19-.82-.54-1.53-.99-2.38-.35,.88-.33,1.63-.42,2.4,.47,.08,.9,.06,1.41-.02Z"/>
          </g>
          <g>
            <g>
              <path class="cls-3" d="M106.29,158.61c-1.3-.02-2.6,.06-3.89-.14-.61-.09-.95,.2-1.07,.81-.26,1.27-.59,2.52-.82,3.8-.48,2.67-1.17,5.29-2.25,7.78-.12,.27-.36,.55-.13,.88,.25-.01,.43-.16,.62-.3,1.29-.94,2.19-2.25,3.26-3.4,1.34-1.45,2.34-3.15,3.25-4.89,.62-1.18,1.35-2.31,1.75-3.6,.26-.86,.22-.94-.7-.95Z"/>
              <path class="cls-3" d="M95.28,165.06c-.56-1.88-1.16-3.76-1.46-5.7-.1-.65-.34-.74-.87-.74-1.65,.01-3.29,0-5.11,0,.75,2.46,2.46,4.28,3.57,6.43,1.17,2.27,2.89,4.2,4.59,6.11,.16,.18,.3,.49,.67,.41,.12-.6-.2-1.14-.3-1.7-.31-1.62-.62-3.24-1.08-4.82Z"/>
            </g>
            <path class="cls-4" d="M100.35,161.91c.21-.92,.38-1.85,.51-2.78,.09-.64-.05-.8-.7-.7-1.68,.25-3.37,.14-5.06,.21-.67,.03-.85,.21-.75,.86,.12,.82,.32,1.61,.53,2.41,.48,1.9,1.23,3.72,1.52,5.68,.18,1.18,.58,2.33,.94,3.71,.82-1.35,1.29-2.55,1.63-3.8,.5-1.85,.95-3.72,1.38-5.59Z"/>
            <g>
              <path class="cls-4" d="M95.3,157.96c.4,.48,1.17,.1,1.78,.14,.08,0,.16,0,.23-.03,.23-.06,.33-.23,.25-.44-.39-1.09-.52-2.27-1.02-3.37-.4,.69-.65,1.38-.86,2.09-.16,.54-.78,1.13-.39,1.61Z"/>
              <path class="cls-4" d="M98.7,158.16c.64-.27,1.27-.11,1.94-.33-.36-.91-.69-1.78-1.03-2.64-.54,.92-1.06,1.79-.9,2.98Z"/>
              <path class="cls-4" d="M104.21,157.88c-.51-1.26-.75-2.52-1.59-3.5-.12,.05-.18,.06-.19,.08-.12,.45-.25,.9-.34,1.35-.47,2.27-.37,2.37,2.12,2.06Z"/>
              <path class="cls-4" d="M105.2,157.92c.71,.12,1.36,.09,2.12-.03-.28-1.24-.82-2.3-1.49-3.58-.53,1.32-.49,2.45-.63,3.6Z"/>
              <path class="cls-4" d="M91.09,158.07c-.6-1.43-.98-2.78-1.69-4.01-.16,.09-.25,.12-.28,.17-.61,.9-.78,2.01-1.42,2.92-.3,.42,.06,.73,.5,.83,.91,.2,1.83,.18,2.89,.09Z"/>
              <path class="cls-4" d="M92.71,158.09c.23,.02,.47,.03,.71,.05,.46,.05,.7-.14,.59-.61-.24-.99-.13-2.04-.6-3.14-.77,.75-.92,1.73-1.42,2.51-.55,.85-.35,1.1,.72,1.19Z"/>
            </g>
            <g>
              <path class="cls-3" d="M97.89,157.17c.79-1.02,.92-2.1,1.09-3.17,.04-.27-.15-.44-.42-.45-.27-.02-.55-.02-.82-.01-.51,.02-.69,.26-.55,.77,.24,.9,.45,1.82,.71,2.87Z"/>
              <path class="cls-3" d="M104.96,155.49q.36-2.12-1.78-2.04s-.07,.03-.33,.14c.83,1.01,1,2.28,1.74,3.32,.38-.47,.3-.97,.37-1.42Z"/>
              <path class="cls-3" d="M101.21,157.21c.09-1,.58-1.9,.63-2.88,.01-.23,.1-.47-.08-.67-.12-.14-1.3-.17-1.49-.04-.33,.24-.38,.61-.29,.95,.27,.93,.57,1.85,1.22,2.64Z"/>
              <path class="cls-3" d="M94.77,157.16c.68-1.15,.94-2.35,1.26-3.57-.78-.22-1.46-.19-2.19-.06,.14,.66,.23,1.28,.41,1.87,.17,.55-.1,1.24,.53,1.76Z"/>
              <path class="cls-3" d="M92.99,153.51c-1.07-.14-2.06-.16-3.13,0,.43,1.17,.82,2.27,1.45,3.37,.84-1.04,1.25-2.16,1.68-3.37Z"/>
            </g>
            <path d="M107.64,156.84c.15,.36,.35,.71,.33,1.12-.08,.92-.39,1.78-.82,2.56-1.12,2.06-2.03,4.26-3.46,6.14-1.42,1.87-2.85,3.75-4.69,5.25-.33,.27-.69,.52-1.07,.71-.8,.41-.92,.3-1.59-.33-1.55-1.47-2.72-3.23-4.07-4.86-.63-.76-1.06-1.65-1.55-2.5-.75-1.29-1.47-2.59-2.32-3.82-.56-.8-.92-1.72-1.25-2.65-.26-.73-.16-1.4,.17-2,.47-.86,.87-1.75,1.33-2.61,.32-.6,.75-.88,1.49-.88,2.63,.01,5.26,.07,7.89,.13,2.23,.05,4.47-.03,6.71-.13,.88-.04,1.35,.22,1.64,1.07,.33,.96,.84,1.86,1.23,2.8Zm-4.79-3.25c.83,1.01,1,2.28,1.74,3.32,.38-.47,.3-.97,.37-1.42q.36-2.12-1.78-2.04s-.07,.03-.33,.14Zm-.76,2.22c-.47,2.27-.37,2.37,2.12,2.06-.51-1.26-.75-2.52-1.59-3.5-.12,.05-.18,.06-.19,.08-.12,.45-.25,.9-.34,1.35Zm-2.1-1.25c.27,.93,.57,1.85,1.22,2.64,.09-1,.58-1.9,.63-2.88,.01-.23,.1-.47-.08-.67-.12-.14-1.3-.17-1.49-.04-.33,.24-.38,.61-.29,.95Zm-.39,.62c-.54,.92-1.06,1.79-.9,2.98,.64-.27,1.27-.11,1.94-.33-.36-.91-.69-1.78-1.03-2.64Zm-2.42-.87c.24,.9,.45,1.82,.71,2.87,.79-1.02,.92-2.1,1.09-3.17,.04-.27-.15-.44-.42-.45-.27-.02-.55-.02-.82-.01-.51,.02-.69,.26-.55,.77Zm-.63-.05c-.4,.69-.65,1.38-.86,2.09-.16,.54-.78,1.13-.39,1.61,.4,.48,1.17,.1,1.78,.14,.08,0,.16,0,.23-.03,.23-.06,.33-.23,.25-.44-.39-1.09-.52-2.27-1.02-3.37Zm-2.71-.73c.14,.66,.23,1.28,.41,1.87,.17,.55-.1,1.24,.53,1.76,.68-1.15,.94-2.35,1.26-3.57-.78-.22-1.46-.19-2.19-.06Zm-.43,.86c-.77,.75-.92,1.73-1.42,2.51-.55,.85-.35,1.1,.72,1.19,.23,.02,.47,.03,.71,.05,.46,.05,.7-.14,.59-.61-.24-.99-.13-2.04-.6-3.14Zm-3.54-.88c.43,1.17,.82,2.27,1.45,3.37,.84-1.04,1.25-2.16,1.68-3.37-1.07-.14-2.06-.16-3.13,0Zm-1.67,4.46c.91,.2,1.83,.18,2.89,.09-.6-1.43-.98-2.78-1.69-4.01-.16,.09-.25,.12-.28,.17-.61,.9-.78,2.01-1.42,2.92-.3,.42,.06,.73,.5,.83Zm8.17,11.9c-.31-1.62-.62-3.24-1.08-4.82-.56-1.88-1.16-3.76-1.46-5.7-.1-.65-.34-.74-.87-.74-1.65,.01-3.29,0-5.11,0,.75,2.46,2.46,4.28,3.57,6.43,1.17,2.27,2.89,4.2,4.59,6.11,.16,.18,.3,.49,.67,.41,.12-.6-.2-1.14-.3-1.7Zm2.6-2.37c.5-1.85,.95-3.72,1.38-5.59,.21-.92,.38-1.85,.51-2.78,.09-.64-.05-.8-.7-.7-1.68,.25-3.37,.14-5.06,.21-.67,.03-.85,.21-.75,.86,.12,.82,.32,1.61,.53,2.41,.48,1.9,1.23,3.72,1.52,5.68,.18,1.18,.58,2.33,.94,3.71,.82-1.35,1.29-2.55,1.63-3.8Zm7.32-8.89c-1.3-.02-2.6,.06-3.89-.14-.61-.09-.95,.2-1.07,.81-.26,1.27-.59,2.52-.82,3.8-.48,2.67-1.17,5.29-2.25,7.78-.12,.27-.36,.55-.13,.88,.25-.01,.43-.16,.62-.3,1.29-.94,2.19-2.25,3.26-3.4,1.34-1.45,2.34-3.15,3.25-4.89,.62-1.18,1.35-2.31,1.75-3.6,.26-.86,.22-.94-.7-.95Zm1.04-.72c-.28-1.24-.82-2.3-1.49-3.58-.53,1.32-.49,2.45-.63,3.6,.71,.12,1.36,.09,2.12-.03Z"/>
          </g>
        </g>
        <g>
          <g>
            <g>
              <path class="cls-3" d="M41.57,137.02c-1.85-.03-3.7,.09-5.55-.2-.87-.13-1.35,.28-1.53,1.16-.36,1.81-.84,3.6-1.17,5.42-.69,3.82-1.67,7.54-3.22,11.11-.17,.39-.52,.78-.19,1.26,.36-.02,.62-.23,.89-.43,1.83-1.34,3.13-3.21,4.65-4.85,1.92-2.07,3.33-4.5,4.63-6.97,.88-1.68,1.93-3.3,2.49-5.14,.38-1.23,.31-1.33-1-1.36Z"/>
              <path class="cls-3" d="M25.86,146.23c-.8-2.69-1.66-5.37-2.09-8.14-.14-.93-.49-1.06-1.24-1.05-2.35,.02-4.7,0-7.29,0,1.07,3.51,3.51,6.11,5.1,9.17,1.68,3.24,4.12,6,6.55,8.72,.23,.26,.42,.7,.96,.59,.17-.86-.28-1.63-.43-2.43-.44-2.31-.88-4.63-1.55-6.87Z"/>
            </g>
            <path class="cls-4" d="M33.09,141.73c.3-1.31,.54-2.63,.73-3.96,.13-.92-.07-1.15-1-1.01-2.4,.36-4.81,.2-7.22,.29-.96,.04-1.21,.31-1.08,1.23,.17,1.16,.46,2.3,.75,3.44,.69,2.71,1.75,5.31,2.17,8.1,.25,1.69,.83,3.32,1.35,5.3,1.18-1.92,1.84-3.64,2.32-5.42,.72-2.64,1.35-5.31,1.97-7.98Z"/>
            <g>
              <path class="cls-4" d="M25.88,136.09c.57,.69,1.68,.14,2.54,.2,.11,0,.22-.01,.33-.04,.32-.09,.46-.33,.36-.63-.56-1.56-.74-3.24-1.45-4.81-.57,.99-.93,1.97-1.23,2.98-.23,.78-1.12,1.61-.55,2.3Z"/>
              <path class="cls-4" d="M30.73,136.37c.91-.38,1.81-.15,2.76-.48-.51-1.3-.99-2.54-1.47-3.77-.77,1.32-1.51,2.55-1.29,4.25Z"/>
              <path class="cls-4" d="M38.6,135.98c-.73-1.8-1.08-3.59-2.27-4.99-.17,.07-.26,.09-.27,.12-.17,.64-.35,1.28-.49,1.93-.67,3.24-.53,3.38,3.03,2.95Z"/>
              <path class="cls-4" d="M40.02,136.03c1.01,.18,1.94,.13,3.02-.04-.4-1.77-1.16-3.28-2.12-5.1-.75,1.88-.7,3.5-.9,5.14Z"/>
              <path class="cls-4" d="M19.88,136.24c-.85-2.04-1.4-3.97-2.41-5.73-.22,.13-.35,.17-.41,.25-.88,1.29-1.11,2.87-2.03,4.16-.42,.59,.08,1.04,.71,1.18,1.3,.29,2.61,.26,4.13,.13Z"/>
              <path class="cls-4" d="M22.19,136.28c.34,.03,.67,.04,1.01,.07,.65,.07,1-.2,.84-.86-.34-1.42-.18-2.92-.85-4.49-1.09,1.07-1.31,2.47-2.03,3.58-.79,1.22-.5,1.57,1.03,1.69Z"/>
            </g>
            <g>
              <path class="cls-3" d="M29.58,134.97c1.13-1.45,1.32-3,1.55-4.52,.06-.39-.21-.62-.6-.65-.39-.02-.78-.03-1.17-.02-.73,.02-.98,.37-.79,1.1,.34,1.29,.64,2.59,1.01,4.09Z"/>
              <path class="cls-3" d="M39.67,132.56q.51-3.03-2.54-2.91c-.05,0-.1,.04-.47,.2,1.19,1.44,1.42,3.26,2.48,4.74,.54-.67,.42-1.38,.53-2.03Z"/>
              <path class="cls-3" d="M34.33,135.02c.13-1.43,.82-2.71,.9-4.11,.02-.33,.14-.68-.11-.96-.17-.2-1.86-.25-2.13-.05-.47,.34-.55,.87-.41,1.35,.38,1.32,.81,2.63,1.75,3.77Z"/>
              <path class="cls-3" d="M25.13,134.96c.97-1.64,1.34-3.35,1.8-5.1-1.11-.31-2.08-.27-3.13-.08,.2,.94,.32,1.82,.58,2.67,.24,.79-.14,1.76,.75,2.52Z"/>
              <path class="cls-3" d="M22.6,129.74c-1.53-.2-2.93-.23-4.47,0,.61,1.67,1.16,3.24,2.07,4.8,1.21-1.49,1.79-3.08,2.4-4.8Z"/>
            </g>
            <path d="M43.5,134.5c.21,.51,.5,1.01,.48,1.6-.11,1.31-.55,2.53-1.16,3.66-1.6,2.94-2.89,6.07-4.93,8.76-2.03,2.67-4.06,5.36-6.69,7.49-.47,.38-.98,.74-1.52,1.02-1.14,.58-1.32,.43-2.27-.47-2.21-2.09-3.89-4.61-5.8-6.94-.9-1.09-1.51-2.35-2.21-3.56-1.06-1.84-2.09-3.69-3.31-5.44-.8-1.15-1.31-2.45-1.78-3.78-.37-1.05-.23-2,.25-2.85,.68-1.22,1.24-2.5,1.9-3.73,.46-.86,1.07-1.26,2.13-1.25,3.75,.02,7.5,.1,11.25,.18,3.19,.06,6.38-.04,9.57-.18,1.25-.06,1.93,.31,2.35,1.53,.47,1.37,1.2,2.65,1.76,3.99Zm-6.84-4.64c1.19,1.44,1.42,3.26,2.48,4.74,.54-.67,.42-1.38,.53-2.03q.51-3.03-2.54-2.91c-.05,0-.1,.04-.47,.2Zm-1.08,3.17c-.67,3.24-.53,3.38,3.03,2.95-.73-1.8-1.08-3.59-2.27-4.99-.17,.07-.26,.09-.27,.12-.17,.64-.35,1.28-.49,1.93Zm-3-1.79c.38,1.32,.81,2.63,1.75,3.77,.13-1.43,.82-2.71,.9-4.11,.02-.33,.14-.68-.11-.96-.17-.2-1.86-.25-2.13-.05-.47,.34-.55,.87-.41,1.35Zm-.56,.88c-.77,1.32-1.51,2.55-1.29,4.25,.91-.38,1.81-.15,2.76-.48-.51-1.3-.99-2.54-1.47-3.77Zm-3.45-1.25c.34,1.29,.64,2.59,1.01,4.09,1.13-1.45,1.32-3,1.55-4.52,.06-.39-.21-.62-.6-.65-.39-.02-.78-.03-1.17-.02-.73,.02-.98,.37-.79,1.1Zm-.91-.07c-.57,.99-.93,1.97-1.23,2.98-.23,.78-1.12,1.61-.55,2.3,.57,.69,1.68,.14,2.54,.2,.11,0,.22-.01,.33-.04,.32-.09,.46-.33,.36-.63-.56-1.56-.74-3.24-1.45-4.81Zm-3.86-1.04c.2,.94,.32,1.82,.58,2.67,.24,.79-.14,1.76,.75,2.52,.97-1.64,1.34-3.35,1.8-5.1-1.11-.31-2.08-.27-3.13-.08Zm-.62,1.23c-1.09,1.07-1.31,2.47-2.03,3.58-.79,1.22-.5,1.57,1.03,1.69,.34,.03,.67,.04,1.01,.07,.65,.07,1-.2,.84-.86-.34-1.42-.18-2.92-.85-4.49Zm-5.05-1.26c.61,1.67,1.16,3.24,2.07,4.8,1.21-1.49,1.79-3.08,2.4-4.8-1.53-.2-2.93-.23-4.47,0Zm-2.38,6.37c1.3,.29,2.61,.26,4.13,.13-.85-2.04-1.4-3.97-2.41-5.73-.22,.13-.35,.17-.41,.25-.88,1.29-1.11,2.87-2.03,4.16-.42,.59,.08,1.04,.71,1.18Zm11.66,16.99c-.44-2.31-.88-4.63-1.55-6.87-.8-2.69-1.66-5.37-2.09-8.14-.14-.93-.49-1.06-1.24-1.05-2.35,.02-4.7,0-7.29,0,1.07,3.51,3.51,6.11,5.1,9.17,1.68,3.24,4.12,6,6.55,8.72,.23,.26,.42,.7,.96,.59,.17-.86-.28-1.63-.43-2.43Zm3.71-3.38c.72-2.64,1.35-5.31,1.97-7.98,.3-1.31,.54-2.63,.73-3.96,.13-.92-.07-1.15-1-1.01-2.4,.36-4.81,.2-7.22,.29-.96,.04-1.21,.31-1.08,1.23,.17,1.16,.46,2.3,.75,3.44,.69,2.71,1.75,5.31,2.17,8.1,.25,1.69,.83,3.32,1.35,5.3,1.18-1.92,1.84-3.64,2.32-5.42Zm10.45-12.69c-1.85-.03-3.7,.09-5.55-.2-.87-.13-1.35,.28-1.53,1.16-.36,1.81-.84,3.6-1.17,5.42-.69,3.82-1.67,7.54-3.22,11.11-.17,.39-.52,.78-.19,1.26,.36-.02,.62-.23,.89-.43,1.83-1.34,3.13-3.21,4.65-4.85,1.92-2.07,3.33-4.5,4.63-6.97,.88-1.68,1.93-3.3,2.49-5.14,.38-1.23,.31-1.33-1-1.36Zm1.48-1.03c-.4-1.77-1.16-3.28-2.12-5.1-.75,1.88-.7,3.5-.9,5.14,1.01,.18,1.94,.13,3.02-.04Z"/>
          </g>
          <path d="M-.31,156.84c.15,.36,.35,.71,.33,1.12-.08,.92-.39,1.78-.82,2.56-1.12,2.06-2.03,4.26-3.46,6.14-1.42,1.87-2.85,3.75-4.69,5.25-.33,.27-.69,.52-1.07,.71-.8,.41-.92,.3-1.59-.33-1.55-1.47-2.72-3.23-4.07-4.86-.63-.76-1.06-1.65-1.55-2.5-.75-1.29-1.47-2.59-2.32-3.82-.56-.8-.92-1.72-1.25-2.65-.26-.73-.16-1.4,.17-2,.47-.86,.87-1.75,1.33-2.61,.32-.6,.75-.88,1.49-.88,2.63,.01,5.26,.07,7.89,.13,2.23,.05,4.47-.03,6.71-.13,.88-.04,1.35,.22,1.64,1.07,.33,.96,.84,1.86,1.23,2.8Zm-4.79-3.25c.83,1.01,1,2.28,1.74,3.32,.38-.47,.3-.97,.37-1.42q.36-2.12-1.78-2.04s-.07,.03-.33,.14Zm-.76,2.22c-.47,2.27-.37,2.37,2.12,2.06-.51-1.26-.75-2.52-1.59-3.5-.12,.05-.18,.06-.19,.08-.12,.45-.25,.9-.34,1.35Zm-2.1-1.25c.27,.93,.57,1.85,1.22,2.64,.09-1,.58-1.9,.63-2.88,.01-.23,.1-.47-.08-.67-.12-.14-1.3-.17-1.49-.04-.33,.24-.38,.61-.29,.95Zm-.39,.62c-.54,.92-1.06,1.79-.9,2.98,.64-.27,1.27-.11,1.94-.33-.36-.91-.69-1.78-1.03-2.64Zm-2.42-.87c.24,.9,.45,1.82,.71,2.87,.79-1.02,.92-2.1,1.09-3.17,.04-.27-.15-.44-.42-.45-.27-.02-.55-.02-.82-.01-.51,.02-.69,.26-.55,.77Zm-.63-.05c-.4,.69-.65,1.38-.86,2.09-.16,.54-.78,1.13-.39,1.61,.4,.48,1.17,.1,1.78,.14,.08,0,.16,0,.23-.03,.23-.06,.33-.23,.25-.44-.39-1.09-.52-2.27-1.02-3.37Zm-2.71-.73c.14,.66,.23,1.28,.41,1.87,.17,.55-.1,1.24,.53,1.76,.68-1.15,.94-2.35,1.26-3.57-.78-.22-1.46-.19-2.19-.06Zm-.43,.86c-.77,.75-.92,1.73-1.42,2.51-.55,.85-.35,1.1,.72,1.19,.23,.02,.47,.03,.71,.05,.46,.05,.7-.14,.59-.61-.24-.99-.13-2.04-.6-3.14Zm-3.54-.88c.43,1.17,.82,2.27,1.45,3.37,.84-1.04,1.25-2.16,1.68-3.37-1.07-.14-2.06-.16-3.13,0Zm-1.67,4.46c.91,.2,1.83,.18,2.89,.09-.6-1.43-.98-2.78-1.69-4.01-.16,.09-.25,.12-.28,.17-.61,.9-.78,2.01-1.42,2.92-.3,.42,.06,.73,.5,.83Zm8.17,11.9c-.31-1.62-.62-3.24-1.08-4.82-.56-1.88-1.16-3.76-1.46-5.7-.1-.65-.34-.74-.87-.74-1.65,.01-3.29,0-5.11,0,.75,2.46,2.46,4.28,3.57,6.43,1.17,2.27,2.89,4.2,4.59,6.11,.16,.18,.3,.49,.67,.41,.12-.6-.2-1.14-.3-1.7Zm2.6-2.37c.5-1.85,.95-3.72,1.38-5.59,.21-.92,.38-1.85,.51-2.78,.09-.64-.05-.8-.7-.7-1.68,.25-3.37,.14-5.06,.21-.67,.03-.85,.21-.75,.86,.12,.82,.32,1.61,.53,2.41,.48,1.9,1.23,3.72,1.52,5.68,.18,1.18,.58,2.33,.94,3.71,.82-1.35,1.29-2.55,1.63-3.8Zm7.32-8.89c-1.3-.02-2.6,.06-3.89-.14-.61-.09-.95,.2-1.07,.81-.26,1.27-.59,2.52-.82,3.8-.48,2.67-1.17,5.29-2.25,7.78-.12,.27-.36,.55-.13,.88,.25-.01,.43-.16,.62-.3,1.29-.94,2.19-2.25,3.26-3.4,1.34-1.45,2.34-3.15,3.25-4.89,.62-1.18,1.35-2.31,1.75-3.6,.26-.86,.22-.94-.7-.95Zm1.04-.72c-.28-1.24-.82-2.3-1.49-3.58-.53,1.32-.49,2.45-.63,3.6,.71,.12,1.36,.09,2.12-.03Z"/>
        </g>
        <g>
          <g>
            <g>
              <path class="cls-3" d="M203.49,15.11c-1.85-.03-3.7,.09-5.55-.2-.87-.13-1.35,.28-1.53,1.16-.36,1.81-.84,3.6-1.17,5.42-.69,3.82-1.67,7.54-3.22,11.11-.17,.39-.52,.78-.19,1.26,.36-.02,.62-.23,.89-.43,1.83-1.34,3.13-3.21,4.65-4.85,1.92-2.07,3.33-4.5,4.63-6.97,.88-1.68,1.93-3.3,2.49-5.14,.38-1.23,.31-1.33-1-1.36Z"/>
              <path class="cls-3" d="M187.79,24.31c-.8-2.69-1.66-5.37-2.09-8.14-.14-.93-.49-1.06-1.24-1.05-2.35,.02-4.7,0-7.29,0,1.07,3.51,3.51,6.11,5.1,9.17,1.68,3.24,4.12,6,6.55,8.72,.23,.26,.42,.7,.96,.59,.17-.86-.28-1.63-.43-2.43-.44-2.31-.88-4.63-1.55-6.87Z"/>
            </g>
            <path class="cls-4" d="M195.01,19.82c.3-1.31,.54-2.63,.73-3.96,.13-.92-.07-1.15-1-1.01-2.4,.36-4.81,.2-7.22,.29-.96,.04-1.21,.31-1.08,1.23,.17,1.16,.46,2.3,.75,3.44,.69,2.71,1.75,5.31,2.17,8.1,.25,1.69,.83,3.32,1.35,5.3,1.18-1.92,1.84-3.64,2.32-5.42,.72-2.64,1.35-5.31,1.97-7.98Z"/>
            <g>
              <path class="cls-4" d="M187.81,14.18c.57,.69,1.68,.14,2.54,.2,.11,0,.22-.01,.33-.04,.32-.09,.46-.33,.36-.63-.56-1.56-.74-3.24-1.45-4.81-.57,.99-.93,1.97-1.23,2.98-.23,.78-1.12,1.61-.55,2.3Z"/>
              <path class="cls-4" d="M192.66,14.46c.91-.38,1.81-.15,2.76-.48-.51-1.3-.99-2.54-1.47-3.77-.77,1.32-1.51,2.55-1.29,4.25Z"/>
              <path class="cls-4" d="M200.52,14.07c-.73-1.8-1.08-3.59-2.27-4.99-.17,.07-.26,.09-.27,.12-.17,.64-.35,1.28-.49,1.93-.67,3.24-.53,3.38,3.03,2.95Z"/>
              <path class="cls-4" d="M201.94,14.12c1.01,.18,1.94,.13,3.02-.04-.4-1.77-1.16-3.28-2.12-5.1-.75,1.88-.7,3.5-.9,5.14Z"/>
              <path class="cls-4" d="M181.8,14.33c-.85-2.04-1.4-3.97-2.41-5.73-.22,.13-.35,.17-.41,.25-.88,1.29-1.11,2.87-2.03,4.16-.42,.59,.08,1.04,.71,1.18,1.3,.29,2.61,.26,4.13,.13Z"/>
              <path class="cls-4" d="M184.11,14.37c.34,.03,.67,.04,1.01,.07,.65,.07,1-.2,.84-.86-.34-1.42-.18-2.92-.85-4.49-1.09,1.07-1.31,2.47-2.03,3.58-.79,1.22-.5,1.57,1.03,1.69Z"/>
            </g>
            <g>
              <path class="cls-3" d="M191.5,13.06c1.13-1.45,1.32-3,1.55-4.52,.06-.39-.21-.62-.6-.65-.39-.02-.78-.03-1.17-.02-.73,.02-.98,.37-.79,1.1,.34,1.29,.64,2.59,1.01,4.09Z"/>
              <path class="cls-3" d="M201.59,10.65q.51-3.03-2.54-2.91c-.05,0-.1,.04-.47,.2,1.19,1.44,1.42,3.26,2.48,4.74,.54-.67,.42-1.38,.53-2.03Z"/>
              <path class="cls-3" d="M196.25,13.11c.13-1.43,.82-2.71,.9-4.11,.02-.33,.14-.68-.11-.96-.17-.2-1.86-.25-2.13-.05-.47,.34-.55,.87-.41,1.35,.38,1.32,.81,2.63,1.75,3.77Z"/>
              <path class="cls-3" d="M187.06,13.05c.97-1.64,1.34-3.35,1.8-5.1-1.11-.31-2.08-.27-3.13-.08,.2,.94,.32,1.82,.58,2.67,.24,.79-.14,1.76,.75,2.52Z"/>
              <path class="cls-3" d="M184.52,7.83c-1.53-.2-2.93-.23-4.47,0,.61,1.67,1.16,3.24,2.07,4.8,1.21-1.49,1.79-3.08,2.4-4.8Z"/>
            </g>
            <path d="M205.42,12.59c.21,.51,.5,1.01,.48,1.6-.11,1.31-.55,2.53-1.16,3.66-1.6,2.94-2.89,6.07-4.93,8.76-2.03,2.67-4.06,5.36-6.69,7.49-.47,.38-.98,.74-1.52,1.02-1.14,.58-1.32,.43-2.27-.47-2.21-2.09-3.89-4.61-5.8-6.94-.9-1.09-1.51-2.35-2.21-3.56-1.06-1.84-2.09-3.69-3.31-5.44-.8-1.15-1.31-2.45-1.78-3.78-.37-1.05-.23-2,.25-2.85,.68-1.22,1.24-2.5,1.9-3.73,.46-.86,1.07-1.26,2.13-1.25,3.75,.02,7.5,.1,11.25,.18,3.19,.06,6.38-.04,9.57-.18,1.25-.06,1.93,.31,2.35,1.53,.47,1.37,1.2,2.65,1.76,3.99Zm-6.84-4.64c1.19,1.44,1.42,3.26,2.48,4.74,.54-.67,.42-1.38,.53-2.03q.51-3.03-2.54-2.91c-.05,0-.1,.04-.47,.2Zm-1.08,3.17c-.67,3.24-.53,3.38,3.03,2.95-.73-1.8-1.08-3.59-2.27-4.99-.17,.07-.26,.09-.27,.12-.17,.64-.35,1.28-.49,1.93Zm-3-1.79c.38,1.32,.81,2.63,1.75,3.77,.13-1.43,.82-2.71,.9-4.11,.02-.33,.14-.68-.11-.96-.17-.2-1.86-.25-2.13-.05-.47,.34-.55,.87-.41,1.35Zm-.56,.88c-.77,1.32-1.51,2.55-1.29,4.25,.91-.38,1.81-.15,2.76-.48-.51-1.3-.99-2.54-1.47-3.77Zm-3.45-1.25c.34,1.29,.64,2.59,1.01,4.09,1.13-1.45,1.32-3,1.55-4.52,.06-.39-.21-.62-.6-.65-.39-.02-.78-.03-1.17-.02-.73,.02-.98,.37-.79,1.1Zm-.91-.07c-.57,.99-.93,1.97-1.23,2.98-.23,.78-1.12,1.61-.55,2.3,.57,.69,1.68,.14,2.54,.2,.11,0,.22-.01,.33-.04,.32-.09,.46-.33,.36-.63-.56-1.56-.74-3.24-1.45-4.81Zm-3.86-1.04c.2,.94,.32,1.82,.58,2.67,.24,.79-.14,1.76,.75,2.52,.97-1.64,1.34-3.35,1.8-5.1-1.11-.31-2.08-.27-3.13-.08Zm-.62,1.23c-1.09,1.07-1.31,2.47-2.03,3.58-.79,1.22-.5,1.57,1.03,1.69,.34,.03,.67,.04,1.01,.07,.65,.07,1-.2,.84-.86-.34-1.42-.18-2.92-.85-4.49Zm-5.05-1.26c.61,1.67,1.16,3.24,2.07,4.8,1.21-1.49,1.79-3.08,2.4-4.8-1.53-.2-2.93-.23-4.47,0Zm-2.38,6.37c1.3,.29,2.61,.26,4.13,.13-.85-2.04-1.4-3.97-2.41-5.73-.22,.13-.35,.17-.41,.25-.88,1.29-1.11,2.87-2.03,4.16-.42,.59,.08,1.04,.71,1.18Zm11.66,16.99c-.44-2.31-.88-4.63-1.55-6.87-.8-2.69-1.66-5.37-2.09-8.14-.14-.93-.49-1.06-1.24-1.05-2.35,.02-4.7,0-7.29,0,1.07,3.51,3.51,6.11,5.1,9.17,1.68,3.24,4.12,6,6.55,8.72,.23,.26,.42,.7,.96,.59,.17-.86-.28-1.63-.43-2.43Zm3.71-3.38c.72-2.64,1.35-5.31,1.97-7.98,.3-1.31,.54-2.63,.73-3.96,.13-.92-.07-1.15-1-1.01-2.4,.36-4.81,.2-7.22,.29-.96,.04-1.21,.31-1.08,1.23,.17,1.16,.46,2.3,.75,3.44,.69,2.71,1.75,5.31,2.17,8.1,.25,1.69,.83,3.32,1.35,5.3,1.18-1.92,1.84-3.64,2.32-5.42Zm10.45-12.69c-1.85-.03-3.7,.09-5.55-.2-.87-.13-1.35,.28-1.53,1.16-.36,1.81-.84,3.6-1.17,5.42-.69,3.82-1.67,7.54-3.22,11.11-.17,.39-.52,.78-.19,1.26,.36-.02,.62-.23,.89-.43,1.83-1.34,3.13-3.21,4.65-4.85,1.92-2.07,3.33-4.5,4.63-6.97,.88-1.68,1.93-3.3,2.49-5.14,.38-1.23,.31-1.33-1-1.36Zm1.48-1.03c-.4-1.77-1.16-3.28-2.12-5.1-.75,1.88-.7,3.5-.9,5.14,1.01,.18,1.94,.13,3.02-.04Z"/>
          </g>
          <g>
            <g>
              <path class="cls-3" d="M130.77,1.82c-.86-.02-1.73,.04-2.59-.09-.4-.06-.63,.13-.71,.54-.17,.84-.39,1.68-.55,2.53-.32,1.78-.78,3.52-1.5,5.18-.08,.18-.24,.36-.09,.59,.17,0,.29-.11,.41-.2,.86-.63,1.46-1.5,2.17-2.26,.89-.97,1.56-2.1,2.16-3.25,.41-.79,.9-1.54,1.16-2.4,.18-.57,.15-.62-.47-.63Z"/>
              <path class="cls-3" d="M123.45,6.11c-.37-1.25-.77-2.5-.97-3.8-.07-.43-.23-.49-.58-.49-1.1,0-2.19,0-3.4,0,.5,1.64,1.64,2.85,2.38,4.28,.78,1.51,1.92,2.8,3.05,4.07,.11,.12,.2,.33,.45,.27,.08-.4-.13-.76-.2-1.13-.2-1.08-.41-2.16-.72-3.21Z"/>
            </g>
            <path class="cls-4" d="M126.82,4.01c.14-.61,.25-1.23,.34-1.85,.06-.43-.03-.53-.47-.47-1.12,.17-2.24,.09-3.37,.14-.45,.02-.57,.14-.5,.57,.08,.54,.22,1.07,.35,1.61,.32,1.26,.82,2.48,1.01,3.78,.12,.79,.39,1.55,.63,2.47,.55-.9,.86-1.7,1.08-2.53,.33-1.23,.63-2.48,.92-3.72Z"/>
            <g>
              <path class="cls-4" d="M123.46,1.38c.27,.32,.78,.06,1.19,.09,.05,0,.1,0,.15-.02,.15-.04,.22-.15,.17-.29-.26-.73-.34-1.51-.68-2.24-.27,.46-.43,.92-.57,1.39-.11,.36-.52,.75-.26,1.07Z"/>
              <path class="cls-4" d="M125.72,1.51c.42-.18,.84-.07,1.29-.22-.24-.61-.46-1.18-.69-1.76-.36,.61-.7,1.19-.6,1.98Z"/>
              <path class="cls-4" d="M129.39,1.33c-.34-.84-.5-1.68-1.06-2.33-.08,.03-.12,.04-.12,.06-.08,.3-.17,.6-.23,.9-.31,1.51-.25,1.58,1.41,1.37Z"/>
              <path class="cls-4" d="M130.05,1.35c.47,.08,.9,.06,1.41-.02-.19-.82-.54-1.53-.99-2.38-.35,.88-.33,1.63-.42,2.4Z"/>
              <path class="cls-4" d="M120.65,1.45c-.4-.95-.65-1.85-1.12-2.67-.1,.06-.16,.08-.19,.12-.41,.6-.52,1.34-.95,1.94-.2,.28,.04,.49,.33,.55,.61,.14,1.22,.12,1.93,.06Z"/>
              <path class="cls-4" d="M121.73,1.47c.16,.01,.31,.02,.47,.03,.31,.03,.47-.09,.39-.4-.16-.66-.09-1.36-.4-2.09-.51,.5-.61,1.15-.94,1.67-.37,.57-.23,.73,.48,.79Z"/>
            </g>
            <g>
              <path class="cls-3" d="M125.18,.86c.53-.68,.61-1.4,.72-2.11,.03-.18-.1-.29-.28-.3-.18-.01-.37-.02-.55,0-.34,.01-.46,.17-.37,.51,.16,.6,.3,1.21,.47,1.91Z"/>
              <path class="cls-3" d="M129.89-.26q.24-1.41-1.19-1.36s-.05,.02-.22,.09c.55,.67,.66,1.52,1.16,2.21,.25-.31,.2-.64,.25-.95Z"/>
              <path class="cls-3" d="M127.39,.88c.06-.67,.38-1.26,.42-1.92,0-.15,.06-.32-.05-.45-.08-.09-.87-.12-.99-.02-.22,.16-.26,.41-.19,.63,.18,.62,.38,1.23,.81,1.76Z"/>
              <path class="cls-3" d="M123.11,.85c.45-.77,.63-1.56,.84-2.38-.52-.14-.97-.13-1.46-.04,.09,.44,.15,.85,.27,1.24,.11,.37-.06,.82,.35,1.17Z"/>
              <path class="cls-3" d="M121.92-1.58c-.72-.09-1.37-.11-2.08,0,.29,.78,.54,1.51,.96,2.24,.56-.69,.83-1.44,1.12-2.24Z"/>
            </g>
            <path d="M131.67,.64c.1,.24,.23,.47,.22,.75-.05,.61-.26,1.18-.54,1.71-.75,1.37-1.35,2.83-2.3,4.09-.95,1.25-1.89,2.5-3.12,3.49-.22,.18-.46,.35-.71,.47-.53,.27-.61,.2-1.06-.22-1.03-.98-1.81-2.15-2.71-3.24-.42-.51-.71-1.1-1.03-1.66-.5-.86-.98-1.72-1.54-2.54-.37-.54-.61-1.14-.83-1.76-.17-.49-.11-.93,.11-1.33,.32-.57,.58-1.17,.89-1.74,.22-.4,.5-.59,.99-.59,1.75,0,3.5,.05,5.25,.08,1.49,.03,2.98-.02,4.46-.09,.58-.03,.9,.14,1.1,.71,.22,.64,.56,1.24,.82,1.86Zm-3.19-2.16c.55,.67,.66,1.52,1.16,2.21,.25-.31,.2-.64,.25-.95q.24-1.41-1.19-1.36s-.05,.02-.22,.09Zm-.5,1.48c-.31,1.51-.25,1.58,1.41,1.37-.34-.84-.5-1.68-1.06-2.33-.08,.03-.12,.04-.12,.06-.08,.3-.17,.6-.23,.9Zm-1.4-.83c.18,.62,.38,1.23,.81,1.76,.06-.67,.38-1.26,.42-1.92,0-.15,.06-.32-.05-.45-.08-.09-.87-.12-.99-.02-.22,.16-.26,.41-.19,.63Zm-.26,.41c-.36,.61-.7,1.19-.6,1.98,.42-.18,.84-.07,1.29-.22-.24-.61-.46-1.18-.69-1.76Zm-1.61-.58c.16,.6,.3,1.21,.47,1.91,.53-.68,.61-1.4,.72-2.11,.03-.18-.1-.29-.28-.3-.18-.01-.37-.02-.55,0-.34,.01-.46,.17-.37,.51Zm-.42-.03c-.27,.46-.43,.92-.57,1.39-.11,.36-.52,.75-.26,1.07,.27,.32,.78,.06,1.19,.09,.05,0,.1,0,.15-.02,.15-.04,.22-.15,.17-.29-.26-.73-.34-1.51-.68-2.24Zm-1.8-.49c.09,.44,.15,.85,.27,1.24,.11,.37-.06,.82,.35,1.17,.45-.77,.63-1.56,.84-2.38-.52-.14-.97-.13-1.46-.04Zm-.29,.58c-.51,.5-.61,1.15-.94,1.67-.37,.57-.23,.73,.48,.79,.16,.01,.31,.02,.47,.03,.31,.03,.47-.09,.39-.4-.16-.66-.09-1.36-.4-2.09Zm-2.36-.59c.29,.78,.54,1.51,.96,2.24,.56-.69,.83-1.44,1.12-2.24-.72-.09-1.37-.11-2.08,0Zm-1.11,2.97c.61,.14,1.22,.12,1.93,.06-.4-.95-.65-1.85-1.12-2.67-.1,.06-.16,.08-.19,.12-.41,.6-.52,1.34-.95,1.94-.2,.28,.04,.49,.33,.55Zm5.44,7.93c-.2-1.08-.41-2.16-.72-3.21-.37-1.25-.77-2.5-.97-3.8-.07-.43-.23-.49-.58-.49-1.1,0-2.19,0-3.4,0,.5,1.64,1.64,2.85,2.38,4.28,.78,1.51,1.92,2.8,3.05,4.07,.11,.12,.2,.33,.45,.27,.08-.4-.13-.76-.2-1.13Zm1.73-1.58c.33-1.23,.63-2.48,.92-3.72,.14-.61,.25-1.23,.34-1.85,.06-.43-.03-.53-.47-.47-1.12,.17-2.24,.09-3.37,.14-.45,.02-.57,.14-.5,.57,.08,.54,.22,1.07,.35,1.61,.32,1.26,.82,2.48,1.01,3.78,.12,.79,.39,1.55,.63,2.47,.55-.9,.86-1.7,1.08-2.53Zm4.87-5.92c-.86-.02-1.73,.04-2.59-.09-.4-.06-.63,.13-.71,.54-.17,.84-.39,1.68-.55,2.53-.32,1.78-.78,3.52-1.5,5.18-.08,.18-.24,.36-.09,.59,.17,0,.29-.11,.41-.2,.86-.63,1.46-1.5,2.17-2.26,.89-.97,1.56-2.1,2.16-3.25,.41-.79,.9-1.54,1.16-2.4,.18-.57,.15-.62-.47-.63Zm.69-.48c-.19-.82-.54-1.53-.99-2.38-.35,.88-.33,1.63-.42,2.4,.47,.08,.9,.06,1.41-.02Z"/>
          </g>
          <g>
            <g>
              <path class="cls-3" d="M160.26,36.7c-1.3-.02-2.6,.06-3.89-.14-.61-.09-.95,.2-1.07,.81-.26,1.27-.59,2.52-.82,3.8-.48,2.67-1.17,5.29-2.25,7.78-.12,.27-.36,.55-.13,.88,.25-.01,.43-.16,.62-.3,1.29-.94,2.19-2.25,3.26-3.4,1.34-1.45,2.34-3.15,3.25-4.89,.62-1.18,1.35-2.31,1.75-3.6,.26-.86,.22-.94-.7-.95Z"/>
              <path class="cls-3" d="M149.26,43.15c-.56-1.88-1.16-3.76-1.46-5.7-.1-.65-.34-.74-.87-.74-1.65,.01-3.29,0-5.11,0,.75,2.46,2.46,4.28,3.57,6.43,1.17,2.27,2.89,4.2,4.59,6.11,.16,.18,.3,.49,.67,.41,.12-.6-.2-1.14-.3-1.7-.31-1.62-.62-3.24-1.08-4.82Z"/>
            </g>
            <path class="cls-4" d="M154.32,40c.21-.92,.38-1.85,.51-2.78,.09-.64-.05-.8-.7-.7-1.68,.25-3.37,.14-5.06,.21-.67,.03-.85,.21-.75,.86,.12,.82,.32,1.61,.53,2.41,.48,1.9,1.23,3.72,1.52,5.68,.18,1.18,.58,2.33,.94,3.71,.82-1.35,1.29-2.55,1.63-3.8,.5-1.85,.95-3.72,1.38-5.59Z"/>
            <g>
              <path class="cls-4" d="M149.27,36.05c.4,.48,1.17,.1,1.78,.14,.08,0,.16,0,.23-.03,.23-.06,.33-.23,.25-.44-.39-1.09-.52-2.27-1.02-3.37-.4,.69-.65,1.38-.86,2.09-.16,.54-.78,1.13-.39,1.61Z"/>
              <path class="cls-4" d="M152.67,36.25c.64-.27,1.27-.11,1.94-.33-.36-.91-.69-1.78-1.03-2.64-.54,.92-1.06,1.79-.9,2.98Z"/>
              <path class="cls-4" d="M158.18,35.97c-.51-1.26-.75-2.52-1.59-3.5-.12,.05-.18,.06-.19,.08-.12,.45-.25,.9-.34,1.35-.47,2.27-.37,2.37,2.12,2.06Z"/>
              <path class="cls-4" d="M159.18,36.01c.71,.12,1.36,.09,2.12-.03-.28-1.24-.82-2.3-1.49-3.58-.53,1.32-.49,2.45-.63,3.6Z"/>
              <path class="cls-4" d="M145.07,36.16c-.6-1.43-.98-2.78-1.69-4.01-.16,.09-.25,.12-.28,.17-.61,.9-.78,2.01-1.42,2.92-.3,.42,.06,.73,.5,.83,.91,.2,1.83,.18,2.89,.09Z"/>
              <path class="cls-4" d="M146.68,36.18c.23,.02,.47,.03,.71,.05,.46,.05,.7-.14,.59-.61-.24-.99-.13-2.04-.6-3.14-.77,.75-.92,1.73-1.42,2.51-.55,.85-.35,1.1,.72,1.19Z"/>
            </g>
            <g>
              <path class="cls-3" d="M151.86,35.26c.79-1.02,.92-2.1,1.09-3.17,.04-.27-.15-.44-.42-.45-.27-.02-.55-.02-.82-.01-.51,.02-.69,.26-.55,.77,.24,.9,.45,1.82,.71,2.87Z"/>
              <path class="cls-3" d="M158.93,33.58q.36-2.12-1.78-2.04s-.07,.03-.33,.14c.83,1.01,1,2.28,1.74,3.32,.38-.47,.3-.97,.37-1.42Z"/>
              <path class="cls-3" d="M155.19,35.3c.09-1,.58-1.9,.63-2.88,.01-.23,.1-.47-.08-.67-.12-.14-1.3-.17-1.49-.04-.33,.24-.38,.61-.29,.95,.27,.93,.57,1.85,1.22,2.64Z"/>
              <path class="cls-3" d="M148.75,35.25c.68-1.15,.94-2.35,1.26-3.57-.78-.22-1.46-.19-2.19-.06,.14,.66,.23,1.28,.41,1.87,.17,.55-.1,1.24,.53,1.76Z"/>
              <path class="cls-3" d="M146.97,31.6c-1.07-.14-2.06-.16-3.13,0,.43,1.17,.82,2.27,1.45,3.37,.84-1.04,1.25-2.16,1.68-3.37Z"/>
            </g>
            <path d="M161.61,34.93c.15,.36,.35,.71,.33,1.12-.08,.92-.39,1.78-.82,2.56-1.12,2.06-2.03,4.26-3.46,6.14-1.42,1.87-2.85,3.75-4.69,5.25-.33,.27-.69,.52-1.07,.71-.8,.41-.92,.3-1.59-.33-1.55-1.47-2.72-3.23-4.07-4.86-.63-.76-1.06-1.65-1.55-2.5-.75-1.29-1.47-2.59-2.32-3.82-.56-.8-.92-1.72-1.25-2.65-.26-.73-.16-1.4,.17-2,.47-.86,.87-1.75,1.33-2.61,.32-.6,.75-.88,1.49-.88,2.63,.01,5.26,.07,7.89,.13,2.23,.05,4.47-.03,6.71-.13,.88-.04,1.35,.22,1.64,1.07,.33,.96,.84,1.86,1.23,2.8Zm-4.79-3.25c.83,1.01,1,2.28,1.74,3.32,.38-.47,.3-.97,.37-1.42q.36-2.12-1.78-2.04s-.07,.03-.33,.14Zm-.76,2.22c-.47,2.27-.37,2.37,2.12,2.06-.51-1.26-.75-2.52-1.59-3.5-.12,.05-.18,.06-.19,.08-.12,.45-.25,.9-.34,1.35Zm-2.1-1.25c.27,.93,.57,1.85,1.22,2.64,.09-1,.58-1.9,.63-2.88,.01-.23,.1-.47-.08-.67-.12-.14-1.3-.17-1.49-.04-.33,.24-.38,.61-.29,.95Zm-.39,.62c-.54,.92-1.06,1.79-.9,2.98,.64-.27,1.27-.11,1.94-.33-.36-.91-.69-1.78-1.03-2.64Zm-2.42-.87c.24,.9,.45,1.82,.71,2.87,.79-1.02,.92-2.1,1.09-3.17,.04-.27-.15-.44-.42-.45-.27-.02-.55-.02-.82-.01-.51,.02-.69,.26-.55,.77Zm-.63-.05c-.4,.69-.65,1.38-.86,2.09-.16,.54-.78,1.13-.39,1.61,.4,.48,1.17,.1,1.78,.14,.08,0,.16,0,.23-.03,.23-.06,.33-.23,.25-.44-.39-1.09-.52-2.27-1.02-3.37Zm-2.71-.73c.14,.66,.23,1.28,.41,1.87,.17,.55-.1,1.24,.53,1.76,.68-1.15,.94-2.35,1.26-3.57-.78-.22-1.46-.19-2.19-.06Zm-.43,.86c-.77,.75-.92,1.73-1.42,2.51-.55,.85-.35,1.1,.72,1.19,.23,.02,.47,.03,.71,.05,.46,.05,.7-.14,.59-.61-.24-.99-.13-2.04-.6-3.14Zm-3.54-.88c.43,1.17,.82,2.27,1.45,3.37,.84-1.04,1.25-2.16,1.68-3.37-1.07-.14-2.06-.16-3.13,0Zm-1.67,4.46c.91,.2,1.83,.18,2.89,.09-.6-1.43-.98-2.78-1.69-4.01-.16,.09-.25,.12-.28,.17-.61,.9-.78,2.01-1.42,2.92-.3,.42,.06,.73,.5,.83Zm8.17,11.9c-.31-1.62-.62-3.24-1.08-4.82-.56-1.88-1.16-3.76-1.46-5.7-.1-.65-.34-.74-.87-.74-1.65,.01-3.29,0-5.11,0,.75,2.46,2.46,4.28,3.57,6.43,1.17,2.27,2.89,4.2,4.59,6.11,.16,.18,.3,.49,.67,.41,.12-.6-.2-1.14-.3-1.7Zm2.6-2.37c.5-1.85,.95-3.72,1.38-5.59,.21-.92,.38-1.85,.51-2.78,.09-.64-.05-.8-.7-.7-1.68,.25-3.37,.14-5.06,.21-.67,.03-.85,.21-.75,.86,.12,.82,.32,1.61,.53,2.41,.48,1.9,1.23,3.72,1.52,5.68,.18,1.18,.58,2.33,.94,3.71,.82-1.35,1.29-2.55,1.63-3.8Zm7.32-8.89c-1.3-.02-2.6,.06-3.89-.14-.61-.09-.95,.2-1.07,.81-.26,1.27-.59,2.52-.82,3.8-.48,2.67-1.17,5.29-2.25,7.78-.12,.27-.36,.55-.13,.88,.25-.01,.43-.16,.62-.3,1.29-.94,2.19-2.25,3.26-3.4,1.34-1.45,2.34-3.15,3.25-4.89,.62-1.18,1.35-2.31,1.75-3.6,.26-.86,.22-.94-.7-.95Zm1.04-.72c-.28-1.24-.82-2.3-1.49-3.58-.53,1.32-.49,2.45-.63,3.6,.71,.12,1.36,.09,2.12-.03Z"/>
          </g>
        </g>
        <g>
          <g>
            <g>
              <path class="cls-3" d="M95.54,15.11c-1.85-.03-3.7,.09-5.55-.2-.87-.13-1.35,.28-1.53,1.16-.36,1.81-.84,3.6-1.17,5.42-.69,3.82-1.67,7.54-3.22,11.11-.17,.39-.52,.78-.19,1.26,.36-.02,.62-.23,.89-.43,1.83-1.34,3.13-3.21,4.65-4.85,1.92-2.07,3.33-4.5,4.63-6.97,.88-1.68,1.93-3.3,2.49-5.14,.38-1.23,.31-1.33-1-1.36Z"/>
              <path class="cls-3" d="M79.84,24.31c-.8-2.69-1.66-5.37-2.09-8.14-.14-.93-.49-1.06-1.24-1.05-2.35,.02-4.7,0-7.29,0,1.07,3.51,3.51,6.11,5.1,9.17,1.68,3.24,4.12,6,6.55,8.72,.23,.26,.42,.7,.96,.59,.17-.86-.28-1.63-.43-2.43-.44-2.31-.88-4.63-1.55-6.87Z"/>
            </g>
            <path class="cls-4" d="M87.06,19.82c.3-1.31,.54-2.63,.73-3.96,.13-.92-.07-1.15-1-1.01-2.4,.36-4.81,.2-7.22,.29-.96,.04-1.21,.31-1.08,1.23,.17,1.16,.46,2.3,.75,3.44,.69,2.71,1.75,5.31,2.17,8.1,.25,1.69,.83,3.32,1.35,5.3,1.18-1.92,1.84-3.64,2.32-5.42,.72-2.64,1.35-5.31,1.97-7.98Z"/>
            <g>
              <path class="cls-4" d="M79.86,14.18c.57,.69,1.68,.14,2.54,.2,.11,0,.22-.01,.33-.04,.32-.09,.46-.33,.36-.63-.56-1.56-.74-3.24-1.45-4.81-.57,.99-.93,1.97-1.23,2.98-.23,.78-1.12,1.61-.55,2.3Z"/>
              <path class="cls-4" d="M84.71,14.46c.91-.38,1.81-.15,2.76-.48-.51-1.3-.99-2.54-1.47-3.77-.77,1.32-1.51,2.55-1.29,4.25Z"/>
              <path class="cls-4" d="M92.58,14.07c-.73-1.8-1.08-3.59-2.27-4.99-.17,.07-.26,.09-.27,.12-.17,.64-.35,1.28-.49,1.93-.67,3.24-.53,3.38,3.03,2.95Z"/>
              <path class="cls-4" d="M94,14.12c1.01,.18,1.94,.13,3.02-.04-.4-1.77-1.16-3.28-2.12-5.1-.75,1.88-.7,3.5-.9,5.14Z"/>
              <path class="cls-4" d="M73.85,14.33c-.85-2.04-1.4-3.97-2.41-5.73-.22,.13-.35,.17-.41,.25-.88,1.29-1.11,2.87-2.03,4.16-.42,.59,.08,1.04,.71,1.18,1.3,.29,2.61,.26,4.13,.13Z"/>
              <path class="cls-4" d="M76.16,14.37c.34,.03,.67,.04,1.01,.07,.65,.07,1-.2,.84-.86-.34-1.42-.18-2.92-.85-4.49-1.09,1.07-1.31,2.47-2.03,3.58-.79,1.22-.5,1.57,1.03,1.69Z"/>
            </g>
            <g>
              <path class="cls-3" d="M83.55,13.06c1.13-1.45,1.32-3,1.55-4.52,.06-.39-.21-.62-.6-.65-.39-.02-.78-.03-1.17-.02-.73,.02-.98,.37-.79,1.1,.34,1.29,.64,2.59,1.01,4.09Z"/>
              <path class="cls-3" d="M93.64,10.65q.51-3.03-2.54-2.91c-.05,0-.1,.04-.47,.2,1.19,1.44,1.42,3.26,2.48,4.74,.54-.67,.42-1.38,.53-2.03Z"/>
              <path class="cls-3" d="M88.3,13.11c.13-1.43,.82-2.71,.9-4.11,.02-.33,.14-.68-.11-.96-.17-.2-1.86-.25-2.13-.05-.47,.34-.55,.87-.41,1.35,.38,1.32,.81,2.63,1.75,3.77Z"/>
              <path class="cls-3" d="M79.11,13.05c.97-1.64,1.34-3.35,1.8-5.1-1.11-.31-2.08-.27-3.13-.08,.2,.94,.32,1.82,.58,2.67,.24,.79-.14,1.76,.75,2.52Z"/>
              <path class="cls-3" d="M76.57,7.83c-1.53-.2-2.93-.23-4.47,0,.61,1.67,1.16,3.24,2.07,4.8,1.21-1.49,1.79-3.08,2.4-4.8Z"/>
            </g>
            <path d="M97.47,12.59c.21,.51,.5,1.01,.48,1.6-.11,1.31-.55,2.53-1.16,3.66-1.6,2.94-2.89,6.07-4.93,8.76-2.03,2.67-4.06,5.36-6.69,7.49-.47,.38-.98,.74-1.52,1.02-1.14,.58-1.32,.43-2.27-.47-2.21-2.09-3.89-4.61-5.8-6.94-.9-1.09-1.51-2.35-2.21-3.56-1.06-1.84-2.09-3.69-3.31-5.44-.8-1.15-1.31-2.45-1.78-3.78-.37-1.05-.23-2,.25-2.85,.68-1.22,1.24-2.5,1.9-3.73,.46-.86,1.07-1.26,2.13-1.25,3.75,.02,7.5,.1,11.25,.18,3.19,.06,6.38-.04,9.57-.18,1.25-.06,1.93,.31,2.35,1.53,.47,1.37,1.2,2.65,1.76,3.99Zm-6.84-4.64c1.19,1.44,1.42,3.26,2.48,4.74,.54-.67,.42-1.38,.53-2.03q.51-3.03-2.54-2.91c-.05,0-.1,.04-.47,.2Zm-1.08,3.17c-.67,3.24-.53,3.38,3.03,2.95-.73-1.8-1.08-3.59-2.27-4.99-.17,.07-.26,.09-.27,.12-.17,.64-.35,1.28-.49,1.93Zm-3-1.79c.38,1.32,.81,2.63,1.75,3.77,.13-1.43,.82-2.71,.9-4.11,.02-.33,.14-.68-.11-.96-.17-.2-1.86-.25-2.13-.05-.47,.34-.55,.87-.41,1.35Zm-.56,.88c-.77,1.32-1.51,2.55-1.29,4.25,.91-.38,1.81-.15,2.76-.48-.51-1.3-.99-2.54-1.47-3.77Zm-3.45-1.25c.34,1.29,.64,2.59,1.01,4.09,1.13-1.45,1.32-3,1.55-4.52,.06-.39-.21-.62-.6-.65-.39-.02-.78-.03-1.17-.02-.73,.02-.98,.37-.79,1.1Zm-.91-.07c-.57,.99-.93,1.97-1.23,2.98-.23,.78-1.12,1.61-.55,2.3,.57,.69,1.68,.14,2.54,.2,.11,0,.22-.01,.33-.04,.32-.09,.46-.33,.36-.63-.56-1.56-.74-3.24-1.45-4.81Zm-3.86-1.04c.2,.94,.32,1.82,.58,2.67,.24,.79-.14,1.76,.75,2.52,.97-1.64,1.34-3.35,1.8-5.1-1.11-.31-2.08-.27-3.13-.08Zm-.62,1.23c-1.09,1.07-1.31,2.47-2.03,3.58-.79,1.22-.5,1.57,1.03,1.69,.34,.03,.67,.04,1.01,.07,.65,.07,1-.2,.84-.86-.34-1.42-.18-2.92-.85-4.49Zm-5.05-1.26c.61,1.67,1.16,3.24,2.07,4.8,1.21-1.49,1.79-3.08,2.4-4.8-1.53-.2-2.93-.23-4.47,0Zm-2.38,6.37c1.3,.29,2.61,.26,4.13,.13-.85-2.04-1.4-3.97-2.41-5.73-.22,.13-.35,.17-.41,.25-.88,1.29-1.11,2.87-2.03,4.16-.42,.59,.08,1.04,.71,1.18Zm11.66,16.99c-.44-2.31-.88-4.63-1.55-6.87-.8-2.69-1.66-5.37-2.09-8.14-.14-.93-.49-1.06-1.24-1.05-2.35,.02-4.7,0-7.29,0,1.07,3.51,3.51,6.11,5.1,9.17,1.68,3.24,4.12,6,6.55,8.72,.23,.26,.42,.7,.96,.59,.17-.86-.28-1.63-.43-2.43Zm3.71-3.38c.72-2.64,1.35-5.31,1.97-7.98,.3-1.31,.54-2.63,.73-3.96,.13-.92-.07-1.15-1-1.01-2.4,.36-4.81,.2-7.22,.29-.96,.04-1.21,.31-1.08,1.23,.17,1.16,.46,2.3,.75,3.44,.69,2.71,1.75,5.31,2.17,8.1,.25,1.69,.83,3.32,1.35,5.3,1.18-1.92,1.84-3.64,2.32-5.42Zm10.45-12.69c-1.85-.03-3.7,.09-5.55-.2-.87-.13-1.35,.28-1.53,1.16-.36,1.81-.84,3.6-1.17,5.42-.69,3.82-1.67,7.54-3.22,11.11-.17,.39-.52,.78-.19,1.26,.36-.02,.62-.23,.89-.43,1.83-1.34,3.13-3.21,4.65-4.85,1.92-2.07,3.33-4.5,4.63-6.97,.88-1.68,1.93-3.3,2.49-5.14,.38-1.23,.31-1.33-1-1.36Zm1.48-1.03c-.4-1.77-1.16-3.28-2.12-5.1-.75,1.88-.7,3.5-.9,5.14,1.01,.18,1.94,.13,3.02-.04Z"/>
          </g>
          <g>
            <g>
              <path class="cls-3" d="M22.83,1.82c-.86-.02-1.73,.04-2.59-.09-.4-.06-.63,.13-.71,.54-.17,.84-.39,1.68-.55,2.53-.32,1.78-.78,3.52-1.5,5.18-.08,.18-.24,.36-.09,.59,.17,0,.29-.11,.41-.2,.86-.63,1.46-1.5,2.17-2.26,.89-.97,1.56-2.1,2.16-3.25,.41-.79,.9-1.54,1.16-2.4,.18-.57,.15-.62-.47-.63Z"/>
              <path class="cls-3" d="M15.5,6.11c-.37-1.25-.77-2.5-.97-3.8-.07-.43-.23-.49-.58-.49-1.1,0-2.19,0-3.4,0,.5,1.64,1.64,2.85,2.38,4.28,.78,1.51,1.92,2.8,3.05,4.07,.11,.12,.2,.33,.45,.27,.08-.4-.13-.76-.2-1.13-.2-1.08-.41-2.16-.72-3.21Z"/>
            </g>
            <path class="cls-4" d="M18.87,4.01c.14-.61,.25-1.23,.34-1.85,.06-.43-.03-.53-.47-.47-1.12,.17-2.24,.09-3.37,.14-.45,.02-.57,.14-.5,.57,.08,.54,.22,1.07,.35,1.61,.32,1.26,.82,2.48,1.01,3.78,.12,.79,.39,1.55,.63,2.47,.55-.9,.86-1.7,1.08-2.53,.33-1.23,.63-2.48,.92-3.72Z"/>
            <g>
              <path class="cls-4" d="M15.51,1.38c.27,.32,.78,.06,1.19,.09,.05,0,.1,0,.15-.02,.15-.04,.22-.15,.17-.29-.26-.73-.34-1.51-.68-2.24-.27,.46-.43,.92-.57,1.39-.11,.36-.52,.75-.26,1.07Z"/>
              <path class="cls-4" d="M17.77,1.51c.42-.18,.84-.07,1.29-.22-.24-.61-.46-1.18-.69-1.76-.36,.61-.7,1.19-.6,1.98Z"/>
              <path class="cls-4" d="M21.44,1.33c-.34-.84-.5-1.68-1.06-2.33-.08,.03-.12,.04-.12,.06-.08,.3-.17,.6-.23,.9-.31,1.51-.25,1.58,1.41,1.37Z"/>
              <path class="cls-4" d="M22.1,1.35c.47,.08,.9,.06,1.41-.02-.19-.82-.54-1.53-.99-2.38-.35,.88-.33,1.63-.42,2.4Z"/>
              <path class="cls-4" d="M12.71,1.45c-.4-.95-.65-1.85-1.12-2.67-.1,.06-.16,.08-.19,.12-.41,.6-.52,1.34-.95,1.94-.2,.28,.04,.49,.33,.55,.61,.14,1.22,.12,1.93,.06Z"/>
              <path class="cls-4" d="M13.78,1.47c.16,.01,.31,.02,.47,.03,.31,.03,.47-.09,.39-.4-.16-.66-.09-1.36-.4-2.09-.51,.5-.61,1.15-.94,1.67-.37,.57-.23,.73,.48,.79Z"/>
            </g>
            <g>
              <path class="cls-3" d="M17.23,.86c.53-.68,.61-1.4,.72-2.11,.03-.18-.1-.29-.28-.3-.18-.01-.37-.02-.55,0-.34,.01-.46,.17-.37,.51,.16,.6,.3,1.21,.47,1.91Z"/>
              <path class="cls-3" d="M21.94-.26q.24-1.41-1.19-1.36s-.05,.02-.22,.09c.55,.67,.66,1.52,1.16,2.21,.25-.31,.2-.64,.25-.95Z"/>
              <path class="cls-3" d="M19.45,.88c.06-.67,.38-1.26,.42-1.92,0-.15,.06-.32-.05-.45-.08-.09-.87-.12-.99-.02-.22,.16-.26,.41-.19,.63,.18,.62,.38,1.23,.81,1.76Z"/>
              <path class="cls-3" d="M15.16,.85c.45-.77,.63-1.56,.84-2.38-.52-.14-.97-.13-1.46-.04,.09,.44,.15,.85,.27,1.24,.11,.37-.06,.82,.35,1.17Z"/>
              <path class="cls-3" d="M13.97-1.58c-.72-.09-1.37-.11-2.08,0,.29,.78,.54,1.51,.96,2.24,.56-.69,.83-1.44,1.12-2.24Z"/>
            </g>
            <path d="M23.72,.64c.1,.24,.23,.47,.22,.75-.05,.61-.26,1.18-.54,1.71-.75,1.37-1.35,2.83-2.3,4.09-.95,1.25-1.89,2.5-3.12,3.49-.22,.18-.46,.35-.71,.47-.53,.27-.61,.2-1.06-.22-1.03-.98-1.81-2.15-2.71-3.24-.42-.51-.71-1.1-1.03-1.66-.5-.86-.98-1.72-1.54-2.54-.37-.54-.61-1.14-.83-1.76-.17-.49-.11-.93,.11-1.33,.32-.57,.58-1.17,.89-1.74,.22-.4,.5-.59,.99-.59,1.75,0,3.5,.05,5.25,.08,1.49,.03,2.98-.02,4.46-.09,.58-.03,.9,.14,1.1,.71,.22,.64,.56,1.24,.82,1.86Zm-3.19-2.16c.55,.67,.66,1.52,1.16,2.21,.25-.31,.2-.64,.25-.95q.24-1.41-1.19-1.36s-.05,.02-.22,.09ZM20.03-.05c-.31,1.51-.25,1.58,1.41,1.37-.34-.84-.5-1.68-1.06-2.33-.08,.03-.12,.04-.12,.06-.08,.3-.17,.6-.23,.9Zm-1.4-.83c.18,.62,.38,1.23,.81,1.76,.06-.67,.38-1.26,.42-1.92,0-.15,.06-.32-.05-.45-.08-.09-.87-.12-.99-.02-.22,.16-.26,.41-.19,.63Zm-.26,.41c-.36,.61-.7,1.19-.6,1.98,.42-.18,.84-.07,1.29-.22-.24-.61-.46-1.18-.69-1.76Zm-1.61-.58c.16,.6,.3,1.21,.47,1.91,.53-.68,.61-1.4,.72-2.11,.03-.18-.1-.29-.28-.3-.18-.01-.37-.02-.55,0-.34,.01-.46,.17-.37,.51Zm-.42-.03c-.27,.46-.43,.92-.57,1.39-.11,.36-.52,.75-.26,1.07,.27,.32,.78,.06,1.19,.09,.05,0,.1,0,.15-.02,.15-.04,.22-.15,.17-.29-.26-.73-.34-1.51-.68-2.24Zm-1.8-.49c.09,.44,.15,.85,.27,1.24,.11,.37-.06,.82,.35,1.17,.45-.77,.63-1.56,.84-2.38-.52-.14-.97-.13-1.46-.04Zm-.29,.58c-.51,.5-.61,1.15-.94,1.67-.37,.57-.23,.73,.48,.79,.16,.01,.31,.02,.47,.03,.31,.03,.47-.09,.39-.4-.16-.66-.09-1.36-.4-2.09Zm-2.36-.59c.29,.78,.54,1.51,.96,2.24,.56-.69,.83-1.44,1.12-2.24-.72-.09-1.37-.11-2.08,0Zm-1.11,2.97c.61,.14,1.22,.12,1.93,.06-.4-.95-.65-1.85-1.12-2.67-.1,.06-.16,.08-.19,.12-.41,.6-.52,1.34-.95,1.94-.2,.28,.04,.49,.33,.55Zm5.44,7.93c-.2-1.08-.41-2.16-.72-3.21-.37-1.25-.77-2.5-.97-3.8-.07-.43-.23-.49-.58-.49-1.1,0-2.19,0-3.4,0,.5,1.64,1.64,2.85,2.38,4.28,.78,1.51,1.92,2.8,3.05,4.07,.11,.12,.2,.33,.45,.27,.08-.4-.13-.76-.2-1.13Zm1.73-1.58c.33-1.23,.63-2.48,.92-3.72,.14-.61,.25-1.23,.34-1.85,.06-.43-.03-.53-.47-.47-1.12,.17-2.24,.09-3.37,.14-.45,.02-.57,.14-.5,.57,.08,.54,.22,1.07,.35,1.61,.32,1.26,.82,2.48,1.01,3.78,.12,.79,.39,1.55,.63,2.47,.55-.9,.86-1.7,1.08-2.53ZM22.83,1.82c-.86-.02-1.73,.04-2.59-.09-.4-.06-.63,.13-.71,.54-.17,.84-.39,1.68-.55,2.53-.32,1.78-.78,3.52-1.5,5.18-.08,.18-.24,.36-.09,.59,.17,0,.29-.11,.41-.2,.86-.63,1.46-1.5,2.17-2.26,.89-.97,1.56-2.1,2.16-3.25,.41-.79,.9-1.54,1.16-2.4,.18-.57,.15-.62-.47-.63Zm.69-.48c-.19-.82-.54-1.53-.99-2.38-.35,.88-.33,1.63-.42,2.4,.47,.08,.9,.06,1.41-.02Z"/>
          </g>
          <g>
            <g>
              <path class="cls-3" d="M52.31,36.7c-1.3-.02-2.6,.06-3.89-.14-.61-.09-.95,.2-1.07,.81-.26,1.27-.59,2.52-.82,3.8-.48,2.67-1.17,5.29-2.25,7.78-.12,.27-.36,.55-.13,.88,.25-.01,.43-.16,.62-.3,1.29-.94,2.19-2.25,3.26-3.4,1.34-1.45,2.34-3.15,3.25-4.89,.62-1.18,1.35-2.31,1.75-3.6,.26-.86,.22-.94-.7-.95Z"/>
              <path class="cls-3" d="M41.31,43.15c-.56-1.88-1.16-3.76-1.46-5.7-.1-.65-.34-.74-.87-.74-1.65,.01-3.29,0-5.11,0,.75,2.46,2.46,4.28,3.57,6.43,1.17,2.27,2.89,4.2,4.59,6.11,.16,.18,.3,.49,.67,.41,.12-.6-.2-1.14-.3-1.7-.31-1.62-.62-3.24-1.08-4.82Z"/>
            </g>
            <path class="cls-4" d="M46.37,40c.21-.92,.38-1.85,.51-2.78,.09-.64-.05-.8-.7-.7-1.68,.25-3.37,.14-5.06,.21-.67,.03-.85,.21-.75,.86,.12,.82,.32,1.61,.53,2.41,.48,1.9,1.23,3.72,1.52,5.68,.18,1.18,.58,2.33,.94,3.71,.82-1.35,1.29-2.55,1.63-3.8,.5-1.85,.95-3.72,1.38-5.59Z"/>
            <g>
              <path class="cls-4" d="M41.32,36.05c.4,.48,1.17,.1,1.78,.14,.08,0,.16,0,.23-.03,.23-.06,.33-.23,.25-.44-.39-1.09-.52-2.27-1.02-3.37-.4,.69-.65,1.38-.86,2.09-.16,.54-.78,1.13-.39,1.61Z"/>
              <path class="cls-4" d="M44.72,36.25c.64-.27,1.27-.11,1.94-.33-.36-.91-.69-1.78-1.03-2.64-.54,.92-1.06,1.79-.9,2.98Z"/>
              <path class="cls-4" d="M50.24,35.97c-.51-1.26-.75-2.52-1.59-3.5-.12,.05-.18,.06-.19,.08-.12,.45-.25,.9-.34,1.35-.47,2.27-.37,2.37,2.12,2.06Z"/>
              <path class="cls-4" d="M51.23,36.01c.71,.12,1.36,.09,2.12-.03-.28-1.24-.82-2.3-1.49-3.58-.53,1.32-.49,2.45-.63,3.6Z"/>
              <path class="cls-4" d="M37.12,36.16c-.6-1.43-.98-2.78-1.69-4.01-.16,.09-.25,.12-.28,.17-.61,.9-.78,2.01-1.42,2.92-.3,.42,.06,.73,.5,.83,.91,.2,1.83,.18,2.89,.09Z"/>
              <path class="cls-4" d="M38.73,36.18c.23,.02,.47,.03,.71,.05,.46,.05,.7-.14,.59-.61-.24-.99-.13-2.04-.6-3.14-.77,.75-.92,1.73-1.42,2.51-.55,.85-.35,1.1,.72,1.19Z"/>
            </g>
            <g>
              <path class="cls-3" d="M43.91,35.26c.79-1.02,.92-2.1,1.09-3.17,.04-.27-.15-.44-.42-.45-.27-.02-.55-.02-.82-.01-.51,.02-.69,.26-.55,.77,.24,.9,.45,1.82,.71,2.87Z"/>
              <path class="cls-3" d="M50.98,33.58q.36-2.12-1.78-2.04s-.07,.03-.33,.14c.83,1.01,1,2.28,1.74,3.32,.38-.47,.3-.97,.37-1.42Z"/>
              <path class="cls-3" d="M47.24,35.3c.09-1,.58-1.9,.63-2.88,.01-.23,.1-.47-.08-.67-.12-.14-1.3-.17-1.49-.04-.33,.24-.38,.61-.29,.95,.27,.93,.57,1.85,1.22,2.64Z"/>
              <path class="cls-3" d="M40.8,35.25c.68-1.15,.94-2.35,1.26-3.57-.78-.22-1.46-.19-2.19-.06,.14,.66,.23,1.28,.41,1.87,.17,.55-.1,1.24,.53,1.76Z"/>
              <path class="cls-3" d="M39.02,31.6c-1.07-.14-2.06-.16-3.13,0,.43,1.17,.82,2.27,1.45,3.37,.84-1.04,1.25-2.16,1.68-3.37Z"/>
            </g>
            <path d="M53.67,34.93c.15,.36,.35,.71,.33,1.12-.08,.92-.39,1.78-.82,2.56-1.12,2.06-2.03,4.26-3.46,6.14-1.42,1.87-2.85,3.75-4.69,5.25-.33,.27-.69,.52-1.07,.71-.8,.41-.92,.3-1.59-.33-1.55-1.47-2.72-3.23-4.07-4.86-.63-.76-1.06-1.65-1.55-2.5-.75-1.29-1.47-2.59-2.32-3.82-.56-.8-.92-1.72-1.25-2.65-.26-.73-.16-1.4,.17-2,.47-.86,.87-1.75,1.33-2.61,.32-.6,.75-.88,1.49-.88,2.63,.01,5.26,.07,7.89,.13,2.23,.05,4.47-.03,6.71-.13,.88-.04,1.35,.22,1.64,1.07,.33,.96,.84,1.86,1.23,2.8Zm-4.79-3.25c.83,1.01,1,2.28,1.74,3.32,.38-.47,.3-.97,.37-1.42q.36-2.12-1.78-2.04s-.07,.03-.33,.14Zm-.76,2.22c-.47,2.27-.37,2.37,2.12,2.06-.51-1.26-.75-2.52-1.59-3.5-.12,.05-.18,.06-.19,.08-.12,.45-.25,.9-.34,1.35Zm-2.1-1.25c.27,.93,.57,1.85,1.22,2.64,.09-1,.58-1.9,.63-2.88,.01-.23,.1-.47-.08-.67-.12-.14-1.3-.17-1.49-.04-.33,.24-.38,.61-.29,.95Zm-.39,.62c-.54,.92-1.06,1.79-.9,2.98,.64-.27,1.27-.11,1.94-.33-.36-.91-.69-1.78-1.03-2.64Zm-2.42-.87c.24,.9,.45,1.82,.71,2.87,.79-1.02,.92-2.1,1.09-3.17,.04-.27-.15-.44-.42-.45-.27-.02-.55-.02-.82-.01-.51,.02-.69,.26-.55,.77Zm-.63-.05c-.4,.69-.65,1.38-.86,2.09-.16,.54-.78,1.13-.39,1.61,.4,.48,1.17,.1,1.78,.14,.08,0,.16,0,.23-.03,.23-.06,.33-.23,.25-.44-.39-1.09-.52-2.27-1.02-3.37Zm-2.71-.73c.14,.66,.23,1.28,.41,1.87,.17,.55-.1,1.24,.53,1.76,.68-1.15,.94-2.35,1.26-3.57-.78-.22-1.46-.19-2.19-.06Zm-.43,.86c-.77,.75-.92,1.73-1.42,2.51-.55,.85-.35,1.1,.72,1.19,.23,.02,.47,.03,.71,.05,.46,.05,.7-.14,.59-.61-.24-.99-.13-2.04-.6-3.14Zm-3.54-.88c.43,1.17,.82,2.27,1.45,3.37,.84-1.04,1.25-2.16,1.68-3.37-1.07-.14-2.06-.16-3.13,0Zm-1.67,4.46c.91,.2,1.83,.18,2.89,.09-.6-1.43-.98-2.78-1.69-4.01-.16,.09-.25,.12-.28,.17-.61,.9-.78,2.01-1.42,2.92-.3,.42,.06,.73,.5,.83Zm8.17,11.9c-.31-1.62-.62-3.24-1.08-4.82-.56-1.88-1.16-3.76-1.46-5.7-.1-.65-.34-.74-.87-.74-1.65,.01-3.29,0-5.11,0,.75,2.46,2.46,4.28,3.57,6.43,1.17,2.27,2.89,4.2,4.59,6.11,.16,.18,.3,.49,.67,.41,.12-.6-.2-1.14-.3-1.7Zm2.6-2.37c.5-1.85,.95-3.72,1.38-5.59,.21-.92,.38-1.85,.51-2.78,.09-.64-.05-.8-.7-.7-1.68,.25-3.37,.14-5.06,.21-.67,.03-.85,.21-.75,.86,.12,.82,.32,1.61,.53,2.41,.48,1.9,1.23,3.72,1.52,5.68,.18,1.18,.58,2.33,.94,3.71,.82-1.35,1.29-2.55,1.63-3.8Zm7.32-8.89c-1.3-.02-2.6,.06-3.89-.14-.61-.09-.95,.2-1.07,.81-.26,1.27-.59,2.52-.82,3.8-.48,2.67-1.17,5.29-2.25,7.78-.12,.27-.36,.55-.13,.88,.25-.01,.43-.16,.62-.3,1.29-.94,2.19-2.25,3.26-3.4,1.34-1.45,2.34-3.15,3.25-4.89,.62-1.18,1.35-2.31,1.75-3.6,.26-.86,.22-.94-.7-.95Zm1.04-.72c-.28-1.24-.82-2.3-1.49-3.58-.53,1.32-.49,2.45-.63,3.6,.71,.12,1.36,.09,2.12-.03Z"/>
          </g>
        </g>
      </g>
    </pattern>
  </defs>
  <rect id="__bc" data-name="5_bc" class="cls-2" width="500" height="500"/>
  <g id="_8_bc_diamonds" data-name="18_bc_diamonds">
    <rect class="cls-5" width="500" height="500"/>
  </g>
</svg>