<svg id="Background" xmlns="http://www.w3.org/2000/svg" xmlns:xlink="http://www.w3.org/1999/xlink" viewBox="0 0 500 500"><defs><style>.cls-1{fill:none;}.cls-2{fill:#ed1c24;}.cls-3{opacity:0.64;}.cls-4{fill:#fcee21;}.cls-5{fill:#a03541;}.cls-6{fill:#c7a73c;}.cls-7{fill:url(#linear-gradient);}.cls-8{fill:url(#New_Pattern_33);}</style><linearGradient id="linear-gradient" x1="250" y1="500" x2="250" gradientUnits="userSpaceOnUse"><stop offset="0" stop-color="#bcbcbc"/><stop offset="0.02" stop-color="#c2c2c2"/><stop offset="0.12" stop-color="#d8d8d8"/><stop offset="0.23" stop-color="#eaeaea"/><stop offset="0.36" stop-color="#f6f6f6"/><stop offset="0.54" stop-color="#fdfdfd"/><stop offset="1" stop-color="#fff"/></linearGradient><pattern id="New_Pattern_33" data-name="New Pattern 33" width="164.79" height="110.1" patternUnits="userSpaceOnUse" viewBox="0 0 164.78 110.1"><rect class="cls-1" width="164.79" height="110.1"/><path class="cls-2" d="M164.5,82.57a13.84,13.84,0,0,0-1.71,3c-.64,1.14-1.28,2.29-1.91,3.44-1.28,2.3-2.54,4.6-3.8,6.9q-2.36,4.29-4.68,8.59c-.65,1.22-1.32,2.43-2,3.65s-.95,1.81.48,2.58c2,1.07,4,1.77,6,2.7s3.9,2.09,5.85,3.08a3.11,3.11,0,0,0,1.69.47c0-.14,0-.27.05-.41a25.39,25.39,0,0,0,.09-2.64c0-1.74-.17-3.48-.13-5.22.08-2.89.12-5.78.14-8.67s0-6,0-8.93C164.54,88.31,164.79,85.37,164.5,82.57Z"/><g class="cls-3"><path class="cls-4" d="M164.6,120.15c0-2.89-.06-5.78-.14-8.67,0-1.75.15-3.48.13-5.23a25.49,25.49,0,0,0-.09-2.64c0-.13,0-.27-.05-.4a3.11,3.11,0,0,0-1.69.47c-1.95,1-3.88,2.17-5.85,3.08s-4,1.63-6,2.69c-1.43.78-1.12,1.41-.48,2.59s1.33,2.43,2,3.64q2.32,4.3,4.68,8.6c1.26,2.3,2.52,4.6,3.8,6.9.63,1.15,1.27,2.29,1.91,3.44a14.08,14.08,0,0,0,1.71,3c.29-2.8,0-5.74.08-8.56C164.61,126.1,164.62,123.13,164.6,120.15Z"/></g><path d="M180.49,107.69a2.41,2.41,0,0,1,.4,2,3.37,3.37,0,0,1-1.26,1.31q-3.6,2.52-7.4,4.74-1.89,1.11-3.84,2.13c-1,.52-2.2,1.54-3.36,1.11a40,40,0,0,1-4.25-2.21c-2.9-1.51-5.8-2.86-8.8-4.14-2.19-.93-4.36-2.13-2.93-4.79.69-1.3,1.39-2.59,2.09-3.89q2.15-4,4.32-8,2.41-4.41,4.84-8.8c.65-1.17,1.2-2.41,1.85-3.59.41-.75,1.58-3.44,2.65-3.51,1.33-.08,3.36,5.14,3.93,6.21l5.07,9.3q1.94,3.57,3.89,7.13c.66,1.23,1.33,2.45,2,3.68C179.89,106.73,180.22,107.2,180.49,107.69ZM164.58,91.13c0-2.82.21-5.76-.08-8.56a13.84,13.84,0,0,0-1.71,3c-.64,1.14-1.28,2.29-1.91,3.44-1.28,2.3-2.54,4.6-3.8,6.9q-2.36,4.29-4.68,8.59c-.65,1.22-1.32,2.43-2,3.65s-.95,1.81.48,2.58c2,1.07,4,1.77,6,2.7s3.9,2.09,5.85,3.08a3.11,3.11,0,0,0,1.69.47c0-.14,0-.27.05-.41a25.39,25.39,0,0,0,.09-2.64c0-1.74-.17-3.48-.13-5.22.08-2.89.12-5.78.14-8.67S164.61,94.11,164.58,91.13Zm14.11,15.73c-.94-1.73-1.81-3.49-2.79-5.19-2.24-3.86-4.34-7.79-6.25-11.82-1.24-2.62-3-4.83-4-7.61a40.19,40.19,0,0,0,.17,6.49c.3,4.92.11,9.84.1,14.76,0,4.67-.56,9.38-.08,14.05,0-.26,5.49-2.75,6.11-3.09,2.3-1.28,4.42-2.71,6.62-4.14C180.13,109.29,179.45,108.24,178.69,106.86Z"/><path d="M180.89,110.54a2.4,2.4,0,0,1-.4,2c-.27.5-.6,1-.8,1.33l-2,3.67q-2,3.57-3.89,7.14l-5.07,9.3c-.57,1.06-2.6,6.28-3.93,6.2-1.07-.06-2.24-2.75-2.65-3.5-.65-1.18-1.2-2.42-1.85-3.59q-2.43-4.4-4.84-8.8-2.18-4-4.32-8c-.7-1.3-1.4-2.59-2.09-3.89-1.43-2.67.74-3.87,2.93-4.79,3-1.28,5.9-2.63,8.8-4.14a40,40,0,0,1,4.25-2.21c1.16-.43,2.38.58,3.36,1.1,1.3.69,2.58,1.4,3.84,2.14q3.79,2.22,7.4,4.74A3.34,3.34,0,0,1,180.89,110.54Zm-16.31,18.54c0-3,0-6,0-8.93s-.06-5.78-.14-8.67c0-1.75.15-3.48.13-5.23a25.49,25.49,0,0,0-.09-2.64c0-.13,0-.27-.05-.4a3.11,3.11,0,0,0-1.69.47c-1.95,1-3.88,2.17-5.85,3.08s-4,1.63-6,2.69c-1.43.78-1.12,1.41-.48,2.59s1.33,2.43,2,3.64q2.32,4.3,4.68,8.6c1.26,2.3,2.52,4.6,3.8,6.9.63,1.15,1.27,2.29,1.91,3.44a14.08,14.08,0,0,0,1.71,3C164.79,134.84,164.54,131.9,164.58,129.08Zm14-19.19c-2.2-1.42-4.32-2.85-6.62-4.13-.62-.34-6.14-2.83-6.11-3.09-.48,4.67.07,9.38.08,14,0,4.92.2,9.84-.1,14.76a40.19,40.19,0,0,0-.17,6.49c1-2.79,2.79-5,4-7.61,1.91-4,4-8,6.25-11.82,1-1.7,1.85-3.47,2.79-5.19C179.45,112,180.13,110.92,178.54,109.89Z"/><path class="cls-5" d="M11.11,101.67c-2.23-3.86-4.34-7.79-6.25-11.82-1.24-2.62-3-4.83-4-7.61A41.37,41.37,0,0,0,1,88.73c.3,4.92.12,9.84.1,14.76,0,4.67-.55,9.38-.08,14.05,0-.26,5.5-2.75,6.11-3.09,2.31-1.28,4.43-2.71,6.63-4.14,1.58-1,.9-2.07.15-3.45C13,105.13,12.1,103.37,11.11,101.67Z"/><g class="cls-3"><path class="cls-6" d="M13.76,109.89c-2.2-1.42-4.32-2.85-6.63-4.13-.61-.34-6.13-2.83-6.11-3.09-.47,4.67.07,9.38.08,14,0,4.92.2,9.84-.1,14.76A41.37,41.37,0,0,0,.83,138c1-2.79,2.79-5,4-7.61,1.91-4,4-8,6.25-11.82,1-1.7,1.85-3.47,2.8-5.19C14.66,112,15.34,110.92,13.76,109.89Z"/></g><path d="M15.71,107.69a2.4,2.4,0,0,1,.39,2A3.23,3.23,0,0,1,14.84,111q-3.59,2.52-7.39,4.74-1.91,1.11-3.84,2.13c-1,.52-2.2,1.54-3.36,1.11A38.12,38.12,0,0,1-4,116.74c-2.91-1.51-5.8-2.86-8.81-4.14-2.19-.93-4.36-2.13-2.93-4.79l2.09-3.89q2.16-4,4.33-8,2.4-4.41,4.84-8.8c.65-1.17,1.19-2.41,1.84-3.59.42-.75,1.58-3.44,2.65-3.51C1.35,80,3.37,85.19,4,86.26Q6.47,90.91,9,95.56c1.3,2.38,2.59,4.76,3.89,7.13l2,3.68C15.11,106.73,15.43,107.2,15.71,107.69ZM-.21,91.13c0-2.82.21-5.76-.07-8.56a13.46,13.46,0,0,0-1.72,3c-.64,1.14-1.27,2.29-1.91,3.44q-1.9,3.45-3.8,6.9-2.34,4.29-4.67,8.59l-2,3.65c-.64,1.18-1,1.81.47,2.58,2,1.07,4,1.77,6,2.7S-4,115.54-2,116.53A3.05,3.05,0,0,0-.34,117l.06-.41A25.39,25.39,0,0,0-.19,114c0-1.74-.18-3.48-.13-5.22q.11-4.33.14-8.67C-.16,97.08-.17,94.11-.21,91.13Zm14.12,15.73c-.95-1.73-1.81-3.49-2.8-5.19-2.23-3.86-4.34-7.79-6.25-11.82-1.24-2.62-3-4.83-4-7.61A41.37,41.37,0,0,0,1,88.73c.3,4.92.12,9.84.1,14.76,0,4.67-.55,9.38-.08,14.05,0-.26,5.5-2.75,6.11-3.09,2.31-1.28,4.43-2.71,6.63-4.14C15.34,109.29,14.66,108.24,13.91,106.86Z"/><path d="M16.1,110.54a2.39,2.39,0,0,1-.39,2c-.28.5-.6,1-.8,1.33l-2,3.67L9,124.65Q6.48,129.3,4,134c-.58,1.06-2.6,6.28-3.94,6.2-1.07-.06-2.23-2.75-2.65-3.5-.65-1.18-1.19-2.42-1.84-3.59q-2.43-4.4-4.84-8.8l-4.33-8-2.09-3.89c-1.43-2.67.74-3.87,2.93-4.79,3-1.28,5.9-2.63,8.81-4.14a38.12,38.12,0,0,1,4.25-2.21c1.16-.43,2.37.58,3.36,1.1,1.29.69,2.57,1.4,3.84,2.14q3.8,2.22,7.39,4.74A3.21,3.21,0,0,1,16.1,110.54ZM-.21,129.08c0-3,0-6,0-8.93s-.07-5.78-.14-8.67c0-1.75.15-3.48.13-5.23a25.49,25.49,0,0,0-.09-2.64l-.06-.4a3.05,3.05,0,0,0-1.68.47c-1.95,1-3.88,2.17-5.86,3.08s-4,1.63-6,2.69c-1.43.78-1.11,1.41-.47,2.59l2,3.64q2.33,4.3,4.67,8.6,1.89,3.45,3.8,6.9L-2,134.62a13.69,13.69,0,0,0,1.72,3C0,134.84-.25,131.9-.21,129.08Zm14-19.19c-2.2-1.42-4.32-2.85-6.63-4.13-.61-.34-6.13-2.83-6.11-3.09-.47,4.67.07,9.38.08,14,0,4.92.2,9.84-.1,14.76A41.37,41.37,0,0,0,.83,138c1-2.79,2.79-5,4-7.61,1.91-4,4-8,6.25-11.82,1-1.7,1.85-3.47,2.8-5.19C14.66,112,15.34,110.92,13.76,109.89Z"/><path class="cls-2" d="M164.5-27.54a14.08,14.08,0,0,0-1.71,3c-.64,1.15-1.28,2.3-1.91,3.45-1.28,2.29-2.54,4.59-3.8,6.9q-2.36,4.29-4.68,8.59c-.65,1.22-1.32,2.43-2,3.65s-.95,1.81.48,2.58c2,1.06,4,1.77,6,2.7s3.9,2.08,5.85,3.08a3.2,3.2,0,0,0,1.69.47c0-.14,0-.27.05-.41a25.39,25.39,0,0,0,.09-2.64c0-1.74-.17-3.48-.13-5.22.08-2.89.12-5.79.14-8.68s0-5.95,0-8.92S164.79-24.73,164.5-27.54Z"/><g class="cls-3"><path class="cls-4" d="M164.6,10.05c0-2.89-.06-5.79-.14-8.68,0-1.74.15-3.48.13-5.22a25.49,25.49,0,0,0-.09-2.64c0-.13,0-.27-.05-.41a3.2,3.2,0,0,0-1.69.47c-1.95,1-3.88,2.17-5.85,3.08s-4,1.64-6,2.7c-1.43.77-1.12,1.4-.48,2.58s1.33,2.43,2,3.65q2.32,4.3,4.68,8.59c1.26,2.31,2.52,4.61,3.8,6.9.63,1.15,1.27,2.3,1.91,3.45a14.08,14.08,0,0,0,1.71,3c.29-2.81,0-5.75.08-8.57S164.62,13,164.6,10.05Z"/></g><path d="M180.49-2.41a2.4,2.4,0,0,1,.4,2,3.28,3.28,0,0,1-1.26,1.3c-2.4,1.68-4.87,3.27-7.4,4.74-1.26.74-2.54,1.45-3.84,2.14-1,.52-2.2,1.54-3.36,1.11a44,44,0,0,1-4.25-2.21c-2.9-1.52-5.8-2.87-8.8-4.14-2.19-.93-4.36-2.13-2.93-4.8l2.09-3.88q2.15-4,4.32-8,2.41-4.41,4.84-8.8c.65-1.18,1.2-2.41,1.85-3.59.41-.76,1.58-3.45,2.65-3.51,1.33-.08,3.36,5.14,3.93,6.2q2.53,4.67,5.07,9.3,1.94,3.57,3.89,7.14c.66,1.23,1.33,2.45,2,3.67C179.89-3.37,180.22-2.9,180.49-2.41ZM164.58-19c0-2.82.21-5.76-.08-8.57a14.08,14.08,0,0,0-1.71,3c-.64,1.15-1.28,2.3-1.91,3.45-1.28,2.29-2.54,4.59-3.8,6.9q-2.36,4.29-4.68,8.59c-.65,1.22-1.32,2.43-2,3.65s-.95,1.81.48,2.58c2,1.06,4,1.77,6,2.7s3.9,2.08,5.85,3.08a3.2,3.2,0,0,0,1.69.47c0-.14,0-.27.05-.41a25.39,25.39,0,0,0,.09-2.64c0-1.74-.17-3.48-.13-5.22.08-2.89.12-5.79.14-8.68S164.61-16,164.58-19ZM178.69-3.25c-.94-1.72-1.81-3.49-2.79-5.19-2.24-3.85-4.34-7.79-6.25-11.82-1.24-2.61-3-4.82-4-7.6a40.25,40.25,0,0,0,.17,6.49c.3,4.91.11,9.83.1,14.75,0,4.68-.56,9.39-.08,14.05,0-.26,5.49-2.75,6.11-3.09,2.3-1.27,4.42-2.71,6.62-4.13C180.13-.82,179.45-1.86,178.69-3.25Z"/><path d="M180.89.44a2.4,2.4,0,0,1-.4,2c-.27.49-.6,1-.8,1.33l-2,3.67q-2,3.57-3.89,7.14l-5.07,9.3c-.57,1.06-2.6,6.28-3.93,6.2-1.07-.06-2.24-2.75-2.65-3.51-.65-1.18-1.2-2.41-1.85-3.59q-2.43-4.39-4.84-8.8-2.18-4-4.32-8L149.05,2.3c-1.43-2.67.74-3.87,2.93-4.8,3-1.27,5.9-2.62,8.8-4.14A44,44,0,0,1,165-8.85c1.16-.43,2.38.59,3.36,1.11,1.3.69,2.58,1.4,3.84,2.14,2.53,1.47,5,3.06,7.4,4.74A3.34,3.34,0,0,1,180.89.44ZM164.58,19c0-3,0-5.95,0-8.92s-.06-5.79-.14-8.68c0-1.74.15-3.48.13-5.22a25.49,25.49,0,0,0-.09-2.64c0-.13,0-.27-.05-.41a3.2,3.2,0,0,0-1.69.47c-1.95,1-3.88,2.17-5.85,3.08s-4,1.64-6,2.7c-1.43.77-1.12,1.4-.48,2.58s1.33,2.43,2,3.65q2.32,4.3,4.68,8.59c1.26,2.31,2.52,4.61,3.8,6.9.63,1.15,1.27,2.3,1.91,3.45a14.08,14.08,0,0,0,1.71,3C164.79,24.73,164.54,21.79,164.58,19Zm14-19.18c-2.2-1.42-4.32-2.86-6.62-4.13-.62-.34-6.14-2.83-6.11-3.09-.48,4.66.07,9.37.08,14.05,0,4.92.2,9.84-.1,14.75a40.25,40.25,0,0,0-.17,6.49c1-2.78,2.79-5,4-7.6,1.91-4,4-8,6.25-11.82,1-1.7,1.85-3.47,2.79-5.19C179.45,1.86,180.13.82,178.54-.21Z"/><path class="cls-2" d="M82.11,27.52a13.25,13.25,0,0,0-1.72,3L78.48,34q-1.91,3.45-3.8,6.9Q72.34,45.17,70,49.47c-.65,1.22-1.32,2.43-2,3.65s-1,1.81.47,2.58c2,1.07,4,1.77,6,2.7s3.9,2.08,5.85,3.08a3.17,3.17,0,0,0,1.69.47c0-.14,0-.27,0-.41a25.39,25.39,0,0,0,.09-2.64c0-1.74-.18-3.48-.13-5.22q.11-4.34.14-8.68t0-8.92C82.15,33.26,82.39,30.32,82.11,27.52Z"/><path class="cls-5" d="M93.5,46.62c-2.23-3.86-4.34-7.8-6.25-11.83-1.23-2.61-3-4.82-4-7.6a39.11,39.11,0,0,0,.17,6.49c.29,4.91.11,9.84.1,14.75,0,4.68-.56,9.39-.08,14.06,0-.26,5.49-2.75,6.11-3.1,2.3-1.27,4.42-2.71,6.62-4.13,1.59-1,.9-2.07.15-3.45C95.36,50.08,94.49,48.32,93.5,46.62Z"/><g class="cls-3"><path class="cls-4" d="M82.21,65.1q0-4.33-.14-8.68c0-1.74.15-3.48.13-5.22a25.49,25.49,0,0,0-.09-2.64c0-.13,0-.27,0-.41a3.18,3.18,0,0,0-1.69.48c-2,1-3.88,2.16-5.85,3.07s-4,1.64-6,2.7c-1.42.77-1.11,1.4-.47,2.59s1.33,2.42,2,3.64q2.33,4.31,4.67,8.6,1.89,3.45,3.8,6.89c.64,1.15,1.28,2.3,1.91,3.45a13.69,13.69,0,0,0,1.72,3c.28-2.81,0-5.74.07-8.57S82.23,68.07,82.21,65.1Z"/><path class="cls-6" d="M96.15,54.84C94,53.42,91.83,52,89.53,50.71c-.62-.34-6.14-2.83-6.11-3.09-.48,4.67.06,9.38.08,14.05,0,4.92.19,9.84-.1,14.75a39.23,39.23,0,0,0-.17,6.5c1-2.79,2.79-5,4-7.61,1.91-4,4-8,6.25-11.82,1-1.7,1.86-3.47,2.8-5.19C97.05,56.92,97.74,55.87,96.15,54.84Z"/></g><path d="M98.1,52.64a2.36,2.36,0,0,1,.39,2,3.19,3.19,0,0,1-1.25,1.3q-3.6,2.54-7.4,4.74c-1.27.74-2.55,1.46-3.84,2.14-1,.52-2.2,1.54-3.36,1.11a39.87,39.87,0,0,1-4.25-2.21c-2.91-1.51-5.8-2.87-8.81-4.14-2.19-.93-4.35-2.13-2.92-4.79l2.08-3.89q2.16-4,4.33-8,2.4-4.41,4.84-8.8c.65-1.18,1.2-2.41,1.85-3.59.41-.75,1.58-3.45,2.64-3.51,1.34-.08,3.36,5.14,3.94,6.21l5.06,9.3,3.89,7.13,2,3.68C97.5,51.68,97.83,52.15,98.1,52.64ZM82.18,36.08c0-2.82.21-5.76-.07-8.56a13.25,13.25,0,0,0-1.72,3L78.48,34q-1.91,3.45-3.8,6.9Q72.34,45.17,70,49.47c-.65,1.22-1.32,2.43-2,3.65s-1,1.81.47,2.58c2,1.07,4,1.77,6,2.7s3.9,2.08,5.85,3.08a3.17,3.17,0,0,0,1.69.47c0-.14,0-.27,0-.41a25.39,25.39,0,0,0,.09-2.64c0-1.74-.18-3.48-.13-5.22q.11-4.34.14-8.68T82.18,36.08ZM96.3,51.81c-.94-1.73-1.81-3.49-2.8-5.19-2.23-3.86-4.34-7.8-6.25-11.83-1.23-2.61-3-4.82-4-7.6a39.11,39.11,0,0,0,.17,6.49c.29,4.91.11,9.84.1,14.75,0,4.68-.56,9.39-.08,14.06,0-.26,5.49-2.75,6.11-3.1,2.3-1.27,4.42-2.71,6.62-4.13C97.74,54.24,97.05,53.19,96.3,51.81Z"/><path d="M98.49,55.49a2.36,2.36,0,0,1-.39,2c-.27.5-.6,1-.8,1.33l-2,3.67L91.4,69.6l-5.06,9.3c-.58,1.06-2.6,6.28-3.94,6.2-1.06-.06-2.23-2.75-2.64-3.51-.65-1.17-1.2-2.41-1.85-3.59-1.62-2.92-3.24-5.86-4.84-8.79q-2.17-4-4.33-8l-2.08-3.88c-1.43-2.67.73-3.87,2.92-4.8,3-1.27,5.9-2.62,8.81-4.13a40,40,0,0,1,4.25-2.22c1.16-.42,2.37.59,3.36,1.11,1.29.69,2.57,1.4,3.84,2.14q3.8,2.22,7.4,4.74A3.25,3.25,0,0,1,98.49,55.49ZM82.18,74c0-3,0-6,0-8.92s-.07-5.78-.14-8.68c0-1.74.15-3.48.13-5.22a25.49,25.49,0,0,0-.09-2.64c0-.13,0-.27,0-.41a3.18,3.18,0,0,0-1.69.48c-2,1-3.88,2.16-5.85,3.07s-4,1.64-6,2.7c-1.42.77-1.11,1.4-.47,2.59s1.33,2.42,2,3.64q2.33,4.31,4.67,8.6,1.89,3.45,3.8,6.89c.64,1.15,1.28,2.3,1.91,3.45a13.69,13.69,0,0,0,1.72,3C82.39,79.78,82.15,76.85,82.18,74Zm14-19.18C94,53.42,91.83,52,89.53,50.71c-.62-.34-6.14-2.83-6.11-3.09-.48,4.67.06,9.38.08,14.05,0,4.92.19,9.84-.1,14.75a39.23,39.23,0,0,0-.17,6.5c1-2.79,2.79-5,4-7.61,1.91-4,4-8,6.25-11.82,1-1.7,1.86-3.47,2.8-5.19C97.05,56.92,97.74,55.87,96.15,54.84Z"/><path class="cls-5" d="M11.11-8.44c-2.23-3.85-4.34-7.79-6.25-11.82-1.24-2.61-3-4.82-4-7.6A41.43,41.43,0,0,0,1-21.37c.3,4.91.12,9.83.1,14.75C1.09-1.94.55,2.77,1,7.43c0-.26,5.5-2.75,6.11-3.09C9.44,3.07,11.56,1.63,13.76.21c1.58-1,.9-2.07.15-3.46C13-5,12.1-6.74,11.11-8.44Z"/><g class="cls-3"><path class="cls-6" d="M13.76-.21c-2.2-1.42-4.32-2.86-6.63-4.13C6.52-4.68,1-7.17,1-7.43c-.47,4.66.07,9.37.08,14.05,0,4.92.2,9.84-.1,14.75a41.43,41.43,0,0,0-.17,6.49c1-2.78,2.79-5,4-7.6,1.91-4,4-8,6.25-11.82,1-1.7,1.85-3.47,2.8-5.19C14.66,1.86,15.34.82,13.76-.21Z"/></g><path d="M15.71-2.41a2.39,2.39,0,0,1,.39,2A3.15,3.15,0,0,1,14.84.86C12.45,2.54,10,4.13,7.45,5.6,6.18,6.34,4.9,7.05,3.61,7.74c-1,.52-2.2,1.54-3.36,1.11A41.8,41.8,0,0,1-4,6.64C-6.91,5.12-9.8,3.77-12.81,2.5-15,1.57-17.17.37-15.74-2.3l2.09-3.88q2.16-4,4.33-8,2.4-4.41,4.84-8.8c.65-1.18,1.19-2.41,1.84-3.59C-2.22-27.3-1.06-30,0-30c1.34-.08,3.36,5.14,3.94,6.2Q6.47-19.18,9-14.55L12.9-7.41l2,3.67C15.11-3.37,15.43-2.9,15.71-2.41ZM-.21-19c0-2.82.21-5.76-.07-8.57a13.69,13.69,0,0,0-1.72,3l-1.91,3.45q-1.9,3.43-3.8,6.9Q-10-9.88-12.38-5.58l-2,3.65c-.64,1.18-1,1.81.47,2.58,2,1.06,4,1.77,6,2.7S-4,5.43-2,6.43A3.14,3.14,0,0,0-.34,6.9l.06-.41A25.39,25.39,0,0,0-.19,3.85c0-1.74-.18-3.48-.13-5.22C-.25-4.26-.2-7.16-.18-10S-.17-16-.21-19ZM13.91-3.25C13-5,12.1-6.74,11.11-8.44c-2.23-3.85-4.34-7.79-6.25-11.82-1.24-2.61-3-4.82-4-7.6A41.43,41.43,0,0,0,1-21.37c.3,4.91.12,9.83.1,14.75C1.09-1.94.55,2.77,1,7.43c0-.26,5.5-2.75,6.11-3.09C9.44,3.07,11.56,1.63,13.76.21,15.34-.82,14.66-1.86,13.91-3.25Z"/><path d="M16.1.44a2.39,2.39,0,0,1-.39,2c-.28.49-.6,1-.8,1.33l-2,3.67L9,14.55c-1.69,3.09-3.38,6.2-5.06,9.3-.58,1.06-2.6,6.28-3.94,6.2C-1.06,30-2.22,27.3-2.64,26.54c-.65-1.18-1.19-2.41-1.84-3.59q-2.43-4.39-4.84-8.8-2.17-4-4.33-8L-15.74,2.3c-1.43-2.67.74-3.87,2.93-4.8,3-1.27,5.9-2.62,8.81-4.14A41.8,41.8,0,0,1,.25-8.85c1.16-.43,2.37.59,3.36,1.11C4.9-7,6.18-6.34,7.45-5.6c2.53,1.47,5,3.06,7.39,4.74A3.21,3.21,0,0,1,16.1.44ZM-.21,19c0-3,0-5.95,0-8.92S-.25,4.26-.32,1.37c0-1.74.15-3.48.13-5.22A25.49,25.49,0,0,0-.28-6.49L-.34-6.9A3.14,3.14,0,0,0-2-6.43C-4-5.43-5.9-4.26-7.88-3.35s-4,1.64-6,2.7c-1.43.77-1.11,1.4-.47,2.58l2,3.65q2.33,4.3,4.67,8.59,1.89,3.47,3.8,6.9L-2,24.52a13.69,13.69,0,0,0,1.72,3C0,24.73-.25,21.79-.21,19Zm14-19.18c-2.2-1.42-4.32-2.86-6.63-4.13C6.52-4.68,1-7.17,1-7.43c-.47,4.66.07,9.37.08,14.05,0,4.92.2,9.84-.1,14.75a41.43,41.43,0,0,0-.17,6.49c1-2.78,2.79-5,4-7.6,1.91-4,4-8,6.25-11.82,1-1.7,1.85-3.47,2.8-5.19C14.66,1.86,15.34.82,13.76-.21Z"/></pattern></defs><rect id="_5_bc" data-name="5_bc" class="cls-7" width="500" height="500"/><rect class="cls-8" width="500" height="500"/></svg>