<svg id="Background" xmlns="http://www.w3.org/2000/svg" xmlns:xlink="http://www.w3.org/1999/xlink" viewBox="0 0 500 500"><defs><style>.cls-1{fill:none;}.cls-2{fill:#fcfbfa;}.cls-3{fill:#c5eef2;}.cls-4{fill:#4d4d4d;}.cls-5{fill:#f6a3ad;}.cls-6{fill:#dddcdb;}.cls-7{fill:#b0e0e2;}.cls-8{fill:#9e5d30;}.cls-9{fill:url(#New_Gradient_Swatch_11);}.cls-10{fill:url(#New_Pattern_17);}</style><linearGradient id="New_Gradient_Swatch_11" x1="250" y1="500" x2="250" gradientUnits="userSpaceOnUse"><stop offset="0" stop-color="#cb87b5"/><stop offset="1" stop-color="#71cef3"/></linearGradient><pattern id="New_Pattern_17" data-name="New Pattern 17" width="136.53" height="210.04" patternUnits="userSpaceOnUse" viewBox="0 0 136.53 210.04"><rect class="cls-1" width="136.53" height="210.04"/><path class="cls-2" d="M140.27,191.88a39.12,39.12,0,0,1,8.52.27c1.77.16,2.16.08,2.93-1.44a5.76,5.76,0,0,0,.47-1.63,34,34,0,0,0,.22-7c-.1-1.7-.23-1.82-1.93-1.84-4.89-.06-9.8.22-14.67-.57a6,6,0,0,0-.85,0c-1.76,0-1.83.12-2.2,1.85-.27,1.33.12,2.6.06,3.91-.09,2,0,2,2.06,2.15.36,0,.84-.13,1,.58h-2.52c-.33,0-.73-.15-.87.29a9.76,9.76,0,0,1-2.07,3.11,40.88,40.88,0,0,1,4.58.2A19.49,19.49,0,0,0,140.27,191.88Z"/><path class="cls-2" d="M150.91,214a66.26,66.26,0,0,0,.5-11.26c0-2.17.05-4.34,0-6.51-.06-2-.56-2.79-2.18-3.17a26.41,26.41,0,0,0-7.3-.68,36.28,36.28,0,0,1-7,0,30.4,30.4,0,0,0-5-.1,1.49,1.49,0,0,0-1.44,1,9.23,9.23,0,0,0-.8,4.16c.06,2.17.13,4.33.23,6.49.22,4.77,0,9.57.52,14.32.43,3.85.42,7.72.82,11.56.2,2,.29,2.12,2.16,2.68a58,58,0,0,0,6.51,1.38,40.19,40.19,0,0,0,11.59.06c1.33-.14,1.6-.56,1.43-1.78A77.09,77.09,0,0,1,150.91,214Z"/><path class="cls-3" d="M151.48,208.92c0-.63-.09-1.24-.07-1.49.1-1.3.19-2.6.28-3.9.06-.86.11-1.73.19-2.59s.41-2.07-.65-2.4a13.4,13.4,0,0,0-1.8-.21c-.63-.09-1.26-.16-1.89-.22-1.3-.13-2.61-.2-3.91-.25-3.11-.12-6.2-.29-9.31-.36l-3.61-.09c-.74,0-2.71-.45-3.08.44a1.94,1.94,0,0,0,0,1.12,23.85,23.85,0,0,1,0,4.78c0,1.93.14,3.87.08,5.8a.51.51,0,0,0,.07.32.44.44,0,0,0,.4.1,29,29,0,0,1,5.67.06c2.8.16,5.56.37,8.37.46l8.75.25C151.46,210.76,151.51,209.82,151.48,208.92Z"/><path class="cls-4" d="M159.27,188.34c0,2.52.53,4.85.41,7.27-.14,2.84.37,5.68.35,8.54,0,3.48-.09,6.95-.32,10.42,0,.34-.1.69-.09,1,.16,4.17-.54,8.32-.39,12.48a2,2,0,0,1-1.36,2.33,27,27,0,0,0-4,2.65,10.3,10.3,0,0,1-5.14,1.55c-1.41.08-2.84.14-4.25.23a44,44,0,0,1-10.18-1c-1.84-.32-3.53-1.21-5.42-1.36-.32,0-.37-.34-.38-.66q-.09-4.19-.22-8.37c-.06-1.82-.35-3.62-.48-5.44-.26-3.8-.41-7.61-.4-11.42,0-2.63-.19-5.25-.34-7.87a19,19,0,0,1,.44-4.93,4.15,4.15,0,0,1,2.17-3.11,4.08,4.08,0,0,0,2.19-3.95c0-1.2,0-2.4,0-3.6a10.56,10.56,0,0,1,.5-3.18c.28-.89.65-1,1.44-.93,4.15.34,8.3.66,12.46.61a36.31,36.31,0,0,0,5.81-.28,1.71,1.71,0,0,1,1.95,1,7.55,7.55,0,0,1,1.07,3.21c.05.51.05,1,.07,1.54C155.28,187.73,156.48,188.76,159.27,188.34Zm-7.86,14.42c0-2.17.05-4.34,0-6.51-.06-2-.56-2.79-2.18-3.17a26.41,26.41,0,0,0-7.3-.68,36.28,36.28,0,0,1-7,0,30.4,30.4,0,0,0-5-.1,1.49,1.49,0,0,0-1.44,1,9.23,9.23,0,0,0-.8,4.16c.06,2.17.13,4.33.23,6.49.22,4.77,0,9.57.52,14.32.43,3.85.42,7.72.82,11.56.2,2,.29,2.12,2.16,2.68a58,58,0,0,0,6.51,1.38,40.19,40.19,0,0,0,11.59.06c1.33-.14,1.6-.56,1.43-1.78a77.09,77.09,0,0,1-.08-18.09A66.26,66.26,0,0,0,151.41,202.76ZM158.63,190c-.42-.09-.6.15-.83.3-1.8,1.2-3.42,2.69-5.54,3.35-.61.2-.53.64-.5,1.1.1,1.48.23,3,.28,4.43a91.17,91.17,0,0,1-.06,9.92,146.35,146.35,0,0,0-.89,15.52,68.07,68.07,0,0,0,.67,7.66c.1.69.42.91,1,.58a28.67,28.67,0,0,0,3-1.69c2.78-2,2.75-2.18,2.93-5.63.18-3.64.37-7.28.43-10.92,0-2.11.27-4.2.33-6.31.12-4.85-.38-9.68-.4-14.52A8.8,8.8,0,0,0,158.63,190Zm-28.22,1.57a40.88,40.88,0,0,1,4.58.2,19.49,19.49,0,0,0,5.28.13,39.12,39.12,0,0,1,8.52.27c1.77.16,2.16.08,2.93-1.44a5.76,5.76,0,0,0,.47-1.63,34,34,0,0,0,.22-7c-.1-1.7-.23-1.82-1.93-1.84-4.89-.06-9.8.22-14.67-.57a6,6,0,0,0-.85,0c-1.76,0-1.83.12-2.2,1.85-.27,1.33.12,2.6.06,3.91-.09,2,0,2,2.06,2.15.36,0,.84-.13,1,.58h-2.52c-.33,0-.73-.15-.87.29A9.76,9.76,0,0,1,130.41,191.55Zm27.26-2.16c-1.31.06-1.81-1-2.67-1.51-1.24-.74-.18-1.87-.46-2.77a4.9,4.9,0,0,1,0-1,5.4,5.4,0,0,0-1.29-3.54c0,2.22,0,4.41-.09,6.6a8.31,8.31,0,0,1-1.39,5c-.12.16-.31.37.08.69C154.16,192.55,155.72,190.77,157.67,189.39Z"/><path class="cls-4" d="M131.38,200.2l.08.05a.35.35,0,0,1,.06.19c0,.26.49,3.38.85,3.19a4.52,4.52,0,0,0,1.7-1.77,8,8,0,0,1,.73-1.15c.32-.37.83-.4.86.16.14,2.15.72,4.26.7,6.43,0,.3,0,.61-.43.54s-.31-.39-.29-.67a19.85,19.85,0,0,0-.63-5.52l-2.26,2.76c-1,1.22-1.32-1.32-1.52-1.85a.26.26,0,0,0-.09-.14c-.26-.17-.38,1.19-.44,1.41a12.56,12.56,0,0,0-.31,1.35c-.08.71-.2,1.37-.22,2.09a.78.78,0,0,1-.06.31.28.28,0,0,1-.25.17c-.19,0-.23-.28-.22-.47a25.15,25.15,0,0,1,.39-3.57,14,14,0,0,1,.44-1.69c.18-.49.25-1.05.46-1.52a.65.65,0,0,1,.21-.28A.29.29,0,0,1,131.38,200.2Z"/><path class="cls-5" d="M106.39,163.55a1,1,0,0,0-1.14.29,3.74,3.74,0,0,0-1.12,2.43.83.83,0,0,1-.77-.48c-.51-.88-1.14-1.24-1.61-.86-.64.52-.23,1.1,0,1.63.83,1.7,2.37,2.81,3.55,4.67.65-2.11.89-3.9,1.53-5.58a2.79,2.79,0,0,0,.14-.71,2.17,2.17,0,0,0,0-.36A1.08,1.08,0,0,0,106.39,163.55Z"/><path class="cls-4" d="M107.93,164.65c-.11.4-.25,1-.44,1.55a15.9,15.9,0,0,0-1.07,5.63,1.1,1.1,0,0,1-.18.85c-.31.32-.72.65-1,0-.85-1.84-2.31-3.22-3.47-4.82a9.18,9.18,0,0,1-.72-1c-.41-.76-.77-1.62-.2-2.38a1.74,1.74,0,0,1,2.15-.39c.67.29,1,0,1.36-.46.15-.18.32-.35.48-.53.47-.52,1-.94,1.72-.62A2.37,2.37,0,0,1,107.93,164.65Zm-3.8,1.62a.83.83,0,0,1-.77-.48c-.51-.88-1.14-1.24-1.61-.86-.64.52-.23,1.1,0,1.63.83,1.7,2.37,2.81,3.55,4.67.65-2.11.89-3.9,1.53-5.58a2.79,2.79,0,0,0,.14-.71,2.17,2.17,0,0,0,0-.36,1.08,1.08,0,0,0-.61-1,1,1,0,0,0-1.14.29A3.74,3.74,0,0,0,104.13,166.27Z"/><path class="cls-2" d="M3.74,191.88a39.12,39.12,0,0,1,8.52.27c1.77.16,2.16.08,2.93-1.44a5.76,5.76,0,0,0,.47-1.63,32.67,32.67,0,0,0,.22-7c-.1-1.7-.23-1.82-1.93-1.84-4.89-.06-9.8.22-14.66-.57a6.15,6.15,0,0,0-.86,0c-1.75,0-1.83.12-2.19,1.85-.28,1.33.12,2.6.06,3.91-.1,2-.06,2,2.05,2.15.36,0,.84-.13,1,.58H-3.17c-.33,0-.74-.15-.88.29a9.72,9.72,0,0,1-2.06,3.11,41.1,41.1,0,0,1,4.58.2A19.41,19.41,0,0,0,3.74,191.88Z"/><path class="cls-6" d="M15.28,192.83c2.35-.28,3.91-2.06,5.86-3.44-1.31.06-1.81-1-2.66-1.51-1.25-.74-.19-1.87-.47-2.77a4.91,4.91,0,0,1,0-1,5.41,5.41,0,0,0-1.3-3.54c0,2.22,0,4.41-.09,6.6a8.24,8.24,0,0,1-1.39,5C15.08,192.3,14.9,192.51,15.28,192.83Z"/><path class="cls-2" d="M14.38,214a67.31,67.31,0,0,0,.51-11.26c0-2.17,0-4.34,0-6.51-.06-2-.56-2.79-2.18-3.17a26.38,26.38,0,0,0-7.3-.68,36.18,36.18,0,0,1-7,0,30.44,30.44,0,0,0-5-.1,1.49,1.49,0,0,0-1.45,1,9.08,9.08,0,0,0-.79,4.16q.07,3.25.22,6.49c.23,4.77,0,9.57.52,14.32.43,3.85.42,7.72.82,11.56.2,2,.3,2.12,2.16,2.68a58,58,0,0,0,6.51,1.38,40.19,40.19,0,0,0,11.59.06c1.33-.14,1.61-.56,1.43-1.78A77.09,77.09,0,0,1,14.38,214Z"/><path class="cls-6" d="M22.1,190c-.41-.09-.6.15-.83.3-1.8,1.2-3.42,2.69-5.54,3.35-.61.2-.53.64-.5,1.1.1,1.48.23,3,.28,4.43a88.71,88.71,0,0,1-.06,9.92,149,149,0,0,0-.89,15.52,68.07,68.07,0,0,0,.67,7.66c.1.69.42.91,1,.58a27.66,27.66,0,0,0,3-1.69c2.79-2,2.75-2.18,2.93-5.63.18-3.64.38-7.28.43-10.92,0-2.11.27-4.2.33-6.31.12-4.85-.38-9.68-.4-14.52A8.8,8.8,0,0,0,22.1,190Z"/><path class="cls-3" d="M15,208.92c0-.63-.08-1.24-.07-1.49.1-1.3.19-2.6.28-3.9.06-.86.12-1.73.2-2.59s.4-2.07-.66-2.4a13.4,13.4,0,0,0-1.8-.21c-.63-.09-1.26-.16-1.89-.22-1.3-.13-2.6-.2-3.91-.25-3.1-.12-6.2-.29-9.31-.36l-3.6-.09c-.75,0-2.72-.45-3.09.44a2,2,0,0,0,0,1.12,23.13,23.13,0,0,1,0,4.78c0,1.93.14,3.87.08,5.8a.51.51,0,0,0,.07.32.44.44,0,0,0,.4.1,29,29,0,0,1,5.67.06c2.8.16,5.57.37,8.37.46l8.75.25C14.93,210.76,15,209.82,15,208.92Z"/><path class="cls-7" d="M23.17,204.91a.55.55,0,0,0-.13-.17v0a42.52,42.52,0,0,0-.16-7.57,2,2,0,0,0-.05-.24.92.92,0,0,0,.1-.32A1,1,0,0,0,23,195.5a1,1,0,0,0-1.33-.35,45,45,0,0,1-5.46,2.47,1.35,1.35,0,0,0-.33.19,1,1,0,0,0-.56,1.14.88.88,0,0,0,.1.22v.08c0,1.56,0,3.12,0,4.68a15.76,15.76,0,0,1-.36,4.28.89.89,0,0,0,0,.51l0,0,0,.06,0,0a.77.77,0,0,0-.12.36.74.74,0,0,0,0,.39l.1.23a1,1,0,0,0,.35.35l.23.09a.89.89,0,0,0,.51,0,1.09,1.09,0,0,0,.25-.1h0l.09-.07c2.13-1.28,4.28-2.53,6.39-3.86A1,1,0,0,0,23.17,204.91Z"/><path class="cls-4" d="M22.74,188.34c0,2.52.53,4.85.41,7.27-.13,2.84.37,5.68.36,8.54,0,3.48-.1,6.95-.33,10.42,0,.34-.1.69-.09,1,.16,4.17-.54,8.32-.39,12.48a2,2,0,0,1-1.35,2.33,26.55,26.55,0,0,0-4,2.65,10.3,10.3,0,0,1-5.14,1.55c-1.41.08-2.84.14-4.24.23a44,44,0,0,1-10.18-1c-1.85-.32-3.54-1.21-5.43-1.36-.32,0-.37-.34-.38-.66q-.09-4.19-.22-8.37c-.06-1.82-.35-3.62-.47-5.44-.27-3.8-.42-7.61-.41-11.42,0-2.63-.18-5.25-.33-7.87A18.56,18.56,0,0,1-9,193.78a4.18,4.18,0,0,1,2.17-3.11,4.1,4.1,0,0,0,2.2-3.95c0-1.2,0-2.4,0-3.6a10.88,10.88,0,0,1,.5-3.18c.28-.89.65-1,1.45-.93,4.14.34,8.29.66,12.46.61a36.24,36.24,0,0,0,5.8-.28,1.71,1.71,0,0,1,2,1,7.55,7.55,0,0,1,1.07,3.21c0,.51.06,1,.07,1.54C18.75,187.73,20,188.76,22.74,188.34Zm-7.85,14.42c0-2.17,0-4.34,0-6.51-.06-2-.56-2.79-2.18-3.17a26.38,26.38,0,0,0-7.3-.68,36.17,36.17,0,0,1-7,0,30.44,30.44,0,0,0-5-.1,1.49,1.49,0,0,0-1.45,1,9.08,9.08,0,0,0-.79,4.16q.07,3.25.22,6.49c.23,4.77,0,9.57.52,14.32.43,3.85.42,7.72.82,11.56.2,2,.3,2.12,2.16,2.68a58,58,0,0,0,6.51,1.38,40.19,40.19,0,0,0,11.59.06c1.33-.14,1.61-.56,1.43-1.78A77.09,77.09,0,0,1,14.38,214,67.31,67.31,0,0,0,14.89,202.76ZM22.1,190c-.41-.09-.6.15-.83.3-1.8,1.2-3.42,2.69-5.54,3.35-.61.2-.53.64-.5,1.1.1,1.48.23,3,.28,4.43a88.71,88.71,0,0,1-.06,9.92,149,149,0,0,0-.89,15.52,68.07,68.07,0,0,0,.67,7.66c.1.69.42.91,1,.58a27.66,27.66,0,0,0,3-1.69c2.79-2,2.75-2.18,2.93-5.63.18-3.64.38-7.28.43-10.92,0-2.11.27-4.2.33-6.31.12-4.85-.38-9.68-.4-14.52A8.8,8.8,0,0,0,22.1,190Zm-28.21,1.57a41.1,41.1,0,0,1,4.58.2,19.41,19.41,0,0,0,5.27.13,39.12,39.12,0,0,1,8.52.27c1.77.16,2.16.08,2.93-1.44a5.76,5.76,0,0,0,.47-1.63,32.67,32.67,0,0,0,.22-7c-.1-1.7-.23-1.82-1.93-1.84-4.89-.06-9.8.22-14.66-.57a6.15,6.15,0,0,0-.86,0c-1.75,0-1.83.12-2.19,1.85-.28,1.33.12,2.6.06,3.91-.1,2-.06,2,2.05,2.15.36,0,.84-.13,1,.58H-3.17c-.33,0-.74-.15-.88.29A9.72,9.72,0,0,1-6.11,191.55Zm27.25-2.16c-1.31.06-1.81-1-2.66-1.51-1.25-.74-.19-1.87-.47-2.77a4.91,4.91,0,0,1,0-1,5.41,5.41,0,0,0-1.3-3.54c0,2.22,0,4.41-.09,6.6a8.24,8.24,0,0,1-1.39,5c-.12.16-.3.37.08.69C17.63,192.55,19.19,190.77,21.14,189.39Z"/><path class="cls-4" d="M8.57,188.43a17.77,17.77,0,0,1,6.15.63A14,14,0,0,1,8.57,188.43Z"/><path class="cls-4" d="M13.71,186.38c.32-1.29.07-2.6.26-3.89A4,4,0,0,1,13.71,186.38Z"/><path class="cls-4" d="M5.87,188.21a7.06,7.06,0,0,1-2.74,0C3.89,187.54,3.89,187.54,5.87,188.21Z"/><path class="cls-4" d="M12.63,184.3a1.59,1.59,0,0,1-.35,2.13C12.4,185.72,12.52,185,12.63,184.3Z"/><path class="cls-4" d="M10.83,185.13a1.76,1.76,0,0,1-.24,1.57C10.28,186.17,10.52,185.76,10.83,185.13Z"/><path class="cls-4" d="M9.73,200.77c0,.48,0,1,0,1.44.07,1.21.94,1,1.51.32a2.87,2.87,0,0,0,.65-1.36,1.66,1.66,0,0,1,.45-.87.31.31,0,0,1,.27-.08c.13.05.14.24.11.38A5,5,0,0,1,11,203.44c-.44.41-.4.72,0,1.15a15.5,15.5,0,0,0,1.1,1.19c.3.3.69.45,1,.76a.78.78,0,0,1,.24.43c.13,1.06-1.24-.25-1.39-.4a6.85,6.85,0,0,0-1.76-1.64A3.77,3.77,0,0,0,10,207c0,.29,0,.61-.39.58s-.31-.29-.3-.52c.09-2.05,0-4.1-.09-6.15,0-.18,0-1.1.36-.88C9.72,200.14,9.72,200.61,9.73,200.77Z"/><path class="cls-4" d="M.74,200.63a.3.3,0,0,1-.05-.15L3,200.33a1,1,0,0,1,.62.1c.72.49-.47.49-.64.51-.35.05-.49.21-.46.56.14,1.71.06,3.51.37,5.2,0,.22.28.33.5.37a1.2,1.2,0,0,1,.62.23.41.41,0,0,1,0,.09c0,.1-.12.15-.22.16a12.74,12.74,0,0,1-2.62,0s-.07,0-.09,0a.14.14,0,0,1,0-.22.75.75,0,0,1,.26,0c.85,0,.88-1,.82-1.67a22.32,22.32,0,0,1-.2-3c0-.36,0-1.46-.39-1.6S1,201,.74,200.63Z"/><path class="cls-4" d="M5.32,200.86a.17.17,0,0,0,0-.07.75.75,0,0,1,.13-.36.31.31,0,0,1,.35-.12c.15.07.19.26.21.42a24.2,24.2,0,0,1-.19,3.6c-.17,3-.07,2.52,2.18,2.58.17,0,.32,0,.52.37a6.89,6.89,0,0,1-3.09.1.42.42,0,0,1-.41-.47,19.76,19.76,0,0,0,.25-3.07c0-.53.07-1.06.09-1.59S5.27,201.33,5.32,200.86Z"/><path class="cls-5" d="M51.72,174.47a1,1,0,0,0-1.14.29,3.68,3.68,0,0,0-1.11,2.43.85.85,0,0,1-.78-.48c-.51-.89-1.13-1.24-1.61-.86-.64.51-.23,1.1,0,1.62.83,1.7,2.37,2.82,3.55,4.68.65-2.11.89-3.91,1.53-5.58a3.45,3.45,0,0,0,.15-.71c0-.12,0-.24,0-.36A1,1,0,0,0,51.72,174.47Z"/><path class="cls-4" d="M53.26,175.56c-.11.4-.24,1-.44,1.55a16,16,0,0,0-1.07,5.64,1.1,1.1,0,0,1-.18.85c-.3.32-.72.65-1,.05-.84-1.84-2.3-3.22-3.47-4.82a9.18,9.18,0,0,1-.72-1c-.41-.76-.77-1.62-.2-2.38a1.74,1.74,0,0,1,2.15-.39c.67.29,1,0,1.36-.46.15-.19.33-.36.49-.54.46-.51,1-.93,1.72-.61A2.36,2.36,0,0,1,53.26,175.56Zm-3.79,1.63a.85.85,0,0,1-.78-.48c-.51-.89-1.13-1.24-1.61-.86-.64.51-.23,1.1,0,1.62.83,1.7,2.37,2.82,3.55,4.68.65-2.11.89-3.91,1.53-5.58a3.45,3.45,0,0,0,.15-.71c0-.12,0-.24,0-.36a1,1,0,0,0-.61-1,1,1,0,0,0-1.14.29A3.68,3.68,0,0,0,49.47,177.19Z"/><path class="cls-2" d="M72,86.86a39.14,39.14,0,0,1,8.52.27c1.76.16,2.15.08,2.92-1.44a5.45,5.45,0,0,0,.47-1.63,32.67,32.67,0,0,0,.22-7c-.1-1.7-.23-1.82-1.92-1.84-4.9-.06-9.8.22-14.67-.57a6,6,0,0,0-.85,0c-1.76,0-1.83.12-2.2,1.85-.28,1.33.12,2.61.06,3.91-.09,2-.06,2,2.06,2.15.36,0,.83-.13,1,.58H65.09c-.33,0-.74-.15-.87.29a9.93,9.93,0,0,1-2.07,3.11,38.63,38.63,0,0,1,4.58.21A19.89,19.89,0,0,0,72,86.86Z"/><path class="cls-6" d="M83.54,87.81c2.35-.28,3.91-2.06,5.86-3.44-1.31.06-1.81-1-2.66-1.51-1.24-.74-.19-1.87-.47-2.77a4.91,4.91,0,0,1,0-1,5.36,5.36,0,0,0-1.3-3.54c0,2.22,0,4.41-.08,6.6a8.25,8.25,0,0,1-1.4,5C83.34,87.28,83.16,87.49,83.54,87.81Z"/><path class="cls-2" d="M82.65,109a67.31,67.31,0,0,0,.5-11.26c0-2.17,0-4.34,0-6.51-.06-2-.56-2.79-2.18-3.17a26.45,26.45,0,0,0-7.31-.68,36.18,36.18,0,0,1-7,0,30.4,30.4,0,0,0-5-.1,1.5,1.5,0,0,0-1.45,1,9.22,9.22,0,0,0-.79,4.16c.06,2.17.12,4.33.22,6.49.23,4.77,0,9.57.52,14.32.44,3.85.43,7.72.82,11.56.21,2,.3,2.12,2.16,2.68a58.12,58.12,0,0,0,6.52,1.38,40.12,40.12,0,0,0,11.58.06c1.33-.14,1.61-.56,1.43-1.78A77.09,77.09,0,0,1,82.65,109Z"/><path class="cls-6" d="M90.37,85c-.42-.09-.6.15-.84.3C87.74,86.46,86.11,88,84,88.61c-.61.2-.54.64-.51,1.1.1,1.48.24,3,.28,4.44a86.22,86.22,0,0,1-.06,9.91,151.85,151.85,0,0,0-.89,15.52,68.09,68.09,0,0,0,.68,7.66c.09.69.41.91,1,.58a28.82,28.82,0,0,0,3-1.69c2.78-2,2.75-2.18,2.92-5.63.18-3.64.38-7.28.43-10.92,0-2.11.28-4.2.33-6.31.13-4.85-.37-9.68-.4-14.52A8.64,8.64,0,0,0,90.37,85Z"/><path class="cls-3" d="M83.21,103.9c0-.63-.08-1.24-.06-1.49.09-1.3.18-2.6.28-3.9.06-.86.11-1.73.19-2.59s.41-2.07-.66-2.4a13,13,0,0,0-1.8-.21c-.63-.09-1.25-.16-1.89-.22-1.29-.13-2.6-.2-3.9-.25-3.11-.12-6.21-.29-9.32-.36l-3.6-.09c-.75,0-2.72-.45-3.09.44a1.94,1.94,0,0,0,0,1.12,24.62,24.62,0,0,1,0,4.78c0,1.93.14,3.87.08,5.8a.5.5,0,0,0,.06.32.42.42,0,0,0,.41.1,29.86,29.86,0,0,1,5.67.06c2.8.16,5.56.38,8.37.46l8.75.25C83.19,105.74,83.24,104.8,83.21,103.9Z"/><path class="cls-7" d="M91.44,99.89a.76.76,0,0,0-.13-.17v0a42.52,42.52,0,0,0-.17-7.57,1,1,0,0,0,0-.24.92.92,0,0,0,.1-.32,1,1,0,0,0-1.25-1.43,47.34,47.34,0,0,1-5.47,2.46,1.29,1.29,0,0,0-.32.19,1,1,0,0,0-.57,1.14,1.51,1.51,0,0,0,.11.22s0,0,0,.08c0,1.56,0,3.12,0,4.68a15.37,15.37,0,0,1-.36,4.28.88.88,0,0,0,0,.51s0,0,0,0l0,.06,0,0a.66.66,0,0,0-.11.36.74.74,0,0,0,0,.39l.1.23a1.06,1.06,0,0,0,.35.35l.23.09a.92.92,0,0,0,.52,0,1.22,1.22,0,0,0,.24-.1h0l.08-.07c2.13-1.28,4.28-2.53,6.39-3.86A1,1,0,0,0,91.44,99.89Z"/><path class="cls-2" d="M71.37,110.62c.36,0,.72.09,1.08.11a2,2,0,0,1,1.89,1.54,4.13,4.13,0,0,1,.24.83c0,.43.35.92,0,1.26s-.78-.14-1.18-.24a7.33,7.33,0,0,0-2.6,0c-.73.09-1.44.23-2.16.35-.31,0-.46,0-.49-.4A3.3,3.3,0,0,1,71.37,110.62Zm1.08,2.58a.67.67,0,0,0,.74.63c.35,0,.72-.14.67-.56s-.45-.52-.79-.58S72.46,112.84,72.45,113.2Zm-2.58.51a.6.6,0,0,0,.71-.52c0-.35-.18-.64-.56-.68a.6.6,0,0,0-.7.53C69.25,113.45,69.53,113.65,69.87,113.71Z"/><path class="cls-2" d="M68.05,112.08a1.06,1.06,0,0,0-1-.55,2,2,0,0,0-.42.09,3.5,3.5,0,0,0-2.31,2.45,4,4,0,0,0,3.4-1.18C67.93,112.67,68.29,112.4,68.05,112.08Z"/><path class="cls-2" d="M76.41,111c-.47-.12-.72.09-.93.5s-.31.69.07,1c.68.67,1.62.52,2.24.84.78,0,.92-.19.66-.71A3,3,0,0,0,76.41,111Z"/><path class="cls-8" d="M74.28,111.71a2.89,2.89,0,0,0-.91-.83c-.19-.11-.66-.36-.94-.27-.19-.14-.5.07-.35.31s-.2.86-.33,1.2a2.1,2.1,0,0,0-.07,1.42c.16.47.62.63,1.07.74a1.48,1.48,0,0,0,1.34-.28,1.51,1.51,0,0,0,.62-1.13A2,2,0,0,0,74.28,111.71Z"/><path class="cls-8" d="M66.63,113.84a1.82,1.82,0,0,1-.54.27,1.17,1.17,0,0,1-.26.1.22.22,0,0,1-.16,0,.24.24,0,0,1-.32,0,.62.62,0,0,1-.13-.62,2.8,2.8,0,0,1,.32-.52.43.43,0,0,0,0-.07s0-.06,0,0,0-.1,0-.14a.4.4,0,0,1,.28-.19.6.6,0,0,1,.61.13.85.85,0,0,1,.24.47A.6.6,0,0,1,66.63,113.84Z"/><path class="cls-5" d="M72,114.41a7,7,0,0,1,3.72,1.16,2.62,2.62,0,0,1,1.28,2.6A1.93,1.93,0,0,1,75.56,120a11.69,11.69,0,0,1-4,.7,12.32,12.32,0,0,1-3.75-.66c-.66-.17-.91-.71-1.19-1.21a2.81,2.81,0,0,1,1.69-3.93A19.84,19.84,0,0,1,72,114.41Zm-1.65,2.23c0-.58-.46-1.09-.89-1a1.06,1.06,0,0,0-.83,1,1,1,0,0,0,.86,1A.88.88,0,0,0,70.38,116.64Zm2.68,2.12a2.3,2.3,0,0,1-2.9.16A1.65,1.65,0,0,0,73.06,118.76Zm-.61-2.12a1.18,1.18,0,0,0,1,1.11,1.05,1.05,0,0,0,.94-.88,1.26,1.26,0,0,0-.86-1.22A1,1,0,0,0,72.45,116.64Z"/><path class="cls-8" d="M69.56,116.05c-.36,0-.44.34-.47.62s.14.47.44.49a.41.41,0,0,0,.46-.47C70,116.39,69.92,116.06,69.56,116.05Z"/><path class="cls-8" d="M73.48,117.36c.33,0,.58-.18.53-.54a.74.74,0,0,0-.59-.75c-.25.15-.59.3-.58.68A.61.61,0,0,0,73.48,117.36Z"/><path class="cls-8" d="M68.63,111.53c.29-.23.4-.52.09-.83a3.38,3.38,0,0,1-1.09-3,3,3,0,0,0,.26,3.7C68.11,111.58,68.34,111.76,68.63,111.53Z"/><path class="cls-8" d="M75.78,107.6c-.5,1.14-.78,2.35-1.89,3.05l.79,1.15A4.38,4.38,0,0,0,75.78,107.6Z"/><path class="cls-8" d="M73.18,113.48a.2.2,0,0,0,.23-.15c0-.15-.09-.19-.2-.19s-.23,0-.24.14S73.06,113.47,73.18,113.48Z"/><path class="cls-8" d="M69.92,113.32c.13,0,.18-.06.21-.16s0-.19-.15-.21a.17.17,0,0,0-.22.16C69.72,113.24,69.81,113.29,69.92,113.32Z"/><path class="cls-4" d="M91,83.32c0,2.52.53,4.85.42,7.27-.14,2.85.36,5.68.35,8.54,0,3.48-.1,7-.32,10.42a9,9,0,0,0-.09,1c.16,4.18-.55,8.32-.4,12.48a2,2,0,0,1-1.35,2.33,26.55,26.55,0,0,0-4,2.65,10.26,10.26,0,0,1-5.13,1.55c-1.41.08-2.85.14-4.25.23a44,44,0,0,1-10.18-1c-1.84-.31-3.54-1.21-5.42-1.36-.32,0-.38-.34-.38-.66-.07-2.79-.13-5.58-.23-8.37-.06-1.82-.34-3.62-.47-5.44-.26-3.8-.42-7.61-.41-11.42,0-2.63-.18-5.25-.33-7.87a19,19,0,0,1,.43-4.93,4.2,4.2,0,0,1,2.17-3.11,4.07,4.07,0,0,0,2.2-4c0-1.2,0-2.4,0-3.6a10.54,10.54,0,0,1,.49-3.18c.29-.89.65-1,1.45-.93,4.15.34,8.29.66,12.46.61a36.19,36.19,0,0,0,5.8-.28,1.71,1.71,0,0,1,2,1,7.55,7.55,0,0,1,1.07,3.21c0,.51.06,1,.08,1.54C87,82.71,88.21,83.74,91,83.32ZM83.15,97.74c0-2.17,0-4.34,0-6.51-.06-2-.56-2.79-2.18-3.17a26.45,26.45,0,0,0-7.31-.68,36.18,36.18,0,0,1-7,0,30.4,30.4,0,0,0-5-.1,1.5,1.5,0,0,0-1.45,1,9.22,9.22,0,0,0-.79,4.16c.06,2.17.12,4.33.22,6.49.23,4.77,0,9.57.52,14.32.44,3.85.43,7.72.82,11.56.21,2,.3,2.12,2.16,2.68a58.12,58.12,0,0,0,6.52,1.38,40.12,40.12,0,0,0,11.58.06c1.33-.14,1.61-.56,1.43-1.78A77.09,77.09,0,0,1,82.65,109,67.31,67.31,0,0,0,83.15,97.74ZM90.37,85c-.42-.09-.6.15-.84.3C87.74,86.46,86.11,88,84,88.61c-.61.2-.54.64-.51,1.1.1,1.48.24,3,.28,4.44a86.22,86.22,0,0,1-.06,9.91,151.85,151.85,0,0,0-.89,15.52,68.09,68.09,0,0,0,.68,7.66c.09.69.41.91,1,.58a28.82,28.82,0,0,0,3-1.69c2.78-2,2.75-2.18,2.92-5.63.18-3.64.38-7.28.43-10.92,0-2.11.28-4.2.33-6.31.13-4.85-.37-9.68-.4-14.52A8.64,8.64,0,0,0,90.37,85ZM62.15,86.53a38.63,38.63,0,0,1,4.58.21,19.89,19.89,0,0,0,5.28.12,39.14,39.14,0,0,1,8.52.27c1.76.16,2.15.08,2.92-1.44a5.45,5.45,0,0,0,.47-1.63,32.67,32.67,0,0,0,.22-7c-.1-1.7-.23-1.82-1.92-1.84-4.9-.06-9.8.22-14.67-.57a6,6,0,0,0-.85,0c-1.76,0-1.83.12-2.2,1.85-.28,1.33.12,2.61.06,3.91-.09,2-.06,2,2.06,2.15.36,0,.83-.13,1,.58H65.09c-.33,0-.74-.15-.87.29A9.93,9.93,0,0,1,62.15,86.53ZM89.4,84.37c-1.31.06-1.81-1-2.66-1.51-1.24-.74-.19-1.87-.47-2.77a4.91,4.91,0,0,1,0-1,5.36,5.36,0,0,0-1.3-3.54c0,2.22,0,4.41-.08,6.6a8.25,8.25,0,0,1-1.4,5c-.12.16-.3.37.08.69C85.89,87.53,87.45,85.75,89.4,84.37Z"/><path class="cls-4" d="M89.25,117.66a7,7,0,0,1-.53,5.06C88.78,121,89.26,119.36,89.25,117.66Z"/><path class="cls-4" d="M85.78,125a10.56,10.56,0,0,0,.2-2.79C86.78,123.26,86.77,123.45,85.78,125Z"/><path class="cls-4" d="M88.08,120.81a3.63,3.63,0,0,1-.71,2.61l.33-2.64Z"/><path class="cls-4" d="M76.83,83.41a17.6,17.6,0,0,1,6.16.64A14.2,14.2,0,0,1,76.83,83.41Z"/><path class="cls-4" d="M82,81.36a33.88,33.88,0,0,0,.26-3.89A4,4,0,0,1,82,81.36Z"/><path class="cls-4" d="M74.13,83.19a7.06,7.06,0,0,1-2.74,0C72.15,82.52,72.15,82.52,74.13,83.19Z"/><path class="cls-4" d="M80.9,79.28a1.61,1.61,0,0,1-.35,2.13C80.66,80.7,80.78,80,80.9,79.28Z"/><path class="cls-4" d="M79.1,80.11a1.79,1.79,0,0,1-.25,1.57C78.54,81.15,78.79,80.74,79.1,80.11Z"/><path class="cls-4" d="M63.12,95.18l.08,0a.47.47,0,0,1,.06.19c0,.26.48,3.38.84,3.19a4.47,4.47,0,0,0,1.71-1.77,8,8,0,0,1,.73-1.15c.32-.37.83-.4.86.16.14,2.15.71,4.26.7,6.43,0,.3,0,.61-.44.54s-.31-.39-.29-.67a19.48,19.48,0,0,0-.63-5.52l-2.26,2.76c-1,1.22-1.31-1.32-1.51-1.85a.26.26,0,0,0-.09-.14c-.27-.17-.39,1.19-.44,1.41a13.2,13.2,0,0,0-.32,1.35c-.08.71-.2,1.37-.22,2.09a.86.86,0,0,1,0,.32.29.29,0,0,1-.26.16c-.19,0-.23-.28-.22-.47a26.71,26.71,0,0,1,.4-3.57A12.34,12.34,0,0,1,62.21,97a15.68,15.68,0,0,1,.46-1.52.57.57,0,0,1,.21-.27A.26.26,0,0,1,63.12,95.18Z"/><path class="cls-4" d="M78,95.75c0,.48,0,1,0,1.44.07,1.21.94,1,1.52.32a3,3,0,0,0,.64-1.36,1.61,1.61,0,0,1,.46-.87.29.29,0,0,1,.26-.08c.14.06.14.24.11.38a5,5,0,0,1-1.72,2.84c-.45.41-.4.72-.05,1.15a15.5,15.5,0,0,0,1.1,1.19c.3.3.7.45,1,.76a.84.84,0,0,1,.24.43c.13,1.06-1.24-.25-1.39-.4a6.85,6.85,0,0,0-1.76-1.64,3.77,3.77,0,0,0-.18,2.1c0,.29,0,.61-.39.58s-.31-.29-.3-.52c.09-2,0-4.09-.09-6.15,0-.18,0-1.1.36-.88C78,95.12,78,95.59,78,95.75Z"/><path class="cls-4" d="M69,95.61a.42.42,0,0,1,0-.15l2.33-.15a1,1,0,0,1,.62.1c.73.49-.46.49-.64.51-.35,0-.49.22-.46.56.15,1.71.06,3.51.37,5.2,0,.22.29.33.5.38a1.08,1.08,0,0,1,.62.22s0,.06,0,.09-.12.15-.22.16a12,12,0,0,1-2.61,0,.29.29,0,0,1-.1,0,.14.14,0,0,1,0-.22.69.69,0,0,1,.25,0c.86,0,.88-1,.82-1.67a22.3,22.3,0,0,1-.19-3c0-.36,0-1.46-.4-1.6S69.25,96,69,95.61Z"/><path class="cls-4" d="M73.59,95.84a.17.17,0,0,1,0-.07.75.75,0,0,1,.13-.36.31.31,0,0,1,.34-.12c.15.07.19.26.21.42a21.78,21.78,0,0,1-.19,3.6c-.17,3-.07,2.53,2.18,2.58.17,0,.33,0,.52.37a6.89,6.89,0,0,1-3.09.1.44.44,0,0,1-.41-.47,19.77,19.77,0,0,0,.26-3.07c0-.53.06-1.06.08-1.59S73.54,96.31,73.59,95.84Z"/><path class="cls-4" d="M75,112.75c0,.71.2,1.24.11,1.79-.07.35.28.34.49.46a3.18,3.18,0,0,1,1.45,4.22,1.74,1.74,0,0,1-.83.82,10.88,10.88,0,0,1-8.73.27,2.38,2.38,0,0,1-1.43-2.5c0-1.16.12-2.38,1.35-3,.48-.26.23-.69.36-1.22-.69.28-1.25.49-1.79.73a2.72,2.72,0,0,1-1.29.21c-.8,0-.93-.22-.62-.94a4.23,4.23,0,0,1,2.11-2.14c.79-.4.78-.4.65-1.25a4.87,4.87,0,0,1,.63-3.38c.25-.39.49-.71,1-.66.06.45-.22.72-.35,1a2.77,2.77,0,0,0,.76,3.2c.2.16.39.32.69.17a4.36,4.36,0,0,1,3-.17,1.82,1.82,0,0,0,2-.84,4,4,0,0,0,.72-2.27c0-.24-.14-.58.21-.64s.44.23.55.45a2.24,2.24,0,0,1,.32,1.58c-.07.28-.09.57-.16.86-.2.93-.21.93.7,1.26a4,4,0,0,1,2.08,2c.24.45.09.77-.4.93a1.52,1.52,0,0,1-.87,0A7.3,7.3,0,0,1,75,112.75Zm-3.45,8a11.69,11.69,0,0,0,4-.7A1.93,1.93,0,0,0,77,118.17a2.62,2.62,0,0,0-1.28-2.6A7,7,0,0,0,72,114.41a19.84,19.84,0,0,0-3.69.49,2.81,2.81,0,0,0-1.69,3.93c.28.5.53,1,1.19,1.21A12.32,12.32,0,0,0,71.59,120.7Zm-.22-10.08a3.3,3.3,0,0,0-3.23,3.45c0,.35.18.45.49.4.72-.12,1.43-.26,2.16-.35a7.33,7.33,0,0,1,2.6,0c.4.1.77.63,1.18.24s.05-.83,0-1.26a4.13,4.13,0,0,0-.24-.83,2,2,0,0,0-1.89-1.54C72.09,110.71,71.73,110.66,71.37,110.62Zm-7.06,3.45a4,4,0,0,0,3.4-1.18c.22-.22.58-.49.34-.81a1.06,1.06,0,0,0-1-.55,2,2,0,0,0-.42.09A3.5,3.5,0,0,0,64.31,114.07Zm13.48-.7c.78,0,.92-.19.66-.71a3,3,0,0,0-2-1.68c-.47-.12-.72.09-.93.5s-.31.69.07,1C76.23,113.2,77.17,113.05,77.79,113.37Zm-3.11-1.57a4.38,4.38,0,0,0,1.1-4.2c-.5,1.14-.78,2.35-1.89,3.05Zm-7.05-4.15a3,3,0,0,0,.26,3.7c.22.23.45.41.74.18s.4-.52.09-.83A3.38,3.38,0,0,1,67.63,107.65Z"/><path class="cls-4" d="M74.36,116.87a1.05,1.05,0,0,1-.94.88,1.18,1.18,0,0,1-1-1.11,1,1,0,0,1,1-1A1.26,1.26,0,0,1,74.36,116.87Zm-.94-.8c-.25.15-.59.3-.58.68a.61.61,0,0,0,.64.61c.33,0,.58-.18.53-.54A.74.74,0,0,0,73.42,116.07Z"/><path class="cls-4" d="M70.38,116.64a.88.88,0,0,1-.86.91,1,1,0,0,1-.86-1,1.06,1.06,0,0,1,.83-1C69.92,115.55,70.37,116.06,70.38,116.64Zm-.85.52a.41.41,0,0,0,.46-.47c0-.3-.07-.63-.43-.64s-.44.34-.47.62S69.23,117.14,69.53,117.16Z"/><path class="cls-4" d="M73.06,118.76a1.65,1.65,0,0,1-2.9.16A2.3,2.3,0,0,0,73.06,118.76Z"/><path class="cls-4" d="M70.58,113.19a.6.6,0,0,1-.71.52c-.34-.06-.62-.26-.55-.67a.6.6,0,0,1,.7-.53C70.4,112.55,70.55,112.84,70.58,113.19Zm-.66.13c.13,0,.18-.06.21-.16s0-.19-.15-.21a.17.17,0,0,0-.22.16C69.72,113.24,69.81,113.29,69.92,113.32Z"/><path class="cls-4" d="M73.07,112.69c.34.06.74.15.79.58s-.32.53-.67.56a.67.67,0,0,1-.74-.63C72.46,112.84,72.71,112.71,73.07,112.69Zm.34.64c0-.15-.09-.19-.2-.19s-.23,0-.24.14.09.19.21.2A.2.2,0,0,0,73.41,113.33Z"/><path class="cls-5" d="M120,69.45a1,1,0,0,0-1.14.29,3.65,3.65,0,0,0-1.12,2.43.83.83,0,0,1-.77-.48c-.52-.88-1.14-1.24-1.62-.86-.64.51-.23,1.1,0,1.63.83,1.69,2.37,2.81,3.54,4.67.65-2.11.89-3.91,1.54-5.58a4.25,4.25,0,0,0,.14-.71,2.17,2.17,0,0,0,0-.36A1.08,1.08,0,0,0,120,69.45Z"/><path class="cls-4" d="M121.53,70.54c-.12.4-.25,1-.45,1.56A15.67,15.67,0,0,0,120,77.73a1.1,1.1,0,0,1-.19.85c-.3.32-.71.65-1,0-.85-1.84-2.31-3.22-3.48-4.82a10.59,10.59,0,0,1-.71-1,2.11,2.11,0,0,1-.2-2.38A1.74,1.74,0,0,1,116.6,70c.67.29,1,0,1.36-.46.15-.19.32-.36.48-.54.46-.51,1-.93,1.72-.61A2.38,2.38,0,0,1,121.53,70.54Zm-3.8,1.63a.83.83,0,0,1-.77-.48c-.52-.88-1.14-1.24-1.62-.86-.64.51-.23,1.1,0,1.63.83,1.69,2.37,2.81,3.54,4.67.65-2.11.89-3.91,1.54-5.58a4.25,4.25,0,0,0,.14-.71,2.17,2.17,0,0,0,0-.36,1.08,1.08,0,0,0-.61-1,1,1,0,0,0-1.14.29A3.65,3.65,0,0,0,117.73,72.17Z"/><path class="cls-5" d="M20.83,108.59a1,1,0,0,0-1.13.29,3.65,3.65,0,0,0-1.12,2.43.9.9,0,0,1-.78-.48c-.51-.89-1.13-1.24-1.61-.86-.64.51-.23,1.1,0,1.62.83,1.7,2.37,2.81,3.54,4.68.65-2.11.89-3.91,1.54-5.59a4.06,4.06,0,0,0,.14-.71,2.14,2.14,0,0,0,0-.36A1.05,1.05,0,0,0,20.83,108.59Z"/><path class="cls-4" d="M22.38,109.68c-.12.4-.25,1-.45,1.55a15.75,15.75,0,0,0-1.06,5.63,1.16,1.16,0,0,1-.19.86c-.3.32-.72.65-1,0-.85-1.83-2.31-3.22-3.48-4.82a11.79,11.79,0,0,1-.71-1c-.42-.76-.77-1.63-.2-2.38a1.73,1.73,0,0,1,2.15-.4c.67.29,1,0,1.36-.45.15-.19.32-.36.48-.54.46-.52,1-.94,1.72-.62A2.39,2.39,0,0,1,22.38,109.68Zm-3.8,1.63a.9.9,0,0,1-.78-.48c-.51-.89-1.13-1.24-1.61-.86-.64.51-.23,1.1,0,1.62.83,1.7,2.37,2.81,3.54,4.68.65-2.11.89-3.91,1.54-5.59a4.06,4.06,0,0,0,.14-.71,2.14,2.14,0,0,0,0-.36,1.06,1.06,0,0,0-.61-1,1,1,0,0,0-1.14.29A3.65,3.65,0,0,0,18.58,111.31Z"/><path class="cls-5" d="M114.57,143.17a1,1,0,0,0-1.14.29,3.68,3.68,0,0,0-1.11,2.43.85.85,0,0,1-.78-.48c-.51-.89-1.13-1.24-1.61-.86-.64.51-.23,1.1,0,1.62.83,1.7,2.37,2.82,3.55,4.68.65-2.11.89-3.91,1.53-5.59a3.36,3.36,0,0,0,.15-.7c0-.12,0-.24,0-.36A1,1,0,0,0,114.57,143.17Z"/><path class="cls-4" d="M116.11,144.26c-.11.4-.24,1-.44,1.55a16,16,0,0,0-1.07,5.63,1.11,1.11,0,0,1-.18.86c-.3.32-.72.65-1,0-.84-1.84-2.3-3.22-3.47-4.82a9.18,9.18,0,0,1-.72-1c-.41-.76-.77-1.62-.2-2.38a1.74,1.74,0,0,1,2.15-.39c.67.28,1,0,1.36-.46.15-.19.33-.36.49-.54.46-.51,1-.94,1.72-.62A2.36,2.36,0,0,1,116.11,144.26Zm-3.79,1.63a.85.85,0,0,1-.78-.48c-.51-.89-1.13-1.24-1.61-.86-.64.51-.23,1.1,0,1.62.83,1.7,2.37,2.82,3.55,4.68.65-2.11.89-3.91,1.53-5.59a3.36,3.36,0,0,0,.15-.7c0-.12,0-.24,0-.36a1,1,0,0,0-.61-1,1,1,0,0,0-1.14.29A3.68,3.68,0,0,0,112.32,145.89Z"/><path class="cls-5" d="M38.13,58.53a1,1,0,0,0-1.14.29,3.65,3.65,0,0,0-1.12,2.44.85.85,0,0,1-.77-.49c-.52-.88-1.14-1.24-1.62-.86-.64.52-.23,1.1,0,1.63.83,1.7,2.37,2.81,3.54,4.67.65-2.11.89-3.9,1.54-5.58a4.06,4.06,0,0,0,.14-.71,2.17,2.17,0,0,0,0-.36A1.08,1.08,0,0,0,38.13,58.53Z"/><path class="cls-4" d="M39.67,59.63c-.12.4-.25,1-.45,1.55a15.67,15.67,0,0,0-1.06,5.63,1.13,1.13,0,0,1-.19.86c-.3.32-.71.64-1,0-.85-1.84-2.31-3.22-3.47-4.82a9.18,9.18,0,0,1-.72-1,2.11,2.11,0,0,1-.2-2.38,1.74,1.74,0,0,1,2.15-.39c.67.29,1,0,1.36-.46.15-.18.32-.35.48-.53.46-.52,1-.94,1.72-.62A2.39,2.39,0,0,1,39.67,59.63Zm-3.8,1.63a.85.85,0,0,1-.77-.49c-.52-.88-1.14-1.24-1.62-.86-.64.52-.23,1.1,0,1.63.83,1.7,2.37,2.81,3.54,4.67.65-2.11.89-3.9,1.54-5.58a4.06,4.06,0,0,0,.14-.71,2.17,2.17,0,0,0,0-.36,1.08,1.08,0,0,0-.61-1,1,1,0,0,0-1.14.29A3.65,3.65,0,0,0,35.87,61.26Z"/><path class="cls-2" d="M150.91,4a66.26,66.26,0,0,0,.5-11.26c0-2.17.05-4.34,0-6.51-.06-2-.56-2.79-2.18-3.17a26.41,26.41,0,0,0-7.3-.68,36.28,36.28,0,0,1-7,0,29.32,29.32,0,0,0-5-.09,1.46,1.46,0,0,0-1.44,1,9.23,9.23,0,0,0-.8,4.16c.06,2.17.13,4.33.23,6.49.22,4.77,0,9.57.52,14.33.43,3.84.42,7.71.82,11.55.2,2,.29,2.12,2.16,2.68A58,58,0,0,0,138,23.79a40.19,40.19,0,0,0,11.59.06c1.33-.14,1.6-.56,1.43-1.78A77.09,77.09,0,0,1,150.91,4Z"/><path class="cls-3" d="M151.48-1.12c0-.63-.09-1.24-.07-1.49.1-1.3.19-2.6.28-3.9.06-.86.11-1.73.19-2.59s.41-2.07-.65-2.4a13.4,13.4,0,0,0-1.8-.21c-.63-.09-1.26-.16-1.89-.22-1.3-.13-2.61-.2-3.91-.25-3.11-.12-6.2-.29-9.31-.36l-3.61-.09c-.74,0-2.71-.45-3.08.44a1.94,1.94,0,0,0,0,1.12,23.85,23.85,0,0,1,0,4.78c0,1.93.14,3.87.08,5.8a.51.51,0,0,0,.07.32.44.44,0,0,0,.4.11,29,29,0,0,1,5.67,0c2.8.16,5.56.38,8.37.46L151,.7C151.46.72,151.51-.22,151.48-1.12Z"/><path class="cls-2" d="M139.63,5.6c.36,0,.73.09,1.09.11a2,2,0,0,1,1.88,1.54,3.57,3.57,0,0,1,.24.83c0,.43.35.92,0,1.26s-.79-.14-1.18-.24a7.38,7.38,0,0,0-2.61,0c-.72.09-1.44.23-2.15.35-.32.05-.47,0-.49-.4A3.3,3.3,0,0,1,139.63,5.6Zm1.08,2.58a.68.68,0,0,0,.75.63c.34,0,.71-.14.67-.56s-.46-.52-.8-.58S140.73,7.82,140.71,8.18Zm-2.58.51a.59.59,0,0,0,.71-.52c0-.35-.18-.64-.55-.68a.59.59,0,0,0-.7.53C137.52,8.43,137.8,8.63,138.13,8.69Z"/><path class="cls-2" d="M136.31,7.06a1.06,1.06,0,0,0-1-.55,1.93,1.93,0,0,0-.43.09,3.52,3.52,0,0,0-2.31,2.45A4,4,0,0,0,136,7.87C136.2,7.65,136.55,7.38,136.31,7.06Z"/><path class="cls-8" d="M134.89,8.82a1.77,1.77,0,0,1-.53.27,1.48,1.48,0,0,1-.27.1.22.22,0,0,1-.16,0,.24.24,0,0,1-.32,0,.62.62,0,0,1-.13-.62A2.8,2.8,0,0,1,133.8,8l0-.06V8a.59.59,0,0,1,.06-.14.4.4,0,0,1,.27-.19.6.6,0,0,1,.61.13.94.94,0,0,1,.25.47A.61.61,0,0,1,134.89,8.82Z"/><path class="cls-5" d="M140.29,9.39A7,7,0,0,1,144,10.55a2.62,2.62,0,0,1,1.29,2.6A1.94,1.94,0,0,1,143.83,15a11.73,11.73,0,0,1-4,.7,12.27,12.27,0,0,1-3.75-.66c-.66-.17-.92-.71-1.2-1.21a2.82,2.82,0,0,1,1.69-3.93A20,20,0,0,1,140.29,9.39Zm-1.64,2.23c0-.58-.46-1.09-.9-1a1,1,0,0,0-.82,1,1,1,0,0,0,.85,1A.89.89,0,0,0,138.65,11.62Zm2.68,2.12a2.32,2.32,0,0,1-2.91.16A1.66,1.66,0,0,0,141.33,13.74Zm-.62-2.12a1.2,1.2,0,0,0,1,1.11,1.07,1.07,0,0,0,.95-.88,1.27,1.27,0,0,0-.87-1.22A1,1,0,0,0,140.71,11.62Z"/><path class="cls-8" d="M136.9,6.51c.28-.23.39-.52.08-.83a3.38,3.38,0,0,1-1.09-3,3,3,0,0,0,.26,3.7C136.38,6.56,136.61,6.74,136.9,6.51Z"/><path class="cls-4" d="M159.27-21.7c0,2.52.53,4.85.41,7.27-.14,2.85.37,5.68.35,8.54,0,3.48-.09,7-.32,10.42,0,.34-.1.69-.09,1,.16,4.17-.54,8.31-.39,12.47a2,2,0,0,1-1.36,2.33,27,27,0,0,0-4,2.65,10.3,10.3,0,0,1-5.14,1.55c-1.41.08-2.84.14-4.25.23a44,44,0,0,1-10.18-1c-1.84-.31-3.53-1.21-5.42-1.36-.32,0-.37-.34-.38-.66q-.09-4.18-.22-8.37c-.06-1.82-.35-3.62-.48-5.44-.26-3.8-.41-7.61-.4-11.42,0-2.63-.19-5.25-.34-7.87a19,19,0,0,1,.44-4.93,4.15,4.15,0,0,1,2.17-3.11,4.08,4.08,0,0,0,2.19-3.95c0-1.2,0-2.4,0-3.6a10.56,10.56,0,0,1,.5-3.18c.28-.89.65-1,1.44-.93,4.15.34,8.3.66,12.46.61a36.31,36.31,0,0,0,5.81-.28,1.71,1.71,0,0,1,1.95,1,7.55,7.55,0,0,1,1.07,3.21c.05.51.05,1,.07,1.54C155.28-22.31,156.48-21.28,159.27-21.7ZM151.41-7.28c0-2.17.05-4.34,0-6.51-.06-2-.56-2.79-2.18-3.17a26.41,26.41,0,0,0-7.3-.68,36.28,36.28,0,0,1-7,0,29.32,29.32,0,0,0-5-.09,1.46,1.46,0,0,0-1.44,1,9.23,9.23,0,0,0-.8,4.16c.06,2.17.13,4.33.23,6.49.22,4.77,0,9.57.52,14.33.43,3.84.42,7.71.82,11.55.2,2,.29,2.12,2.16,2.68A58,58,0,0,0,138,23.79a40.19,40.19,0,0,0,11.59.06c1.33-.14,1.6-.56,1.43-1.78A77.09,77.09,0,0,1,150.91,4,66.26,66.26,0,0,0,151.41-7.28Zm7.22-12.78c-.42-.09-.6.15-.83.3-1.8,1.2-3.42,2.69-5.54,3.35-.61.2-.53.64-.5,1.1.1,1.48.23,3,.28,4.44A91,91,0,0,1,152-1a146.35,146.35,0,0,0-.89,15.52,68.07,68.07,0,0,0,.67,7.66c.1.69.42.91,1,.58a26.94,26.94,0,0,0,3-1.69c2.78-2,2.75-2.18,2.93-5.63.18-3.64.37-7.28.43-10.92,0-2.11.27-4.2.33-6.31.12-4.85-.38-9.68-.4-14.52A8.8,8.8,0,0,0,158.63-20.06Zm-28.22,1.57a38.52,38.52,0,0,1,4.58.21,19.48,19.48,0,0,0,5.28.12,39.12,39.12,0,0,1,8.52.27c1.77.17,2.16.08,2.93-1.44a5.66,5.66,0,0,0,.47-1.63,34,34,0,0,0,.22-7c-.1-1.7-.23-1.82-1.93-1.84-4.89-.06-9.8.22-14.67-.57a6,6,0,0,0-.85,0c-1.76,0-1.83.12-2.2,1.85-.27,1.33.12,2.61.06,3.91-.09,2,0,2,2.06,2.15.36,0,.84-.13,1,.58h-2.52c-.33,0-.73-.16-.87.28A9.76,9.76,0,0,1,130.41-18.49Zm27.26-2.16c-1.31.06-1.81-1-2.67-1.51-1.24-.73-.18-1.86-.46-2.77a4.9,4.9,0,0,1,0-1,5.4,5.4,0,0,0-1.29-3.54c0,2.22,0,4.41-.09,6.6a8.31,8.31,0,0,1-1.39,5c-.12.16-.31.37.08.69C154.16-17.49,155.72-19.27,157.67-20.65Z"/><path class="cls-4" d="M143.3,7.73a15.25,15.25,0,0,1,.11,1.79c-.06.35.28.35.5.46a3.18,3.18,0,0,1,1.45,4.22,1.74,1.74,0,0,1-.83.82,10.92,10.92,0,0,1-8.73.28,2.39,2.39,0,0,1-1.44-2.51c0-1.16.13-2.38,1.35-3,.48-.26.23-.69.36-1.22-.69.28-1.25.49-1.79.73a2.68,2.68,0,0,1-1.28.21c-.81,0-.94-.22-.63-.94a4.25,4.25,0,0,1,2.12-2.14c.79-.4.77-.4.65-1.25a4.77,4.77,0,0,1,.63-3.38c.24-.38.48-.71,1-.66.06.45-.22.73-.35,1.05a2.75,2.75,0,0,0,.77,3.2c.19.16.38.32.68.17a4.37,4.37,0,0,1,3-.17,1.81,1.81,0,0,0,2-.84,4,4,0,0,0,.73-2.27c0-.24-.15-.58.21-.64s.44.23.55.45a2.24,2.24,0,0,1,.31,1.58c-.07.28-.09.58-.15.86-.21.93-.21.93.69,1.27a3.93,3.93,0,0,1,2.08,2c.25.45.09.77-.39.93a1.52,1.52,0,0,1-.87,0A7.34,7.34,0,0,1,143.3,7.73Zm-3.44,8a11.73,11.73,0,0,0,4-.7,1.94,1.94,0,0,0,1.47-1.83,2.62,2.62,0,0,0-1.29-2.6,7,7,0,0,0-3.72-1.16,20,20,0,0,0-3.69.49,2.82,2.82,0,0,0-1.69,3.93c.28.5.54,1,1.2,1.21A12.27,12.27,0,0,0,139.86,15.68ZM139.63,5.6a3.3,3.3,0,0,0-3.22,3.45c0,.35.17.45.49.4.71-.12,1.43-.26,2.15-.35a7.38,7.38,0,0,1,2.61,0c.39.1.77.63,1.18.24s0-.83,0-1.26a3.57,3.57,0,0,0-.24-.83,2,2,0,0,0-1.88-1.54C140.36,5.69,140,5.64,139.63,5.6Zm-7.06,3.45A4,4,0,0,0,136,7.87c.23-.22.58-.49.34-.81a1.08,1.08,0,0,0-1-.55,1.93,1.93,0,0,0-.43.09A3.52,3.52,0,0,0,132.57,9.05Zm13.48-.7c.78,0,.92-.19.66-.71a3,3,0,0,0-2-1.68c-.48-.12-.73.09-.94.5s-.3.69.07,1C144.5,8.18,145.44,8,146.05,8.35Zm-3.11-1.57a4.36,4.36,0,0,0,1.1-4.2c-.49,1.14-.78,2.35-1.88,3.05Zm-7.05-4.15a3,3,0,0,0,.26,3.7c.23.23.46.41.75.18s.39-.52.08-.83A3.38,3.38,0,0,1,135.89,2.63Z"/><path class="cls-5" d="M89.1,3.57A1,1,0,0,0,88,3.86a3.74,3.74,0,0,0-1.12,2.43.86.86,0,0,1-.77-.48c-.51-.89-1.14-1.24-1.61-.86-.65.51-.24,1.1,0,1.62.83,1.7,2.37,2.81,3.55,4.68.64-2.11.89-3.91,1.53-5.59A2.79,2.79,0,0,0,89.7,5a2.14,2.14,0,0,0,0-.36A1.07,1.07,0,0,0,89.1,3.57Z"/><path class="cls-4" d="M90.64,4.66c-.11.4-.25,1-.44,1.55a15.55,15.55,0,0,0-1.07,5.63,1.11,1.11,0,0,1-.19.86c-.3.32-.71.65-1,0-.85-1.83-2.31-3.22-3.47-4.82a10,10,0,0,1-.72-1c-.41-.76-.77-1.63-.2-2.38a1.72,1.72,0,0,1,2.15-.39c.67.28,1,0,1.36-.46.15-.19.32-.36.48-.54.47-.52,1-.94,1.72-.62A2.37,2.37,0,0,1,90.64,4.66Zm-3.8,1.63a.86.86,0,0,1-.77-.48c-.51-.89-1.14-1.24-1.61-.86-.65.51-.24,1.1,0,1.62.83,1.7,2.37,2.81,3.55,4.68.64-2.11.89-3.91,1.53-5.59A2.79,2.79,0,0,0,89.7,5a2.14,2.14,0,0,0,0-.36,1.07,1.07,0,0,0-.61-1A1,1,0,0,0,88,3.86,3.74,3.74,0,0,0,86.84,6.29Z"/><path class="cls-2" d="M14.38,4a67.31,67.31,0,0,0,.51-11.26c0-2.17,0-4.34,0-6.51-.06-2-.56-2.79-2.18-3.17a26.38,26.38,0,0,0-7.3-.68,36.18,36.18,0,0,1-7,0,29.35,29.35,0,0,0-5-.09A1.47,1.47,0,0,0-8-16.8a9.08,9.08,0,0,0-.79,4.16q.07,3.25.22,6.49c.23,4.77,0,9.57.52,14.33.43,3.84.42,7.71.82,11.55.2,2,.3,2.12,2.16,2.68a58,58,0,0,0,6.51,1.38A40.19,40.19,0,0,0,13,23.85c1.33-.14,1.61-.56,1.43-1.78A77.09,77.09,0,0,1,14.38,4Z"/><path class="cls-6" d="M22.1-20.06c-.41-.09-.6.15-.83.3-1.8,1.2-3.42,2.69-5.54,3.35-.61.2-.53.64-.5,1.1.1,1.48.23,3,.28,4.44A88.55,88.55,0,0,1,15.45-1a149,149,0,0,0-.89,15.52,68.07,68.07,0,0,0,.67,7.66c.1.69.42.91,1,.58a26,26,0,0,0,3-1.69c2.79-2,2.75-2.18,2.93-5.63.18-3.64.38-7.28.43-10.92,0-2.11.27-4.2.33-6.31.12-4.85-.38-9.68-.4-14.52A8.8,8.8,0,0,0,22.1-20.06Z"/><path class="cls-3" d="M15-1.12c0-.63-.08-1.24-.07-1.49.1-1.3.19-2.6.28-3.9.06-.86.12-1.73.2-2.59s.4-2.07-.66-2.4a13.4,13.4,0,0,0-1.8-.21c-.63-.09-1.26-.16-1.89-.22-1.3-.13-2.6-.2-3.91-.25C4-12.3.9-12.47-2.21-12.54l-3.6-.09c-.75,0-2.72-.45-3.09.44a2,2,0,0,0,0,1.12,23.13,23.13,0,0,1,0,4.78c0,1.93.14,3.87.08,5.8a.51.51,0,0,0,.07.32.44.44,0,0,0,.4.11A29,29,0,0,1-2.67,0C.13.15,2.9.37,5.7.45L14.45.7C14.93.72,15-.22,15-1.12Z"/><path class="cls-7" d="M23.17-5.13A.55.55,0,0,0,23-5.3v0a42.52,42.52,0,0,0-.16-7.57,2,2,0,0,0-.05-.24.92.92,0,0,0,.1-.32A1,1,0,0,0,23-14.54a1,1,0,0,0-1.33-.34,46.45,46.45,0,0,1-5.46,2.46,1.35,1.35,0,0,0-.33.19,1,1,0,0,0-.56,1.14.88.88,0,0,0,.1.22v.08c0,1.56,0,3.12,0,4.68a15.76,15.76,0,0,1-.36,4.28.89.89,0,0,0,0,.51s0,0,0,0l0,.06s0,0,0,0a.77.77,0,0,0-.12.36.74.74,0,0,0,0,.39l.1.23a1,1,0,0,0,.35.35l.23.09a.89.89,0,0,0,.51,0,1.09,1.09,0,0,0,.25-.1h0l.09-.07c2.13-1.28,4.28-2.53,6.39-3.86A1,1,0,0,0,23.17-5.13Z"/><path class="cls-2" d="M3.1,5.6c.37,0,.73.09,1.09.11A2,2,0,0,1,6.08,7.25a4.13,4.13,0,0,1,.24.83c0,.43.34.92,0,1.26S5.52,9.2,5.13,9.1a7.38,7.38,0,0,0-2.61,0c-.72.09-1.44.23-2.15.35-.32.05-.47,0-.49-.4A3.3,3.3,0,0,1,3.1,5.6ZM4.18,8.18a.69.69,0,0,0,.75.63c.34,0,.71-.14.67-.56s-.46-.52-.8-.58S4.2,7.82,4.18,8.18ZM1.6,8.69a.6.6,0,0,0,.72-.52c0-.35-.18-.64-.56-.68a.6.6,0,0,0-.7.53C1,8.43,1.27,8.63,1.6,8.69Z"/><path class="cls-2" d="M8.15,6c-.48-.12-.72.09-.94.5s-.3.69.07,1c.69.67,1.63.52,2.25.84.77,0,.91-.19.65-.71A3,3,0,0,0,8.15,6Z"/><path class="cls-8" d="M6,6.69a2.86,2.86,0,0,0-.9-.83c-.19-.11-.66-.36-.94-.27-.19-.14-.51.07-.35.31s-.2.86-.33,1.2a2.16,2.16,0,0,0-.08,1.42,1.3,1.3,0,0,0,1.07.74A1.46,1.46,0,0,0,5.82,9a1.49,1.49,0,0,0,.63-1.13A2,2,0,0,0,6,6.69Z"/><path class="cls-5" d="M3.76,9.39a7,7,0,0,1,3.72,1.16,2.62,2.62,0,0,1,1.29,2.6A1.94,1.94,0,0,1,7.3,15a11.73,11.73,0,0,1-4,.7A12.27,12.27,0,0,1-.42,15c-.66-.17-.91-.71-1.19-1.21A2.81,2.81,0,0,1,.07,9.88,20,20,0,0,1,3.76,9.39ZM2.12,11.62c0-.58-.46-1.09-.89-1a1.05,1.05,0,0,0-.83,1,1,1,0,0,0,.85,1A.89.89,0,0,0,2.12,11.62ZM4.8,13.74a2.32,2.32,0,0,1-2.91.16A1.66,1.66,0,0,0,4.8,13.74Zm-.61-2.12a1.18,1.18,0,0,0,1,1.11,1.06,1.06,0,0,0,.94-.88,1.27,1.27,0,0,0-.87-1.22A1,1,0,0,0,4.19,11.62Z"/><path class="cls-8" d="M1.29,11c-.36,0-.43.34-.47.62a.42.42,0,0,0,.44.49c.32,0,.48-.17.47-.47S1.65,11,1.29,11Z"/><path class="cls-8" d="M5.22,12.34a.46.46,0,0,0,.53-.54c0-.32-.14-.66-.59-.75-.25.15-.59.3-.59.68A.62.62,0,0,0,5.22,12.34Z"/><path class="cls-8" d="M.37,6.51a.5.5,0,0,0,.08-.83,3.35,3.35,0,0,1-1.08-3,3,3,0,0,0,.26,3.7C-.15,6.56.08,6.74.37,6.51Z"/><path class="cls-8" d="M7.51,2.58C7,3.72,6.74,4.93,5.63,5.63l.79,1.15A4.38,4.38,0,0,0,7.51,2.58Z"/><path class="cls-8" d="M4.91,8.46a.21.21,0,0,0,.24-.15c0-.15-.09-.19-.2-.19s-.23,0-.24.14S4.79,8.45,4.91,8.46Z"/><path class="cls-8" d="M1.65,8.3c.14,0,.19-.06.22-.16S1.82,8,1.71,7.93s-.19.05-.22.16S1.55,8.27,1.65,8.3Z"/><path class="cls-4" d="M22.74-21.7c0,2.52.53,4.85.41,7.27-.13,2.85.37,5.68.36,8.54,0,3.48-.1,7-.33,10.42,0,.34-.1.69-.09,1,.16,4.17-.54,8.31-.39,12.47a2,2,0,0,1-1.35,2.33,26.55,26.55,0,0,0-4,2.65,10.3,10.3,0,0,1-5.14,1.55c-1.41.08-2.84.14-4.24.23a44,44,0,0,1-10.18-1C-4,23.48-5.71,22.58-7.6,22.43c-.32,0-.37-.34-.38-.66q-.09-4.18-.22-8.37c-.06-1.82-.35-3.62-.47-5.44-.27-3.8-.42-7.61-.41-11.42,0-2.63-.18-5.25-.33-7.87A18.56,18.56,0,0,1-9-16.26a4.18,4.18,0,0,1,2.17-3.11,4.1,4.1,0,0,0,2.2-3.95c0-1.2,0-2.4,0-3.6a10.88,10.88,0,0,1,.5-3.18c.28-.89.65-1,1.45-.93,4.14.34,8.29.66,12.46.61a36.24,36.24,0,0,0,5.8-.28,1.71,1.71,0,0,1,2,1,7.55,7.55,0,0,1,1.07,3.21c0,.51.06,1,.07,1.54C18.75-22.31,20-21.28,22.74-21.7ZM14.89-7.28c0-2.17,0-4.34,0-6.51-.06-2-.56-2.79-2.18-3.17a26.38,26.38,0,0,0-7.3-.68,36.17,36.17,0,0,1-7,0,29.35,29.35,0,0,0-5-.09A1.47,1.47,0,0,0-8-16.8a9.08,9.08,0,0,0-.79,4.16q.07,3.25.22,6.49c.23,4.77,0,9.57.52,14.33.43,3.84.42,7.71.82,11.55.2,2,.3,2.12,2.16,2.68a58,58,0,0,0,6.51,1.38A40.19,40.19,0,0,0,13,23.85c1.33-.14,1.61-.56,1.43-1.78A77.09,77.09,0,0,1,14.38,4,67.31,67.31,0,0,0,14.89-7.28ZM22.1-20.06c-.41-.09-.6.15-.83.3-1.8,1.2-3.42,2.69-5.54,3.35-.61.2-.53.64-.5,1.1.1,1.48.23,3,.28,4.44A88.55,88.55,0,0,1,15.45-1a149,149,0,0,0-.89,15.52,68.07,68.07,0,0,0,.67,7.66c.1.69.42.91,1,.58a26,26,0,0,0,3-1.69c2.79-2,2.75-2.18,2.93-5.63.18-3.64.38-7.28.43-10.92,0-2.11.27-4.2.33-6.31.12-4.85-.38-9.68-.4-14.52A8.8,8.8,0,0,0,22.1-20.06ZM-6.11-18.49a38.73,38.73,0,0,1,4.58.21,19.41,19.41,0,0,0,5.27.12,39.12,39.12,0,0,1,8.52.27c1.77.17,2.16.08,2.93-1.44A5.66,5.66,0,0,0,15.66-21a32.67,32.67,0,0,0,.22-7c-.1-1.7-.23-1.82-1.93-1.84-4.89-.06-9.8.22-14.66-.57a6.15,6.15,0,0,0-.86,0c-1.75,0-1.83.12-2.19,1.85-.28,1.33.12,2.61.06,3.91-.1,2-.06,2,2.05,2.15.36,0,.84-.13,1,.58H-3.17c-.33,0-.74-.16-.88.28A9.72,9.72,0,0,1-6.11-18.49Zm27.25-2.16c-1.31.06-1.81-1-2.66-1.51-1.25-.73-.19-1.86-.47-2.77a4.91,4.91,0,0,1,0-1,5.41,5.41,0,0,0-1.3-3.54c0,2.22,0,4.41-.09,6.6a8.24,8.24,0,0,1-1.39,5c-.12.16-.3.37.08.69C17.63-17.49,19.19-19.27,21.14-20.65Z"/><path class="cls-4" d="M21,12.64a7,7,0,0,1-.53,5.06C20.52,16,21,14.34,21,12.64Z"/><path class="cls-4" d="M17.51,20a10.15,10.15,0,0,0,.2-2.79C18.52,18.25,18.5,18.43,17.51,20Z"/><path class="cls-4" d="M19.82,15.79a3.68,3.68,0,0,1-.71,2.61l.33-2.64Z"/><path class="cls-4" d="M6.78,7.73a17.5,17.5,0,0,1,.1,1.79c-.06.35.28.35.5.46A3.18,3.18,0,0,1,8.83,14.2,1.74,1.74,0,0,1,8,15a10.92,10.92,0,0,1-8.73.28,2.39,2.39,0,0,1-1.44-2.51c0-1.16.13-2.38,1.36-3,.48-.26.22-.69.35-1.22-.69.28-1.24.49-1.79.73a2.68,2.68,0,0,1-1.28.21c-.81,0-.94-.22-.63-.94A4.29,4.29,0,0,1-2,6.38c.79-.4.77-.4.65-1.25A4.82,4.82,0,0,1-.76,1.75c.24-.38.49-.71,1-.66.07.45-.22.73-.34,1.05a2.75,2.75,0,0,0,.76,3.2c.19.16.39.32.68.17a4.39,4.39,0,0,1,3-.17,1.83,1.83,0,0,0,2-.84,4,4,0,0,0,.72-2.27c0-.24-.15-.58.21-.64s.44.23.55.45a2.29,2.29,0,0,1,.32,1.58c-.07.28-.1.58-.16.86-.21.93-.21.93.69,1.27a4,4,0,0,1,2.09,2c.24.45.08.77-.4.93a1.52,1.52,0,0,1-.87,0A7.24,7.24,0,0,1,6.78,7.73Zm-3.45,8a11.73,11.73,0,0,0,4-.7,1.94,1.94,0,0,0,1.47-1.83,2.62,2.62,0,0,0-1.29-2.6A7,7,0,0,0,3.76,9.39a20,20,0,0,0-3.69.49,2.81,2.81,0,0,0-1.68,3.93c.28.5.53,1,1.19,1.21A12.27,12.27,0,0,0,3.33,15.68ZM3.1,5.6A3.3,3.3,0,0,0-.12,9.05c0,.35.17.45.49.4.71-.12,1.43-.26,2.15-.35a7.38,7.38,0,0,1,2.61,0c.39.1.77.63,1.18.24s.05-.83,0-1.26a4.13,4.13,0,0,0-.24-.83A2,2,0,0,0,4.19,5.71C3.83,5.69,3.47,5.64,3.1,5.6ZM-4,9.05A4,4,0,0,0-.55,7.87c.22-.22.58-.49.34-.81a1.09,1.09,0,0,0-1-.55,2.2,2.2,0,0,0-.43.09A3.52,3.52,0,0,0-4,9.05Zm13.49-.7c.77,0,.91-.19.65-.71A3,3,0,0,0,8.15,6c-.48-.12-.72.09-.94.5s-.3.69.07,1C8,8.18,8.91,8,9.53,8.35ZM6.42,6.78a4.38,4.38,0,0,0,1.09-4.2C7,3.72,6.74,4.93,5.63,5.63Zm-7-4.15a3,3,0,0,0,.26,3.7c.22.23.45.41.74.18a.5.5,0,0,0,.08-.83A3.35,3.35,0,0,1-.63,2.63Z"/><path class="cls-4" d="M6.1,11.85a1.06,1.06,0,0,1-.94.88,1.18,1.18,0,0,1-1-1.11,1,1,0,0,1,1-1A1.27,1.27,0,0,1,6.1,11.85Zm-.94-.8c-.25.15-.59.3-.59.68a.62.62,0,0,0,.65.61.46.46,0,0,0,.53-.54C5.7,11.48,5.61,11.14,5.16,11.05Z"/><path class="cls-4" d="M2.12,11.62a.89.89,0,0,1-.87.91,1,1,0,0,1-.85-1,1.05,1.05,0,0,1,.83-1C1.66,10.53,2.1,11,2.12,11.62Zm-.86.52c.32,0,.48-.17.47-.47S1.65,11,1.29,11s-.43.34-.47.62A.42.42,0,0,0,1.26,12.14Z"/><path class="cls-4" d="M4.8,13.74a1.66,1.66,0,0,1-2.91.16A2.32,2.32,0,0,0,4.8,13.74Z"/><path class="cls-4" d="M2.32,8.18a.6.6,0,0,1-.72.51C1.27,8.63,1,8.43,1.06,8a.6.6,0,0,1,.7-.53C2.14,7.53,2.29,7.82,2.32,8.18Zm-.67.12c.14,0,.19-.06.22-.16S1.82,8,1.71,7.93s-.19.05-.22.16S1.55,8.27,1.65,8.3Z"/><path class="cls-4" d="M4.8,7.67c.34.06.75.15.8.58s-.33.53-.67.56a.69.69,0,0,1-.75-.63C4.2,7.82,4.44,7.69,4.8,7.67Zm.35.64c0-.15-.09-.19-.2-.19s-.23,0-.24.14.08.19.2.2A.21.21,0,0,0,5.15,8.31Z"/><path class="cls-5" d="M46.31,38.15a1,1,0,0,0-1.14.29,3.74,3.74,0,0,0-1.12,2.43.84.84,0,0,1-.77-.48c-.52-.89-1.14-1.24-1.61-.86-.65.51-.24,1.1,0,1.62.83,1.7,2.37,2.82,3.55,4.68.64-2.11.89-3.91,1.53-5.59a3.22,3.22,0,0,0,.14-.7,2.17,2.17,0,0,0,0-.36A1.08,1.08,0,0,0,46.31,38.15Z"/><path class="cls-4" d="M47.85,39.24c-.11.4-.25,1-.44,1.55a15.55,15.55,0,0,0-1.07,5.63,1.11,1.11,0,0,1-.19.86c-.3.32-.71.65-1,0-.85-1.84-2.31-3.22-3.47-4.82a9.18,9.18,0,0,1-.72-1,2.11,2.11,0,0,1-.2-2.38,1.74,1.74,0,0,1,2.15-.39c.67.28,1,0,1.36-.46.15-.19.32-.36.48-.54.46-.51,1-.93,1.72-.61A2.37,2.37,0,0,1,47.85,39.24Zm-3.8,1.63a.84.84,0,0,1-.77-.48c-.52-.89-1.14-1.24-1.61-.86-.65.51-.24,1.1,0,1.62.83,1.7,2.37,2.82,3.55,4.68.64-2.11.89-3.91,1.53-5.59a3.22,3.22,0,0,0,.14-.7,2.17,2.17,0,0,0,0-.36,1.08,1.08,0,0,0-.61-1,1,1,0,0,0-1.14.29A3.74,3.74,0,0,0,44.05,40.87Z"/></pattern></defs><rect id="_1b_bc" data-name="1b_bc" class="cls-9" width="500" height="500"/><g id="_11a_bc_pattern" data-name="11a_bc_pattern"><rect class="cls-10" width="500" height="500"/></g></svg>