<svg id="Background" xmlns="http://www.w3.org/2000/svg" xmlns:xlink="http://www.w3.org/1999/xlink" viewBox="0 0 500 500"><defs><style>.cls-1{fill:none;}.cls-2{fill:#fcfbfa;}.cls-3{fill:#dddcdb;}.cls-4{fill:#333;}.cls-5{fill:#fbb03b;}.cls-6{fill:#ff5a4c;}.cls-7{fill:#cb87b5;}.cls-8{fill:#71cef3;}.cls-9{fill:#a1dc92;}.cls-10{fill:#fcee21;}.cls-11{fill:url(#linear-gradient);}.cls-12{fill:url(#New_Pattern_14);}</style><linearGradient id="linear-gradient" x1="250" y1="500" x2="250" gradientUnits="userSpaceOnUse"><stop offset="0" stop-color="#ff808d"/><stop offset="1" stop-color="#ffafb9"/></linearGradient><pattern id="New_Pattern_14" data-name="New Pattern 14" width="247.76" height="146.08" patternTransform="translate(45 -25)" patternUnits="userSpaceOnUse" viewBox="0 0 247.76 146.08"><rect class="cls-1" width="247.76" height="146.08"/><path class="cls-2" d="M200.61,137.28a2.31,2.31,0,0,1-.31-2.61c.83-1.77,3.22-2.32,5-2.34a5.33,5.33,0,0,1,4.58,2,.55.55,0,0,0,.78.67,2.78,2.78,0,0,1,4.25,2.82.55.55,0,0,0,.67.67,3.79,3.79,0,0,1,3.82,1.27,3.3,3.3,0,0,1,.1,3.88,3,3,0,0,1-3.11,1,7.61,7.61,0,0,0-1-.35,1.58,1.58,0,0,0-1.1.22c-.32.19-.58.45-.89.65a5.52,5.52,0,0,1-.75.42,6,6,0,0,1-3.54.45,5.81,5.81,0,0,1-1.78-.58,12.38,12.38,0,0,1-1.54-1.12c-.73-.52-1.43-.21-2.16.1a4.34,4.34,0,0,1-1.7.34,4.87,4.87,0,0,1-3.18-1.14c-.92-.79-1.74-2.17-1.09-3.37a5.84,5.84,0,0,1,2.89-2.12A.56.56,0,0,0,200.61,137.28Z"/><path class="cls-3" d="M204.91,141.43a.55.55,0,0,1,.48-.53.53.53,0,0,1,.59.39c.29,1.91,1.38,3.83,3.47,4a10.58,10.58,0,0,0,1.78,0,2.38,2.38,0,0,0,1.44-.49,3,3,0,0,0,.8-2.36l-.06-.09a2.44,2.44,0,0,1-.1-.24.65.65,0,0,1,0-.13.33.33,0,0,1,0-.22.36.36,0,0,1,.06-.2.41.41,0,0,1,.14-.15s0,0,0,0l.08-.1a.53.53,0,0,1,.39-.16.59.59,0,0,1,.38.16l.76.74a4.6,4.6,0,0,0,1.1.71,1.87,1.87,0,0,0,1.5-.07,2,2,0,0,0,1.25-2.34.55.55,0,0,1,.05-.7.56.56,0,0,1,.77,0,2.55,2.55,0,0,1,.51,2.13l0,.09a2.8,2.8,0,0,1-2,3.1,2.6,2.6,0,0,1-1.61,0,3,3,0,0,1-1.72-.79h0l-.92,1a.53.53,0,0,1-.34.15,3.25,3.25,0,0,1-2.2,1.06,7.39,7.39,0,0,1-3.34-.26,4.54,4.54,0,0,1-.73-.37.49.49,0,0,1-.54.16C205.07,145.16,204.69,143.2,204.91,141.43Z"/><path class="cls-3" d="M197.06,140.8a4,4,0,0,1,1.33-2.09c.52-.47,1.29.29.77.77a2.93,2.93,0,0,0-1.06,1.67A2.35,2.35,0,0,0,199,143a4.59,4.59,0,0,0,1.73.95,2,2,0,0,0,1.81-.09.54.54,0,1,1,.77.77c-1.16,1-2.88.53-4.09-.14A3.69,3.69,0,0,1,197.06,140.8Z"/><path class="cls-3" d="M200,134.81a2.29,2.29,0,0,1,.79-1.37,5.55,5.55,0,0,1,1.4-.75.55.55,0,0,1,.67.38.56.56,0,0,1-.38.67c-.66.27-1.31.58-1.43,1.36a2.58,2.58,0,0,0,.6,2.05.56.56,0,0,1,0,.77.54.54,0,0,1-.77,0A3.75,3.75,0,0,1,200,134.81Z"/><path class="cls-3" d="M214.35,136.93h0c0-.07,0-.14,0-.21l-.06-.18,0-.08v0a3.79,3.79,0,0,0-.2-.34h0l-.07-.08a.67.67,0,0,0-.15-.14.55.55,0,0,1,.77-.78,2.89,2.89,0,0,1,.25,3.93.55.55,0,0,1-.78,0,.57.57,0,0,1,0-.77h0l.06-.08a1.29,1.29,0,0,0,.09-.16.47.47,0,0,0,0-.1h0a1.27,1.27,0,0,0,.06-.18,1.46,1.46,0,0,0,.05-.2v0s0-.07,0-.08a2.67,2.67,0,0,0,0-.4S214.35,137,214.35,136.93Z"/><path class="cls-4" d="M199.39,137.46a2.82,2.82,0,0,1,0-3.08,5.84,5.84,0,0,1,4.88-3,11.08,11.08,0,0,1,3.72.29,5.51,5.51,0,0,1,2.8,2.06,3.84,3.84,0,0,1,5.23,3.59,5,5,0,0,1,3.57,1.09,4.47,4.47,0,0,1,1.53,4.09,4,4,0,0,1-4.79,3.28c-.37-.08-.69-.28-1.06-.37s-.65.19-.94.41a7.15,7.15,0,0,1-8.18.25,7.62,7.62,0,0,1-.84-.66c-.34-.31-.55-.29-1-.11a6.32,6.32,0,0,1-2.09.58,5.93,5.93,0,0,1-3.88-1.11c-1.36-1-2.52-2.77-1.93-4.49A5.29,5.29,0,0,1,199.39,137.46Zm-.69,6.17a4.87,4.87,0,0,0,3.18,1.14,4.34,4.34,0,0,0,1.7-.34c.73-.31,1.43-.62,2.16-.1a12.38,12.38,0,0,0,1.54,1.12,5.81,5.81,0,0,0,1.78.58,6,6,0,0,0,3.54-.45,5.52,5.52,0,0,0,.75-.42c.31-.2.57-.46.89-.65a1.58,1.58,0,0,1,1.1-.22,7.61,7.61,0,0,1,1,.35,3,3,0,0,0,3.11-1,3.3,3.3,0,0,0-.1-3.88,3.79,3.79,0,0,0-3.82-1.27.55.55,0,0,1-.67-.67,2.78,2.78,0,0,0-4.25-2.82.55.55,0,0,1-.78-.67,5.33,5.33,0,0,0-4.58-2c-1.78,0-4.17.57-5,2.34a2.31,2.31,0,0,0,.31,2.61.56.56,0,0,1-.11.86,5.84,5.84,0,0,0-2.89,2.12C197,141.46,197.78,142.84,198.7,143.63Z"/><path class="cls-2" d="M26,106.57a.55.55,0,0,0,.6-.49,5.34,5.34,0,0,1,2.49-4.51,5.27,5.27,0,0,1,5.32,0,.55.55,0,0,0,.86-.52,1.63,1.63,0,0,1,1.28-1.69,5.78,5.78,0,0,1,2.74,0,6.64,6.64,0,0,1,1.46.46.35.35,0,0,0,.14.06,4,4,0,0,1,.53.33.48.48,0,0,0,.33.31,1.81,1.81,0,0,1,.43.81.38.38,0,0,0,0,.15,1.21,1.21,0,0,0,.12.41,1.05,1.05,0,0,0,.23.36,1.26,1.26,0,0,0,.32.29,1.15,1.15,0,0,0,.39.18h0a.5.5,0,0,0,.33.14,5.29,5.29,0,0,1,4.59,3.28,4.12,4.12,0,0,1,.17,2.79,2,2,0,0,1-2,1.49,3.78,3.78,0,0,1-1.26-.61,1.78,1.78,0,0,0-1.51-.11,13.69,13.69,0,0,0-1.3.71A10.55,10.55,0,0,1,41,111a11,11,0,0,1-10.62-2,.52.52,0,0,0-.55-.06c-1.78,1-4.52,2.42-6.2.49a1.68,1.68,0,0,1-.17-2.29A2.71,2.71,0,0,1,26,106.57Z"/><path class="cls-3" d="M22.8,107.19a.55.55,0,0,1,.62.46,1.58,1.58,0,0,0,1,1.32,3.17,3.17,0,0,0,2.21,0c1.26-.39,2.79-1.08,3.33-2.38a.51.51,0,0,1,.62-.31.62.62,0,0,1,.28-.14.56.56,0,0,1,.62.46,5,5,0,0,0,3.43,3.24,9,9,0,0,0,5.88-.53,4.74,4.74,0,0,0,2.14-1.48v0a.41.41,0,0,1,0-.22.37.37,0,0,1,.09-.19l.09-.1a.37.37,0,0,1,.19-.09.32.32,0,0,1,.14,0,.57.57,0,0,1,.22,0l.12.07a.51.51,0,0,1,.17.21,0,0,0,0,1,0,0,.58.58,0,0,1,.47.45,2.39,2.39,0,0,0,1.05,1.3,2.34,2.34,0,0,0,.81.39.79.79,0,0,0,.61-.07c.42-.28.5-1,.55-1.5a5.74,5.74,0,0,0-.23-2.18.55.55,0,0,1,.28-.72.55.55,0,0,1,.72.28,7.43,7.43,0,0,1,.34,2.29,4.76,4.76,0,0,1-.4,2,1.82,1.82,0,0,1-1.73,1,3.36,3.36,0,0,1-1.82-.79l-.28-.24s0,0,0,0a.52.52,0,0,1-.22.17l-.22.07-.1,0a1,1,0,0,1-.24,0l-.11,0c-1.25,1.11-3.36,1.38-4.9,1.57A9,9,0,0,1,32,110.26a.39.39,0,0,1-.21,0,3.62,3.62,0,0,1-1.36-1.3,3.22,3.22,0,0,1-1.21.84,9.89,9.89,0,0,1-1.86.81,4.39,4.39,0,0,1-3.74-.39.45.45,0,0,1-.2-.57,2.47,2.47,0,0,1-1-1.79A.57.57,0,0,1,22.8,107.19Z"/><path class="cls-3" d="M28.89,101c.54-.45,1.22.4.68.85a5.73,5.73,0,0,0-2,4.11.56.56,0,0,1-.61.48.55.55,0,0,1-.48-.6A6.85,6.85,0,0,1,28.89,101Z"/><path class="cls-3" d="M39.2,98.76a4.66,4.66,0,0,1,3.58,3.5.55.55,0,0,1-.45.63.57.57,0,0,1-.63-.46l0-.14v0h0l-.09-.26c-.07-.16-.15-.33-.23-.48l-.05-.09a.18.18,0,0,1,0-.07c-.05-.07-.1-.15-.16-.22s-.23-.27-.35-.4l0,0-.09-.08-.23-.19-.2-.14-.13-.08-.07,0a3.49,3.49,0,0,0-.44-.2l-.26-.09-.11,0-.08,0a.56.56,0,0,1-.49-.6A.56.56,0,0,1,39.2,98.76Z"/><path class="cls-4" d="M23.05,106a3.79,3.79,0,0,1,2.54-.64,6.42,6.42,0,0,1,3.09-4.83,6.34,6.34,0,0,1,5.6-.3,2.83,2.83,0,0,1,1.47-1.76c1.51-.78,3.79-.47,5.32.07a3.17,3.17,0,0,1,1.19.66,9.69,9.69,0,0,1,1,1.16,8.58,8.58,0,0,1,.53,1.46,8,8,0,0,1,3,1.19c.34.23.73.37,1.05.61a4.24,4.24,0,0,1,1,1.17c1.09,1.79,1.42,4.72-.49,6.12a2.72,2.72,0,0,1-3.06.18c-.43-.25-.82-.59-1.32-.33s-.91.54-1.39.76a12.1,12.1,0,0,1-6.25,1A11.86,11.86,0,0,1,30,110.06c-1.89,1-4.19,2-6.22.85A3.66,3.66,0,0,1,22,108.62,2.54,2.54,0,0,1,23.05,106Zm.59,3.36c1.68,1.93,4.42.48,6.2-.49a.52.52,0,0,1,.55.06A11,11,0,0,0,41,111a10.55,10.55,0,0,0,1.3-.55,13.69,13.69,0,0,1,1.3-.71,1.78,1.78,0,0,1,1.51.11,3.78,3.78,0,0,0,1.26.61,2,2,0,0,0,2-1.49,4.12,4.12,0,0,0-.17-2.79,5.29,5.29,0,0,0-4.59-3.28c-1.25,0-1-1.31-1.44-2.09-1.15-1.88-3.69-2-5.58-1.45A1.63,1.63,0,0,0,35.31,101a.55.55,0,0,1-.86.52,5.27,5.27,0,0,0-5.32,0,5.34,5.34,0,0,0-2.49,4.51.55.55,0,0,1-.6.49,2.71,2.71,0,0,0-2.57.54A1.68,1.68,0,0,0,23.64,109.4Z"/><path class="cls-2" d="M250.45,38.12a2.33,2.33,0,0,0,.31-2.61c-.84-1.77-3.23-2.32-5-2.34a5.32,5.32,0,0,0-4.57,2c.14.42-.3,1-.78.67a2.79,2.79,0,0,0-4.26,2.82.55.55,0,0,1-.67.67,3.82,3.82,0,0,0-3.82,1.28,3.27,3.27,0,0,0-.09,3.87,2.94,2.94,0,0,0,3.1,1,7.78,7.78,0,0,1,1.06-.36,1.64,1.64,0,0,1,1.1.23c.31.19.58.45.88.65a5.63,5.63,0,0,0,.76.42,6.07,6.07,0,0,0,3.54.45,6.21,6.21,0,0,0,1.78-.59,12.86,12.86,0,0,0,1.54-1.12c.73-.52,1.43-.21,2.16.1a4.44,4.44,0,0,0,1.69.35,4.92,4.92,0,0,0,3.18-1.14c.93-.8,1.75-2.17,1.09-3.37A5.74,5.74,0,0,0,250.56,39,.55.55,0,0,1,250.45,38.12Z"/><path class="cls-3" d="M246.14,42.27a.56.56,0,0,0-.47-.54.55.55,0,0,0-.6.39c-.28,1.92-1.37,3.83-3.47,4a11.75,11.75,0,0,1-1.78,0,2.24,2.24,0,0,1-1.43-.49,2.93,2.93,0,0,1-.8-2.35.41.41,0,0,0,0-.09,1.89,1.89,0,0,0,.11-.25s0-.08,0-.12a.55.55,0,0,0,0-.22.48.48,0,0,0-.07-.2.36.36,0,0,0-.14-.16h0a.44.44,0,0,0-.08-.11.54.54,0,0,0-.38-.15.56.56,0,0,0-.39.15l-.76.74a4,4,0,0,1-1.1.71,1.83,1.83,0,0,1-1.5-.07,1.93,1.93,0,0,1-1.24-2.33.55.55,0,0,0-.05-.7.54.54,0,0,0-.77,0,2.46,2.46,0,0,0-.51,2.12.17.17,0,0,0,0,.1,2.8,2.8,0,0,0,2,3.1,2.6,2.6,0,0,0,1.61,0,3,3,0,0,0,1.71-.79h0l.92,1a.52.52,0,0,0,.34.16,3.22,3.22,0,0,0,2.2,1,7.26,7.26,0,0,0,3.34-.26,4,4,0,0,0,.72-.36.5.5,0,0,0,.54.16C246,46,246.36,44,246.14,42.27Z"/><path class="cls-3" d="M254,41.63a4,4,0,0,0-1.34-2.08c-.51-.48-1.28.29-.77.77A2.91,2.91,0,0,1,253,42a2.31,2.31,0,0,1-.86,1.87,4.34,4.34,0,0,1-1.72.95,2,2,0,0,1-1.81-.08.55.55,0,0,0-.77,0,.54.54,0,0,0,0,.77c1.16,1,2.88.52,4.08-.15A3.69,3.69,0,0,0,254,41.63Z"/><path class="cls-3" d="M236.7,37.85a2.67,2.67,0,0,0,0,.4v.1c0,.07,0,.14,0,.21a1.27,1.27,0,0,1,.06.18h0l.05.09.1.17.05.08h0a.54.54,0,0,1-.77.77,2.78,2.78,0,0,1-.65-2,2.82,2.82,0,0,1,.89-1.92.56.56,0,0,1,.77,0,.54.54,0,0,1,0,.77l-.15.15a.5.5,0,0,1-.07.08h0a1.68,1.68,0,0,0-.2.34l0,0,0,.08c0,.06,0,.12-.05.18s0,.13-.05.2h0Z"/><path class="cls-5" d="M279.82,33.83c.13-.47.26-.93.37-1.41a27.84,27.84,0,0,0-.42-14c-.63-2.13-1.42-4.49-3.12-6a14.37,14.37,0,0,0-6-3,22,22,0,0,0-13.07.74,17,17,0,0,0-5.21,3.06,14.7,14.7,0,0,0-3.8,5.28c-1.74,4-2.49,8.84-.77,13,0-.25,0-.5,0-.76a20.5,20.5,0,0,1,.61-6.71,16.18,16.18,0,0,1,2.78-5.43,18.31,18.31,0,0,1,9.78-6.16,22.35,22.35,0,0,1,6-.8,10.91,10.91,0,0,1,6,1.72c3.39,2.27,5.27,6.16,6.07,10.06a32.41,32.41,0,0,1,.59,6.37,18.27,18.27,0,0,1-.61,5.1A2.85,2.85,0,0,1,279.82,33.83Z"/><path class="cls-6" d="M246.41,32.09l.47,0a12.55,12.55,0,0,1-.55-1.44,16.21,16.21,0,0,1-.39-7.23,21.68,21.68,0,0,1,2.35-7,17.05,17.05,0,0,1,10.27-7.85,22.71,22.71,0,0,1,14,.2,12.44,12.44,0,0,1,5.93,3.9A13.46,13.46,0,0,1,280.12,16a26.55,26.55,0,0,1,1.1,3.59,28.79,28.79,0,0,1,.72,8c.81-4.64,1.05-9.42-.47-13.93a16.92,16.92,0,0,0-3.63-6.23,13.1,13.1,0,0,0-6.53-3.77,28.84,28.84,0,0,0-8.6-.45,23.87,23.87,0,0,0-8.63,1.88,18,18,0,0,0-9.34,10.59,20.45,20.45,0,0,0,1.61,16A.46.46,0,0,1,246.41,32.09Z"/><path class="cls-4" d="M298.4,42.31a2.53,2.53,0,0,1,.72,2.67,3.64,3.64,0,0,1-2,2.09c-2.14.94-4.32-.32-6.08-1.53a11.88,11.88,0,0,1-6.48,1.82,12.07,12.07,0,0,1-6.09-1.7c-.46-.27-.86-.62-1.3-.91s-.89,0-1.36.19a2.73,2.73,0,0,1-3-.52c-1.74-1.6-1.09-4.48.2-6.14a6.05,6.05,0,0,1,.73-.79.73.73,0,0,1-.08-.25,4.78,4.78,0,0,0-1.19-2.46,27.2,27.2,0,0,0-2.06-2.23,9,9,0,0,0-2.21-1.61,11.85,11.85,0,0,0-2.54-.85,14.06,14.06,0,0,0-5.63-.23,9.55,9.55,0,0,0-7.16,5.27.55.55,0,0,1-.16.38l-.09.11a2,2,0,0,0-.18.32.5.5,0,0,1-.13.19l-.11.09a.31.31,0,0,1-.12.05,3.39,3.39,0,0,1-.41,2,5.3,5.3,0,0,1,3,2.78c.59,1.73-.58,3.51-1.93,4.5a5.93,5.93,0,0,1-3.89,1.1,6.08,6.08,0,0,1-2.08-.57.75.75,0,0,0-1,.11,8.9,8.9,0,0,1-.83.66,7.17,7.17,0,0,1-8.18-.25c-.29-.23-.56-.51-.95-.41s-.69.29-1.05.37a3.87,3.87,0,0,1-2.08-.12,4,4,0,0,1-2.71-3.17,4.45,4.45,0,0,1,1.52-4.09A5,5,0,0,1,235,38.13,4,4,0,0,1,236.62,35a3.93,3.93,0,0,1,3.65-.47,5.42,5.42,0,0,1,2.8-2.06,8.3,8.3,0,0,1,2.24-.41c-.3-.56-.58-1.14-.83-1.73a21.16,21.16,0,0,1-.12-16.7A18.9,18.9,0,0,1,255.47,3.36,31.94,31.94,0,0,1,264.79,2a22.47,22.47,0,0,1,8.84,1.23c4.94,2,8.1,6.67,9.36,11.7,1.49,6,.33,12.16-1.08,18a9.3,9.3,0,0,1,1.22-.16,5.74,5.74,0,0,1,3.48.63,2.89,2.89,0,0,1,1.27,1.91,6.29,6.29,0,0,1,5.52.92A6.39,6.39,0,0,1,296,41.39,3.78,3.78,0,0,1,298.4,42.31Zm-52-10.59a.46.46,0,0,1,.06.37l.47,0a12.55,12.55,0,0,1-.55-1.44,16.21,16.21,0,0,1-.39-7.23,21.68,21.68,0,0,1,2.35-7,17.05,17.05,0,0,1,10.27-7.85,22.71,22.71,0,0,1,14,.2,12.44,12.44,0,0,1,5.93,3.9A13.46,13.46,0,0,1,280.12,16a26.55,26.55,0,0,1,1.1,3.59,28.79,28.79,0,0,1,.72,8c.81-4.64,1.05-9.42-.47-13.93a16.92,16.92,0,0,0-3.63-6.23,13.1,13.1,0,0,0-6.53-3.77,28.84,28.84,0,0,0-8.6-.45,23.87,23.87,0,0,0-8.63,1.88,18,18,0,0,0-9.34,10.59A20.45,20.45,0,0,0,246.35,31.72Zm33.22-2a18.27,18.27,0,0,1-.61,5.1,2.85,2.85,0,0,1,.86-1c.13-.47.26-.93.37-1.41a27.84,27.84,0,0,0-.42-14c-.63-2.13-1.42-4.49-3.12-6a14.37,14.37,0,0,0-6-3,22,22,0,0,0-13.07.74,17,17,0,0,0-5.21,3.06,14.7,14.7,0,0,0-3.8,5.28c-1.74,4-2.49,8.84-.77,13,0-.25,0-.5,0-.76a20.5,20.5,0,0,1,.61-6.71,16.18,16.18,0,0,1,2.78-5.43,18.31,18.31,0,0,1,9.78-6.16,22.35,22.35,0,0,1,6-.8,10.91,10.91,0,0,1,6,1.72c3.39,2.27,5.27,6.16,6.07,10.06A32.41,32.41,0,0,1,279.57,29.73ZM276.65,36l.24,0a12.25,12.25,0,0,0-.17-2.77c-.1-1-.22-1.9-.38-2.84a22.23,22.23,0,0,0-1.53-5.44,11.37,11.37,0,0,0-5.65-6,12.56,12.56,0,0,0-5-.76,16.64,16.64,0,0,0-5.14.81,13.22,13.22,0,0,0-6.8,5.14,12.42,12.42,0,0,0-2.05,7.55,14.33,14.33,0,0,1,3.45-5.76,14.6,14.6,0,0,1,15.11-3.37,11.1,11.1,0,0,1,6.06,5.17A16.83,16.83,0,0,1,276.65,36Zm-3.25-8.52c-2.81-4.38-8.74-5.51-13.47-4.08a13.05,13.05,0,0,0-9.08,10.25,11.06,11.06,0,0,1,3.64-5.55,13.44,13.44,0,0,1,6.31-2.84,14.47,14.47,0,0,1,7.36.44,10.64,10.64,0,0,1,5,4.23,13.61,13.61,0,0,1,2.4,5.94A15.09,15.09,0,0,0,273.4,27.43Zm4.12,3.39c.13.92.24,1.84.34,2.76l.09.87v0a20.75,20.75,0,0,0,.49-6.19,27.06,27.06,0,0,0-.83-5.87c-.95-3.58-3-7.13-6.46-8.79a11.52,11.52,0,0,0-6-.82,21.7,21.7,0,0,0-5.41,1.12,16.45,16.45,0,0,0-8.68,6.6A14.94,14.94,0,0,0,249,25.81a27.31,27.31,0,0,0-.1,6.64.54.54,0,0,1,0,.19l.34.14a13.39,13.39,0,0,1,2.71-10.13,14.51,14.51,0,0,1,8-5.11,20,20,0,0,1,5.56-.47,11.38,11.38,0,0,1,5,1.26,13.28,13.28,0,0,1,5.71,7.09A26.12,26.12,0,0,1,277.52,30.82Zm-27,8.16a.55.55,0,0,1-.11-.86,2.33,2.33,0,0,0,.31-2.61c-.84-1.77-3.23-2.32-5-2.34a5.32,5.32,0,0,0-4.57,2c.14.42-.3,1-.78.67a2.79,2.79,0,0,0-4.26,2.82.55.55,0,0,1-.67.67,3.82,3.82,0,0,0-3.82,1.28,3.27,3.27,0,0,0-.09,3.87,2.94,2.94,0,0,0,3.1,1,7.78,7.78,0,0,1,1.06-.36,1.64,1.64,0,0,1,1.1.23c.31.19.58.45.88.65a5.63,5.63,0,0,0,.76.42,6.07,6.07,0,0,0,3.54.45,6.21,6.21,0,0,0,1.78-.59,12.86,12.86,0,0,0,1.54-1.12c.73-.52,1.43-.21,2.16.1a4.44,4.44,0,0,0,1.69.35,4.92,4.92,0,0,0,3.18-1.14c.93-.8,1.75-2.17,1.09-3.37A5.74,5.74,0,0,0,250.56,39Zm23.93-2.87a9.75,9.75,0,0,0-.91-3.24,17.21,17.21,0,0,0-1.77-3,8.79,8.79,0,0,0-4.94-3.46,14.36,14.36,0,0,0-6.71.05c-4,.95-7.48,3.82-8.38,7.91a.5.5,0,0,1-.24.34l.18.32a.36.36,0,0,1,.07-.1,9.79,9.79,0,0,1,3.55-4.32c3.33-2.3,7.67-2.44,11.45-1.34a10.13,10.13,0,0,1,2.8,1.22,13.37,13.37,0,0,1,2.26,2A11,11,0,0,1,274.49,36.11Zm23.38,7.22a2.71,2.71,0,0,0-2.49-.83.54.54,0,0,1-.55-.54,5.31,5.31,0,0,0-2-4.76,5.26,5.26,0,0,0-5.28-.6.55.55,0,0,1-.8-.62,1.65,1.65,0,0,0-1.09-1.82A5.83,5.83,0,0,0,283,33.9a6.51,6.51,0,0,0-1.51.3l-.14,0a3,3,0,0,0-.57.27.48.48,0,0,1-.36.26,1.8,1.8,0,0,0-.51.76.77.77,0,0,1,0,.15,1.52,1.52,0,0,1-.16.4,1.76,1.76,0,0,1-.27.33,1.45,1.45,0,0,1-.36.25,1.36,1.36,0,0,1-.4.14h0a.49.49,0,0,1-.35.1,5.26,5.26,0,0,0-4.91,2.75,4.1,4.1,0,0,0-.48,2.76,2,2,0,0,0,1.81,1.7,3.66,3.66,0,0,0,1.32-.47,1.81,1.81,0,0,1,1.51.05,14.87,14.87,0,0,1,1.22.86,11.39,11.39,0,0,0,1.23.69,11.06,11.06,0,0,0,10.78-.84.54.54,0,0,1,.55,0c1.66,1.17,4.22,2.91,6.11,1.17A1.67,1.67,0,0,0,297.87,43.33Z"/><path class="cls-2" d="M200.61-8.8a2.31,2.31,0,0,1-.31-2.61c.83-1.77,3.22-2.32,5-2.34a5.33,5.33,0,0,1,4.58,2c-.15.42.3,1,.78.67a2.88,2.88,0,0,1,3.14.09,2.85,2.85,0,0,1,1.11,2.73.55.55,0,0,0,.67.67,3.82,3.82,0,0,1,3.82,1.28,3.3,3.3,0,0,1,.1,3.88,3,3,0,0,1-3.11,1,7.65,7.65,0,0,0-1-.36,1.64,1.64,0,0,0-1.1.23c-.32.19-.58.45-.89.65a5.52,5.52,0,0,1-.75.42,6.07,6.07,0,0,1-3.54.45,5.81,5.81,0,0,1-1.78-.58,13.49,13.49,0,0,1-1.54-1.12c-.73-.53-1.43-.21-2.16.1a4.52,4.52,0,0,1-1.7.34,4.87,4.87,0,0,1-3.18-1.14c-.92-.8-1.74-2.17-1.09-3.37a5.84,5.84,0,0,1,2.89-2.12A.56.56,0,0,0,200.61-8.8Z"/><path class="cls-3" d="M204.91-4.65a.55.55,0,0,1,.48-.53.53.53,0,0,1,.59.39c.29,1.91,1.38,3.83,3.47,4a9.62,9.62,0,0,0,1.78,0,2.31,2.31,0,0,0,1.44-.48,3,3,0,0,0,.8-2.36l-.06-.09a2.44,2.44,0,0,1-.1-.24.93.93,0,0,1,0-.13.33.33,0,0,1,0-.22.36.36,0,0,1,.06-.2.44.44,0,0,1,.14-.16h0l.08-.1a.53.53,0,0,1,.39-.16.51.51,0,0,1,.38.16l.76.73a4.64,4.64,0,0,0,1.1.72,1.87,1.87,0,0,0,1.5-.07,2,2,0,0,0,1.25-2.34.55.55,0,0,1,.05-.7.55.55,0,0,1,.77,0,2.55,2.55,0,0,1,.51,2.13l0,.09a2.8,2.8,0,0,1-2,3.1,2.6,2.6,0,0,1-1.61,0,3,3,0,0,1-1.72-.79h0L214-.9a.53.53,0,0,1-.34.15A3.24,3.24,0,0,1,211.48.3a7.25,7.25,0,0,1-3.34-.25,4.54,4.54,0,0,1-.73-.37.49.49,0,0,1-.54.16C205.07-.92,204.69-2.89,204.91-4.65Z"/><path class="cls-4" d="M199.39-8.62a2.82,2.82,0,0,1,0-3.08,5.84,5.84,0,0,1,4.88-3,11.08,11.08,0,0,1,3.72.29,5.51,5.51,0,0,1,2.8,2.06,3.9,3.9,0,0,1,3.64.47A3.94,3.94,0,0,1,216-8.79a5,5,0,0,1,3.57,1.09,4.47,4.47,0,0,1,1.53,4.09,4,4,0,0,1-2.71,3.17,4,4,0,0,1-2.08.11c-.37-.08-.69-.28-1.06-.37s-.65.19-.94.41a7.17,7.17,0,0,1-8.18.25,7.62,7.62,0,0,1-.84-.66c-.34-.31-.55-.29-1-.11a6.32,6.32,0,0,1-2.09.58,5.93,5.93,0,0,1-3.88-1.11c-1.36-1-2.52-2.77-1.93-4.5A5.3,5.3,0,0,1,199.39-8.62Zm-.69,6.17a4.87,4.87,0,0,0,3.18,1.14,4.52,4.52,0,0,0,1.7-.34c.73-.31,1.43-.63,2.16-.1a13.49,13.49,0,0,0,1.54,1.12,5.81,5.81,0,0,0,1.78.58A6.07,6.07,0,0,0,212.6-.5a5.52,5.52,0,0,0,.75-.42c.31-.2.57-.46.89-.65a1.64,1.64,0,0,1,1.1-.23,7.65,7.65,0,0,1,1,.36,3,3,0,0,0,3.11-1,3.3,3.3,0,0,0-.1-3.88,3.82,3.82,0,0,0-3.82-1.28.55.55,0,0,1-.67-.67A2.85,2.85,0,0,0,213.8-11a2.88,2.88,0,0,0-3.14-.09c-.48.3-.93-.25-.78-.67a5.33,5.33,0,0,0-4.58-2c-1.78,0-4.17.57-5,2.34a2.31,2.31,0,0,0,.31,2.61.56.56,0,0,1-.11.86,5.84,5.84,0,0,0-2.89,2.12C197-4.62,197.78-3.25,198.7-2.45Z"/><path class="cls-2" d="M126.57,111.16a2.31,2.31,0,0,0,.3-2.61c-.83-1.77-3.22-2.32-5-2.34a5.34,5.34,0,0,0-4.58,2,.55.55,0,0,1-.78.67,2.79,2.79,0,0,0-4.25,2.82.55.55,0,0,1-.67.67,3.82,3.82,0,0,0-3.82,1.28,3.29,3.29,0,0,0-.1,3.87,3,3,0,0,0,3.11,1,8.14,8.14,0,0,1,1-.36,1.66,1.66,0,0,1,1.11.23c.31.19.58.45.88.65a5.63,5.63,0,0,0,.76.42,6.16,6.16,0,0,0,5.32-.14,12.86,12.86,0,0,0,1.54-1.12c.73-.52,1.42-.21,2.16.11a4.43,4.43,0,0,0,1.69.34,4.92,4.92,0,0,0,3.18-1.14c.92-.8,1.75-2.17,1.09-3.37a5.8,5.8,0,0,0-2.88-2.12A.55.55,0,0,1,126.57,111.16Z"/><path class="cls-2" d="M171.49,115.54A.54.54,0,0,1,171,115a5.34,5.34,0,0,0-2-4.76,5.26,5.26,0,0,0-5.28-.6.56.56,0,0,1-.81-.62,1.63,1.63,0,0,0-1.08-1.82,5.83,5.83,0,0,0-2.72-.26,6.51,6.51,0,0,0-1.51.3l-.14.05a3,3,0,0,0-.57.27.48.48,0,0,1-.36.26,1.91,1.91,0,0,0-.52.76.38.38,0,0,1,0,.15,1.4,1.4,0,0,1-.16.4,1.76,1.76,0,0,1-.27.33,1.6,1.6,0,0,1-.76.39h0a.49.49,0,0,1-.35.1,5.29,5.29,0,0,0-4.92,2.75,4.16,4.16,0,0,0-.47,2.76,2,2,0,0,0,1.81,1.7,3.8,3.8,0,0,0,1.32-.47,1.81,1.81,0,0,1,1.51,0,14.87,14.87,0,0,1,1.22.86,9.91,9.91,0,0,0,1.23.69,11.06,11.06,0,0,0,10.78-.84.54.54,0,0,1,.55,0c1.66,1.17,4.22,2.91,6.11,1.17a1.68,1.68,0,0,0,.42-2.25A2.75,2.75,0,0,0,171.49,115.54Z"/><path class="cls-3" d="M122.26,115.31a.54.54,0,0,0-.47-.53.53.53,0,0,0-.6.39c-.28,1.91-1.37,3.82-3.47,4a10.58,10.58,0,0,1-1.78,0,2.28,2.28,0,0,1-1.43-.48,2.92,2.92,0,0,1-.8-2.36.41.41,0,0,1,.05-.09,2.44,2.44,0,0,0,.1-.24s0-.09,0-.13a.55.55,0,0,0,0-.22.48.48,0,0,0-.07-.2.36.36,0,0,0-.14-.16h0a.27.27,0,0,0-.08-.1.51.51,0,0,0-.38-.16.53.53,0,0,0-.39.16l-.76.73a4.44,4.44,0,0,1-1.1.72,1.91,1.91,0,0,1-1.5-.07,1.94,1.94,0,0,1-1.24-2.34.54.54,0,0,0-.83-.7,2.5,2.5,0,0,0-.5,2.12.17.17,0,0,0,0,.1,2.79,2.79,0,0,0,2,3.1,2.64,2.64,0,0,0,1.62,0,3,3,0,0,0,1.71-.79h0l.91,1a.57.57,0,0,0,.34.16,3.27,3.27,0,0,0,2.21,1.05A7.26,7.26,0,0,0,119,120a3.46,3.46,0,0,0,.72-.36.49.49,0,0,0,.54.16C122.1,119,122.48,117.07,122.26,115.31Z"/><path class="cls-3" d="M130.12,114.67a4.05,4.05,0,0,0-1.34-2.08c-.51-.48-1.29.29-.77.77a2.84,2.84,0,0,1,1.06,1.66,2.34,2.34,0,0,1-.85,1.88,4.52,4.52,0,0,1-1.72.94,2,2,0,0,1-1.81-.08.55.55,0,0,0-.77,0,.54.54,0,0,0,0,.77c1.16,1,2.87.52,4.08-.15A3.7,3.7,0,0,0,130.12,114.67Z"/><path class="cls-3" d="M127.18,108.69a2.29,2.29,0,0,0-.8-1.37,5.19,5.19,0,0,0-1.39-.75.54.54,0,0,0-.29,1.05c.66.27,1.3.57,1.43,1.36a2.65,2.65,0,0,1-.6,2,.54.54,0,0,0,.77.77A3.79,3.79,0,0,0,127.18,108.69Z"/><path class="cls-3" d="M112.81,110.89a1.79,1.79,0,0,0,0,.4.28.28,0,0,0,0,.08v0a1.6,1.6,0,0,0,0,.21,1.27,1.27,0,0,1,.06.18h0l0,.09.09.17.06.08h0a.56.56,0,0,1,0,.77.55.55,0,0,1-.77,0,2.83,2.83,0,0,1-.66-2,2.87,2.87,0,0,1,.9-1.92.56.56,0,0,1,.77,0,.54.54,0,0,1,0,.77l-.15.15a.5.5,0,0,1-.07.08h0a2.39,2.39,0,0,0-.21.34v0l0,.08a1.21,1.21,0,0,0,0,.18c0,.07,0,.13-.05.2h0A.22.22,0,0,1,112.81,110.89Z"/><path class="cls-3" d="M174.64,116.52a.56.56,0,0,0-.67.38,1.57,1.57,0,0,1-1.12,1.21,3.18,3.18,0,0,1-2.2-.25c-1.21-.53-2.65-1.39-3.05-2.73a.51.51,0,0,0-.58-.38.53.53,0,0,0-.93.22,5,5,0,0,1-3.77,2.84,8.91,8.91,0,0,1-5.78-1.17,4.7,4.7,0,0,1-2-1.7v0a.34.34,0,0,0,0-.22.36.36,0,0,0-.06-.2l-.09-.12a.45.45,0,0,0-.17-.11l-.14,0a.55.55,0,0,0-.22,0l-.13.06a.58.58,0,0,0-.19.19l0,0a.59.59,0,0,0-.51.4,2.46,2.46,0,0,1-1.18,1.18,2.32,2.32,0,0,1-.85.29.84.84,0,0,1-.61-.13,2,2,0,0,1-.37-1.56,5.63,5.63,0,0,1,.46-2.14.56.56,0,0,0-.19-.74.55.55,0,0,0-.75.19,7.55,7.55,0,0,0-.59,2.25,4.46,4.46,0,0,0,.18,2,1.82,1.82,0,0,0,1.6,1.24,3.4,3.4,0,0,0,1.9-.58l.3-.21s0,0,0,0a.52.52,0,0,0,.2.19,1.36,1.36,0,0,0,.21.1l.1,0a1.6,1.6,0,0,0,.23,0l.12,0c1.12,1.25,3.18,1.75,4.69,2.1a9,9,0,0,0,6.68-.58.39.39,0,0,0,.21,0,3.54,3.54,0,0,0,1.5-1.13,3.22,3.22,0,0,0,1.11,1,9.33,9.33,0,0,0,1.76,1,4.45,4.45,0,0,0,3.76,0,.47.47,0,0,0,.26-.56,2.46,2.46,0,0,0,1.23-1.66A.56.56,0,0,0,174.64,116.52Z"/><path class="cls-3" d="M169.27,109.67c-.48-.51-1.25.26-.77.77a5.73,5.73,0,0,1,1.54,4.3.55.55,0,0,0,.54.55.56.56,0,0,0,.55-.55A6.84,6.84,0,0,0,169.27,109.67Z"/><path class="cls-3" d="M159.27,106.33a4.7,4.7,0,0,0-4,3.1.56.56,0,0,0,.39.67.57.57,0,0,0,.67-.38.58.58,0,0,1,.05-.14v0h0a1.92,1.92,0,0,1,.12-.25,4.34,4.34,0,0,1,.28-.46l.06-.07.06-.07.18-.2a4.38,4.38,0,0,1,.39-.36l0,0,.1-.07.25-.16.22-.12.13-.06.08,0a3.57,3.57,0,0,1,.46-.16l.27-.06.11,0h.08a.55.55,0,1,0,0-1.09Z"/><path class="cls-7" d="M149.7,105.91a17.86,17.86,0,0,0-1.77-3A8.84,8.84,0,0,0,143,99.44a14.36,14.36,0,0,0-6.71,0c-4,1-7.48,3.82-8.38,7.91a.5.5,0,0,1-.24.34,3.24,3.24,0,0,1,.17.32.61.61,0,0,0,.07-.1,9.81,9.81,0,0,1,3.56-4.32c3.33-2.29,7.67-2.44,11.45-1.34a10.13,10.13,0,0,1,2.8,1.22,13.37,13.37,0,0,1,2.26,2,11,11,0,0,1,2.64,3.64A9.75,9.75,0,0,0,149.7,105.91Z"/><path class="cls-8" d="M136.05,96.39A13,13,0,0,0,127,106.64a11.06,11.06,0,0,1,3.64-5.55,13.39,13.39,0,0,1,6.31-2.84,14.54,14.54,0,0,1,7.35.44,10.71,10.71,0,0,1,5,4.23,13.61,13.61,0,0,1,2.4,5.94,15.18,15.18,0,0,0-2.16-8.39C146.71,96.09,140.78,95,136.05,96.39Z"/><path class="cls-9" d="M153,109a12.13,12.13,0,0,0-.17-2.76c-.11-1-.22-1.91-.38-2.85a21.82,21.82,0,0,0-1.54-5.44,11.31,11.31,0,0,0-5.64-6,12.59,12.59,0,0,0-5-.76,16.94,16.94,0,0,0-5.14.81,13.29,13.29,0,0,0-6.81,5.14,12.44,12.44,0,0,0-2,7.56,14,14,0,0,1,3.45-5.76,14.58,14.58,0,0,1,15.11-3.38,11.08,11.08,0,0,1,6,5.17,16.73,16.73,0,0,1,1.85,8.28Z"/><path class="cls-10" d="M154,106.62c0,.29.06.58.08.87l0,0a20.75,20.75,0,0,0,.49-6.19,27.69,27.69,0,0,0-.83-5.87c-1-3.58-3-7.13-6.46-8.79a11.57,11.57,0,0,0-6-.82,21.8,21.8,0,0,0-5.41,1.12,16.42,16.42,0,0,0-8.67,6.6,15,15,0,0,0-2.07,5.35,26.83,26.83,0,0,0-.11,6.64.39.39,0,0,1,0,.19l.33.14a13.47,13.47,0,0,1,2.71-10.13,14.57,14.57,0,0,1,8-5.11,20,20,0,0,1,5.56-.47,11.38,11.38,0,0,1,5,1.26,13.22,13.22,0,0,1,5.7,7.09,25.51,25.51,0,0,1,1.32,5.4C153.77,104.78,153.88,105.7,154,106.62Z"/><path class="cls-5" d="M155.94,106.87c.13-.46.26-.93.37-1.41a27.84,27.84,0,0,0-.42-14c-.63-2.13-1.43-4.49-3.12-6a14.37,14.37,0,0,0-6-3,22,22,0,0,0-13.07.74,17.16,17.16,0,0,0-5.22,3.06,15,15,0,0,0-3.79,5.28c-1.75,4-2.49,8.84-.77,13,0-.25,0-.5,0-.76a20.78,20.78,0,0,1,.62-6.71,16,16,0,0,1,2.78-5.42A18.39,18.39,0,0,1,137,85.42a22.42,22.42,0,0,1,6-.8,10.88,10.88,0,0,1,6,1.72c3.4,2.27,5.28,6.16,6.07,10.07a31.51,31.51,0,0,1,.6,6.36,18.77,18.77,0,0,1-.61,5.11A2.8,2.8,0,0,1,155.94,106.87Z"/><path class="cls-6" d="M122.53,105.13l.47.05a12.55,12.55,0,0,1-.55-1.44,16.21,16.21,0,0,1-.39-7.23,21.2,21.2,0,0,1,2.35-7,17.06,17.06,0,0,1,10.27-7.85,22.68,22.68,0,0,1,14,.2,12.42,12.42,0,0,1,5.94,3.9,13.83,13.83,0,0,1,1.65,3.28,26.55,26.55,0,0,1,1.1,3.59,28.79,28.79,0,0,1,.72,8c.81-4.64,1.05-9.42-.47-13.93A16.92,16.92,0,0,0,154,80.46a13.1,13.1,0,0,0-6.53-3.77,28.93,28.93,0,0,0-8.61-.45,23.87,23.87,0,0,0-8.62,1.88,18,18,0,0,0-9.34,10.59,20.45,20.45,0,0,0,1.61,16.05A.51.51,0,0,1,122.53,105.13Z"/><path class="cls-4" d="M174.52,115.35a2.53,2.53,0,0,1,.72,2.67,3.64,3.64,0,0,1-2,2.09c-2.15,1-4.32-.32-6.08-1.53a11.88,11.88,0,0,1-6.48,1.82,12,12,0,0,1-6.1-1.7c-.45-.27-.85-.62-1.29-.91s-.9,0-1.36.19a2.73,2.73,0,0,1-3-.52c-1.74-1.6-1.09-4.48.19-6.14a6.92,6.92,0,0,1,.74-.79.57.57,0,0,1-.08-.25,4.78,4.78,0,0,0-1.19-2.46,27.06,27.06,0,0,0-2.06-2.22,8.74,8.74,0,0,0-2.21-1.62,11.85,11.85,0,0,0-2.54-.85,14.06,14.06,0,0,0-5.63-.23,9.56,9.56,0,0,0-7.16,5.27.55.55,0,0,1-.16.38l-.1.11a2,2,0,0,0-.18.32.47.47,0,0,1-.12.2l-.11.08a.29.29,0,0,1-.13,0,3.32,3.32,0,0,1-.4,2,5.34,5.34,0,0,1,3,2.78c.59,1.73-.58,3.51-1.93,4.5a5.93,5.93,0,0,1-3.89,1.1,6.14,6.14,0,0,1-2.09-.57.74.74,0,0,0-1,.11,7.51,7.51,0,0,1-.83.66,7.18,7.18,0,0,1-8.19-.25c-.29-.23-.55-.51-.94-.41s-.69.29-1.06.37a3.88,3.88,0,0,1-2.08-.12,4,4,0,0,1-2.7-3.17,4.45,4.45,0,0,1,1.52-4.09,5,5,0,0,1,3.57-1.08,4,4,0,0,1,1.59-3.12,3.91,3.91,0,0,1,3.64-.47,5.44,5.44,0,0,1,2.81-2.06,7.86,7.86,0,0,1,2.24-.4q-.45-.86-.84-1.74a21.16,21.16,0,0,1-.11-16.7A18.9,18.9,0,0,1,131.59,76.4a31.94,31.94,0,0,1,9.32-1.35,22.3,22.3,0,0,1,8.84,1.24c4.94,2,8.1,6.66,9.36,11.69,1.49,6,.33,12.16-1.08,18a9.08,9.08,0,0,1,1.22-.16,5.69,5.69,0,0,1,3.47.63,2.91,2.91,0,0,1,1.28,1.91,6.29,6.29,0,0,1,5.52.92,6.39,6.39,0,0,1,2.55,5.13A3.78,3.78,0,0,1,174.52,115.35Zm-52.05-10.59a.51.51,0,0,1,.06.37l.47.05a12.55,12.55,0,0,1-.55-1.44,16.21,16.21,0,0,1-.39-7.23,21.2,21.2,0,0,1,2.35-7,17.06,17.06,0,0,1,10.27-7.85,22.68,22.68,0,0,1,14,.2,12.42,12.42,0,0,1,5.94,3.9,13.83,13.83,0,0,1,1.65,3.28,26.55,26.55,0,0,1,1.1,3.59,28.79,28.79,0,0,1,.72,8c.81-4.64,1.05-9.42-.47-13.93A16.92,16.92,0,0,0,154,80.46a13.1,13.1,0,0,0-6.53-3.77,28.93,28.93,0,0,0-8.61-.45,23.87,23.87,0,0,0-8.62,1.88,18,18,0,0,0-9.34,10.59A20.45,20.45,0,0,0,122.47,104.76Zm33.22-2a18.77,18.77,0,0,1-.61,5.11,2.8,2.8,0,0,1,.86-1c.13-.46.26-.93.37-1.41a27.84,27.84,0,0,0-.42-14c-.63-2.13-1.43-4.49-3.12-6a14.37,14.37,0,0,0-6-3,22,22,0,0,0-13.07.74,17.16,17.16,0,0,0-5.22,3.06,15,15,0,0,0-3.79,5.28c-1.75,4-2.49,8.84-.77,13,0-.25,0-.5,0-.76a20.78,20.78,0,0,1,.62-6.71,16,16,0,0,1,2.78-5.42A18.39,18.39,0,0,1,137,85.42a22.42,22.42,0,0,1,6-.8,10.88,10.88,0,0,1,6,1.72c3.4,2.27,5.28,6.16,6.07,10.07A31.51,31.51,0,0,1,155.69,102.77ZM152.77,109l.24,0a12.13,12.13,0,0,0-.17-2.76c-.11-1-.22-1.91-.38-2.85a21.82,21.82,0,0,0-1.54-5.44,11.31,11.31,0,0,0-5.64-6,12.59,12.59,0,0,0-5-.76,16.94,16.94,0,0,0-5.14.81,13.29,13.29,0,0,0-6.81,5.14,12.44,12.44,0,0,0-2,7.56,14,14,0,0,1,3.45-5.76,14.58,14.58,0,0,1,15.11-3.38,11.08,11.08,0,0,1,6,5.17A16.73,16.73,0,0,1,152.77,109Zm-3.25-8.52c-2.81-4.38-8.74-5.51-13.47-4.08A13,13,0,0,0,127,106.64a11.06,11.06,0,0,1,3.64-5.55,13.39,13.39,0,0,1,6.31-2.84,14.54,14.54,0,0,1,7.35.44,10.71,10.71,0,0,1,5,4.23,13.61,13.61,0,0,1,2.4,5.94A15.18,15.18,0,0,0,149.52,100.47Zm4.12,3.39c.13.92.24,1.84.34,2.76,0,.29.06.58.08.87l0,0a20.75,20.75,0,0,0,.49-6.19,27.69,27.69,0,0,0-.83-5.87c-1-3.58-3-7.13-6.46-8.79a11.57,11.57,0,0,0-6-.82,21.8,21.8,0,0,0-5.41,1.12,16.42,16.42,0,0,0-8.67,6.6,15,15,0,0,0-2.07,5.35,26.83,26.83,0,0,0-.11,6.64.39.39,0,0,1,0,.19l.33.14a13.47,13.47,0,0,1,2.71-10.13,14.57,14.57,0,0,1,8-5.11,20,20,0,0,1,5.56-.47,11.38,11.38,0,0,1,5,1.26,13.22,13.22,0,0,1,5.7,7.09A25.51,25.51,0,0,1,153.64,103.86Zm-27,8.16a.55.55,0,0,1-.11-.86,2.31,2.31,0,0,0,.3-2.61c-.83-1.77-3.22-2.32-5-2.34a5.34,5.34,0,0,0-4.58,2,.55.55,0,0,1-.78.67,2.79,2.79,0,0,0-4.25,2.82.55.55,0,0,1-.67.67,3.82,3.82,0,0,0-3.82,1.28,3.29,3.29,0,0,0-.1,3.87,3,3,0,0,0,3.11,1,8.14,8.14,0,0,1,1-.36,1.66,1.66,0,0,1,1.11.23c.31.19.58.45.88.65a5.63,5.63,0,0,0,.76.42,6.16,6.16,0,0,0,5.32-.14,12.86,12.86,0,0,0,1.54-1.12c.73-.52,1.42-.21,2.16.11a4.43,4.43,0,0,0,1.69.34,4.92,4.92,0,0,0,3.18-1.14c.92-.8,1.75-2.17,1.09-3.37A5.8,5.8,0,0,0,126.68,112Zm23.93-2.87a9.75,9.75,0,0,0-.91-3.24,17.86,17.86,0,0,0-1.77-3A8.84,8.84,0,0,0,143,99.44a14.36,14.36,0,0,0-6.71,0c-4,1-7.48,3.82-8.38,7.91a.5.5,0,0,1-.24.34,3.24,3.24,0,0,1,.17.32.61.61,0,0,0,.07-.1,9.81,9.81,0,0,1,3.56-4.32c3.33-2.29,7.67-2.44,11.45-1.34a10.13,10.13,0,0,1,2.8,1.22,13.37,13.37,0,0,1,2.26,2A11,11,0,0,1,150.61,109.15ZM174,116.37a2.75,2.75,0,0,0-2.5-.83A.54.54,0,0,1,171,115a5.34,5.34,0,0,0-2-4.76,5.26,5.26,0,0,0-5.28-.6.56.56,0,0,1-.81-.62,1.63,1.63,0,0,0-1.08-1.82,5.83,5.83,0,0,0-2.72-.26,6.51,6.51,0,0,0-1.51.3l-.14.05a3,3,0,0,0-.57.27.48.48,0,0,1-.36.26,1.91,1.91,0,0,0-.52.76.38.38,0,0,1,0,.15,1.4,1.4,0,0,1-.16.4,1.76,1.76,0,0,1-.27.33,1.6,1.6,0,0,1-.76.39h0a.49.49,0,0,1-.35.1,5.29,5.29,0,0,0-4.92,2.75,4.16,4.16,0,0,0-.47,2.76,2,2,0,0,0,1.81,1.7,3.8,3.8,0,0,0,1.32-.47,1.81,1.81,0,0,1,1.51,0,14.87,14.87,0,0,1,1.22.86,9.91,9.91,0,0,0,1.23.69,11.06,11.06,0,0,0,10.78-.84.54.54,0,0,1,.55,0c1.66,1.17,4.22,2.91,6.11,1.17A1.68,1.68,0,0,0,174,116.37Z"/><path class="cls-2" d="M149.92,33.53a.54.54,0,0,0,.6-.49A5.34,5.34,0,0,1,153,28.53a5.27,5.27,0,0,1,5.32,0,.55.55,0,0,0,.86-.52,1.65,1.65,0,0,1,1.28-1.69,5.77,5.77,0,0,1,2.74,0,6,6,0,0,1,1.46.46.42.42,0,0,0,.14.06,4,4,0,0,1,.53.33.48.48,0,0,0,.33.31,1.72,1.72,0,0,1,.43.81.33.33,0,0,0,0,.14,1.2,1.2,0,0,0,.12.42,1.23,1.23,0,0,0,.23.36,1.47,1.47,0,0,0,.32.29,1.15,1.15,0,0,0,.39.18h0a.5.5,0,0,0,.33.14,5.27,5.27,0,0,1,4.59,3.28,4.12,4.12,0,0,1,.17,2.79,2,2,0,0,1-2,1.49,3.87,3.87,0,0,1-1.26-.61,1.78,1.78,0,0,0-1.51-.11c-.45.17-.86.49-1.3.71a10.55,10.55,0,0,1-1.3.55,11,11,0,0,1-10.62-2,.52.52,0,0,0-.55-.06c-1.78,1-4.51,2.42-6.2.49a1.68,1.68,0,0,1-.17-2.29A2.71,2.71,0,0,1,149.92,33.53Z"/><path class="cls-3" d="M146.68,34.15a.56.56,0,0,1,.63.46,1.57,1.57,0,0,0,1,1.32,3.17,3.17,0,0,0,2.21,0c1.26-.39,2.79-1.08,3.33-2.38a.52.52,0,0,1,.63-.31.59.59,0,0,1,.27-.14.55.55,0,0,1,.62.46,5,5,0,0,0,3.44,3.24,8.94,8.94,0,0,0,5.87-.53,4.68,4.68,0,0,0,2.14-1.48v0a.41.41,0,0,1,0-.22.37.37,0,0,1,.09-.19l.09-.1a.5.5,0,0,1,.19-.1.34.34,0,0,1,.14,0,.41.41,0,0,1,.22,0l.12.07a.44.44,0,0,1,.17.21l0,0a.56.56,0,0,1,.47.45,2.39,2.39,0,0,0,1.05,1.3,2.34,2.34,0,0,0,.81.39.79.79,0,0,0,.61-.07c.42-.28.5-1,.55-1.51a5.71,5.71,0,0,0-.23-2.17.56.56,0,0,1,.28-.72.55.55,0,0,1,.72.28,7.43,7.43,0,0,1,.34,2.29,4.46,4.46,0,0,1-.4,2,1.82,1.82,0,0,1-1.73,1,3.36,3.36,0,0,1-1.82-.79l-.28-.24a.08.08,0,0,1,0,0,.62.62,0,0,1-.22.17l-.22.07-.1,0a.89.89,0,0,1-.23,0l-.12,0c-1.25,1.11-3.35,1.38-4.89,1.57a9.07,9.07,0,0,1-6.58-1.32.45.45,0,0,1-.2,0,3.62,3.62,0,0,1-1.36-1.3,3.26,3.26,0,0,1-1.22.84,10.58,10.58,0,0,1-1.86.81,4.43,4.43,0,0,1-3.74-.39.47.47,0,0,1-.2-.58,2.49,2.49,0,0,1-1-1.78A.56.56,0,0,1,146.68,34.15Z"/><path class="cls-3" d="M152.77,27.93c.54-.45,1.22.4.68.85a5.77,5.77,0,0,0-2,4.11.55.55,0,0,1-1.09-.12A6.85,6.85,0,0,1,152.77,27.93Z"/><path class="cls-3" d="M163.08,25.71a4.69,4.69,0,0,1,3.58,3.51.55.55,0,0,1-.45.63.56.56,0,0,1-.62-.46.57.57,0,0,1,0-.14v0h0l-.09-.26a5.4,5.4,0,0,0-.23-.49l-.05-.08,0-.07c-.05-.07-.1-.15-.16-.22s-.23-.27-.35-.4l0,0-.1-.08a2.11,2.11,0,0,0-.23-.19l-.2-.14-.12-.08s-.06,0-.08,0a2.48,2.48,0,0,0-.44-.2,1.34,1.34,0,0,0-.26-.09l-.11,0-.08,0a.55.55,0,0,1,.12-1.09Z"/><path class="cls-4" d="M146.93,33a3.75,3.75,0,0,1,2.54-.64,6.42,6.42,0,0,1,3.09-4.83,6.34,6.34,0,0,1,5.6-.3,2.86,2.86,0,0,1,1.47-1.76c1.51-.78,3.79-.47,5.32.06a3.31,3.31,0,0,1,1.19.66,10.65,10.65,0,0,1,1,1.17,8.58,8.58,0,0,1,.53,1.46,7.93,7.93,0,0,1,3,1.19c.34.22.73.37,1.05.61a4.07,4.07,0,0,1,1,1.17c1.1,1.79,1.43,4.72-.49,6.12a2.7,2.7,0,0,1-3,.18c-.44-.25-.82-.59-1.33-.33s-.91.54-1.39.76a12.06,12.06,0,0,1-6.24,1A11.89,11.89,0,0,1,153.88,37c-1.89,1-4.19,2-6.22.85a3.65,3.65,0,0,1-1.74-2.3A2.55,2.55,0,0,1,146.93,33Zm.59,3.36c1.69,1.93,4.42.48,6.2-.49a.52.52,0,0,1,.55.06,11,11,0,0,0,10.62,2,10.55,10.55,0,0,0,1.3-.55c.44-.22.85-.54,1.3-.71a1.78,1.78,0,0,1,1.51.11,3.87,3.87,0,0,0,1.26.61,2,2,0,0,0,2-1.49,4.12,4.12,0,0,0-.17-2.79,5.27,5.27,0,0,0-4.59-3.28c-1.25-.05-1-1.31-1.44-2.09-1.14-1.88-3.69-2-5.58-1.45A1.65,1.65,0,0,0,159.19,28a.55.55,0,0,1-.86.52,5.27,5.27,0,0,0-5.32,0A5.34,5.34,0,0,0,150.52,33a.54.54,0,0,1-.6.49,2.71,2.71,0,0,0-2.57.54A1.68,1.68,0,0,0,147.52,36.36Z"/><path class="cls-2" d="M76.73,64.24a2.3,2.3,0,0,1-.31-2.61c.83-1.77,3.22-2.32,5-2.34a5.32,5.32,0,0,1,4.58,2,.54.54,0,0,0,.78.66A2.79,2.79,0,0,1,91,64.74a.56.56,0,0,0,.67.68,3.79,3.79,0,0,1,3.82,1.27,3.3,3.3,0,0,1,.1,3.88,3,3,0,0,1-3.11,1,6.81,6.81,0,0,0-1.05-.35,1.57,1.57,0,0,0-1.1.22c-.32.19-.58.45-.89.65a5.52,5.52,0,0,1-.75.42,6.07,6.07,0,0,1-3.54.45,6,6,0,0,1-1.79-.58,15.52,15.52,0,0,1-1.54-1.12c-.72-.52-1.42-.21-2.16.1a4.25,4.25,0,0,1-1.69.34,4.87,4.87,0,0,1-3.18-1.14c-.92-.79-1.74-2.17-1.09-3.37a5.84,5.84,0,0,1,2.89-2.12A.56.56,0,0,0,76.73,64.24Z"/><path class="cls-3" d="M81,68.39a.55.55,0,0,1,1.07-.14c.29,1.91,1.37,3.83,3.47,4a10.58,10.58,0,0,0,1.78,0,2.38,2.38,0,0,0,1.44-.49,3,3,0,0,0,.8-2.36l-.06-.09a2.44,2.44,0,0,1-.1-.24.65.65,0,0,1,0-.13.33.33,0,0,1,0-.22.36.36,0,0,1,.06-.2.34.34,0,0,1,.14-.15s0,0,0,0l.08-.1a.53.53,0,0,1,.39-.16.51.51,0,0,1,.38.16l.76.73a4.64,4.64,0,0,0,1.1.72,1.87,1.87,0,0,0,1.5-.07,2,2,0,0,0,1.25-2.34.54.54,0,0,1,.82-.7,2.55,2.55,0,0,1,.51,2.13l0,.09a2.8,2.8,0,0,1-2,3.1,2.6,2.6,0,0,1-1.61,0,3,3,0,0,1-1.72-.79h0l-.92,1a.53.53,0,0,1-.34.15,3.3,3.3,0,0,1-2.2,1.06,7.43,7.43,0,0,1-3.35-.26,4.89,4.89,0,0,1-.72-.37.49.49,0,0,1-.54.16C81.19,72.12,80.81,70.15,81,68.39Z"/><path class="cls-3" d="M73.18,67.75a4,4,0,0,1,1.33-2.08c.51-.48,1.29.29.77.77a2.84,2.84,0,0,0-1.06,1.67A2.36,2.36,0,0,0,75.07,70a4.55,4.55,0,0,0,1.72,1,2,2,0,0,0,1.81-.09.56.56,0,0,1,.77,0,.54.54,0,0,1,0,.77c-1.15,1-2.87.52-4.08-.14A3.69,3.69,0,0,1,73.18,67.75Z"/><path class="cls-3" d="M76.11,61.77a2.32,2.32,0,0,1,.8-1.37,5.34,5.34,0,0,1,1.39-.75.54.54,0,1,1,.29,1.05c-.65.27-1.3.58-1.42,1.36a2.61,2.61,0,0,0,.59,2,.54.54,0,1,1-.77.77A3.79,3.79,0,0,1,76.11,61.77Z"/><path class="cls-3" d="M90.47,63.89h0c0-.07,0-.14,0-.21a1.21,1.21,0,0,0,0-.18l0-.08v0a3.79,3.79,0,0,0-.2-.34h0L90.05,63l-.15-.14a.55.55,0,1,1,.77-.78,2.87,2.87,0,0,1,.9,1.92,2.78,2.78,0,0,1-.66,2,.54.54,0,0,1-.77,0,.57.57,0,0,1,0-.77h0l.06-.08L90.3,65s0-.07,0-.1h0l.06-.18a1.94,1.94,0,0,0,0-.2v0s0-.08,0-.08a2.67,2.67,0,0,0,0-.4S90.47,63.92,90.47,63.89Z"/><path class="cls-4" d="M75.5,64.42a2.84,2.84,0,0,1,0-3.08,5.87,5.87,0,0,1,4.88-3,11,11,0,0,1,3.72.29,5.5,5.5,0,0,1,2.81,2.06,3.84,3.84,0,0,1,5.23,3.59,5,5,0,0,1,3.57,1.09,4.47,4.47,0,0,1,1.53,4.09,4,4,0,0,1-2.71,3.17,4,4,0,0,1-2.08.11c-.37-.08-.7-.28-1.06-.37s-.65.19-.94.41a7.17,7.17,0,0,1-8.18.25,7.62,7.62,0,0,1-.84-.66.74.74,0,0,0-1-.11,6.32,6.32,0,0,1-2.09.58,5.94,5.94,0,0,1-3.89-1.11c-1.35-1-2.51-2.77-1.93-4.49A5.32,5.32,0,0,1,75.5,64.42Zm-.68,6.17A4.87,4.87,0,0,0,78,71.73a4.25,4.25,0,0,0,1.69-.34c.74-.31,1.44-.62,2.16-.1a15.52,15.52,0,0,0,1.54,1.12,6,6,0,0,0,1.79.58,6.07,6.07,0,0,0,3.54-.45,5.52,5.52,0,0,0,.75-.42c.31-.2.57-.46.89-.65a1.57,1.57,0,0,1,1.1-.22,6.81,6.81,0,0,1,1.05.35,3,3,0,0,0,3.11-1,3.3,3.3,0,0,0-.1-3.88,3.79,3.79,0,0,0-3.82-1.27.56.56,0,0,1-.67-.68,2.79,2.79,0,0,0-4.25-2.82.54.54,0,0,1-.78-.66,5.32,5.32,0,0,0-4.58-2c-1.78,0-4.17.57-5,2.34a2.3,2.3,0,0,0,.31,2.61.56.56,0,0,1-.11.86,5.84,5.84,0,0,0-2.89,2.12C73.08,68.42,73.9,69.8,74.82,70.59Z"/><path class="cls-2" d="M2.68,38.12A2.3,2.3,0,0,0,3,35.51c-.83-1.77-3.22-2.32-5-2.34a5.34,5.34,0,0,0-4.58,2,.55.55,0,0,1-.78.67,2.87,2.87,0,0,0-3.14.09,2.88,2.88,0,0,0-1.11,2.73.55.55,0,0,1-.67.67,3.82,3.82,0,0,0-3.82,1.28,3.29,3.29,0,0,0-.1,3.87,3,3,0,0,0,3.11,1,8.14,8.14,0,0,1,1-.36,1.63,1.63,0,0,1,1.1.23c.32.19.58.45.89.65a5.52,5.52,0,0,0,.75.42,6.09,6.09,0,0,0,3.55.45A6.32,6.32,0,0,0-4,46.28a12.86,12.86,0,0,0,1.54-1.12c.72-.52,1.42-.21,2.16.1a4.44,4.44,0,0,0,1.69.35,4.92,4.92,0,0,0,3.18-1.14c.92-.8,1.75-2.17,1.09-3.37A5.72,5.72,0,0,0,2.79,39,.56.56,0,0,1,2.68,38.12Z"/><path class="cls-2" d="M47.61,42.5a.54.54,0,0,1-.54-.54,5.34,5.34,0,0,0-2-4.76,5.27,5.27,0,0,0-5.29-.6A.56.56,0,0,1,39,36a1.64,1.64,0,0,0-1.08-1.82,5.86,5.86,0,0,0-2.73-.26,6.43,6.43,0,0,0-1.5.3l-.15,0a3.2,3.2,0,0,0-.56.27.48.48,0,0,1-.36.26,1.91,1.91,0,0,0-.52.76.76.76,0,0,1,0,.15,1.27,1.27,0,0,1-.17.4,1.4,1.4,0,0,1-.26.33,1.6,1.6,0,0,1-.76.39h0a.45.45,0,0,1-.34.1,5.29,5.29,0,0,0-4.92,2.75,4.1,4.1,0,0,0-.47,2.76A2,2,0,0,0,27,44.12a3.8,3.8,0,0,0,1.32-.47,1.81,1.81,0,0,1,1.51.05c.43.23.8.59,1.22.86a10.51,10.51,0,0,0,1.23.69A11.06,11.06,0,0,0,43,44.41a.54.54,0,0,1,.55,0c1.66,1.17,4.22,2.91,6.1,1.17a1.67,1.67,0,0,0,.43-2.25A2.73,2.73,0,0,0,47.61,42.5Z"/><path class="cls-3" d="M6.23,41.63A3.93,3.93,0,0,0,4.9,39.55c-.51-.48-1.29.29-.77.77A2.84,2.84,0,0,1,5.19,42a2.33,2.33,0,0,1-.85,1.87,4.41,4.41,0,0,1-1.72.95,2,2,0,0,1-1.81-.08.55.55,0,0,0-.77,0,.54.54,0,0,0,0,.77c1.15,1,2.87.52,4.08-.15A3.68,3.68,0,0,0,6.23,41.63Z"/><path class="cls-3" d="M3.3,35.65a2.29,2.29,0,0,0-.8-1.37,5.34,5.34,0,0,0-1.39-.75.54.54,0,1,0-.29,1c.66.27,1.3.57,1.42,1.36A2.61,2.61,0,0,1,1.65,38a.55.55,0,0,0,0,.77.56.56,0,0,0,.77,0A3.79,3.79,0,0,0,3.3,35.65Z"/><path class="cls-3" d="M50.76,43.48a.55.55,0,0,0-.67.38A1.57,1.57,0,0,1,49,45.07a3.23,3.23,0,0,1-2.2-.25c-1.21-.53-2.65-1.39-3.05-2.73a.52.52,0,0,0-.59-.38.59.59,0,0,0-.25-.17.57.57,0,0,0-.67.38,5,5,0,0,1-3.77,2.85,8.89,8.89,0,0,1-5.78-1.17,4.86,4.86,0,0,1-2-1.7v0a.38.38,0,0,0,0-.21.39.39,0,0,0-.06-.21l-.09-.11a.45.45,0,0,0-.17-.11.37.37,0,0,0-.14,0,.55.55,0,0,0-.22,0l-.13.06a.58.58,0,0,0-.19.19l0,0a.57.57,0,0,0-.51.4,2.89,2.89,0,0,1-2,1.47.83.83,0,0,1-.61-.13,2.08,2.08,0,0,1-.38-1.56,5.84,5.84,0,0,1,.47-2.14.56.56,0,0,0-.19-.74.55.55,0,0,0-.75.19,7,7,0,0,0-.59,2.25,4.46,4.46,0,0,0,.18,2,1.82,1.82,0,0,0,1.6,1.24,3.33,3.33,0,0,0,1.9-.59l.3-.2,0,0a.46.46,0,0,0,.2.19,1.36,1.36,0,0,0,.21.1l.09,0,.24,0L30,44c1.12,1.25,3.18,1.75,4.69,2.1a9,9,0,0,0,6.68-.58.39.39,0,0,0,.21,0A3.53,3.53,0,0,0,43,44.37a3.47,3.47,0,0,0,1.12,1,9.33,9.33,0,0,0,1.76,1,4.45,4.45,0,0,0,3.76,0,.47.47,0,0,0,.26-.56,2.44,2.44,0,0,0,1.22-1.66A.56.56,0,0,0,50.76,43.48Z"/><path class="cls-3" d="M45.39,36.63c-.48-.51-1.25.26-.77.77a5.73,5.73,0,0,1,1.53,4.3.56.56,0,0,0,.55.55.55.55,0,0,0,.54-.55A6.8,6.8,0,0,0,45.39,36.63Z"/><path class="cls-3" d="M35.39,33.29a4.7,4.7,0,0,0-3.95,3.1.54.54,0,1,0,1.05.29l.06-.14v0h0a1.15,1.15,0,0,1,.12-.25A4.34,4.34,0,0,1,33,35.8l.06-.07,0-.07a1.8,1.8,0,0,1,.19-.2,3.33,3.33,0,0,1,.39-.36l0,0,.1-.07.25-.16.21-.12.14-.06.08,0a3.53,3.53,0,0,1,.46-.15l.26-.06.11,0h.09a.55.55,0,1,0,0-1.09Z"/><path class="cls-7" d="M25.82,32.87a17.86,17.86,0,0,0-1.77-3,8.82,8.82,0,0,0-4.94-3.46,14.36,14.36,0,0,0-6.71.05c-4,.95-7.48,3.82-8.38,7.91a.5.5,0,0,1-.24.34A3.24,3.24,0,0,1,4,35l.07-.1A9.81,9.81,0,0,1,7.58,30.6c3.32-2.3,7.66-2.44,11.44-1.34a10.19,10.19,0,0,1,2.81,1.22,13.37,13.37,0,0,1,2.26,2,11.18,11.18,0,0,1,2.64,3.64A9.75,9.75,0,0,0,25.82,32.87Z"/><path class="cls-8" d="M12.17,23.35A13,13,0,0,0,3.09,33.6a11.06,11.06,0,0,1,3.64-5.55A13.4,13.4,0,0,1,13,25.21a14.47,14.47,0,0,1,7.36.44,10.64,10.64,0,0,1,5,4.23,13.63,13.63,0,0,1,2.41,5.94,15.18,15.18,0,0,0-2.16-8.39C22.82,23.05,16.9,21.92,12.17,23.35Z"/><path class="cls-9" d="M29.12,35.91A12.25,12.25,0,0,0,29,33.14c-.11-1-.23-1.9-.38-2.84A22.25,22.25,0,0,0,27,24.86a11.31,11.31,0,0,0-5.64-6,12.59,12.59,0,0,0-5-.76,16.7,16.7,0,0,0-5.15.81,13.3,13.3,0,0,0-6.8,5.14,12.34,12.34,0,0,0-2,7.55,14.11,14.11,0,0,1,3.45-5.76A14.6,14.6,0,0,1,21,22.5,11.12,11.12,0,0,1,27,27.67,16.72,16.72,0,0,1,28.88,36Z"/><path class="cls-10" d="M30.09,33.58q.06.44.09.87v0a20.12,20.12,0,0,0,.49-6.19,27.06,27.06,0,0,0-.83-5.87c-1-3.58-3-7.13-6.45-8.79a11.57,11.57,0,0,0-6-.82A21.8,21.8,0,0,0,12,13.86a16.48,16.48,0,0,0-8.68,6.6,15.11,15.11,0,0,0-2.06,5.35,26.82,26.82,0,0,0-.11,6.64.39.39,0,0,1,0,.19l.33.14A13.43,13.43,0,0,1,4.17,22.65a14.58,14.58,0,0,1,8-5.11,20.07,20.07,0,0,1,5.57-.47,11.42,11.42,0,0,1,5,1.26,13.22,13.22,0,0,1,5.7,7.09,24.9,24.9,0,0,1,1.31,5.4C29.89,31.74,30,32.66,30.09,33.58Z"/><path class="cls-5" d="M32.05,33.83c.14-.47.26-.93.37-1.41a27.62,27.62,0,0,0-.42-14c-.62-2.13-1.42-4.49-3.11-6a14.41,14.41,0,0,0-6.05-3,22,22,0,0,0-13.06.74A17,17,0,0,0,4.56,13.2,14.67,14.67,0,0,0,.77,18.48c-1.75,4-2.49,8.84-.78,13,0-.25,0-.5,0-.76A20.78,20.78,0,0,1,.57,24a16.18,16.18,0,0,1,2.78-5.43,18.28,18.28,0,0,1,9.77-6.16,22.42,22.42,0,0,1,6-.8,10.9,10.9,0,0,1,6,1.72c3.4,2.27,5.28,6.16,6.07,10.06a31.68,31.68,0,0,1,.6,6.37,18.65,18.65,0,0,1-.61,5.1A2.93,2.93,0,0,1,32.05,33.83Z"/><path class="cls-6" d="M-1.35,32.09l.46,0a14.65,14.65,0,0,1-.54-1.44,16.21,16.21,0,0,1-.39-7.23,21.2,21.2,0,0,1,2.35-7A17,17,0,0,1,10.8,8.65a22.68,22.68,0,0,1,14,.2,12.47,12.47,0,0,1,5.94,3.9A13.83,13.83,0,0,1,32.36,16a28.07,28.07,0,0,1,1.1,3.59,28.79,28.79,0,0,1,.72,8c.81-4.64,1-9.42-.47-13.93a16.92,16.92,0,0,0-3.63-6.23,13.14,13.14,0,0,0-6.53-3.77,28.93,28.93,0,0,0-8.61-.45A23.87,23.87,0,0,0,6.32,5.08,18,18,0,0,0-3,15.67a20.45,20.45,0,0,0,1.62,16A.56.56,0,0,1-1.35,32.09Z"/><path class="cls-4" d="M50.64,42.31A2.54,2.54,0,0,1,51.36,45a3.64,3.64,0,0,1-2,2.09c-2.15.94-4.33-.32-6.09-1.53a11.82,11.82,0,0,1-6.47,1.82,12.14,12.14,0,0,1-6.1-1.7c-.45-.27-.85-.62-1.29-.91s-.9,0-1.36.19a2.73,2.73,0,0,1-3-.52c-1.75-1.6-1.1-4.48.19-6.14a6.83,6.83,0,0,1,.73-.79.72.72,0,0,1-.07-.25,4.79,4.79,0,0,0-1.2-2.46,24.07,24.07,0,0,0-2.06-2.23,8.72,8.72,0,0,0-2.2-1.61,12,12,0,0,0-2.54-.85,14.11,14.11,0,0,0-5.64-.23,9.54,9.54,0,0,0-7.15,5.27.55.55,0,0,1-.16.38l-.1.11a2,2,0,0,0-.18.32.47.47,0,0,1-.12.19l-.11.09a.29.29,0,0,1-.13.05,3.39,3.39,0,0,1-.4,2,5.3,5.3,0,0,1,3,2.78c.58,1.73-.58,3.51-1.93,4.5A5.93,5.93,0,0,1,1,46.68,6.14,6.14,0,0,1-1,46.11a.74.74,0,0,0-1,.11,9,9,0,0,1-.84.66A7.17,7.17,0,0,1-11,46.63c-.29-.23-.55-.51-.94-.41s-.69.29-1.06.37a3.88,3.88,0,0,1-2.08-.12,4,4,0,0,1-2.71-3.17,4.48,4.48,0,0,1,1.53-4.09,5,5,0,0,1,3.57-1.08A3.92,3.92,0,0,1-11.14,35a3.91,3.91,0,0,1,3.64-.47,5.44,5.44,0,0,1,2.81-2.06,8.22,8.22,0,0,1,2.24-.41c-.3-.56-.59-1.14-.84-1.73a21.16,21.16,0,0,1-.11-16.7A18.87,18.87,0,0,1,7.71,3.36,31.94,31.94,0,0,1,17,2a22.47,22.47,0,0,1,8.84,1.23c4.93,2,8.1,6.67,9.36,11.7,1.48,6,.33,12.16-1.08,18a8.88,8.88,0,0,1,1.22-.16,5.69,5.69,0,0,1,3.47.63,2.86,2.86,0,0,1,1.27,1.91,6.31,6.31,0,0,1,5.53.92,6.39,6.39,0,0,1,2.55,5.13A3.78,3.78,0,0,1,50.64,42.31Zm-52-10.59a.56.56,0,0,1,.06.37l.46,0a14.65,14.65,0,0,1-.54-1.44,16.21,16.21,0,0,1-.39-7.23,21.2,21.2,0,0,1,2.35-7A17,17,0,0,1,10.8,8.65a22.68,22.68,0,0,1,14,.2,12.47,12.47,0,0,1,5.94,3.9A13.83,13.83,0,0,1,32.36,16a28.07,28.07,0,0,1,1.1,3.59,28.79,28.79,0,0,1,.72,8c.81-4.64,1-9.42-.47-13.93a16.92,16.92,0,0,0-3.63-6.23,13.14,13.14,0,0,0-6.53-3.77,28.93,28.93,0,0,0-8.61-.45A23.87,23.87,0,0,0,6.32,5.08,18,18,0,0,0-3,15.67,20.45,20.45,0,0,0-1.41,31.72Zm33.22-2a18.65,18.65,0,0,1-.61,5.1,2.93,2.93,0,0,1,.85-1c.14-.47.26-.93.37-1.41a27.62,27.62,0,0,0-.42-14c-.62-2.13-1.42-4.49-3.11-6a14.41,14.41,0,0,0-6.05-3,22,22,0,0,0-13.06.74A17,17,0,0,0,4.56,13.2,14.67,14.67,0,0,0,.77,18.48c-1.75,4-2.49,8.84-.78,13,0-.25,0-.5,0-.76A20.78,20.78,0,0,1,.57,24a16.18,16.18,0,0,1,2.78-5.43,18.28,18.28,0,0,1,9.77-6.16,22.42,22.42,0,0,1,6-.8,10.9,10.9,0,0,1,6,1.72c3.4,2.27,5.28,6.16,6.07,10.06A31.68,31.68,0,0,1,31.81,29.73ZM28.88,36l.24,0A12.25,12.25,0,0,0,29,33.14c-.11-1-.23-1.9-.38-2.84A22.25,22.25,0,0,0,27,24.86a11.31,11.31,0,0,0-5.64-6,12.59,12.59,0,0,0-5-.76,16.7,16.7,0,0,0-5.15.81,13.3,13.3,0,0,0-6.8,5.14,12.34,12.34,0,0,0-2,7.55,14.11,14.11,0,0,1,3.45-5.76A14.6,14.6,0,0,1,21,22.5,11.12,11.12,0,0,1,27,27.67,16.72,16.72,0,0,1,28.88,36Zm-3.24-8.52c-2.82-4.38-8.74-5.51-13.47-4.08A13,13,0,0,0,3.09,33.6a11.06,11.06,0,0,1,3.64-5.55A13.4,13.4,0,0,1,13,25.21a14.47,14.47,0,0,1,7.36.44,10.64,10.64,0,0,1,5,4.23,13.63,13.63,0,0,1,2.41,5.94A15.18,15.18,0,0,0,25.64,27.43Zm4.11,3.39c.14.92.25,1.84.34,2.76q.06.44.09.87v0a20.12,20.12,0,0,0,.49-6.19,27.06,27.06,0,0,0-.83-5.87c-1-3.58-3-7.13-6.45-8.79a11.57,11.57,0,0,0-6-.82A21.8,21.8,0,0,0,12,13.86a16.48,16.48,0,0,0-8.68,6.6,15.11,15.11,0,0,0-2.06,5.35,26.82,26.82,0,0,0-.11,6.64.39.39,0,0,1,0,.19l.33.14A13.43,13.43,0,0,1,4.17,22.65a14.58,14.58,0,0,1,8-5.11,20.07,20.07,0,0,1,5.57-.47,11.42,11.42,0,0,1,5,1.26,13.22,13.22,0,0,1,5.7,7.09A24.9,24.9,0,0,1,29.75,30.82ZM2.79,39a.56.56,0,0,1-.11-.86A2.3,2.3,0,0,0,3,35.51c-.83-1.77-3.22-2.32-5-2.34a5.34,5.34,0,0,0-4.58,2,.55.55,0,0,1-.78.67,2.87,2.87,0,0,0-3.14.09,2.88,2.88,0,0,0-1.11,2.73.55.55,0,0,1-.67.67,3.82,3.82,0,0,0-3.82,1.28,3.29,3.29,0,0,0-.1,3.87,3,3,0,0,0,3.11,1,8.14,8.14,0,0,1,1-.36,1.63,1.63,0,0,1,1.1.23c.32.19.58.45.89.65a5.52,5.52,0,0,0,.75.42,6.09,6.09,0,0,0,3.55.45A6.32,6.32,0,0,0-4,46.28a12.86,12.86,0,0,0,1.54-1.12c.72-.52,1.42-.21,2.16.1a4.44,4.44,0,0,0,1.69.35,4.92,4.92,0,0,0,3.18-1.14c.92-.8,1.75-2.17,1.09-3.37A5.72,5.72,0,0,0,2.79,39Zm23.94-2.87a9.75,9.75,0,0,0-.91-3.24,17.86,17.86,0,0,0-1.77-3,8.82,8.82,0,0,0-4.94-3.46,14.36,14.36,0,0,0-6.71.05c-4,.95-7.48,3.82-8.38,7.91a.5.5,0,0,1-.24.34A3.24,3.24,0,0,1,4,35l.07-.1A9.81,9.81,0,0,1,7.58,30.6c3.32-2.3,7.66-2.44,11.44-1.34a10.19,10.19,0,0,1,2.81,1.22,13.37,13.37,0,0,1,2.26,2A11.18,11.18,0,0,1,26.73,36.11Zm23.38,7.22a2.73,2.73,0,0,0-2.5-.83.54.54,0,0,1-.54-.54,5.34,5.34,0,0,0-2-4.76,5.27,5.27,0,0,0-5.29-.6A.56.56,0,0,1,39,36a1.64,1.64,0,0,0-1.08-1.82,5.86,5.86,0,0,0-2.73-.26,6.43,6.43,0,0,0-1.5.3l-.15,0a3.2,3.2,0,0,0-.56.27.48.48,0,0,1-.36.26,1.91,1.91,0,0,0-.52.76.76.76,0,0,1,0,.15,1.27,1.27,0,0,1-.17.4,1.4,1.4,0,0,1-.26.33,1.6,1.6,0,0,1-.76.39h0a.45.45,0,0,1-.34.1,5.29,5.29,0,0,0-4.92,2.75,4.1,4.1,0,0,0-.47,2.76A2,2,0,0,0,27,44.12a3.8,3.8,0,0,0,1.32-.47,1.81,1.81,0,0,1,1.51.05c.43.23.8.59,1.22.86a10.51,10.51,0,0,0,1.23.69A11.06,11.06,0,0,0,43,44.41a.54.54,0,0,1,.55,0c1.66,1.17,4.22,2.91,6.1,1.17A1.67,1.67,0,0,0,50.11,43.33Z"/></pattern></defs><rect id="_1_bc" data-name="1_bc" class="cls-11" width="500" height="500"/><g id="_19_bc_diamonds" data-name="19_bc_diamonds"><rect class="cls-12" width="500" height="500"/></g></svg>