<?xml version="1.0" encoding="UTF-8"?>
<svg id="Background" xmlns="http://www.w3.org/2000/svg" xmlns:xlink="http://www.w3.org/1999/xlink" viewBox="0 0 500 500">
  <defs>
    <style>
      .cls-1 {
        fill: none;
      }

      .cls-2 {
        fill: #faaf3b;
      }

      .cls-3 {
        fill: #fbfaf9;
      }

      .cls-4 {
        fill: #fbed21;
      }

      .cls-5 {
        fill: #ff5a4c;
      }

      .cls-6 {
        fill: #71cdf2;
      }

      .cls-7 {
        fill: #a0db91;
      }

      .cls-8 {
        fill: #333;
      }

      .cls-9 {
        fill: #bccbd3;
      }

      .cls-10 {
        fill: #ca86b4;
      }

      .cls-11 {
        fill: #dcdbda;
      }

      .cls-12 {
        fill: url(#New_Pattern_14);
      }
    </style>
    <pattern id="New_Pattern_14" data-name="New Pattern 14" x="0" y="0" width="247.76" height="146.08" patternTransform="translate(45 -25)" patternUnits="userSpaceOnUse" viewBox="0 0 247.76 146.08">
      <g>
        <rect class="cls-1" y="0" width="247.76" height="146.08"/>
        <g>
          <path class="cls-3" d="M200.61,137.28c-.69-.68-.7-1.77-.31-2.61,.83-1.77,3.22-2.32,5-2.34,1.7-.02,3.58,.49,4.58,1.96-.15,.42,.3,.96,.78,.67,.96-.58,2.22-.58,3.14,.09,.83,.6,1.28,1.72,1.11,2.73-.07,.41,.24,.77,.67,.67,1.37-.32,2.95,.14,3.82,1.28,.83,1.09,.95,2.76,.1,3.87-.7,.91-1.99,1.38-3.11,1.04-.36-.11-.68-.3-1.05-.36-.39-.06-.76,.02-1.1,.23-.31,.19-.58,.45-.88,.65-.24,.16-.49,.3-.76,.42-1.08,.51-2.37,.65-3.54,.45-.62-.11-1.22-.29-1.78-.59-.58-.3-1.01-.74-1.54-1.12-.73-.52-1.43-.21-2.16,.1-.54,.23-1.11,.34-1.69,.34-1.14,0-2.31-.39-3.18-1.14-.92-.8-1.75-2.17-1.09-3.37,.58-1.06,1.83-1.64,2.89-2.12,.32-.15,.34-.63,.11-.86Z"/>
          <g>
            <path class="cls-11" d="M204.91,141.43c.03-.27,.18-.5,.47-.54,.24-.03,.56,.12,.6,.39,.28,1.91,1.37,3.83,3.47,4.03,.59,.06,1.19,.04,1.78,0,.51-.04,1.04-.14,1.43-.49,.65-.58,.84-1.52,.8-2.36-.02-.03-.04-.06-.05-.09-.04-.08-.07-.16-.1-.24-.02-.04-.03-.09-.04-.13-.02-.07-.03-.14,0-.22,0-.07,.02-.14,.06-.2,.03-.06,.08-.11,.14-.15,0,0,.01,0,.02-.02,.02-.04,.05-.07,.08-.1,.1-.1,.24-.17,.39-.16,.15,0,.28,.06,.39,.16l.76,.74c.34,.28,.69,.55,1.1,.71,.5,.2,1.01,.15,1.5-.07,.91-.41,1.59-1.34,1.25-2.34-.14-.22-.15-.5,.05-.7,.19-.19,.58-.23,.77,0,.5,.6,.65,1.37,.51,2.12,.01,.03,.02,.06,.03,.09,.27,1.39-.71,2.7-2.03,3.1-.54,.16-1.1,.15-1.61-.03-.66-.04-1.22-.38-1.71-.79h0l-.92,1.01c-.08,.09-.22,.14-.34,.15-.56,.64-1.32,.96-2.2,1.05-1.08,.11-2.31,.14-3.34-.26-.26-.1-.5-.22-.72-.37-.14,.15-.35,.24-.54,.16-1.8-.76-2.18-2.73-1.96-4.49Z"/>
            <path class="cls-11" d="M197.06,140.8c.15-.83,.73-1.53,1.33-2.08,.51-.48,1.29,.29,.77,.77-.48,.44-.99,.99-1.06,1.66-.08,.72,.35,1.4,.85,1.87,.48,.45,1.1,.76,1.72,.95,.55,.17,1.32,.33,1.81-.09,.22-.19,.55-.22,.77,0,.2,.2,.22,.58,0,.77-1.16,1-2.88,.52-4.08-.14-1.31-.73-2.41-2.13-2.12-3.71Z"/>
            <path class="cls-11" d="M200,134.81c.09-.53,.37-1.03,.79-1.37,.42-.34,.9-.55,1.4-.75,.27-.11,.6,.12,.67,.38,.09,.31-.11,.56-.38,.67-.66,.27-1.3,.57-1.43,1.36-.11,.71,.13,1.49,.6,2.05,.19,.22,.22,.55,0,.77-.2,.2-.58,.23-.77,0-.73-.86-1.08-1.99-.88-3.11Z"/>
            <path class="cls-11" d="M214.35,136.93h0c-.01-.08-.03-.14-.04-.21-.02-.06-.03-.12-.06-.18,0-.03-.02-.05-.03-.08v-.02c-.07-.12-.14-.23-.21-.34h0s-.05-.06-.07-.08c-.05-.05-.1-.1-.15-.15-.21-.19-.21-.58,0-.77,.23-.21,.54-.2,.77,0,.55,.49,.84,1.19,.9,1.92,.06,.73-.19,1.45-.66,2.01-.18,.22-.58,.2-.77,0-.21-.23-.2-.54,0-.77h.01s.04-.07,.06-.09c.03-.05,.07-.11,.1-.16,.02-.03,.03-.06,.05-.09h0c.01-.06,.04-.12,.06-.18,.02-.07,.04-.14,.05-.2v-.03s.02-.07,.02-.08c.01-.13,.01-.27,0-.4,0-.03,0-.05,0-.08Z"/>
          </g>
          <path class="cls-8" d="M199.39,137.46c-.6-1.02-.62-2.05,0-3.08,1.07-1.77,2.79-2.99,4.88-3.03,1.2-.03,2.58-.1,3.72,.29,1.13,.39,2.13,1.07,2.8,2.06,1.2-.44,2.61-.3,3.64,.47,1,.74,1.56,1.91,1.59,3.12,1.28-.11,2.57,.26,3.57,1.08,1.2,.98,1.75,2.57,1.52,4.09-.22,1.49-1.29,2.69-2.71,3.17-.67,.23-1.4,.27-2.08,.12-.37-.08-.69-.28-1.06-.37-.39-.09-.65,.18-.94,.41-2.3,1.79-5.77,1.88-8.18,.25-.3-.2-.57-.43-.83-.66-.35-.31-.56-.29-.97-.11-.68,.3-1.34,.52-2.09,.57-1.36,.1-2.79-.3-3.89-1.1-1.35-.99-2.52-2.77-1.93-4.5,.46-1.35,1.71-2.17,2.95-2.78Zm-.68,6.17c.87,.75,2.04,1.15,3.18,1.14,.58,0,1.16-.12,1.69-.34,.73-.31,1.43-.62,2.16-.1,.53,.38,.96,.81,1.54,1.12,.56,.29,1.16,.48,1.78,.59,1.17,.2,2.46,.06,3.54-.45,.26-.12,.51-.26,.76-.42,.31-.2,.57-.46,.88-.65,.34-.2,.71-.29,1.1-.23,.37,.06,.7,.25,1.05,.36,1.11,.34,2.4-.12,3.11-1.04,.85-1.11,.73-2.79-.1-3.87-.87-1.14-2.45-1.59-3.82-1.28-.43,.1-.74-.26-.67-.67,.17-1.01-.28-2.13-1.11-2.73-.92-.67-2.19-.67-3.14-.09-.48,.29-.93-.25-.78-.67-1-1.47-2.87-1.98-4.58-1.96-1.78,.02-4.17,.57-5,2.34-.39,.84-.38,1.93,.31,2.61,.23,.23,.21,.71-.11,.86-1.05,.48-2.31,1.06-2.89,2.12-.66,1.2,.17,2.57,1.09,3.37Z"/>
        </g>
        <g>
          <path class="cls-3" d="M26.04,106.57c.27,.06,.6-.21,.6-.48,0-1.8,.93-3.56,2.49-4.51,1.59-.97,3.73-.97,5.32-.02,.39,.23,.95-.02,.86-.52-.14-.81,.56-1.46,1.28-1.69,.86-.27,1.86-.13,2.74,.04,.46,.09,.99,.24,1.47,.46,.04,.03,.09,.05,.13,.06,.19,.1,.37,.21,.53,.33,.06,.16,.19,.26,.33,.31,.2,.23,.36,.49,.43,.81,0,.05,0,.1,0,.15,.02,.14,.06,.29,.12,.42,.06,.13,.14,.25,.23,.36,.09,.11,.2,.21,.32,.29,.12,.08,.25,.15,.39,.18h0c.08,.08,.19,.13,.33,.14,2.01,.08,3.83,1.42,4.58,3.28,.35,.86,.47,1.9,.17,2.8-.28,.85-1.03,1.59-1.99,1.49-.47-.05-.85-.4-1.26-.61-.48-.25-1-.31-1.51-.12-.46,.18-.86,.5-1.3,.72-.42,.21-.86,.39-1.3,.55-3.57,1.23-7.76,.46-10.62-2.01-.14-.12-.39-.15-.55-.06-1.78,.98-4.52,2.43-6.2,.49-.56-.65-.82-1.6-.17-2.29,.64-.68,1.72-.74,2.57-.55Z"/>
          <g>
            <path class="cls-11" d="M22.8,107.19c.27-.04,.61,.16,.62,.45,.04,.61,.44,1.08,.99,1.32,.7,.31,1.5,.21,2.21,0,1.26-.39,2.79-1.08,3.33-2.38,.12-.29,.39-.37,.62-.31,.08-.07,.17-.12,.27-.14,.32-.05,.55,.17,.62,.45,.44,1.61,1.89,2.76,3.43,3.25,1.91,.6,4.06,.2,5.88-.53,.82-.33,1.61-.77,2.14-1.48v-.02c-.02-.07-.01-.15,.01-.22,.01-.07,.04-.14,.09-.19l.1-.1c.05-.05,.12-.08,.19-.09,.04-.02,.09-.03,.14-.02,.07,0,.15,0,.22,.03l.12,.07c.07,.06,.13,.13,.17,.21,0,0,.02,.01,.02,.02,.23,.03,.41,.22,.47,.45,.14,.54,.57,.98,1.05,1.3,.24,.17,.52,.32,.81,.39,.21,.05,.46,.04,.62-.07,.42-.29,.5-.97,.55-1.51,.06-.73-.01-1.48-.23-2.17-.09-.28-.01-.59,.28-.72,.24-.11,.63,0,.72,.28,.24,.75,.35,1.51,.34,2.3-.01,.65-.09,1.38-.4,1.96-.35,.67-.95,1.08-1.73,1.05-.66-.03-1.31-.39-1.82-.79-.1-.08-.19-.16-.28-.24,0,.01-.01,.03-.02,.04-.06,.08-.13,.13-.22,.17-.07,.03-.15,.05-.22,.07-.03,0-.07,.01-.1,.01-.08,0-.16,.01-.24,0-.04,0-.08-.01-.12-.02-1.25,1.12-3.35,1.39-4.89,1.57-2.26,.27-4.7,.1-6.57-1.32-.07,0-.14-.01-.21-.05-.58-.31-1.04-.76-1.36-1.29-.27,.4-.81,.61-1.22,.84-.6,.32-1.21,.62-1.86,.81-1.26,.38-2.62,.35-3.74-.39-.23-.15-.27-.38-.19-.58-.57-.43-.99-1.05-1.04-1.79-.02-.29,.14-.58,.45-.62Z"/>
            <path class="cls-11" d="M28.89,100.97c.54-.46,1.22,.4,.68,.85-1.21,1.03-1.92,2.53-2,4.1-.01,.29-.32,.51-.6,.48-.31-.03-.5-.31-.48-.6,.09-1.86,.98-3.63,2.4-4.84Z"/>
            <path class="cls-11" d="M39.2,98.76c1.76,.37,3.18,1.75,3.59,3.51,.06,.28-.17,.59-.45,.62-.31,.04-.56-.15-.62-.45-.01-.05-.02-.1-.04-.14v-.02h0c-.03-.09-.06-.18-.09-.26-.07-.17-.15-.33-.23-.49l-.05-.08s-.03-.05-.05-.07c-.05-.08-.1-.15-.16-.22-.11-.14-.23-.27-.35-.4l-.03-.03s-.06-.06-.09-.08c-.07-.06-.15-.13-.23-.19-.07-.05-.13-.1-.2-.14-.04-.03-.08-.05-.13-.08-.01,0-.05-.03-.07-.04-.14-.08-.29-.15-.44-.2-.08-.03-.17-.06-.26-.09-.04-.01-.07-.02-.11-.03,0,0-.06-.01-.09-.02-.28-.06-.53-.29-.48-.6,.04-.27,.3-.55,.6-.48Z"/>
          </g>
          <path class="cls-8" d="M23.05,106.04c.72-.52,1.65-.72,2.54-.64,.2-1.98,1.37-3.82,3.09-4.82,1.7-.99,3.8-1.05,5.6-.31,.2-.75,.77-1.4,1.47-1.76,1.5-.78,3.79-.47,5.32,.07,.43,.15,.86,.34,1.19,.66,.34,.33,.67,.79,.96,1.17,.1,.13,.58,1.47,.52,1.46,1.06,.19,2.08,.6,2.97,1.19,.34,.22,.73,.37,1.04,.6,.4,.3,.71,.75,.97,1.17,1.1,1.79,1.43,4.73-.48,6.13-.93,.68-2.06,.76-3.06,.18-.44-.25-.82-.6-1.33-.33-.47,.24-.91,.54-1.39,.76-1.93,.9-4.13,1.23-6.25,1.01-2.26-.23-4.47-1.09-6.24-2.52-1.88,1.01-4.19,2.03-6.21,.85-.85-.49-1.54-1.33-1.74-2.29-.21-.98,.2-2,1.01-2.58Zm.59,3.36c1.68,1.93,4.42,.48,6.2-.49,.16-.09,.41-.06,.55,.06,2.86,2.47,7.05,3.25,10.62,2.01,.45-.15,.88-.34,1.3-.55,.44-.22,.85-.54,1.3-.72,.51-.2,1.03-.13,1.51,.12,.41,.21,.79,.56,1.26,.61,.96,.11,1.7-.64,1.99-1.49,.3-.9,.18-1.93-.17-2.8-.76-1.86-2.57-3.2-4.58-3.28-1.25-.05-.97-1.31-1.44-2.09-1.14-1.88-3.69-2.04-5.58-1.45-.72,.22-1.42,.88-1.28,1.69,.09,.51-.48,.76-.86,.52-1.59-.95-3.73-.95-5.32,.02-1.55,.95-2.48,2.71-2.49,4.51,0,.27-.34,.54-.6,.48-.85-.19-1.93-.13-2.57,.55-.65,.69-.39,1.64,.17,2.29Z"/>
        </g>
        <g>
          <g>
            <path class="cls-3" d="M250.45,38.12c.69-.68,.7-1.77,.31-2.61-.83-1.77-3.22-2.32-5-2.34-1.7-.02-3.58,.49-4.58,1.96,.15,.42-.3,.96-.78,.67-.96-.58-2.22-.58-3.14,.09-.83,.6-1.28,1.72-1.11,2.73,.07,.41-.24,.77-.67,.67-1.37-.32-2.95,.14-3.82,1.28-.83,1.09-.95,2.76-.1,3.87,.7,.91,1.99,1.38,3.11,1.04,.36-.11,.68-.3,1.05-.36,.39-.06,.76,.02,1.1,.23,.31,.19,.58,.45,.88,.65,.24,.16,.49,.3,.76,.42,1.08,.51,2.37,.65,3.54,.45,.62-.11,1.22-.29,1.78-.59,.58-.3,1.01-.74,1.54-1.12,.73-.52,1.43-.21,2.16,.1,.54,.23,1.11,.34,1.69,.34,1.14,0,2.31-.39,3.18-1.14,.92-.8,1.75-2.17,1.09-3.37-.58-1.06-1.83-1.64-2.89-2.12-.32-.15-.34-.63-.11-.86Z"/>
            <g>
              <path class="cls-11" d="M246.14,42.27c-.03-.27-.18-.5-.47-.54-.24-.03-.56,.12-.6,.39-.28,1.91-1.37,3.83-3.47,4.03-.59,.06-1.19,.04-1.78,0-.51-.04-1.04-.14-1.43-.49-.65-.58-.84-1.52-.8-2.36,.02-.03,.04-.06,.05-.09,.04-.08,.07-.16,.1-.24,.02-.04,.03-.09,.04-.13,.02-.07,.03-.14,0-.22,0-.07-.02-.14-.06-.2-.03-.06-.08-.11-.14-.15,0,0-.01,0-.02-.02-.02-.04-.05-.07-.08-.1-.1-.1-.24-.17-.39-.16-.15,0-.28,.06-.39,.16l-.76,.74c-.34,.28-.69,.55-1.1,.71-.5,.2-1.01,.15-1.5-.07-.91-.41-1.59-1.34-1.25-2.34,.14-.22,.15-.5-.05-.7-.19-.19-.58-.23-.77,0-.5,.6-.65,1.37-.51,2.12-.01,.03-.02,.06-.03,.09-.27,1.39,.71,2.7,2.03,3.1,.54,.16,1.1,.15,1.61-.03,.66-.04,1.22-.38,1.71-.79h0l.92,1.01c.08,.09,.22,.14,.34,.15,.56,.64,1.32,.96,2.2,1.05,1.08,.11,2.31,.14,3.34-.26,.26-.1,.5-.22,.72-.37,.14,.15,.35,.24,.54,.16,1.8-.76,2.18-2.73,1.96-4.49Z"/>
              <path class="cls-11" d="M254,41.63c-.15-.83-.73-1.53-1.33-2.08-.51-.48-1.29,.29-.77,.77,.48,.44,.99,.99,1.06,1.66,.08,.72-.35,1.4-.85,1.87-.48,.45-1.1,.76-1.72,.95-.55,.17-1.32,.33-1.81-.09-.22-.19-.55-.22-.77,0-.2,.2-.22,.58,0,.77,1.16,1,2.88,.52,4.08-.14,1.31-.73,2.41-2.13,2.12-3.71Z"/>
              <path class="cls-11" d="M236.7,37.85c-.01,.13,0,.27,0,.4,0,0,0,.06,.01,.08v.03c.02,.07,.04,.14,.05,.2,.02,.06,.05,.12,.06,.18h0s.03,.07,.05,.1c.03,.06,.06,.11,.1,.16,.02,.03,.04,.05,.06,.08h.01c.2,.25,.21,.55,0,.78-.19,.2-.59,.22-.77,0-.47-.56-.71-1.28-.66-2.01,.06-.72,.35-1.43,.9-1.92,.23-.2,.54-.21,.77,0,.21,.19,.21,.58,0,.77-.05,.05-.1,.09-.15,.15-.02,.02-.04,.06-.07,.08h0c-.08,.12-.14,.23-.2,.35v.02s-.03,.05-.04,.08c-.02,.06-.04,.12-.06,.18-.02,.07-.03,.14-.04,.21h0s0,.06,0,.09Z"/>
            </g>
            <path class="cls-2" d="M279.82,33.83c.13-.47,.26-.94,.37-1.41,1.07-4.61,.92-9.5-.42-14.04-.63-2.13-1.42-4.5-3.12-6.03-1.66-1.5-3.91-2.4-6.04-2.96-4.27-1.11-8.95-.8-13.07,.74-1.89,.71-3.69,1.72-5.22,3.05-1.67,1.46-2.9,3.26-3.79,5.28-1.75,3.99-2.49,8.85-.78,12.97-.02-.25-.03-.51-.04-.76-.1-2.25-.01-4.53,.62-6.71,.57-1.97,1.52-3.81,2.78-5.43,2.43-3.11,6-5.15,9.78-6.17,1.95-.53,4.01-.82,6.04-.8,2.13,.02,4.2,.52,5.98,1.72,3.4,2.27,5.28,6.16,6.07,10.07,.42,2.09,.59,4.23,.6,6.37,0,1.71-.14,3.45-.61,5.11,.2-.41,.5-.73,.86-1Z"/>
            <path class="cls-5" d="M246.41,32.09c.16,.01,.31,.03,.47,.05-.21-.47-.39-.95-.55-1.45-.72-2.33-.76-4.82-.39-7.22,.37-2.42,1.17-4.83,2.35-6.98,2.16-3.95,6.02-6.56,10.27-7.85,4.49-1.36,9.54-1.38,13.98,.2,2.22,.8,4.51,1.97,5.94,3.9,.73,.99,1.21,2.13,1.65,3.27,.45,1.17,.82,2.37,1.1,3.59,.61,2.61,.85,5.29,.72,7.96,.81-4.64,1.05-9.42-.47-13.93-.77-2.29-1.97-4.47-3.63-6.23-1.78-1.89-4.01-3.15-6.53-3.77-2.8-.68-5.74-.64-8.6-.46-2.94,.18-5.93,.63-8.62,1.88-4.4,2.04-7.81,6-9.34,10.59-1.76,5.28-1.03,11.2,1.62,16.05,.07,.13,.08,.26,.06,.37Z"/>
            <path class="cls-8" d="M298.4,42.31c.74,.67,1.03,1.73,.72,2.67-.31,.94-1.09,1.69-1.98,2.09-2.14,.95-4.32-.31-6.08-1.53-1.92,1.23-4.2,1.84-6.48,1.82-2.13-.02-4.27-.58-6.1-1.69-.45-.28-.85-.62-1.29-.91-.48-.31-.89-.02-1.36,.19-1.05,.46-2.17,.26-3.02-.52-1.75-1.6-1.1-4.48,.19-6.14,.22-.28,.47-.55,.73-.79-.04-.08-.07-.16-.08-.25-.09-.93-.62-1.75-1.19-2.46-.64-.78-1.34-1.52-2.06-2.22-.66-.64-1.38-1.2-2.21-1.61-.8-.4-1.67-.65-2.54-.85-1.83-.43-3.77-.56-5.63-.22-3.02,.54-5.91,2.39-7.16,5.27,0,.14-.06,.28-.16,.38-.03,.03-.06,.07-.1,.11-.07,.1-.13,.2-.18,.32-.03,.07-.07,.14-.12,.2l-.11,.09s-.08,.04-.13,.05c.07,.71-.05,1.42-.41,2.03,1.24,.61,2.49,1.44,2.95,2.78,.59,1.73-.58,3.51-1.93,4.5-1.1,.8-2.53,1.21-3.89,1.1-.75-.06-1.41-.28-2.09-.57-.42-.18-.63-.2-.97,.11-.27,.24-.54,.46-.83,.66-2.42,1.63-5.88,1.54-8.18-.25-.29-.23-.55-.51-.94-.41-.36,.09-.69,.29-1.06,.37-.69,.15-1.42,.11-2.08-.12-1.42-.48-2.49-1.68-2.71-3.17-.22-1.52,.33-3.11,1.52-4.09,1.01-.82,2.29-1.19,3.57-1.08,.02-1.22,.58-2.38,1.59-3.12,1.04-.77,2.45-.91,3.64-.47,.68-.99,1.67-1.67,2.8-2.06,.7-.24,1.47-.37,2.24-.4-.3-.57-.58-1.14-.84-1.74-2.25-5.29-2.44-11.41-.11-16.7,2.1-4.77,6.15-8.62,11.11-10.27,2.99-1,6.19-1.27,9.32-1.35,2.97-.07,6.05,.12,8.84,1.23,4.94,1.98,8.1,6.66,9.36,11.7,1.49,5.95,.33,12.16-1.08,18.02,.42-.09,.83-.14,1.22-.17,1.15-.07,2.48-.03,3.47,.63,.66,.44,1.16,1.14,1.27,1.91,1.86-.54,3.95-.26,5.53,.92,1.6,1.19,2.57,3.15,2.55,5.13,.89,.02,1.79,.32,2.45,.91Zm-52.05-10.58c.07,.13,.08,.26,.06,.37,.16,.01,.31,.03,.47,.05-.21-.47-.39-.95-.55-1.45-.72-2.33-.76-4.82-.39-7.22,.37-2.42,1.17-4.83,2.35-6.98,2.16-3.95,6.02-6.56,10.27-7.85,4.49-1.36,9.54-1.38,13.98,.2,2.22,.8,4.51,1.97,5.94,3.9,.73,.99,1.21,2.13,1.65,3.27,.45,1.17,.82,2.37,1.1,3.59,.61,2.61,.85,5.29,.72,7.96,.81-4.64,1.05-9.42-.47-13.93-.77-2.29-1.97-4.47-3.63-6.23-1.78-1.89-4.01-3.15-6.53-3.77-2.8-.68-5.74-.64-8.6-.46-2.94,.18-5.93,.63-8.62,1.88-4.4,2.04-7.81,6-9.34,10.59-1.76,5.28-1.03,11.2,1.62,16.05Zm33.22-1.99c0,1.71-.14,3.45-.61,5.11,.2-.41,.5-.73,.86-1,.13-.47,.26-.94,.37-1.41,1.07-4.61,.92-9.5-.42-14.04-.63-2.13-1.42-4.5-3.12-6.03-1.66-1.5-3.91-2.4-6.04-2.96-4.27-1.11-8.95-.8-13.07,.74-1.89,.71-3.69,1.72-5.22,3.05-1.67,1.46-2.9,3.26-3.79,5.28-1.75,3.99-2.49,8.85-.78,12.97-.02-.25-.03-.51-.04-.76-.1-2.25-.01-4.53,.62-6.71,.57-1.97,1.52-3.81,2.78-5.43,2.43-3.11,6-5.15,9.78-6.17,1.95-.53,4.01-.82,6.04-.8,2.13,.02,4.2,.52,5.98,1.72,3.4,2.27,5.28,6.16,6.07,10.07,.42,2.09,.59,4.23,.6,6.37Zm-2.92,6.22c.08-.02,.16-.03,.24-.05,.11-.91-.07-1.87-.17-2.76-.1-.95-.22-1.9-.38-2.85-.31-1.86-.76-3.72-1.53-5.44-1.14-2.52-3.03-4.87-5.64-5.96-1.57-.66-3.3-.78-4.98-.76-1.75,.02-3.49,.25-5.15,.8-2.74,.91-5.2,2.74-6.8,5.15-1.47,2.22-2.21,4.9-2.04,7.55,.66-2.16,1.86-4.15,3.45-5.76,3.84-3.88,9.98-5.27,15.11-3.37,2.59,.96,4.74,2.72,6.05,5.17,1.34,2.51,1.92,5.44,1.84,8.28Zm-3.25-8.53c-2.81-4.38-8.74-5.51-13.47-4.08-4.7,1.42-8.26,5.42-9.08,10.25,.59-2.17,1.91-4.12,3.64-5.56,1.8-1.49,4-2.44,6.31-2.84,2.39-.41,5.06-.41,7.36,.45,2.12,.79,3.76,2.37,5,4.23,1.17,1.75,2.18,3.8,2.4,5.93,.05-2.9-.58-5.94-2.16-8.39Zm4.12,3.39c.13,.92,.24,1.84,.34,2.77,.03,.29,.06,.58,.09,.87v-.04c.56-2.01,.59-4.12,.5-6.19-.08-1.98-.32-3.95-.83-5.87-.95-3.58-3-7.13-6.45-8.79-1.86-.89-3.97-.98-5.99-.82-1.84,.15-3.66,.52-5.41,1.12-3.51,1.21-6.69,3.43-8.68,6.6-1.02,1.63-1.73,3.45-2.06,5.35-.39,2.19-.27,4.43-.11,6.64,0,.07,0,.14-.02,.2,.11,.04,.22,.09,.33,.14-.52-3.58,.48-7.27,2.71-10.13,1.99-2.55,4.87-4.35,8.01-5.11,1.81-.44,3.7-.57,5.56-.48,1.74,.08,3.45,.42,4.99,1.27,2.74,1.5,4.62,4.21,5.71,7.08,.66,1.74,1.04,3.57,1.31,5.4Zm-26.96,8.16c-.32-.15-.34-.63-.11-.86,.69-.68,.7-1.77,.31-2.61-.83-1.77-3.22-2.32-5-2.34-1.7-.02-3.58,.49-4.58,1.96,.15,.42-.3,.96-.78,.67-.96-.58-2.22-.58-3.14,.09-.83,.6-1.28,1.72-1.11,2.73,.07,.41-.24,.77-.67,.67-1.37-.32-2.95,.14-3.82,1.28-.83,1.09-.95,2.76-.1,3.87,.7,.91,1.99,1.38,3.11,1.04,.36-.11,.68-.3,1.05-.36,.39-.06,.76,.02,1.1,.23,.31,.19,.58,.45,.88,.65,.24,.16,.49,.3,.76,.42,1.08,.51,2.37,.65,3.54,.45,.62-.11,1.22-.29,1.78-.59,.58-.3,1.01-.74,1.54-1.12,.73-.52,1.43-.21,2.16,.1,.54,.23,1.11,.34,1.69,.34,1.14,0,2.31-.39,3.18-1.14,.92-.8,1.75-2.17,1.09-3.37-.58-1.06-1.83-1.64-2.89-2.12Zm23.93-2.86c-.09-1.13-.44-2.22-.91-3.24-.49-1.05-1.07-2.07-1.77-3.01-1.24-1.68-2.9-2.96-4.94-3.46-2.16-.54-4.55-.47-6.71,.05-3.96,.95-7.48,3.82-8.38,7.91-.04,.17-.13,.27-.24,.33,.06,.1,.12,.21,.18,.32,.02-.03,.04-.06,.07-.09,.73-1.77,1.98-3.24,3.56-4.33,3.32-2.29,7.66-2.43,11.45-1.34,.98,.28,1.95,.66,2.81,1.23,.84,.56,1.57,1.26,2.26,1.99,1.03,1.09,2.14,2.23,2.64,3.64Zm23.38,7.22c-.56-.75-1.63-.92-2.5-.83-.27,.03-.57-.27-.55-.55,.19-1.79-.54-3.64-1.98-4.76-1.47-1.14-3.6-1.37-5.29-.6-.41,.19-.94-.12-.8-.62,.23-.79-.4-1.52-1.09-1.82-.83-.36-1.84-.33-2.72-.26-.47,.04-1.01,.13-1.51,.3-.04,.02-.09,.04-.14,.05-.2,.08-.39,.16-.56,.27-.08,.16-.22,.24-.36,.27-.23,.2-.41,.45-.52,.75,0,.05,0,.1-.01,.15-.03,.14-.09,.28-.16,.4-.07,.12-.16,.24-.27,.33-.11,.1-.22,.19-.35,.25-.13,.06-.26,.12-.41,.14h0c-.08,.07-.2,.11-.34,.1-2.01-.14-3.96,.99-4.92,2.76-.44,.82-.68,1.84-.48,2.76,.19,.87,.85,1.7,1.81,1.7,.47,0,.89-.3,1.32-.47,.5-.19,1.02-.2,1.51,.05,.44,.22,.81,.59,1.22,.86,.4,.26,.81,.49,1.23,.69,3.42,1.62,7.66,1.3,10.78-.84,.15-.1,.4-.1,.55,0,1.66,1.17,4.22,2.91,6.11,1.17,.63-.58,.99-1.5,.42-2.25Z"/>
          </g>
          <g>
            <path class="cls-3" d="M200.61-8.8c-.69-.68-.7-1.77-.31-2.61,.83-1.77,3.22-2.32,5-2.34,1.7-.02,3.58,.49,4.58,1.96-.15,.42,.3,.96,.78,.67,.96-.58,2.22-.58,3.14,.09,.83,.6,1.28,1.72,1.11,2.73-.07,.41,.24,.77,.67,.67,1.37-.32,2.95,.14,3.82,1.28,.83,1.09,.95,2.76,.1,3.87-.7,.91-1.99,1.38-3.11,1.04-.36-.11-.68-.3-1.05-.36-.39-.06-.76,.02-1.1,.23-.31,.19-.58,.45-.88,.65-.24,.16-.49,.3-.76,.42-1.08,.51-2.37,.65-3.54,.45-.62-.11-1.22-.29-1.78-.59-.58-.3-1.01-.74-1.54-1.12-.73-.52-1.43-.21-2.16,.1-.54,.23-1.11,.34-1.69,.34-1.14,0-2.31-.39-3.18-1.14-.92-.8-1.75-2.17-1.09-3.37,.58-1.06,1.83-1.64,2.89-2.12,.32-.15,.34-.63,.11-.86Z"/>
            <path class="cls-11" d="M204.91-4.65c.03-.27,.18-.5,.47-.54,.24-.03,.56,.12,.6,.39,.28,1.91,1.37,3.83,3.47,4.03,.59,.06,1.19,.04,1.78,0,.51-.04,1.04-.14,1.43-.49,.65-.58,.84-1.52,.8-2.36-.02-.03-.04-.06-.05-.09-.04-.08-.07-.16-.1-.24-.02-.04-.03-.09-.04-.13-.02-.07-.03-.14,0-.22,0-.07,.02-.14,.06-.2,.03-.06,.08-.11,.14-.15,0,0,.01,0,.02-.02,.02-.04,.05-.07,.08-.1,.1-.1,.24-.17,.39-.16,.15,0,.28,.06,.39,.16l.76,.74c.34,.28,.69,.55,1.1,.71,.5,.2,1.01,.15,1.5-.07,.91-.41,1.59-1.34,1.25-2.34-.14-.22-.15-.5,.05-.7,.19-.19,.58-.23,.77,0,.5,.6,.65,1.37,.51,2.12,.01,.03,.02,.06,.03,.09,.27,1.39-.71,2.7-2.03,3.1-.54,.16-1.1,.15-1.61-.03-.66-.04-1.22-.38-1.71-.79h0l-.92,1.01c-.08,.09-.22,.14-.34,.15-.56,.64-1.32,.96-2.2,1.05-1.08,.11-2.31,.14-3.34-.26-.26-.1-.5-.22-.72-.37-.14,.15-.35,.24-.54,.16-1.8-.76-2.18-2.73-1.96-4.49Z"/>
            <path class="cls-8" d="M199.39-8.62c-.6-1.02-.62-2.05,0-3.08,1.07-1.77,2.79-2.99,4.88-3.03,1.2-.03,2.58-.1,3.72,.29,1.13,.39,2.13,1.07,2.8,2.06,1.2-.44,2.61-.3,3.64,.47,1,.74,1.56,1.91,1.59,3.12,1.28-.11,2.57,.26,3.57,1.08,1.2,.98,1.75,2.57,1.52,4.09-.22,1.49-1.29,2.69-2.71,3.17-.67,.23-1.4,.27-2.08,.12-.37-.08-.69-.28-1.06-.37-.39-.09-.65,.18-.94,.41-2.3,1.79-5.77,1.88-8.18,.25-.3-.2-.57-.43-.83-.66-.35-.31-.56-.29-.97-.11-.68,.3-1.34,.52-2.09,.57-1.36,.1-2.79-.3-3.89-1.1-1.35-.99-2.52-2.77-1.93-4.5,.46-1.35,1.71-2.17,2.95-2.78Zm-.68,6.17c.87,.75,2.04,1.15,3.18,1.14,.58,0,1.16-.12,1.69-.34,.73-.31,1.43-.62,2.16-.1,.53,.38,.96,.81,1.54,1.12,.56,.29,1.16,.48,1.78,.59,1.17,.2,2.46,.06,3.54-.45,.26-.12,.51-.26,.76-.42,.31-.2,.57-.46,.88-.65,.34-.2,.71-.29,1.1-.23,.37,.06,.7,.25,1.05,.36,1.11,.34,2.4-.12,3.11-1.04,.85-1.11,.73-2.79-.1-3.87-.87-1.14-2.45-1.59-3.82-1.28-.43,.1-.74-.26-.67-.67,.17-1.01-.28-2.13-1.11-2.73-.92-.67-2.19-.67-3.14-.09-.48,.29-.93-.25-.78-.67-1-1.47-2.87-1.98-4.58-1.96-1.78,.02-4.17,.57-5,2.34-.39,.84-.38,1.93,.31,2.61,.23,.23,.21,.71-.11,.86-1.05,.48-2.31,1.06-2.89,2.12-.66,1.2,.17,2.57,1.09,3.37Z"/>
          </g>
        </g>
        <g>
          <g>
            <path class="cls-3" d="M126.57,111.16c.69-.68,.7-1.77,.31-2.61-.83-1.77-3.22-2.32-5-2.34-1.7-.02-3.58,.49-4.58,1.96,.15,.42-.3,.96-.78,.67-.96-.58-2.22-.58-3.14,.09-.83,.6-1.28,1.72-1.11,2.73,.07,.41-.24,.77-.67,.67-1.37-.32-2.95,.14-3.82,1.28-.83,1.09-.95,2.76-.1,3.87,.7,.91,1.99,1.38,3.11,1.04,.36-.11,.68-.3,1.05-.36,.39-.06,.76,.02,1.1,.23,.31,.19,.58,.45,.88,.65,.24,.16,.49,.3,.76,.42,1.08,.51,2.37,.65,3.54,.45,.62-.11,1.22-.29,1.78-.59,.58-.3,1.01-.74,1.54-1.12,.73-.52,1.43-.21,2.16,.1,.54,.23,1.11,.34,1.69,.34,1.14,0,2.31-.39,3.18-1.14,.92-.8,1.75-2.17,1.09-3.37-.58-1.06-1.83-1.64-2.89-2.12-.32-.15-.34-.63-.11-.86Z"/>
            <path class="cls-3" d="M171.49,115.54c-.27,.03-.57-.27-.55-.55,.19-1.79-.54-3.64-1.98-4.76-1.47-1.14-3.6-1.37-5.29-.6-.41,.19-.94-.12-.8-.62,.23-.79-.4-1.52-1.09-1.82-.83-.36-1.84-.33-2.72-.26-.47,.04-1.01,.13-1.51,.3-.04,.02-.09,.04-.14,.05-.2,.08-.39,.16-.56,.27-.08,.16-.22,.24-.36,.27-.23,.2-.41,.45-.52,.75,0,.05,0,.1-.01,.15-.03,.14-.09,.28-.16,.4-.07,.12-.16,.24-.27,.33-.11,.1-.22,.19-.35,.25-.13,.06-.26,.12-.41,.14h0c-.08,.07-.2,.11-.34,.1-2.01-.14-3.96,.99-4.92,2.76-.44,.82-.68,1.84-.48,2.76,.19,.87,.85,1.7,1.81,1.7,.47,0,.89-.3,1.32-.47,.5-.19,1.02-.2,1.51,.05,.44,.22,.81,.59,1.22,.86,.4,.26,.81,.49,1.23,.69,3.42,1.62,7.66,1.3,10.78-.84,.15-.1,.4-.1,.55,0,1.66,1.17,4.22,2.91,6.11,1.17,.63-.58,.99-1.5,.42-2.25-.56-.75-1.63-.92-2.5-.83Z"/>
            <g>
              <path class="cls-11" d="M122.26,115.31c-.03-.27-.18-.5-.47-.54-.24-.03-.56,.12-.6,.39-.28,1.91-1.37,3.83-3.47,4.03-.59,.06-1.19,.04-1.78,0-.51-.04-1.04-.14-1.43-.49-.65-.58-.84-1.52-.8-2.36,.02-.03,.04-.06,.05-.09,.04-.08,.07-.16,.1-.24,.02-.04,.03-.09,.04-.13,.02-.07,.03-.14,0-.22,0-.07-.02-.14-.06-.2-.03-.06-.08-.11-.14-.15,0,0-.01,0-.02-.02-.02-.04-.05-.07-.08-.1-.1-.1-.24-.17-.39-.16-.15,0-.28,.06-.39,.16l-.76,.74c-.34,.28-.69,.55-1.1,.71-.5,.2-1.01,.15-1.5-.07-.91-.41-1.59-1.34-1.25-2.34,.14-.22,.15-.5-.05-.7-.19-.19-.58-.23-.77,0-.5,.6-.65,1.37-.51,2.12-.01,.03-.02,.06-.03,.09-.27,1.39,.71,2.7,2.03,3.1,.54,.16,1.1,.15,1.61-.03,.66-.04,1.22-.38,1.71-.79h0l.92,1.01c.08,.09,.22,.14,.34,.15,.56,.64,1.32,.96,2.2,1.05,1.08,.11,2.31,.14,3.34-.26,.26-.1,.5-.22,.72-.37,.14,.15,.35,.24,.54,.16,1.8-.76,2.18-2.73,1.96-4.49Z"/>
              <path class="cls-11" d="M130.12,114.67c-.15-.83-.73-1.53-1.33-2.08-.51-.48-1.29,.29-.77,.77,.48,.44,.99,.99,1.06,1.66,.08,.72-.35,1.4-.85,1.87-.48,.45-1.1,.76-1.72,.95-.55,.17-1.32,.33-1.81-.09-.22-.19-.55-.22-.77,0-.2,.2-.22,.58,0,.77,1.16,1,2.88,.52,4.08-.14,1.31-.73,2.41-2.13,2.12-3.71Z"/>
              <path class="cls-11" d="M127.18,108.69c-.09-.53-.37-1.03-.79-1.37-.42-.34-.9-.55-1.4-.75-.27-.11-.6,.12-.67,.38-.09,.31,.11,.56,.38,.67,.66,.27,1.3,.57,1.43,1.36,.11,.71-.13,1.49-.6,2.05-.19,.22-.22,.55,0,.77,.2,.2,.58,.23,.77,0,.73-.86,1.08-1.99,.88-3.11Z"/>
              <path class="cls-11" d="M112.81,110.89c-.01,.13,0,.27,0,.4,0,0,0,.06,.01,.08v.03c.02,.07,.04,.14,.05,.2,.02,.06,.05,.12,.06,.18h0s.03,.07,.05,.1c.03,.06,.06,.11,.1,.16,.02,.03,.04,.05,.06,.08h.01c.2,.25,.21,.55,0,.78-.19,.2-.59,.22-.77,0-.47-.56-.71-1.28-.66-2.01,.06-.72,.35-1.43,.9-1.92,.23-.2,.54-.21,.77,0,.21,.19,.21,.58,0,.77-.05,.05-.1,.09-.15,.15-.02,.02-.04,.06-.07,.08h0c-.08,.12-.14,.23-.2,.35v.02s-.03,.05-.04,.08c-.02,.06-.04,.12-.06,.18-.02,.07-.03,.14-.04,.21h0s0,.06,0,.09Z"/>
              <path class="cls-11" d="M174.64,116.52c-.26-.07-.62,.09-.67,.38-.11,.6-.55,1.02-1.12,1.21-.73,.24-1.51,.04-2.2-.25-1.21-.52-2.65-1.38-3.05-2.73-.09-.3-.34-.41-.59-.38-.07-.08-.16-.14-.26-.17-.31-.09-.56,.11-.67,.38-.62,1.55-2.18,2.54-3.77,2.85-1.97,.39-4.05-.25-5.78-1.17-.78-.42-1.52-.94-1.97-1.71v-.02c.03-.07,.03-.14,.02-.22,0-.07-.02-.14-.06-.2l-.09-.11c-.05-.05-.11-.09-.18-.11-.04-.02-.09-.04-.14-.04-.07-.02-.14-.01-.22,0l-.13,.05c-.08,.05-.14,.11-.19,.19,0,0-.02,.01-.02,.02-.24,0-.43,.17-.51,.4-.2,.52-.68,.91-1.19,1.18-.26,.14-.55,.26-.85,.3-.21,.03-.46-.01-.61-.13-.38-.33-.39-1.02-.38-1.56,.02-.73,.17-1.47,.47-2.14,.12-.27,.08-.59-.2-.75-.23-.14-.63-.08-.75,.2-.32,.72-.52,1.46-.59,2.25-.06,.65-.06,1.38,.18,1.99,.27,.71,.83,1.18,1.6,1.23,.66,.04,1.35-.24,1.9-.58,.11-.06,.2-.14,.3-.21,0,.01,.01,.03,.02,.04,.05,.08,.11,.15,.2,.2,.07,.04,.14,.07,.21,.09,.03,.01,.06,.02,.1,.02,.08,.01,.16,.03,.24,.02,.04,0,.08,0,.12-.01,1.12,1.25,3.18,1.75,4.69,2.1,2.22,.51,4.67,.61,6.68-.59,.07,.01,.14,0,.21-.02,.61-.25,1.12-.64,1.49-1.13,.22,.42,.73,.7,1.12,.97,.56,.39,1.13,.74,1.76,1.01,1.21,.51,2.57,.63,3.76,.03,.25-.13,.31-.35,.26-.55,.61-.37,1.1-.94,1.23-1.66,.05-.29-.08-.59-.38-.67Z"/>
              <path class="cls-11" d="M169.27,109.67c-.48-.51-1.25,.26-.77,.77,1.09,1.15,1.63,2.72,1.53,4.3-.02,.29,.26,.55,.55,.55,.31,0,.53-.25,.55-.55,.12-1.86-.58-3.72-1.85-5.07Z"/>
              <path class="cls-11" d="M159.27,106.33c-1.79,.18-3.35,1.39-3.95,3.09-.09,.27,.11,.61,.38,.67,.3,.07,.57-.09,.67-.38,.02-.05,.03-.09,.05-.14v-.02h.01c.04-.09,.08-.17,.12-.25,.08-.16,.18-.31,.29-.46l.06-.08s.04-.04,.05-.07c.06-.07,.12-.14,.18-.2,.12-.13,.26-.25,.4-.36l.03-.03s.07-.05,.1-.07c.08-.06,.17-.11,.25-.16,.07-.04,.14-.08,.22-.12,.04-.02,.09-.04,.13-.06,.01,0,.06-.02,.08-.03,.15-.06,.31-.11,.46-.15,.09-.02,.18-.04,.26-.06,.04,0,.07-.01,.11-.02,0,0,.07,0,.09,0,.28-.03,.56-.23,.55-.55-.01-.27-.24-.58-.55-.55Z"/>
            </g>
            <path class="cls-10" d="M149.7,105.91c-.49-1.05-1.07-2.07-1.77-3.01-1.24-1.68-2.9-2.96-4.94-3.46-2.16-.54-4.55-.47-6.71,.05-3.96,.95-7.48,3.82-8.38,7.91-.04,.17-.13,.27-.24,.33,.06,.1,.12,.21,.18,.32,.02-.03,.04-.06,.07-.09,.73-1.77,1.98-3.24,3.56-4.33,3.32-2.29,7.66-2.43,11.45-1.34,.98,.28,1.95,.66,2.81,1.23,.84,.56,1.57,1.26,2.26,1.99,1.03,1.09,2.14,2.23,2.64,3.64-.09-1.13-.44-2.22-.91-3.24Z"/>
            <path class="cls-6" d="M136.05,96.39c-4.7,1.42-8.26,5.42-9.08,10.25,.59-2.17,1.91-4.12,3.64-5.56,1.8-1.49,4-2.44,6.31-2.84,2.39-.41,5.06-.41,7.36,.45,2.12,.79,3.76,2.37,5,4.23,1.17,1.75,2.18,3.8,2.4,5.93,.05-2.9-.58-5.94-2.16-8.39-2.81-4.38-8.74-5.51-13.47-4.08Z"/>
            <path class="cls-7" d="M153.01,108.95c.11-.91-.07-1.87-.17-2.76-.1-.95-.22-1.9-.38-2.85-.31-1.86-.76-3.72-1.53-5.44-1.14-2.52-3.03-4.87-5.64-5.96-1.57-.66-3.3-.78-4.98-.76-1.75,.02-3.49,.25-5.15,.8-2.74,.91-5.2,2.74-6.8,5.15-1.47,2.22-2.21,4.9-2.04,7.55,.66-2.16,1.86-4.15,3.45-5.76,3.84-3.88,9.98-5.27,15.11-3.37,2.59,.96,4.74,2.72,6.05,5.17,1.34,2.51,1.92,5.44,1.84,8.28,.08-.02,.16-.03,.24-.05Z"/>
            <path class="cls-4" d="M153.98,106.62c.03,.29,.06,.58,.09,.87v-.04c.56-2.01,.59-4.12,.5-6.19-.08-1.98-.32-3.95-.83-5.87-.95-3.58-3-7.13-6.45-8.79-1.86-.89-3.97-.98-5.99-.82-1.84,.15-3.66,.52-5.41,1.12-3.51,1.21-6.69,3.43-8.68,6.6-1.02,1.63-1.73,3.45-2.06,5.35-.39,2.19-.27,4.43-.11,6.64,0,.07,0,.14-.02,.2,.11,.04,.22,.09,.33,.14-.52-3.58,.48-7.27,2.71-10.13,1.99-2.55,4.87-4.35,8.01-5.11,1.81-.44,3.7-.57,5.56-.48,1.74,.08,3.45,.42,4.99,1.27,2.74,1.5,4.62,4.21,5.71,7.08,.66,1.74,1.04,3.57,1.31,5.4,.13,.92,.24,1.84,.34,2.77Z"/>
            <path class="cls-2" d="M155.94,106.87c.13-.47,.26-.94,.37-1.41,1.07-4.61,.92-9.5-.42-14.04-.63-2.13-1.42-4.5-3.12-6.03-1.66-1.5-3.91-2.4-6.04-2.96-4.27-1.11-8.95-.8-13.07,.74-1.89,.71-3.69,1.72-5.22,3.05-1.67,1.46-2.9,3.26-3.79,5.28-1.75,3.99-2.49,8.85-.78,12.97-.02-.25-.03-.51-.04-.76-.1-2.25-.01-4.53,.62-6.71,.57-1.97,1.52-3.81,2.78-5.43,2.43-3.11,6-5.15,9.78-6.17,1.95-.53,4.01-.82,6.04-.8,2.13,.02,4.2,.52,5.98,1.72,3.4,2.27,5.28,6.16,6.07,10.07,.42,2.09,.59,4.23,.6,6.37,0,1.71-.14,3.45-.61,5.11,.2-.41,.5-.73,.86-1Z"/>
            <path class="cls-5" d="M122.53,105.13c.16,.01,.31,.03,.47,.05-.21-.47-.39-.95-.55-1.45-.72-2.33-.76-4.82-.39-7.22,.37-2.42,1.17-4.83,2.35-6.98,2.16-3.95,6.02-6.56,10.27-7.85,4.49-1.36,9.54-1.38,13.98,.2,2.22,.8,4.51,1.97,5.94,3.9,.73,.99,1.21,2.13,1.65,3.27,.45,1.17,.82,2.37,1.1,3.59,.61,2.61,.85,5.29,.72,7.96,.81-4.64,1.05-9.42-.47-13.93-.77-2.29-1.97-4.47-3.63-6.23-1.78-1.89-4.01-3.15-6.53-3.77-2.8-.68-5.74-.64-8.6-.46-2.94,.18-5.93,.63-8.62,1.88-4.4,2.04-7.81,6-9.34,10.59-1.76,5.28-1.03,11.2,1.62,16.05,.07,.13,.08,.26,.06,.37Z"/>
            <path class="cls-8" d="M174.52,115.35c.74,.67,1.03,1.73,.72,2.67-.31,.94-1.09,1.69-1.98,2.09-2.14,.95-4.32-.31-6.08-1.53-1.92,1.23-4.2,1.84-6.48,1.82-2.13-.02-4.27-.58-6.1-1.69-.45-.28-.85-.62-1.29-.91-.48-.31-.89-.02-1.36,.19-1.05,.46-2.17,.26-3.02-.52-1.75-1.6-1.1-4.48,.19-6.14,.22-.28,.47-.55,.73-.79-.04-.08-.07-.16-.08-.25-.09-.93-.62-1.75-1.19-2.46-.64-.78-1.34-1.52-2.06-2.22-.66-.64-1.38-1.2-2.21-1.61-.8-.4-1.67-.65-2.54-.85-1.83-.43-3.77-.56-5.63-.22-3.02,.54-5.91,2.39-7.16,5.27,0,.14-.06,.28-.16,.38-.03,.03-.06,.07-.1,.11-.07,.1-.13,.2-.18,.32-.03,.07-.07,.14-.12,.2l-.11,.09s-.08,.04-.13,.05c.07,.71-.05,1.42-.41,2.03,1.24,.61,2.49,1.44,2.95,2.78,.59,1.73-.58,3.51-1.93,4.5-1.1,.8-2.53,1.21-3.89,1.1-.75-.06-1.41-.28-2.09-.57-.42-.18-.63-.2-.97,.11-.27,.24-.54,.46-.83,.66-2.42,1.63-5.88,1.54-8.18-.25-.29-.23-.55-.51-.94-.41-.36,.09-.69,.29-1.06,.37-.69,.15-1.42,.11-2.08-.12-1.42-.48-2.49-1.68-2.71-3.17-.22-1.52,.33-3.11,1.52-4.09,1.01-.82,2.29-1.19,3.57-1.08,.02-1.22,.58-2.38,1.59-3.12,1.04-.77,2.45-.91,3.64-.47,.68-.99,1.67-1.67,2.8-2.06,.7-.24,1.47-.37,2.24-.4-.3-.57-.58-1.14-.84-1.74-2.25-5.29-2.44-11.41-.11-16.7,2.1-4.77,6.15-8.62,11.11-10.27,2.99-1,6.19-1.27,9.32-1.35,2.97-.07,6.05,.12,8.84,1.23,4.94,1.98,8.1,6.66,9.36,11.7,1.49,5.95,.33,12.16-1.08,18.02,.42-.09,.83-.14,1.22-.17,1.15-.07,2.48-.03,3.47,.63,.66,.44,1.16,1.14,1.27,1.91,1.86-.54,3.95-.26,5.53,.92,1.6,1.19,2.57,3.15,2.55,5.13,.89,.02,1.79,.32,2.45,.91Zm-52.05-10.58c.07,.13,.08,.26,.06,.37,.16,.01,.31,.03,.47,.05-.21-.47-.39-.95-.55-1.45-.72-2.33-.76-4.82-.39-7.22,.37-2.42,1.17-4.83,2.35-6.98,2.16-3.95,6.02-6.56,10.27-7.85,4.49-1.36,9.54-1.38,13.98,.2,2.22,.8,4.51,1.97,5.94,3.9,.73,.99,1.21,2.13,1.65,3.27,.45,1.17,.82,2.37,1.1,3.59,.61,2.61,.85,5.29,.72,7.96,.81-4.64,1.05-9.42-.47-13.93-.77-2.29-1.97-4.47-3.63-6.23-1.78-1.89-4.01-3.15-6.53-3.77-2.8-.68-5.74-.64-8.6-.46-2.94,.18-5.93,.63-8.62,1.88-4.4,2.04-7.81,6-9.34,10.59-1.76,5.28-1.03,11.2,1.62,16.05Zm33.22-1.99c0,1.71-.14,3.45-.61,5.11,.2-.41,.5-.73,.86-1,.13-.47,.26-.94,.37-1.41,1.07-4.61,.92-9.5-.42-14.04-.63-2.13-1.42-4.5-3.12-6.03-1.66-1.5-3.91-2.4-6.04-2.96-4.27-1.11-8.95-.8-13.07,.74-1.89,.71-3.69,1.72-5.22,3.05-1.67,1.46-2.9,3.26-3.79,5.28-1.75,3.99-2.49,8.85-.78,12.97-.02-.25-.03-.51-.04-.76-.1-2.25-.01-4.53,.62-6.71,.57-1.97,1.52-3.81,2.78-5.43,2.43-3.11,6-5.15,9.78-6.17,1.95-.53,4.01-.82,6.04-.8,2.13,.02,4.2,.52,5.98,1.72,3.4,2.27,5.28,6.16,6.07,10.07,.42,2.09,.59,4.23,.6,6.37Zm-2.92,6.22c.08-.02,.16-.03,.24-.05,.11-.91-.07-1.87-.17-2.76-.1-.95-.22-1.9-.38-2.85-.31-1.86-.76-3.72-1.53-5.44-1.14-2.52-3.03-4.87-5.64-5.96-1.57-.66-3.3-.78-4.98-.76-1.75,.02-3.49,.25-5.15,.8-2.74,.91-5.2,2.74-6.8,5.15-1.47,2.22-2.21,4.9-2.04,7.55,.66-2.16,1.86-4.15,3.45-5.76,3.84-3.88,9.98-5.27,15.11-3.37,2.59,.96,4.74,2.72,6.05,5.17,1.34,2.51,1.92,5.44,1.84,8.28Zm-3.25-8.53c-2.81-4.38-8.74-5.51-13.47-4.08-4.7,1.42-8.26,5.42-9.08,10.25,.59-2.17,1.91-4.12,3.64-5.56,1.8-1.49,4-2.44,6.31-2.84,2.39-.41,5.06-.41,7.36,.45,2.12,.79,3.76,2.37,5,4.23,1.17,1.75,2.18,3.8,2.4,5.93,.05-2.9-.58-5.94-2.16-8.39Zm4.12,3.39c.13,.92,.24,1.84,.34,2.77,.03,.29,.06,.58,.09,.87v-.04c.56-2.01,.59-4.12,.5-6.19-.08-1.98-.32-3.95-.83-5.87-.95-3.58-3-7.13-6.45-8.79-1.86-.89-3.97-.98-5.99-.82-1.84,.15-3.66,.52-5.41,1.12-3.51,1.21-6.69,3.43-8.68,6.6-1.02,1.63-1.73,3.45-2.06,5.35-.39,2.19-.27,4.43-.11,6.64,0,.07,0,.14-.02,.2,.11,.04,.22,.09,.33,.14-.52-3.58,.48-7.27,2.71-10.13,1.99-2.55,4.87-4.35,8.01-5.11,1.81-.44,3.7-.57,5.56-.48,1.74,.08,3.45,.42,4.99,1.27,2.74,1.5,4.62,4.21,5.71,7.08,.66,1.74,1.04,3.57,1.31,5.4Zm-26.96,8.16c-.32-.15-.34-.63-.11-.86,.69-.68,.7-1.77,.31-2.61-.83-1.77-3.22-2.32-5-2.34-1.7-.02-3.58,.49-4.58,1.96,.15,.42-.3,.96-.78,.67-.96-.58-2.22-.58-3.14,.09-.83,.6-1.28,1.72-1.11,2.73,.07,.41-.24,.77-.67,.67-1.37-.32-2.95,.14-3.82,1.28-.83,1.09-.95,2.76-.1,3.87,.7,.91,1.99,1.38,3.11,1.04,.36-.11,.68-.3,1.05-.36,.39-.06,.76,.02,1.1,.23,.31,.19,.58,.45,.88,.65,.24,.16,.49,.3,.76,.42,1.08,.51,2.37,.65,3.54,.45,.62-.11,1.22-.29,1.78-.59,.58-.3,1.01-.74,1.54-1.12,.73-.52,1.43-.21,2.16,.1,.54,.23,1.11,.34,1.69,.34,1.14,0,2.31-.39,3.18-1.14,.92-.8,1.75-2.17,1.09-3.37-.58-1.06-1.83-1.64-2.89-2.12Zm23.93-2.86c-.09-1.13-.44-2.22-.91-3.24-.49-1.05-1.07-2.07-1.77-3.01-1.24-1.68-2.9-2.96-4.94-3.46-2.16-.54-4.55-.47-6.71,.05-3.96,.95-7.48,3.82-8.38,7.91-.04,.17-.13,.27-.24,.33,.06,.1,.12,.21,.18,.32,.02-.03,.04-.06,.07-.09,.73-1.77,1.98-3.24,3.56-4.33,3.32-2.29,7.66-2.43,11.45-1.34,.98,.28,1.95,.66,2.81,1.23,.84,.56,1.57,1.26,2.26,1.99,1.03,1.09,2.14,2.23,2.64,3.64Zm23.38,7.22c-.56-.75-1.63-.92-2.5-.83-.27,.03-.57-.27-.55-.55,.19-1.79-.54-3.64-1.98-4.76-1.47-1.14-3.6-1.37-5.29-.6-.41,.19-.94-.12-.8-.62,.23-.79-.4-1.52-1.09-1.82-.83-.36-1.84-.33-2.72-.26-.47,.04-1.01,.13-1.51,.3-.04,.02-.09,.04-.14,.05-.2,.08-.39,.16-.56,.27-.08,.16-.22,.24-.36,.27-.23,.2-.41,.45-.52,.75,0,.05,0,.1-.01,.15-.03,.14-.09,.28-.16,.4-.07,.12-.16,.24-.27,.33-.11,.1-.22,.19-.35,.25-.13,.06-.26,.12-.41,.14h0c-.08,.07-.2,.11-.34,.1-2.01-.14-3.96,.99-4.92,2.76-.44,.82-.68,1.84-.48,2.76,.19,.87,.85,1.7,1.81,1.7,.47,0,.89-.3,1.32-.47,.5-.19,1.02-.2,1.51,.05,.44,.22,.81,.59,1.22,.86,.4,.26,.81,.49,1.23,.69,3.42,1.62,7.66,1.3,10.78-.84,.15-.1,.4-.1,.55,0,1.66,1.17,4.22,2.91,6.11,1.17,.63-.58,.99-1.5,.42-2.25Z"/>
          </g>
          <g>
            <path class="cls-3" d="M149.92,33.53c.27,.06,.6-.21,.6-.48,0-1.8,.93-3.56,2.49-4.51,1.59-.97,3.73-.97,5.32-.02,.39,.23,.95-.02,.86-.52-.14-.81,.56-1.46,1.28-1.69,.86-.27,1.86-.13,2.74,.04,.46,.09,.99,.24,1.47,.46,.04,.03,.09,.05,.13,.06,.19,.1,.37,.21,.53,.33,.06,.16,.19,.26,.33,.31,.2,.23,.36,.49,.43,.81,0,.05,0,.1,0,.15,.02,.14,.06,.29,.12,.42,.06,.13,.14,.25,.23,.36,.09,.11,.2,.21,.32,.29,.12,.08,.25,.15,.39,.18h0c.08,.08,.19,.13,.33,.14,2.01,.08,3.83,1.42,4.58,3.28,.35,.86,.47,1.9,.17,2.8-.28,.85-1.03,1.59-1.99,1.49-.47-.05-.85-.4-1.26-.61-.48-.25-1-.31-1.51-.12-.46,.18-.86,.5-1.3,.72-.42,.21-.86,.39-1.3,.55-3.57,1.23-7.76,.46-10.62-2.01-.14-.12-.39-.15-.55-.06-1.78,.98-4.52,2.43-6.2,.49-.56-.65-.82-1.6-.17-2.29,.64-.68,1.72-.74,2.57-.55Z"/>
            <g>
              <path class="cls-11" d="M146.68,34.15c.27-.04,.61,.16,.62,.45,.04,.61,.44,1.08,.99,1.32,.7,.31,1.5,.21,2.21,0,1.26-.39,2.79-1.08,3.33-2.38,.12-.29,.39-.37,.62-.31,.08-.07,.17-.12,.27-.14,.32-.05,.55,.17,.62,.45,.44,1.61,1.89,2.76,3.43,3.25,1.91,.6,4.06,.2,5.88-.53,.82-.33,1.61-.77,2.14-1.48v-.02c-.02-.07-.01-.15,.01-.22,.01-.07,.04-.14,.09-.19l.1-.1c.05-.05,.12-.08,.19-.09,.04-.02,.09-.03,.14-.02,.07,0,.15,0,.22,.03l.12,.07c.07,.06,.13,.13,.17,.21,0,0,.02,.01,.02,.02,.23,.03,.41,.22,.47,.45,.14,.54,.57,.98,1.05,1.3,.24,.17,.52,.32,.81,.39,.21,.05,.46,.04,.62-.07,.42-.29,.5-.97,.55-1.51,.06-.73-.01-1.48-.23-2.17-.09-.28-.01-.59,.28-.72,.24-.11,.63,0,.72,.28,.24,.75,.35,1.51,.34,2.3-.01,.65-.09,1.38-.4,1.96-.35,.67-.95,1.08-1.73,1.05-.66-.03-1.31-.39-1.82-.79-.1-.08-.19-.16-.28-.24,0,.01-.01,.03-.02,.04-.06,.08-.13,.13-.22,.17-.07,.03-.15,.05-.22,.07-.03,0-.07,.01-.1,.01-.08,0-.16,.01-.24,0-.04,0-.08-.01-.12-.02-1.25,1.12-3.35,1.39-4.89,1.57-2.26,.27-4.7,.1-6.57-1.32-.07,0-.14-.01-.21-.05-.58-.31-1.04-.76-1.36-1.29-.27,.4-.81,.61-1.22,.84-.6,.32-1.21,.62-1.86,.81-1.26,.38-2.62,.35-3.74-.39-.23-.15-.27-.38-.19-.58-.57-.43-.99-1.05-1.04-1.79-.02-.29,.14-.58,.45-.62Z"/>
              <path class="cls-11" d="M152.77,27.93c.54-.46,1.22,.4,.68,.85-1.21,1.03-1.92,2.53-2,4.1-.01,.29-.32,.51-.6,.48-.31-.03-.5-.31-.48-.6,.09-1.86,.98-3.63,2.4-4.84Z"/>
              <path class="cls-11" d="M163.08,25.71c1.76,.37,3.18,1.75,3.59,3.51,.06,.28-.17,.59-.45,.62-.31,.04-.56-.15-.62-.45-.01-.05-.02-.1-.04-.14v-.02h0c-.03-.09-.06-.18-.09-.26-.07-.17-.15-.33-.23-.49l-.05-.08s-.03-.05-.05-.07c-.05-.08-.1-.15-.16-.22-.11-.14-.23-.27-.35-.4l-.03-.03s-.06-.06-.09-.08c-.07-.06-.15-.13-.23-.19-.07-.05-.13-.1-.2-.14-.04-.03-.08-.05-.13-.08-.01,0-.05-.03-.07-.04-.14-.08-.29-.15-.44-.2-.08-.03-.17-.06-.26-.09-.04-.01-.07-.02-.11-.03,0,0-.06-.01-.09-.02-.28-.06-.53-.29-.48-.6,.04-.27,.3-.55,.6-.48Z"/>
            </g>
            <path class="cls-8" d="M146.93,33c.72-.52,1.65-.72,2.54-.64,.2-1.98,1.37-3.82,3.09-4.82,1.7-.99,3.8-1.05,5.6-.31,.2-.75,.77-1.4,1.47-1.76,1.5-.78,3.79-.47,5.32,.07,.43,.15,.86,.34,1.19,.66,.34,.33,.67,.79,.96,1.17,.1,.13,.58,1.47,.52,1.46,1.06,.19,2.08,.6,2.97,1.19,.34,.22,.73,.37,1.04,.6,.4,.3,.71,.75,.97,1.17,1.1,1.79,1.43,4.73-.48,6.13-.93,.68-2.06,.76-3.06,.18-.44-.25-.82-.6-1.33-.33-.47,.24-.91,.54-1.39,.76-1.93,.9-4.13,1.23-6.25,1.01-2.26-.23-4.47-1.09-6.24-2.52-1.88,1.01-4.19,2.03-6.21,.85-.85-.49-1.54-1.33-1.74-2.29-.21-.98,.2-2,1.01-2.58Zm.59,3.36c1.68,1.93,4.42,.48,6.2-.49,.16-.09,.41-.06,.55,.06,2.86,2.47,7.05,3.25,10.62,2.01,.45-.15,.88-.34,1.3-.55,.44-.22,.85-.54,1.3-.72,.51-.2,1.03-.13,1.51,.12,.41,.21,.79,.56,1.26,.61,.96,.11,1.7-.64,1.99-1.49,.3-.9,.18-1.93-.17-2.8-.76-1.86-2.57-3.2-4.58-3.28-1.25-.05-.97-1.31-1.44-2.09-1.14-1.88-3.69-2.04-5.58-1.45-.72,.22-1.42,.88-1.28,1.69,.09,.51-.48,.76-.86,.52-1.59-.95-3.73-.95-5.32,.02-1.55,.95-2.48,2.71-2.49,4.51,0,.27-.34,.54-.6,.48-.85-.19-1.93-.13-2.57,.55-.65,.69-.39,1.64,.17,2.29Z"/>
          </g>
          <g>
            <path class="cls-3" d="M76.73,64.24c-.69-.68-.7-1.77-.31-2.61,.83-1.77,3.22-2.32,5-2.34,1.7-.02,3.58,.49,4.58,1.96-.15,.42,.3,.96,.78,.67,.96-.58,2.22-.58,3.14,.09,.83,.6,1.28,1.72,1.11,2.73-.07,.41,.24,.77,.67,.67,1.37-.32,2.95,.14,3.82,1.28,.83,1.09,.95,2.76,.1,3.87-.7,.91-1.99,1.38-3.11,1.04-.36-.11-.68-.3-1.05-.36-.39-.06-.76,.02-1.1,.23-.31,.19-.58,.45-.88,.65-.24,.16-.49,.3-.76,.42-1.08,.51-2.37,.65-3.54,.45-.62-.11-1.22-.29-1.78-.59-.58-.3-1.01-.74-1.54-1.12-.73-.52-1.43-.21-2.16,.1-.54,.23-1.11,.34-1.69,.34-1.14,0-2.31-.39-3.18-1.14-.92-.8-1.75-2.17-1.09-3.37,.58-1.06,1.83-1.64,2.89-2.12,.32-.15,.34-.63,.11-.86Z"/>
            <g>
              <path class="cls-11" d="M81.03,68.39c.03-.27,.18-.5,.47-.54,.24-.03,.56,.12,.6,.39,.28,1.91,1.37,3.83,3.47,4.03,.59,.06,1.19,.04,1.78,0,.51-.04,1.04-.14,1.43-.49,.65-.58,.84-1.52,.8-2.36-.02-.03-.04-.06-.05-.09-.04-.08-.07-.16-.1-.24-.02-.04-.03-.09-.04-.13-.02-.07-.03-.14,0-.22,0-.07,.02-.14,.06-.2,.03-.06,.08-.11,.14-.15,0,0,.01,0,.02-.02,.02-.04,.05-.07,.08-.1,.1-.1,.24-.17,.39-.16,.15,0,.28,.06,.39,.16l.76,.74c.34,.28,.69,.55,1.1,.71,.5,.2,1.01,.15,1.5-.07,.91-.41,1.59-1.34,1.25-2.34-.14-.22-.15-.5,.05-.7,.19-.19,.58-.23,.77,0,.5,.6,.65,1.37,.51,2.12,.01,.03,.02,.06,.03,.09,.27,1.39-.71,2.7-2.03,3.1-.54,.16-1.1,.15-1.61-.03-.66-.04-1.22-.38-1.71-.79h0l-.92,1.01c-.08,.09-.22,.14-.34,.15-.56,.64-1.32,.96-2.2,1.05-1.08,.11-2.31,.14-3.34-.26-.26-.1-.5-.22-.72-.37-.14,.15-.35,.24-.54,.16-1.8-.76-2.18-2.73-1.96-4.49Z"/>
              <path class="cls-11" d="M73.18,67.75c.15-.83,.73-1.53,1.33-2.08,.51-.48,1.29,.29,.77,.77-.48,.44-.99,.99-1.06,1.66-.08,.72,.35,1.4,.85,1.87,.48,.45,1.1,.76,1.72,.95,.55,.17,1.32,.33,1.81-.09,.22-.19,.55-.22,.77,0,.2,.2,.22,.58,0,.77-1.16,1-2.88,.52-4.08-.14-1.31-.73-2.41-2.13-2.12-3.71Z"/>
              <path class="cls-11" d="M76.11,61.77c.09-.53,.37-1.03,.79-1.37,.42-.34,.9-.55,1.4-.75,.27-.11,.6,.12,.67,.38,.09,.31-.11,.56-.38,.67-.66,.27-1.3,.57-1.43,1.36-.11,.71,.13,1.49,.6,2.05,.19,.22,.22,.55,0,.77-.2,.2-.58,.23-.77,0-.73-.86-1.08-1.99-.88-3.11Z"/>
              <path class="cls-11" d="M90.47,63.89h0c-.01-.08-.03-.14-.04-.21-.02-.06-.03-.12-.06-.18,0-.03-.02-.05-.03-.08v-.02c-.07-.12-.14-.23-.21-.34h0s-.05-.06-.07-.08c-.05-.05-.1-.1-.15-.15-.21-.19-.21-.58,0-.77,.23-.21,.54-.2,.77,0,.55,.49,.84,1.19,.9,1.92,.06,.73-.19,1.45-.66,2.01-.18,.22-.58,.2-.77,0-.21-.23-.2-.54,0-.77h.01s.04-.07,.06-.09c.03-.05,.07-.11,.1-.16,.02-.03,.03-.06,.05-.09h0c.01-.06,.04-.12,.06-.18,.02-.07,.04-.14,.05-.2v-.03s.02-.07,.02-.08c.01-.13,.01-.27,0-.4,0-.03,0-.05,0-.08Z"/>
            </g>
            <path class="cls-8" d="M75.5,64.42c-.6-1.02-.62-2.05,0-3.08,1.07-1.77,2.79-2.99,4.88-3.03,1.2-.03,2.58-.1,3.72,.29,1.13,.39,2.13,1.07,2.8,2.06,1.2-.44,2.61-.3,3.64,.47,1,.74,1.56,1.91,1.59,3.12,1.28-.11,2.57,.26,3.57,1.08,1.2,.98,1.75,2.57,1.52,4.09-.22,1.49-1.29,2.69-2.71,3.17-.67,.23-1.4,.27-2.08,.12-.37-.08-.69-.28-1.06-.37-.39-.09-.65,.18-.94,.41-2.3,1.79-5.77,1.88-8.18,.25-.3-.2-.57-.43-.83-.66-.35-.31-.56-.29-.97-.11-.68,.3-1.34,.52-2.09,.57-1.36,.1-2.79-.3-3.89-1.1-1.35-.99-2.52-2.77-1.93-4.5,.46-1.35,1.71-2.17,2.95-2.78Zm-.68,6.17c.87,.75,2.04,1.15,3.18,1.14,.58,0,1.16-.12,1.69-.34,.73-.31,1.43-.62,2.16-.1,.53,.38,.96,.81,1.54,1.12,.56,.29,1.16,.48,1.78,.59,1.17,.2,2.46,.06,3.54-.45,.26-.12,.51-.26,.76-.42,.31-.2,.57-.46,.88-.65,.34-.2,.71-.29,1.1-.23,.37,.06,.7,.25,1.05,.36,1.11,.34,2.4-.12,3.11-1.04,.85-1.11,.73-2.79-.1-3.87-.87-1.14-2.45-1.59-3.82-1.28-.43,.1-.74-.26-.67-.67,.17-1.01-.28-2.13-1.11-2.73-.92-.67-2.19-.67-3.14-.09-.48,.29-.93-.25-.78-.67-1-1.47-2.87-1.98-4.58-1.96-1.78,.02-4.17,.57-5,2.34-.39,.84-.38,1.93,.31,2.61,.23,.23,.21,.71-.11,.86-1.05,.48-2.31,1.06-2.89,2.12-.66,1.2,.17,2.57,1.09,3.37Z"/>
          </g>
        </g>
        <g>
          <path class="cls-3" d="M2.68,38.12c.69-.68,.7-1.77,.31-2.61-.83-1.77-3.22-2.32-5-2.34-1.7-.02-3.58,.49-4.58,1.96,.15,.42-.3,.96-.78,.67-.96-.58-2.22-.58-3.14,.09-.83,.6-1.28,1.72-1.11,2.73,.07,.41-.24,.77-.67,.67-1.37-.32-2.95,.14-3.82,1.28-.83,1.09-.95,2.76-.1,3.87,.7,.91,1.99,1.38,3.11,1.04,.36-.11,.68-.3,1.05-.36,.39-.06,.76,.02,1.1,.23,.31,.19,.58,.45,.88,.65,.24,.16,.49,.3,.76,.42,1.08,.51,2.37,.65,3.54,.45,.62-.11,1.22-.29,1.78-.59,.58-.3,1.01-.74,1.54-1.12,.73-.52,1.43-.21,2.16,.1,.54,.23,1.11,.34,1.69,.34,1.14,0,2.31-.39,3.18-1.14,.92-.8,1.75-2.17,1.09-3.37-.58-1.06-1.83-1.64-2.89-2.12-.32-.15-.34-.63-.11-.86Z"/>
          <path class="cls-3" d="M47.61,42.5c-.27,.03-.57-.27-.55-.55,.19-1.79-.54-3.64-1.98-4.76-1.47-1.14-3.6-1.37-5.29-.6-.41,.19-.94-.12-.8-.62,.23-.79-.4-1.52-1.09-1.82-.83-.36-1.84-.33-2.72-.26-.47,.04-1.01,.13-1.51,.3-.04,.02-.09,.04-.14,.05-.2,.08-.39,.16-.56,.27-.08,.16-.22,.24-.36,.27-.23,.2-.41,.45-.52,.75,0,.05,0,.1-.01,.15-.03,.14-.09,.28-.16,.4-.07,.12-.16,.24-.27,.33-.11,.1-.22,.19-.35,.25-.13,.06-.26,.12-.41,.14h0c-.08,.07-.2,.11-.34,.1-2.01-.14-3.96,.99-4.92,2.76-.44,.82-.68,1.84-.48,2.76,.19,.87,.85,1.7,1.81,1.7,.47,0,.89-.3,1.32-.47,.5-.19,1.02-.2,1.51,.05,.44,.22,.81,.59,1.22,.86,.4,.26,.81,.49,1.23,.69,3.42,1.62,7.66,1.3,10.78-.84,.15-.1,.4-.1,.55,0,1.66,1.17,4.22,2.91,6.11,1.17,.63-.58,.99-1.5,.42-2.25-.56-.75-1.63-.92-2.5-.83Z"/>
          <g>
            <path class="cls-11" d="M6.23,41.63c-.15-.83-.73-1.53-1.33-2.08-.51-.48-1.29,.29-.77,.77,.48,.44,.99,.99,1.06,1.66,.08,.72-.35,1.4-.85,1.87-.48,.45-1.1,.76-1.72,.95-.55,.17-1.32,.33-1.81-.09-.22-.19-.55-.22-.77,0-.2,.2-.22,.58,0,.77,1.16,1,2.88,.52,4.08-.14,1.31-.73,2.41-2.13,2.12-3.71Z"/>
            <path class="cls-11" d="M3.3,35.65c-.09-.53-.37-1.03-.79-1.37-.42-.34-.9-.55-1.4-.75-.27-.11-.6,.12-.67,.38-.09,.31,.11,.56,.38,.67,.66,.27,1.3,.57,1.43,1.36,.11,.71-.13,1.49-.6,2.05-.19,.22-.22,.55,0,.77,.2,.2,.58,.23,.77,0,.73-.86,1.08-1.99,.88-3.11Z"/>
            <path class="cls-11" d="M50.76,43.48c-.26-.07-.62,.09-.67,.38-.11,.6-.55,1.02-1.12,1.21-.73,.24-1.51,.04-2.2-.25-1.21-.52-2.65-1.38-3.05-2.73-.09-.3-.34-.41-.59-.38-.07-.08-.16-.14-.26-.17-.31-.09-.56,.11-.67,.38-.62,1.55-2.18,2.54-3.77,2.85-1.97,.39-4.05-.25-5.78-1.17-.78-.42-1.52-.94-1.97-1.71v-.02c.03-.07,.03-.14,.02-.22,0-.07-.02-.14-.06-.2l-.09-.11c-.05-.05-.11-.09-.18-.11-.04-.02-.09-.04-.14-.04-.07-.02-.14-.01-.22,0l-.13,.05c-.08,.05-.14,.11-.19,.19,0,0-.02,.01-.02,.02-.24,0-.43,.17-.51,.4-.2,.52-.68,.91-1.19,1.18-.26,.14-.55,.26-.85,.3-.21,.03-.46-.01-.61-.13-.38-.33-.39-1.02-.38-1.56,.02-.73,.17-1.47,.47-2.14,.12-.27,.08-.59-.2-.75-.23-.14-.63-.08-.75,.2-.32,.72-.52,1.46-.59,2.25-.06,.65-.06,1.38,.18,1.99,.27,.71,.83,1.18,1.6,1.23,.66,.04,1.35-.24,1.9-.58,.11-.06,.2-.14,.3-.21,0,.01,.01,.03,.02,.04,.05,.08,.11,.15,.2,.2,.07,.04,.14,.07,.21,.09,.03,.01,.06,.02,.1,.02,.08,.01,.16,.03,.24,.02,.04,0,.08,0,.12-.01,1.12,1.25,3.18,1.75,4.69,2.1,2.22,.51,4.67,.61,6.68-.59,.07,.01,.14,0,.21-.02,.61-.25,1.12-.64,1.49-1.13,.22,.42,.73,.7,1.12,.97,.56,.39,1.13,.74,1.76,1.01,1.21,.51,2.57,.63,3.76,.03,.25-.13,.31-.35,.26-.55,.61-.37,1.1-.94,1.23-1.66,.05-.29-.08-.59-.38-.67Z"/>
            <path class="cls-11" d="M45.39,36.63c-.48-.51-1.25,.26-.77,.77,1.09,1.15,1.63,2.72,1.53,4.3-.02,.29,.26,.55,.55,.55,.31,0,.53-.25,.55-.55,.12-1.86-.58-3.72-1.85-5.07Z"/>
            <path class="cls-11" d="M35.39,33.29c-1.79,.18-3.35,1.39-3.95,3.09-.09,.27,.11,.61,.38,.67,.3,.07,.57-.09,.67-.38,.02-.05,.03-.09,.05-.14v-.02h.01c.04-.09,.08-.17,.12-.25,.08-.16,.18-.31,.29-.46l.06-.08s.04-.04,.05-.07c.06-.07,.12-.14,.18-.2,.12-.13,.26-.25,.4-.36l.03-.03s.07-.05,.1-.07c.08-.06,.17-.11,.25-.16,.07-.04,.14-.08,.22-.12,.04-.02,.09-.04,.13-.06,.01,0,.06-.02,.08-.03,.15-.06,.31-.11,.46-.15,.09-.02,.18-.04,.26-.06,.04,0,.07-.01,.11-.02,0,0,.07,0,.09,0,.28-.03,.56-.23,.55-.55-.01-.27-.24-.58-.55-.55Z"/>
          </g>
          <path class="cls-10" d="M25.82,32.87c-.49-1.05-1.07-2.07-1.77-3.01-1.24-1.68-2.9-2.96-4.94-3.46-2.16-.54-4.55-.47-6.71,.05-3.96,.95-7.48,3.82-8.38,7.91-.04,.17-.13,.27-.24,.33,.06,.1,.12,.21,.18,.32,.02-.03,.04-.06,.07-.09,.73-1.77,1.98-3.24,3.56-4.33,3.32-2.29,7.66-2.43,11.45-1.34,.98,.28,1.95,.66,2.81,1.23,.84,.56,1.57,1.26,2.26,1.99,1.03,1.09,2.14,2.23,2.64,3.64-.09-1.13-.44-2.22-.91-3.24Z"/>
          <path class="cls-6" d="M12.17,23.35c-4.7,1.42-8.26,5.42-9.08,10.25,.59-2.17,1.91-4.12,3.64-5.56,1.8-1.49,4-2.44,6.31-2.84,2.39-.41,5.06-.41,7.36,.45,2.12,.79,3.76,2.37,5,4.23,1.17,1.75,2.18,3.8,2.4,5.93,.05-2.9-.58-5.94-2.16-8.39-2.81-4.38-8.74-5.51-13.47-4.08Z"/>
          <path class="cls-7" d="M29.12,35.91c.11-.91-.07-1.87-.17-2.76-.1-.95-.22-1.9-.38-2.85-.31-1.86-.76-3.72-1.53-5.44-1.14-2.52-3.03-4.87-5.64-5.96-1.57-.66-3.3-.78-4.98-.76-1.75,.02-3.49,.25-5.15,.8-2.74,.91-5.2,2.74-6.8,5.15-1.47,2.22-2.21,4.9-2.04,7.55,.66-2.16,1.86-4.15,3.45-5.76,3.84-3.88,9.98-5.27,15.11-3.37,2.59,.96,4.74,2.72,6.05,5.17,1.34,2.51,1.92,5.44,1.84,8.28,.08-.02,.16-.03,.24-.05Z"/>
          <path class="cls-4" d="M30.09,33.58c.03,.29,.06,.58,.09,.87v-.04c.56-2.01,.59-4.12,.5-6.19-.08-1.98-.32-3.95-.83-5.87-.95-3.58-3-7.13-6.45-8.79-1.86-.89-3.97-.98-5.99-.82-1.84,.15-3.66,.52-5.41,1.12-3.51,1.21-6.69,3.43-8.68,6.6-1.02,1.63-1.73,3.45-2.06,5.35-.39,2.19-.27,4.43-.11,6.64,0,.07,0,.14-.02,.2,.11,.04,.22,.09,.33,.14-.52-3.58,.48-7.27,2.71-10.13,1.99-2.55,4.87-4.35,8.01-5.11,1.81-.44,3.7-.57,5.56-.48,1.74,.08,3.45,.42,4.99,1.27,2.74,1.5,4.62,4.21,5.71,7.08,.66,1.74,1.04,3.57,1.31,5.4,.13,.92,.24,1.84,.34,2.77Z"/>
          <path class="cls-2" d="M32.05,33.83c.13-.47,.26-.94,.37-1.41,1.07-4.61,.92-9.5-.42-14.04-.63-2.13-1.42-4.5-3.12-6.03-1.66-1.5-3.91-2.4-6.04-2.96-4.27-1.11-8.95-.8-13.07,.74-1.89,.71-3.69,1.72-5.22,3.05-1.67,1.46-2.9,3.26-3.79,5.28C-.98,22.46-1.72,27.32,0,31.44c-.02-.25-.03-.51-.04-.76-.1-2.25-.01-4.53,.62-6.71,.57-1.97,1.52-3.81,2.78-5.43,2.43-3.11,6-5.15,9.78-6.17,1.95-.53,4.01-.82,6.04-.8,2.13,.02,4.2,.52,5.98,1.72,3.4,2.27,5.28,6.16,6.07,10.07,.42,2.09,.59,4.23,.6,6.37,0,1.71-.14,3.45-.61,5.11,.2-.41,.5-.73,.86-1Z"/>
          <path class="cls-5" d="M-1.35,32.09c.16,.01,.31,.03,.47,.05-.21-.47-.39-.95-.55-1.45-.72-2.33-.76-4.82-.39-7.22,.37-2.42,1.17-4.83,2.35-6.98,2.16-3.95,6.02-6.56,10.27-7.85,4.49-1.36,9.54-1.38,13.98,.2,2.22,.8,4.51,1.97,5.94,3.9,.73,.99,1.21,2.13,1.65,3.27,.45,1.17,.82,2.37,1.1,3.59,.61,2.61,.85,5.29,.72,7.96,.81-4.64,1.05-9.42-.47-13.93-.77-2.29-1.97-4.47-3.63-6.23-1.78-1.89-4.01-3.15-6.53-3.77-2.8-.68-5.74-.64-8.6-.46-2.94,.18-5.93,.63-8.62,1.88C1.92,7.12-1.5,11.08-3.03,15.67c-1.76,5.28-1.03,11.2,1.62,16.05,.07,.13,.08,.26,.06,.37Z"/>
          <path class="cls-8" d="M50.64,42.31c.74,.67,1.03,1.73,.72,2.67-.31,.94-1.09,1.69-1.98,2.09-2.14,.95-4.32-.31-6.08-1.53-1.92,1.23-4.2,1.84-6.48,1.82-2.13-.02-4.27-.58-6.1-1.69-.45-.28-.85-.62-1.29-.91-.48-.31-.89-.02-1.36,.19-1.05,.46-2.17,.26-3.02-.52-1.75-1.6-1.1-4.48,.19-6.14,.22-.28,.47-.55,.73-.79-.04-.08-.07-.16-.08-.25-.09-.93-.62-1.75-1.19-2.46-.64-.78-1.34-1.52-2.06-2.22-.66-.64-1.38-1.2-2.21-1.61-.8-.4-1.67-.65-2.54-.85-1.83-.43-3.77-.56-5.63-.22-3.02,.54-5.91,2.39-7.16,5.27,0,.14-.06,.28-.16,.38-.03,.03-.06,.07-.1,.11-.07,.1-.13,.2-.18,.32-.03,.07-.07,.14-.12,.2l-.11,.09s-.08,.04-.13,.05c.07,.71-.05,1.42-.41,2.03,1.24,.61,2.49,1.44,2.95,2.78,.59,1.73-.58,3.51-1.93,4.5-1.1,.8-2.53,1.21-3.89,1.1-.75-.06-1.41-.28-2.09-.57-.42-.18-.63-.2-.97,.11-.27,.24-.54,.46-.83,.66-2.42,1.63-5.88,1.54-8.18-.25-.29-.23-.55-.51-.94-.41-.36,.09-.69,.29-1.06,.37-.69,.15-1.42,.11-2.08-.12-1.42-.48-2.49-1.68-2.71-3.17-.22-1.52,.33-3.11,1.52-4.09,1.01-.82,2.29-1.19,3.57-1.08,.02-1.22,.58-2.38,1.59-3.12,1.04-.77,2.45-.91,3.64-.47,.68-.99,1.67-1.67,2.8-2.06,.7-.24,1.47-.37,2.24-.4-.3-.57-.58-1.14-.84-1.74-2.25-5.29-2.44-11.41-.11-16.7C-1.3,8.87,2.75,5.02,7.71,3.36c2.99-1,6.19-1.27,9.32-1.35,2.97-.07,6.05,.12,8.84,1.23,4.94,1.98,8.1,6.66,9.36,11.7,1.49,5.95,.33,12.16-1.08,18.02,.42-.09,.83-.14,1.22-.17,1.15-.07,2.48-.03,3.47,.63,.66,.44,1.16,1.14,1.27,1.91,1.86-.54,3.95-.26,5.53,.92,1.6,1.19,2.57,3.15,2.55,5.13,.89,.02,1.79,.32,2.45,.91ZM-1.41,31.72c.07,.13,.08,.26,.06,.37,.16,.01,.31,.03,.47,.05-.21-.47-.39-.95-.55-1.45-.72-2.33-.76-4.82-.39-7.22,.37-2.42,1.17-4.83,2.35-6.98,2.16-3.95,6.02-6.56,10.27-7.85,4.49-1.36,9.54-1.38,13.98,.2,2.22,.8,4.51,1.97,5.94,3.9,.73,.99,1.21,2.13,1.65,3.27,.45,1.17,.82,2.37,1.1,3.59,.61,2.61,.85,5.29,.72,7.96,.81-4.64,1.05-9.42-.47-13.93-.77-2.29-1.97-4.47-3.63-6.23-1.78-1.89-4.01-3.15-6.53-3.77-2.8-.68-5.74-.64-8.6-.46-2.94,.18-5.93,.63-8.62,1.88C1.92,7.12-1.5,11.08-3.03,15.67c-1.76,5.28-1.03,11.2,1.62,16.05Zm33.22-1.99c0,1.71-.14,3.45-.61,5.11,.2-.41,.5-.73,.86-1,.13-.47,.26-.94,.37-1.41,1.07-4.61,.92-9.5-.42-14.04-.63-2.13-1.42-4.5-3.12-6.03-1.66-1.5-3.91-2.4-6.04-2.96-4.27-1.11-8.95-.8-13.07,.74-1.89,.71-3.69,1.72-5.22,3.05-1.67,1.46-2.9,3.26-3.79,5.28C-.98,22.46-1.72,27.32,0,31.44c-.02-.25-.03-.51-.04-.76-.1-2.25-.01-4.53,.62-6.71,.57-1.97,1.52-3.81,2.78-5.43,2.43-3.11,6-5.15,9.78-6.17,1.95-.53,4.01-.82,6.04-.8,2.13,.02,4.2,.52,5.98,1.72,3.4,2.27,5.28,6.16,6.07,10.07,.42,2.09,.59,4.23,.6,6.37Zm-2.92,6.22c.08-.02,.16-.03,.24-.05,.11-.91-.07-1.87-.17-2.76-.1-.95-.22-1.9-.38-2.85-.31-1.86-.76-3.72-1.53-5.44-1.14-2.52-3.03-4.87-5.64-5.96-1.57-.66-3.3-.78-4.98-.76-1.75,.02-3.49,.25-5.15,.8-2.74,.91-5.2,2.74-6.8,5.15-1.47,2.22-2.21,4.9-2.04,7.55,.66-2.16,1.86-4.15,3.45-5.76,3.84-3.88,9.98-5.27,15.11-3.37,2.59,.96,4.74,2.72,6.05,5.17,1.34,2.51,1.92,5.44,1.84,8.28Zm-3.25-8.53c-2.81-4.38-8.74-5.51-13.47-4.08-4.7,1.42-8.26,5.42-9.08,10.25,.59-2.17,1.91-4.12,3.64-5.56,1.8-1.49,4-2.44,6.31-2.84,2.39-.41,5.06-.41,7.36,.45,2.12,.79,3.76,2.37,5,4.23,1.17,1.75,2.18,3.8,2.4,5.93,.05-2.9-.58-5.94-2.16-8.39Zm4.12,3.39c.13,.92,.24,1.84,.34,2.77,.03,.29,.06,.58,.09,.87v-.04c.56-2.01,.59-4.12,.5-6.19-.08-1.98-.32-3.95-.83-5.87-.95-3.58-3-7.13-6.45-8.79-1.86-.89-3.97-.98-5.99-.82-1.84,.15-3.66,.52-5.41,1.12-3.51,1.21-6.69,3.43-8.68,6.6-1.02,1.63-1.73,3.45-2.06,5.35-.39,2.19-.27,4.43-.11,6.64,0,.07,0,.14-.02,.2,.11,.04,.22,.09,.33,.14-.52-3.58,.48-7.27,2.71-10.13,1.99-2.55,4.87-4.35,8.01-5.11,1.81-.44,3.7-.57,5.56-.48,1.74,.08,3.45,.42,4.99,1.27,2.74,1.5,4.62,4.21,5.71,7.08,.66,1.74,1.04,3.57,1.31,5.4ZM2.79,38.98c-.32-.15-.34-.63-.11-.86,.69-.68,.7-1.77,.31-2.61-.83-1.77-3.22-2.32-5-2.34-1.7-.02-3.58,.49-4.58,1.96,.15,.42-.3,.96-.78,.67-.96-.58-2.22-.58-3.14,.09-.83,.6-1.28,1.72-1.11,2.73,.07,.41-.24,.77-.67,.67-1.37-.32-2.95,.14-3.82,1.28-.83,1.09-.95,2.76-.1,3.87,.7,.91,1.99,1.38,3.11,1.04,.36-.11,.68-.3,1.05-.36,.39-.06,.76,.02,1.1,.23,.31,.19,.58,.45,.88,.65,.24,.16,.49,.3,.76,.42,1.08,.51,2.37,.65,3.54,.45,.62-.11,1.22-.29,1.78-.59,.58-.3,1.01-.74,1.54-1.12,.73-.52,1.43-.21,2.16,.1,.54,.23,1.11,.34,1.69,.34,1.14,0,2.31-.39,3.18-1.14,.92-.8,1.75-2.17,1.09-3.37-.58-1.06-1.83-1.64-2.89-2.12Zm23.93-2.86c-.09-1.13-.44-2.22-.91-3.24-.49-1.05-1.07-2.07-1.77-3.01-1.24-1.68-2.9-2.96-4.94-3.46-2.16-.54-4.55-.47-6.71,.05-3.96,.95-7.48,3.82-8.38,7.91-.04,.17-.13,.27-.24,.33,.06,.1,.12,.21,.18,.32,.02-.03,.04-.06,.07-.09,.73-1.77,1.98-3.24,3.56-4.33,3.32-2.29,7.66-2.43,11.45-1.34,.98,.28,1.95,.66,2.81,1.23,.84,.56,1.57,1.26,2.26,1.99,1.03,1.09,2.14,2.23,2.64,3.64Zm23.38,7.22c-.56-.75-1.63-.92-2.5-.83-.27,.03-.57-.27-.55-.55,.19-1.79-.54-3.64-1.98-4.76-1.47-1.14-3.6-1.37-5.29-.6-.41,.19-.94-.12-.8-.62,.23-.79-.4-1.52-1.09-1.82-.83-.36-1.84-.33-2.72-.26-.47,.04-1.01,.13-1.51,.3-.04,.02-.09,.04-.14,.05-.2,.08-.39,.16-.56,.27-.08,.16-.22,.24-.36,.27-.23,.2-.41,.45-.52,.75,0,.05,0,.1-.01,.15-.03,.14-.09,.28-.16,.4-.07,.12-.16,.24-.27,.33-.11,.1-.22,.19-.35,.25-.13,.06-.26,.12-.41,.14h0c-.08,.07-.2,.11-.34,.1-2.01-.14-3.96,.99-4.92,2.76-.44,.82-.68,1.84-.48,2.76,.19,.87,.85,1.7,1.81,1.7,.47,0,.89-.3,1.32-.47,.5-.19,1.02-.2,1.51,.05,.44,.22,.81,.59,1.22,.86,.4,.26,.81,.49,1.23,.69,3.42,1.62,7.66,1.3,10.78-.84,.15-.1,.4-.1,.55,0,1.66,1.17,4.22,2.91,6.11,1.17,.63-.58,.99-1.5,.42-2.25Z"/>
        </g>
      </g>
    </pattern>
  </defs>
  <rect id="__bc" data-name="6_bc" class="cls-9" width="500" height="500"/>
  <g id="_9_bc_diamonds" data-name="19_bc_diamonds">
    <rect class="cls-12" width="500" height="500"/>
  </g>
</svg>