<?xml version="1.0" encoding="UTF-8"?>
<svg id="Collar" xmlns="http://www.w3.org/2000/svg" xmlns:xlink="http://www.w3.org/1999/xlink" viewBox="0 0 500 500">
  <defs>
    <style>
      .cls-1 {
        fill: url(#New_Gradient_Swatch_33-3);
      }

      .cls-2 {
        fill: url(#New_Gradient_Swatch_33-2);
      }

      .cls-3 {
        fill: url(#New_Gradient_Swatch_33);
      }

      .cls-4 {
        fill: url(#linear-gradient);
      }

      .cls-5 {
        fill: #c6a63c;
      }
    </style>
    <linearGradient id="linear-gradient" x1="120.06" y1="340.45" x2="377.45" y2="340.45" gradientTransform="matrix(1, 0, 0, 1, 0, 0)" gradientUnits="userSpaceOnUse">
      <stop offset="0" stop-color="#e71423"/>
      <stop offset=".36" stop-color="#fc523b"/>
      <stop offset="1" stop-color="#e71423"/>
    </linearGradient>
    <radialGradient id="New_Gradient_Swatch_33" data-name="New Gradient Swatch 33" cx="215.78" cy="385.23" fx="215.78" fy="385.23" r="5.68" gradientTransform="matrix(1, 0, 0, 1, 0, 0)" gradientUnits="userSpaceOnUse">
      <stop offset="0" stop-color="#e9ffe7"/>
      <stop offset=".02" stop-color="#eafcd8"/>
      <stop offset=".09" stop-color="#eff3a7"/>
      <stop offset=".16" stop-color="#f4ec7d"/>
      <stop offset=".24" stop-color="#f8e65a"/>
      <stop offset=".31" stop-color="#fbe140"/>
      <stop offset=".39" stop-color="#fdde2d"/>
      <stop offset=".46" stop-color="#fedc21"/>
      <stop offset=".55" stop-color="#ffdc1e"/>
      <stop offset="1" stop-color="#e7c014"/>
    </radialGradient>
    <radialGradient id="New_Gradient_Swatch_33-2" data-name="New Gradient Swatch 33" cx="210.69" cy="380.84" fx="210.69" fy="380.84" r="10.41" xlink:href="#New_Gradient_Swatch_33"/>
    <radialGradient id="New_Gradient_Swatch_33-3" data-name="New Gradient Swatch 33" cx="205.32" cy="410" fx="205.32" fy="410" r="16.85" xlink:href="#New_Gradient_Swatch_33"/>
  </defs>
  <g id="_" data-name="3">
    <g>
      <path class="cls-4" d="M375.09,313.8c-1.02-1.8-2.16-3.59-3.57-5.11-1.2-1.29-3.38-3.04-5.06-1.31-.63,.65-1,1.64-1.48,2.39-.72,1.11-1.31,2.33-1.93,3.5-.94,1.4-1.63,3.05-2.42,4.54-.75,1.41-1.51,2.71-1.82,4.29-.37,1.92-.94,3.15-2.69,4.26-1.82,1.15-3.96,1.76-5.92,2.63-4.27,1.91-8.59,3.72-12.72,5.91-12.93,6.87-27.91,9.61-41.72,14.28-9.89,3.34-20.95,4.63-31.26,6.23-7.87,1.22-15.88,3.28-23.77,4.02-13.59,1.28-27.27,.04-40.86-1.2-11.23-1.03-22.55-4.29-32.77-9.4-3.22-1.21-6.43-2.42-9.65-3.62-3.53-1.32-7.21-2.63-10.38-4.71-2.35-1.55-3.58-3.84-5.93-5.35-1.37-.88-9.58-4.85-7.82-7.42,.65-.94,3.41-.45,3.55-1.77-3.58-2.91-6.89-6.51-10.64-9.09-.17-.11-.31-.24-.44-.38-.39-.11-.78-.11-1.16,.02-1.76,.62-3.14,2.27-3.79,3.96-1.35,3.49-.53,7.42-.52,11.05,.02,6.33,1.42,12.78,6.23,17.24,5.59,5.19,13.38,7.59,20.46,9.95,8.67,2.89,17.37,5.71,26.18,8.13,8.79,2.41,17.7,4.43,26.73,5.71,9.21,1.3,18.53,1.68,27.83,1.69,18.42,0,37-.8,55.27-3.3,16.99-2.33,33.88-6.3,49.7-13.01,13.08-5.54,26.37-12.43,37.38-21.52,3.42-2.82,7.4-10.73,7.35-15.12-.02-2.37-.96-5.02-2.36-7.48Zm-155.48,55.33c-.02,.17-.04,.36-.08,.53-.1,.33-.23,.7-.45,.98-.16,.29-.37,.53-.64,.7-.24,.22-.52,.37-.85,.45h-.05c-.21,.19-.44,.36-.68,.49-.44,.24-.94,.44-1.44,.54-.49,.1-1.01,.18-1.52,.14-1.05-.08-2.04-.35-2.95-.9-.79-.48-1.55-1.15-2-1.96-.63-1.13-.71-2.47-.07-3.62,.6-1.07,1.78-1.71,2.95-1.96,.36-.1,.72-.09,1.08-.03,.06-.02,.11-.05,.17-.07,.24-.08,.51-.12,.77-.15,.13-.08,.26-.14,.41-.19,.3-.16,.62-.23,.96-.22,.18-.01,.35,.03,.53,.05,.16,.02,.35,.03,.51,.08,.25,.08,.51,.19,.75,.32,.06,.03,.12,.07,.18,.11,.26,.19,.54,.38,.75,.63,.18,.22,.36,.44,.52,.68,.26,.17,.47,.4,.62,.68,.35,.71,.56,1.35,.59,2.14,0,.19-.03,.37-.05,.56Z"/>
      <path d="M378.39,315.44c-.02-.87-.3-2.26-.88-3.34,.04-.22,.04-.44-.02-.66-.16-.54-.39-1.05-.67-1.53-.04-.17-.08-.34-.16-.51,0,0-.03,.04-.1,.09-.7-1.05-1.67-1.92-2.76-2.57-1.09-.66-2.28-1.08-3.51-1.41-.99-.34-2.03-.57-3.09-.67-.78-.08-1.53,.74-1.5,1.5,.03,.73,.48,1.21,1.1,1.4,.8,.38,1.56,.82,2.29,1.32,.18,.12,.35,.25,.52,.38,.03,.03,.08,.06,.11,.09,.09,.07,.18,.14,.27,.22,.35,.29,.69,.6,1.02,.92,.33,.32,.64,.66,.94,1,.15,.17,.3,.35,.44,.53l.02,.03,.02,.03c-3.65,2.38-8.42,5.44-8.91,5.86-4.73,4.03-10.35,6.75-15.91,9.44-5.84,2.82-11.53,6.17-17.7,8.24-7.72,2.58-15.03,6.11-22.91,8.35-18.64,5.32-37.83,8.26-56.9,11.53-8.89,1.53-17.92,2.23-26.94,2.28-11.37,.07-21.73-.66-32.91-3.65-16.57-4.44-32.18-10.28-46.99-18.96-4.93-2.89-9.07-7.02-14.13-9.85-3.71-2.08-7.96-7.09-1.62-9.12-1-5.35-7.39,.37-8.52,2.67-1.31,2.64-1.09,6.09-1.36,8.86-.34,3.58-.56,7.26-.4,10.86,.14,3.15,.87,6.21,3.11,8.38,.05,.13,.11,.25,.2,.36,4.67,6.25,11.46,9.91,18.6,12.67,8.2,3.17,16.7,5.74,25.12,8.27,8.89,2.67,17.89,5.03,27.02,6.73,9.36,1.74,18.83,2.68,28.34,2.96,9.55,.28,19.12,.04,28.66-.34,9.37-.37,18.73-.98,28.05-2.03,17.86-2,35.63-5.54,52.46-11.98,9.12-3.49,17.87-7.88,26.28-12.84,6.83-4.03,14.5-8.03,20.01-13.85,4.85-5.12,3.47-15.11,3.3-21.65Zm-5.25,16.05c-.89,2.26-2.32,4.32-4.6,6.06-10.65,8.17-23.48,15.14-35.82,20.37-15.83,6.71-32.71,10.68-49.7,13.01-18.26,2.51-36.85,3.31-55.27,3.3-9.29,0-18.62-.38-27.83-1.69-9.03-1.28-17.94-3.3-26.73-5.71-8.81-2.42-17.51-5.23-26.18-8.13-10.3-3.44-25.78-8.46-25.79-21.37,0-3.28,.14-6.58,.46-9.85,.1-1,.69-2.45,1.18-3.85,1.77,2.27,4.89,4.35,6.96,6.13,11.71,10.09,25.82,17.02,40.32,22.11,14.48,5.09,29.77,9.41,45.11,9.95,22.23,.79,43.21-3.29,64.94-7.05,21.11-3.65,41.53-10.68,60.92-19.7,3.69-1.72,7.35-3.51,10.97-5.36,7.83-4.01,14.9-8.69,21.45-14.5,.34,1.88,.98,3.88,.99,5.72,.02,3.55-.07,7.19-1.38,10.54Z"/>
      <g>
        <path d="M370.31,322.42c-.05-.78-.65-1.54-1.5-1.5-.77,.03-1.56,.66-1.5,1.5,.1,1.42,.1,2.85-.03,4.28-.07,.8-.11,1.16-.24,1.89-.12,.7-.27,1.4-.44,2.09-.19,.76,.24,1.66,1.05,1.85,.78,.18,1.64-.23,1.85-1.05,.74-2.95,1.02-6.02,.81-9.05Z"/>
        <path d="M363.92,329.2c-.04-.41-.14-.76-.44-1.06-.26-.26-.69-.46-1.06-.44-.39,.02-.79,.14-1.06,.44-.26,.28-.48,.67-.44,1.06,.07,.79,.05,1.58-.04,2.37-.07,.46-.16,.92-.29,1.37-.21,.76,.26,1.67,1.05,1.85,.8,.18,1.62-.24,1.85-1.05,.41-1.47,.57-3.02,.43-4.54Z"/>
        <path d="M357.81,332.94c-.05-.35-.4-.73-.69-.9-.32-.19-.8-.27-1.16-.15-.36,.12-.71,.34-.9,.69l-.15,.36c-.05,.19-.05,.38-.03,.57,.1,.77,.09,1.55,0,2.32-.07,.43-.15,.85-.27,1.26-.22,.75,.27,1.67,1.05,1.85,.81,.18,1.61-.24,1.85-1.05,.24-.8,.37-1.63,.43-2.46,.06-.84-.01-1.66-.13-2.49Z"/>
        <path d="M351.87,337.1c-.03-.4-.14-.77-.44-1.06-.26-.26-.69-.46-1.06-.44-.76,.03-1.57,.66-1.5,1.5,.05,.6,.03,1.2-.03,1.8-.12,.74-.31,1.47-.6,2.17l.06-.15c-.15,.36-.24,.7-.13,1.1,.1,.35,.36,.72,.69,.9,.35,.18,.77,.28,1.16,.15,.35-.11,.74-.34,.9-.69,.73-1.66,1.11-3.45,.96-5.27Z"/>
        <path d="M343.15,341.31c-.14-.15-.3-.25-.48-.31-.18-.09-.37-.14-.58-.13-.39,.02-.79,.14-1.06,.44-.27,.29-.44,.65-.44,1.06v1.88c0,.38,.17,.79,.44,1.06,.14,.15,.3,.25,.48,.31,.18,.09,.37,.14,.58,.13,.39-.02,.79-.14,1.06-.44,.27-.29,.44-.65,.44-1.06v-1.88c0-.38-.17-.79-.44-1.06Z"/>
        <path d="M128.81,343.14c-1.08-3.94-1.35-8-.87-12.06,.1-.81-.76-1.5-1.5-1.5-.89,0-1.4,.69-1.5,1.5-.51,4.3-.17,8.68,.98,12.85,.51,1.86,3.4,1.07,2.89-.8Z"/>
        <path d="M134.21,345.36c-.08-.39-.15-.79-.21-1.18-.15-1.23-.19-2.46-.09-3.69,.06-.78-.73-1.53-1.5-1.5-.86,.04-1.43,.66-1.5,1.5-.15,1.9,0,3.81,.41,5.67,.16,.77,1.1,1.29,1.85,1.05,.81-.26,1.22-1.02,1.05-1.85Z"/>
        <path d="M140.21,348.11s-.02-.03-.03-.04c-.15-.21-.28-.43-.39-.67-.1-.26-.17-.53-.22-.8,0-.03,0-.06,0-.1-.02-.4-.15-.77-.44-1.06-.26-.26-.69-.46-1.06-.44-.39,.02-.79,.14-1.06,.44-.26,.28-.46,.66-.44,1.06,.03,.63,.14,1.26,.38,1.84,.14,.34,.28,.67,.47,.98,.2,.32,.43,.62,.68,.9,.24,.28,.7,.44,1.06,.44s.81-.16,1.06-.44c.26-.29,.46-.66,.44-1.06-.02-.41-.17-.75-.44-1.06Z"/>
        <path d="M148.75,352.16c-.16-.21-.28-.43-.39-.67-.05-.16-.1-.32-.13-.49,0-.12-.02-.23-.02-.35,0-.38-.17-.79-.44-1.06s-.69-.46-1.06-.44c-.39,.02-.79,.14-1.06,.44-.27,.3-.43,.65-.44,1.06,0,.33,.04,.66,.09,.98,.03,.21,.08,.41,.14,.61,.17,.5,.39,1,.72,1.42,.09,.17,.22,.32,.39,.42,.14,.13,.31,.22,.51,.27,.2,.06,.4,.07,.6,.03,.2,0,.39-.07,.56-.18,.32-.21,.6-.51,.69-.9l.05-.4c0-.27-.07-.52-.2-.76Z"/>
      </g>
      <path d="M220.78,366.47c-.37-1.16-1.01-2.21-1.85-2.89-1.67-1.34-4.79-1.31-6.73-.79-2.04,.55-4.13,1.75-4.75,3.9-.88,3.05,.94,5.73,3.95,6.44,1.26,.3,2.54,.55,3.84,.51,1.32-.04,3.6-.43,4.6-1.42,1.4-1.38,1.59-3.73,.96-5.74Zm-1.86,1.81c-.07,.81-.55,1.61-1.48,2.18-.84,.51-1.66,.75-2.6,.71-1.02-.04-2.33-.65-3.35-1.23-.69-.4-1.77-1.01-1.93-1.85-.39-2.01,2.49-2.76,3.94-3.05,1.23-.25,2.56-.18,3.67,.41,1.23,.66,1.85,1.76,1.76,2.83Z"/>
    </g>
    <g>
      <path class="cls-3" d="M219.18,381.39c-.06-1.14-.21-2.46-.64-2.87-.33-.33-.83-.4-1.3-.44-.62-.05-2.7-.34-3.1,.34-.36,.62,.29,.59,.36,1.12,.24,1.88,.4,3.41-.27,5.37-.58,1.7-2.14,3.31-1.87,5.2,.29,2.08,2.75,3.3,4.32,1.61,.67-.72,1.04-1.69,1.4-2.6,.36-.91,.63-1.85,.81-2.81,.21-1.1,.33-2.23,.32-3.35,0-.35,0-.93-.04-1.57Z"/>
      <path class="cls-2" d="M215.97,367.94c-.55-.21-1.19-.3-1.65-.34-2.03-.17-3.92,.89-5.24,2.4-2.52,2.9-4.54,7.37-4.79,11.2-.3,4.62,1.71,11.98,6.93,12.85,.6,.1,1.43-.05,1.46-.66,.01-.22-.1-.43-.23-.61-.41-.56-1-.96-1.49-1.45-1.86-1.84-1.32-8.41-1.04-10.93,.4-3.64,1.89-7.09,5.08-9.12,.72-.46,1.89-.73,2.1-1.73,.18-.86-.39-1.34-1.12-1.62Z"/>
      <path d="M220.91,378.49c-.17-1.58-2.68-1.6-2.5,0,.35,3.26,.71,6.95-.83,9.98-.66,1.3-1.71,2.54-3,3.3-.06-.02-.11-.05-.18-.06-.73-.18-1.22-.68-1.57-1.3,.1-.06,.21-.13,.3-.23,3-3.13,2.71-7.56,2.19-11.54-.09-.67-.51-1.25-1.25-1.25-.61,0-1.34,.58-1.25,1.25,.38,2.91,.9,6.47-.86,9.03-.4-1.89-.56-3.83-.51-5.76,.1-3.16,.56-7.72,3.73-9.37,1.43-.74,.17-2.9-1.26-2.16-4.13,2.14-4.91,7.75-4.98,11.92-.04,2.51,.21,5.2,.99,7.61,.29,.9,.72,1.79,1.29,2.52-3.05-.5-4.87-3.44-5.5-6.24-.7-3.11-.36-6.47,.62-9.49,1.02-3.15,2.9-6.61,5.98-8.12,.16,.02,.33,.02,.5-.03,.2-.06,.46-.07,.65-.14,.06,0,.12-.01,.17-.02,.12,0,.23-.01,.35-.01,.23,0,.46,0,.69,.03,.03,0,.09,.01,.1,.02,.13,.02,.26,.05,.38,.08,.23,.05,.45,.12,.67,.2,.04,.01,.08,.03,.12,.04h-.01s.01,0,.02,0l.04,.02c.11,.04,.06,.03,0,.01,.08,.04,.18,.08,.25,.11,.22,.11,.43,.24,.64,.38,.04,.03,.08,.06,.13,.09,.09,.08,.18,.15,.27,.23,.48,.44,1.3,.51,1.77,0,.44-.48,.52-1.3,0-1.77-1.85-1.69-4.49-2.35-6.91-1.69-.04,.01-.08,.03-.12,.05-.22-.03-.46,0-.71,.1-3.48,1.53-5.65,5.17-6.99,8.57-1.43,3.65-1.88,7.8-1.11,11.65,.72,3.6,2.96,7,6.58,8.15,3.38,1.07,6.8-.6,8.87-3.29,2.83-3.68,2.7-8.51,2.22-12.89Z"/>
    </g>
    <g>
      <path class="cls-5" d="M217.37,417.02c-.55,.11-1.09,.27-1.61,.47,1,1.79,1.26,4.11,1.11,6.06-.11,1.4-.42,2.79-.93,4.09,.19-.02,.39-.04,.58-.06,.43-.07,.86-.16,1.26-.32,.08-.03,.16-.05,.25-.06,.34-.49,.6-1.03,.73-1.64,.25-1.09,.04-2.3-.06-3.39-.17-1.79-.44-3.59-1.33-5.15Z"/>
      <path class="cls-1" d="M222.97,398.96c-8.5-6.07-20.89-3.12-25.98,6.06-1.6,2.89-2.61,6.42-2.2,9.74,.45,3.69,3.34,6.78,6.2,8.93,1.73,1.3,3.66,2.33,5.71,3.04,1.62,.56,3.26,1.22,5,1.26,1.02,.02,1.14-.61,1.5-1.5,.35-.88,.59-1.8,.67-2.74,.09-.95,.08-1.94-.1-2.87-.12-.64-.25-1.4-.55-1.99-.3-.59-.81-.99-.94-1.67-.17-.86,.38-1.57,1.11-1.94,1.12-.58,2.31-1.01,3.55-1.23,4.11-.72,4.52,5.48,4.8,8.34,.11,1.2,.2,2.42,0,3.6,.02-.14,1.32-.72,1.51-.85,.43-.3,.89-.59,1.29-.92,1-.83,1.4-2.04,2.14-3.07,.82-1.15,1.49-2.41,2-3.73,.28-.74,.52-1.49,.7-2.27,.49-2.04,.61-4.17,.29-6.24-.64-4.16-3.31-7.55-6.67-9.95Z"/>
      <path d="M228.68,400.49c-5.03-6.55-13.37-9.26-21.39-6.89-5.01,1.48-8.62,3.61-11.69,7.97-2.2,3.13-3.57,6.84-3.86,10.66-.35,4.6,1.68,8.44,4.86,11.62,2.36,2.36,5.22,4.23,8.33,5.44,1.1,.43,2.3,.51,3.38,.93,1.01,.39,1.79,.59,2.91,.64,1.73,.07,3.46-.07,5.15-.41,1.36-.28,2.75-.26,4.04-.78,2.81-1.14,5.29-3.01,7.33-5.24,2.96-3.24,4.7-7.46,4.75-11.85,.01-.99-.07-1.96-.23-2.93-.1-3.28-1.53-6.47-3.6-9.17Zm-9.92,25.07c-.14,.61-.39,1.15-.73,1.64-.09,0-.17,.02-.25,.06-.41,.17-.83,.26-1.26,.32-.19,.02-.39,.04-.58,.06,.51-1.3,.83-2.69,.93-4.09,.15-1.95-.11-4.27-1.11-6.06,.53-.2,1.06-.35,1.61-.47,.89,1.56,1.16,3.36,1.33,5.15,.11,1.09,.31,2.3,.06,3.39Zm10.58-10.41c-.18,.77-.42,1.53-.7,2.27-.51,1.32-1.17,2.58-2,3.73-.74,1.03-1.14,2.24-2.14,3.07-.4,.33-.86,.62-1.29,.92-.19,.13-1.48,.71-1.51,.85,.21-1.19,.12-2.41,0-3.6-.27-2.86-.68-9.06-4.8-8.34-1.24,.22-2.44,.65-3.55,1.23-.73,.38-1.28,1.09-1.11,1.94,.14,.69,.65,1.08,.94,1.67,.3,.59,.42,1.35,.55,1.99,.18,.93,.19,1.91,.1,2.87-.09,.94-.32,1.87-.67,2.74-.36,.89-.48,1.52-1.5,1.5-1.74-.04-3.38-.7-5-1.26-2.04-.71-3.98-1.74-5.71-3.04-2.86-2.15-5.74-5.24-6.2-8.93-.41-3.32,.6-6.85,2.2-9.74,5.09-9.18,17.48-12.13,25.98-6.06,3.36,2.4,6.03,5.79,6.67,9.95,.32,2.07,.2,4.2-.29,6.24Z"/>
    </g>
  </g>
</svg>