<?xml version="1.0" encoding="UTF-8"?>
<svg id="Collar" xmlns="http://www.w3.org/2000/svg" xmlns:xlink="http://www.w3.org/1999/xlink" viewBox="0 0 500 500">
  <defs>
    <style>
      .cls-1 {
        fill: url(#linear-gradient);
      }

      .cls-2 {
        fill: #686867;
      }

      .cls-3 {
        fill: #595959;
      }
    </style>
    <linearGradient id="linear-gradient" x1="120.06" y1="340.79" x2="377.45" y2="340.79" gradientTransform="matrix(1, 0, 0, 1, 0, 0)" gradientUnits="userSpaceOnUse">
      <stop offset="0" stop-color="#595959"/>
      <stop offset=".36" stop-color="#686867"/>
      <stop offset="1" stop-color="#595959"/>
    </linearGradient>
  </defs>
  <path class="cls-1" d="M375.09,313.8c-1.02-1.8-2.16-3.59-3.57-5.11-1.2-1.29-3.38-3.04-5.06-1.31-.63,.65-1,1.64-1.48,2.39-.72,1.11-1.31,2.33-1.93,3.5-.94,1.4-1.63,3.05-2.42,4.54-.75,1.41-1.51,2.71-1.82,4.29-.37,1.92-.94,3.15-2.69,4.26-1.82,1.15-3.96,1.76-5.92,2.63-4.27,1.91-8.59,3.72-12.72,5.91-12.93,6.87-27.91,9.61-41.72,14.28-9.89,3.34-20.95,4.63-31.26,6.23-7.87,1.22-15.88,3.28-23.77,4.02-13.59,1.28-27.27,.04-40.86-1.2-11.23-1.03-22.55-4.29-32.77-9.4-3.22-1.21-6.43-2.42-9.65-3.62-3.53-1.32-7.21-2.63-10.38-4.71-2.35-1.55-3.58-3.84-5.93-5.35-1.37-.88-9.58-4.85-7.82-7.42,.65-.94,3.41-.45,3.55-1.77-3.58-2.91-6.89-6.51-10.64-9.09-.17-.11-.31-.24-.44-.38-.39-.11-.78-.11-1.16,.02-1.76,.62-3.14,2.27-3.79,3.96-1.35,3.49-.53,7.42-.52,11.05,.02,6.33,1.42,12.78,6.23,17.24,5.59,5.19,13.38,7.59,20.46,9.95,8.67,2.89,17.37,5.71,26.18,8.13,8.79,2.41,17.7,4.43,26.73,5.71,3.44,.49,6.89,.84,10.35,1.1,.2,.13,.44,.23,.73,.26,4.36,.33,8.71,.67,13.07,1,.65,.05,1.07-.26,1.28-.69,.8,0,1.6,.01,2.4,.01,18.42,0,37-.8,55.27-3.3,16.99-2.33,33.88-6.3,49.7-13.01,13.08-5.54,26.37-12.43,37.38-21.52,3.42-2.82,7.4-10.73,7.35-15.12-.02-2.37-.96-5.02-2.36-7.48Z"/>
  <path d="M378.39,315.44c-.02-.87-.3-2.26-.88-3.34,.04-.22,.04-.44-.02-.66-.16-.54-.39-1.05-.67-1.53-.04-.17-.08-.34-.16-.51,0,0-.03,.04-.1,.09-.7-1.05-1.67-1.92-2.76-2.57-1.09-.66-2.28-1.08-3.51-1.41-.99-.34-2.03-.57-3.09-.67-.78-.08-1.53,.74-1.5,1.5,.03,.73,.48,1.21,1.1,1.4,.8,.38,1.56,.82,2.29,1.32,.18,.12,.35,.25,.52,.38,.03,.03,.08,.06,.11,.09,.09,.07,.18,.14,.27,.22,.35,.29,.69,.6,1.02,.92,.33,.32,.64,.66,.94,1,.15,.17,.3,.35,.44,.53l.02,.03,.02,.03c-3.65,2.38-8.42,5.44-8.91,5.86-4.73,4.03-10.35,6.75-15.91,9.44-5.84,2.82-11.53,6.17-17.7,8.24-7.72,2.58-15.03,6.11-22.91,8.35-18.64,5.32-37.83,8.26-56.9,11.53-8.89,1.53-17.92,2.23-26.94,2.28-11.37,.07-21.73-.66-32.91-3.65-16.57-4.44-32.18-10.28-46.99-18.96-4.93-2.89-9.07-7.02-14.13-9.85-3.71-2.08-7.96-7.09-1.62-9.12-1-5.35-7.39,.37-8.52,2.67-1.31,2.64-1.09,6.09-1.36,8.86-.34,3.58-.56,7.26-.4,10.86,.14,3.15,.87,6.21,3.11,8.38,.05,.13,.11,.25,.2,.36,4.67,6.25,11.46,9.91,18.6,12.67,8.2,3.17,16.7,5.74,25.12,8.27,8.89,2.67,17.89,5.03,27.02,6.73,9.36,1.74,18.83,2.68,28.34,2.96,9.55,.28,19.12,.04,28.66-.34,9.37-.37,18.73-.98,28.05-2.03,17.86-2,35.63-5.54,52.46-11.98,9.12-3.49,17.87-7.88,26.28-12.84,6.83-4.03,14.5-8.03,20.01-13.85,4.85-5.12,3.47-15.11,3.3-21.65Zm-5.25,16.05c-.89,2.26-2.32,4.32-4.6,6.06-10.65,8.17-23.48,15.14-35.82,20.37-15.83,6.71-32.71,10.68-49.7,13.01-18.26,2.51-36.85,3.31-55.27,3.3-9.29,0-18.62-.38-27.83-1.69-9.03-1.28-17.94-3.3-26.73-5.71-8.81-2.42-17.51-5.23-26.18-8.13-10.3-3.44-25.78-8.46-25.79-21.37,0-3.28,.14-6.58,.46-9.85,.1-1,.69-2.45,1.18-3.85,1.77,2.27,4.89,4.35,6.96,6.13,11.71,10.09,25.82,17.02,40.32,22.11,14.48,5.09,29.77,9.41,45.11,9.95,22.23,.79,43.21-3.29,64.94-7.05,21.11-3.65,41.53-10.68,60.92-19.7,3.69-1.72,7.35-3.51,10.97-5.36,7.83-4.01,14.9-8.69,21.45-14.5,.34,1.88,.98,3.88,.99,5.72,.02,3.55-.07,7.19-1.38,10.54Z"/>
  <g>
    <path d="M370.31,322.42c-.05-.78-.65-1.54-1.5-1.5-.77,.03-1.56,.66-1.5,1.5,.1,1.42,.1,2.85-.03,4.28-.07,.8-.11,1.16-.24,1.89-.12,.7-.27,1.4-.44,2.09-.19,.76,.24,1.66,1.05,1.85,.78,.18,1.64-.23,1.85-1.05,.74-2.95,1.02-6.02,.81-9.05Z"/>
    <path d="M363.92,329.2c-.04-.41-.14-.76-.44-1.06-.26-.26-.69-.46-1.06-.44-.39,.02-.79,.14-1.06,.44-.26,.28-.48,.67-.44,1.06,.07,.79,.05,1.58-.04,2.37-.07,.46-.16,.92-.29,1.37-.21,.76,.26,1.67,1.05,1.85,.8,.18,1.62-.24,1.85-1.05,.41-1.47,.57-3.02,.43-4.54Z"/>
    <path d="M357.81,332.94c-.05-.35-.4-.73-.69-.9-.32-.19-.8-.27-1.16-.15-.36,.12-.71,.34-.9,.69l-.15,.36c-.05,.19-.05,.38-.03,.57,.1,.77,.09,1.55,0,2.32-.07,.43-.15,.85-.27,1.26-.22,.75,.27,1.67,1.05,1.85,.81,.18,1.61-.24,1.85-1.05,.24-.8,.37-1.63,.43-2.46,.06-.84-.01-1.66-.13-2.49Z"/>
    <path d="M351.87,337.1c-.03-.4-.14-.77-.44-1.06-.26-.26-.69-.46-1.06-.44-.76,.03-1.57,.66-1.5,1.5,.05,.6,.03,1.2-.03,1.8-.12,.74-.31,1.47-.6,2.17l.06-.15c-.15,.36-.24,.7-.13,1.1,.1,.35,.36,.72,.69,.9,.35,.18,.77,.28,1.16,.15,.35-.11,.74-.34,.9-.69,.73-1.66,1.11-3.45,.96-5.27Z"/>
    <path d="M343.15,341.31c-.14-.15-.3-.25-.48-.31-.18-.09-.37-.14-.58-.13-.39,.02-.79,.14-1.06,.44-.27,.29-.44,.65-.44,1.06v1.88c0,.38,.17,.79,.44,1.06,.14,.15,.3,.25,.48,.31,.18,.09,.37,.14,.58,.13,.39-.02,.79-.14,1.06-.44,.27-.29,.44-.65,.44-1.06v-1.88c0-.38-.17-.79-.44-1.06Z"/>
    <path d="M128.81,343.14c-1.08-3.94-1.35-8-.87-12.06,.1-.81-.76-1.5-1.5-1.5-.89,0-1.4,.69-1.5,1.5-.51,4.3-.17,8.68,.98,12.85,.51,1.86,3.4,1.07,2.89-.8Z"/>
    <path d="M134.21,345.36c-.08-.39-.15-.79-.21-1.18-.15-1.23-.19-2.46-.09-3.69,.06-.78-.73-1.53-1.5-1.5-.86,.04-1.43,.66-1.5,1.5-.15,1.9,0,3.81,.41,5.67,.16,.77,1.1,1.29,1.85,1.05,.81-.26,1.22-1.02,1.05-1.85Z"/>
    <path d="M140.21,348.11s-.02-.03-.03-.04c-.15-.21-.28-.43-.39-.67-.1-.26-.17-.53-.22-.8,0-.03,0-.06,0-.1-.02-.4-.15-.77-.44-1.06-.26-.26-.69-.46-1.06-.44-.39,.02-.79,.14-1.06,.44-.26,.28-.46,.66-.44,1.06,.03,.63,.14,1.26,.38,1.84,.14,.34,.28,.67,.47,.98,.2,.32,.43,.62,.68,.9,.24,.28,.7,.44,1.06,.44s.81-.16,1.06-.44c.26-.29,.46-.66,.44-1.06-.02-.41-.17-.75-.44-1.06Z"/>
    <path d="M148.75,352.16c-.16-.21-.28-.43-.39-.67-.05-.16-.1-.32-.13-.49,0-.12-.02-.23-.02-.35,0-.38-.17-.79-.44-1.06s-.69-.46-1.06-.44c-.39,.02-.79,.14-1.06,.44-.27,.3-.43,.65-.44,1.06,0,.33,.04,.66,.09,.98,.03,.21,.08,.41,.14,.61,.17,.5,.39,1,.72,1.42,.09,.17,.22,.32,.39,.42,.14,.13,.31,.22,.51,.27,.2,.06,.4,.07,.6,.03,.2,0,.39-.07,.56-.18,.32-.21,.6-.51,.69-.9l.05-.4c0-.27-.07-.52-.2-.76Z"/>
  </g>
  <g>
    <g>
      <path class="cls-3" d="M206.32,359.63c-.92,4.45-2.02,8.65-1.92,13.26,.02,1.14,.05,2.63-.16,4.01,3.15,.23,6.05,1.57,8.71,3.24,2.73,1.72,5.32,3.84,8.39,4.95,2.33,.84,5.11,1.13,7.33-.17,2.14-1.25,2.99-3.72,3.45-6.02,.56-2.82,.69-5.77,.86-8.64,.19-3.21,.25-6.43,.03-9.64-.12-1.71-.31-3.41-.62-5.09-.3-1.64-.62-4-2.35-4.67-1.74-.68-3.77-.46-5.58-.25-1.98,.23-3.71,.73-5.56,1.44-2.96,1.13-6.03,1.99-9,3.11-.37,.14-1.93,.91-3.35,1.33,.09,1.05-.04,2.13-.24,3.13Z"/>
      <path class="cls-3" d="M174.97,348.3c-1.72-.99-3.34-1.76-5.26-2.29-1.76-.49-3.72-1.02-5.55-.62-1.8,.4-2.49,2.67-3.04,4.25-.56,1.62-1.02,3.26-1.4,4.93-.71,3.14-1.16,6.33-1.47,9.53-.28,2.86-.61,5.79-.49,8.67,.09,2.35,.55,4.92,2.47,6.49,1.99,1.63,4.79,1.78,7.22,1.31,3.2-.62,6.09-2.32,9.05-3.59,2.64-1.13,5.42-1.96,8.28-1.9,.05-.64,.13-1.3,.14-1.93,.08-3.17,.28-6.28,.78-9.44,.38-2.44,.44-4.88,.85-7.31,.02-.09,.03-.19,.05-.28,.08-.44,.19-.89,.31-1.33-1.45-.6-3.14-1.8-3.53-2.02-2.76-1.57-5.65-2.89-8.4-4.47Z"/>
      <path class="cls-2" d="M202.07,373.4c-.07-4.26,.47-8.55,1.18-12.76,.31-1.86,2.01-5.2-1.04-5.48-1.71-.15-3.27,.64-4.98,.36-1.19-.2-2.32-.66-3.5-.9-1.01-.21-1.95-1-2.83-.23-.85,.74-1.35,1.93-1.63,2.99-.56,2.11-.69,4.35-.96,6.51-.42,3.38-.63,6.78-.71,10.18,0,.3-.01,.6,.01,.89,.03,.35,.1,.7,.26,1.02,.59,1.17,2.14,1.46,3.43,1.27,1.39-.2,2.6-.62,4.02-.33,1.7,.35,3.73,1.75,5.47,1.11,2.09-.77,1.31-2.93,1.28-4.62Z"/>
      <path class="cls-3" d="M202.5,356.37c-.6,3.44-1.3,6.87-1.77,10.33-.31,2.27,.27,4.37-.22,6.62-.66,3.07-2.25,.04-3.19-.73-1.6-1.3-4.24-.62-5.59,.65-2.19,2.07-2.97,.34-2.99-2.11-.04-4.91,1-10.03,2.97-14.52,.49-1.13,1.2-4.59-1.22-3.39-2.6,1.29-3.2,8.41-3.48,10.9-.2,1.73-.3,3.47-.36,5.21-.02,.52-.05,1.06-.08,1.59-.07,.37-.13,.74-.18,1.11-.32,2.61-.6,5.87,2.71,6.41,1.86,.31,3.26-.58,5-.8,1.96-.25,3.3,1.47,5.19,1.46,.49,0,.96-.12,1.37-.34,.52,.09,1.06,.09,1.64-.05,.96-.22,1.22-1.09,.99-1.82,.64-3.09-.07-6.31,.33-9.44,.44-3.45,1.17-6.89,1.77-10.31,.33-1.89-2.56-2.7-2.89-.8Z"/>
      <g>
        <path class="cls-2" d="M225.79,358.17c-.82-.94-2.01-.99-3.17-1.05-1.15-.07-2.31-.07-3.47,0-4.69,.25-9.25,1.48-13.44,3.58-.09,.04-.16,.09-.23,.15-.28,.06-.56,.19-.79,.39-1.42,1.2-.26,3.25,1.31,3.48,.75,.11,1.54,.02,2.29,0,.84-.03,1.67-.05,2.51-.08,2.76-.08,5.52-.17,8.28-.25,.56,.1,1.12,.21,1.67,.34,.52,.12,1.06,.31,1.6,.34,.11,.05,.24,.1,.33,.14,.2,.08,.43,.1,.64,.12,.22,.02,.45-.02,.66-.08,.2-.06,.41-.14,.59-.26,.14-.1,.28-.2,.4-.31,.12-.12,.22-.26,.31-.4,.13-.18,.21-.4,.27-.6,.02-.06,.02-.12,.03-.19,1.07-1.52,1.49-3.81,.2-5.29Z"/>
        <path class="cls-2" d="M227.91,373.44c-.11-.19-.25-.36-.37-.54-.06-.09-.13-.18-.18-.27-.02-.04-.04-.07-.06-.11-.1-.49-.2-.99-.3-1.48-.16-.76-.54-1.48-1.1-1.99-.15-.44-.36-.84-.69-1.15-1-.95-2.84-1.03-4.14-1.24-1.48-.24-2.97-.42-4.47-.52-3.33-.23-6.65-.05-9.95,.42-.97-.11-1.94,.11-2.56,.99-.76,1.08-.46,2.5,.65,3.22,.99,.64,2.35,.76,3.47,1.06,1.33,.35,2.65,.73,3.96,1.13,2.62,.81,5.2,1.75,7.74,2.79,.32,.13,.64,.27,.97,.39,.62,.42,1.28,.77,2,1.01,1.07,.35,2.45,.56,3.52,.13,.76-.3,1.36-.8,1.68-1.56,.32-.76,.23-1.57-.17-2.28Z"/>
        <path class="cls-2" d="M186.74,359.81c-.05-.39-.26-.75-.69-1.01-2.43-1.45-5.22-2.17-7.65-3.62-2.27-1.35-4.32-3.24-6.99-3.77-1.27-.25-2.66-.25-3.81,.42-1.23,.71-1.78,1.99-1.92,3.35-.27,2.62,.11,5.83,2.64,7.23,2.49,1.37,5.73,1.01,8.45,.9,1.54-.06,3.08-.12,4.62,.01,.84,.07,1.77,.32,2.62,.25,.03,.04,.06,.08,.09,.11,.29,.26,.66,.46,1.06,.44,.41-.02,.76-.16,1.06-.44,.63-.59,.99-1.49,.98-2.35,0-.51-.14-1.09-.46-1.52Z"/>
        <path class="cls-2" d="M184.43,366.47c-3.73,1.26-7.64,.92-11.45,.2-1.93-.36-3.83-.83-5.76-1.18-1.73-.32-3.55-.43-5.06,.63-3.24,2.28-1.12,6.5,2.07,7.41,1.81,.52,3.85,.31,5.69,.14,2-.19,3.99-.52,5.96-.95,2.27-.49,4.51-1.1,6.75-1.72,1.22-.34,2.75-.91,3.19-1.99,1.01-.97,.21-3.08-1.38-2.54Z"/>
      </g>
    </g>
    <g>
      <path d="M186.54,356.41c-.42,2.43-.47,4.87-.85,7.31-.5,3.15-.7,6.27-.78,9.44-.06,2.31-.96,4.97,1.9,5.83,2.95,.89,6.19-.1,9.19,.61,1.42,.34,2.74,1.05,4.19,1.2,4.38,.47,4.27-4.91,4.2-7.91-.1-4.61,1.01-8.82,1.92-13.26,.38-1.86,.51-4-.55-5.66s-3.97-1-5.6-1c-1.57,0-3.16-.14-4.71-.4-.91-.15-1.82-.32-2.68-.6-1.75-.58-3.51-.95-4.84,.67-.8,.97-1.13,2.25-1.36,3.48-.02,.09-.03,.19-.05,.28Zm1.05,17.66c.08-3.4,.29-6.8,.71-10.18,.27-2.16,.39-4.4,.96-6.51,.28-1.06,.78-2.25,1.63-2.99s1.82,.02,2.83,.23c1.18,.24,2.31,.7,3.5,.9,1.71,.29,3.28-.51,4.98-.36,3.05,.28,1.36,3.62,1.04,5.48-.71,4.21-1.25,8.51-1.18,12.76,.03,1.69,.81,3.85-1.28,4.62-1.73,.64-3.77-.77-5.47-1.11-1.43-.29-2.64,.13-4.02,.33-1.29,.19-2.85-.11-3.43-1.27-.16-.32-.23-.66-.26-1.02-.02-.3-.02-.6-.01-.89Z"/>
      <g>
        <path d="M236.05,361.39c-.17-3.15-.31-6.9-1.62-9.82-.8-1.79-2.91-3.27-4.82-3.67-.72-.15-1.46-.11-2.2-.05-3.36,.28-6.69,.93-9.91,1.95-3.05,.96-5.9,2.32-8.94,3.26-1.28,.4-4.05,.78-4.47,2.35-.81,3.07,5.03,.06,5.8-.23,2.97-1.12,6.04-1.98,9-3.11,1.85-.71,3.58-1.21,5.56-1.44,1.81-.21,3.84-.43,5.58,.25s2.05,3.03,2.35,4.67c.3,1.68,.5,3.38,.62,5.09,.22,3.21,.16,6.43-.03,9.64-.17,2.87-.3,5.82-.86,8.64-.46,2.3-1.31,4.77-3.45,6.02-2.22,1.3-5.01,1.01-7.33,.17-3.06-1.11-5.66-3.24-8.39-4.95-2.85-1.79-5.95-3.21-9.36-3.29-1.93-.05-1.98,2.95-.04,3,6.87,.16,11.49,6.6,17.85,8.41,2.7,.77,5.71,.78,8.27-.47,2.57-1.25,4.15-3.77,4.94-6.44,.85-2.86,1-5.93,1.23-8.88,.28-3.69,.43-7.4,.22-11.09Z"/>
        <path d="M216.71,365.89s-.1-.03-.15-.04c-3.43-.87-6.68-1.2-10.23-.98-.75,.05-2.53,.1-2.93,.92s.7,1.77,1.44,1.75c4.33-.11,8.63,.05,12.96-.2,.27-.02,.61-.11,.62-.38,0-.11-.07-.21-.14-.3-.39-.44-.99-.63-1.57-.78Z"/>
        <path d="M213.76,375.18c-1.48-.25-2.75-.93-4.14-1.45-1.26-.47-2.56-.69-3.79-1.29-.85-.41-1.72-.94-2.66-.83,.23,1.09,.18,2.33,1.4,2.76,1.64,.57,3.3,1.07,4.98,1.5,1.58,.4,4.69,1.99,6.16,.7,.21-.18,.37-.48,.24-.73-.07-.15-.23-.24-.39-.3-.55-.23-1.16-.26-1.75-.35h-.07Z"/>
        <path d="M217.76,356.8c-1.59,.1-3.18,.22-4.78,.32-1.73,.12-3.38,.66-5,1.25-1.32,.48-3,1.16-3.48,2.62-.1,.31-.11,.71,.16,.9,.11,.08,.26,.11,.39,.12,1.23,.1,2.32-.69,3.39-1.29,2.94-1.63,6.4-1.93,9.71-2.51,1.31-.23,1.31-1.52-.04-1.43-.12,0-.24,.02-.36,.02Z"/>
      </g>
      <g>
        <path d="M156.58,354.85c.66-3.09,1.38-6.77,3.13-9.45,1.07-1.64,3.38-2.78,5.33-2.88,.73-.04,1.46,.12,2.18,.29,3.28,.8,6.46,1.97,9.48,3.47,2.86,1.42,5.46,3.22,8.32,4.61,1.21,.59,3.88,1.4,4.05,3.02,.33,3.15-4.98-.73-5.69-1.13-2.76-1.57-5.65-2.89-8.4-4.47-1.72-.99-3.34-1.76-5.26-2.29-1.76-.49-3.72-1.02-5.55-.62s-2.49,2.67-3.04,4.25c-.56,1.62-1.02,3.26-1.4,4.93-.71,3.14-1.16,6.33-1.47,9.53-.28,2.86-.61,5.79-.49,8.67,.09,2.35,.55,4.92,2.47,6.49,1.99,1.63,4.79,1.78,7.22,1.31,3.2-.62,6.09-2.32,9.06-3.59,3.09-1.33,6.38-2.24,9.76-1.79,1.91,.26,1.49,3.23-.42,2.97-6.81-.91-12.38,4.72-18.94,5.53-2.79,.34-5.76-.11-8.1-1.75-2.34-1.64-3.52-4.37-3.88-7.13-.39-2.95-.07-6.01,.17-8.97,.3-3.69,.73-7.37,1.51-10.99Z"/>
        <path d="M172.95,362.09c1.62-.21,3.33,.1,4.92,.26,2.36,.24,4.71,.57,7.04,1,.8,.15,1.39,.87,1.27,1.7-.34,2.37-4.42,.33-5.62-.08-2.94-1-6.17-.7-9.17-1.46-.25-.06-.55-.19-.58-.44-.03-.26,.24-.44,.48-.54,.53-.22,1.08-.36,1.65-.43Z"/>
        <path d="M175.68,371.6c1.93-.41,4.79-.84,5.12-.9,1.14-.22,1.91-.67,2.89-1.19,.89-.47,2.18-.09,2.28,1.07,.07,.85-.47,1.53-1.3,1.68-1.97,.36-3.95,.62-5.95,.78-1.36,.11-3.98,.71-4.79-.85-.08-.14,.7-.36,1.75-.58Z"/>
        <path d="M176.48,353.42c.67,.14,1.43,.49,1.82,.61,1.06,.33,2.1,.73,3.12,1.18,2,.87,3.91,1.93,5.8,2.99,.71,.4,1.12,1.18,.78,1.97-.76,1.76-2.3,.48-3.24-.18-1.55-1.09-3.31-2.05-5-2.9-1.46-.73-3.23-1.31-4.23-2.68-.2-.27-.34-.69-.08-.89,.24-.19,.62-.19,1.03-.11Z"/>
      </g>
    </g>
  </g>
</svg>