<?xml version="1.0" encoding="UTF-8"?>
<svg id="Collar" xmlns="http://www.w3.org/2000/svg" xmlns:xlink="http://www.w3.org/1999/xlink" viewBox="0 0 500 500">
  <defs>
    <style>
      .cls-1 {
        fill: url(#linear-gradient);
      }

      .cls-2 {
        fill: #e97a91;
      }

      .cls-3 {
        fill: #bbb;
      }

      .cls-4 {
        fill: #dcdbda;
      }
    </style>
    <linearGradient id="linear-gradient" x1="121.21" y1="344.13" x2="374.52" y2="344.13" gradientTransform="matrix(1, 0, 0, 1, 0, 0)" gradientUnits="userSpaceOnUse">
      <stop offset="0" stop-color="#e97a91"/>
      <stop offset=".26" stop-color="#f5a2ac"/>
      <stop offset="1" stop-color="#e97a91"/>
    </linearGradient>
  </defs>
  <g id="__collar_heart" data-name="1_collar_heart">
    <g>
      <path class="cls-1" d="M374.4,323.91c-.12-6.41-1.3-13.22-6.04-17.89-1.19,.9-2.39,1.8-3.61,2.67-13.82,9.84-29.24,17.13-44.85,23.63-8.01,3.33-16.09,6.48-24.18,9.62-8.49,3.3-17.03,6.51-25.76,9.13-17.75,5.31-36.22,7.42-54.72,6.76-17.78-.63-36.01-3.17-52.55-10-14.32-5.92-27.34-15.16-36.23-27.99-2.97,4.63-4.24,10.22-4.79,15.65-.33,3.27-.47,6.57-.46,9.85,.02,12.91,15.5,17.94,25.79,21.37,8.67,2.89,17.37,5.71,26.18,8.13,8.79,2.41,17.7,4.43,26.73,5.71,9.21,1.3,18.53,1.68,27.83,1.69,18.42,0,37-.8,55.27-3.3,16.99-2.33,33.88-6.3,49.7-13.01,12.34-5.23,25.17-12.2,35.82-20.37,2.28-1.75,3.71-3.8,4.6-6.06,1.82-4.63,1.37-10.13,1.27-15.58Zm-154.83,50.38c-2.57,2.71-8.48,3.41-11.2,.54-2.33-2.46-1.59-6.55,1.24-8.3,1.5-.93,3.22-.97,4.83-.47,1.05-.5,2.36-.54,3.3,.11,1.32,.9,2.53,2.01,2.98,3.6,.44,1.6-.02,3.32-1.15,4.52Z"/>
      <path d="M371,303.01c-.22-.21-.46-.36-.7-.45-.1-.21-.22-.41-.37-.56-.84-.84-1.97-.66-2.83,0-13.06,10.13-27.92,17.7-43.03,24.25-7.63,3.31-15.37,6.35-23.11,9.38-8.22,3.22-16.44,6.46-24.82,9.28-8.51,2.86-17.17,5.24-26.03,6.76-8.89,1.53-17.92,2.23-26.94,2.28-17.47,.11-35.4-1.78-52.05-7.25-9.96-3.27-19.49-8.07-27.71-14.6-3.83-3.05-8.18-6.66-10.92-10.78-.92-1.39-4.77-9.51-7.31-6.44-4.93,5.98-6.84,13.43-7.55,21.01-.34,3.58-.56,7.26-.4,10.86,.14,3.15,.87,6.21,3.11,8.38,.05,.13,.11,.25,.2,.36,4.67,6.25,11.46,9.91,18.6,12.67,8.2,3.17,16.7,5.74,25.12,8.27,8.89,2.67,17.89,5.03,27.02,6.73,9.36,1.74,18.83,2.68,28.34,2.96,9.55,.28,19.12,.04,28.66-.34,9.37-.37,18.73-.98,28.05-2.03,17.86-2,35.63-5.54,52.46-11.98,9.12-3.49,17.87-7.88,26.28-12.84,6.83-4.03,14.5-8.03,20.01-13.85,4.85-5.12,3.47-15.11,3.3-21.65-.19-7.39-1.84-15.14-7.39-20.43Zm2.13,36.48c-.89,2.26-2.32,4.32-4.6,6.06-10.65,8.17-23.48,15.14-35.82,20.37-15.83,6.71-32.71,10.68-49.7,13.01-18.26,2.51-36.85,3.31-55.27,3.3-9.29,0-18.62-.38-27.83-1.69-9.03-1.28-17.94-3.3-26.73-5.71-8.81-2.42-17.51-5.23-26.18-8.13-10.3-3.44-25.78-8.46-25.79-21.37,0-3.28,.14-6.58,.46-9.85,.54-5.42,1.82-11.02,4.79-15.65,8.89,12.83,21.9,22.07,36.23,27.99,16.54,6.83,34.77,9.37,52.55,10,18.5,.65,36.97-1.46,54.72-6.76,8.73-2.61,17.27-5.83,25.76-9.13,8.08-3.14,16.17-6.29,24.18-9.62,15.62-6.5,31.03-13.79,44.85-23.63,1.22-.87,2.42-1.76,3.61-2.67,4.74,4.67,5.92,11.48,6.04,17.89,.1,5.45,.56,10.94-1.27,15.58Z"/>
      <g>
        <path d="M370.31,330.42c-.05-.78-.65-1.54-1.5-1.5-.77,.03-1.56,.66-1.5,1.5,.1,1.42,.1,2.85-.03,4.28-.07,.8-.11,1.16-.24,1.89-.12,.7-.27,1.4-.44,2.09-.19,.76,.24,1.66,1.05,1.85,.78,.18,1.64-.23,1.85-1.05,.74-2.95,1.02-6.02,.81-9.05Z"/>
        <path d="M363.92,337.2c-.04-.41-.14-.76-.44-1.06-.26-.26-.69-.46-1.06-.44-.39,.02-.79,.14-1.06,.44-.26,.28-.48,.67-.44,1.06,.07,.79,.05,1.58-.04,2.37-.07,.46-.16,.92-.29,1.37-.21,.76,.26,1.67,1.05,1.85,.8,.18,1.62-.24,1.85-1.05,.41-1.47,.57-3.02,.43-4.54Z"/>
        <path d="M357.81,340.94c-.05-.35-.4-.73-.69-.9-.32-.19-.8-.27-1.16-.15-.36,.12-.71,.34-.9,.69l-.15,.36c-.05,.19-.05,.38-.03,.57,.1,.77,.09,1.55,0,2.32-.07,.43-.15,.85-.27,1.26-.22,.75,.27,1.67,1.05,1.85,.81,.18,1.61-.24,1.85-1.05,.24-.8,.37-1.63,.43-2.46,.06-.84-.01-1.66-.13-2.49Z"/>
        <path d="M351.87,345.1c-.03-.4-.14-.77-.44-1.06-.26-.26-.69-.46-1.06-.44-.76,.03-1.57,.66-1.5,1.5,.05,.6,.03,1.2-.03,1.8-.12,.74-.31,1.47-.6,2.17l.06-.15c-.15,.36-.24,.7-.13,1.1,.1,.35,.36,.72,.69,.9,.35,.18,.77,.28,1.16,.15,.35-.11,.74-.34,.9-.69,.73-1.66,1.11-3.45,.96-5.27Z"/>
        <path d="M343.15,349.31c-.14-.15-.3-.25-.48-.31-.18-.09-.37-.14-.58-.13-.39,.02-.79,.14-1.06,.44-.27,.29-.44,.65-.44,1.06v1.88c0,.38,.17,.79,.44,1.06,.14,.15,.3,.25,.48,.31,.18,.09,.37,.14,.58,.13,.39-.02,.79-.14,1.06-.44,.27-.29,.44-.65,.44-1.06v-1.88c0-.38-.17-.79-.44-1.06Z"/>
        <path d="M128.81,351.14c-1.08-3.94-1.35-8-.87-12.06,.1-.81-.76-1.5-1.5-1.5-.89,0-1.4,.69-1.5,1.5-.51,4.3-.17,8.68,.98,12.85,.51,1.86,3.4,1.07,2.89-.8Z"/>
        <path d="M134.21,353.36c-.08-.39-.15-.79-.21-1.18-.15-1.23-.19-2.46-.09-3.69,.06-.78-.73-1.53-1.5-1.5-.86,.04-1.43,.66-1.5,1.5-.15,1.9,0,3.81,.41,5.67,.16,.77,1.1,1.29,1.85,1.05,.81-.26,1.22-1.02,1.05-1.85Z"/>
        <path d="M140.21,356.11s-.02-.03-.03-.04c-.15-.21-.28-.43-.39-.67-.1-.26-.17-.53-.22-.8,0-.03,0-.06,0-.1-.02-.4-.15-.77-.44-1.06-.26-.26-.69-.46-1.06-.44-.39,.02-.79,.14-1.06,.44-.26,.28-.46,.66-.44,1.06,.03,.63,.14,1.26,.38,1.84,.14,.34,.28,.67,.47,.98,.2,.32,.43,.62,.68,.9,.24,.28,.7,.44,1.06,.44s.81-.16,1.06-.44c.26-.29,.46-.66,.44-1.06-.02-.41-.17-.75-.44-1.06Z"/>
        <path d="M148.75,360.16c-.16-.21-.28-.43-.39-.67-.05-.16-.1-.32-.13-.49,0-.12-.02-.23-.02-.35,0-.38-.17-.79-.44-1.06s-.69-.46-1.06-.44c-.39,.02-.79,.14-1.06,.44-.27,.3-.43,.65-.44,1.06,0,.33,.04,.66,.09,.98,.03,.21,.08,.41,.14,.61,.17,.5,.39,1,.72,1.42,.09,.17,.22,.32,.39,.42,.14,.13,.31,.22,.51,.27,.2,.06,.4,.07,.6,.03,.2,0,.39-.07,.56-.18,.32-.21,.6-.51,.69-.9l.05-.4c0-.27-.07-.52-.2-.76Z"/>
      </g>
      <path d="M222.49,370.01c-.5-3.44-3.9-6.41-7.44-6.05-2.91-.38-5.97,.6-7.68,3.11-1.86,2.72-1.39,6.45,1.2,8.5,1.37,1.1,3.12,2.01,4.84,2.41,1.64,.37,3.26,.17,4.79-.52,2.83-1.29,4.76-4.31,4.3-7.44Zm-3.19,2.35c-.41,.93-1.05,1.61-1.86,2.1-.84,.51-1.66,.75-2.6,.71-1.02-.04-2.33-.65-3.35-1.23-.48-.27-.93-.56-1.32-.95-.34-.34-.64-.78-.76-1.11-.29-.85-.21-1.77,.13-2.54,.84-1.92,2.94-2.61,4.92-2.42,.13,.04,.27,.06,.42,.05,.25,.04,.5,.09,.74,.16,.34,.1,.64,.08,.9-.02,1.29,.37,2.41,1.34,2.85,2.66,.31,.93,.27,1.82-.07,2.59Z"/>
    </g>
    <g>
      <path class="cls-3" d="M220.6,388.45c-.07-1.37-.25-2.95-.76-3.44-.4-.39-1-.48-1.56-.53-.74-.06-3.24-.41-3.71,.41-.43,.74,.35,.71,.43,1.34,.29,2.26,.48,4.08-.32,6.43-.7,2.03-2.56,3.97-2.24,6.23,.35,2.5,3.3,3.95,5.17,1.93,.8-.87,1.25-2.03,1.68-3.11,.43-1.09,.75-2.22,.97-3.36,.25-1.32,.39-2.67,.38-4.01,0-.41,0-1.11-.04-1.88Z"/>
      <path class="cls-4" d="M216.75,372.35c-.66-.25-1.43-.36-1.98-.4-2.43-.21-4.69,1.06-6.28,2.88-3.02,3.47-5.44,8.83-5.74,13.42-.36,5.53,2.05,14.35,8.3,15.4,.72,.12,1.71-.07,1.75-.79,.01-.26-.12-.51-.27-.73-.49-.68-1.19-1.15-1.79-1.74-2.23-2.2-1.58-10.07-1.25-13.1,.48-4.37,2.27-8.5,6.09-10.92,.87-.55,2.26-.88,2.51-2.08,.22-1.03-.47-1.61-1.34-1.94Z"/>
      <path d="M222.68,384.99c-.21-1.9-3.21-1.92-3,0,.42,3.9,.85,8.33-.99,11.96-.79,1.56-2.05,3.05-3.59,3.95-.07-.03-.14-.06-.22-.08-.87-.21-1.46-.81-1.89-1.55,.12-.07,.25-.16,.36-.28,3.59-3.75,3.25-9.06,2.62-13.82-.11-.8-.61-1.5-1.5-1.5-.73,0-1.61,.69-1.5,1.5,.46,3.49,1.07,7.75-1.04,10.82-.48-2.26-.68-4.59-.61-6.9,.12-3.78,.67-9.25,4.47-11.22,1.71-.89,.2-3.48-1.51-2.59-4.95,2.57-5.89,9.29-5.96,14.28-.05,3.01,.25,6.23,1.19,9.11,.35,1.08,.86,2.14,1.55,3.02-3.65-.6-5.83-4.12-6.59-7.47-.84-3.73-.43-7.76,.74-11.37,1.22-3.77,3.47-7.92,7.17-9.73,.19,.03,.4,.02,.6-.04,.24-.07,.55-.08,.78-.17,.07,0,.14-.01,.21-.02,.14,0,.28-.02,.42-.02,.28,0,.55,.01,.83,.04,.04,0,.1,.01,.12,.02,.15,.03,.31,.06,.46,.1,.27,.07,.54,.15,.8,.24,.05,.02,.09,.04,.14,.05h-.01s.02,0,.02,0l.05,.02c.13,.05,.08,.04,.01,.02,.09,.05,.22,.1,.3,.14,.26,.14,.52,.29,.76,.45,.05,.03,.1,.07,.15,.11,.11,.09,.22,.18,.32,.28,.58,.53,1.56,.62,2.12,0,.53-.58,.62-1.56,0-2.12-2.22-2.02-5.38-2.82-8.28-2.03-.05,.01-.09,.04-.14,.06-.27-.04-.55,0-.85,.12-4.17,1.84-6.77,6.2-8.37,10.27-1.71,4.37-2.26,9.35-1.33,13.96,.87,4.31,3.54,8.38,7.89,9.76,4.06,1.29,8.15-.71,10.63-3.94,3.39-4.4,3.23-10.19,2.66-15.44Z"/>
    </g>
    <g>
      <path class="cls-2" d="M225,399.67c-3.69,.18-9.14,4.96-11.52,9.38-.87-1.4-2.1-2.61-3.34-3.25-.77-.4-1.73-.86-2.61-.65-.8-.63-1.85-1.04-3.14-1.2-2.91-.36-4.66,1.1-5.51,4.58-.96,3.91-.48,7.76,1.62,11.06,4.09,6.43,10.06,11.16,15.04,16.8,7.58-7.41,13.76-17.08,16.66-25.77,1.9-5.68-1.75-11.22-7.2-10.95Z"/>
      <path d="M226.02,417.25c1.72-3.11,3.69-6.17,2.88-11.07-.14-1.18-1.53-3.67-3.01-2.94-1.87,.92,.15,3.72,.28,5.05,.19,2.02-.74,4.03-1.57,5.81-.28,.61-.58,1.21-.85,1.82-.32,.73-.07,1.34,.55,1.72,.63,.39,1.39,.22,1.72-.38Z"/>
      <path d="M221.49,396.91c-1.87,.49-3.64,1.36-5.09,2.51-1.78,1.41-3.57,2.83-4.97,4.62-5.32-6.2-14.82-3.54-16.12,4.38-1.16,7.08,1.78,12.85,6.16,17.79,4.01,4.54,8.3,8.82,11.95,13.68,2.23,2.97,3.04,2.99,5.51-.27,2.42-3.19,4.24-6.84,6.66-10.03,3.71-4.9,6.05-10.47,8.67-15.94,2.2-4.59,1.79-10.68-1.97-14.36-2.88-2.82-7.05-3.37-10.81-2.38Zm10.71,13.72c-2.9,8.68-9.08,18.36-16.66,25.77-4.98-5.64-10.95-10.38-15.04-16.8-2.1-3.3-2.59-7.14-1.62-11.06,.86-3.47,2.6-4.94,5.51-4.58,4.66,.58,5.23,4.53,5.03,8.45-.04,.76,.32,1.69,1.08,1.75,1.57,.12,1.98-2.88,2.39-3.9,.72-1.77,1.86-3.36,3.1-4.8,2.16-2.49,5.49-5.62,9-5.79,5.45-.27,9.1,5.28,7.2,10.95Z"/>
      <g>
        <path class="cls-2" d="M258.94,397.04c-.4-1.25-1.74-2.17-3.08-1.75-2.68,.85-5.41,1.53-8.18,2.02-.58,.1-1.21,.66-1.49,1.15-.31,.54-.45,1.33-.25,1.93,.2,.6,.57,1.19,1.15,1.49,.63,.33,1.23,.38,1.93,.25,2.77-.49,5.5-1.17,8.18-2.02,1.24-.4,2.17-1.76,1.75-3.08Z"/>
        <path class="cls-2" d="M263.69,412.53c-3.76-.59-7.52-1.18-11.28-1.77-.69-.11-1.3-.11-1.93,.25-.52,.3-1.01,.9-1.15,1.49-.27,1.2,.36,2.86,1.75,3.08,3.76,.59,7.52,1.18,11.28,1.77,.69,.11,1.3,.11,1.93-.25,.52-.3,1.01-.9,1.15-1.49,.27-1.2-.36-2.86-1.75-3.08Z"/>
        <path class="cls-2" d="M256.34,429.78c-1.1-.36-2.18-.77-3.25-1.21-1.07-.46-2.12-.96-3.15-1.5-1.16-.61-2.77-.33-3.42,.9-.61,1.15-.34,2.77,.9,3.42,2.43,1.28,4.98,2.36,7.59,3.21,1.24,.41,2.79-.47,3.08-1.75,.31-1.37-.41-2.64-1.75-3.08Z"/>
        <path class="cls-2" d="M188.65,429.53c-.2-.6-.57-1.19-1.15-1.49-.57-.3-1.29-.47-1.93-.25-1.97,.67-3.94,1.35-5.91,2.02-.62,.21-1.16,.57-1.49,1.15-.31,.54-.45,1.33-.25,1.93,.2,.6,.57,1.19,1.15,1.49,.57,.3,1.29,.47,1.93,.25,1.97-.67,3.94-1.35,5.91-2.02,.62-.21,1.16-.57,1.49-1.15,.31-.54,.45-1.33,.25-1.93Z"/>
        <path class="cls-2" d="M175.03,413.99c-2.99-.54-5.99-.49-8.94,.23-1.27,.31-2.15,1.82-1.75,3.08,.43,1.32,1.71,2.08,3.08,1.75,.56-.14,1.13-.24,1.71-.32,1.37-.15,2.75-.14,4.11,.02,.15,.02,.31,.05,.46,.07,.68,.12,1.32,.11,1.93-.25,.52-.3,1.01-.9,1.15-1.49,.28-1.22-.37-2.83-1.75-3.08Z"/>
        <path class="cls-2" d="M182.65,399.85c-2.44-.77-4.88-1.54-7.33-2.31-1.25-.39-2.78,.46-3.08,1.75-.31,1.36,.41,2.65,1.75,3.08,2.44,.77,4.88,1.54,7.33,2.31,1.25,.39,2.78-.46,3.08-1.75,.31-1.36-.41-2.65-1.75-3.08Z"/>
      </g>
      <g>
        <path d="M182.11,398.83c-2.02-.42-3.99-1-5.92-1.74-.73-.28-1.68,.31-1.85,1.05-.2,.86,.26,1.54,1.05,1.85,1.92,.74,3.9,1.32,5.92,1.74,.77,.16,1.66-.22,1.85-1.05,.17-.75-.23-1.67-1.05-1.85Z"/>
        <path d="M175.78,413.72h-8.19c-.78,0-1.54,.69-1.5,1.5,.04,.81,.66,1.5,1.5,1.5h8.19c.78,0,1.54-.69,1.5-1.5-.04-.81-.66-1.5-1.5-1.5Z"/>
        <path d="M185.54,427.72c-.21-.32-.51-.6-.9-.69-.37-.08-.84-.08-1.16,.15-.5,.37-1.05,.67-1.62,.93-.36,.14-.73,.27-1.11,.37-.36,.09-.71,.37-.9,.69-.19,.32-.27,.8-.15,1.16,.25,.79,1.03,1.25,1.85,1.05,1.23-.31,2.42-.86,3.45-1.6,.33-.24,.58-.49,.69-.9,.1-.36,.05-.84-.15-1.16Z"/>
        <path d="M255.98,396.39c-.24-.73-1.05-1.32-1.85-1.05-1.6,.55-3.21,1.11-4.81,1.66-.37,.13-.69,.34-.9,.69-.19,.32-.27,.8-.15,1.16,.24,.73,1.05,1.32,1.85,1.05,1.6-.55,3.21-1.11,4.81-1.66,.37-.13,.69-.34,.9-.69,.19-.32,.27-.8,.15-1.16Z"/>
        <path d="M260.88,411.54c-2.73-.46-5.46-.93-8.19-1.39-.77-.13-1.65,.2-1.85,1.05-.17,.73,.22,1.7,1.05,1.85,2.73,.46,5.46,.93,8.19,1.39,.77,.13,1.65-.2,1.85-1.05,.17-.73-.22-1.7-1.05-1.85Z"/>
        <path d="M255.81,428.74c-1.88-.66-3.76-1.32-5.65-1.98-.74-.26-1.67,.29-1.85,1.05-.19,.84,.25,1.57,1.05,1.85,1.88,.66,3.76,1.32,5.65,1.98,.74,.26,1.67-.29,1.85-1.05,.19-.84-.25-1.57-1.05-1.85Z"/>
      </g>
    </g>
  </g>
</svg>