<?xml version="1.0" encoding="UTF-8"?>
<svg id="Collar" xmlns="http://www.w3.org/2000/svg" viewBox="0 0 500 500">
  <defs>
    <style>
      .cls-1 {
        fill: #969594;
      }

      .cls-2 {
        fill: #6c6c6c;
      }

      .cls-3 {
        fill: #9f9f9f;
      }

      .cls-4 {
        fill: #b5b4b3;
      }

      .cls-5 {
        fill: #595959;
      }

      .cls-6 {
        fill: #525252;
      }

      .cls-7 {
        fill: #757575;
      }
    </style>
  </defs>
  <g>
    <g>
      <g>
        <path class="cls-4" d="M340.74,381.45c-6.81,9.87-13.56,21.3-12.04,33.78,.7,5.77,2.89,11.26,5.83,16.26,1.08-6.39,2.74-12.66,4.99-18.74,4.13-11.13,10.09-21.51,17.61-30.7,3.8-4.64,8-8.95,12.56-12.85,3.18-2.72,6.56-5.26,10.25-7.26,1.88-1.02,4.87-1.16,5.1-3.77,.32-3.63-3.59-6.36-5.67-8.7-1.17-1.32-1.76-2.9-3.78-3.04-.01,0-.02,0-.03,0-.07,.1-.16,.19-.28,.28-3.33,2.61-6.67,5.23-10,7.84-9.65,7.57-17.61,16.84-24.55,26.9Z"/>
        <path class="cls-4" d="M101.64,354c-2.74,3.99,2.42,4.65,5.2,6.38,4.61,2.87,8.44,6.89,11.54,11.33,3.89,5.58,6.68,11.84,9.24,18.13,2.91,7.15,4.7,14.77,5.32,22.46,.22,2.75,.41,5.76,.21,8.61-.3,4.18-1.95,7.78-4,11.29,1.05,.26,2.16-.94,2.96-1.49,1.2-.83,2.29-1.87,3.27-2.94,2.08-2.27,3.7-4.95,4.87-7.79,5.25-12.83,.6-26.62-5.25-38.38-3.29-6.62-6.8-13.18-11.08-19.23-2.09-2.96-4.37-5.8-6.87-8.43-1.37-1.43-5.41-6.47-7.44-6.48-.45,0-.87,.23-1.26,.47-2.42,1.51-5.1,3.68-6.72,6.05Z"/>
      </g>
      <g>
        <path class="cls-1" d="M384.41,357.95c-5.2,1.31-10.26,3.12-15,5.66-9.04,4.86-16.22,12.27-22.79,20.03-3.52,4.16-6.8,8.53-9.8,13.08-2.93,4.45-6.24,9.23-7.67,14.42-.08,.28-.21,.51-.36,.7-.09,.3-.17,.61-.25,.92,.03,.82,.07,1.65,.17,2.48,.7,5.77,2.89,11.26,5.83,16.26,1.08-6.39,2.74-12.66,4.99-18.74,4.13-11.13,10.09-21.51,17.61-30.7,3.8-4.64,8-8.95,12.56-12.85,3.18-2.72,6.56-5.26,10.25-7.26,1.88-1.02,4.87-1.16,5.1-3.77,.02-.18,.01-.35,0-.53-.18,.13-.39,.23-.65,.3Z"/>
        <path class="cls-1" d="M103.94,356.89c2.1-3.22,5-5.74,7.66-8.48-.74-.56-1.44-.94-1.98-.94-.45,0-.87,.23-1.26,.47-2.42,1.51-5.1,3.68-6.72,6.05-1.9,2.78,.01,3.94,2.29,4.98,0-.02,.02-.04,.02-.05-.36-.62-.41-1.44-.02-2.03Z"/>
        <path class="cls-1" d="M136.11,424.57c2.1-5.63,2.69-11.41,1.9-17.36-1.17-8.88-3.45-18.02-8.68-25.43-3.27-4.65-7.6-8.32-12.12-11.79l-.06,.05c.42,.55,.82,1.11,1.22,1.67,3.89,5.58,6.68,11.84,9.24,18.13,2.91,7.15,4.7,14.77,5.32,22.46,.22,2.75,.41,5.76,.21,8.61-.3,4.18-1.95,7.78-4,11.29,1.05,.26,2.16-.94,2.96-1.49,1.2-.83,2.29-1.87,3.27-2.94,.39-.43,.76-.89,1.12-1.35-.46-.42-.69-1.07-.39-1.86Z"/>
      </g>
    </g>
    <g>
      <g>
        <path class="cls-4" d="M480.82,374.92c-3.55-10.16-6.7-21.42-13.42-30.05-14.04-18.03-39.05-27.93-61.5-23.57-12.36,2.41-24,8.12-33.43,16.46-.31,.33-.65,.63-1.01,.91,.44,.27,.87,.53,1.28,.86,.41,.33,.75,.74,1.07,1.16,.01-.01,.02-.03,.03-.04,1.09-1.15,2.23-2.25,3.43-3.29,9.49-8.2,21.96-12.68,34.47-12.77,18.94-.14,41.76,11.45,50.35,28.75,3.26,6.57,6.34,13.23,9.32,19.94,.24,.23,.4,.54,.4,.91,4.46,10.09,8.69,20.29,12.91,30.48,1.84,4.45,3.68,8.9,5.53,13.36,0,2.19,2.38,5.75,3.23,7.8,1.26,3.03,2.51,6.07,3.77,9.1,.75,1.81,1.85,3.82,2.75,5.83v-10.87c-3.94-11.3-7.88-22.6-11.82-33.89-2.45-7.03-4.9-14.06-7.36-21.09Z"/>
        <path class="cls-4" d="M6.3,418.03c1.69-4.45,3.38-8.9,5.08-13.36,3.87-10.19,7.76-20.39,11.85-30.48,0-.37,.14-.68,.37-.91,2.73-6.71,5.56-13.37,8.56-19.94,7.89-17.3,28.85-28.88,46.24-28.75,11.49,.09,22.95,4.57,31.66,12.77,1.1,1.04,2.15,2.14,3.15,3.29,.01,.01,.02,.03,.03,.04,.29-.42,.6-.83,.98-1.16,.37-.33,.77-.59,1.17-.86-.33-.28-.64-.58-.93-.91-8.67-8.34-19.35-14.06-30.7-16.46-20.61-4.37-43.58,5.53-56.48,23.57-6.17,8.63-9.07,19.88-12.33,30.05-2.26,7.03-4.5,14.06-6.76,21.09-2.74,8.54-5.47,17.09-8.21,25.63v12.98c1.11-2.93,2.22-5.85,3.34-8.78,.78-2.05,2.97-5.62,2.97-7.8Z"/>
      </g>
      <g>
        <path class="cls-1" d="M372.7,339.5s.03,.02,.05,.04c.41,.33,.75,.74,1.07,1.16,.01-.01,.02-.03,.03-.04,1.09-1.15,2.23-2.25,3.43-3.29,.94-.81,1.91-1.57,2.91-2.31-2.5,1.47-4.99,2.97-7.49,4.45Z"/>
        <path class="cls-1" d="M488.18,396c-2.45-7.03-4.9-14.06-7.36-21.09-.35-1-.69-2-1.04-3.02-2.07-4.12-3.73-8.48-5.94-12.56-1.65-3.05-3.76-5.72-5.95-8.39-2.17-2.64-4.42-5.2-6.79-7.66-4.71-4.87-9.89-9.25-15.69-12.78-6.26-3.8-13.07-6.68-20.36-7.7-6.44-.91-12.99-.42-19.42,.46-3.13,.87-6.21,1.95-9.19,3.24-1.16,.5-2.31,1.03-3.45,1.58,5.98-2.25,12.36-3.44,18.75-3.49,18.94-.14,41.76,11.45,50.35,28.75,3.26,6.57,6.34,13.23,9.32,19.94,.24,.23,.4,.54,.4,.91,4.46,10.09,8.69,20.29,12.91,30.48,1.84,4.45,3.68,8.9,5.53,13.36,0,2.19,2.38,5.75,3.23,7.8,1.26,3.03,2.51,6.07,3.77,9.1,.75,1.81,1.85,3.82,2.75,5.83v-10.87c-3.94-11.3-7.88-22.6-11.82-33.89Z"/>
        <path class="cls-1" d="M114.47,337.77c-8.66-8.34-19.35-14.06-30.7-16.46-4-.21-7.98,.18-11.97,.31-5.91,.19-13.37,3.05-18.65,5.54-6.16,2.91-11.89,6.9-16.62,11.81-3.17,3.29-5.96,6.92-8.42,10.78-4.95,7.78-8.54,16.32-11.55,25.01-3.11,8.96-5.82,18.07-8.19,27.25-2.13,8.24-4.34,16.59-8.38,24.11v8.51c1.11-2.93,2.22-5.85,3.34-8.78,.78-2.05,2.97-5.62,2.97-7.8,1.69-4.45,3.38-8.9,5.08-13.36,3.87-10.19,7.76-20.39,11.85-30.48,0-.37,.14-.68,.37-.91,2.73-6.71,5.56-13.37,8.56-19.94,7.89-17.3,28.85-28.88,46.24-28.75,11.49,.09,22.95,4.57,31.66,12.77,1.1,1.04,2.15,2.14,3.15,3.29,.01,.01,.02,.03,.03,.04,.29-.42,.6-.83,.98-1.16,.37-.33,.77-.59,1.17-.86-.33-.28-.64-.58-.93-.91Z"/>
      </g>
    </g>
    <path class="cls-7" d="M21.14,382.83c1.07-3.01,1.85-6.21,3.02-9.21,.14-.1,.26-.24,.36-.4,.34-.19,.61-.51,.76-.91,.46-1.23,.95-2.45,1.47-3.65,.05-.07,.09-.15,.15-.23,.19-.26,.27-.52,.28-.76,.81-1.82,1.68-3.61,2.62-5.36,.36-.67,.18-1.5-.43-1.95,1.42-3.23,3.02-6.38,4.87-9.39,3.99-6.49,9.2-12.13,15.55-16.38,12.41-8.31,27.88-11,42.31-7.07,1.91,.52,3.79,1.16,5.63,1.89,.06,.53,.37,1.03,1.02,1.25,3.71,1.24,6.5,4.09,9.4,6.59,1.33,1.15,2.81,2.61,4.46,3.27,1.52,.61,3.48,.35,3.95-1.46,.13-.51,0-1.09-.39-1.46-11.53-10.79-27.76-16.39-43.49-14.56-15.7,1.83-30,10.43-39.03,23.38-4.99,7.16-8.38,15.3-11.15,23.54-1.48,3-2.33,6.29-3.36,9.47-1.55,4.78-3.49,9.41-5.52,14-1.99,4.48-4.05,8.93-5.94,13.45-1.92,4.59-3.53,9.27-5.06,14.01-.84,2.6-1.68,5.19-2.62,7.76v7.79c3.94-8.43,6.08-17.56,9.52-26.19,3.67-9.22,8.29-18.04,11.61-27.39Z"/>
    <path class="cls-7" d="M487.7,405.13c-.08-.21-.2-.37-.34-.51-.48-1.2-.97-2.39-1.48-3.57-2.52-6.9-5.11-13.77-7.92-20.56-4.32-10.45-8.94-21.05-14.97-30.64-3.1-4.93-6.81-9.45-11.62-12.79-.2-.14-.4-.22-.59-.25-5.44-4.94-11.77-8.88-18.76-11.28-6.45-2.21-13.18-2.73-19.96-2.3-6.71,.42-13.41,1.61-19.77,3.8-3.55,1.22-7,2.74-10.26,4.6-1.57,.9-3.1,1.87-4.57,2.93-.78,.56-1.55,1.16-2.31,1.75-.51,.4-1.62,1.5-2.34,1.11-1.7-.92-3.22,1.67-1.51,2.59,3.13,1.69,5.99-1.71,8.36-3.34,2.75-1.9,5.68-3.53,8.73-4.89,6.01-2.69,12.54-4.33,19.07-5.12,6.69-.81,13.55-.96,20.12,.69,5.95,1.49,11.5,4.24,16.47,7.81,5.53,3.98,10.3,9.04,14.1,14.69,.45,.66,1.16,.79,1.76,.59,1.38,2.1,2.64,4.31,3.82,6.53-.65,.38-1.1,1.19-.68,2.06,7.48,15.4,13.91,31.28,19.26,47.54,.41,1.26,1.92,1.28,2.61,.57,.92,2.57,1.85,5.14,2.76,7.71,.13,.36,.36,.61,.62,.78,.74,2.02,1.49,4.05,2.29,6.05,1.3,3.25,2.79,6.38,4.4,9.46,1.66,4.09,3.34,8.17,5.01,12.26v-9.32c-.8-1.42-1.59-2.84-2.34-4.29-3.34-8.21-6.67-16.42-9.96-24.65Z"/>
    <path class="cls-7" d="M128.23,387.75c-.7-1.77-3.6-1-2.89,.8,4.38,11.07,9.06,23.05,6.97,35.09-.13,.22-.22,.46-.26,.75,0,.05-.01,.09-.02,.14,0,.02,0,.05-.02,.12-.03,.17-.06,.35-.09,.52-.07,.35-.15,.69-.24,1.03s-.2,.68-.31,1.01c-.06,.17-.12,.33-.18,.5-.03,.07-.06,.14-.08,.21-.28,.62-.58,1.22-.93,1.8-.18,.3-.38,.6-.58,.88-.02,.03-.19,.25-.22,.3-.09,.11-.18,.23-.28,.34-.5,.6-.63,1.54,0,2.12,.55,.51,1.58,.64,2.12,0,1.48-1.78,2.55-3.79,3.2-5.96,.12-.15,.22-.34,.28-.58,3.36-13.43-1.58-26.7-6.47-39.06Z"/>
    <path class="cls-7" d="M110.59,347.3c-.24-.75-1.04-1.3-1.85-1.05-1.16,.36-2.17,1-3.15,1.7-.9,.64-1.8,1.28-2.65,1.99-1.68,1.39-3.09,3.09-3.76,5.19-.24,.75,.28,1.67,1.05,1.85,.82,.19,1.59-.25,1.85-1.05,.04-.12,.08-.25,.13-.37,0-.03,.01-.04,.02-.06h0c.09-.2,.18-.39,.29-.58,.11-.21,.24-.41,.37-.6,.06-.09,.12-.18,.19-.26,.02-.02,.03-.04,.05-.07,.59-.71,1.24-1.35,1.95-1.93,.15-.12,.3-.25,.46-.37,.04-.03,.11-.09,.13-.1,.09-.07,.18-.13,.27-.2,.37-.28,.75-.55,1.13-.81,.42-.29,.83-.59,1.27-.85,.21-.13,.42-.25,.64-.35,.01,0,.28-.12,.25-.11,.11-.04,.22-.08,.34-.12,.75-.23,1.3-1.06,1.05-1.85Z"/>
    <path class="cls-7" d="M367.13,369.74c-3.67,2.48-7.11,5.29-10.23,8.43-3.27,3.28-6.08,6.94-8.81,10.68-2.94,4.01-5.88,8.03-8.65,12.17-2.53,3.79-4.8,7.61-5.88,12.08-.61,2.53-.93,5.11-1.23,7.69-.33,2.8-.6,5.61-.28,8.42,.18,1.54,2.18,1.83,2.81,.86,.73,.22,1.56-.05,1.72-1.01,1.31-7.67,3.34-15.19,6.08-22.47,.18-.49,.1-.89-.12-1.2,2.55-4.79,5.61-9.35,8.71-13.71,.49-.69,.27-1.37-.23-1.78,2.08-2.83,4.22-5.61,6.62-8.18,3.3-3.53,6.99-6.66,10.99-9.37,1.59-1.08,.09-3.68-1.51-2.59Z"/>
  </g>
  <g>
    <path class="cls-6" d="M450.68,497.36s-.06-.03-.09-.05c-2.78-1.53-5.14-4.19-6.69-6.93-1.55-2.74-3.19-5.06-3.23-8.32l-.09-8.68c-.84,1.34-2.4,2-3.87,2.58-1.63,.64-4.95,1.1-6.03,2.62-1.15,1.63-.24,5.68-.08,7.56l1.03,12.21c.05,.55,.11,1.12,.24,1.65h23.46c-.66-1.47-3.31-1.94-4.66-2.64Z"/>
    <path class="cls-6" d="M52.28,494.56c.52-4.86,1.47-9.67,2.83-14.36,.28-.96,.58-1.95,.48-2.95-.17-1.71-1.11-1.78-2.34-2.34-.45-.2-2.81-1.54-2.33-2.31-1.21,1.95-.86,4.42-.91,6.72-.08,3.82-1.39,7.52-3,10.99-1.51,3.27-3.65,6.7-7.12,7.68-1.89,.53-4.39-.11-4.87-2.02,.3,1.21-.07,2.64,.06,4.02h16.39c.28-1.11,.46-2.26,.59-3.41,.08-.68,.14-1.35,.21-2.02Z"/>
  </g>
  <g>
    <g>
      <path class="cls-3" d="M8.66,460.96c2.86-3.08,3.66-7.41,3.63-11.65-.03-4.95-.84-9.92-1.4-14.83-.6-5.3-1.2-10.59-1.8-15.89-.46,1.11-.92,2.22-1.38,3.33-2.48,5.9-5.07,11.74-7.71,17.56v23.29c2.97,1.77,6.32,.71,8.66-1.81Z"/>
      <path class="cls-3" d="M96.15,332.51c.43,3.63,.95,7.89,3.81,10.29,1.11,.93,2.56,1.48,3.93,1,1.27-.45,2.35-1.58,2.36-3.09,0-1.06,.84-1.53,1.59-1.43-3.7-3.39-7.9-6.1-12.39-8.05,.41,.26,.63,.73,.7,1.29Z"/>
      <path class="cls-3" d="M80.75,346.15c3.42,.73,6.97-.24,9.24-3.22,2.27-2.98,2.97-7.09,3.45-10.81,.09-.74,.91-1.16,1.51-1.07,.14,.02,.25,.07,.36,.13-4.43-1.9-9.13-3.08-13.89-3.44-5.34-.41-10.73,.23-15.86,1.89,3.42,6.94,7.47,14.89,15.19,16.53Z"/>
      <path class="cls-3" d="M40.57,347.19c1.3,2.3,2.47,4.67,3.52,7.11,2.9,4.02,7.04,7.02,11.74,7.41,3.11,.26,6.42-.63,8.31-3.53,2.14-3.29,2.05-7.7,1.82-11.54-.33-5.51-1.39-10.93-3.06-16.13-4.13,1.43-8.71,3.3-12.1,5.59-4.15,2.81-7.78,6.43-10.92,10.5,.27,.1,.51,.29,.68,.6Z"/>
      <path class="cls-3" d="M17.62,425.07c3.83,1.87,7.65-1.31,9.43-4.85,2.11-4.19,2.76-9.35,2.82-14.06,.06-5.04-.67-10.03-1.77-14.91-1.05-4.67-2.44-9.24-3.89-13.77-.29,.7-.56,1.41-.79,2.15-3.86,12.2-8.29,24.19-13.1,35.98,.48-.02,.96,.2,1.17,.72,1.35,3.2,2.99,7.21,6.13,8.74Z"/>
      <path class="cls-3" d="M40.35,383.09c7.39-3.88,5.88-14.33,3.69-21.15-.68-2.11-1.47-4.16-2.34-6.18-1.46-2.09-2.63-4.41-3.46-6.91-1.41,2.02-2.73,4.12-3.91,6.28-2.14,3.9-3.78,7.98-5.35,12.17-.84,2.25-1.95,4.32-3.02,6.43,2.87,5.01,8.17,12.62,14.39,9.35Z"/>
    </g>
    <g>
      <path class="cls-3" d="M381.43,340.7c.01,1.52,1.19,2.64,2.57,3.09,1.5,.48,3.08-.07,4.28-1,3.11-2.4,3.68-6.65,4.15-10.29,.07-.56,.31-1.03,.76-1.29-4.89,1.95-9.46,4.65-13.49,8.05,.81-.1,1.72,.38,1.73,1.43Z"/>
      <path class="cls-3" d="M395.38,332.11c.52,3.73,1.29,7.83,3.76,10.81,2.47,2.98,6.34,3.95,10.06,3.22,8.41-1.64,12.82-9.59,16.54-16.53-5.59-1.66-11.46-2.3-17.27-1.89-5.18,.36-10.3,1.54-15.13,3.44,.12-.05,.24-.11,.39-.13,.65-.09,1.54,.34,1.65,1.07Z"/>
      <path class="cls-3" d="M449.17,361.95c-2.39,6.82-4.03,17.27,4.01,21.15,6.78,3.27,12.55-4.33,15.67-9.35-1.16-2.11-2.37-4.18-3.29-6.43-1.7-4.19-3.5-8.28-5.82-12.17-1.29-2.17-2.72-4.27-4.26-6.28-.9,2.5-2.17,4.83-3.77,6.91-.95,2.01-1.81,4.07-2.55,6.18Z"/>
      <path class="cls-3" d="M464.59,406.16c.06,4.72,.77,9.87,3.07,14.06,1.95,3.54,6.1,6.72,10.27,4.85,3.42-1.53,5.21-5.54,6.67-8.74,.24-.52,.75-.73,1.28-.72-5.24-11.8-10.06-23.78-14.26-35.98-.25-.74-.55-1.45-.86-2.15-1.58,4.54-3.09,9.1-4.24,13.77-1.2,4.88-1.99,9.87-1.92,14.91Z"/>
      <path class="cls-3" d="M427.28,358.18c2.05,2.9,5.67,3.79,9.05,3.53,5.11-.4,9.62-3.39,12.78-7.41,1.15-2.44,2.42-4.81,3.84-7.11,.19-.31,.45-.5,.74-.6-3.42-4.07-7.37-7.69-11.89-10.5-3.68-2.29-8.68-4.15-13.17-5.59-1.81,5.21-2.97,10.63-3.33,16.13-.25,3.84-.35,8.25,1.98,11.54Z"/>
      <path class="cls-3" d="M488.72,421.92c-.51-1.11-1.01-2.22-1.51-3.33-.65,5.3-1.31,10.59-1.96,15.89-.61,4.91-1.48,9.87-1.52,14.83-.03,4.24,.84,8.57,3.96,11.65,2.63,2.6,6.44,3.66,9.74,1.65,.99-.6,1.83-1.4,2.57-2.29v-15.21c-.51-.86-1.05-1.9-1.4-2.61-3.4-6.8-6.71-13.66-9.88-20.57Z"/>
    </g>
  </g>
  <g>
    <path class="cls-7" d="M499.02,495.98c-3,.21-5.96-1.21-8.68-2.6l-5.17-2.63c-1.32-.67-2.68-1.37-3.65-2.48-.91-1.04-1.41-2.36-1.88-3.66-1.08-3.02-2.04-6.08-2.88-9.18-2.72,4.44-7.59,8.55-12.72,5.24-2.04-1.32-3.41-3.4-4.29-5.63-1.76-4.46-1.81-9.62-1.23-14.32,.27-2.24,.67-4.47,.93-6.71,.1-.83-.18-5.95,.23-6.29-4.24,3.55-9.46,8.05-14.88,3.81-2.01-1.58-3.22-3.96-4.09-6.37-1.98-5.47-1.12-9.88-1.12-15.47,0-6.92,1.07-13.79,2.18-20.61-4.84,5.33-10.24,11.69-18.2,7.59-4.88-2.52-6.72-7.98-7.2-13.03-.44-4.74-.35-9.52,.27-14.24,.39-2.99,1-6,.61-8.98-3.66,3.75-8,7.64-12.69,3.04-4.77-4.67-5.36-12.8-4.77-19.08,.03-.36,.05-.77-.21-1.01-.52-.48-1.27,.21-1.71,.77-1.83,2.28-4.14,1.88-6.7,2,7.42,13.11,14.28,26.54,20.56,40.23,1,2.18,1.99,4.37,2.73,6.65,.42,1.3,.77,2.62,1.08,3.95,.63,.12,1.17,.56,1.35,1.4,.87,4.3,3.03,8.19,3.85,12.51,.41,2.16,.78,4.34,1.13,6.52,.21,.64,.41,1.28,.61,1.93,.95,3.17,1.7,6.42,1.93,9.73,.05,.76,.14,1.66,.17,2.55,.34,.22,.62,.56,.78,1.03,1.65,4.73,1.89,9.8,2.41,14.75,.31,3,.97,6.01,1.11,9.02,1.1,.58,2.28,.97,3.52,1.1,3.6,.36,7.48-1.79,8.56-5.25-.6,5.06-1.18,10.35,.62,15.11,1.43,3.76,4.23,6.85,7.29,9.47,1.3,1.11,2.75,2.19,4.44,2.39,.46,.05,.96,.05,1.34,.31,.19,.13,.33,.3,.45,.5h44.93v-4.15s-.1,.02-.14,.03c-.28,.05-.56,.08-.83,.1Z"/>
    <path class="cls-7" d="M42.9,495.89c3.08-2.27,4.22-6.99,5.19-10.53,1.2-4.4,1.67-9,1.35-13.55,.1,1.4,2.26,2.61,4.12,3.41,.44-3.05,.95-6.1,1.44-9.12,1.49-9.3,5.48-17.92,7.72-27.03,2.01-8.14,3.02-16.85,7.71-24.03,.14-.21,.3-.37,.47-.51,.74-1.94,1.56-3.85,2.4-5.74,6.56-14.84,12.54-30.18,22.35-43.26,.03-.04,.07-.08,.11-.12-.34-.4-.76-.68-1.3-.72-1.7-.12-2.76,1.15-4.54-.1-1.05-.74-1.81-2.04-3.08-2.22-.06,2.05,.15,4.06,.23,6.08,.05,1.15,.06,2.31-.04,3.49-.29,3.44-1.34,7.1-3.14,10.05-.48,.8-1.06,1.57-1.85,2.06-1.53,.93-3.58,.55-5.06-.46s-2.52-2.53-3.51-4.02c.69,6.65,.81,13.35,.37,20.02-.51,7.63-3.76,16.59-12.78,16.96-4.87,.2-9.8-3.24-10.83-8.01,1.42,8.51,1.7,17.1,1.06,25.67-.34,4.62-.59,14.55-5.94,16.43-1.32,.46-2.78,.34-4.16,.09-3-.54-5.9-1.64-8.5-3.23-.21,4.24,1.17,7.89,1.47,12.05,.31,4.24-.15,8.53-1.39,12.6-1.18,3.89-2.27,7.91-6.64,9.25-2.23,.68-3.65-.29-5.09-1.81-.31-.33-3.63-3.83-3.64-3.8-1.84,7.34-7.26,13.69-14.23,16.64-1.08,.46-2.19,.96-3.16,1.64v5.94H33.36c.82-1.02,1.53-2.12,1.94-3.42,2.3,1.41,5.42,.92,7.6-.69Z"/>
  </g>
  <g>
    <path class="cls-1" d="M2.13,493.61c1.3-.23,2.47-.92,3.6-1.6,3.34-2.01,6.87-4.22,8.53-7.76,.74-1.58,1.02-3.3,1.3-5.01,.15-.91,.16-4.16,.91-4.72,.97-.73,4.27,3.99,5.44,4.92,.83,.67,1.69,1.35,2.72,1.66,1.51,.45,3.17-.02,4.46-.92,1.82-1.28,2.95-3.37,3.51-5.52,.56-2.16,.61-4.41,.66-6.63,.11-4.95-.11-9.77-.11-14.69-.01-1.2-.14-2.26-.27-3.42-.04-.38,.04-3.24-.02-3.31,1.93,2.24,4.44,3.97,7.21,4.97,5.47,1.98,8.77-2.48,9.28-7.29,.36-3.36,1.49-6.64,1.85-10.04,.39-3.69,.4-7.42,.03-11.11-.36-3.55-1.08-7.06-1.35-10.61-.06-.79-.61-3.81,.33-3.97,.86-.15,1.91,2.02,2.31,2.51,2.27,2.82,5.14,5.8,8.99,6,3.38,.17,6.23-.42,7.95-3.44,3.09-5.42,4.22-12.8,4.41-18.98,.21-6.9-1.11-13.77-2.95-20.4,.58,2.07,1.16,4.17,2.27,6.01,1.11,1.84,2.83,3.42,4.93,3.87,4.58,.98,7.58-4.2,8.58-7.88,.62-2.27,.79-4.65,.79-7,0-1.03,.38-6.14-.4-6.75,.57,.45,1.22,.83,1.94,1.13,4.19,1.7,7.36,.23,8.58-4.27,.41-1.52,.43-3.14,1.06-4.58,.49-1.12,1.31-2.06,2.13-2.98,2.54-2.88,5.32-5.9,9.04-6.85,.56-.14,1.18-.26,1.59-.67,1.24-1.26-.52-3.55-1.73-4.15-1.98-.98-1.93,.87-2.37,2.24-.59,1.86-1.56,3.25-3.69,3.33h-.07c-3.31,.09-4.36-1.49-5.62-4.08-.77-1.59-1.78-3.9-3.92-2.67-.62,.35-.99,1-1.35,1.62-2.77,4.81-7.04,8.93-13.04,7.15-2.15-.64-3.94-1.92-5.54-3.46-1.42-1.37-3.35-2.37-4.59-3.91-1-1.24-1.31-2.9-2.39-4.18,.07,.08-.35,4.07-.26,4.66,.23,1.46,.32,2.58,.31,4.03-.03,3.62,.51,7.11-.51,10.68-1.05,3.7-3.83,7.16-7.61,7.86-4.16,.78-8.11-1.84-11.53-4.33-1.11-.81-2.22-1.61-3.33-2.42,1.71,1.24,2.39,7.8,2.6,9.79,.22,2.13,.22,4.35,.11,6.49-.2,4.2-1.07,9.55-5.39,11.48-2.74,1.23-8.13,.6-10.55-1.15-.95-.69-1.48-1.73-2.34-2.45-.27-.23-.31-.81-.74-.89-1.55-.27-.68,3.04-.53,3.82,.62,3.05,2.02,5.9,2.64,9.03,.69,3.52,1.04,7.11,1.04,10.7,0,5.11-1.14,9.81-1.88,14.81-.56,3.76-1.85,5.7-5.19,7.95-.71,.48-1.46,.91-2.3,1.08-.9,.18-1.84,.05-2.73-.18-2.81-.73-4.29-2.48-6.42-4.22-3.11-2.55-1.48,3.16-1.22,5.2,.34,2.61,.88,5.18,1.33,7.77,.68,3.94,.7,7.93,1.23,11.87,.5,3.73-.06,7.67-1.99,10.94-2.42,4.09-7.15,6.88-11.88,6.45v28.51c.71,.1,1.42,.13,2.13,0Z"/>
    <path class="cls-1" d="M487.11,462.16c-3-3.33-4.7-8.05-5.1-12.47-.43-4.69,.3-9.4,1.02-14.05,.84-5.44,1.68-10.87,2.53-16.31-2.41,2.01-4.84,4.84-7.44,6.52-2.25,1.45-5.58,.49-7.7-.87-5.78-3.7-7.07-10.85-6.87-17.12,.33-10.63,2.4-21.2,6.09-31.17-.27,.72-3,2.4-3.66,3.01-1.46,1.37-2.92,2.73-4.63,3.78-2.74,1.69-6.35,2.48-9.18,.94-2.64-1.44-3.95-4.49-4.74-7.4-.92-3.36-1.01-5.97-.62-9.35,.26-2.29,.55-9.08,2.42-10.64-2.33,1.93-4.7,3.89-7.47,5.11-2.8,1.23-5.95,1.65-8.98,1.19-1.97-.3-3.92-.98-5.47-2.22-2.32-1.86-2.66-4.09-2.85-6.83-.19-2.76-1.32-5.44-1.22-8.23,.08-2.34,.07-8.39,1.6-10.24-1.94,2.34-4.03,4.54-6.26,6.6-2.5,2.31-5.25,4.48-8.5,5.47-3.21,.98-7.33,.73-9.53-1.99-.8-.99-7.28-9.38-6.92-10.08-.58,1.13-1.16,2.26-1.74,3.4-.76,1.49-1.54,3-2.73,4.17-1.87,1.83-4.68,2.59-6.58,.61-1.17-1.23-2.1-4.28-4.11-4.37-2.05-.1-3.68,3.53-3.96,5.11,5.24,1.58,8.6,6.54,11.53,11.17,.25,.39,.5,.8,.54,1.26,.15,1.51-.23,1.64,1.05,2.89,1.03,1.01,2.33,1.69,3.34,2.74,1.67,1.75,1.66,3.81,4.33,3.82,2.33,0,4.39-1.32,5.18-3.52,.02,4.87,.03,9.74,.05,14.6,.02,4.72,3.54,6.41,7.77,7.5,4.38,1.14,8.53-4.67,9.45-8.5-2.58,10.67-3.63,22-.69,32.58,.51,1.84,1.19,3.73,2.57,5.05,1.17,1.12,2.74,1.71,4.26,2.28,4.08,1.52,7.31,.92,11.04-1.25,2.34-1.36,3.92-3.33,5.79-5.19,.61,2.26-.87,6.22-1.15,8.63-.35,2.99-.57,5.99-.7,8.99-.25,5.66-.56,11.95,1.98,17.17,1.59,3.27,4.29,6.28,7.84,7.43,5.08,1.64,8.19-2.67,11.71-5.67-2.81,2.4-1.75,8.47-1.96,11.73-.42,6.42,.75,12.6,2.74,18.7,.92,2.81,3.81,5.5,6.96,5.37,3.54-.14,6.47-4.46,8.29-7.06,2.42,7.67,7.74,14.24,14.99,17.86,2.77,1.39,6.19,2.45,8.57,1.4v-31.87c-1.29,.26-2.4,1.55-3.67,1.97-3.19,1.05-7-.19-9.21-2.65Z"/>
  </g>
  <g>
    <path class="cls-5" d="M486.24,482.94c-3.16-3.72-4.03-8.46-4.53-13.2,.21-1.85-.35-4.12-.67-5.96-.03-.17-.08-.36-.23-.46-.15-.09-.34-.05-.5,0-1.97,.64-3.16,2.59-4.18,4.4-1.73,3.09-2.98,7.66-6.92,8.28-2.21,.35-4.51-.54-5.55-2.6-1.66-3.3-.88-7.04-.96-10.58-.09-4.04,.02-8.09,.3-12.12,.4-3.6,.99-7.17,1.8-10.7,.12-.52-.02-.95-.28-1.27,.54-1.73-2.26-2.45-2.92-.7-1.67,4.41-6.46,10.62-11.93,9.01-2.55-.75-3.92-3.46-4.84-5.96-1.09-2.98-1.34-5.52-1.73-8.59-.01-.92-.02-1.84-.02-2.75,0-4.82,.21-9.65,.59-14.46,.04-.5,.09-1.01,.14-1.51,.81-3.76,1.5-7.55,2.04-11.36,.41-1.91,.71-3.83,.71-5.72,.2-1.91,2.02-9.75-1.62-8.41-2.37,.87-3.68,5.64-4.39,7.72-1.51,4.38-2.8,9.62-6.98,12.17-3.38,2.06-7.66,2.03-10.11-1.4-2.62-3.66-3.49-8.21-3.52-12.63-.07-9.67,3.03-19.27,1.64-29.03-.07-.47-.38-.99-.86-1-.18,0-.36,.07-.52,.16-2.87,1.49-4.29,7.76-4.95,10.69-.68,3-2.38,6.12-5.83,6.34-9.96,.65-3.91-25.17-2.95-28.84,.41-1.57-1.56-2.38-2.49-1.49-.61-.02-1.24,.29-1.47,1.04-.58,1.84-1.15,3.68-1.73,5.51-.48,1.51-1.09,2.9-2.35,3.92-1.69,1.36-4.02,1.4-5.73,.22-1.95-1.35-3.83-3.3-4.64-5.56-.34,1.26-.18,2.32,.24,3.29l-.12-.13c.61,2.06,2.06,4.11,3.57,5.3,.94,1.21,2.16,2.22,3.64,2.23l-1.14-1.19c1.85,.21,3.97-.41,5.37-1.34,.77-.51,1.41-1.13,1.97-1.82-.05,.46-.1,.93-.14,1.39-.65,5.29-.48,10.71,1.43,15.69,1.1,2.87,2.9,6.95,6.59,6.7,3.5-.23,5.86-3.6,7.1-6.54,.36-.86,.68-1.75,.97-2.64,.04,0,.09-.02,.13-.03-1.02,8.87-2.21,17.71-.68,26.62,.05,.29,.17,.51,.32,.68,.22,1.02,.48,2.04,.8,3.04,.72,2.25,1.6,4.67,3.26,6.4,1.2,1.26,2.82,2.02,4.52,2.27,0,.11,.01,.22,.04,.32,.24,.87,1.04,1.16,1.85,1.05,6.04-.83,11.26-4.99,13.74-10.48-.04,.32-.07,.63-.1,.95-.4,1.7-.76,3.41-1.02,5.14-.93,6.16-1.03,12.37-.37,18.54-.42,.27-.73,.73-.68,1.24,.02,.25,.06,.49,.09,.73-.07,.23-.09,.5-.02,.79,.24,1.02,.52,2.03,.82,3.03,.04,.15,.08,.29,.12,.44,.27,2.89,.85,5.75,2.12,8.22,.1,.19,.21,.36,.32,.54-.01,.17,0,.36,.07,.56,1.1,3.36,4.83,4.75,8.1,4.68,3.33-.08,6.63-1.55,8.81-4.09,.18-.21,.29-.45,.35-.7-.36,2.71-.64,5.43-.85,8.16-.37,4.95-.68,10.04-.27,15.01,.35,4.22,1.42,8.96,4.99,11.66,3.36,2.54,7.67,2.1,10.52-.95,1.31-1.4,2.33-3.06,3.15-4.83,.95,5.14,3.82,9.8,8.25,12.82,.76,.52,1.57,1.01,2.4,1.46,2.25,1.55,4.83,2.68,7.46,3.05,.07,.02,.13,.04,.2,.06,1.33,.38,2.71,.53,4.03,.39v-4.43c-5.29,0-10.32-2.46-13.76-6.49Z"/>
    <path class="cls-5" d="M463.16,499.77c-.05-.07-.12-.19-.14-.21-.08-.13-.15-.27-.22-.4v-.03l-.03-.04c-.05-.15-.1-.29-.14-.44-.03-.11-.06-.22-.08-.34-.02-.08-.03-.15-.04-.23-.03-.17-.02-.15,0,.05-.1-.24-.04-.69-.04-.95,0-.31,.03-.62,.07-.93,.01-.08,.05-.34,.06-.38,.02-.14,.05-.28,.08-.42,.05-.28,.12-.55,.18-.83,1-1.45-1.01-3.38-2.23-1.97-.04,.05-.08,.08-.12,.13-.1,.07-.18,.16-.25,.26-2.21,2.11-5.54,1.71-8.02,.14-.5-.32-.98-.68-1.44-1.07-1.65-1.93-2.96-4.23-4-6.5-1.31-2.85-2.18-5.96-2.57-9.06,0-4.77,.99-9.6,.74-14.45-.08-1.5-1.97-2.03-2.8-.76-.17,.27-.33,.54-.49,.82-.16,.16-.29,.36-.38,.62-1.21,2.07-2.22,4.25-3.03,6.53-.07,.2-.09,.4-.07,.58-.52,.64-1.14,1.2-1.85,1.66-.94,.61-2,1.04-3.11,1.18-1.44,.18-2.57-.25-3.62-1.23-.04-.04-.07-.07-.11-.11,.13,1.29,.3,2.58,.47,3.87,.68,.28,1.4,.47,2.19,.51,2.47,.11,4.89-.91,6.79-2.43,.78-.63,1.48-1.38,2.06-2.21v.1c-.07,1.48-.03,2.96,.11,4.44,0,.21-.02,.42-.02,.63-.03,3.14,.5,6.24,1.61,9.14-.05,.14-.08,.29-.07,.45,.09,1.87,.66,3.64,1.75,5.17,1.04,1.46,2.21,2.88,3.48,4.14,2.6,2.59,6.01,4.34,9.75,3.73-.02,.35-.02,.7,0,1.06h5.71l-.02-.02s-.13-.15-.18-.21Z"/>
  </g>
  <g>
    <path class="cls-5" d="M13.05,484.87c1.58-2.43,2.4-5.28,3.03-8.08,.32-1.44,.6-2.89,.92-4.33,0-.03,.02-.09,.03-.16,.24,2.36,1.45,4.62,3.43,6.01,3.12,2.19,7.38,1.73,10.23-.66,.86-.72,.5-1.73-.24-2.21,.75-1.92,1.24-3.94,1.6-5.96,.81-4.66,.93-9.42,1.06-14.13,.06-2.38,.04-4.78-.18-7.15,.12,0,.24-.01,.34-.05,.16-.05,.31-.13,.46-.22,1.5,.63,3.08,1.05,4.71,1.21,.71,.39,1.45,.73,2.25,.98,2.27,.71,4.84,.63,6.12-1.67,.27-.48,.51-.96,.76-1.45,.43-.12,.81-.42,1.01-.94,.47-1.22,.85-2.46,1.16-3.71,.22-.47,.43-.95,.65-1.42,.24-.51,.21-1.07-.06-1.52,.11-.69,.21-1.38,.28-2.08,.51-4.84,1.38-9.41,1.47-14.33,.08-4.55-.95-9.15-1.32-13.72,2.97,3.16,4.82,6.05,9.5,6.74,3.83,.57,7.7-.81,9.92-4.07,1.9-2.78,2.56-6.22,2.93-9.56,.68-6.17-.44-11.63-.69-17.7-.08-2.01-.19-4.03-.26-6.05,.07,.14,.14,.28,.22,.42,.11,.18,.24,.34,.35,.51,.03,.18,.09,.36,.21,.51,.69,.89,1.56,1.59,2.58,2,1.6,.94,3.45,1.54,5.21,2.03,.67,.19,1.32-.14,1.69-.69,3.02-4.49,4.56-9.7,5.26-15.03,.23-1.8,.37-3.61,.44-5.43-.09,2.38,3.92,2.3,5.16,1.68,2.99-1.5,4.98-5.27,5.91-8.37,.53-1.77,1.38-3.38,2.33-4.96,.54-.9,2.87-3.56,2.49-4.64-.42-1.16-1.65-.6-2.68-.96-.98-.33-2.17-2.05-3.29-.64-.27,.34-.44,1.12-.56,2.16-.6,5-.25,16.11-5.65,13.88-2.38-.99-2.57-5.11-3.26-7.24-.24-.74-.52-1.51-1.12-2-3.66-3.04-3.08,8.21-3.08,9.54,0,1.42,.83,16.39-2.07,16.39-.87,1.01-2.21,1.6-3.54,1.54-4.99-.2-4.86-5.65-5.13-9.28-.1-1.44-.96-7.78-3.45-6.2-1.77,1.12-1.06,8.47-1.05,10.39,.04,7.34,.85,14.69,.24,22.03-.22,2.63-.67,5.24-1.42,7.77-.63,2.12-1.44,4.58-3.31,5.93-3.65,2.63-8.53,.28-10.64-3.14-1.31-2.12-1.78-4.45-2.12-6.88-.3-2.2-1-4.24-3.22-5.08-.99-.37-1.77,.54-1.89,1.4-1.9,3.24-1.56,7.52-1.35,11.12,.26,4.42,.94,8.81,1.52,13.2,.71,5.38,1.26,10.91,.69,16.3-.34,1.33-.73,2.65-1.21,3.94-.55,1.49-1.22,4.05-2.79,4.79-1.22,.57-2.79,.69-4.25,.59-2.83-1.75-4.76-4.79-6.51-7.53-.09-.13-.18-.24-.29-.33-.4-1.24-.88-2.45-1.43-3.63-.46-.98-2.13-.98-2.59,0-.83,1.77-.55,3.68-.11,5.57,.13,2.8,.63,5.6,.8,8.38,.26,4.15,.19,8.32-.08,12.48-.13,2.04-.32,4.07-.54,6.1-.17,1.57-.32,3.24-.98,4.7-.73,1.63-2.25,2.47-3.75,2.38-.3-.31-.54-.67-.78-1.06-1-1.69-1.9-3.44-2.85-5.16-.17-.3-.39-.5-.64-.61-.03-.11-.07-.22-.1-.33-.15-.6-.81-1.15-1.45-1.1-.03,0-.06,.01-.1,.01-3.47-.42-4.78,3.57-5.51,6.3-.9,3.36-1.34,6.95-3.23,9.95-2.06,3.26-5.5,5.61-9.27,6.51v3.2c5.15-.47,10.16-2.72,13.05-7.18Z"/>
    <path class="cls-5" d="M35,495.16c.56,.69,1.24,1.26,2.11,1.5,3.92,1.11,7.29-3.44,8.79-6.42,3.21-6.4,2.62-13.54,3.36-20.44,.23,1.11,.54,2.19,1.17,3.16,.9,1.38,2.23,2.29,3.75,2.88,.12-1.02,.26-2.04,.47-3.05-.04-.02-.08-.04-.11-.06-1.17-.62-1.83-1.58-2.2-2.83-.71-2.42-.69-5-2.14-7.16-.71-1.05-2.37-.93-2.74,.36-2.11,7.31-.79,15.09-2.91,22.38-.82,2.83-2.36,6.39-5.07,7.92-.67,.38-1.4,.65-2.01,.04-.62-.63-1.05-1.65-1.42-2.44-.81-1.73-1.34-3.62-1.56-5.52-.23-1.92-2.78-1.93-3,0-.01,.09-.01,.18-.02,.26-.36,.23-.62,.63-.62,1.19,0,4.39-.28,9.14-2.24,13.07h6.15c.16-.65,.27-1.32,.32-1.98,.07-.96,.03-1.91-.07-2.87Z"/>
  </g>
  <g>
    <g>
      <path class="cls-2" d="M2.28,463.7c1.54,.29,3.23-.05,4.56-.82,2.11-1.23,3.37-3.38,4.29-5.57,.06-.14,.08-.3,.07-.45,.69-1.93,.99-4.09,1.22-6.14,.5-4.42,.31-8.83-.13-13.23-.03-.39-.07-.79-.1-1.18-.38-4.4-.96-8.78-1.71-13.13-.1-.86-.19-1.71-.27-2.57-.18-1.91-3.18-1.92-3,0,.07,.75,.16,1.5,.24,2.25,0,.13,0,.26,.02,.4,.02,.13,.04,.25,.06,.38,.7,5.92,1.71,11.81,2.05,17.76,.1,1.98,.11,3.95-.06,5.91-.29,3.28-1.38,6.63-3.86,8.9-1.6,1.47-3.59,2.02-5.65,2.2v5.32c.71,.13,1.48,.1,2.28-.03Z"/>
      <path class="cls-2" d="M27.02,386.73c-.41-2.11-.91-4.21-1.46-6.29,.1-.09,.19-.2,.26-.32l.15-.36c.07-.27,.07-.53,0-.8l-.37-1.69c-.05-.2-.14-.37-.27-.51-.11-.16-.25-.29-.42-.39-.17-.11-.36-.17-.56-.18-.2-.04-.4-.04-.6,.03-.36,.12-.71,.34-.9,.69l-.15,.36c-.07,.27-.07,.53,0,.8l.05,.25c-.33,.24-.55,.63-.49,1.16,.29,2.76,1.03,5.38,1.88,7.98,1.49,7.26,2.23,14.77,1.65,22.07-.19,2.35-.59,4.7-1.32,6.94-.05,.16-.11,.32-.17,.47,0,.01-.01,.02-.02,.03-.47,.81-.96,1.64-1.53,2.25-.62,.67-1.2,1.05-2.14,1.12-1.04,.08-2.07-.15-3.07-.37-.28-.06-.57-.13-.85-.22-1.46-1.36-2.72-3.03-3.7-4.38-.71-.97-1.99-.74-2.57-.05-.99-.02-2.01,1.07-1.44,2.27,.26,.54,.57,1.06,.9,1.58,.8,1.34,1.67,2.63,2.63,3.86,1.25,1.61,2.63,3.55,4.58,4.34,1.27,.51,2.43,.5,3.49,.16,.45,.07,.9-.05,1.28-.38,.35-.31,.69-.64,1.03-.97,.54-.47,1.03-1.01,1.48-1.58,.02-.01,.04-.02,.05-.03,1.59-1,2.39-2.81,3.06-4.48,3.26-8.14,3.86-17.35,1.86-25.87-.59-2.53-1.51-4.99-2.33-7.47Z"/>
      <path class="cls-2" d="M45.58,371.39c.09-1.12,.1-2.25,.03-3.36-.37-6.48-2.55-12.79-6.27-18.11-1.01-1.44-3-.52-2.74,1.16,1.06,6.85,5.41,13.16,6,20.08-.15,2.24-.68,4.48-1.83,6.31-1.07,.65-2.36,.97-3.65,.93-2.25-.07-4.35-1.16-6.17-2.48-.89-.94-1.67-1.98-2.25-3.16-.86-1.73-3.44-.21-2.59,1.51,.27,.55,.59,1.07,.93,1.57-.03,.38,.08,.76,.34,1.04,.02,.2,.08,.4,.19,.58,1.45,2.34,2.83,4.77,5.1,6.42,2.19,1.6,5.15,2.12,7.62,.87,.59-.3,.83-1.03,.69-1.65,.23-.14,.46-.28,.68-.45,1.93-1.47,3.04-3.44,3.59-5.63,.03-.05,.06-.1,.09-.15,.16-.33,.2-.68,.15-1.02,.23-1.44,.25-2.95,.12-4.46Z"/>
      <path class="cls-2" d="M66.22,342.56c-.21-3.73-.79-7.45-1.71-11.07-.41-1.62-3.02-1.31-2.95,.4,.15,3.62,.95,7.13,1.64,10.66,.09,1.52,.13,3.04,.09,4.57-.1,4.05-.56,8.71-3.85,11.52-3.2,2.74-7.17,1.42-9.89-1.3-3.1-3.1-4.58-7.46-7.17-10.95-1.14-1.53-3.75-.04-2.59,1.51,4.21,5.65,6.93,15.02,15.41,15.31,1.71,.06,3.31-.44,4.73-1.28,.38,.33,.91,.51,1.37,.32,4.76-1.99,6.08-7.3,5.94-12.03-.08-2.59-.52-5.13-1.01-7.67Z"/>
      <path class="cls-2" d="M92.3,329.87c-.79,.08-1.24,.74-1.34,1.48-.39,3-1.2,6.11-2.57,8.82-1.28,2.51-3.33,4.16-6.27,3.71-2.65-.4-4.81-2.33-6.45-4.33-1.83-2.24-3.09-4.89-3.8-7.69-.12-.48-.41-.78-.76-.93-.12-.56-.23-1.12-.31-1.68-.05-.35-.4-.73-.69-.9-.32-.19-.8-.27-1.16-.15-.36,.12-.71,.34-.9,.69-.06,.11-.1,.21-.12,.32-.97-1.28-3.21,.16-2.42,1.79,3.44,7.08,8.23,15.63,17.12,16.14,3.43,.19,7.06-1.21,9.19-3.95,2.67-3.43,1.92-7.83,2.93-11.79,.4-1.55-1.51-2.36-2.46-1.53Z"/>
      <path class="cls-2" d="M108.11,337.67c-.73-.2-1.69,.25-1.85,1.05-.42,2.19-2.58,3.32-4.51,2.42,.06-.23,.07-.48-.03-.72-.52-1.31-.95-2.65-1.29-4.02-.16-.66-.31-1.32-.43-1.99-.07-.36-.13-.72-.18-1.08,0,0-.03-.24-.04-.29-.02-.19-.05-.37-.07-.56-.09-.78-.63-1.54-1.5-1.5-.37,.02-.77,.19-1.07,.45-.27-.09-.57-.11-.86-.03-.79,.22-1.26,1.06-1.05,1.85,.55,2.05,1.04,4.14,1.68,6.16,.6,1.91,1.68,3.61,3.56,4.45,1.79,.8,3.78,.81,5.53-.11,1.59-.85,2.82-2.47,3.16-4.24,.15-.79-.22-1.62-1.05-1.85Z"/>
    </g>
    <g>
      <path class="cls-2" d="M391.45,339.78c.99-1.94,1.71-4.01,2.11-6.15,.15-.8-.22-1.62-1.05-1.85-.73-.2-1.69,.25-1.85,1.05-.3,1.61-.77,3.21-1.45,4.7-.62,1.35-1.32,2.65-2.34,3.61-.35,.34-.9,.72-1.29,.82-.66,.17-.83,.19-1.52,0-.07-.02-.1-.02-.11-.02-.01,0-.04-.03-.1-.06-.14-.07-.27-.15-.4-.23-.13-.07-.3-.24-.52-.47-.21-.21,0,.05-.15-.18-.08-.13-.16-.26-.24-.4-.03-.05-.03-.07-.04-.09-.02-.06-.04-.13-.06-.19-.02-.06-.11-.53-.08-.28-.09-.8-.62-1.5-1.5-1.5-.74,0-1.59,.69-1.5,1.5,.22,1.93,1.33,3.65,3.12,4.5,1.77,.84,3.8,.7,5.43-.4,1.58-1.07,2.68-2.67,3.53-4.35Z"/>
      <path class="cls-2" d="M408.71,347.6c4.06-.75,7.43-3.94,10.19-6.81,2.93-3.04,5.46-6.47,7.53-10.16,.95-1.69-1.64-3.2-2.59-1.51-1.74,3.1-3.79,6-6.19,8.62-2.28,2.5-4.96,5.33-8.19,6.54-7.37,2.77-11.52-7.46-12.13-13.09-.21-1.9-3.21-1.92-3,0,.77,7.08,5.49,18.07,14.38,16.41Z"/>
      <path class="cls-2" d="M426.55,358.29c5.17,6.47,14.9,4.92,20.45-.09,3.48-3.14,5.69-7.39,7.33-11.71,.69-1.81-2.21-2.59-2.89-.8-2.35,6.2-6.61,12.87-13.76,13.81-3.09,.4-6.36-.38-8.51-2.74-2.48-2.72-2.94-6.65-2.6-10.17,.46-4.71,2.1-9.43,3.64-13.88,.63-1.83-2.27-2.62-2.89-.8-2.75,7.98-6.76,18.88-.77,26.38Z"/>
      <path class="cls-2" d="M454.05,349.88c-4.41,6.56-7.01,14.53-6.99,22.46,0,3.68,.87,7.66,3.76,10.18,2.97,2.6,6.66,2.73,10.02,.76,3.72-2.18,6.83-5.4,9.18-8.99,1.06-1.62-1.54-3.13-2.59-1.51-2.18,3.34-5.35,6.78-9.06,8.43-4.05,1.8-7.21-1.83-8-5.51-.86-4.03-.11-8.59,.92-12.53,1.11-4.21,2.93-8.17,5.36-11.78,1.08-1.61-1.52-3.11-2.59-1.51Z"/>
      <path class="cls-2" d="M469.49,378.8c-2.76,9.6-5.46,19.43-5.44,29.49,.01,4.37,.3,9.29,2.83,13.02,2.24,3.3,6.41,5.6,10.42,4.25,2.22-.75,4.01-2.33,5.52-4.07,1.59-1.82,3.22-3.78,3.82-6.17,.47-1.87-2.42-2.67-2.89-.8-.46,1.82-1.72,3.3-2.92,4.7-1.11,1.3-2.38,2.64-3.99,3.32-3.5,1.48-6.89-1.3-8.28-4.36-1.6-3.52-1.59-7.78-1.49-11.56,.12-4.33,.74-8.61,1.63-12.84,1-4.78,2.33-9.49,3.67-14.19,.53-1.86-2.36-2.65-2.89-.8Z"/>
      <path class="cls-2" d="M498,458.49c-1.54,1.07-3.25,2.35-5.18,2.54-1.75,.17-3.37-.82-4.42-2.16-2.44-3.11-2.39-7.94-2.29-11.68,.12-4.49,.82-8.94,1.44-13.38,.63-4.52,1.27-9.05,1.9-13.57,.11-.81-.2-1.6-1.05-1.85-.7-.2-1.73,.25-1.85,1.05-1.12,8.02-2.53,16.06-3.23,24.12-.54,6.25-1.03,16.24,5.66,19.63,.67,.34,1.34,.56,2,.68,.04,.88,.66,1.42,1.5,1.5,2.77,.27,5.5-.79,7.51-2.65v-3.89s-.09,0-.14,0c-.4-.57-1.12-.86-1.86-.35Z"/>
    </g>
  </g>
  <g>
    <path class="cls-5" d="M408.5,327.96c-.74,3.44-1.15,6.94-1.21,10.46-.02,1.29,1.98,1.29,2,0,.06-3.34,.44-6.66,1.14-9.92,.27-1.26-1.66-1.79-1.93-.53Z"/>
    <path class="cls-5" d="M386.8,334.77c-.04-.23-.27-.48-.46-.6-.21-.13-.53-.18-.77-.1-.24,.08-.48,.23-.6,.46-.13,.24-.14,.48-.1,.75v-.09c.05,.49,.05,.98,0,1.46-.05,.32-.11,.64-.21,.95-.16,.5,.19,1.11,.7,1.23,.55,.12,1.06-.16,1.23-.7,.35-1.1,.39-2.24,.21-3.37Z"/>
    <path class="cls-5" d="M441.24,335.62c-3.52,3.13-5.91,7.48-6.65,12.13-.08,.53,.14,1.08,.7,1.23,.48,.13,1.15-.16,1.23-.7,.69-4.35,2.84-8.32,6.14-11.25,.96-.86-.45-2.27-1.41-1.41Z"/>
    <path class="cls-5" d="M463.3,360.51c-.41-.41-1-.35-1.41,0-3.14,2.6-5.52,6.02-6.94,9.84-.19,.51,.21,1.1,.7,1.23,.56,.15,1.04-.19,1.23-.7,1.3-3.5,3.55-6.58,6.42-8.96,.42-.34,.36-1.06,0-1.41Z"/>
    <path class="cls-5" d="M477.87,397.48c-2.6,4.83-4.36,10.07-5.17,15.49-.08,.54,.13,1.07,.7,1.23,.47,.14,1.15-.16,1.23-.7,.78-5.26,2.44-10.33,4.97-15.01,.61-1.13-1.12-2.14-1.73-1.01Z"/>
    <path class="cls-5" d="M495.49,436.91c-1.79,3.16-3,6.64-3.52,10.24-.08,.53,.13,1.07,.7,1.23,.47,.13,1.15-.16,1.23-.7,.5-3.44,1.61-6.74,3.32-9.76,.64-1.12-1.09-2.13-1.73-1.01Z"/>
    <path class="cls-5" d="M394.22,348.31c-.08-.53-.75-.83-1.23-.7-.57,.16-.78,.69-.7,1.23,.47,3.04,.07,6.26-1.14,9.1-.21,.5-.15,1.07,.36,1.37,.42,.25,1.16,.14,1.37-.36,1.44-3.38,1.9-7.01,1.34-10.64Z"/>
    <path class="cls-5" d="M414.74,352.21c-3.23,5.43-4.7,11.81-4.13,18.11,.12,1.27,2.12,1.28,2,0-.54-5.97,.79-11.95,3.85-17.1,.66-1.11-1.07-2.12-1.73-1.01Z"/>
    <path class="cls-5" d="M433.42,374.86c-.26-1.26-2.19-.73-1.93,.53,1.26,6.1,.14,12.51-3.06,17.84-.66,1.11,1.07,2.11,1.73,1.01,3.48-5.8,4.63-12.76,3.26-19.38Z"/>
    <path class="cls-5" d="M457.29,402.81c-3.5,3.74-5.64,8.59-5.93,13.72-.31,5.65,1.92,11.99-1.46,17.1-.71,1.08,1.02,2.08,1.73,1.01,3.14-4.74,1.91-10.43,1.72-15.74-.2-5.45,1.6-10.66,5.35-14.67,.88-.94-.53-2.36-1.41-1.41Z"/>
    <path class="cls-5" d="M471.68,446.27c-.12,3.49-.18,6.99-.38,10.48-.18,3.13-.63,6.29-2.22,9.04-.64,1.12,1.08,2.12,1.73,1.01,1.65-2.86,2.22-6.11,2.45-9.37,.26-3.71,.29-7.44,.42-11.16,.04-1.29-1.96-1.29-2,0Z"/>
    <path class="cls-5" d="M493.8,473.69c-.12-.51-.73-.86-1.23-.7-.53,.17-.83,.68-.7,1.23,.05,.23,.1,.46,.15,.69,.02,.1,.04,.2,.05,.3,0,0,.02,.11,.02,.16,.05,.42,.08,.85,.09,1.27,0,.43,0,.87-.04,1.3,0,.1-.02,.2-.03,.3,0,0-.02,.14-.02,.18-.03,.22-.07,.43-.11,.65-.1,.51,.15,1.1,.7,1.23,.5,.11,1.12-.15,1.23-.7,.39-1.96,.36-3.96-.1-5.91Z"/>
    <path class="cls-5" d="M432.31,438.09c-.3,3.86-.59,7.72-.89,11.57-.1,1.28,1.9,1.28,2,0,.3-3.86,.59-7.72,.89-11.57,.1-1.28-1.9-1.28-2,0Z"/>
    <path class="cls-5" d="M453.75,484.41c-1.5-4.56-1.85-9.44-.94-14.16,.24-1.26-1.69-1.8-1.93-.53-.98,5.07-.67,10.31,.94,15.22,.4,1.22,2.33,.7,1.93-.53Z"/>
    <path class="cls-5" d="M477.21,490.9c-.11-.51-.74-.86-1.23-.7-.54,.18-.81,.68-.7,1.23,.02,.11,.05,.23,.07,.34,0,.02,.01,.09,.02,.13,.02,.18,.04,.37,.05,.55,.02,.38,.02,.75-.01,1.13,0,.09-.01,.17-.02,.26,0,.04,0,.08-.01,.12h0c-.03,.19-.06,.38-.1,.56-.09,.4-.2,.79-.35,1.17-.18,.49,.2,1.12,.7,1.23,.57,.13,1.03-.17,1.23-.7,.63-1.7,.73-3.56,.36-5.33Z"/>
  </g>
  <g>
    <path class="cls-5" d="M55.85,350.32c-1.95-4.47-3.11-9.28-3.43-14.15-.08-1.28-2.09-1.29-2,0,.35,5.24,1.6,10.34,3.7,15.16,.51,1.18,2.24,.16,1.73-1.01Z"/>
    <path class="cls-5" d="M82.57,327.57c-.5-.14-1.12,.17-1.23,.7-.63,2.97-.77,6.02-.37,9.03,.07,.54,.41,1,1,1,.48,0,1.07-.46,1-1-.38-2.83-.3-5.71,.29-8.5,.11-.53-.16-1.08-.7-1.23Z"/>
    <path class="cls-5" d="M36.86,369.55c-1.99-2.83-3.38-6-4.11-9.38-.27-1.26-2.2-.73-1.93,.53,.76,3.53,2.24,6.9,4.31,9.85,.31,.44,.87,.65,1.37,.36,.44-.26,.67-.92,.36-1.37Z"/>
    <path class="cls-5" d="M22.14,408.15c-.52-1.94-1.33-3.81-2.41-5.49-.92-1.42-2.23-2.89-2.13-4.69,.07-1.29-1.93-1.28-2,0-.11,2.01,1.06,3.68,2.12,5.27,1.12,1.68,1.97,3.48,2.49,5.44,.33,1.24,2.26,.72,1.93-.53Z"/>
    <path class="cls-5" d="M5.3,442.26c-1.09-2.04-2.55-4.06-2.78-6.44-.05-.54-.42-1-1-1-.5,0-1.05,.46-1,1,.23,2.36,1.33,4.39,2.48,6.43,1.12,1.97,2.38,4.23,1.91,6.58-.25,1.26,1.68,1.79,1.93,.53,.5-2.52-.36-4.91-1.54-7.1Z"/>
    <path class="cls-5" d="M58.47,425.95c-.41-1.21-2.34-.69-1.93,.53,1.1,3.29,1.45,6.74,1.05,10.19-.06,.54,.5,1,1,1,.59,0,.94-.46,1-1,.42-3.6,.03-7.28-1.12-10.72Z"/>
    <path class="cls-5" d="M38.79,461.22c-.38-1.23-2.31-.7-1.93,.53,1.71,5.5,2.3,11.25,1.77,16.99-.12,1.28,1.88,1.27,2,0,.55-5.9-.08-11.86-1.84-17.52Z"/>
    <path class="cls-5" d="M19.47,495.99c-.4-2.91-.39-5.87-.02-8.78,.07-.54-.51-1-1-1-.6,0-.93,.46-1,1-.39,3.1-.34,6.22,.09,9.31,.07,.54,.76,.83,1.23,.7,.58-.16,.77-.69,.7-1.23Z"/>
    <path class="cls-5" d="M59.52,393.22c-1.12-4.92-1.44-9.97-.99-14.99,.11-1.28-1.89-1.27-2,0-.46,5.2-.09,10.43,1.06,15.52,.28,1.25,2.21,.72,1.93-.53Z"/>
    <path class="cls-5" d="M79.86,371.19c-.57-3.65-.71-7.35-.47-11.03,.08-1.29-1.92-1.28-2,0-.25,3.87-.05,7.74,.54,11.57,.08,.53,.75,.83,1.23,.7,.57-.16,.78-.69,.7-1.23Z"/>
    <path class="cls-5" d="M93.38,347.92c-.55-.15-1.06,.19-1.23,.7-.92,2.72-.98,5.7-.19,8.46,.35,1.23,2.29,.71,1.93-.53-.7-2.44-.63-4.99,.19-7.39,.17-.51-.2-1.09-.7-1.23Z"/>
    <path class="cls-5" d="M40.67,410.7c.36-1.24-1.57-1.77-1.93-.53-1.12,3.92,.29,7.76,1.39,11.51,.93,3.17,1.58,6.86-.51,9.72-.76,1.04,.97,2.04,1.73,1.01,5.01-6.82-2.72-14.55-.67-21.7Z"/>
    <path class="cls-5" d="M20.12,442.51c-.42-1.21-2.35-.69-1.93,.53,2.24,6.42,3.69,13.08,4.29,19.85,.11,1.27,2.11,1.28,2,0-.61-6.95-2.06-13.8-4.36-20.39Z"/>
    <path class="cls-5" d="M7.09,471.41c-.05-.54-.43-1-1-1-.5,0-1.05,.46-1,1,.28,3.19-.44,6.36-2.11,9.1-.67,1.1,1.06,2.11,1.73,1.01,1.84-3.01,2.7-6.59,2.39-10.11Z"/>
  </g>
  <g>
    <path d="M105.81,346.15c-.66,.37-1.35,.6-2.04,.71-2.53,2.06-4.58,4.72-5.66,7.8-1.49,4.26,3.08,5.3,5.91,6.84,4.15,2.26,7.02,5.04,9.71,8.94,8.84,12.83,14.8,27.46,16.41,42.94,.77,7.38-.8,12.83-4.04,19.38-1.52,3.08,4.42,1.57,5.6,1.21,3.25-1,5.73-3.72,7.72-6.43,4.4-5.97,6.44-13.63,6.14-21-.31-7.73-2.76-15.14-5.92-22.14-3.06-6.8-6.65-13.46-10.65-19.76-2.76-4.35-5.82-8.52-9.34-12.29-2.45-2.62-6.69-8.62-10.81-8.34-.35,.02-.68,.12-1,.25-.54,.77-1.23,1.42-2.04,1.88Zm3.81,1.33c2.03,0,6.07,5.04,7.44,6.48,2.51,2.62,4.78,5.46,6.87,8.43,4.28,6.05,7.78,12.6,11.08,19.23,5.85,11.76,10.5,25.55,5.25,38.38-1.16,2.84-2.79,5.52-4.87,7.79-.98,1.07-2.07,2.11-3.27,2.94-.8,.55-1.91,1.75-2.96,1.49,2.05-3.51,3.7-7.1,4-11.29,.2-2.85,.02-5.87-.21-8.61-.63-7.7-2.41-15.31-5.32-22.46-2.56-6.3-5.35-12.56-9.24-18.13-3.09-4.44-6.93-8.46-11.54-11.33-2.78-1.73-7.93-2.39-5.2-6.38,1.62-2.36,4.29-4.53,6.72-6.05,.38-.24,.8-.47,1.26-.47Z"/>
    <path d="M374.51,343.94c-.16,.17-.28,.3-.24,.31-.36-.03-.74,.06-1.09,.34-5.99,4.7-12.31,9.17-17.91,14.34-8.2,7.57-14.8,16.73-20.59,26.22-2.57,4.21-4.35,8.64-6.3,13.16-2.13,4.94-3.22,10.3-2.78,15.68,.35,4.35,1.49,8.61,3.16,12.64,1.11,2.66,2.55,5.53,5.24,6.9,4.51,2.31,3.56-2.19,4.21-5.28,.63-2.97,1.39-5.91,2.27-8.82,1.77-5.8,4.06-11.44,6.82-16.84,5.58-10.92,13.09-20.86,22.15-29.13,4.77-4.35,10.46-8.68,16.29-11.39,1.32-.61,2.36-1.34,2.86-2.22,1.73-3.07-5.17-8.99-6.69-11.28-1.29-1.94-2.6-4.34-5.04-4.98-.48-.13-1.12-.43-1.63-.25-.19,.26-.43,.47-.71,.61Zm1.06,2.48s.02,0,.03,0c2.02,.15,2.61,1.73,3.78,3.04,2.08,2.35,5.99,5.08,5.67,8.7-.23,2.62-3.22,2.75-5.1,3.77-3.69,2-7.06,4.54-10.25,7.26-4.56,3.9-8.76,8.21-12.56,12.85-7.52,9.18-13.48,19.57-17.61,30.7-2.25,6.07-3.92,12.35-4.99,18.74-2.94-4.99-5.13-10.49-5.83-16.26-1.52-12.49,5.22-23.91,12.04-33.78,6.94-10.06,14.9-19.34,24.55-26.9,3.33-2.61,6.67-5.23,10-7.84,.11-.09,.2-.18,.28-.28Z"/>
    <path d="M484.67,376.85c-5.51-15.83-10.44-31.8-23.67-43.12-13.75-11.76-33.86-18.45-51.79-15.99-14.31,1.96-27.86,8.24-38.69,17.77-.05,.04-.11,.08-.16,.13l-.02,.02c-.14,.13-.29,.24-.43,.37-.09,.08-.17,.17-.24,.26-.08,.06-.17,.12-.24,.17-.2,.13-.41,.25-.61,.37-.58,.34-.84,.87-.87,1.51-.03,.76,.3,1.48,.8,2.04,.38,.42,.88,.7,1.36,.98,.19,.11,.38,.23,.56,.36,.03,.02,.06,.05,.09,.07,.07,.06,.14,.13,.21,.19,.09,.09,.18,.18,.26,.27,.04,.05,.08,.09,.12,.14h0c.04,.06,.07,.11,.11,.16,.07,.1,.13,.2,.19,.31,.36,.58,.85,1.09,1.54,1.24,.47,.1,.92,.03,1.3-.15,.28-.14,.52-.35,.71-.61,.04-.06,.1-.1,.13-.16,.21-.07,.43-.19,.62-.39,.8-.84,1.63-1.64,2.49-2.41-.02,.11-.03,.22-.03,.34,.02,2.33,1.42,4.39,3.48,5.45,2.14,1.11,4.52,1.01,6.67-.02,2.87-1.38,4.46-3.88,5.43-6.69,1.54,4.38,4.26,8.2,9.14,9.48,7.09,1.87,14.16-2.02,18.59-7.37,.48-.58,.94-1.18,1.38-1.79-.36,2.04-.62,4.1-.77,6.18-.34,4.53-.39,9.67,2.24,13.61,4.92,7.37,15.36,5.98,21.76,1.45-1.66,4.7-2.82,9.74-1.87,14.73,.74,3.89,3.14,7.62,6.58,9.63,3.47,2.03,7.66,1.83,11.12-.1,1.37-.76,2.6-1.74,3.74-2.83-2.6,8.07-4.62,16.39-4.29,24.88,.2,5.18,1.14,10.89,3.98,15.33,2.54,3.97,7.2,6.91,12.03,5.7,2.46-.62,4.35-2.16,5.88-4.08-.43,3.49-.86,6.98-1.29,10.47-.67,5.46-1.78,11.09-1.44,16.62,.29,4.7,1.87,9.36,5.58,12.46,3.32,2.77,7.69,3.77,11.7,1.86,.69-.33,1.34-.74,1.94-1.19v-4.17c-.74,.89-1.58,1.69-2.57,2.29-3.3,2.01-7.11,.96-9.74-1.65-3.11-3.08-3.99-7.41-3.96-11.65,.04-4.95,.91-9.92,1.52-14.83,.65-5.3,1.31-10.59,1.96-15.89,.5,1.11,1,2.22,1.51,3.33,3.17,6.91,6.48,13.77,9.88,20.57,.36,.72,.89,1.75,1.4,2.61v-4.33c-.89-2.01-2-4.02-2.75-5.83-1.26-3.03-2.51-6.07-3.77-9.1-.85-2.05-3.23-5.62-3.23-7.8-1.84-4.45-3.68-8.9-5.53-13.36-4.22-10.19-8.45-20.39-12.91-30.48,0-.37-.15-.68-.4-.91-2.98-6.71-6.06-13.37-9.32-19.94-8.59-17.3-31.41-28.88-50.35-28.75-12.51,.09-24.99,4.57-34.47,12.77-1.2,1.04-2.34,2.14-3.43,3.29-.01,.01-.02,.03-.03,.04-.31-.42-.66-.83-1.07-1.16-.41-.33-.84-.59-1.28-.86,.36-.28,.7-.58,1.01-.91,9.44-8.34,21.07-14.06,33.43-16.46,22.45-4.37,47.45,5.53,61.5,23.57,6.72,8.63,9.87,19.88,13.42,30.05,2.46,7.03,4.9,14.06,7.36,21.09,3.94,11.3,7.88,22.6,11.82,33.89v-9.09l-7.61-21.83-7.72-22.13Zm-13.05,2.79c4.2,12.2,9.03,24.19,14.26,35.98-.52-.02-1.04,.2-1.28,.72-1.46,3.2-3.26,7.21-6.67,8.74-4.17,1.87-8.33-1.31-10.27-4.85-2.3-4.19-3.01-9.35-3.07-14.06-.07-5.04,.73-10.03,1.92-14.91,1.15-4.67,2.65-9.24,4.24-13.77,.31,.7,.61,1.41,.86,2.15Zm-11.87-24.49c2.33,3.9,4.12,7.98,5.82,12.17,.92,2.25,2.12,4.32,3.29,6.43-3.12,5.01-8.89,12.62-15.67,9.35-8.05-3.88-6.41-14.33-4.01-21.15,.74-2.11,1.6-4.16,2.55-6.18,1.59-2.09,2.86-4.41,3.77-6.91,1.54,2.02,2.97,4.12,4.26,6.28Zm-17.96-19.05c4.52,2.81,8.47,6.43,11.89,10.5-.29,.1-.55,.29-.74,.6-1.41,2.3-2.69,4.67-3.84,7.11-3.16,4.02-7.66,7.02-12.78,7.41-3.38,.26-6.99-.63-9.05-3.53-2.33-3.29-2.23-7.7-1.98-11.54,.36-5.51,1.51-10.93,3.33-16.13,4.49,1.43,9.49,3.3,13.17,5.59Zm-33.33-8.36c5.81-.41,11.68,.23,17.27,1.89-3.72,6.94-8.13,14.89-16.54,16.53-3.72,.73-7.59-.24-10.06-3.22-2.47-2.98-3.24-7.09-3.76-10.81-.1-.74-.99-1.16-1.65-1.07-.15,.02-.27,.07-.39,.13,4.82-1.9,9.94-3.08,15.13-3.44Zm-15.28,3.5c-.44,.26-.69,.73-.76,1.29-.47,3.63-1.04,7.89-4.15,10.29-1.21,.93-2.78,1.48-4.28,1-1.38-.45-2.56-1.58-2.57-3.09,0-1.06-.91-1.53-1.73-1.43,4.02-3.39,8.6-6.1,13.49-8.05Z"/>
    <path d="M482.31,484.76c-2.3-3.25-3.84-7.05-4.3-11.02-.18-1.57-2.5-2.17-2.95-.4-.88,3.48-3.24,6.99-7.15,7.24-4.1,.26-5.78-3.47-6.51-6.88-1.85-8.68-1.47-18,.43-26.63,.31-1.4-1.43-2.6-2.51-1.46-2.44,2.59-5.69,5.24-9.38,5.58-3.52,.33-6.1-1.96-7.41-5.04-1.41-3.31-1.67-7.08-1.9-10.63-.29-4.52-.25-9.06,.14-13.57,.44-5.17,1.36-10.29,2.69-15.31,.5-1.9-2.21-2.57-2.89-.8-1.37,3.58-3.61,7.05-6.99,9.02-3.46,2.01-8.04,2.22-11.19-.5-3.01-2.6-4.43-6.63-5.26-10.4-.99-4.5-.98-9.17-.52-13.74,.52-5.21,1.66-10.33,2.81-15.42,.42-1.88-2.37-2.67-2.89-.8-.87,3.11-1.8,6.74-4.49,8.82-2.64,2.04-5.74,1.67-7.67-1.06-4.06-5.73-2.96-13.58-2.11-20.1,.22-1.71-2.49-1.97-2.95-.4-.66,2.31-3.12,3.89-5.5,3.41-1.89-.38-2.69,2.51-.8,2.89,2,.4,4.02,.01,5.68-.98-.23,2.57-.3,5.15,0,7.71,.45,3.89,1.76,8.35,4.85,11,3.01,2.58,7.07,2.31,10.16,0,.23-.17,.42-.37,.63-.55-1.14,6.87-1.58,13.85,.06,20.67,1.05,4.35,2.96,8.88,6.61,11.66,3.73,2.84,8.67,2.9,12.85,1.02,1.89-.85,3.5-2.08,4.88-3.55-1.2,7.24-1.57,14.61-1.02,21.93,.54,7.1,2.26,17.77,11.51,17.75,3.26,0,6.3-1.47,8.91-3.47-1.06,6.89-1.12,13.89-.11,20.82,.48,3.3,1.14,6.83,3.44,9.39,2.33,2.59,6.14,3.24,9.34,2.03,2.25-.85,3.99-2.45,5.24-4.4,1.89,6.21,5.93,11.78,11.61,15.07,3.63,2.1,7.98,3.22,12.12,2.23,.08-.02,.16-.05,.24-.07v-3.14c-6.66,2.39-13.97-2.67-17.69-7.93Z"/>
    <path d="M458.43,497.31c.11-1.29-1.72-1.98-2.56-1.06-1.7,1.87-4.75,.22-6.36-.96-2.05-1.5-3.59-3.63-4.7-5.9-2.72-5.6-2.37-12.13-1.77-18.15,.17-1.77-2.42-1.9-2.95-.4-1.42,4.09-6.21,6.01-10.06,4.54,.15,1.09,.29,2.19,.42,3.28,3.26,.72,6.7-.22,9.24-2.32-.19,5.63,.44,11.31,3.43,16.21,1.6,2.63,3.85,4.98,6.61,6.39,1.06,.54,2.28,.94,3.5,1.06h1.38c.27-.03,.55-.07,.81-.13,0,.04,.01,.09,.01,.13h3.03c-.09-.89-.12-1.79-.04-2.69Z"/>
    <path d="M9.87,463.81c3.41-3.1,4.86-7.76,5.13-12.46,.31-5.52-.7-11.15-1.32-16.62-.4-3.49-.79-6.98-1.19-10.47,1.4,1.92,3.14,3.47,5.4,4.08,4.44,1.21,8.72-1.73,11.05-5.7,2.61-4.44,3.47-10.16,3.66-15.33,.3-8.49-1.55-16.8-3.94-24.88,1.04,1.09,2.17,2.06,3.43,2.83,3.18,1.92,7.02,2.12,10.21,.1,3.17-2.01,5.36-5.74,6.05-9.63,.88-4.98-.19-10.02-1.71-14.73,5.87,4.52,15.46,5.92,19.98-1.45,2.41-3.93,2.37-9.08,2.05-13.61-.14-2.07-.38-4.13-.71-6.18,.41,.61,.82,1.21,1.27,1.79,4.07,5.35,10.56,9.24,17.07,7.37,4.48-1.29,6.98-5.1,8.4-9.48,.89,2.82,2.35,5.31,4.98,6.69,1.31,.69,2.71,.95,4.09,.73,.69-.11,1.38-.34,2.04-.71,.82-.46,1.51-1.11,2.04-1.88,.71-1.02,1.14-2.24,1.15-3.57,0-.12,0-.23-.03-.34,.79,.78,1.55,1.57,2.29,2.41,.18,.2,.37,.33,.57,.39,.39,.74,1.16,1.11,1.97,.93,.64-.15,1.08-.66,1.41-1.24,.06-.1,.11-.21,.17-.31,.03-.05,.07-.11,.1-.16h0c.04-.05,.07-.1,.11-.14,.08-.09,.16-.19,.24-.27,.06-.07,.13-.13,.19-.19,.03-.03,.05-.05,.08-.07,.17-.12,.34-.24,.52-.36,.44-.28,.9-.56,1.25-.98,.46-.55,.77-1.28,.74-2.04-.03-.65-.27-1.18-.8-1.51-.19-.12-.38-.23-.56-.37-.07-.05-.15-.11-.23-.17-.06-.09-.13-.18-.22-.26-.13-.13-.26-.25-.39-.37l-.02-.02c-.04-.05-.09-.09-.14-.13-9.95-9.53-22.39-15.81-35.53-17.77-16.47-2.45-34.94,4.24-47.57,15.99-12.15,11.31-16.68,27.28-21.74,43.12l-7.09,22.13-4.35,13.57v9.09c2.74-8.54,5.47-17.09,8.21-25.63,2.25-7.03,4.5-14.06,6.76-21.09,3.26-10.16,6.16-21.42,12.33-30.05,12.9-18.03,35.86-27.93,56.48-23.57,11.35,2.41,22.04,8.12,30.7,16.46,.28,.33,.59,.63,.93,.91-.4,.27-.8,.53-1.17,.86-.38,.33-.69,.74-.98,1.16-.01-.01-.02-.03-.03-.04-1-1.15-2.05-2.25-3.15-3.29-8.71-8.2-20.17-12.68-31.66-12.77-17.39-.14-38.36,11.45-46.24,28.75-3,6.57-5.83,13.23-8.56,19.94-.22,.23-.37,.54-.37,.91-4.1,10.09-7.98,20.29-11.85,30.48-1.69,4.45-3.38,8.9-5.08,13.36,0,2.19-2.19,5.75-2.97,7.8-1.11,2.93-2.22,5.85-3.34,8.78v4.86c2.64-5.82,5.23-11.66,7.71-17.56,.47-1.11,.92-2.22,1.38-3.33,.6,5.3,1.2,10.59,1.8,15.89,.56,4.91,1.36,9.87,1.4,14.83,.03,4.24-.77,8.57-3.63,11.65-2.35,2.52-5.7,3.58-8.66,1.81v3.28c3.43,1.35,7.06,.31,9.87-2.25Zm97.96-124.53c-.75-.1-1.58,.38-1.59,1.43-.01,1.52-1.09,2.64-2.36,3.09-1.38,.48-2.82-.07-3.93-1-2.86-2.4-3.38-6.65-3.81-10.29-.07-.56-.29-1.03-.7-1.29,4.49,1.95,8.69,4.65,12.39,8.05Zm-26.42-11.54c4.76,.36,9.46,1.54,13.89,3.44-.11-.05-.22-.11-.36-.13-.6-.09-1.42,.34-1.51,1.07-.48,3.73-1.18,7.83-3.45,10.81-2.27,2.98-5.82,3.95-9.24,3.22-7.72-1.64-11.77-9.59-15.19-16.53,5.13-1.66,10.52-2.3,15.86-1.89Zm-30.61,8.36c3.38-2.29,7.97-4.15,12.1-5.59,1.67,5.21,2.73,10.63,3.06,16.13,.23,3.84,.32,8.25-1.82,11.54-1.89,2.9-5.2,3.79-8.31,3.53-4.7-.4-8.84-3.39-11.74-7.41-1.06-2.44-2.23-4.81-3.52-7.11-.17-.31-.42-.5-.68-.6,3.14-4.07,6.77-7.69,10.92-10.5Zm-21.84,31.22c1.56-4.19,3.21-8.28,5.35-12.17,1.19-2.17,2.5-4.27,3.91-6.28,.83,2.5,2,4.83,3.46,6.91,.87,2.01,1.66,4.07,2.34,6.18,2.2,6.82,3.71,17.27-3.69,21.15-6.23,3.27-11.53-4.33-14.39-9.35,1.07-2.11,2.18-4.18,3.02-6.43Zm-17.48,49.02c-.22-.52-.69-.73-1.17-.72,4.81-11.8,9.24-23.78,13.1-35.98,.23-.74,.51-1.45,.79-2.15,1.46,4.54,2.84,9.1,3.89,13.77,1.1,4.88,1.83,9.87,1.77,14.91-.06,4.72-.7,9.87-2.82,14.06-1.79,3.54-5.6,6.72-9.43,4.85-3.14-1.53-4.78-5.54-6.13-8.74Z"/>
    <path d="M17.53,477.6c1.15,1.95,2.75,3.55,4.82,4.4,2.94,1.21,6.44,.56,8.58-2.03,2.11-2.56,2.72-6.09,3.16-9.39,.92-6.92,.87-13.93-.1-20.82,2.39,1.99,5.19,3.46,8.18,3.47,8.5,.01,10.08-10.66,10.57-17.75,.51-7.32,.17-14.69-.94-21.93,1.27,1.47,2.75,2.7,4.48,3.55,3.84,1.88,8.37,1.82,11.8-1.02,3.36-2.78,5.11-7.31,6.07-11.66,1.51-6.81,1.1-13.79,.05-20.67,.19,.18,.37,.38,.58,.55,2.84,2.31,6.56,2.59,9.33,0,2.84-2.65,4.04-7.11,4.46-11,.27-2.57,.21-5.14,0-7.71,1.52,.99,3.38,1.38,5.22,.98,1.74-.38,1-3.27-.73-2.89-2.19,.48-4.44-1.11-5.05-3.41-.42-1.57-2.91-1.32-2.71,.4,.78,6.52,1.8,14.37-1.94,20.1-1.78,2.74-4.62,3.1-7.05,1.06-2.47-2.08-3.32-5.71-4.12-8.82-.48-1.87-3.05-1.08-2.66,.8,1.06,5.09,2.11,10.22,2.58,15.42,.42,4.57,.43,9.24-.48,13.74-.76,3.77-2.07,7.81-4.83,10.4-2.9,2.72-7.1,2.52-10.28,.5-3.1-1.96-5.16-5.44-6.42-9.02-.62-1.77-3.12-1.1-2.66,.8,1.22,5.02,2.07,10.13,2.47,15.31,.35,4.51,.4,9.05,.13,13.57-.21,3.55-.45,7.32-1.74,10.63-1.2,3.08-3.58,5.37-6.81,5.04-3.39-.34-6.37-2.99-8.62-5.58-.99-1.14-2.59,.06-2.3,1.46,1.75,8.63,2.09,17.95,.39,26.63-.67,3.41-2.22,7.14-5.98,6.88-3.59-.25-5.76-3.76-6.57-7.24-.41-1.77-2.54-1.17-2.71,.4-.42,3.97-1.83,7.76-3.95,11.02-2.59,3.98-7.08,7.86-11.77,8.46v2.96c2.41-.26,4.77-1.19,6.87-2.51,5.22-3.29,8.93-8.85,10.66-15.07Z"/>
    <path d="M54.03,477.26c.09-1.02,.2-2.03,.36-3.04-1.73-.8-3.19-2.31-3.85-4.38-.48-1.51-2.87-1.37-2.71,.4,.55,6.02,.87,12.55-1.63,18.15-1.01,2.27-2.43,4.39-4.31,5.9-1.48,1.18-4.28,2.83-5.84,.96-.77-.92-2.45-.23-2.35,1.06,.1,1.24,.03,2.48-.17,3.69h2.81c.05-.38,.09-.75,.11-1.13,1.71,.45,3.66-.05,5.23-.93,2.54-1.41,4.6-3.76,6.07-6.39,2.74-4.9,3.32-10.58,3.15-16.21,.93,.83,1.99,1.49,3.12,1.92Z"/>
    <path d="M100.31,358.36c-.2-.32-.33-.68-.4-1.05-5.66,7.35-10.71,15.26-15.37,22.71-4.75,7.6-7.64,16.01-12.05,23.65-7.14,17.16-12.21,35.2-15.96,53.39-2.93,14.2-5.09,28.55-6.95,42.93h4c3.46-26.6,8.03-53.18,16.55-78.67,7.36-22.03,17.85-43.23,32.39-61.42-.9-.22-1.7-.74-2.2-1.55Z"/>
    <path d="M429.33,462.37c-2.07-12.81-4.55-25.65-8.21-38.11-5.68-19.33-14.33-38.51-26.22-54.84-2.5-3.43-5.03-6.86-7.65-10.21-.05,.13-.11,.26-.18,.39-.58,1-1.72,1.76-2.94,2.22,6.36,8.46,11.67,17.46,17.19,26.66,6.1,10.17,10.98,21.31,14.63,32.59,3.91,12.07,6.45,24.59,8.63,37.07,2.42,13.86,4.11,27.83,5.11,41.86h4c-.9-12.6-2.35-25.16-4.36-37.63Z"/>
  </g>
</svg>