<?xml version="1.0" encoding="UTF-8"?>
<svg id="Brows" xmlns="http://www.w3.org/2000/svg" viewBox="0 0 500 500">
  <defs>
    <style>
      .cls-1 {
        fill: none;
      }

      .cls-2 {
        fill: #333;
      }
    </style>
  </defs>
  <rect class="cls-1" width="500" height="500"/>
  <path class="cls-2" d="M281.92,164.47c-.11-.36-.33-.76-.69-.92-.77-.36-1.55-.71-2.32-1.07-.15-.1-.31-.15-.47-.17,.09-.11,.17-.23,.22-.37,.09-.18,.14-.37,.13-.57l-.05-.38c-.07-.26-.19-.48-.37-.67l-.31-.25c-.23-.14-.48-.21-.75-.21-.04,0-.08,0-.12,0-.04,0-.08-.02-.12-.03-.05-.03-.1-.05-.15-.09-.12-.1-.24-.19-.39-.24-.18-.09-.37-.14-.57-.13-.2,0-.38,.03-.56,.12-.05,.02-.1,.04-.15,.07l-.04-.32c-.07-.26-.19-.48-.37-.67l-.31-.25c-.23-.14-.48-.21-.75-.21l-1.09,.12s.05-.08,.06-.13c.09-.18,.14-.37,.13-.57-.01-.38-.13-.78-.42-1.05l-.31-.25c-.23-.14-.48-.21-.75-.21-.54-.04-1.09-.08-1.63-.12,.16-.18,.3-.39,.35-.61,.09-.37,.07-.79-.13-1.12-.19-.32-.53-.67-.91-.72-.56-.08-1.12-.13-1.68-.14,.1-.2,.17-.43,.16-.64-.01-.38-.13-.78-.42-1.05-.28-.27-.67-.48-1.07-.46-1.25,.07-2.5,.13-3.75,.2,.22-.25,.36-.56,.34-.92-.02-.56-.34-1.1-.83-1.36,.46-.25,.8-.68,.78-1.26-.03-.75-.65-1.59-1.49-1.51-4.09,.35-8.06,1.47-11.7,3.37-.7,.36-1,1.36-.59,2.04,.43,.71,1.29,.98,2.04,.59,.83-.43,1.68-.82,2.54-1.18l.07-.03h.03c.11-.05,.22-.09,.33-.13,.03-.01,.07-.02,.1-.04-.06,.23-.07,.46,0,.7,.23,.78,1.01,1.3,1.82,1.09,1.08-.28,2.18-.48,3.29-.62,.46-.05,.91-.07,1.37-.1-.2,.26-.33,.6-.32,.91,.01,.38,.13,.78,.42,1.05,.28,.27,.67,.48,1.07,.46,.7-.04,1.41-.08,2.11-.11-.17,.31-.25,.75-.15,1.1,.24,.81,1,1.26,1.82,1.09,.22-.05,.45-.08,.67-.11,.58-.06,1.15-.06,1.73-.02-.11,.12-.21,.26-.26,.42-.09,.18-.14,.37-.13,.57,.01,.38,.13,.78,.42,1.05l.31,.25c.23,.14,.48,.21,.75,.21,.74,.06,1.49,.11,2.23,.17-.03,.06-.07,.12-.09,.18-.09,.18-.14,.37-.13,.57l.05,.38c.07,.26,.19,.48,.37,.67l.31,.25c.23,.14,.48,.21,.75,.21,.47-.05,.94-.1,1.4-.16,.2,0,.38-.03,.56-.12,.05-.02,.1-.04,.15-.07l.04,.32c.07,.26,.19,.48,.37,.67,.14,.13,.29,.24,.44,.36,.05,.04,.11,.08,.16,.11,.05,.03,.11,.06,.16,.09,.17,.08,.35,.16,.53,.23,.12,.04,.24,.07,.36,.09,.15,.02,.3,.04,.45,.06-.04,.05-.08,.1-.11,.16-.18,.34-.28,.75-.17,1.14,.11,.36,.33,.76,.69,.92,.77,.36,1.55,.71,2.32,1.07,.17,.11,.36,.17,.56,.19,.19,.04,.38,.04,.57-.02,.36-.09,.74-.36,.92-.69,.18-.34,.28-.75,.17-1.14Z"/>
  <path class="cls-2" d="M150.98,145.74c.24-.29,.6-.57,.99-.58,.85-.02,1.7-.05,2.56-.07,.17-.03,.34-.01,.5,.03-.04-.14-.07-.28-.05-.43-.02-.2,.02-.39,.1-.58l.19-.33c.16-.21,.36-.37,.6-.47l.39-.11c.27-.04,.53,0,.78,.1,.04,.02,.08,.03,.11,.04,.04,0,.08,.01,.12,.02,.06,0,.11-.01,.17-.02,.15-.05,.3-.08,.45-.06,.2-.02,.39,.02,.58,.1,.19,.07,.34,.18,.47,.33,.04,.04,.08,.08,.11,.12l.16-.28c.16-.21,.36-.37,.6-.47l.39-.11c.27-.04,.53,0,.78,.1l.95,.54s-.01-.09,0-.14c-.02-.2,.02-.39,.1-.58,.16-.35,.43-.67,.8-.8l.39-.11c.27-.04,.53,0,.78,.1,.52,.17,1.03,.35,1.55,.52-.08-.23-.12-.47-.08-.69,.07-.38,.24-.75,.56-.98,.3-.22,.75-.41,1.12-.31,.55,.15,1.08,.32,1.6,.53-.01-.23,.02-.46,.1-.65,.16-.35,.43-.67,.79-.8,.36-.14,.8-.18,1.17,0,1.12,.55,2.25,1.1,3.37,1.66-.1-.32-.11-.66,.05-.98,.24-.51,.75-.88,1.3-.92-.33-.41-.47-.94-.22-1.47,.32-.68,1.22-1.2,1.96-.81,3.63,1.92,6.84,4.51,9.44,7.69,.5,.61,.39,1.64-.26,2.11-.67,.48-1.57,.39-2.11-.26-.59-.72-1.22-1.41-1.88-2.08l-.05-.06-.02-.02c-.08-.08-.17-.16-.25-.24-.03-.02-.05-.05-.08-.07-.04,.23-.12,.45-.28,.64-.52,.62-1.44,.8-2.1,.29-.89-.68-1.82-1.3-2.78-1.86-.4-.23-.81-.43-1.22-.63,.08,.31,.07,.68-.06,.96-.16,.35-.43,.67-.79,.8-.36,.14-.8,.18-1.17,0-.63-.31-1.26-.62-1.9-.93,.04,.36-.06,.79-.29,1.07-.54,.65-1.41,.76-2.1,.29-.19-.13-.38-.25-.58-.37-.51-.28-1.04-.5-1.58-.7,.06,.16,.09,.32,.07,.48,.02,.2-.02,.39-.1,.58-.16,.35-.43,.67-.79,.8l-.39,.11c-.27,.04-.53,0-.78-.1-.71-.24-1.41-.48-2.12-.72,0,.07,.02,.13,0,.2,.02,.2-.02,.39-.1,.58l-.19,.33c-.16,.21-.36,.37-.6,.47l-.39,.11c-.27,.04-.53,0-.78-.1-.41-.23-.82-.46-1.23-.69-.19-.07-.34-.18-.47-.33-.04-.04-.08-.08-.11-.12l-.16,.28c-.16,.21-.36,.37-.6,.47-.18,.06-.36,.11-.54,.16-.06,.02-.13,.03-.19,.04-.06,0-.12,.02-.19,.02-.19,0-.39,0-.58,0-.12,0-.25-.02-.37-.05-.15-.04-.29-.08-.44-.12,.02,.06,.04,.13,.04,.19,.04,.39-.04,.8-.29,1.11-.24,.29-.6,.57-.99,.58-.85,.02-1.7,.05-2.56,.07-.2,.04-.4,.02-.59-.05-.19-.03-.37-.12-.52-.24-.29-.22-.54-.62-.58-.99-.04-.39,.04-.8,.29-1.11Z"/>
</svg>