<?xml version="1.0" encoding="UTF-8"?>
<svg id="Brows" xmlns="http://www.w3.org/2000/svg" viewBox="0 0 500 500">
  <defs>
    <style>
      .cls-1 {
        fill: none;
      }

      .cls-2 {
        fill: #333;
      }
    </style>
  </defs>
  <path class="cls-1" d="M0,0V500H49.11c-2.4-16.5,2.45-32.53,7.86-48.33,2.97-23.3,7.3-46.27,21.3-64.87,2.97-10.76,10.74-18.95,17.34-27.7,3.48-4.61,6.96-9.18,10.7-13.5,.03-.07,.05-.13,.09-.2,3.24-5.45,7.65-9.39,13.11-12.55,1.47-.85,2.79-.62,3.71,.13,.08-.04,.16-.09,.24-.13,3.42-1.75,7.27,2.7,4.24,5.5-7.16,6.61-14.23,13.27-20.33,20.89-1.12,1.4-2.57,1.44-3.74,.78-.97,1.27-1.94,2.54-2.91,3.81-4.3,5.6-9.14,11.04-12.54,17.22,1.08,1.25,1.42,3.17-.01,4.73-1.22,1.33-2.38,2.7-3.48,4.11-.05,.19-.1,.37-.14,.56-.28,1.27-1.05,2.01-1.96,2.32-.31,.45-.63,.9-.94,1.36,1.19,.68,1.89,1.96,1.21,3.66-.38,.94-.75,1.88-1.13,2.82s-.96,1.5-1.66,1.87c-4.05,7.12-6.22,15.33-7.86,23.63,.02,.34,0,.69-.08,1.04-.13,.51-.27,1.01-.4,1.52-1.04,5.63-1.9,11.25-2.98,16.55-.38,1.84-1.77,2.57-3.2,2.5-.49,1.37-.97,2.74-1.46,4.11-2.17,16.08-3.52,32.33-7.1,48.16H427c0-.09,0-.19,0-.28-1.12-12.34-5.38-25.12-2.33-37.24-2.53-8.4-5.36-16.71-6.76-25.39-.34-2.12-.62-4.32-.92-6.54-3.96-5.9-7.06-12.95-8.33-20.08-6.43-13.55-13.87-26.6-21.59-39.49-.35-.59-.47-1.19-.45-1.77-1.38-2.3-2.96-4.44-4.65-6.56-.99-1.24-.99-2.66-.48-3.83-2.26-2.78-4.85-5.43-7.19-8.18-.99-.09-1.92-.61-2.48-1.68-.1-.2-.2-.4-.31-.59-.73,.15-1.55,.05-2.39-.41-2.22-1.21-4.03-2.69-5.61-4.49-.48-.32-.96-.64-1.43-.96-.44-.13-.88-.24-1.35-.28-4.45-.45-4.48-7.46,0-7,1.11,.11,2.16,.35,3.16,.65,.13,0,.26,.01,.39,.03,.75-.12,1.53,0,2.22,.41,1.49,.36,2.92,.85,4.25,1.5,1.55-.67,3.47-.41,4.29,1.4,1.77,3.93,4.59,7.32,7.52,10.64,1.33-1.86,4.7-2.36,6.03,.08,2.6,4.8,4.96,9.73,7.27,14.67,4.57,7.45,9.78,14.56,13.1,22.69,2.15,5.26,3.98,10.65,5.86,16.01,4.51,5.66,6.5,12.28,7.8,19.17,.83,1.63,1.72,3.25,2.67,4.83,1.13,1.88,.28,3.68-1.16,4.58,.02,.12,.04,.24,.05,.35,1.3,8.51,3.8,16.63,6.23,24.8,1.59,.52,2.76,1.99,2.01,4.02-.16,.44-.31,.87-.45,1.31,.12,.43,.24,.85,.36,1.28,.98,.29,1.87,1.04,2.35,2.32,3.91,10.47-.73,21.07-.94,31.67,.1,.79,.18,1.58,.25,2.37h65.99V0H0ZM110.93,303.76c-1.08-1.48-2.12-3-3.13-4.54-.83-1.13-1.67-2.25-2.52-3.37-.48-.63-.67-1.26-.67-1.85-4.46-7.77-7.97-16.14-10.48-24.82-.15,1.27-.32,2.54-.52,3.81-.57,3.55-5.9,3.11-6.75,0-1.71-6.22-2.25-12.46-2.27-18.73-.94,.3-2,.28-2.93-.23-.27,0-.54-.01-.83-.05l-.49-.07c-1.06-.15-2.29-1.39-2.44-2.44l-.07-.49c-.19-1.31,.19-3.02,1.33-3.84,2.65-10.34,.27-22.09,6.67-31.23-.06-.85-.13-1.71-.22-2.56-.44-4.22,5.73-4.42,6.85-.75,.51-2.15,1.09-4.29,1.75-6.4,.12-.38,.29-.69,.48-.98-.05-.05-.1-.09-.15-.14-1.38-1.38-1.28-3.55,0-4.95,.06-.07,.14-.12,.21-.18,.66-.87,1.71-1.46,2.83-1.41,.05,0,.1,.02,.16,.02,.14-.01,.27-.03,.41-.02,1.54,.06,2.82,.7,3.64,1.99,.63,.75,.91,1.63,.99,2.64,.01,.2,0,.4-.03,.6,0,.18-.02,.36-.05,.53,0,.05-.02,.11-.03,.16-.03,.15-.08,.3-.13,.44-.02,.05-.03,.11-.05,.16v.02c-.07,.16-.15,.31-.24,.46-.14,.23-.29,.46-.49,.67-.19,.2-.41,.37-.64,.51,.03,.41,0,.86-.15,1.34-9.05,29.07-3.65,62.22,12.91,87.65,1.08,1.47,2.14,2.97,3.12,4.52,2.45,3.89-3.44,7.09-6.04,3.53Z"/>
  <path class="cls-2" d="M282.16,165.35c-.27-.25-.67-.48-1.06-.44-.85,.09-1.69,.18-2.54,.28-.17,0-.34,.03-.49,.1,.02-.14,.03-.29,0-.43,0-.2-.07-.39-.18-.56l-.23-.3c-.19-.19-.41-.31-.66-.39l-.4-.05c-.27,0-.52,.07-.76,.2-.03,.02-.07,.04-.11,.06-.04,.01-.08,.02-.12,.03-.06,0-.11,0-.17,0-.15-.03-.3-.04-.46,0-.2,0-.39,.07-.56,.18-.17,.09-.32,.22-.42,.39-.04,.04-.06,.09-.09,.13l-.2-.25c-.19-.19-.41-.31-.66-.39l-.4-.05c-.27,0-.52,.07-.76,.2l-.87,.66s0-.09-.01-.14c0-.2-.07-.39-.18-.56-.21-.32-.51-.6-.9-.69l-.4-.05c-.27,0-.52,.07-.76,.2-.49,.24-.97,.49-1.46,.73,.05-.24,.05-.49-.01-.7-.12-.36-.34-.71-.69-.9-.33-.17-.79-.3-1.16-.15-.52,.22-1.02,.47-1.51,.74-.02-.23-.08-.45-.19-.63-.21-.32-.51-.6-.9-.69-.38-.09-.82-.07-1.16,.15-1.04,.7-2.08,1.4-3.12,2.1,.06-.33,.02-.67-.18-.97-.3-.47-.86-.77-1.41-.74,.27-.45,.34-1,.02-1.49-.41-.63-1.37-1.03-2.05-.54-3.33,2.4-6.16,5.39-8.32,8.89-.41,.67-.17,1.68,.54,2.05,.73,.39,1.61,.18,2.05-.54,.49-.8,1.02-1.56,1.58-2.32l.05-.06,.02-.02c.07-.09,.14-.18,.22-.27,.02-.03,.05-.05,.07-.08,.07,.22,.18,.43,.36,.6,.6,.55,1.53,.6,2.12,0,.79-.79,1.62-1.53,2.5-2.22,.36-.28,.75-.53,1.12-.79-.04,.32,.02,.68,.19,.94,.21,.32,.51,.6,.9,.69,.38,.09,.82,.07,1.16-.15,.58-.39,1.17-.79,1.75-1.18,.01,.36,.17,.78,.43,1.02,.62,.57,1.5,.57,2.12,0,.17-.15,.34-.3,.52-.44,.46-.35,.96-.64,1.47-.91-.04,.16-.04,.33,0,.49,0,.2,.07,.39,.18,.56,.21,.32,.51,.6,.9,.69l.4,.05c.27,0,.52-.07,.76-.2,.67-.33,1.33-.67,2-1,0,.07,0,.13,.02,.2,0,.2,.07,.39,.18,.56l.23,.3c.19,.19,.41,.31,.66,.39l.4,.05c.27,0,.52-.07,.76-.2,.37-.28,.75-.57,1.12-.85,.17-.09,.32-.22,.42-.39,.04-.04,.06-.09,.09-.13l.2,.25c.19,.19,.41,.31,.66,.39,.18,.04,.37,.06,.56,.08,.07,0,.13,.01,.2,.01,.06,0,.12,0,.19,0,.19-.02,.38-.04,.57-.08,.12-.02,.24-.06,.36-.1,.14-.06,.28-.11,.42-.18,0,.06-.02,.13-.02,.19,.02,.39,.14,.79,.44,1.06,.27,.25,.67,.48,1.06,.44,.85-.09,1.69-.18,2.54-.28,.21,0,.4-.04,.58-.13,.19-.06,.35-.16,.48-.31,.26-.26,.46-.69,.44-1.06-.02-.39-.14-.79-.44-1.06Z"/>
  <path class="cls-2" d="M157.63,145.77c.33-.17,.78-.29,1.14-.15,.79,.31,1.59,.62,2.38,.93,.17,.04,.32,.12,.45,.22,.01-.14,.05-.28,.12-.41,.06-.19,.17-.35,.32-.49l.31-.23c.23-.13,.48-.2,.74-.2l.4,.05c.26,.07,.49,.2,.68,.4,.03,.03,.06,.06,.09,.08,.03,.02,.07,.04,.11,.06,.05,.02,.11,.03,.16,.04,.15,.01,.3,.05,.44,.12,.19,.06,.35,.17,.49,.32,.14,.14,.25,.3,.31,.48,.03,.05,.04,.1,.06,.15l.26-.19c.23-.13,.48-.2,.74-.2l.4,.05c.26,.07,.49,.2,.68,.4l.67,.87s.03-.09,.05-.13c.06-.19,.17-.35,.32-.49,.28-.26,.65-.45,1.05-.43l.4,.05c.26,.07,.49,.2,.68,.4,.41,.36,.81,.72,1.22,1.09,.01-.24,.07-.48,.2-.67,.21-.32,.52-.6,.9-.69,.36-.08,.85-.09,1.16,.16,.45,.35,.87,.72,1.27,1.11,.08-.22,.19-.42,.35-.56,.28-.26,.65-.45,1.05-.43,.39,.02,.81,.14,1.08,.45,.82,.95,1.64,1.89,2.46,2.84,.03-.33,.16-.65,.43-.89,.42-.37,1.03-.52,1.56-.35-.14-.5-.07-1.05,.37-1.44,.56-.5,1.59-.63,2.12,.02,2.59,3.18,4.54,6.82,5.71,10.76,.22,.75-.28,1.67-1.06,1.84-.81,.18-1.6-.25-1.84-1.06-.26-.9-.58-1.78-.92-2.65l-.03-.07v-.03c-.06-.11-.1-.21-.15-.32-.01-.03-.03-.06-.04-.1-.12,.2-.29,.37-.51,.48-.72,.37-1.63,.18-2.05-.55-.55-.97-1.17-1.9-1.83-2.8-.28-.36-.58-.71-.88-1.06-.05,.32-.2,.66-.43,.86-.28,.26-.65,.45-1.05,.43-.39-.02-.81-.14-1.08-.45-.46-.53-.92-1.06-1.38-1.59-.1,.34-.37,.7-.69,.87-.75,.39-1.6,.16-2.05-.55-.12-.19-.25-.38-.39-.56-.36-.46-.76-.87-1.18-1.26,0,.17-.04,.33-.12,.48-.06,.19-.17,.35-.32,.49-.28,.26-.65,.45-1.05,.43l-.4-.05c-.26-.07-.49-.2-.68-.4-.56-.5-1.11-.99-1.67-1.49-.02,.06-.04,.13-.07,.19-.06,.19-.17,.35-.32,.49l-.31,.23c-.23,.13-.48,.2-.74,.2l-.4-.05c-.26-.07-.49-.2-.68-.4-.29-.37-.58-.74-.86-1.12-.14-.14-.25-.3-.31-.48-.03-.05-.04-.1-.06-.15l-.26,.19c-.23,.13-.48,.2-.74,.2-.19,0-.38-.04-.56-.07-.07,0-.13-.02-.2-.04-.06-.02-.12-.03-.18-.06-.18-.07-.36-.14-.53-.22-.11-.05-.22-.12-.32-.19-.12-.09-.24-.18-.36-.28,0,.06-.01,.13-.03,.19-.12,.37-.35,.73-.7,.91-.33,.17-.78,.29-1.14,.15-.79-.31-1.59-.62-2.38-.93-.2-.05-.38-.14-.52-.28-.16-.11-.29-.25-.39-.43-.18-.32-.26-.78-.15-1.14,.12-.37,.35-.73,.7-.91Z"/>
</svg>