<?xml version="1.0" encoding="UTF-8"?>
<svg id="Body" xmlns="http://www.w3.org/2000/svg" viewBox="0 0 500 500">
  <defs>
    <style>
      .cls-1 {
        fill: #f9d79c;
      }

      .cls-2 {
        fill: #ffe5bb;
      }
    </style>
  </defs>
  <g id="__beige" data-name="4_beige">
    <path class="cls-2" d="M339.01,420.9c2.98,5.76,5.41,11.8,7.32,18,6.09,19.72,7.11,40.54,7.38,61.1h75.97c-1-14.03-2.69-28.01-5.11-41.87-2.18-12.48-4.73-25-8.63-37.07-3.65-11.29-8.54-22.42-14.63-32.59-7.08-11.81-13.78-23.31-22.85-33.74-8.35-9.6-18.12-17.52-29.71-22.9-.98-.46-1.22-1.87-.72-2.74,.56-.96,1.67-1.15,2.63-.76,.01-.31,.1-.64,.32-.98,3.37-5.1,6.62-10.28,9.73-15.54,8.85-14.98,17.53-30.91,23.48-47.31,5.76-15.86,7.3-33.87,7.56-50.62,.37-24.31-2.25-50.56-13.38-72.48-2.21-4.36-4.55-8.64-6.8-12.98-1.74-3.37-3.31-6.89-5.71-9.79-2.56-3.1-4.82-6.49-7.35-9.63-2.41-2.99-5.89-5.14-8.77-7.71-4.05-3.61-8.94-6.92-14.47-7.52-5.98-.66-10.92,2.03-16.24,4.09-8.8,3.41-17.25,7.94-25.12,13.2-5.25,3.51-10.79,7.72-14.79,12.66-1.53,1.88-3.29,3.37-5.8,3.57-2.35,.19-.77-2.35-.56-2.27-5.83-2.06-11.89-3.36-17.98-4.42-5.13-.89-10.28-1.69-15.43-2.52-3.46-.56-6.39-.11-8.38-3.35-2.12-3.47-2.78-8.42-4.88-12.14-4.67-8.28-11.31-15.57-18.91-21.25-2.08-1.55-4.28-2.91-6.81-3.75-2.63-.88-5.3-1.57-7.94,.04-.81,.49-1.56,1.11-2.42,1.46-3.13,1.28-6.24,2.57-9.05,4.47-2.41,1.62-5,3.02-7.29,4.75-17.06,12.9-31.8,25.38-42.48,44.23-2.14,3.77-4.52,7.4-6.63,11.18-.69,1.24-1.64,2.32-2.2,3.62-1.53,3.56-3.53,6.87-5.37,10.26-1.62,2.98-3.15,6.01-4.45,9.13-.61,1.47-1.58,2.72-2.19,4.15-5.89,13.97-11.18,29.95-14.03,46.29,.22,.04,.44,.09,.66,.14-.2,1.15-.39,2.3-.56,3.45-.22-.04-.44-.1-.67-.14-.8,5.25-1.35,10.53-1.56,15.78,0,.02,.23,.06,.62,.1-.06,1.15-.1,2.29-.13,3.44-.19-.02-.39-.03-.58-.05-.06,4.93,.19,9.81,.79,14.62,.21,3.77,.72,7.64,2.05,11,1.47,5.84,3.55,11.51,6.37,16.9,5.57,10.67,13.02,20.7,21.92,29.11,10.48,9.91,21.56,16.83,34.42,23.48,9.67,5,19.83,9.39,30.64,11.12,15.44,2.47,30.52,.37,45.91-1.16,15.93-1.59,31.66-5.08,46.77-10.35,13.44-4.68,26.38-10.77,38.66-17.96,3.07-1.8,6.1-3.66,9.09-5.59,1.21-.78,6.22-5.32,7.27-2.29,.97,2.8-13.75,10.6-16.15,12.04-4.34,2.6-8.78,5.04-13.3,7.3-17.3,8.65-35.9,14.51-54.85,18.24-8.99,1.77-17.94,2.33-26.89,3.79-9.45,1.54-19.1,2.24-28.67,1.53-15.47-1.15-28.16-7.3-41.77-14.17-5.61-2.83-11.14-5.95-16.41-9.44-.16,.27-.38,.5-.67,.66-12.23,6.99-24.2,16.34-33.27,26.91-16.39,19.09-27.97,41.91-35.9,65.67-8.51,25.49-13.09,52.07-16.55,78.67h48.29c0-.14,.03-.29,.06-.43,1.38-6.57,2.46-13.2,3.6-19.81,3.68-21.35,8.38-43.63,23.41-60.16,.73-.8,2.18-.54,2.82,.2,.77,.89,.52,2.02-.2,2.82-3.84,4.23-7.03,9.06-9.65,14.12-10.12,19.56-11.65,42.02-16.02,63.26h243.83c-.05-3.94-.14-7.88-.28-11.82-.8-22.3-3.51-45.16-13.88-65.26-1.18-2.29,2.27-4.31,3.45-2.02ZM212.48,116.64c-2.09,3.56-9.83,4.12-13.4,5.14-5.07,1.46-10.45,2.65-15.71,3.12-2.42,.22-4.78,.78-7.16,1.36-2.99,.72-6.07,1.07-9.53,1.01-1.4,.16-3.09-.13-4.79-.64-1.75-.52-3.12-1.43-4.2-2.89-.98-1.32-1.27-2.11-.18-3.12,1.38-1.28,2.09-2.94,3.19-4.36,2.62-3.36,5.29-6.73,8.68-9.3,3.87-2.94,7.69-5.95,11.55-8.9,3.29-2.52,7-4.08,10.57-5.98,3.85-2.06,9.9-1.16,12.56,2.22,2.72,3.45,5.27,7.09,6.35,11.5,.75,3.07,3.95,7.63,2.06,10.84Zm120.89,30.14c-2.07-1.28-4.21-2.46-6.21-3.86-3.28-2.31-6.58-4.61-9.7-7.13-1.56-1.25-3.67-3.59-4.08-5.56-.24-1.13-.16-2.3,.07-3.44,.05-.26,.12-.52,.19-.78,1.28-4.74,4.84-8.33,8.52-11.35,3.38-2.77,7.02-5.14,11.46-5.86,.75-.12,1.28-.61,1.89-.94,4.91-2.69,12.12,.68,15.01,4.94,2.27,3.36,3.31,7.37,4.81,11.13,2.98,7.43,8.63,14.44,8.83,22.74,.15,6.09-2.25,9.1-8.42,8.67-5.9-.42-11.56-3.04-16.8-5.27-1.99-.85-3.74-2.16-5.58-3.29Z"/>
    <g>
      <path class="cls-1" d="M175.2,210.27c-3.13-.14-9.97,4.04-12.8,4.37-7.98,.93-17.53,0-24.46-4.09-3.59-2.11-7.2-4.69-8.87-8.51-.96-2.2-.17-11.66-4.76-10.89-4.49,.76-3.03,11.78-2.27,14.73,1.93,7.42,8.76,13.03,15.52,16.25,9.91,4.72,18.94,3.67,28.94-.51,2.74-1.14,14.15-6.39,9.92-10.89-.28-.3-.7-.44-1.22-.46Z"/>
      <path class="cls-1" d="M280.77,231.11c-.2,.17-.4,.34-.61,.5-2.84,2.19-6.47,3.19-10.05,3.43-6.82,.45-15.94,.23-21.61-4.12-2.49-1.91-4.45-4.44-5.94-7.18-1.25-2.28-1.72-6.07-3.72-7.77-5.61-4.77-3.07,11.3-1.99,13.55,3.9,8.14,10.85,14.07,19.87,15.82,5.88,1.14,12.15,.86,17.8-1.19,5.96-2.16,11.4-6.94,14.82-12.2,.52-.8,1.01-1.65,1.16-2.59s-.13-2.01-.9-2.57c-.7-.51-1.66-.52-2.47-.23-2.24,.78-4.56,3.04-6.35,4.56Z"/>
      <path class="cls-1" d="M301.88,328.06c-4.32,1.76-8.38,4.26-12.69,6.14-7.34,3.2-14.94,5.83-22.69,7.85-5.5,1.44-11.08,2.57-16.71,3.39-5.08,.74-10.37,.72-15.36,1.8-12.04,2.61-24.9,3.8-37.12,2.2-11.99-1.56-23.56-5.34-34.64-10.09-6.7-2.87-12.61-7.11-18.76-10.99-1-.63-2.2-1.03-3.38-.86-.47,.07-.93,.22-1.38,.38-2.41,.85-5,1.96-6.13,4.24-.71,1.44-.72,3.17-.16,4.67,.82,2.2,3.07,4.14,4.93,5.5,23.11,16.87,49.29,28.39,78.44,25.14,15.23-1.7,29.85-6.12,44.41-10.73,17.49-5.53,35.22-11.65,48.52-24.94,1.25-1.24,2.52-2.74,2.47-4.5-.01-.36-.09-.73-.34-.98-.35-.35-.92-.35-1.42-.3-2.82,.24-5.45,1.02-8,2.06Z"/>
      <path class="cls-1" d="M271.77,123.43c-2.61-2.52-7.91-2.66-11.21-3.81-6.4-2.22-12.84-4.42-19.59-5.31-4.1-.54-8.79-.49-11.91,2.63-3.57,3.57-4.23,8.99,.75,11.48,1.88,.94,4,1.27,6.08,1.59,4.5,.69,9.87,.53,14.12,1.95,4.92,1.61,9.84,3.37,15.05,1.83,4.06-1.19,10.63-6.56,6.7-10.37Z"/>
      <path class="cls-1" d="M120.36,297.66c-.65-.64-1.11-1.09-1.31-1.28-10.19-9.58-12.53-26.71-13.24-39.91-2.01-37.88,4.56-78.85,22.92-112.23,1.4-2.55,2.85-5.26,2.75-8.17-1.83-.7-3.62,1.05-4.75,2.65-10.13,14.4-18.07,28.11-23.84,44.94-2.55,7.44-4.98,15.76-5.67,23.61s-2.98,15.52-3.7,23.41c-1.25,13.65-1.6,28.96,4.14,41.62,3.11,6.86,6.67,13.82,10.71,20.3,5.42,8.72,11.96,19,20.68,24.73,1.77,1.16,3.99,2.16,5.95,1.34,4.25-1.79-9.98-16.41-14.63-21.01Z"/>
      <g>
        <path class="cls-1" d="M75.18,489.21c-.63-29.21,2.59-58.49,9.55-86.86,1.42-5.79,3.59-12.67,1.91-18.6-3.11,1.64-5.4,4.32-7.2,7.5-3.39,6.01-5.01,13.76-7.05,19.49-4.3,12.08-8.36,24.25-11.75,36.62-2.55,9.33-4.72,18.77-6.28,28.32-.84,5.15-3.76,16.56-2.23,24.34h21.39c1.24-3.28,1.74-7.12,1.66-10.79Z"/>
        <path class="cls-1" d="M132.5,449.37c1.65-6.16,3.87-12.21,4.5-18.56,.19-1.96,.23-3.98-.35-5.86-.58-1.88-1.84-3.64-3.65-4.41-.68-.29-1.47-.44-2.16-.18-.48,.17-.87,.52-1.24,.86-2.79,2.55-5.29,5.45-7.34,8.62-1.82,2.81-3.27,5.84-4.24,9.04-2.42,8-5.6,15.59-6.97,23.9-1.87,11.34-4.13,22.7-6.23,34.05-.19,1.05-.36,2.14-.17,3.18h20.28c.96-1.84,1.32-4.15,1.53-6.27,1.5-14.87,2.18-29.93,6.04-44.36Z"/>
        <path class="cls-1" d="M351.67,477.81c.1-5.76-.2-11.53-.93-17.25-1.45-11.53-4.59-22.83-9.17-33.5-1.01-2.35-4.38-4.3-6.61-5.33-.38-.17-.76-.35-1.17-.38-.63-.05-1.23,.23-1.76,.56-2.88,1.8-4.52,5.14-5.02,8.5-.82,5.5,.96,10.82,1.65,16.22,.68,5.35,.75,10.78,.21,16.15-1.07,10.65-4.56,21-10.09,30.15-1.36,2.25-1.25,4.9-.18,7.07h32.34c.7-1.48,.98-3.19,1.13-4.85,.53-5.83-.5-11.54-.39-17.35Z"/>
        <path class="cls-1" d="M430.33,483.83c-1.85-13.92-3.85-27.67-8.15-41.31-3.07-23.23-12.5-43.68-22.91-64.27-8.91-17.61-26.5-36.43-44.52-44.55-1.22-.55-2.54-1.2-3.06-2.44-1.14-2.73,13.72-23.41,15.79-27.44,5.2-10.15,9.85-20.59,13.72-31.31,7.64-21.14,12.16-43.43,12.16-65.96,0-16.96-1.48-33.47-6.39-49.72-4.52-14.93-11.82-25.72-20.65-38.76,8.19,28.52,8,58.73,3.78,87.9-1,6.93-2.11,13.85-3.18,20.77-.61,3.98-1.23,7.97-2.14,11.89-3.47,14.96-9.01,28.98-15.75,42.73-2.35,4.79-4.87,9.49-7.46,14.16-1.03,1.87-2.08,3.73-3.13,5.59-1.41,2.49-2.82,4.99-4.58,7.24-1.96,2.5-4.33,4.68-6.98,6.43-2.81,1.85-5.73,2.78-8.1,5.29-2.28,2.42-2.32,4.52-.63,7.46,3.26,5.67,11.06,7.46,16.34,10.62,3.01,1.8,4.8,4.47,7.08,7.09,4.49,5.18,9.27,9.92,13.68,15.16,4.48,5.32,8.87,10.71,13.07,16.25,8.38,11.06,16.02,22.75,21.85,35.36,.18,.38,.35,.76,.52,1.14,5.74,12.7,9.47,26.3,11.22,40.12,.86,6.86,1.24,13.78,1.11,20.69-.06,3.51-.26,7.03-.58,10.53-.46,4.92-1.91,9.95-2.85,14.81-.04,.22-.08,.46-.1,.69h32.74c.66-5.07-1.25-11.33-1.9-16.17Z"/>
      </g>
      <path class="cls-1" d="M327.71,311.37c-8.3,2.2-15.92,6.17-24.32,8.35-18.93,4.91-38.31,8.76-57.68,10.96-13.7,1.56-27.51,2.17-41.3,1.79-6.98-.19-13.98-.66-20.86-1.95-9.66-1.81-19.73-5.15-28.69-9.18s-16.68-9.53-24.8-14.63c-1.34-.84-3.63-3.46-5.35-3.22-3.46,.47,.95,5.9,1.84,7.18,8.29,11.99,20.22,18.92,32.74,25.65,9.72,5.22,19.97,9.15,30.94,10.73,6.21,.89,12.49,1.68,18.75,1.36,18.65-.95,36.57-3.2,54.86-6.93,4.47-.91,8.95-1.82,13.29-3.22,2.99-.96,5.89-2.16,8.8-3.35l7.91-3.24c7.94-3.26,15.91-6.52,23.42-10.68,4.54-2.51,9.17-4.28,13.08-7.79,.81-.72,1.65-1.86,1.07-2.79-1.23,.32-2.47,.64-3.7,.96Z"/>
    </g>
    <path d="M421.11,424.25c-5.68-19.33-14.33-38.51-26.22-54.84-7.65-10.51-15.54-21.07-25.64-29.38-4.75-3.91-9.88-7.29-15.34-10.1,.19-.14,.37-.31,.52-.55,2.68-4.06,5.28-8.18,7.79-12.34,7.25-19.12,21.71-35.58,27.22-55.18,5.77-20.55,6.18-42.1,5.98-63.3-.09-9.36-1.98-18.53-3.46-27.74-1.74-10.87-6.08-21.2-10.94-31.01-4.7-9.47-9.26-18.83-15.81-27.25-3.76-4.84-8.31-9.33-13.22-13.03-2.42-1.82-4.87-3.6-7.25-5.48-1.79-1.41-2.97-3.08-5.37-3.53-1.62-.3-3.3-.32-4.94-.19-3.19,.25-6.29,1.14-9.32,2.14-4.33,1.43-8.58,3.08-12.76,4.91-8.37,3.66-16.38,8.12-23.9,13.3-2.62,1.81-4.98,3.93-7.41,5.95-1.09,.91-2.1,1.52-3.05,2.59-.77,.87-1.67,2.19-2.93,2.35-1.77,.23-4.77-1.22-6.49-1.7-4.21-1.17-8.42-2.39-12.73-3.14-6.95-1.21-13.92-2.27-20.89-3.39-.09-.01-.17-.02-.26-.02-2.6-12.63-10.66-20.1-18.84-29.36-.19-.22-.38-.43-.58-.65-.96-1.06-1.97-2.13-3.04-3.15-2.25-2.14-4.77-4.04-7.58-5.14-3.38-1.32-7.87-3.15-11.35-1.43-3.67,1.81-7.46,3.39-11.06,5.36-2.23,1.22-4.21,2.79-6.34,4.14-7.82,4.93-15.63,9.85-22.12,16.5-1.88,1.93-3.76,3.89-5.6,5.88-2.99,3.22-5.91,6.53-8.68,9.94-3.06,3.76-5.95,7.64-8.58,11.67-2.32,3.57-4.51,7.22-6.65,10.9-4.48,7.69-8.79,14.73-12.33,23.03-5.54,12.98-12.3,26.52-15.04,40.42-1.02,5.16-2.01,10.24-2.88,15.3-1.03-.18-2.06-.36-3.09-.52-.94-.15-1.87,.24-2.15,1.22-.24,.83,.29,2.01,1.22,2.15,1.15,.18,2.3,.38,3.45,.58-.84,5.33-1.49,10.65-1.8,16.01-2.1-.17-4.2-.33-6.3-.51-2.24-.19-2.23,3.31,0,3.5,2.05,.17,4.1,.33,6.15,.5-.18,6.51,.17,13.1,1.36,19.85h-.13c.07,.36,.13,.71,.2,1.05-1.28,.26-2.56,.53-3.83,.79-2.2,.46-1.27,3.83,.93,3.38,1.25-.26,2.5-.52,3.74-.77,.99,4.36,2.27,8.64,3.73,12.74,2.81,7.86,6.93,14.94,11.98,21.58,3.38,4.44,7.05,8.64,10.72,12.84,4.82,5.51,10.62,9.59,15.95,14.44-5.71,3.01-10.86,7.82-16.23,11.61-14.73,10.4-25.86,27.56-35.39,42.82-4.75,7.6-7.64,16.01-12.05,23.65-7.14,17.16-12.21,35.2-15.96,53.39-2.93,14.2-5.09,28.55-6.95,42.93h4c3.46-26.6,8.03-53.18,16.55-78.67,7.94-23.77,19.52-46.58,35.9-65.67,9.07-10.56,21.04-19.92,33.27-26.91,.29-.16,.51-.4,.67-.66,5.27,3.5,10.8,6.61,16.41,9.44,13.61,6.87,26.3,13.02,41.77,14.17,9.56,.71,19.22,0,28.67-1.53,8.95-1.46,17.9-2.02,26.89-3.79,18.95-3.73,37.56-9.59,54.85-18.24,4.52-2.26,8.96-4.7,13.3-7.3,2.4-1.44,17.12-9.24,16.15-12.04-1.05-3.03-6.06,1.51-7.27,2.29-2.99,1.93-6.02,3.79-9.09,5.59-12.28,7.18-25.22,13.27-38.66,17.96-15.11,5.27-30.84,8.77-46.77,10.35-15.38,1.53-30.47,3.63-45.91,1.16-10.81-1.73-20.98-6.13-30.64-11.12-12.86-6.65-23.94-13.57-34.42-23.48-8.9-8.41-16.34-18.44-21.92-29.11-3.15-6.03-5.38-12.39-6.87-18.97,5.88-1.22,11.77-2.44,17.65-3.64,4.32-.89,8.64-1.74,13.01-2.38,2.25-.33,4.52-.6,6.79-.79,1.49-.12,6.96,.77,6.36-2.24-.21-1.04-1.02-1.62-2.18-1.55-.08,0-.17,0-.25,0,0,.02,.01,.03,.02,.05-8.16,.31-16.21,1.81-24.2,3.44-5.97,1.22-11.93,2.46-17.9,3.7-1.21-6.56-1.71-13.31-1.63-20.12,15.96,1.28,31.93,2.41,47.91,3.38,.04,.01,.07,.02,.11,.03,1.48,.51,4.35,.04,3.76-2.13-.53-1.93-3.92-1.4-5.4-1.49-5.15-.32-10.29-.65-15.43-1-2.58-.18-30.85-2.03-30.84-2.29,.21-5.25,.76-10.53,1.56-15.78,7.44,1.42,14.78,3.29,22.01,5.57,8.83,2.78,17.71,5.8,27.06,6.02,2.25,.05,2.25-3.45,0-3.5-9.18-.21-17.9-3.32-26.58-6.03-7.2-2.26-14.52-4.1-21.93-5.5,2.85-16.34,8.14-32.32,14.03-46.29,.61-1.44,1.57-2.68,2.19-4.15,1.3-3.12,2.83-6.15,4.45-9.13,1.84-3.39,3.85-6.7,5.37-10.26,.56-1.3,1.5-2.38,2.2-3.62,2.11-3.78,4.5-7.41,6.63-11.18,10.69-18.85,25.43-31.33,42.48-44.23,2.29-1.73,4.88-3.13,7.29-4.75,2.81-1.9,5.93-3.19,9.05-4.47,.86-.35,1.62-.97,2.42-1.46,2.64-1.61,5.3-.92,7.94-.04,2.53,.84,4.73,2.2,6.81,3.75,7.61,5.68,14.24,12.97,18.91,21.25,2.1,3.73,2.76,8.67,4.88,12.14,1.98,3.24,4.92,2.79,8.38,3.35,5.14,.83,10.29,1.63,15.43,2.52,6.09,1.06,12.15,2.36,17.98,4.42-.21-.07-1.79,2.46,.56,2.27,2.51-.2,4.27-1.69,5.8-3.57,4-4.94,9.53-9.15,14.79-12.66,7.87-5.26,16.32-9.8,25.12-13.2,5.33-2.06,10.27-4.75,16.24-4.09,5.53,.61,10.42,3.91,14.47,7.52,2.89,2.57,6.36,4.72,8.77,7.71,2.53,3.14,4.79,6.53,7.35,9.63,2.4,2.91,3.97,6.42,5.71,9.79,2.24,4.34,4.58,8.63,6.8,12.98,11.13,21.92,13.75,48.17,13.38,72.48-.26,16.75-1.8,34.76-7.56,50.62-5.96,16.39-14.63,32.33-23.48,47.31-3.11,5.26-6.36,10.44-9.73,15.54-.22,.33-.31,.66-.32,.98-.96-.39-2.07-.2-2.63,.76-.51,.86-.27,2.28,.72,2.74,11.58,5.37,21.36,13.3,29.71,22.9,9.08,10.43,15.77,21.93,22.85,33.74,6.1,10.17,10.98,21.31,14.63,32.59,3.91,12.07,6.45,24.59,8.63,37.07,2.42,13.86,4.11,27.84,5.11,41.87h4c-.9-12.6-2.35-25.16-4.36-37.63-2.07-12.81-4.55-25.65-8.21-38.11Z"/>
    <path d="M339.01,420.9c-1.18-2.29-4.63-.27-3.45,2.02,10.37,20.09,13.07,42.96,13.88,65.26,.14,3.94,.22,7.88,.28,11.82h4c-.27-20.55-1.29-41.37-7.38-61.1-1.91-6.2-4.35-12.24-7.32-18Z"/>
    <path d="M131.55,422.62c.73-.8,.97-1.94,.2-2.82-.64-.74-2.09-1.01-2.82-.2-15.03,16.53-19.74,38.8-23.41,60.16-1.14,6.61-2.22,13.24-3.6,19.81-.03,.14-.05,.29-.06,.43h4.01c4.37-21.24,5.9-43.7,16.02-63.26,2.62-5.07,5.81-9.9,9.65-14.12Z"/>
    <g>
      <path d="M185.72,373.76c-.56-.29-1.41-.18-1.71,.45-1.15,2.44-2.3,4.87-3.45,7.31-.28,.59-.18,1.38,.45,1.71,.56,.29,1.41,.18,1.71-.45,1.15-2.44,2.3-4.87,3.45-7.31,.28-.59,.18-1.38-.45-1.71Z"/>
      <path d="M217.31,397.31c-.74,.03-1.17,.55-1.25,1.25l-.68,5.63c-.08,.65,.63,1.28,1.25,1.25,.74-.03,1.17-.55,1.25-1.25l.68-5.63c.08-.65-.63-1.28-1.25-1.25Z"/>
      <path d="M253.43,360.6c-.68,.03-1.25,.55-1.25,1.25v3.95c0,.65,.57,1.28,1.25,1.25,.68-.03,1.25-.55,1.25-1.25v-3.95c0-.65-.57-1.28-1.25-1.25Z"/>
      <path d="M287.94,408.4c-.74-2.07-1.49-4.15-2.23-6.22-.22-.61-.86-1.09-1.54-.87-.6,.2-1.11,.88-.87,1.54,.74,2.07,1.49,4.15,2.23,6.22,.22,.61,.86,1.09,1.54,.87,.6-.2,1.11-.88,.87-1.54Z"/>
      <path d="M169.72,445.35c-.15-.26-.45-.51-.75-.57-.32-.07-.68-.06-.96,.13-.26,.17-.51,.43-.57,.75-.19,.94-.39,1.88-.58,2.82-.07,.33-.05,.67,.13,.96,.15,.26,.45,.51,.75,.57,.32,.07,.68,.06,.96-.13,.26-.17,.51-.43,.57-.75l.58-2.82c.07-.33,.05-.67-.13-.96Z"/>
      <path d="M269.32,449.05c-.1-.32-.29-.57-.57-.75-.09-.08-.17-.16-.25-.25-.06-.09-.11-.18-.16-.27-.04-.11-.07-.22-.09-.34,0-.11-.02-.21,0-.32,.03-.3-.16-.68-.37-.88s-.57-.38-.88-.37c-.32,.01-.66,.12-.88,.37l-.2,.25c-.11,.19-.17,.41-.17,.63-.03,.33,.02,.67,.08,1,.06,.32,.19,.63,.34,.91,.29,.58,.77,1.07,1.32,1.42,.27,.17,.66,.21,.96,.13,.29-.08,.6-.3,.75-.57,.15-.29,.23-.64,.13-.96Z"/>
      <path d="M308.68,451.6c-.38-.75-.75-1.51-1.13-2.26-.13-.27-.46-.5-.75-.57-.3-.08-.7-.05-.96,.13-.27,.17-.5,.43-.57,.75-.08,.34-.03,.65,.13,.96,.38,.75,.75,1.51,1.13,2.26,.13,.27,.46,.5,.75,.57,.3,.08,.7,.05,.96-.13,.27-.17,.5-.43,.57-.75,.08-.34,.03-.65-.13-.96Z"/>
      <path d="M225.51,473.91c-.11-.12-.25-.21-.4-.26-.15-.08-.31-.11-.48-.11-.32,.01-.66,.12-.88,.37-.22,.24-.37,.55-.37,.88v1.69c0,.32,.14,.66,.37,.88,.11,.12,.25,.21,.4,.26,.15,.08,.31,.11,.48,.11,.32-.01,.66-.12,.88-.37,.22-.24,.37-.55,.37-.88v-1.69c0-.32-.14-.66-.37-.88Z"/>
      <path d="M381.03,196.1c-.52-1.33-1.05-2.67-1.57-4-.12-.31-.27-.57-.57-.75-.27-.16-.66-.22-.96-.13-.3,.1-.59,.29-.75,.57-.15,.28-.25,.66-.13,.96,.52,1.33,1.05,2.67,1.57,4,.12,.31,.27,.57,.57,.75,.27,.16,.66,.22,.96,.13,.3-.1,.59-.29,.75-.57,.15-.28,.25-.66,.13-.96Z"/>
      <path d="M378.21,213.04c-.18-.57-.37-1.13-.55-1.7-.1-.31-.29-.58-.57-.75-.14-.09-.3-.14-.46-.15-.17-.04-.33-.03-.5,.02-.3,.1-.59,.29-.75,.57-.15,.29-.23,.64-.13,.96,.18,.57,.37,1.13,.55,1.7,.1,.31,.29,.58,.57,.75,.14,.09,.3,.14,.46,.15,.17,.04,.33,.03,.5-.02,.3-.1,.59-.29,.75-.57,.15-.29,.23-.64,.13-.96Z"/>
      <path d="M385.05,232.21c-.38-1.5-.76-3.01-1.15-4.51-.16-.63-.9-1.08-1.54-.87-.66,.21-1.05,.86-.87,1.54,.38,1.5,.76,3.01,1.15,4.51,.16,.63,.9,1.08,1.54,.87,.66-.21,1.05-.86,.87-1.54Z"/>
      <path d="M373.47,236.17c-.22-.22-.57-.38-.88-.37-.32,.01-.66,.12-.88,.37-.22,.24-.37,.55-.37,.88v2.26c0,.32,.14,.66,.37,.88s.57,.38,.88,.37c.32-.01,.66-.12,.88-.37,.22-.24,.37-.55,.37-.88v-2.26c0-.32-.14-.66-.37-.88Z"/>
      <path d="M380.57,257.05l-.56-2.82c-.06-.29-.32-.6-.57-.75-.27-.16-.66-.22-.96-.13-.3,.1-.59,.29-.75,.57-.16,.31-.19,.62-.13,.96,.19,.94,.38,1.88,.56,2.82,.06,.29,.32,.6,.57,.75,.27,.16,.66,.22,.96,.13,.3-.1,.59-.29,.75-.57,.16-.31,.19-.62,.13-.96Z"/>
      <path d="M364.27,264.16c-.04-.34-.11-.63-.37-.88-.22-.22-.57-.38-.88-.37-.32,.01-.66,.12-.88,.37-.21,.23-.41,.56-.37,.88,.19,1.51,.38,3.01,.58,4.52,.04,.34,.11,.63,.37,.88,.22,.22,.57,.38,.88,.37,.32-.01,.66-.12,.88-.37,.21-.23,.41-.56,.37-.88-.19-1.51-.38-3.01-.58-4.52Z"/>
      <path d="M374.85,274.97c-.05-.15-.14-.29-.26-.4-.11-.12-.25-.21-.4-.26-.15-.08-.31-.11-.48-.11l-.33,.04c-.21,.06-.4,.17-.55,.32l-.2,.25c-.11,.19-.17,.41-.17,.63v1.13c0,.17,.03,.33,.11,.48,.05,.15,.14,.29,.26,.4,.11,.12,.25,.21,.4,.26,.15,.08,.31,.11,.48,.11l.33-.04c.21-.06,.4-.17,.55-.32l.2-.25c.11-.2,.17-.41,.17-.63v-1.13c0-.17-.03-.33-.11-.48Z"/>
      <path d="M360.72,290.58c-.68,.03-1.25,.55-1.25,1.25v3.95c0,.65,.57,1.28,1.25,1.25,.68-.03,1.25-.55,1.25-1.25v-3.95c0-.65-.57-1.28-1.25-1.25Z"/>
      <path d="M398.31,401.06c-1.13-1.13-2.26-2.26-3.39-3.39-.46-.46-1.31-.5-1.77,0-.46,.5-.49,1.27,0,1.77,1.13,1.13,2.26,2.26,3.39,3.39,.46,.46,1.31,.5,1.77,0,.46-.5,.49-1.27,0-1.77Z"/>
      <path d="M410.17,417.44l-2.26-2.26c-.23-.23-.56-.37-.88-.37s-.67,.14-.88,.37c-.22,.24-.38,.55-.37,.88,.01,.33,.13,.64,.37,.88l2.26,2.26c.23,.23,.56,.37,.88,.37s.67-.14,.88-.37c.22-.24,.38-.55,.37-.88-.01-.33-.13-.64-.37-.88Z"/>
      <path d="M402.43,429.58c-.57-.75-1.14-1.5-1.71-2.25-.08-.15-.19-.26-.32-.35-.12-.11-.26-.19-.43-.22-.3-.08-.7-.05-.96,.13-.27,.17-.5,.43-.57,.75-.07,.3-.07,.7,.13,.96,.57,.75,1.14,1.5,1.71,2.25,.08,.15,.19,.26,.32,.35,.12,.11,.26,.19,.43,.22,.3,.08,.7,.05,.96-.13,.27-.17,.5-.43,.57-.75,.07-.31,.07-.7-.13-.96Z"/>
      <path d="M417.71,447.06c-.73-1.33-1.47-2.66-2.2-3.98-.32-.57-1.15-.81-1.71-.45-.58,.37-.79,1.1-.45,1.71l2.2,3.98c.32,.57,1.15,.81,1.71,.45,.58-.37,.79-1.1,.45-1.71Z"/>
      <path d="M412.22,460.9c-.37-.94-.75-1.88-1.12-2.83-.12-.31-.27-.57-.57-.75-.27-.16-.66-.22-.96-.13-.3,.1-.59,.29-.75,.57-.15,.28-.25,.66-.13,.96,.37,.94,.75,1.88,1.12,2.83,.12,.31,.27,.57,.57,.75,.27,.16,.66,.22,.96,.13,.3-.1,.59-.29,.75-.57,.15-.28,.25-.66,.13-.96Z"/>
      <path d="M422.29,473.18c-.05-.15-.14-.29-.26-.4-.11-.12-.25-.21-.4-.26-.15-.08-.31-.11-.48-.11l-.33,.04c-.21,.06-.4,.17-.55,.32l-.2,.25c-.11,.19-.17,.41-.17,.63v1.13c0,.17,.03,.33,.11,.48,.05,.15,.14,.29,.26,.4,.11,.12,.25,.21,.4,.26,.15,.08,.31,.11,.48,.11l.33-.04c.21-.06,.4-.17,.55-.32l.2-.25c.11-.2,.17-.41,.17-.63v-1.13c0-.17-.03-.33-.11-.48Z"/>
      <path d="M417.22,486.34c-.38-1.13-.75-2.26-1.13-3.39-.1-.31-.29-.58-.57-.75-.27-.16-.66-.22-.96-.13-.62,.2-1.09,.87-.87,1.54,.38,1.13,.75,2.26,1.13,3.39,.1,.31,.29,.58,.57,.75,.27,.16,.66,.22,.96,.13,.62-.2,1.09-.87,.87-1.54Z"/>
      <path d="M86.24,406.99c-.17-.27-.43-.5-.75-.57-.31-.07-.7-.07-.96,.13-1.37,1.02-2.53,2.27-3.37,3.77-.32,.57-.16,1.39,.45,1.71,.59,.31,1.37,.16,1.71-.45,.23-.41,.49-.8,.78-1.18,.52-.65,1.11-1.24,1.77-1.76l-.05,.04c.26-.19,.46-.4,.55-.73,.08-.3,.05-.7-.13-.96Z"/>
      <path d="M84.1,421.38c-.04-.16-.11-.3-.22-.43-.09-.14-.21-.24-.35-.32-.29-.15-.64-.23-.96-.13l-.3,.13c-.19,.11-.34,.26-.45,.45l-1.13,1.69c-.09,.14-.14,.3-.15,.46-.04,.17-.03,.33,.02,.5,.04,.16,.11,.3,.22,.43,.09,.14,.21,.24,.35,.32,.29,.15,.64,.23,.96,.13l.3-.13c.19-.11,.34-.26,.45-.45l1.13-1.69c.09-.14,.14-.3,.15-.46,.04-.17,.03-.33-.02-.5Z"/>
      <path d="M73.93,440.02c-.04-.16-.11-.3-.22-.43-.09-.14-.21-.24-.35-.32-.29-.15-.64-.23-.96-.13l-.3,.13c-.19,.11-.34,.26-.45,.45l-1.13,1.69c-.09,.14-.14,.3-.15,.46-.04,.17-.03,.33,.02,.5,.04,.16,.11,.3,.22,.43,.09,.14,.21,.24,.35,.32,.29,.15,.64,.23,.96,.13l.3-.13c.19-.11,.34-.26,.45-.45l1.13-1.69c.09-.14,.14-.3,.15-.46,.04-.17,.03-.33-.02-.5Z"/>
      <path d="M85.17,446.2c-.04-.16-.11-.3-.22-.43-.09-.14-.21-.24-.35-.32l-.3-.13c-.22-.06-.44-.06-.66,0l-.3,.13c-.19,.11-.34,.26-.45,.45-.19,.38-.38,.75-.57,1.13-.09,.14-.14,.3-.15,.46-.04,.17-.03,.33,.02,.5,.04,.16,.11,.3,.22,.43,.09,.14,.21,.24,.35,.32l.3,.13c.22,.06,.44,.06,.66,0l.3-.13c.19-.11,.34-.26,.45-.45,.19-.38,.38-.75,.57-1.13,.09-.14,.14-.3,.15-.46,.04-.17,.03-.33-.02-.5Z"/>
      <path d="M69.3,465.71c-.17-.27-.43-.5-.75-.57-.31-.07-.69-.06-.96,.13-.28,.19-.56,.4-.8,.64-.25,.24-.46,.5-.67,.78-.36,.47-.62,1.01-.82,1.57-.1,.29-.03,.7,.13,.96,.15,.26,.45,.51,.75,.57,.32,.07,.68,.06,.96-.13,.28-.18,.46-.43,.57-.75,0-.02,.02-.04,.02-.06,.12-.26,.26-.5,.42-.74,.21-.26,.45-.5,.71-.71,.26-.18,.47-.41,.56-.73,.08-.3,.05-.7-.13-.96Z"/>
      <path d="M78.42,470.52c-.08-.3-.3-.59-.57-.75-.27-.16-.66-.22-.96-.13-.3,.1-.59,.29-.75,.57-.16,.3-.22,.63-.13,.96,.01,.04,.02,.08,.03,.12,0,.11,0,.23,0,.34-.02,.11-.05,.22-.09,.33-.07,.13-.13,.26-.22,.37l.04-.05c-.19,.23-.32,.5-.32,.81s.14,.67,.37,.88c.24,.22,.55,.38,.88,.37,.32-.01,.66-.12,.88-.37,.41-.46,.73-1.01,.87-1.62,.14-.61,.14-1.25-.03-1.86Z"/>
      <path d="M65.97,486.04c-.15-.26-.45-.51-.75-.57-.32-.07-.68-.06-.96,.13-.27,.18-.49,.43-.57,.75-.2,.75-.4,1.5-.6,2.25-.08,.32-.04,.68,.13,.96,.15,.26,.45,.51,.75,.57,.32,.07,.68,.06,.96-.13,.27-.18,.49-.43,.57-.75l.6-2.25c.08-.32,.04-.68-.13-.96Z"/>
    </g>
    <g>
      <path d="M339.75,227.54c-.02-.27-.1-.5-.21-.7-.12-.07-.23-.13-.34-.21-.04,.02-.09,.04-.13,.05-.45,.12-.88,.22-1.32,.38-.18,.06-.36,.11-.54,.13-17.08,7.04-35.34,10.3-53.12,15.07-4.96,1.33-9.89,2.8-14.75,4.49,0-.04,0-.07,0-.11-.28,.08-.51,.21-.72,.36-.53,.22-.85,.6-1,1.05-.05,.06-.1,.13-.15,.19-.29,.36-.37,.92-.07,1.35,.17,.25,.4,.38,.65,.44,.37,.37,.92,.55,1.59,.31,17.66-6.2,36.2-9.23,54.08-14.66,5.12-1.55,10.17-3.32,15.1-5.38,.88-.37,1.49-1.15,1.22-2.15-.06-.21-.17-.41-.31-.6Z"/>
      <path d="M332.14,278.06c-9.68,1.13-19.43,.48-29.12-.18-9.75-.66-19.5-1.33-29.25-1.99-1.77-.12-2.14,2.03-1.11,3.02,.18,.53,.45,.9,1.35,.5,9.67,.66,19.34,1.32,29.01,1.98,9.35,.64,18.74,1.24,28.08,.28,.88-.21,1.74-.47,2.62-.66,.02-.04,.04-.07,.05-.11,.12-.35,.15-.69,.11-1,0-.03,0-.05,0-.08,0-.86-.81-1.86-1.75-1.75Z"/>
      <path d="M331.87,253.73c-9.42,3.02-19.67,2.85-29.45,3.39l-31.1,1.71c-.76,.04-1.25,.47-1.5,1.02-.38,.4-.63,.85-.55,1.22,.14,.7,.58,.92,1.1,1.03,.25,.16,.57,.25,.96,.23,10.53-.58,21.07-1.16,31.6-1.74,9.93-.55,20.33-.42,29.89-3.49,2.14-.68,1.22-4.07-.93-3.38Z"/>
    </g>
  </g>
</svg>