<?xml version="1.0" encoding="UTF-8"?>
<svg id="Eyes" xmlns="http://www.w3.org/2000/svg" xmlns:xlink="http://www.w3.org/1999/xlink" viewBox="0 0 500 500">
  <defs>
    <style>
      .cls-1 {
        fill: url(#New_Gradient_Swatch_29-2);
      }

      .cls-2 {
        fill: url(#New_Gradient_Swatch_29);
      }

      .cls-3 {
        fill: url(#linear-gradient);
      }

      .cls-4 {
        fill: #fff;
      }

      .cls-5 {
        fill: url(#radial-gradient-2);
      }

      .cls-6 {
        fill: url(#linear-gradient-2);
      }

      .cls-7 {
        fill: url(#radial-gradient);
      }
    </style>
    <radialGradient id="radial-gradient" cx="266.25" cy="208.36" fx="266.25" fy="208.36" r="24.93" gradientTransform="matrix(1, 0, 0, 1, 0, 0)" gradientUnits="userSpaceOnUse">
      <stop offset="0" stop-color="#fff"/>
      <stop offset=".54" stop-color="#fcfcfc"/>
      <stop offset=".78" stop-color="#f5f5f5"/>
      <stop offset=".96" stop-color="#e9e9e9"/>
      <stop offset="1" stop-color="#e5e5e5"/>
    </radialGradient>
    <linearGradient id="New_Gradient_Swatch_29" data-name="New Gradient Swatch 29" x1="256.89" y1="213.16" x2="279.44" y2="213.16" gradientTransform="matrix(1, 0, 0, 1, 0, 0)" gradientUnits="userSpaceOnUse">
      <stop offset="0" stop-color="#bdc6b2"/>
      <stop offset=".22" stop-color="#a9b9a4"/>
      <stop offset=".65" stop-color="#759980"/>
      <stop offset="1" stop-color="#497d61"/>
    </linearGradient>
    <radialGradient id="radial-gradient-2" cx="155.41" cy="188.56" fx="155.41" fy="188.56" r="26.35" gradientTransform="matrix(1, 0, 0, 1, 0, 0)" gradientUnits="userSpaceOnUse">
      <stop offset="0" stop-color="#fff"/>
      <stop offset=".43" stop-color="#fbfbfb"/>
      <stop offset=".75" stop-color="#f2f2f2"/>
      <stop offset="1" stop-color="#e5e5e5"/>
    </radialGradient>
    <linearGradient id="New_Gradient_Swatch_29-2" data-name="New Gradient Swatch 29" x1="147.15" y1="193.55" x2="169.7" y2="193.55" xlink:href="#New_Gradient_Swatch_29"/>
    <linearGradient id="linear-gradient" x1="240.43" y1="194.35" x2="293.1" y2="194.35" gradientTransform="matrix(1, 0, 0, 1, 0, 0)" gradientUnits="userSpaceOnUse">
      <stop offset="0" stop-color="#fff"/>
      <stop offset=".21" stop-color="#e8e8e8"/>
      <stop offset=".51" stop-color="#cfcfcf"/>
      <stop offset=".78" stop-color="silver"/>
      <stop offset="1" stop-color="#bbb"/>
    </linearGradient>
    <linearGradient id="linear-gradient-2" x1="127.56" y1="174.08" x2="184.43" y2="174.08" xlink:href="#linear-gradient"/>
  </defs>
  <g id="_1_Eyes_green_3" data-name="11_Eyes_green_3">
    <g>
      <path d="M264.67,236.32c2.15,.01,4.22-.14,6.1-.44,9.69-1.52,19.66-6.73,22.88-16.44,1.43-4.31,2.42-9.22,1.72-13.77-.91-5.95-2.03-11.58-6.81-15.71-2.36-2.04-4.67-3.96-7.6-5.08-1.48-.57-2.6-1.95-4.25-2.36-7.03-1.75-12.58-2.98-19.69-.5-5.99,2.09-10.89,6.55-14.53,11.63-7.65,10.66-7.83,25.15,.92,35.1,4.71,5.36,13.53,7.52,21.26,7.56Zm-23.85-20.41c-.37-2.7-.26-5.73-.09-7.72,.39-4.55,1.94-9.01,4.5-12.8,7.86-11.62,24.18-14.52,36.03-7.19,2.11,1.31,4.11,3.44,5.79,5.23,7.91,8.45,5.11,21.36-.79,30.21-2.48,3.72-6.04,6.05-10.37,7.32-4.82,1.42-9.77,1.89-14.66,1.33-4.79-.55-9.54-1.77-13.54-4.86-2.46-1.9-3.76-4.63-5.44-7.1-.75-1.1-1.19-2.69-1.43-4.42Z"/>
      <path class="cls-7" d="M287.06,193.43c-1.68-1.79-3.68-3.93-5.79-5.23-11.85-7.32-28.16-4.43-36.03,7.19-2.56,3.79-4.11,8.25-4.5,12.8-.17,1.99-.28,5.02,.09,7.72,.24,1.73,.68,3.32,1.43,4.42,1.69,2.47,2.98,5.2,5.44,7.1,4,3.09,8.76,4.3,13.54,4.86,4.89,.57,9.84,.09,14.66-1.33,4.33-1.27,7.89-3.6,10.37-7.32,5.9-8.85,8.7-21.76,.79-30.21Z"/>
    </g>
    <g>
      <path d="M274.51,223.15c1.3-.55,2.47-1.41,3.56-2.34,.3-.25,.57-.51,.76-.85,.77-1.38,1.55-2.49,1.76-4.07,.22-1.62,.19-3.3-.14-4.9-.73-3.56-4.68-6.51-7.62-8.16-1.2-.67-2.6-.97-4.04-1-1.95-.03-3.97,.43-5.63,1.17-1.55,.68-3.73,1.91-4.73,3.31-.73,1.02-1.4,2.09-1.88,3.22-.88,2.06-1.22,4.45-.68,6.7,.6,2.46,2.13,3.9,4,5.49,3.96,3.37,10.07,3.35,14.62,1.43Zm-17.32-6.58c-.39-.89-.16-1.42-.27-2.34-.22-1.91,.62-3.56,1.44-5.23,1.37-2.77,4.08-4.9,7.18-5.53,1.36-.28,2.76-.46,4.16-.21,3.06,.54,6.52,2.73,8.14,5.4,.97,1.6,1.6,3.44,1.58,5.32-.03,4.48-3.94,8.36-8.21,9.04-.64,.1-1.31,.14-1.98,.14-1.75-.02-3.54-.37-5.14-.9-2.57-.85-5.79-3.16-6.91-5.69Z"/>
      <path class="cls-2" d="M277.86,208.66c-1.63-2.68-5.08-4.86-8.14-5.4-1.4-.25-2.8-.06-4.16,.21-3.1,.63-5.81,2.76-7.18,5.53-.82,1.67-1.66,3.32-1.44,5.23,.1,.92-.13,1.45,.27,2.34,1.12,2.53,4.34,4.84,6.91,5.69,1.6,.53,3.4,.89,5.14,.9,.67,0,1.33-.04,1.98-.14,4.28-.68,8.18-4.56,8.21-9.04,.01-1.89-.61-3.72-1.58-5.32Z"/>
    </g>
    <g>
      <path d="M171.09,213.27c3.22-1.36,6.1-3.5,8.81-5.78,.74-.63,1.4-1.25,1.87-2.09,1.91-3.4,3.82-6.14,4.36-10.06,.55-4.01,.47-8.15-.34-12.12-1.79-8.81-11.56-16.09-18.85-20.17-2.96-1.66-6.43-2.4-9.99-2.46-4.82-.09-9.8,1.07-13.91,2.88-3.83,1.69-9.22,4.73-11.68,8.19-1.8,2.53-3.46,5.17-4.65,7.96-2.16,5.08-3.02,11-1.67,16.55,1.49,6.09,5.27,9.64,9.89,13.58,9.8,8.34,24.88,8.28,36.15,3.52Zm-42.81-16.27c-.98-2.19-.4-3.52-.66-5.79-.53-4.73,1.53-8.81,3.57-12.93,3.39-6.85,10.09-12.11,17.75-13.66,3.36-.68,6.83-1.14,10.29-.52,7.57,1.34,16.11,6.74,20.13,13.35,2.41,3.96,3.95,8.49,3.92,13.16-.08,11.06-9.73,20.67-20.3,22.34-1.59,.25-3.23,.36-4.89,.34-4.33-.04-8.76-.92-12.72-2.23-6.36-2.1-14.31-7.82-17.09-14.06Z"/>
      <path class="cls-5" d="M179.36,177.46c-4.02-6.61-12.56-12.01-20.13-13.35-3.46-.61-6.93-.16-10.29,.52-7.66,1.55-14.36,6.82-17.75,13.66-2.04,4.12-4.1,8.2-3.57,12.93,.25,2.27-.32,3.6,.66,5.79,2.78,6.24,10.74,11.96,17.09,14.06,3.96,1.31,8.39,2.19,12.72,2.23,1.66,.02,3.3-.09,4.89-.34,10.57-1.67,20.21-11.28,20.3-22.34,.04-4.67-1.51-9.2-3.92-13.16Z"/>
    </g>
    <g>
      <path d="M164.77,203.55c1.3-.55,2.47-1.41,3.56-2.34,.3-.25,.57-.51,.76-.85,.77-1.38,1.55-2.49,1.76-4.07,.22-1.62,.19-3.3-.14-4.9-.73-3.56-4.68-6.51-7.62-8.16-1.2-.67-2.6-.97-4.04-1-1.95-.03-3.97,.43-5.63,1.17-1.55,.68-3.73,1.91-4.73,3.31-.73,1.02-1.4,2.09-1.88,3.22-.88,2.06-1.22,4.45-.68,6.7,.6,2.46,2.13,3.9,4,5.49,3.96,3.37,10.07,3.35,14.62,1.43Zm-17.32-6.58c-.39-.89-.16-1.42-.27-2.34-.22-1.91,.62-3.56,1.44-5.23,1.37-2.77,4.08-4.9,7.18-5.53,1.36-.28,2.76-.46,4.16-.21,3.06,.54,6.52,2.73,8.14,5.4,.97,1.6,1.6,3.44,1.58,5.32-.03,4.48-3.94,8.36-8.21,9.04-.64,.1-1.31,.14-1.98,.14-1.75-.02-3.54-.37-5.14-.9-2.57-.85-5.79-3.16-6.91-5.69Z"/>
      <path class="cls-1" d="M168.12,189.06c-1.63-2.68-5.08-4.86-8.14-5.4-1.4-.25-2.8-.06-4.16,.21-3.1,.63-5.81,2.76-7.18,5.53-.82,1.67-1.66,3.32-1.44,5.23,.1,.92-.13,1.45,.27,2.34,1.12,2.53,4.34,4.84,6.91,5.69,1.6,.53,3.4,.89,5.14,.9,.67,0,1.33-.04,1.98-.14,4.28-.68,8.18-4.56,8.21-9.04,.01-1.89-.61-3.72-1.58-5.32Z"/>
    </g>
    <g>
      <path d="M159.45,187.39c-.55-.16-1.22-.11-1.84,.19-1.45,.7-2.73,1.35-3.8,2.81-1.71,2.31-1.96,4.52-.93,6.98,.93,2.24,2.75,3.51,4.68,4.14,2.39-.26,4.52-.17,5.77-2.27,1.47-2.45,2.37-3.68,1.36-6.85-.79-2.48-2.77-4.27-5.24-5Zm-.69,10.46c-1.36-.06-3.08-2.15-3.04-3.71,.04-1.62,1.73-3.43,3.1-3.34,1.58,.11,3.62,2.5,3.57,4.17-.03,1.04-2.42,2.93-3.63,2.88Z"/>
      <path class="cls-4" d="M158.82,190.8c-1.37-.1-3.06,1.72-3.1,3.34-.04,1.55,1.68,3.65,3.04,3.71,1.21,.05,3.6-1.84,3.63-2.88,.06-1.67-1.99-4.06-3.57-4.17Z"/>
    </g>
    <g>
      <path d="M269.42,206.28c-.55-.16-1.22-.11-1.84,.19-1.45,.7-2.73,1.35-3.8,2.81-1.71,2.31-1.96,4.52-.93,6.98,.93,2.24,2.75,3.51,4.68,4.14,2.39-.26,4.52-.17,5.77-2.27,1.47-2.45,2.37-3.68,1.36-6.85-.79-2.48-2.77-4.27-5.24-5Zm-.69,10.46c-1.36-.06-3.08-2.15-3.04-3.71,.04-1.62,1.73-3.43,3.1-3.34,1.58,.11,3.62,2.5,3.57,4.17-.03,1.04-2.42,2.93-3.63,2.88Z"/>
      <path class="cls-4" d="M268.8,209.7c-1.37-.1-3.06,1.72-3.1,3.34-.04,1.55,1.68,3.65,3.04,3.71,1.21,.05,3.6-1.84,3.63-2.88,.06-1.67-1.99-4.06-3.57-4.17Z"/>
    </g>
    <g>
      <path class="cls-3" d="M292.96,203.46c-.1-.7-.22-1.35-.28-1.77-.87-5.81-4.91-11.88-9.77-15.06-5.33-3.49-12.89-5.07-19.19-4.65-2.13,.14-4.31,.95-6.29,1.72-7.59,2.94-14.33,8.69-16.9,16.63-.09,.29-.17,.63,.01,.86,.26,.35,.81,.19,1.2,0,2.47-1.2,5.06-2.9,7.68-3.71,3.44-1.06,6.7-2.22,10.33-2.52,3.62-.3,7.4-.55,11.02-.14,3.96,.45,7.51,1.91,10.96,3.81,1.51,.83,3,1.34,4.42,2.4,1.56,1.16,2.97,2.52,4.18,4.05,.51,.65,1.97,2.47,2.55,1.35,.32-.63,.24-1.86,.08-2.97Z"/>
      <path d="M296.01,208.44c0-.44-.02-.75-.03-.87-.33-2.72-.74-5.51-1.39-8.18-.54-2.24-1.4-4.4-2.54-6.39-1.18-2.05-2.59-4.24-4.38-5.82-1.35-1.19-2.72-2.34-4.26-3.28-2.75-1.67-5.72-2.95-8.82-3.8-7.46-2.04-14.45-.91-21.49,2.15-3.9,1.7-6.97,4.18-9.77,7.34-2.4,2.71-4.25,5.8-5.63,9.12-1.32,3.18-2.22,6.74-2.01,10.2,.03,.49,.19,1.11,.68,1.18,1.05,.15,1.87-1.44,2.44-2.17,1-1.3,1.95-2.56,3.14-3.69,3.37-3.18,7.39-4.62,11.68-6.02,1.53-.5,3.09-.89,4.67-1.18,6.29-1.15,12.89-.57,18.81,1.89,1.68,.7,3.29,1.55,4.82,2.53,2.42,1.56,4.63,3.42,6.56,5.56,1.34,1.49,2.64,3.03,3.72,4.72,.62,.98,1.51,3.63,2.84,3.83,1.49,.23,.98-5.96,.97-7.12Zm-21.91-14.78c-8.27-2.28-17.1-1.52-24.96,1.87-2.56,1.1-5.01,2.48-7.29,4.09,1.15-2.9,2.78-5.61,4.85-7.94,9.32-10.49,25.87-11.22,36.66-2.41,1.92,1.57,3.63,3.95,5.06,5.95,2.09,2.92,3.1,6.13,3.29,9.42-4.63-5.27-10.85-9.11-17.61-10.97Z"/>
      <path class="cls-6" d="M184.42,184.35c-.03-.71-.09-1.37-.12-1.79-.35-5.86-3.82-12.28-8.37-15.88-13.67-10.83-32.03-6.1-44.04,4.63-2.33,2.08-4.74,4.8-4.26,7.88,.04,.28,.12,.57,.34,.75,.37,.29,.91,.09,1.33-.11,3.93-1.91,7.97-4.44,12.28-5.35,3.53-.75,6.87-1.61,10.52-1.58,3.63,.03,7.42,.12,10.99,.85,3.9,.81,7.3,2.58,10.57,4.79,1.43,.96,2.86,1.6,4.19,2.79,1.45,1.3,2.74,2.78,3.8,4.41,.45,.69,1.74,2.64,2.41,1.57,.38-.6,.4-1.83,.35-2.95Z"/>
      <path d="M187,189.58c.03-.44,.05-.75,.05-.87-.09-2.74-.24-5.56-.65-8.28-.34-2.28-.99-4.51-1.96-6.6-.99-2.15-2.19-4.46-3.83-6.19-1.23-1.3-2.5-2.58-3.94-3.65-2.59-1.91-5.43-3.45-8.44-4.58-.12-.05-.25-.09-.37-.14-1.05-.37-2.09-.63-3.17-.84-17.99-3.47-41.85,5.71-40.94,27.24,.02,.43,.06,.88,.33,1.21,1.19,1.42,5.16-2.09,5.99-2.99,1.11-1.2,2.17-2.38,3.46-3.39,3.65-2.87,7.78-3.93,12.17-4.94,1.57-.36,3.16-.61,4.76-.76,6.37-.57,12.89,.59,18.56,3.58,1.61,.85,3.14,1.84,4.58,2.95,2.27,1.77,4.3,3.83,6.03,6.13,1.2,1.6,2.36,3.25,3.28,5.04,.53,1.03,1.18,3.75,2.49,4.07,1.46,.36,1.52-5.84,1.61-7.01Zm-20.49-16.69c-8.03-3.02-16.89-3.06-25.03-.39-2.71,.89-5.48,2.15-7.91,3.65-.79,.49-5.78,3.25-5.81,3.72,.2-2.66,3.1-5.6,4.79-7.53,10.49-11.92,31.87-14.46,43.58-2.99,1.77,1.74,3.26,4.26,4.5,6.38,1.82,3.1,2.54,6.39,2.43,9.67-4.14-5.66-9.98-10.05-16.55-12.51Z"/>
    </g>
  </g>
</svg>