<?xml version="1.0" encoding="UTF-8"?><svg id="Nose_Mouth" xmlns="http://www.w3.org/2000/svg" xmlns:xlink="http://www.w3.org/1999/xlink" viewBox="0 0 500 500"><defs><style>.cls-1{fill:url(#linear-gradient);}.cls-2{fill:#f5a2ac;}.cls-3{fill:#e97a91;}.cls-4{fill:#fff;}.cls-5{fill:#fbfaf9;}.cls-6{fill:#d56581;}.cls-7{fill:#dcdbda;}</style><linearGradient id="linear-gradient" x1="166.97" y1="324.01" x2="209.41" y2="270.52" gradientTransform="matrix(1,0,0,1,0,0)" gradientUnits="userSpaceOnUse"><stop offset="0" stop-color="#d56581"/><stop offset=".49" stop-color="#bc4f63"/><stop offset="1" stop-color="#9f3541"/></linearGradient></defs><path class="cls-1" d="M228.17,264.63c-.26-.85-.61-1.64-1.06-2.37-.07-.11-.14-.21-.25-.28-.27-.18-.65-.04-.9,.16-.45,.36-1.13,.89-1.35,1.43-1.54,3.64-3.33,7.16-4.92,10.77-.4,.9-.74,2.9-2.11,1.87-1.13-.86-1.27-2.53-2.62-3.36-.86-.53-1.98-.7-2.9-.29-1.51,.66-2.86,1.03-4.49,1.34-1.85,.36-3.69,.72-5.54,1.08-9.45,1.84-19.68,.56-29.09-1.69-.34-.08-.73-.16-1.01,.05-.37,.27-.32,.83-.22,1.28,1.65,7.67,3.48,15.29,5.49,22.88,.41,1.53,.82,3.08,1.53,4.5,.92,1.86,2.3,3.46,3.85,4.85,4.22,3.8,9.75,6.12,15.41,6.47,3.76,.23,7.57-.4,11.06-1.81,3.75-1.51,5.83-3.77,8.41-6.78,1.62-1.89,3.14-3.88,4.54-5.94,1.19-1.76,2.79-3.76,3.48-5.78,.61-1.77,1.43-3.86,1.39-5.75-.04-1.65,.31-2.95,.62-4.58,.38-1.97,.66-3.96,.86-5.95,.36-3.62,.97-8.33-.18-12.08Z"/><path class="cls-5" d="M224.69,263.06c.06-.1,.11-.19,.17-.29,.52-.89,1.42-1.54,1.7-2.57-3.11,.95-6.18,2.03-9.21,3.23-1.13,.45-2.22,1.12-3.36,1.41-1.38,.36-2.91,.75-4.33,.92-1.82,.21-3.64,.38-5.46,.51-7.27,.52-14.62,.39-21.8-.89-3.37-.6-6.69-2.03-10.05-2.43s-6.47-2.39-9.28-3.94c-1.27-.7-2.8-1.38-3.92-2.32-.92-.77-2.17-1.42-3-2.29-.27-.29-.48-.63-.78-.89s-.74-.41-1.09-.23c-.43,.82-.32,1.82-.03,2.69,1.07,3.15,1.67,6.48,2.62,9.7,.13,.45,.24,.9,.33,1.35,.02,.14,.03,.15,.02,.04,.01,.11,.03,.23,.03,.34,.14,1.67,.84,3.26,1.38,4.85,.64-.81,1.34-1.57,2.1-2.27,.28-.26,.58-.52,.93-.66,.82-.33,1.74,.02,2.55,.35,1.73,.7,3.49,1.32,5.27,1.89,1.28,.41,2.35,1.18,3.64,1.52,3.61,.96,7.47,1.39,11.17,1.75,4.39,.43,8.8,.57,13.2,.41,2.24-.08,4.47-.28,6.71-.46,2.01-.16,3.29-1.16,5.05-2.08,1.34-.7,3.01-1.12,4.33-.39,.49,.27,4.92,4.19,4.66,4.54,.95-1.27,1.34-2.86,1.82-4.37,.78-2.46,1.87-4.83,3.21-7.04,.49-.8,.94-1.6,1.41-2.4Z"/><path class="cls-7" d="M217.35,263.43c-1.13,.45-2.22,1.12-3.36,1.41-1.38,.36-2.91,.75-4.33,.92-1.82,.21-3.64,.38-5.46,.51-7.27,.52-14.62,.39-21.8-.89-3.37-.6-6.69-2.03-10.05-2.43-3.21-.39-6.47-2.39-9.28-3.94-1.27-.7-2.8-1.38-3.92-2.32-.92-.77-2.17-1.42-3-2.29-.27-.29-.48-.63-.78-.89-.3-.26-.74-.41-1.09-.23-.43,.82-.32,1.82-.03,2.69,.52,1.54,.93,3.12,1.33,4.72,.67-.31,1.53-.26,2.23,.36,1.58,1.38,3.91,2.26,5.79,3.14,2.23,1.05,4.52,2,6.81,2.9,7.94,3.11,17.02,3.17,25.43,3.1,4.28-.04,8.57-.3,12.79-1.02,2.12-.36,4.25-.8,6.3-1.42,1.86-.56,3.52-1.57,5.1-2.68,1.06-.75,2.41-.01,2.88,1.04,.12-.21,.24-.43,.37-.64,.49-.8,.94-1.6,1.41-2.4,.06-.1,.11-.19,.17-.29,.52-.89,1.42-1.54,1.7-2.57-3.11,.95-6.18,2.03-9.21,3.23Z"/><g><path class="cls-2" d="M216.62,286.38c-3.54-2.02-8.24-3.1-12.26-3.71-.67-.1-7.35-.83-7.33-.33-.07-1.75-3.24-2.26-4.55-2.62-2.22-.6-4.57-.64-6.83-.29-6.31,.97-13.07,3.9-16.66,9.39-3.09,4.73-4.21,10.91-2.9,16.41,1.37,5.76,6.22,9.58,11.57,11.52,2.91,1.06,5.44,.82,8.48,.84,4.12,.03,9.98-.4,13.35-2.95,1.21-.91,1.74-2.26,2.88-3.23,1.27-1.07,2.88-1.7,4.47-2.12,2.46-.65,5.06-.89,7.36-2,3.78-1.83,6.11-5.68,7.91-9.47,.92-1.93,1.75-4.21,.82-6.14-.38-.78-1.01-1.41-1.66-1.98-1.43-1.27-2.99-2.38-4.64-3.33Z"/><path class="cls-3" d="M197.15,281.89c-2.17,.02-4.21,1.3-5.97,2.47-1.8,1.19-3.49,2.6-4.99,4.16-2.13,2.22-4.41,5.09-5.27,8.1-.25,.88-.23,2.26,.95,2.43,1.08,.16,1.62-1.18,2.05-1.93,1.27-2.23,2.57-4.32,4.33-6.2,1.23-1.31,2.58-2.5,4.06-3.53,1.39-.97,3.19-2.34,4.95-2.36,2.03-.02,1.92-3.17-.11-3.15Z"/><path class="cls-3" d="M213.27,296.38c-2.98,3.9-7.15,7.11-11.15,9.37-6.08,3.44-14.77,6.2-21.75,4.33-4.53-1.21-8.35-4.82-9.83-9.27-1.35-4.1-.78-8.55-.19-12.83-5.33,7.03-6.46,18.09,.41,24.58,1.52,1.43,3.41,2.4,5.34,3.2,2.75,1.14,5.66,2,8.64,2.05,2.61,.04,5.19-.54,7.74-1.12,1.05-.24,2.1-.48,3.08-.93,3.74-1.74,6.92-5.01,11.32-5.03,.78,0,1.56,.11,2.34,.02,1.2-.14,2.3-.73,3.34-1.34,3.11-1.84,6.06-4.05,8.3-6.87s3.76-6.34,3.77-9.95c0-.3-.01-.62-.13-.9-.31-.72-1.17-.96-1.88-1.28-1.97-.87-3.44-2.15-5.11-3.45-.9-.7-2.06-1.21-3.17-.94,.67,3.18,1,7.67-1.06,10.37Z"/><path class="cls-6" d="M197.92,311.13c-.72,.57-1.48,1.08-2.33,1.44-2.91,1.25-6.22,1.65-9.36,1.49-4.34-.22-9.2-1.15-12.95-3.49-3.17-1.98-4.51-4.94-6.36-7.96-.15-.24-.36-.51-.64-.48-.38,.05-.44,.57-.39,.94,.62,5.61,4.73,10.65,9.79,12.98,1.76,.81,3.65,1.33,5.56,1.7,5.12,1,10.13,.58,15.03-1.15,3.34-1.18,3.28-4.25,5.85-6,1.33-.91,3.16-.57,4.6,.14,.71,.35,1.4,.79,2.18,.91,1.16,.19,2.32-.34,3.31-.99,2.44-1.62,4.58-4.15,6.06-6.67,2-3.36,4.72-5.93,6.66-9.29,.4-.69,.81-1.46,.63-2.23-.14-.59-.59-1.05-1.03-1.48-.49-.48-1.07-.99-1.75-.96-1.46,.06-3.46,3.3-4.23,4.34-1.4,1.92-2.69,3.91-4.17,5.78-2.01,2.54-4.41,4.88-7.4,6.13-1.36,.57-2.8,.89-4.18,1.43-1.94,.76-3.36,2.2-4.9,3.41Z"/><g><path class="cls-5" d="M183.87,287.3c-.59-.64-1.54-.73-2.22-.18-2.48,2.01-4.34,4.77-5.28,7.82-.24,.79,.13,1.75,.97,2.01,.79,.24,1.75-.12,2.01-.97,.21-.7,.47-1.38,.79-2.04,.01-.03,.24-.45,.07-.14,.09-.17,.18-.34,.28-.51,.17-.29,.35-.58,.54-.86s.39-.56,.6-.83c.12-.15,.24-.3,.37-.45,.02-.03,.11-.13,.16-.18,.48-.52,1-1,1.55-1.45,.64-.52,.75-1.61,.18-2.22Z"/><path class="cls-5" d="M202.12,291.84c-.18-.66-.62-1.17-1.18-1.49-.15-.15-.34-.26-.55-.32-2.81-.84-5.74,1.28-7.65,3.16-1.99,1.97-3.48,4.42-4.21,7.14-.45,1.7,1.67,2.87,2.78,1.42,1.98-2.6,4.67-4.57,7.75-5.75,.91-.35,1.78-.72,2.42-1.5,.6-.73,.87-1.74,.63-2.66Z"/><path class="cls-5" d="M208.18,287.34l-.13-.38c-.12-.25-.29-.45-.52-.61-.39-.22-.79-.42-1.22-.52-.44-.1-.87-.19-1.32-.16-.21-.02-.41,0-.6,.09-.2,.05-.37,.14-.53,.28-.17,.13-.29,.3-.37,.49-.11,.18-.17,.38-.18,.6,0,.4,.09,.83,.37,1.13l.3,.27c.24,.16,.5,.26,.79,.28,.21-.01,.41,.02,.61,.04,.21,.06,.42,.12,.61,.21l-.23-.12c.17,.12,.35,.2,.55,.22,.2,.06,.41,.07,.61,.02,.21-.03,.39-.11,.55-.24,.18-.1,.33-.23,.44-.41l.19-.38c.09-.27,.11-.54,.06-.82Z"/></g></g><path d="M229.91,267.24c-.09-.71-.76-4.51-1.83-6.71-.55-1.13-1.22-1.83-1.96-1.47-8.69,4.27-18.28,6.6-27.95,6.81-9.82,.22-19.73-1.91-28.93-5.26-3.29-1.2-6.45-2.76-9.41-4.65-1.05-.67-7.24-3.93-4.55-5.57,.11-.06,.21-.12,.33-.18,.05-.02,.1-.05,.15-.07,.02,0,.05-.02,.07-.03,.12-.04,.24-.09,.36-.13,.28-.09,.56-.17,.85-.25,.51-.14,.86-.72,.7-1.23-.17-.52-.69-.84-1.23-.7-1.33,.36-2.92,.87-3.57,2.2-.72,1.47-.25,4.64-.02,6.28,.34,2.42,1.37,4.71,2.09,7.03,.57,1.83,1.09,3.68,1.57,5.53,.24,.94,.43,4.18,1.24,4.68,.99,.6,2.03-1.57,2.64-2.11,2.69-2.37,4.42-.7,7.07,.6,.95,.46,1.92,.88,2.9,1.26-.07,.22-.08,.47,.04,.74,1.29,2.93,1.85,5.96,2.26,9.1-2.66,1.72-4.86,4.07-6.41,6.91-2.52,4.6-2.87,10.58-1.44,15.58,.69,2.41,2.01,4.61,3.76,6.4,1.66,1.7,3.95,3.55,6.12,4.49,5.53,2.39,12.03,3.04,17.92,1.76,2.35-.51,4.61-1.44,6.63-2.75,.6-.39,1.16-.83,1.7-1.3,1.36,.38,5.11-.24,5.67-.38,2.74-.7,5.28-2,7.51-3.74,5.72-4.44,9.7-11.08,12.32-17.73,.14-.17,.21-.38,.23-.6,2.82-7.42,4.2-16.72,3.21-24.55Zm-65.29,1.23c-.54-.15-1.09-.26-1.66-.29-1.23-.07-2.53,.25-3.42,1.1-.29,.28-.63,.63-1.01,.51-.36-2.75-.72-5.56-1.75-8.15-.41-1.03-.82-1.99-1.15-3.04-.17-.52-.62-3.58-.87-3.77,3.51,2.73,7.33,5.01,11.44,6.74,4.9,2.06,10.13,3.46,15.31,4.61,9.74,2.17,19.82,2.26,29.59,.18,2.6-.55,5.17-1.27,7.69-2.13,.81-.28,4.86-2.67,5.29-1.56,.27,.7-1.49,2.26-1.82,2.76-1.03,1.52-1.8,3.33-2.54,5-.62,1.39-.81,2.5-1.11,3.96-.07,.35-.2,.77-.55,.86-.51,.12-1.35-1.51-1.73-1.89-.88-.88-1.95-2.42-3.29-2.58-1.96-.24-4.26,1.58-6.08,2.13-2.88,.87-5.86,1.41-8.86,1.64-6.1,.45-12.28,.4-18.32-.69-3.05-.55-6.06-1.37-8.94-2.53-2.07-.84-4.04-2.26-6.21-2.87Zm41.28,43.47c-.94,.24-2.11,.24-3.16,.43,1.15-.6,2.48-.8,3.8-.62-.21,.06-.42,.14-.64,.19Zm17.11-16.72c-.63,1.28-1.32,2.52-2.07,3.74-2.56,4.16-5.8,7.66-9.73,10.54-.62,.46-1.29,.84-1.98,1.19-.13-.2-.34-.36-.58-.46-3.66-1.5-7.89-.03-9.99,3.28-.02,.03-.03,.05-.04,.08-1.14,.85-2.36,1.55-3.78,2.07-.86,.31-1.73,.56-2.61,.74-4.48,.92-9.22,.23-13.62-.62-1.84-.36-3.74-.84-5.35-1.84-1.44-.9-2.61-2.37-3.81-3.56-2.15-2.13-2.85-5.87-3.21-8.77-.38-3.02,.39-5.91,1.38-8.74,.84-2.39,2.24-4.58,4.06-6.35,2.37-2.32,6.6-3.51,9.75-4.27,4.57-1.1,9.42-1.84,14.01-.44-.8,.13-1.59,.28-2.39,.43-1.26,.24-.73,2.17,.53,1.93,3.46-.66,6.99-.81,10.48-.41,1.79,.2,3.55,.58,5.26,1.14,1.59,.52,3.19,.9,4.7,1.62,3.04,1.46,5.81,3.18,8.77,4.81,.09,.05,1.59,.84,1.55,.91-.41,1-.85,1.99-1.33,2.96Zm5.04-19.37c0,.9-.07,1.77-.17,2.63-.48,4.05-1.42,8.08-2.82,11.92,.15-.38-4.21-2.64-4.55-2.83-1.29-.72-2.58-1.43-3.89-2.11-1.4-.73-2.84-1.15-4.32-1.7-1.9-.7-3.77-1.12-5.74-1.65-2.96-.79-5.83-.98-8.93-.62,.12-.48-.05-1.05-.64-1.28-5.76-2.19-13.23-1.21-19.02,.5-1.18,.35-2.31,.8-3.38,1.34,0-.04,0-.09,0-.13-.06-1.3-.41-3.06-.66-4.37-.21-1.11-.93-2.41-1.34-3.48,1.13,.38,2.28,.72,3.44,1.01,10.49,2.58,23.17,2.7,33.44-.87,1.9-.66,3.29-1.97,5.01-.55,1.06,.88,2.32,3.95,3.82,4.06,1.55,.11,2.57-5.04,2.99-6.27,1.06-3.13,2.91-6.66,5.39-8.9,2.31,4.28,1.41,8.69,1.37,13.28Z"/><g><path class="cls-2" d="M190.81,252.21c4.29-2.08,9.03-3.7,13.43-5.65,3.61-1.6,11.41-5.24,10.58-10.35-.47-2.88-4.01-4.37-6.37-5.34-5.84-2.41-12.92-3.89-19.23-4.07-3.5-.1-14.3-.08-14.16,5.4,.07,2.87,2.39,9.65,5.76,14.64,2.83,4.19,6.4,7.11,9.99,5.37Z"/><path class="cls-3" d="M190.81,252.21c4.29-2.08,9.03-3.7,13.43-5.65,3.61-1.6,11.41-5.24,10.58-10.35-.34-2.08-2.68-6.65-5.46-5.63-.86,.32-1.31,1.24-1.78,2.03-.56,.94-1.27,1.78-1.98,2.63-2.01,2.4-3.86,4.61-6.42,6.46-2.05,1.49-4.23,2.44-6.55,3.36-2.27,.9-4.87,1.15-7.14,.26-2.23-.88-4.42-2.91-5.62-4.96-1.02-1.74-2.22-4.28-4.24-5.05-.31,1.36,.83,2.84,1.33,4.11,1.03,2.59,2.29,5.11,3.85,7.42,2.83,4.19,6.4,7.11,9.99,5.37Z"/><g><path class="cls-4" d="M189.22,230.23c-.34-.53-.86-1.01-1.49-1.15-1.14-.25-2.31-.41-3.48-.44-1.17-.03-2.34,.1-3.49,.3-.58,.1-1.21,.66-1.49,1.15-.31,.54-.45,1.33-.25,1.93,.2,.6,.57,1.19,1.15,1.49,.2,.08,.4,.17,.6,.25,.44,.12,.89,.12,1.33,0,.04,0,.08-.01,.12-.02,1.07-.12,2.15-.13,3.23-.02,.32,.05,.64,.1,.96,.17,.65,.14,1.34,.09,1.93-.25,.52-.3,1.01-.9,1.15-1.49,.15-.64,.11-1.36-.25-1.93Z"/><path class="cls-4" d="M183.69,234.84c-3.22,0-3.22,5,0,5s3.22-5,0-5Z"/></g><path d="M214.62,230.07c-4.28-2.52-8.53-4.45-13.52-5.11-3.27-.43-6.49-1.04-9.84-.89-2.34,.1-4.67,.36-7,.48-4.2,.21-8,1.67-11.71,3.47-3.15,1.53-.03,8.76,.96,10.81,.92,1.91,1.65,3.64,2.93,5.32,1.52,2,3.14,3.94,4.51,6.05,.67,1.02,1.42,2.01,2.38,2.88,1.61,1.46,2.16,3.35,1.28,5.58-.78,1.99-1.18,4.1-1.91,6.11,.19,.04,.36,.11,.49,.2,.12,.09,.25,.14,.38,.21,.09,.02,.18,.04,.27,.06,.65,.06,1.3,.06,1.96,.1,.56-2.01,1.09-4.03,1.57-6.07,.27-1.15,.61-2.6,1.99-3.04,2.85-.9,5.52-2.23,8.27-3.37,3.07-1.28,5.99-2.87,9.04-4.2,3.72-1.62,8.68-4.27,10.7-7.95,2.2-4,1.21-8.32-2.75-10.65Zm-10.37,16.49c-4.41,1.95-9.14,3.57-13.43,5.65-3.59,1.74-7.16-1.18-9.99-5.37-3.37-4.99-5.69-11.77-5.76-14.64-.13-5.48,10.66-5.5,14.16-5.4,6.3,.18,13.39,1.66,19.23,4.07,2.36,.97,5.9,2.46,6.37,5.34,.83,5.11-6.97,8.75-10.58,10.35Z"/></g><g><path d="M247.52,274.23c-.9,.03-2.04,1.64-2.02,2.85,.02,1.19,.95,2.14,2.02,2.06,.91-.07,2.07-1.73,2.19-3.12,.04-.51-1.55-1.82-2.19-1.8Z"/><path d="M243.48,259.99c-1.08-.05-2.08,1.08-2.11,2.38-.03,1.29,.54,1.89,1.79,1.89,1.11,0,2.92-1.52,2.8-2.36-.07-.5-1.86-1.88-2.48-1.92Z"/><path d="M152.74,237.63c-.88-.07-1.99,.97-2.01,1.89-.02,1.18,.99,2.29,2.15,2.35,1,.05,2.25-1.01,2.28-1.95,.03-.77-1.51-2.21-2.43-2.29Z"/><path d="M263.48,267.28c-1.22,.06-1.88,.75-1.85,1.95,.02,1,1.13,2.36,1.91,2.36,.89,0,2.14-1.37,2.13-2.34-.02-1.07-1.08-2.04-2.19-1.98Z"/><path d="M146.9,260.25c.35-.02,1.87-1.74,1.84-2.09-.1-1.11-1.1-2.09-2.14-2.09-1.37,0-2.41,.96-2.32,2.13,.07,.91,1.61,2.11,2.62,2.04Z"/><path d="M161.02,251.72c-.09,1.27,.63,1.94,2.23,2.07,.87,.07,1.46-.74,1.54-2.09,.07-1.31-.33-1.7-1.83-1.76-1.24-.05-1.85,.51-1.95,1.78Z"/><path d="M256.9,250.12c-.91-.02-1.81,1.1-1.73,2.17,.05,.72,1.01,1.58,1.77,1.59,1.3,.02,2.05-.59,2.03-1.67-.02-1.1-.98-2.06-2.07-2.09Z"/></g></svg>