<?xml version="1.0" encoding="UTF-8"?><svg id="Nose_Mouth" xmlns="http://www.w3.org/2000/svg" viewBox="0 0 500 500"><defs><style>.cls-1{fill:#f5a2ac;}.cls-2{fill:#e97a91;}.cls-3{fill:#fff;}.cls-4{fill:#fbfaf9;}</style></defs><g id="__Nose_Mouth_rose" data-name="5_Nose_Mouth_rose"><path class="cls-1" d="M190.81,252.21c4.29-2.08,9.03-3.7,13.43-5.65,3.61-1.6,11.41-5.24,10.58-10.35-.47-2.88-4.01-4.37-6.37-5.34-5.84-2.41-12.92-3.89-19.23-4.07-3.5-.1-14.3-.08-14.16,5.4,.07,2.87,2.39,9.65,5.76,14.64,2.83,4.19,6.4,7.11,9.99,5.37Z"/><path class="cls-2" d="M190.81,252.21c4.29-2.08,9.03-3.7,13.43-5.65,3.61-1.6,11.41-5.24,10.58-10.35-.34-2.08-2.68-6.65-5.46-5.63-.86,.32-1.31,1.24-1.78,2.03-.56,.94-1.27,1.78-1.98,2.63-2.01,2.4-3.86,4.61-6.42,6.46-2.05,1.49-4.23,2.44-6.55,3.36-2.27,.9-4.87,1.15-7.14,.26-2.23-.88-4.42-2.91-5.62-4.96-1.02-1.74-2.22-4.28-4.24-5.05-.31,1.36,.83,2.84,1.33,4.11,1.03,2.59,2.29,5.11,3.85,7.42,2.83,4.19,6.4,7.11,9.99,5.37Z"/><g><path class="cls-3" d="M189.22,230.23c-.34-.53-.86-1.01-1.49-1.15-1.14-.25-2.31-.41-3.48-.44-1.17-.03-2.34,.1-3.49,.3-.58,.1-1.21,.66-1.49,1.15-.31,.54-.45,1.33-.25,1.93,.2,.6,.57,1.19,1.15,1.49,.2,.08,.4,.17,.6,.25,.44,.12,.89,.12,1.33,0,.04,0,.08-.01,.12-.02,1.07-.12,2.15-.13,3.23-.02,.32,.05,.64,.1,.96,.17,.65,.14,1.34,.09,1.93-.25,.52-.3,1.01-.9,1.15-1.49,.15-.64,.11-1.36-.25-1.93Z"/><path class="cls-3" d="M183.69,234.84c-3.22,0-3.22,5,0,5s3.22-5,0-5Z"/></g><g><path class="cls-1" d="M206.44,286.39c.64-.67,1.28-1.35,1.86-2.09,2.5-3.19,3.74-7.68,3.69-11.72-.01-.98-.05-2.08-.24-3.04s-.76-1.75-1.07-2.68c-.82-2.53-1.85-4.89-3.39-7.07-1.05-1.49-2.56-2.98-4.37-2.83-1.96,.16-3.19,2.12-4.1,3.86-2.08,4.03-4.24,8.29-8.03,10.78-1.13,.74-2.37,1.29-3.5,2.03-1.54,1-2.91,2.32-2.43,4.18,.58,2.22,1.59,3.94,3.03,5.72,.89,1.1,1.83,2.2,3.05,2.9,.82,.47,1.74,.74,2.66,.99,2.86,.79,5.76,1.43,8.68,1.93,.49,.08,1.03,.16,1.46-.08,.29-.15,.49-.42,.7-.67,.62-.77,1.31-1.48,1.99-2.19Z"/><path class="cls-2" d="M211.77,274.89c.15-.56,.27-1.13,.38-1.7,.34-1.93-.51-3.91-1.16-5.71-.72-2-1.61-3.94-2.65-5.79-.12-.21-.24-.42-.45-.55s-.5-.13-.65,.06c-.29,.38,.61,3.14,.71,3.68,.33,1.88,1.07,3.36,1.12,5.34,.08,2.92,.27,9.63-3.19,10.98-.55,.22-1.25,.15-1.62-.31-.38-.47-.31-1.14-.32-1.74s-.26-1.33-.86-1.42c-.57-.09-1.01,.46-1.37,.91-4.16,5.13-10.76,1.63-13.96-2.7-.34-.46-.68-.99-1.22-1.15-.63-.19-1.4,.22-1.61,.85-.23,.67,.15,1,.44,1.58,.78,1.56,1.44,3.13,2.35,4.62,.75,1.22,1.59,2.4,2.71,3.28,1.2,.94,2.55,1.33,3.99,1.75,1.24,.36,2.3,1.1,3.6,1.39,2.73,.59,5.72,.04,7.98-1.61,2.6-1.89,3.92-5.94,4.89-8.88,.31-.95,.62-1.9,.87-2.86Z"/><path class="cls-2" d="M205.73,260.44c-.51-1.16-1.83-.26-1.97,.68-.06,.38,.04,.76,.13,1.14,.77,3.05,1.18,6.02,.56,9.16-.19,1.02-.78,4.55,1.45,2.56,1.39-1.24,1.39-5.25,1.34-6.94-.07-2.26-.63-4.6-1.51-6.6Z"/><path class="cls-4" d="M200.87,263.3c.14-.46,.42-1.56-.12-1.9s-1.24,.46-1.51,.88c-.31,.5-.48,1.07-.68,1.62-.75,2.11-1.94,3.81-3.42,5.48-.4,.45-.81,.94-.86,1.53-.07,.86,.45,.86,.99,.45,2.29-1.72,3.88-4.23,5.09-6.83,.14-.31,.35-.75,.5-1.23Z"/><path d="M212.02,265.77c-.09-.34-.18-.67-.29-1-.71-2.2-2.1-4.44-3.41-6.34-1.2-1.75-2.94-3.29-5.19-3.21-1.99,.08-4.05,1.89-5.3,3.29-1.42,1.59-2.51,3.42-3.51,5.29-1.11,2.07-2.16,4.24-3.71,6.02-.87,.99-4.53,4.34-5.61,2.17-.86-1.73-3.45-.21-2.59,1.51,2.08,4.17,7.54,1.33,9.83-1.02,2.78-2.86,4.15-6.64,6.28-9.93,1.22-1.88,2.58-3.29,4.63-4.32,1.89-.95,2.64,.6,3.72,1.99,2.84,3.63,3.99,8.43,3.9,12.99-.07,3.72-1.53,6.97-3.23,10.26-1.04,2.01-2.97,2.83-4.92,3.84-.85,.44-1.91,.59-1.57,1.71,.23,.75,1.02,1.15,1.76,.97,1.84-.45,3.12-.84,4.39-2.2,1.95-2.07,3.62-4,4.65-6.67,1.13-2.94,1.33-6.11,1.04-9.22-.19-2.07-.36-4.11-.88-6.11Z"/></g><path d="M187.37,259.28c.27-1.15,.61-2.6,1.99-3.04,2.85-.9,5.52-2.23,8.27-3.37,3.07-1.28,5.99-2.87,9.04-4.2,3.72-1.62,8.68-4.27,10.7-7.95,2.2-4,1.21-8.32-2.75-10.65-2.18-1.28-5.44-3.55-8-3.8-1.92-.18-3.63-1.06-5.51-1.31-3.27-.43-6.49-1.04-9.84-.89-2.34,.1-4.67,.36-7,.48-4.2,.21-8,1.67-11.71,3.47-3.15,1.53-.03,8.76,.96,10.81,.92,1.91,1.65,3.64,2.93,5.32,1.52,2,3.14,3.94,4.51,6.05,.67,1.02,1.42,2.01,2.38,2.88,1.61,1.46,2.16,3.35,1.28,5.58-2.05,5.21-2.36,10.91-5.42,15.34-.09,.13-.18,.27-.27,.4-1.04,1.41-2.38,2.68-4.18,3.74-2.11,1.26-4.13,2.65-6.57,3.08-7.25,1.26-14.56,.27-20.42-4.53-.82-.68-1.85-1.38-2.27-2.51-1.6-4.22-5.87,1.03-2.79,2.38,.64,.28,.94,.82,1.37,1.27,4.92,5.03,12.7,7.14,19.65,6.83,2.53-.11,5.24-.7,7.72-1.17,3.59-.68,8.09-3.92,9.62-7.3,.36-.8,1-.6,1.52-.03,.28,.31,.37,.68,.42,1.09,.39,3.39,2.45,5.79,4.82,7.97,.74,.68,1.65,1.18,2.52,1.71,7.61,4.73,16.02,6.02,24.79,4.14,3.4-.73,6.25-2.38,9.17-4.17,.7-.43,1.02-1.38,1.28-2.23,.26-.87-.15-1.38-.87-1.69-1.31-.57-2.35-.02-3.11,1.01-1.78,2.41-4.62,2.77-7.13,3.51-1.81,.53-3.87,.54-5.77,.81-5.1,.73-10.48-1-14.95-3.38-1.6-.85-2.63-1.71-3.98-2.96-1.09-1.02-2.17-2.05-2.88-3.39-.75-1.43-1.19-2.98-1.4-4.57-.07-.53-.11-1.06-.14-1.59-.19-4.44,1.01-8.84,2.04-13.12Zm-6.54-12.44c-3.37-4.99-5.69-11.77-5.76-14.64-.13-5.48,10.66-5.5,14.16-5.4,6.3,.18,13.39,1.66,19.23,4.07,2.36,.97,5.9,2.46,6.37,5.34,.83,5.11-6.97,8.75-10.58,10.35-4.41,1.95-9.14,3.57-13.43,5.65-3.59,1.74-7.16-1.18-9.99-5.37Z"/><g><path d="M247.52,274.23c-.9,.03-2.04,1.64-2.02,2.85,.02,1.19,.95,2.14,2.02,2.06,.91-.07,2.07-1.73,2.19-3.12,.04-.51-1.55-1.82-2.19-1.8Z"/><path d="M243.48,259.99c-1.08-.05-2.08,1.08-2.11,2.38-.03,1.29,.54,1.89,1.79,1.89,1.11,0,2.92-1.52,2.8-2.36-.07-.5-1.86-1.88-2.48-1.92Z"/><path d="M152.74,237.63c-.88-.07-1.99,.97-2.01,1.89-.02,1.18,.99,2.29,2.15,2.35,1,.05,2.25-1.01,2.28-1.95,.03-.77-1.51-2.21-2.43-2.29Z"/><path d="M263.48,267.28c-1.22,.06-1.88,.75-1.85,1.95,.02,1,1.13,2.36,1.91,2.36,.89,0,2.14-1.37,2.13-2.34-.02-1.07-1.08-2.04-2.19-1.98Z"/><path d="M146.9,260.25c.35-.02,1.87-1.74,1.84-2.09-.1-1.11-1.1-2.09-2.14-2.09-1.37,0-2.41,.96-2.32,2.13,.07,.91,1.61,2.11,2.62,2.04Z"/><path d="M161.02,251.72c-.09,1.27,.63,1.94,2.23,2.07,.87,.07,1.46-.74,1.54-2.09,.07-1.31-.33-1.7-1.83-1.76-1.24-.05-1.85,.51-1.95,1.78Z"/><path d="M256.9,250.12c-.91-.02-1.81,1.1-1.73,2.17,.05,.72,1.01,1.58,1.77,1.59,1.3,.02,2.05-.59,2.03-1.67-.02-1.1-.98-2.06-2.07-2.09Z"/></g></g></svg>