<?xml version="1.0" encoding="UTF-8"?><svg id="Nose_Mouth" xmlns="http://www.w3.org/2000/svg" viewBox="0 0 500 500"><defs><style>.cls-1{fill:#f5a2ac;}.cls-2{fill:#e97a91;}.cls-3{fill:#fff;}.cls-4{fill:#d56581;}</style></defs><g id="__Nose_Mouth_rose" data-name="6_Nose_Mouth_rose"><path class="cls-1" d="M190.81,252.21c4.29-2.08,9.03-3.7,13.43-5.65,3.61-1.6,11.41-5.24,10.58-10.35-.47-2.88-4.01-4.37-6.37-5.34-5.84-2.41-12.92-3.89-19.23-4.07-3.5-.1-14.3-.08-14.16,5.4,.07,2.87,2.39,9.65,5.76,14.64,2.83,4.19,6.4,7.11,9.99,5.37Z"/><path class="cls-2" d="M190.81,252.21c4.29-2.08,9.03-3.7,13.43-5.65,3.61-1.6,11.41-5.24,10.58-10.35-.34-2.08-2.68-6.65-5.46-5.63-.86,.32-1.31,1.24-1.78,2.03-.56,.94-1.27,1.78-1.98,2.63-2.01,2.4-3.86,4.61-6.42,6.46-2.05,1.49-4.23,2.44-6.55,3.36-2.27,.9-4.87,1.15-7.14,.26-2.23-.88-4.42-2.91-5.62-4.96-1.02-1.74-2.22-4.28-4.24-5.05-.31,1.36,.83,2.84,1.33,4.11,1.03,2.59,2.29,5.11,3.85,7.42,2.83,4.19,6.4,7.11,9.99,5.37Z"/><g><path class="cls-3" d="M189.22,230.23c-.34-.53-.86-1.01-1.49-1.15-1.14-.25-2.31-.41-3.48-.44-1.17-.03-2.34,.1-3.49,.3-.58,.1-1.21,.66-1.49,1.15-.31,.54-.45,1.33-.25,1.93,.2,.6,.57,1.19,1.15,1.49,.2,.08,.4,.17,.6,.25,.44,.12,.89,.12,1.33,0,.04,0,.08-.01,.12-.02,1.07-.12,2.15-.13,3.23-.02,.32,.05,.64,.1,.96,.17,.65,.14,1.34,.09,1.93-.25,.52-.3,1.01-.9,1.15-1.49,.15-.64,.11-1.36-.25-1.93Z"/><path class="cls-3" d="M183.69,234.84c-3.22,0-3.22,5,0,5s3.22-5,0-5Z"/></g><path class="cls-1" d="M199.05,290.47c-.65-.26-1.31-.48-1.71-.76-2.42-1.71-4.84-3.29-7.36-4.8-1.16-.7-2.02-1.79-2.81-2.89-1.07-1.49-2.4-3.15-3.09-4.86-.42-1.04-.53-2.69-2.25-2.05-.9,.33-2.08,1.78-2.99,2.32-2.92,1.75-5.61,3.95-8.86,5.07-5,1.73-5.62,6.37-6.01,11.09-.28,3.43-.22,6.89,.19,10.3,.33,2.81,.96,5.39,3.19,7.31,2.33,2,5.21,2.99,8.23,3.35,3.4,.41,5.56-.12,8.55-1.77,2.39-1.32,4.56-3.07,6.48-5.01,4.27-4.34,7.25-9.7,10.1-15.02,.65-1.22-.48-1.8-1.67-2.27Z"/><path class="cls-2" d="M197.69,290.14c-.36,.34-.55,.82-.73,1.28-1.03,2.61-1.82,5.65-3.38,7.97s-2.99,4.66-4.98,6.65c-1.79,2-3.62,3.35-6.17,4.23-3.14,1.08-6.57,1.82-9.9,1.54-1.92-.16-1.91,2.84,0,3,3.56,.3,7.33-.49,10.7-1.65,3-1.03,5.69-2.66,8.06-4.76,4.99-4.43,7.97-10.59,9.99-16.84,.61-1.9-2.54-2.4-3.59-1.42Z"/><path class="cls-4" d="M200.45,290.3c-3.47-1.52-6.94-3.02-10.4-4.57-1.39-.62-2.78-1.29-3.83-2.42-.94-1.02-1.59-2.38-1.74-3.77-.03-.29-.13-.57-.27-.81,.12-.63,.16-1.28,.08-1.98-.11-.91-1.17-1.91-2.1-1.89-.78,.02-1.48,.5-1.97,1.11s-.82,1.32-1.2,2c-1.07,1.9-2.99,2.94-4.99,3.64-1.61,.56-3.27,.94-4.92,1.39-1.34,.36-2.89,.85-3.78,1.97-.81,1.02-1.2,3.74,.73,3.69,2.87-.08,6.84-.36,9.25-2.03,2.1-1.46,3.91-3.33,5.29-5.49-.38,.59,.29,2.4,.52,2.98,.39,1.03,.99,1.96,1.68,2.82,.61,.76,1.26,1.51,1.87,2.25,.62,.75,1.46,1.23,2.07,1.98s1.32,1.32,2.18,1.87c2.03,1.28,4.24,2.27,6.55,2.92,.52,.15,1.06,.28,1.6,.24,1.38-.11,3-1.26,3.59-2.49,.43-.89,.98-2.89-.21-3.42Z"/><path class="cls-2" d="M179.81,288.38c-.22-.1-.47-.14-.72-.1-.43,.07-.77,.39-1.06,.72-1.08,1.22-1.93,3.04-2.58,4.53-.76,1.74-1.21,3.61-1.44,5.49-.11,.85-.17,2.21,.69,2.75s1.36-.23,1.47-1.01c.44-3.08,1.58-6.05,3.32-8.63,.49-.73,1.21-1.66,1.14-2.6-.03-.48-.38-.93-.83-1.14Z"/><path d="M201.04,290.31c-4.03,8.51-8.73,18.48-18.17,22.05-3.91,1.48-8.34,1.52-12.1-.45-4.34-2.28-5.94-6.52-6.49-11.17-.65-5.46-.13-11.17,2.75-15.96,1-1.66-1.6-3.17-2.59-1.51-2.84,4.73-3.71,10.34-3.32,15.78,.38,5.31,1.63,10.73,6.06,14.12,3.74,2.86,8.68,3.81,13.27,2.98,5.13-.93,9.7-4.03,13.19-7.81,4.4-4.78,7.24-10.69,9.99-16.51,.82-1.74-1.76-3.26-2.59-1.51Z"/><path d="M187.37,259.28c.27-1.15,.61-2.6,1.99-3.04,2.85-.9,5.52-2.23,8.27-3.37,3.07-1.28,5.99-2.87,9.04-4.2,3.72-1.62,8.68-4.27,10.7-7.95,2.2-4,1.21-8.32-2.75-10.65-2.18-1.28-5.44-3.55-8-3.8-1.92-.18-3.63-1.06-5.51-1.31-3.27-.43-6.49-1.04-9.84-.89-2.34,.1-4.67,.36-7,.48-4.2,.21-8,1.67-11.71,3.47-3.15,1.53-.03,8.76,.96,10.81,.92,1.91,1.65,3.64,2.93,5.32,1.52,2,3.14,3.94,4.51,6.05,.67,1.02,1.42,2.01,2.38,2.88,1.61,1.46,2.16,3.35,1.28,5.58-2.05,5.21-2.36,10.91-5.42,15.34-.09,.13-.18,.27-.27,.4-1.04,1.41-2.38,2.68-4.18,3.74-2.11,1.26-4.13,2.65-6.57,3.08-7.25,1.26-14.56,.27-20.42-4.53-.82-.68-1.85-1.38-2.27-2.51-1.6-4.22-5.87,1.03-2.79,2.38,.64,.28,.94,.82,1.37,1.27,4.92,5.03,12.7,7.14,19.65,6.83,2.53-.11,5.24-.7,7.72-1.17,3.59-.68,8.09-3.92,9.62-7.3,.36-.8,1-.6,1.52-.03,.28,.31,.37,.68,.42,1.09,.39,3.39,2.45,5.79,4.82,7.97,.74,.68,1.65,1.18,2.52,1.71,7.61,4.73,16.02,6.02,24.79,4.14,3.4-.73,6.25-2.38,9.17-4.17,.7-.43,1.02-1.38,1.28-2.23,.26-.87-.15-1.38-.87-1.69-1.31-.57-2.35-.02-3.11,1.01-1.78,2.41-4.62,2.77-7.13,3.51-1.81,.53-3.87,.54-5.77,.81-5.1,.73-10.48-1-14.95-3.38-.86-.46-1.58-1.3-2.52-1.58-1.44-1.49-3.25-2.73-4.33-4.77-.75-1.43-1.19-2.98-1.4-4.57-.07-.53-.11-1.06-.14-1.59-.19-4.44,1.01-8.84,2.04-13.12Zm-6.54-12.44c-3.37-4.99-5.69-11.77-5.76-14.64-.13-5.48,10.66-5.5,14.16-5.4,6.3,.18,13.39,1.66,19.23,4.07,2.36,.97,5.9,2.46,6.37,5.34,.83,5.11-6.97,8.75-10.58,10.35-4.41,1.95-9.14,3.57-13.43,5.65-3.59,1.74-7.16-1.18-9.99-5.37Z"/><g><path d="M247.52,274.23c-.9,.03-2.04,1.64-2.02,2.85,.02,1.19,.95,2.14,2.02,2.06,.91-.07,2.07-1.73,2.19-3.12,.04-.51-1.55-1.82-2.19-1.8Z"/><path d="M243.48,259.99c-1.08-.05-2.08,1.08-2.11,2.38-.03,1.29,.54,1.89,1.79,1.89,1.11,0,2.92-1.52,2.8-2.36-.07-.5-1.86-1.88-2.48-1.92Z"/><path d="M152.74,237.63c-.88-.07-1.99,.97-2.01,1.89-.02,1.18,.99,2.29,2.15,2.35,1,.05,2.25-1.01,2.28-1.95,.03-.77-1.51-2.21-2.43-2.29Z"/><path d="M263.48,267.28c-1.22,.06-1.88,.75-1.85,1.95,.02,1,1.13,2.36,1.91,2.36,.89,0,2.14-1.37,2.13-2.34-.02-1.07-1.08-2.04-2.19-1.98Z"/><path d="M146.9,260.25c.35-.02,1.87-1.74,1.84-2.09-.1-1.11-1.1-2.09-2.14-2.09-1.37,0-2.41,.96-2.32,2.13,.07,.91,1.61,2.11,2.62,2.04Z"/><path d="M161.02,251.72c-.09,1.27,.63,1.94,2.23,2.07,.87,.07,1.46-.74,1.54-2.09,.07-1.31-.33-1.7-1.83-1.76-1.24-.05-1.85,.51-1.95,1.78Z"/><path d="M256.9,250.12c-.91-.02-1.81,1.1-1.73,2.17,.05,.72,1.01,1.58,1.77,1.59,1.3,.02,2.05-.59,2.03-1.67-.02-1.1-.98-2.06-2.07-2.09Z"/></g><g><path class="cls-3" d="M168.37,295.3c0-.2-.07-.39-.18-.56-.09-.17-.22-.32-.39-.42-.14-.13-.31-.22-.51-.27l-.4-.05c-.27,0-.52,.07-.76,.2l-.3,.23c-.19,.19-.31,.41-.39,.66l-.27,1.13c-.06,.2-.07,.4-.03,.6,0,.2,.07,.39,.18,.56,.09,.17,.22,.32,.39,.42,.14,.13,.31,.22,.51,.27l.4,.05c.27,0,.52-.07,.76-.2l.3-.23c.19-.19,.31-.41,.39-.66,.09-.38,.18-.76,.27-1.13,.06-.2,.07-.4,.03-.6Z"/><path class="cls-3" d="M169.51,304.31c-.1-.1-.19-.21-.28-.32-.21-.29-.38-.59-.53-.91-.13-.34-.23-.7-.29-1.06-.01-.15-.03-.3-.03-.46,0-.39-.16-.78-.44-1.06-.26-.26-.69-.46-1.06-.44-.8,.04-1.51,.66-1.5,1.5,.03,1.81,.75,3.56,2.02,4.86,.55,.56,1.58,.59,2.12,0,.56-.61,.58-1.52,0-2.12Z"/></g></g></svg>