<?xml version="1.0" encoding="UTF-8"?><svg id="Eyes" xmlns="http://www.w3.org/2000/svg" xmlns:xlink="http://www.w3.org/1999/xlink" viewBox="0 0 500 500"><defs><style>.cls-1{fill:url(#linear-gradient);}.cls-2{fill:#fff;}.cls-3{fill:url(#New_Gradient_Swatch_2);}.cls-4{fill:url(#radial-gradient-2);}.cls-5{fill:url(#linear-gradient-2);}.cls-6{fill:url(#radial-gradient);}.cls-7{fill:url(#New_Gradient_Swatch_2-2);}</style><radialGradient id="radial-gradient" cx="258.76" cy="208.62" fx="258.76" fy="208.62" r="24.93" gradientTransform="matrix(1,0,0,1,0,0)" gradientUnits="userSpaceOnUse"><stop offset="0" stop-color="#fff"/><stop offset=".54" stop-color="#fcfcfc"/><stop offset=".78" stop-color="#f5f5f5"/><stop offset=".96" stop-color="#e9e9e9"/><stop offset="1" stop-color="#e5e5e5"/></radialGradient><linearGradient id="New_Gradient_Swatch_2" data-name="New Gradient Swatch 2" x1="244.89" y1="209.16" x2="267.44" y2="209.16" gradientTransform="matrix(1,0,0,1,0,0)" gradientUnits="userSpaceOnUse"><stop offset="0" stop-color="#dadee5"/><stop offset=".21" stop-color="#b2c6d3"/><stop offset=".43" stop-color="#91b2c4"/><stop offset=".64" stop-color="#79a3b9"/><stop offset=".84" stop-color="#6a9bb3"/><stop offset="1" stop-color="#6698b1"/></linearGradient><radialGradient id="radial-gradient-2" cx="145.68" cy="188.28" fx="145.68" fy="188.28" r="26.35" gradientTransform="matrix(1,0,0,1,0,0)" gradientUnits="userSpaceOnUse"><stop offset="0" stop-color="#fff"/><stop offset=".43" stop-color="#fbfbfb"/><stop offset=".75" stop-color="#f2f2f2"/><stop offset="1" stop-color="#e5e5e5"/></radialGradient><linearGradient id="New_Gradient_Swatch_2-2" data-name="New Gradient Swatch 2" x1="133.15" y1="189.55" x2="155.7" y2="189.55" xlink:href="#New_Gradient_Swatch_2"/><linearGradient id="linear-gradient" x1="242.41" y1="194.1" x2="295.08" y2="194.1" gradientTransform="translate(26.7 -31.64) rotate(7.17)" gradientUnits="userSpaceOnUse"><stop offset="0" stop-color="#fff"/><stop offset=".21" stop-color="#e8e8e8"/><stop offset=".51" stop-color="#cfcfcf"/><stop offset=".78" stop-color="silver"/><stop offset="1" stop-color="#bbb"/></linearGradient><linearGradient id="linear-gradient-2" x1="129.7" y1="174.74" x2="186.57" y2="174.74" gradientTransform="translate(31.5 -23.3) rotate(9.54)" xlink:href="#linear-gradient"/></defs><g id="_3_Eyes_blue" data-name="23_Eyes_blue"><g><path d="M264.67,236.32c2.15,.01,4.22-.14,6.1-.44,9.69-1.52,19.66-6.73,22.88-16.44,1.43-4.31,2.42-9.22,1.72-13.77-.91-5.95-2.03-11.58-6.81-15.71-2.36-2.04-4.67-3.96-7.6-5.08-1.48-.57-2.6-1.95-4.25-2.36-7.03-1.75-12.58-2.98-19.69-.5-5.99,2.09-10.89,6.55-14.53,11.63-7.65,10.66-7.83,25.15,.92,35.1,4.71,5.36,13.53,7.52,21.26,7.56Zm-23.85-20.41c-.37-2.7-.26-5.73-.09-7.72,.39-4.55,1.94-9.01,4.5-12.8,7.86-11.62,24.18-14.52,36.03-7.19,2.11,1.31,4.11,3.44,5.79,5.23,7.91,8.45,5.11,21.36-.79,30.21-2.48,3.72-6.04,6.05-10.37,7.32-4.82,1.42-9.77,1.89-14.66,1.33-4.79-.55-9.54-1.77-13.54-4.86-2.46-1.9-3.76-4.63-5.44-7.1-.75-1.1-1.19-2.69-1.43-4.42Z"/><path class="cls-6" d="M247.69,227.44c4,3.09,8.76,4.3,13.54,4.86,4.89,.57,9.84,.09,14.66-1.33,4.33-1.27,7.89-3.6,10.37-7.32,5.9-8.85,8.7-21.76,.79-30.21-1.68-1.79-3.68-3.93-5.79-5.23-11.85-7.32-28.16-4.43-36.03,7.19-2.56,3.79-4.11,8.25-4.5,12.8-.17,1.99-.28,5.02,.09,7.72,.24,1.73,.68,3.32,1.43,4.42,1.69,2.47,2.98,5.2,5.44,7.1Zm2.76-21.55c1.4-3.4,4.53-4.5,7.78-2.67,.14,.08,.29,.13,.45,.16,2.78,.65,3.13,2.79,3.13,5.33-.05,2.74-.93,4.29-3.16,5.06-2.75,.95-5.39,1.02-7.71-1.14-1.12-1.04-1.09-2.46-1.1-3.76-.01-.98,.21-2.02,.61-2.99Z"/></g><g><path d="M262.51,219.15c1.3-.55,2.47-1.41,3.56-2.34,.3-.25,.57-.51,.76-.85,.77-1.38,1.55-2.49,1.76-4.07,.22-1.62,.19-3.3-.14-4.9-.73-3.56-4.68-6.51-7.62-8.16-1.2-.67-2.6-.97-4.04-1-1.95-.03-3.97,.43-5.63,1.17-1.55,.68-3.73,1.91-4.73,3.31-.73,1.02-1.4,2.09-1.88,3.22-.88,2.06-1.22,4.45-.68,6.7,.6,2.46,2.13,3.9,4,5.49,3.96,3.37,10.07,3.35,14.62,1.43Zm-17.32-6.58c-.39-.89-.16-1.42-.27-2.34-.22-1.91,.62-3.56,1.44-5.23,1.37-2.77,4.08-4.9,7.18-5.53,1.36-.28,2.76-.46,4.16-.21,3.06,.54,6.52,2.73,8.14,5.4,.97,1.6,1.6,3.44,1.58,5.32-.03,4.48-3.94,8.36-8.21,9.04-.64,.1-1.31,.14-1.98,.14-1.75-.02-3.54-.37-5.14-.9-2.57-.85-5.79-3.16-6.91-5.69Z"/><path class="cls-3" d="M265.86,204.66c-1.63-2.68-5.08-4.86-8.14-5.4-1.4-.25-2.8-.06-4.16,.21-3.1,.63-5.81,2.76-7.18,5.53-.82,1.67-1.66,3.32-1.44,5.23,.1,.92-.13,1.45,.27,2.34,1.12,2.53,4.34,4.84,6.91,5.69,1.6,.53,3.4,.89,5.14,.9,.67,0,1.33-.04,1.98-.14,4.28-.68,8.18-4.56,8.21-9.04,.01-1.89-.61-3.72-1.58-5.32Z"/></g><g><path d="M171.09,213.27c3.22-1.36,6.1-3.5,8.81-5.78,.74-.63,1.4-1.25,1.87-2.09,1.91-3.4,3.82-6.14,4.36-10.06,.55-4.01,.47-8.15-.34-12.12-1.79-8.81-11.56-16.09-18.85-20.17-2.96-1.66-6.43-2.4-9.99-2.46-4.82-.09-9.8,1.07-13.91,2.88-3.83,1.69-9.22,4.73-11.68,8.19-1.8,2.53-3.46,5.17-4.65,7.96-2.16,5.08-3.02,11-1.67,16.55,1.49,6.09,5.27,9.64,9.89,13.58,9.8,8.34,24.88,8.28,36.15,3.52Zm-42.81-16.27c-.98-2.19-.4-3.52-.66-5.79-.53-4.73,1.53-8.81,3.57-12.93,3.39-6.85,10.09-12.11,17.75-13.66,3.36-.68,6.83-1.14,10.29-.52,7.57,1.34,16.11,6.74,20.13,13.35,2.41,3.96,3.95,8.49,3.92,13.16-.08,11.06-9.73,20.67-20.3,22.34-1.59,.25-3.23,.36-4.89,.34-4.33-.04-8.76-.92-12.72-2.23-6.36-2.1-14.31-7.82-17.09-14.06Z"/><path class="cls-4" d="M162.98,212.96c10.57-1.67,20.21-11.28,20.3-22.34,.04-4.67-1.51-9.2-3.92-13.16-4.02-6.61-12.56-12.01-20.13-13.35-3.46-.61-6.93-.16-10.29,.52-7.66,1.55-14.36,6.82-17.75,13.66-2.04,4.12-4.1,8.2-3.57,12.93,.25,2.27-.32,3.6,.66,5.79,2.78,6.24,10.74,11.96,17.09,14.06,3.96,1.31,8.39,2.19,12.72,2.23,1.66,.02,3.3-.09,4.89-.34Zm-13.65-17.72c-1.25,2.09-3.38,2.01-5.77,2.27-1.93-.63-3.75-1.9-4.68-4.14-1.02-2.46-.77-4.67,.93-6.98,1.07-1.46,2.36-2.11,3.8-2.81,.62-.3,1.29-.35,1.84-.19,2.48,.74,4.45,2.53,5.24,5,1.01,3.17,.1,4.4-1.36,6.85Z"/></g><g><path d="M150.77,199.55c1.3-.55,2.47-1.41,3.56-2.34,.3-.25,.57-.51,.76-.85,.77-1.38,1.55-2.49,1.76-4.07,.22-1.62,.19-3.3-.14-4.9-.73-3.56-4.68-6.51-7.62-8.16-1.2-.67-2.6-.97-4.04-1-1.95-.03-3.97,.43-5.63,1.17-1.55,.68-3.73,1.91-4.73,3.31-.73,1.02-1.4,2.09-1.88,3.22-.88,2.06-1.22,4.45-.68,6.7,.6,2.46,2.13,3.9,4,5.49,3.96,3.37,10.07,3.35,14.62,1.43Zm-17.32-6.58c-.39-.89-.16-1.42-.27-2.34-.22-1.91,.62-3.56,1.44-5.23,1.37-2.77,4.08-4.9,7.18-5.53,1.36-.28,2.76-.46,4.16-.21,3.06,.54,6.52,2.73,8.14,5.4,.97,1.6,1.6,3.44,1.58,5.32-.03,4.48-3.94,8.36-8.21,9.04-.64,.1-1.31,.14-1.98,.14-1.75-.02-3.54-.37-5.14-.9-2.57-.85-5.79-3.16-6.91-5.69Z"/><path class="cls-7" d="M154.12,185.06c-1.63-2.68-5.08-4.86-8.14-5.4-1.4-.25-2.8-.06-4.16,.21-3.1,.63-5.81,2.76-7.18,5.53-.82,1.67-1.66,3.32-1.44,5.23,.1,.92-.13,1.45,.27,2.34,1.12,2.53,4.34,4.84,6.91,5.69,1.6,.53,3.4,.89,5.14,.9,.67,0,1.33-.04,1.98-.14,4.28-.68,8.18-4.56,8.21-9.04,.01-1.89-.61-3.72-1.58-5.32Z"/></g><path d="M143.45,183.39c-.55-.16-1.22-.11-1.84,.19-1.45,.7-2.73,1.35-3.8,2.81-1.71,2.31-1.96,4.52-.93,6.98,.93,2.24,2.75,3.51,4.68,4.14,2.39-.26,4.52-.17,5.77-2.27,1.47-2.45,2.37-3.68,1.36-6.85-.79-2.48-2.77-4.27-5.24-5Zm-.69,10.46c-1.36-.06-3.08-2.15-3.04-3.71,.04-1.62,1.73-3.43,3.1-3.34,1.58,.11,3.62,2.5,3.57,4.17-.03,1.04-2.42,2.93-3.63,2.88Z"/><path class="cls-2" d="M142.82,186.8c-1.37-.1-3.06,1.72-3.1,3.34-.04,1.55,1.68,3.65,3.04,3.71,1.21,.05,3.6-1.84,3.63-2.88,.06-1.67-1.99-4.06-3.57-4.17Z"/><path d="M254.45,202.39c-.55-.16-1.22-.11-1.84,.19-1.45,.7-2.73,1.35-3.8,2.81-1.71,2.31-1.96,4.52-.93,6.98,.93,2.24,2.75,3.51,4.68,4.14,2.39-.26,4.52-.17,5.77-2.27,1.47-2.45,2.37-3.68,1.36-6.85-.79-2.48-2.77-4.27-5.24-5Zm-.69,10.46c-1.36-.06-3.08-2.15-3.04-3.71,.04-1.62,1.73-3.43,3.1-3.34,1.58,.11,3.62,2.5,3.57,4.17-.03,1.04-2.42,2.93-3.63,2.88Z"/><path class="cls-2" d="M253.82,205.8c-1.37-.1-3.06,1.72-3.1,3.34-.04,1.55,1.68,3.65,3.04,3.71,1.21,.05,3.6-1.84,3.63-2.88,.06-1.67-1.99-4.06-3.57-4.17Z"/><g><g><path class="cls-1" d="M293.98,206.79c0-.71-.05-1.37-.06-1.79-.14-5.87-3.39-12.4-7.81-16.16-4.85-4.12-12.15-6.64-18.46-7.01-2.13-.13-4.4,.41-6.46,.92-7.89,1.97-15.31,6.83-18.84,14.39-.13,.27-.25,.6-.1,.86,.22,.38,.78,.29,1.19,.15,2.6-.88,5.38-2.25,8.08-2.72,3.55-.62,6.92-1.37,10.57-1.21,3.63,.15,7.41,.38,10.95,1.24,3.87,.94,7.21,2.83,10.4,5.15,1.39,1.01,2.81,1.7,4.09,2.94,1.4,1.35,2.64,2.87,3.64,4.54,.43,.7,1.65,2.7,2.36,1.66,.4-.58,.47-1.82,.45-2.94Z"/><path d="M296.38,212.11c.05-.44,.08-.75,.08-.86,.01-2.74-.05-5.56-.36-8.29-.26-2.29-.84-4.54-1.73-6.66-.92-2.18-2.04-4.53-3.62-6.32-1.19-1.34-2.4-2.66-3.81-3.78-2.52-2-5.31-3.64-8.28-4.87-7.14-2.96-14.23-2.71-21.59-.55-4.08,1.2-7.44,3.28-10.61,6.06-2.72,2.39-4.94,5.22-6.73,8.34-1.71,2.99-3.04,6.41-3.27,9.87-.03,.49,.05,1.12,.53,1.25,1.03,.28,2.04-1.19,2.69-1.85,1.15-1.16,2.25-2.3,3.58-3.27,3.75-2.74,7.91-3.66,12.34-4.51,1.58-.3,3.18-.5,4.78-.59,6.38-.35,12.86,1.04,18.43,4.23,1.58,.9,3.08,1.94,4.47,3.11,2.2,1.85,4.17,3.98,5.81,6.34,1.14,1.65,2.24,3.33,3.1,5.15,.5,1.05,1.05,3.79,2.34,4.15,1.45,.41,1.72-5.79,1.85-6.94Zm-19.9-17.4c-7.92-3.29-16.78-3.64-25-1.26-2.68,.78-5.28,1.84-7.74,3.15,1.5-2.73,3.46-5.22,5.8-7.27,10.56-9.25,27.07-7.9,36.67,2.19,1.71,1.8,3.1,4.37,4.28,6.53,1.71,3.16,2.31,6.47,2.09,9.75-3.94-5.81-9.62-10.39-16.11-13.08Z"/></g><g><path class="cls-5" d="M184.82,190.06c.09-.7,.13-1.36,.18-1.79,.63-5.84-1.74-12.74-5.62-17.04-11.69-12.94-30.58-11.32-44.19-2.73-2.64,1.66-5.47,3.95-5.51,7.07,0,.28,.03,.59,.22,.79,.32,.35,.88,.24,1.33,.11,4.19-1.23,8.59-3.06,13-3.24,3.6-.15,7.04-.45,10.63,.18,3.58,.63,7.3,1.34,10.7,2.66,3.71,1.44,6.77,3.75,9.63,6.47,1.25,1.19,2.56,2.05,3.67,3.45,1.21,1.52,2.24,3.19,3.02,4.97,.33,.75,1.28,2.89,2.12,1.95,.47-.53,.7-1.74,.84-2.85Z"/><path d="M186.51,195.65c.11-.43,.18-.73,.19-.85,.37-2.72,.68-5.52,.73-8.27,.04-2.3-.23-4.61-.84-6.83-.62-2.28-1.42-4.76-2.76-6.74-1-1.49-2.03-2.96-3.28-4.25-2.23-2.31-4.78-4.3-7.57-5.91-.11-.07-.23-.13-.35-.2-.98-.54-1.95-.97-2.99-1.35-17.16-6.4-42.22-1.3-44.89,20.08-.05,.42-.09,.88,.13,1.25,.94,1.6,5.44-1.21,6.4-1.96,1.29-1,2.54-1.99,3.98-2.77,4.07-2.22,8.32-2.59,12.83-2.85,1.6-.09,3.21-.08,4.82,.04,6.37,.49,12.62,2.72,17.71,6.61,1.45,1.1,2.79,2.33,4.02,3.67,1.94,2.12,3.61,4.49,4.93,7.04,.92,1.78,1.78,3.6,2.4,5.51,.36,1.1,.54,3.89,1.78,4.42,1.38,.6,2.46-5.51,2.75-6.64Zm-17.44-19.86c-7.42-4.3-16.15-5.81-24.62-4.53-2.82,.43-5.76,1.21-8.4,2.29-.86,.35-6.24,2.25-6.35,2.7,.64-2.59,3.98-5.01,5.97-6.63,12.32-10.01,33.83-8.98,43.48,4.28,1.46,2.01,2.5,4.74,3.38,7.04,1.28,3.36,1.44,6.72,.79,9.94-3.14-6.27-8.18-11.56-14.25-15.08Z"/></g></g></g></svg>