<?xml version="1.0" encoding="UTF-8"?><svg id="Eyes" xmlns="http://www.w3.org/2000/svg" xmlns:xlink="http://www.w3.org/1999/xlink" viewBox="0 0 500 500"><defs><style>.cls-1{fill:#e97a91;}.cls-2{fill:#fbfaf9;}.cls-3{fill:#d56581;}.cls-4{fill:url(#radial-gradient-2);}.cls-5{fill:url(#radial-gradient);}</style><radialGradient id="radial-gradient" cx="266.25" cy="208.36" fx="266.25" fy="208.36" r="24.93" gradientTransform="matrix(1,0,0,1,0,0)" gradientUnits="userSpaceOnUse"><stop offset="0" stop-color="#fff"/><stop offset=".43" stop-color="#fbfbfb"/><stop offset=".75" stop-color="#f2f2f2"/><stop offset="1" stop-color="#e5e5e5"/></radialGradient><radialGradient id="radial-gradient-2" cx="155.41" cy="188.56" fx="155.41" fy="188.56" r="26.35" xlink:href="#radial-gradient"/></defs><g id="_4" data-name="34"><g><path d="M264.67,236.32c2.15,.01,4.22-.14,6.1-.44,9.69-1.52,19.66-6.73,22.88-16.44,1.43-4.31,2.42-9.22,1.72-13.77-.91-5.95-2.03-11.58-6.81-15.71-2.36-2.04-4.67-3.96-7.6-5.08-1.48-.57-2.6-1.95-4.25-2.36-7.03-1.75-12.58-2.98-19.69-.5-5.99,2.09-10.89,6.55-14.53,11.63-7.65,10.66-7.83,25.15,.92,35.1,4.71,5.36,13.53,7.52,21.26,7.56Zm-23.85-20.41c-.37-2.7-.26-5.73-.09-7.72,.39-4.55,1.94-9.01,4.5-12.8,7.86-11.62,24.18-14.52,36.03-7.19,2.11,1.31,4.11,3.44,5.79,5.23,7.91,8.45,5.11,21.36-.79,30.21-2.48,3.72-6.04,6.05-10.37,7.32-4.82,1.42-9.77,1.89-14.66,1.33-4.79-.55-9.54-1.77-13.54-4.86-2.46-1.9-3.76-4.63-5.44-7.1-.75-1.1-1.19-2.69-1.43-4.42Z"/><path class="cls-5" d="M287.06,193.43c-1.68-1.79-3.68-3.93-5.79-5.23-11.85-7.32-28.16-4.43-36.03,7.19-2.56,3.79-4.11,8.25-4.5,12.8-.17,1.99-.28,5.02,.09,7.72,.24,1.73,.68,3.32,1.43,4.42,1.69,2.47,2.98,5.2,5.44,7.1,4,3.09,8.76,4.3,13.54,4.86,4.89,.57,9.84,.09,14.66-1.33,4.33-1.27,7.89-3.6,10.37-7.32,5.9-8.85,8.7-21.76,.79-30.21Z"/></g><g><path d="M171.09,213.27c3.22-1.36,6.1-3.5,8.81-5.78,.74-.63,1.4-1.25,1.87-2.09,1.91-3.4,3.82-6.14,4.36-10.06,.55-4.01,.47-8.15-.34-12.12-1.79-8.81-11.56-16.09-18.85-20.17-2.96-1.66-6.43-2.4-9.99-2.46-4.82-.09-9.8,1.07-13.91,2.88-3.83,1.69-9.22,4.73-11.68,8.19-1.8,2.53-3.46,5.17-4.65,7.96-2.16,5.08-3.02,11-1.67,16.55,1.49,6.09,5.27,9.64,9.89,13.58,9.8,8.34,24.88,8.28,36.15,3.52Zm-42.81-16.27c-.98-2.19-.4-3.52-.66-5.79-.53-4.73,1.53-8.81,3.57-12.93,3.39-6.85,10.09-12.11,17.75-13.66,3.36-.68,6.83-1.14,10.29-.52,7.57,1.34,16.11,6.74,20.13,13.35,2.41,3.96,3.95,8.49,3.92,13.16-.08,11.06-9.73,20.67-20.3,22.34-1.59,.25-3.23,.36-4.89,.34-4.33-.04-8.76-.92-12.72-2.23-6.36-2.1-14.31-7.82-17.09-14.06Z"/><path class="cls-4" d="M179.36,177.46c-4.02-6.61-12.56-12.01-20.13-13.35-3.46-.61-6.93-.16-10.29,.52-7.66,1.55-14.36,6.82-17.75,13.66-2.04,4.12-4.1,8.2-3.57,12.93,.25,2.27-.32,3.6,.66,5.79,2.78,6.24,10.74,11.96,17.09,14.06,3.96,1.31,8.39,2.19,12.72,2.23,1.66,.02,3.3-.09,4.89-.34,10.57-1.67,20.21-11.28,20.3-22.34,.04-4.67-1.51-9.2-3.92-13.16Z"/></g><g><path class="cls-1" d="M278.53,192.1c-.29-.06-.58-.11-.87-.14-2.69-.27-5.39,.74-7.6,2.31-1.48,1.06-2.77,2.37-4.21,3.47-.56,.43-2.66,2.67-3.18,1.27-.1-.25-.09-.53-.1-.8-.02-1.06-.13-2.13-.53-3.1-.78-1.86-3.04-2.97-4.96-3.24-4.98-.7-8.72,5.18-9.45,9.38-.23,1.32-.25,2.69,.09,3.98,.27,1.02,.75,1.96,1.24,2.89,3.27,6.25,6.8,12.37,9.7,18.8,.36,.81,.97,1.77,1.85,1.63,.35-.06,.64-.29,.91-.51,4.04-3.29,8.09-6.59,11.86-10.19,3.42-3.26,7.33-6.99,9.56-11.2,.8-1.51,1.42-3.13,1.74-4.82,.37-1.96-.09-3.51-.72-5.32-.79-2.28-2.95-3.89-5.32-4.41Z"/><path class="cls-3" d="M283.85,196.51c-.79-2.28-2.95-3.89-5.32-4.41-.29-.06-.58-.11-.87-.14-.88-.09-1.75-.03-2.61,.13,8.1,4.58-1.13,15.35-4.8,19.41-2.3,2.55-5.74,7.01-9.43,7.26-1.74,.11-2.93-1.35-4.09-2.45-1.24-1.18-2.33-2.53-3.23-3.99-1.24-2.01-1.75-4.28-2.98-6.26-1.42-2.28-2.72-4.22-2-6.96,.15-.57,.38-1.06,.68-1.5,.09-.43,.22-.84,.35-1.25-.99,1.58-1.66,3.34-1.93,4.88-.23,1.32-.25,2.69,.09,3.98,.27,1.02,.75,1.96,1.24,2.89,3.27,6.25,6.8,12.37,9.7,18.8,.36,.81,.97,1.77,1.85,1.63,.35-.06,.64-.29,.91-.51,4.04-3.29,8.09-6.59,11.86-10.19,3.42-3.26,7.33-6.99,9.56-11.2,.8-1.51,1.42-3.13,1.74-4.82,.37-1.96-.09-3.51-.72-5.32Z"/><path d="M274.66,210.89c2.41-2.52,5.06-4.93,5.52-9.78,.16-1.15-.52-3.87-2.11-3.55-2,.4-.79,3.57-1.01,4.86-.32,1.96-1.72,3.64-2.95,5.12-.42,.51-.85,1-1.26,1.51-.49,.61-.4,1.25,.09,1.77,.5,.53,1.26,.56,1.73,.07Z"/><path d="M275.48,190.45c-1.9,0-3.79,.37-5.46,1.1-2.04,.89-4.1,1.79-5.88,3.13-3.49-7.22-13.17-7.09-16.4,.1-2.88,6.42-1.54,12.64,1.36,18.44,2.66,5.32,5.66,10.46,7.9,16,1.37,3.38,2.13,3.61,5.3,1.13,3.1-2.42,5.75-5.42,8.85-7.84,4.75-3.71,8.38-8.41,12.25-12.94,3.24-3.8,4.39-9.68,1.75-14.12-2.02-3.4-5.84-4.97-9.66-4.98Zm6.71,15.71c-4.94,7.51-13.24,15.13-22.3,20.25-3.31-6.61-7.78-12.61-10.04-19.73-1.16-3.66-.65-7.43,1.25-10.9,1.69-3.08,3.71-4.03,6.38-2.96,4.27,1.72,3.82,5.62,2.65,9.29-.23,.71-.12,1.69,.59,1.93,1.46,.51,2.61-2.24,3.25-3.1,1.12-1.5,2.61-2.72,4.15-3.77,2.68-1.82,6.62-3.95,10-3.23,5.24,1.12,7.3,7.3,4.08,12.21Z"/></g><g><path class="cls-1" d="M169.21,171.86c-.29-.06-.58-.11-.87-.14-2.69-.27-5.39,.74-7.6,2.31-1.48,1.06-2.77,2.37-4.21,3.47-.56,.43-2.66,2.67-3.18,1.27-.1-.25-.09-.53-.1-.8-.02-1.06-.13-2.13-.53-3.1-.78-1.86-3.04-2.97-4.96-3.24-4.98-.7-8.72,5.18-9.45,9.38-.23,1.32-.25,2.69,.09,3.98,.27,1.02,.75,1.96,1.24,2.89,3.27,6.25,6.8,12.37,9.7,18.8,.36,.81,.97,1.77,1.85,1.63,.35-.06,.64-.29,.91-.51,4.04-3.29,8.09-6.59,11.86-10.19,3.42-3.26,7.33-6.99,9.56-11.2,.8-1.51,1.42-3.13,1.74-4.82,.37-1.96-.09-3.51-.72-5.32-.79-2.28-2.95-3.89-5.32-4.41Z"/><path class="cls-3" d="M174.53,176.26c-.79-2.28-2.95-3.89-5.32-4.41-.29-.06-.58-.11-.87-.14-.88-.09-1.75-.03-2.61,.13,8.1,4.58-1.13,15.35-4.8,19.41-2.3,2.55-5.74,7.01-9.43,7.26-1.74,.11-2.93-1.35-4.09-2.45-1.24-1.18-2.33-2.53-3.23-3.99-1.24-2.01-1.75-4.28-2.98-6.26-1.42-2.28-2.72-4.22-2-6.96,.15-.57,.38-1.06,.68-1.5,.09-.43,.22-.84,.35-1.25-.99,1.58-1.66,3.34-1.93,4.88-.23,1.32-.25,2.69,.09,3.98,.27,1.02,.75,1.96,1.24,2.89,3.27,6.25,6.8,12.37,9.7,18.8,.36,.81,.97,1.77,1.85,1.63,.35-.06,.64-.29,.91-.51,4.04-3.29,8.09-6.59,11.86-10.19,3.42-3.26,7.33-6.99,9.56-11.2,.8-1.51,1.42-3.13,1.74-4.82,.37-1.96-.09-3.51-.72-5.32Z"/><path d="M165.33,190.65c2.41-2.52,5.06-4.93,5.52-9.78,.16-1.15-.52-3.87-2.11-3.55-2,.4-.79,3.57-1.01,4.86-.32,1.96-1.72,3.64-2.95,5.12-.42,.51-.85,1-1.26,1.51-.49,.61-.4,1.25,.09,1.77,.5,.53,1.26,.56,1.73,.07Z"/><path d="M166.16,170.2c-1.9,0-3.79,.37-5.46,1.1-2.04,.89-4.1,1.79-5.88,3.13-3.49-7.22-13.17-7.09-16.4,.1-2.88,6.42-1.54,12.64,1.36,18.44,2.66,5.32,5.66,10.46,7.9,16,1.37,3.38,2.13,3.61,5.3,1.13,3.1-2.42,5.75-5.42,8.85-7.84,4.75-3.71,8.38-8.41,12.25-12.94,3.24-3.8,4.39-9.68,1.75-14.12-2.02-3.4-5.84-4.97-9.66-4.98Zm6.71,15.71c-4.94,7.51-13.24,15.13-22.3,20.25-3.31-6.61-7.78-12.61-10.04-19.73-1.16-3.66-.65-7.43,1.25-10.9,1.69-3.08,3.71-4.03,6.38-2.96,4.27,1.72,3.82,5.62,2.65,9.29-.23,.71-.12,1.69,.59,1.93,1.46,.51,2.61-2.24,3.25-3.1,1.12-1.5,2.61-2.72,4.15-3.77,2.68-1.82,6.62-3.95,10-3.23,5.24,1.12,7.3,7.3,4.08,12.21Z"/></g><g><path class="cls-2" d="M145.38,174.05c-1.26-.05-2.49,.26-3.62,.81-.32,.16-.6,.56-.69,.9-.1,.36-.05,.84,.15,1.16,.21,.32,.51,.6,.9,.69l.4,.05c.27,0,.52-.07,.76-.2,.02-.01,.05-.02,.07-.03,.38-.15,.77-.26,1.18-.33,.29-.03,.57-.05,.86-.04,.38,.01,.8-.18,1.06-.44,.26-.26,.46-.69,.44-1.06-.04-.84-.66-1.47-1.5-1.5Z"/><path class="cls-2" d="M258.67,194.73c-.2-.32-.52-.61-.9-.69-1.5-.3-3.11-.06-4.4,.81-.33,.22-.58,.51-.69,.9-.1,.36-.05,.84,.15,1.16,.21,.32,.51,.6,.9,.69,.38,.09,.82,.07,1.16-.15,.19-.13,.4-.23,.61-.33,.22-.08,.44-.14,.67-.18,.26-.02,.53-.02,.79,0h0c.4,.08,.8,.06,1.16-.15,.31-.18,.61-.54,.69-.9,.09-.38,.07-.82-.15-1.16Z"/><path class="cls-2" d="M256.6,199.42l-.23-.3c-.19-.19-.41-.31-.66-.39-.03-.01-.07-.02-.1-.03-.02,0-.04,0-.06-.01-.14-.02-.29-.05-.44-.06-.04,0-.08,0-.11,0-.08,0-.17,.02-.24,.03-.08,.01-.17,.02-.25,.03-.04,0-.07,.02-.1,.03-.07,.03-.15,.06-.22,.09-.07,.03-.15,.06-.23,.1-.03,.02-.06,.03-.09,.06-.11,.08-.23,.17-.34,.26-.01,.01-.03,.02-.04,.04-.15,.14-.25,.3-.31,.48-.09,.18-.14,.37-.13,.58,0,.21,.04,.4,.13,.58,.06,.19,.16,.35,.31,.48l.3,.23c.23,.14,.49,.2,.76,.2l.4-.05c.09-.02,.16-.06,.24-.1,.11,0,.22,0,.32-.02,.2,0,.39-.07,.56-.18,.17-.09,.32-.22,.42-.39,.13-.14,.22-.31,.27-.51l.05-.4c0-.27-.07-.52-.2-.76Z"/><path class="cls-2" d="M145.89,179.26l-.15-.36c-.13-.23-.31-.4-.54-.54l-.36-.15c-.27-.07-.53-.07-.8,0-.45,.1-.89,.19-1.34,.29-.2,.05-.37,.14-.51,.27-.16,.11-.29,.25-.39,.42-.11,.17-.17,.36-.18,.56-.04,.2-.04,.4,.03,.6l.15,.36c.13,.23,.31,.4,.54,.54l.36,.15c.27,.07,.53,.07,.8,0,.45-.1,.89-.19,1.34-.29,.2-.05,.37-.14,.51-.27,.16-.11,.29-.25,.39-.42,.11-.17,.17-.36,.18-.56,.04-.2,.04-.4-.03-.6Z"/></g></g></svg>