<?xml version="1.0" encoding="UTF-8"?><svg id="Eyes" xmlns="http://www.w3.org/2000/svg" xmlns:xlink="http://www.w3.org/1999/xlink" viewBox="0 0 500 500"><defs><style>.cls-1{fill:url(#radial-gradient-2);}.cls-2{fill:url(#radial-gradient);}</style><radialGradient id="radial-gradient" cx="266.25" cy="208.36" fx="266.25" fy="208.36" r="24.93" gradientTransform="matrix(1,0,0,1,0,0)" gradientUnits="userSpaceOnUse"><stop offset="0" stop-color="#fff"/><stop offset=".43" stop-color="#fbfbfb"/><stop offset=".75" stop-color="#f2f2f2"/><stop offset="1" stop-color="#e5e5e5"/></radialGradient><radialGradient id="radial-gradient-2" cx="155.41" cy="188.56" fx="155.41" fy="188.56" r="26.35" xlink:href="#radial-gradient"/></defs><g id="_3_Eyes_black_1" data-name="33_Eyes_black_1"><g><path d="M264.67,236.32c2.15,.01,4.22-.14,6.1-.44,9.69-1.52,19.66-6.73,22.88-16.44,1.43-4.31,2.42-9.22,1.72-13.77-.91-5.95-2.03-11.58-6.81-15.71-2.36-2.04-4.67-3.96-7.6-5.08-1.48-.57-2.6-1.95-4.25-2.36-7.03-1.75-12.58-2.98-19.69-.5-5.99,2.09-10.89,6.55-14.53,11.63-7.65,10.66-7.83,25.15,.92,35.1,4.71,5.36,13.53,7.52,21.26,7.56Zm-23.85-20.41c-.37-2.7-.26-5.73-.09-7.72,.39-4.55,1.94-9.01,4.5-12.8,7.86-11.62,24.18-14.52,36.03-7.19,2.11,1.31,4.11,3.44,5.79,5.23,7.91,8.45,5.11,21.36-.79,30.21-2.48,3.72-6.04,6.05-10.37,7.32-4.82,1.42-9.77,1.89-14.66,1.33-4.79-.55-9.54-1.77-13.54-4.86-2.46-1.9-3.76-4.63-5.44-7.1-.75-1.1-1.19-2.69-1.43-4.42Z"/><path class="cls-2" d="M287.06,193.43c-1.68-1.79-3.68-3.93-5.79-5.23-11.85-7.32-28.16-4.43-36.03,7.19-2.56,3.79-4.11,8.25-4.5,12.8-.17,1.99-.28,5.02,.09,7.72,.24,1.73,.68,3.32,1.43,4.42,1.69,2.47,2.98,5.2,5.44,7.1,4,3.09,8.76,4.3,13.54,4.86,4.89,.57,9.84,.09,14.66-1.33,4.33-1.27,7.89-3.6,10.37-7.32,5.9-8.85,8.7-21.76,.79-30.21Z"/></g><g><path d="M171.09,213.27c3.22-1.36,6.1-3.5,8.81-5.78,.74-.63,1.4-1.25,1.87-2.09,1.91-3.4,3.82-6.14,4.36-10.06,.55-4.01,.47-8.15-.34-12.12-1.79-8.81-11.56-16.09-18.85-20.17-2.96-1.66-6.43-2.4-9.99-2.46-4.82-.09-9.8,1.07-13.91,2.88-3.83,1.69-9.22,4.73-11.68,8.19-1.8,2.53-3.46,5.17-4.65,7.96-2.16,5.08-3.02,11-1.67,16.55,1.49,6.09,5.27,9.64,9.89,13.58,9.8,8.34,24.88,8.28,36.15,3.52Zm-42.81-16.27c-.98-2.19-.4-3.52-.66-5.79-.53-4.73,1.53-8.81,3.57-12.93,3.39-6.85,10.09-12.11,17.75-13.66,3.36-.68,6.83-1.14,10.29-.52,7.57,1.34,16.11,6.74,20.13,13.35,2.41,3.96,3.95,8.49,3.92,13.16-.08,11.06-9.73,20.67-20.3,22.34-1.59,.25-3.23,.36-4.89,.34-4.33-.04-8.76-.92-12.72-2.23-6.36-2.1-14.31-7.82-17.09-14.06Z"/><path class="cls-1" d="M179.36,177.46c-4.02-6.61-12.56-12.01-20.13-13.35-3.46-.61-6.93-.16-10.29,.52-7.66,1.55-14.36,6.82-17.75,13.66-2.04,4.12-4.1,8.2-3.57,12.93,.25,2.27-.32,3.6,.66,5.79,2.78,6.24,10.74,11.96,17.09,14.06,3.96,1.31,8.39,2.19,12.72,2.23,1.66,.02,3.3-.09,4.89-.34,10.57-1.67,20.21-11.28,20.3-22.34,.04-4.67-1.51-9.2-3.92-13.16Z"/></g><path d="M170.69,183.22c-2.5-4.48-6.13-7.03-11.02-8.3s-10.28-1.15-15.29,.19c-1.86,.5-1.07,3.39,.8,2.89,8.42-2.24,19.03-1.59,23.18,7.37,1.73,3.74,3.01,8.29,1,12.18-1.56,3.02-4.52,5.06-7.67,6.15-5.03,1.74-11.35,1.47-15.8-1.66-5.23-3.67-4.88-9.68,.77-12.83,3.47-1.93,7.74-1.87,11.18,.08,2.92,1.66,5.93,5.28,3.15,8.35-.45,.49-.9,.99-1.48,1.32-1.73,.97-11.4-.43-9.27-3.76,.17-.27,1.06-.68,1.26-.2,.32,.75,.99,1.27,1.85,1.05,.71-.19,1.36-1.1,1.05-1.85-.88-2.08-3.32-3.07-5.37-1.9-2.11,1.2-2.43,4.14-1.23,6.1,2.62,4.25,11.63,5.17,14.85,1.47,1.01-1.16,1.53-2.4,1.54-3.94,.03-4-1.36-7.25-4.83-9.22-4.78-2.71-10.6-2.41-15.19,.52-2.22,1.42-3.43,2.55-4.1,5.26-.76,3.09-.33,7.73,1.95,10.13,2.7,2.84,6.66,4.39,10.47,4.92,9.3,1.27,21.22-4.04,20.89-14.83-.1-3.15-1.04-6.55-2.68-9.48Z"/><path d="M281.07,200.3c-2.5-4.48-6.13-7.03-11.02-8.3s-10.28-1.15-15.29,.19c-1.86,.5-1.07,3.39,.8,2.89,8.42-2.24,19.03-1.59,23.18,7.37,1.73,3.74,3.01,8.29,1,12.18-1.56,3.02-4.52,5.06-7.67,6.15-5.03,1.74-11.35,1.47-15.8-1.66-5.23-3.67-4.88-9.68,.77-12.83,3.47-1.93,7.74-1.87,11.18,.08,2.92,1.66,5.93,5.28,3.15,8.35-.45,.49-.9,.99-1.48,1.32-1.73,.97-11.4-.43-9.27-3.76,.17-.27,1.06-.68,1.26-.2,.32,.75,.99,1.27,1.85,1.05,.71-.19,1.36-1.1,1.05-1.85-.88-2.08-3.32-3.07-5.37-1.9-2.11,1.2-2.43,4.14-1.23,6.1,2.62,4.25,11.63,5.17,14.85,1.47,1.01-1.16,1.53-2.4,1.54-3.94,.03-4-1.36-7.25-4.83-9.22-4.78-2.71-10.6-2.41-15.19,.52-2.22,1.42-3.43,2.55-4.1,5.26-.76,3.09-.33,7.73,1.95,10.13,2.7,2.84,6.66,4.39,10.47,4.92,9.3,1.27,21.22-4.04,20.89-14.83-.1-3.15-1.04-6.55-2.68-9.48Z"/></g></svg>