<?xml version="1.0" encoding="UTF-8"?>
<svg id="Adds" xmlns="http://www.w3.org/2000/svg" viewBox="0 0 500 500">
  <defs>
    <style>
      .cls-1 {
        fill: none;
      }

      .cls-2 {
        fill: #e97a91;
      }

      .cls-3 {
        fill: #fbc7d0;
      }
    </style>
  </defs>
  <g id="Nipples">
    <rect class="cls-1" width="500" height="500"/>
    <g>
      <path class="cls-3" d="M283.1,471.39c-.39,.02-.69-.11-.9-.32-3.33-.86-7.93-.07-9.67,3.16-.78,1.45-1.16,3.3-.97,4.93,.2,1.67,1.18,3.08,2.47,4.12,2.29,1.87,5.58,2.48,8.45,1.94,1.62-.31,2.94-1,3.85-2.41,.81-1.25,1.28-2.71,1.32-4.21,.04-1.62-.44-3.08-1.32-4.43-.69-1.04-1.8-2.87-3.22-2.79Zm-2.35,8.51c-.71,.64-1.58,1.08-2.55,1.13-.48,.02-.98-.09-1.43-.23-.43-.13-.87-.29-1.25-.53-1.38-.88-2.03-2.72-1.5-4.28,.29-.86,.84-1.54,1.57-2.07,.4-.29,.84-.48,1.3-.61,.01,0,.03-.02,.04-.03,.52-.22,1.03-.38,1.6-.36,.54,.02,1.03,.15,1.53,.37,.91,.42,1.55,1.24,1.89,2.17,.56,1.55,.01,3.36-1.2,4.44Z"/>
      <path class="cls-2" d="M140.97,473.16c0-.05,0-.1,0-.15-.02-.1-.04-.19-.07-.28v-.02s.02,.02-.03-.08h0s-.01-.05-.01-.05c0,0,0,.02,0,.03-.04-.06-.15-.22-.19-.3-.03-.03-.05-.06-.08-.08h-.02s0-.02-.03-.04c-.03-.03-.07-.06-.07-.06,0,0,.01,.02,.02,.03-.04-.03-.09-.05-.13-.08,.02,0,.03,.01,.06,.02-.02,0-.05-.01-.07-.02h-.02c-.05-.04-.1-.04-.06-.02-.07-.02-.14-.04-.22-.06-.03,0-.06,0-.09,0-.19,.1-.39,.15-.63,.18,.42-.05-.09,.03-.19,.06-.06,.02-.12,.04-.17,.06,.02,0,.02-.01,.04-.03-.02,.01-.04,.02-.05,.03h-.03c-.05,.03-.09,.06-.06,.05-.06,.03-.12,.06-.18,.1-.05,.03-.1,.07-.15,.1-.1,.09-.19,.18-.28,.28-.02,.04-.05,.07-.07,.11-.03,.05-.06,.1-.08,.15,0-.02,0-.03,.01-.05,0,.02-.01,.04-.02,.06l-.02,.04c-.03,.06-.03,.1,0,.05-.02,.06-.04,.13-.06,.19,0,.05,0,.09,0,.14,0,.13,.07,.44-.02,.06,.02,.11,.04,.21,.07,.32,.01,.03,.02,.07,.03,.1,0-.01-.01-.02-.02-.03,0,.01,.01,.03,.02,.04l.02,.06c.02,.07,.05,.08,.03,.03,.03,.05,.05,.09,.08,.14l.08,.08s0,.02,.05,.04c.03,.03,.06,.05,.09,.08-.03-.03-.04-.04-.06-.06,.06,.03,.12,.07,.19,.11,.04,.02,.08,.04,.12,.06l-.13-.06c.1,.08,.3,.11,.42,.15,.14,.04,.28,.08,.42,.12,.04,0,.07,.02,.11,.02,.04,0,.07,0,.08,0,0,0,.04,0,.09,0,0,0,0,0,.02,0,.02,0,.09-.02,.15-.03l.04-.02,.04-.02c.11-.05,.21-.11,.32-.18h.02s.01-.01,.06-.06c.02-.02,.05-.03,.05-.03,0,0-.01,0-.02,0,.08-.07,.16-.15,.24-.23,.03-.03,.06-.07,.08-.1-.01,.02-.03,.05-.07,.11,.03-.04,.06-.08,.09-.13,.07-.1,.13-.21,.19-.32,0,.02-.01,.04-.02,.07,0-.03,.02-.07,.04-.1,.02-.03,.02-.06,.02-.07,.01-.06,.04-.2,.06-.29-.01,.08,0,.16,.02-.05h0v-.02s0,.01,0,.02c0-.05,0-.1,0-.15Z"/>
      <path class="cls-3" d="M144.36,468.01c-.38,.02-.66-.1-.86-.3-3.2-.82-7.6-.07-9.27,3.03-.75,1.39-1.11,3.16-.93,4.73,.19,1.6,1.13,2.95,2.36,3.95,2.2,1.79,5.35,2.38,8.1,1.86,1.56-.29,2.82-.96,3.69-2.31,.78-1.2,1.23-2.6,1.26-4.03,.03-1.55-.42-2.96-1.27-4.25-.66-1-1.72-2.75-3.09-2.68Zm-2.25,8.16c-.68,.61-1.52,1.03-2.44,1.08-.46,.02-.94-.09-1.37-.22-.41-.13-.83-.28-1.2-.51-1.32-.84-1.95-2.6-1.44-4.1,.28-.83,.8-1.48,1.5-1.99,.38-.28,.8-.46,1.25-.59,.01,0,.03-.02,.04-.03,.5-.21,.99-.36,1.54-.34,.52,.02,.99,.14,1.46,.36,.88,.4,1.49,1.19,1.81,2.08,.54,1.48,.01,3.22-1.15,4.26Z"/>
      <path class="cls-2" d="M279.56,476.77c0-.05,0-.11,0-.16-.02-.1-.04-.2-.07-.3v-.02s.02,.02-.03-.08h0s-.01-.05-.01-.05c0,0,0,.02,0,.03-.04-.07-.16-.23-.2-.31-.03-.03-.05-.06-.08-.09h-.02s0-.02-.03-.04c-.04-.03-.07-.06-.07-.07,0,0,.01,.02,.02,.03-.05-.03-.09-.05-.14-.08,.02,0,.03,.01,.07,.02-.02,0-.05-.02-.07-.02h-.02c-.06-.04-.1-.04-.07-.02-.08-.02-.15-.05-.22-.07-.03,0-.07,0-.1,0-.2,.11-.41,.16-.66,.19,.44-.05-.09,.03-.2,.06-.06,.02-.12,.04-.18,.06,.02,0,.02-.01,.05-.03-.02,.01-.04,.02-.06,.03h-.03c-.06,.03-.09,.06-.07,.05-.06,.03-.13,.06-.19,.1-.05,.03-.11,.07-.16,.11-.1,.1-.2,.19-.29,.29-.02,.04-.05,.08-.08,.12-.03,.05-.06,.11-.09,.16,0-.02,0-.03,.01-.05,0,.02-.01,.04-.02,.06l-.02,.04c-.04,.06-.03,.11,0,.06-.02,.07-.04,.13-.06,.2,0,.05,0,.1,0,.15,0,.13,.07,.46-.02,.07,.02,.11,.04,.22,.07,.33,.01,.04,.02,.07,.04,.11,0-.01-.01-.02-.02-.04,0,.01,.02,.03,.02,.04l.02,.06c.02,.07,.06,.09,.04,.03,.03,.05,.06,.1,.08,.15l.08,.08s0,.02,.05,.05c.03,.03,.06,.05,.09,.08-.03-.03-.04-.04-.06-.06,.07,.04,.13,.08,.2,.11,.04,.02,.08,.04,.12,.06l-.14-.06c.1,.08,.31,.11,.44,.15,.14,.05,.29,.09,.44,.12,.04,0,.08,.02,.11,.02,.04,0,.07,0,.09,0,0,0,.04,0,.09,0,0,0,0,0,.02,0,.02,0,.1-.02,.16-.04l.04-.02,.04-.02c.11-.06,.22-.12,.33-.19h.02s.01-.01,.06-.06c.02-.02,.05-.04,.05-.03,0,0-.02,0-.02,0,.09-.08,.17-.15,.25-.24,.03-.03,.06-.08,.08-.11-.01,.02-.03,.06-.07,.12,.03-.05,.06-.09,.09-.13,.07-.11,.13-.22,.19-.33,0,.02-.01,.04-.02,.07,0-.04,.03-.07,.04-.11,.02-.03,.02-.06,.02-.07,.01-.06,.04-.21,.07-.3-.01,.08,0,.17,.02-.05h0v-.02s0,.01,0,.02c0-.05,0-.11,0-.16Z"/>
      <path d="M144.86,465.55c-.09-.06-.2-.11-.32-.15-3.92-1.2-9.33-.3-11.88,3.15-2.52,3.42-2.59,8.49,.26,11.7,2.62,2.94,6.84,4.07,10.66,3.57,2.03-.27,3.95-.99,5.3-2.6,1.3-1.55,2.07-3.48,2.28-5.49,.24-2.23-.33-4.44-1.56-6.31-1.09-1.66-2.63-3.69-4.75-3.88Zm2.6,13.42c-.88,1.35-2.13,2.02-3.69,2.31-2.75,.52-5.9-.07-8.1-1.86-1.23-1-2.17-2.35-2.36-3.95-.19-1.57,.18-3.34,.93-4.73,1.67-3.09,6.07-3.85,9.27-3.03,.2,.2,.48,.32,.86,.3,1.37-.07,2.43,1.68,3.09,2.68,.85,1.29,1.3,2.7,1.27,4.25-.03,1.43-.48,2.83-1.26,4.03Z"/>
      <path d="M141.45,469.84c-.47-.22-.94-.34-1.46-.36-.55-.02-1.04,.13-1.54,.34-.01,0-.03,.02-.04,.03-.44,.13-.86,.31-1.25,.59-.7,.51-1.22,1.16-1.5,1.99-.51,1.5,.11,3.25,1.44,4.1,.36,.23,.79,.38,1.2,.51,.44,.14,.91,.25,1.37,.22,.93-.05,1.76-.47,2.44-1.08,1.16-1.04,1.69-2.77,1.15-4.26-.32-.89-.94-1.68-1.81-2.08Zm-.48,3.48h0c-.01,.21-.03,.13-.02,.05-.02,.09-.05,.23-.06,.29,0,0,0,.04-.02,.07-.01,.03-.03,.07-.04,.1,0-.03,.01-.05,.02-.07-.06,.11-.12,.22-.19,.32-.03,.04-.06,.08-.09,.13,.04-.06,.06-.09,.07-.11-.02,.03-.05,.07-.08,.1-.07,.08-.15,.16-.24,.23,0,0,.02-.01,.02,0,0,0-.03,.02-.05,.03-.05,.04-.06,.05-.06,.04h-.02c-.1,.08-.21,.14-.32,.19l-.04,.02-.04,.02c-.06,.02-.14,.03-.15,.03-.01,0-.01,0-.02,0-.04,0-.09,0-.09,0-.01,0-.05,0-.08,0-.04,0-.07-.01-.11-.02-.14-.03-.28-.07-.42-.12-.12-.04-.32-.07-.42-.15l.13,.06s-.08-.04-.12-.06c-.06-.03-.12-.07-.19-.11,.02,.02,.03,.03,.06,.06-.03-.03-.06-.05-.09-.08-.04-.03-.06-.05-.05-.04l-.08-.08s-.05-.09-.08-.14c.02,.05-.01,.04-.03-.03l-.02-.06s-.01-.03-.02-.04c.01,.01,.01,.02,.02,.03-.01-.03-.02-.07-.03-.1-.03-.1-.05-.21-.07-.32,.08,.38,.02,.06,.02-.06,0-.05,0-.09,0-.14,.02-.06,.04-.13,.06-.19-.02,.05-.03,0,0-.05l.02-.04s.01-.04,.02-.06c0,.02,0,.03-.01,.05,.03-.05,.05-.1,.08-.15,.02-.04,.05-.07,.07-.11,.09-.1,.19-.19,.28-.28,.05-.03,.1-.07,.15-.1,.06-.04,.12-.07,.18-.1-.02,0,.01-.02,.06-.04h.03s.04-.03,.05-.04c-.02,.01-.03,.02-.04,.03,.06-.02,.11-.04,.17-.06,.1-.03,.61-.11,.19-.06,.23-.03,.44-.07,.63-.18,.03,0,.06,0,.09,0,.07,.02,.14,.04,.22,.06-.03-.02,0-.02,.06,.02h.02s.05,.02,.07,.03c-.03,0-.04-.01-.06-.02,.04,.03,.09,.05,.13,.08,0-.01-.02-.02-.02-.03,0,0,.04,.04,.07,.06,.02,.02,.04,.03,.03,.03h.02s.05,.07,.08,.09c.04,.08,.15,.23,.19,.3,0,0,0-.02,0-.03,0,0,0,.02,.01,.04h0c.05,.11,.04,.11,.02,.09v.02c.04,.09,.06,.19,.07,.28,0,.05,0,.1,0,.15,0,.05,0,.1,0,.15,0,0,0-.01,0-.02v.02Z"/>
      <path d="M283.62,468.82c-.1-.06-.21-.12-.33-.15-4.09-1.25-9.73-.31-12.39,3.29-2.63,3.56-2.7,8.86,.27,12.2,2.73,3.07,7.14,4.24,11.12,3.72,2.12-.28,4.12-1.03,5.53-2.71,1.36-1.62,2.16-3.63,2.38-5.73,.25-2.32-.34-4.63-1.62-6.58-1.14-1.73-2.74-3.85-4.96-4.05Zm2.71,14c-.91,1.41-2.23,2.1-3.85,2.41-2.87,.54-6.16-.08-8.45-1.94-1.28-1.05-2.27-2.45-2.47-4.12-.19-1.63,.19-3.49,.97-4.93,1.74-3.23,6.33-4.02,9.67-3.16,.21,.21,.51,.34,.9,.32,1.42-.08,2.54,1.75,3.22,2.79,.89,1.35,1.36,2.81,1.32,4.43-.03,1.49-.51,2.95-1.32,4.21Z"/>
      <path d="M280.06,473.29c-.49-.22-.98-.36-1.53-.37-.57-.02-1.08,.14-1.6,.36-.01,0-.03,.02-.04,.03-.46,.13-.9,.32-1.3,.61-.73,.53-1.27,1.21-1.57,2.07-.53,1.56,.12,3.39,1.5,4.28,.38,.24,.82,.4,1.25,.53,.46,.14,.95,.26,1.43,.23,.97-.05,1.84-.49,2.55-1.13,1.21-1.08,1.76-2.89,1.2-4.44-.34-.93-.98-1.75-1.89-2.17Zm-.5,3.63h0c-.01,.22-.03,.13-.02,.05-.03,.09-.05,.24-.07,.3,0,0,0,.04-.02,.07-.01,.04-.03,.07-.04,.11,0-.04,.01-.05,.02-.07-.06,.11-.12,.23-.19,.33-.03,.04-.07,.09-.09,.13,.04-.06,.06-.1,.07-.12-.02,.03-.05,.08-.08,.11-.08,.08-.16,.16-.25,.24,0,0,.02-.01,.02,0,0,0-.03,.02-.05,.03-.05,.04-.07,.05-.06,.05h-.02c-.11,.08-.22,.15-.33,.2l-.04,.02-.04,.02c-.07,.02-.14,.03-.16,.04-.01,0-.01,0-.02,0-.05,0-.09,0-.09,0-.01,0-.05,0-.09,0-.04,0-.08-.01-.11-.02-.15-.03-.29-.08-.44-.12-.13-.04-.33-.07-.44-.15l.14,.06s-.08-.04-.12-.06c-.07-.03-.13-.08-.2-.11,.02,.02,.03,.03,.06,.06-.03-.03-.06-.05-.09-.08-.04-.03-.06-.05-.05-.05l-.08-.08s-.06-.1-.08-.15c.02,.06-.01,.04-.04-.03l-.02-.06s-.01-.03-.02-.04c.01,.02,.01,.02,.02,.04-.01-.04-.02-.07-.04-.11-.03-.11-.05-.22-.07-.33,.09,.39,.02,.07,.02-.07,0-.05,0-.1,0-.15,.02-.07,.04-.13,.06-.2-.02,.05-.03,0,0-.06l.02-.04s.01-.04,.02-.06c0,.03,0,.03-.01,.05,.03-.05,.06-.11,.09-.16,.02-.04,.05-.08,.08-.12,.1-.1,.2-.19,.29-.29,.05-.04,.11-.07,.16-.11,.06-.04,.13-.07,.19-.1-.02,0,.01-.02,.07-.04h.03s.04-.03,.06-.04c-.02,.01-.03,.02-.05,.03,.06-.02,.12-.04,.18-.06,.11-.03,.64-.11,.2-.06,.24-.03,.46-.08,.66-.19,.03,0,.07,0,.1,0,.07,.02,.15,.04,.22,.07-.04-.02,.01-.02,.07,.02h.02s.05,.03,.07,.03c-.03,0-.04-.01-.07-.02,.05,.03,.09,.05,.14,.08,0-.01-.02-.02-.02-.03,0,0,.04,.04,.07,.07,.03,.02,.04,.03,.03,.03h.02s.06,.07,.08,.1c.04,.08,.16,.24,.2,.31,0,0,0-.02,0-.03,0,0,0,.02,.01,.04h0c.05,.11,.04,.12,.03,.09v.02c.04,.1,.06,.2,.08,.3,0,.05,0,.11,0,.16,0,.05,0,.11,0,.16,0,0,0-.02,0-.02v.02Z"/>
    </g>
    <path d="M179.89,481.71c-2.51,6.63-8.37,11.76-15.23,13.48-1.56,.39-.9,2.8,.66,2.41,7.75-1.95,14.16-7.78,16.97-15.23,.57-1.51-1.85-2.16-2.41-.66Z"/>
    <path d="M268.26,495.2c-8.68,.77-17.29-4.06-21.13-11.89-.71-1.44-2.87-.18-2.16,1.26,4.19,8.55,13.8,13.97,23.29,13.13,1.59-.14,1.6-2.64,0-2.5Z"/>
  </g>
</svg>