<?xml version="1.0" encoding="UTF-8"?>
<svg id="Nose_Mouth" xmlns="http://www.w3.org/2000/svg" xmlns:xlink="http://www.w3.org/1999/xlink" viewBox="0 0 500 500">
  <defs>
    <style>
      .cls-1 {
        fill: url(#New_Gradient_Swatch_25);
      }

      .cls-2 {
        fill: #f5a2ac;
      }

      .cls-3 {
        fill: #e97a91;
      }

      .cls-4 {
        fill: #fff;
      }

      .cls-5 {
        fill: #dcdbda;
      }
    </style>
    <linearGradient id="New_Gradient_Swatch_25" data-name="New Gradient Swatch 25" x1="185.78" y1="301.59" x2="185.78" y2="280.36" gradientTransform="matrix(1, 0, 0, 1, 0, 0)" gradientUnits="userSpaceOnUse">
      <stop offset="0" stop-color="#d56581"/>
      <stop offset=".23" stop-color="#d0607b"/>
      <stop offset=".51" stop-color="#c2546b"/>
      <stop offset=".83" stop-color="#ac4151"/>
      <stop offset="1" stop-color="#9f3541"/>
    </linearGradient>
  </defs>
  <g id="__Nose_Mouth_smile" data-name="4_Nose_Mouth_smile">
    <path class="cls-2" d="M190.81,252.21c4.29-2.08,9.03-3.7,13.43-5.65,3.61-1.6,11.41-5.24,10.58-10.35-.47-2.88-4.01-4.37-6.37-5.34-5.84-2.41-12.92-3.89-19.23-4.07-3.5-.1-14.3-.08-14.16,5.4,.07,2.87,2.39,9.65,5.76,14.64,2.83,4.19,6.4,7.11,9.99,5.37Z"/>
    <path class="cls-3" d="M190.81,252.21c4.29-2.08,9.03-3.7,13.43-5.65,3.61-1.6,11.41-5.24,10.58-10.35-.34-2.08-2.68-6.65-5.46-5.63-.86,.32-1.31,1.24-1.78,2.03-.56,.94-1.27,1.78-1.98,2.63-2.01,2.4-3.86,4.61-6.42,6.46-2.05,1.49-4.23,2.44-6.55,3.36-2.27,.9-4.87,1.15-7.14,.26-2.23-.88-4.42-2.91-5.62-4.96-1.02-1.74-2.22-4.28-4.24-5.05-.31,1.36,.83,2.84,1.33,4.11,1.03,2.59,2.29,5.11,3.85,7.42,2.83,4.19,6.4,7.11,9.99,5.37Z"/>
    <g>
      <path class="cls-4" d="M189.22,230.23c-.34-.53-.86-1.01-1.49-1.15-1.14-.25-2.31-.41-3.48-.44-1.17-.03-2.34,.1-3.49,.3-.58,.1-1.21,.66-1.49,1.15-.31,.54-.45,1.33-.25,1.93,.2,.6,.57,1.19,1.15,1.49,.2,.08,.4,.17,.6,.25,.44,.12,.89,.12,1.33,0,.04,0,.08-.01,.12-.02,1.07-.12,2.15-.13,3.23-.02,.32,.05,.64,.1,.96,.17,.65,.14,1.34,.09,1.93-.25,.52-.3,1.01-.9,1.15-1.49,.15-.64,.11-1.36-.25-1.93Z"/>
      <path class="cls-4" d="M183.69,234.84c-3.22,0-3.22,5,0,5s3.22-5,0-5Z"/>
    </g>
    <path class="cls-4" d="M228.42,279.91c.16-.41,.31-.85,.44-1.32,.06-.22,.11-.46,.04-.67-.38-1.15-3.68,.71-4.46,1.03-2.05,.84-4.21,1.41-6.41,1.68-2.55,.31-4.86,.97-7.51,.84-1.97-.1-3.92-.45-5.86-.8-2.36-.42-4.74-.85-7.02-1.62-3.05-1.03-5.89-2.68-8.31-4.81-.9-.79-2.24-1.63-2.75-2.7-.38-.79-.48-2.52-1.61-2.66-.71-.09-1.39,.87-1.92,1.23-.88,.6-1.83,1.16-2.72,1.78-2.04,1.41-4.08,2.82-6.12,4.24-.12,.09-.22,.18-.31,.28-2.54,.77-5.21,1.62-7.87,1.83s-5.3-.15-7.9-.57c-1.53-.25-3.07-.52-4.49-1.12-3.47-1.47-5.87-4.74-9.17-6.55-1.08-.59-2.46,.22-2.06,1.55,.64,2.14,1.16,4.38,1.95,6.47,.57,1.53,2.08,2.01,3.44,2.79,2.01,1.16,3.57,3.47,4.36,5.62,.26,.7,.14,1.73,.81,2.18,1.24,.84,2.02-.57,2.4-1.5,.5-1.21,1.07-2.71,2.49-3.09,.43-.11,.88-.1,1.32-.06,4.19,.33,8.09,2.18,12.16,3.23,3.95,1.02,8.11,1.34,12.13,1.93,3.36,.49,6.73,.96,10.1,1.4,2.77,.36,5.41-.13,8.21-.37,3.46-.29,6.9-1,10.12-2.31,.02,.11,.04,.23,.08,.34,.39,1.36,.85,2.71,1.27,4.07,.37,1.2,2.09,1.52,2.74,.36,1.31-2.33,3.33-4.13,5.46-5.71,1.09-.81,2.2-1.58,3.3-2.38,1.78-1.29,2.92-2.67,3.67-4.58Z"/>
    <path class="cls-1" d="M223.22,285.37c-1.88,3.82-4.46,7.24-7.62,10.06-.27-.26-.63-.43-1-.46-.23-1.25-.53-2.48-.95-3.68-.39-1.1-.91-2.13-2.22-2.2-1.42-.07-3.02,.62-4.43,.86-5.08,.86-10.27,.66-15.4,.32-.67-.21-1.33-.44-2-.66-1.87-.64-3.79-1.05-5.72-.63-7.76-1.6-15.55-3.01-23.38-4.21-.13-.02-.26-.01-.39,0-.7-.55-1.86-.62-2.28,.34-.42,.96-.87,1.9-1.35,2.83-.5,.87-1.04,1.71-1.67,2.49-.08-.07-.14-.15-.23-.2-.1-.05-.19-.1-.28-.16-.04-.02-.07-.04-.1-.06-.14-.12-.28-.25-.41-.39-.04-.04-.26-.35-.08-.09-.05-.07-.1-.14-.14-.21-.12-.18-.23-.37-.33-.55-.1-.19-.2-.39-.29-.59-.05-.11-.1-.23-.15-.34l-.02-.04c-.19-.48-.39-.95-.59-1.43-.91-2.17-2.4-3.92-4.05-5.57-.57-.57-1.55-.57-2.12,0-.58,.58-.57,1.55,0,2.12,.42,.42,.83,.84,1.23,1.28,.38,.42,.73,.83,.99,1.2,.33,.46,.62,.93,.88,1.43,.11,.21,.2,.42,.3,.63l.03,.07,.02,.06c.04,.1,.09,.21,.13,.31,.76,1.88,1.55,3.92,3.46,4.91,.04,.02,.09,.02,.13,.04,.06,1.14,1.52,2.11,2.54,1.05,.17-.17,.31-.36,.47-.54,.06,0,.12,0,.18-.02,4.67-1.34,9.45-1.99,14.28-1.96,.24,.31,.61,.54,1.09,.58,10.25,.99,20.45,2.45,30.57,4.34,.02,0,.02,.02,.04,.03,1.88,.8,3.82,1.08,5.77,1.59,1.49,.39,3.34,1.07,3.96,2.63,.6,1.49,2.93,1.41,2.95-.4,0-.14-.01-.28-.01-.42,4.55-3.4,8.26-7.74,10.77-12.85,.85-1.73-1.74-3.25-2.59-1.51Z"/>
    <path class="cls-2" d="M210.78,300.81c-2.68-3.08-7.32-3.22-11.06-3.76-2.38-.34-4.76-.67-7.14-.98-1.3-.17-2.54-.3-3.76-.21-.89-.06-1.83,.12-2.53,.4-.54,.22-1.04,.5-1.48,.82-.12-.62-.24-1.27-.53-1.81-.49-.9-1.41-1.12-2.38-1.06-1.27-.27-2.55-.51-3.83-.71-.06-.02-.12-.04-.18-.07-.92-.35-1.79-.79-2.76-1-1.05-.23-2.15-.3-3.22-.34-4.19-.16-8.41,.45-12.4,1.73-.36,.12-.62,.32-.78,.57h-.01c-.16,.08-.29,.18-.4,.29-.02,0-.04-.02-.06-.02-1.46-.51-2.46,1.49-1.46,2.51,1.77,1.8,3.92,3.01,6.19,4.03,.43,.32,.91,.6,1.42,.83,.31,.14,.62,.17,.91,.13,2.55,1.02,5.14,1.96,7.75,2.78,6.16,1.94,12.48,3.34,18.89,4.2,.62,.08,1.19-.07,1.55-.53,6.04-.28,11.59-2.86,16.98-5.45,.93-.45,.89-1.69,.3-2.36Z"/>
    <g>
      <path class="cls-3" d="M182.96,297.77h0s.02-.01,.03-.02c0,.01-.01,.01-.02,.02Z"/>
      <path class="cls-3" d="M212.69,302.23c.15-1.22-1.95-2.39-2.89-2.92-2.69-1.52-5.83-2.05-8.84-2.6-4.35-.79-8.84-1.14-13.22-1.65-4.84-.57-9.51-2.31-14.35-2.7-2.93-.24-5.89-.14-8.81,.3-1.96,.29-8,.39-7.87,3.15s4.19,.7,5.67,.4c3.21-.64,6.51-.83,9.77-.58,2.14,.17,5.09,.28,7.03,1.25s.42,2.4,1.1,4.22c.69,1.82,2.82,1.63,3.79,.31,1.74-2.37,3.16-3.19,6.08-3.37,2.51-.16,5.03,.16,7.49,.61,2.91,.53,5.74,1.47,8.36,2.84,1.23,.65,2.5,1.96,3.75,2.43,1.01,.39,2.77-.51,2.92-1.69Zm-30.05-3.15c-.1,.11-.18,.24-.28,.35,.03-.21,.07-.43,.13-.63,.03-.12,.07-.24,.11-.36,.01-.03,.02-.08,.04-.12,0-.01,.01-.02,.02-.04,.08-.18,.19-.34,.29-.5,0,0-.01,.01-.02,.02,0,0,.02-.02,.02-.03h0c.05-.08,.04-.06,.02-.02,.02-.02,.03-.05,.04-.06,.07-.08,.14-.15,.22-.23,.03-.03,.06-.05,.09-.08,.05-.04,.11-.07,.16-.11,.06,.16,.15,.3,.28,.4-.11,.06-.22,.11-.33,.18-.36,.22-.48,.55-.46,.88-.12,.11-.24,.22-.35,.34Z"/>
    </g>
    <path class="cls-5" d="M226.15,277.95c-2.43,1.39-5,2.51-7.65,3.34-.15-.27-.41-.47-.82-.43-3.22,.24-6.44,.74-9.68,.74-2.89,0-5.73-.52-8.45-1.48-5.53-1.95-10.28-5.65-13.98-10.16-.59-.72-1.49-.17-1.63,.56-.21,0-.43,.09-.63,.3-3.92,4.16-9.12,7.02-14.72,8.05-.44-.03-.89-.07-1.34-.15-.48-.08-.86,.15-1.07,.48-.57,.05-1.14,.09-1.71,.1-7.26,.14-14.36-2.84-19.45-7.98-.91-.92-2.32,.5-1.41,1.41,5.45,5.51,13.09,8.72,20.86,8.57,.21,0,.42-.03,.64-.04,7.49,1.05,14.28-2.39,19.93-7.01,3.5,6.47,10.58,9.72,17.77,10.57,8.41,.98,17.04-.93,24.36-5.14,1.12-.64,.11-2.37-1.01-1.73Z"/>
    <path d="M230.47,275.41c-.52-.91-1.27-.99-2.05-.73-1.05,.35-2.16,1.32-2.9,1.79-1.8,1.14-3.65,2.16-5.8,2.42-2.01,.24-4.04,.32-6.06,.41-4.36,.2-8.8,.18-13.07-.83-5.18-1.22-11.3-4.65-13.84-9.52-1.23-2.36-.01-5.84,.47-8.33,.3-1.52,.35-3.82,2.13-4.38,2.85-.9,5.52-2.23,8.27-3.37,3.07-1.28,5.99-2.87,9.04-4.2,3.72-1.62,8.68-4.27,10.7-7.95,2.2-4,1.21-8.32-2.75-10.65-2.18-1.28-5.44-3.55-8-3.8-1.92-.18-3.63-1.06-5.51-1.31-3.27-.43-6.49-1.04-9.84-.89-2.34,.1-4.67,.36-7,.48-4.2,.21-8,1.67-11.71,3.47-3.15,1.53-.03,8.76,.96,10.81,.92,1.91,1.65,3.64,2.93,5.32,1.52,2,3.14,3.94,4.51,6.05,1.13,1.73,3.79,4,3.41,6.32-.62,3.79-1.28,7.64-2.71,11.24-1.16,2.9-4.14,4.61-6.79,5.94-3.55,1.77-7.53,2.69-11.49,2.68-4.94-.02-9.83-1.58-13.92-4.32-2.08-1.39-3.82-3.07-5.47-4.93-1.83-2.06-3.35-.58-3.61,1.55-.32,2.61,.26,5.27,1.16,7.71,1.77,4.76,4.15,9.8,7.05,13.98,4.86,6.99,11.54,12.09,19.41,15.29,4.31,1.75,8.82,2.92,13.37,3.87,7.71,1.61,15.94,.83,23.3-1.83,1.86-.67,3.87-1.08,5.67-1.93,7.72-3.62,13.92-11.22,17.33-18.89,.83-1.87,1.52-3.79,2.07-5.76,.41-1.46,1.58-4.29,.77-5.7Zm-49.65-28.56c-3.37-4.99-5.69-11.77-5.76-14.64-.13-5.48,10.66-5.5,14.16-5.4,6.3,.18,13.39,1.66,19.23,4.07,2.36,.97,5.9,2.46,6.37,5.34,.83,5.11-6.97,8.75-10.58,10.35-4.41,1.95-9.14,3.57-13.43,5.65-3.59,1.74-7.16-1.18-9.99-5.37Zm26.34,56.5c-2.77,1.32-5.65,2.26-8.59,2.87-8.6,1.77-17.71,.65-26.08-2.1-5.24-1.72-10.22-4.29-14.47-7.83-.31-.26-.62-.54-.93-.81,8.4-3.34,17.4-1.61,26.02-.04-1.01,1.13-1.72,2.57-1.97,4.04-.07,.41-.07,.78,.15,1.16,.18,.31,.54,.61,.9,.69,.38,.09,.81,.07,1.16-.15,.31-.2,.63-.52,.69-.9,.08-.47,.21-.92,.38-1.36,.2-.44,.44-.85,.73-1.24,.3-.37,.64-.7,1.01-1,.18-.15,.31-.41,.38-.67,4.33,.67,8.69,1.02,13.02,1.73,3.84,.63,7.71,1.73,10.85,4.07-1.02,.49-2.08,.99-3.23,1.53Zm11.76-7.9c-1.81,2.22-3.64,3.65-5.66,4.84-5.74-4.92-13.36-5.58-20.58-6.39-8.04-.9-15.92-3.22-24.05-3.36-4.33-.07-8.71,.51-12.72,2.18-.41,.17-.75,.46-.94,.81-.92-.9-1.82-1.82-2.66-2.74-2.06-2.24-3.47-5.32-4.86-7.99-.36-.7-.71-1.4-1.04-2.11,.76,.82,1.51,1.65,2.27,2.47,.77,.84,1.59,1.66,2.15,2.67,.38,.69,.56,1.45,.93,2.15,.52,.97,1.07,1.88,1.49,2.9,.09,.21,.18,.44,.38,.56,.38,.23,.85-.1,1.15-.43,1.23-1.35,1.98-3.06,2.65-4.76,.12-.29,.24-.6,.47-.82,.56-.51,1.8,.31,2.42,.49,1.08,.32,2.18,.58,3.28,.82,2.14,.46,4.3,.81,6.45,1.19,5.01,.88,10.01,1.79,15.03,2.63,8.44,1.42,17.91,2.8,26.01-.69,.63,2.47,1.77,4.72,3.45,6.74,.58,.7,1.98,.53,2.36-.3,1.86-4.1,4.64-7.66,8.19-10.39-1.66,3.54-4.05,6.95-6.15,9.52Zm7.26-13.31c-.36,.45-.86,.85-1.58,1.26-1.88,1.09-3.95,2.3-5.42,3.93-.51,.57-4.21,4.67-3.82,5.35-.89-1.52-1.5-3.22-1.73-4.97-.15-1.11-1.16-1.89-2.26-1.3-7.97,4.31-18,2.56-26.5,1.1-4.69-.81-9.37-1.64-14.06-2.47-2.84-.5-5.71-.89-8.52-1.61-2.05-.53-4.57-2.3-6.07,.01-.77,1.19-1.09,2.59-1.81,3.79-.93,1.57-1.37-.01-1.48-1.11-.13-1.19-.58-2.5-1.24-3.5-1.48-2.23-4.06-3.58-6.23-4.99-1.35-.87-1.67-2.65-1.96-4.15-.13-.65-.62-3.25,.84-2.52,.98,.49,1.87,1.87,2.66,2.63,.81,.78,1.67,1.51,2.64,2.08,2.54,1.49,5.29,2.41,8.14,3.09,7.05,1.46,14.58,.09,20.7-3.7,2.17-1.34,4.4-3.04,5.93-5.17,1.98,4.2,5.71,7.53,9.88,9.53,6.86,3.29,14.69,3.18,22.11,2.7,1.79-.11,3.65-.16,5.39-.6,1.94-.49,3.44-1.97,5.26-2.58-.09,1.45-.27,2.38-.89,3.17Z"/>
    <g>
      <path d="M247.52,274.23c-.9,.03-2.04,1.64-2.02,2.85,.02,1.19,.95,2.14,2.02,2.06,.91-.07,2.07-1.73,2.19-3.12,.04-.51-1.55-1.82-2.19-1.8Z"/>
      <path d="M243.48,259.99c-1.08-.05-2.08,1.08-2.11,2.38-.03,1.29,.54,1.89,1.79,1.89,1.11,0,2.92-1.52,2.8-2.36-.07-.5-1.86-1.88-2.48-1.92Z"/>
      <path d="M152.74,237.63c-.88-.07-1.99,.97-2.01,1.89-.02,1.18,.99,2.29,2.15,2.35,1,.05,2.25-1.01,2.28-1.95,.03-.77-1.51-2.21-2.43-2.29Z"/>
      <path d="M263.48,267.28c-1.22,.06-1.88,.75-1.85,1.95,.02,1,1.13,2.36,1.91,2.36,.89,0,2.14-1.37,2.13-2.34-.02-1.07-1.08-2.04-2.19-1.98Z"/>
      <path d="M146.9,260.25c.35-.02,1.87-1.74,1.84-2.09-.1-1.11-1.1-2.09-2.14-2.09-1.37,0-2.41,.96-2.32,2.13,.07,.91,1.61,2.11,2.62,2.04Z"/>
      <path d="M161.02,251.72c-.09,1.27,.63,1.94,2.23,2.07,.87,.07,1.46-.74,1.54-2.09,.07-1.31-.33-1.7-1.83-1.76-1.24-.05-1.85,.51-1.95,1.78Z"/>
      <path d="M256.9,250.12c-.91-.02-1.81,1.1-1.73,2.17,.05,.72,1.01,1.58,1.77,1.59,1.3,.02,2.05-.59,2.03-1.67-.02-1.1-.98-2.06-2.07-2.09Z"/>
    </g>
  </g>
</svg>