<?xml version="1.0" encoding="UTF-8"?>
<svg id="Nose_Mouth" xmlns="http://www.w3.org/2000/svg" xmlns:xlink="http://www.w3.org/1999/xlink" viewBox="0 0 500 500">
  <defs>
    <style>
      .cls-1 {
        fill: url(#linear-gradient);
        opacity: .56;
      }

      .cls-2, .cls-3 {
        fill: #f5a2ac;
      }

      .cls-4, .cls-5 {
        fill: #e97a91;
      }

      .cls-6 {
        fill: #fff;
      }

      .cls-7 {
        fill: #fbfaf9;
      }

      .cls-8 {
        opacity: .66;
      }

      .cls-3 {
        opacity: .69;
      }

      .cls-5 {
        opacity: .6;
      }
    </style>
    <linearGradient id="linear-gradient" x1="118.48" y1="290.43" x2="165.68" y2="290.43" gradientTransform="matrix(1, 0, 0, 1, 0, 0)" gradientUnits="userSpaceOnUse">
      <stop offset="0" stop-color="#f5a2ac"/>
      <stop offset=".28" stop-color="#f195a3"/>
      <stop offset="1" stop-color="#e97a91"/>
    </linearGradient>
  </defs>
  <g id="__Nose_Mouth_rose" data-name="1_Nose_Mouth_rose">
    <path class="cls-2" d="M190.81,252.21c4.29-2.08,9.03-3.7,13.43-5.65,3.61-1.6,11.41-5.24,10.58-10.35-.47-2.88-4.01-4.37-6.37-5.34-5.84-2.41-12.92-3.89-19.23-4.07-3.5-.1-14.3-.08-14.16,5.4,.07,2.87,2.39,9.65,5.76,14.64,2.83,4.19,6.4,7.11,9.99,5.37Z"/>
    <path class="cls-4" d="M190.81,252.21c4.29-2.08,9.03-3.7,13.43-5.65,3.61-1.6,11.41-5.24,10.58-10.35-.34-2.08-2.68-6.65-5.46-5.63-.86,.32-1.31,1.24-1.78,2.03-.56,.94-1.27,1.78-1.98,2.63-2.01,2.4-3.86,4.61-6.42,6.46-2.05,1.49-4.23,2.44-6.55,3.36-2.27,.9-4.87,1.15-7.14,.26-2.23-.88-4.42-2.91-5.62-4.96-1.02-1.74-2.22-4.28-4.24-5.05-.31,1.36,.83,2.84,1.33,4.11,1.03,2.59,2.29,5.11,3.85,7.42,2.83,4.19,6.4,7.11,9.99,5.37Z"/>
    <g>
      <path class="cls-6" d="M189.22,230.23c-.34-.53-.86-1.01-1.49-1.15-1.14-.25-2.31-.41-3.48-.44-1.17-.03-2.34,.1-3.49,.3-.58,.1-1.21,.66-1.49,1.15-.31,.54-.45,1.33-.25,1.93,.2,.6,.57,1.19,1.15,1.49,.2,.08,.4,.17,.6,.25,.44,.12,.89,.12,1.33,0,.04,0,.08-.01,.12-.02,1.07-.12,2.15-.13,3.23-.02,.32,.05,.64,.1,.96,.17,.65,.14,1.34,.09,1.93-.25,.52-.3,1.01-.9,1.15-1.49,.15-.64,.11-1.36-.25-1.93Z"/>
      <path class="cls-6" d="M183.69,234.84c-3.22,0-3.22,5,0,5s3.22-5,0-5Z"/>
    </g>
    <path d="M214.62,230.07c-2.18-1.28-5.44-3.55-8-3.8-1.92-.18-3.63-1.06-5.51-1.31-3.27-.43-6.49-1.04-9.84-.89-2.34,.1-4.67,.36-7,.48-4.2,.21-8,1.67-11.71,3.47-3.15,1.53-.03,8.76,.96,10.81,.92,1.91,1.65,3.64,2.93,5.32,1.52,2,3.14,3.94,4.51,6.05,.67,1.02,1.42,2.01,2.38,2.88,1.31,1.19,1.89,2.75,1.6,4.49-.16,.96-.76,4.25-1.92,4.46-1.07,.2-3.32-2.33-4.29-2.89-1.42-.82-3.06-1.46-4.63-1.62-2.12-.22-4.29,.73-5.72,2.31s-2.14,3.76-2.1,5.89c0,.29,.04,.61,.28,.77,.77,.53,2.18-1.23,2.47-1.75,.38-.68,.64-1.43,1.09-2.07,1.27-1.82,3.08-2.59,5.25-1.94,3.05,.91,5.54,3.17,7.92,5.19,1.82,1.55,4.05,2.43,5.75,4.16,1.02,1.04,1.92,2.33,2.32,3.74,.33,1.17,.32,2.59,1.91,2.86,2.02,.34,1.16-2.16,.73-3.25-1.31-3.29-3.49-6.48-6.7-8.14-.46-.24-.81-.44-1.13-.69,.37-1.79,.8-3.57,1.22-5.33,.27-1.15,.61-2.6,1.99-3.04,2.85-.9,5.52-2.23,8.27-3.37,3.07-1.28,5.99-2.87,9.04-4.2,3.72-1.62,8.68-4.27,10.7-7.95,2.2-4,1.21-8.32-2.75-10.65Zm-10.37,16.49c-4.41,1.95-9.14,3.57-13.43,5.65-3.59,1.74-7.16-1.18-9.99-5.37-3.37-4.99-5.69-11.77-5.76-14.64-.13-5.48,10.66-5.5,14.16-5.4,6.3,.18,13.39,1.66,19.23,4.07,2.36,.97,5.9,2.46,6.37,5.34,.83,5.11-6.97,8.75-10.58,10.35Z"/>
    <g>
      <path d="M247.52,274.23c-.9,.03-2.04,1.64-2.02,2.85,.02,1.19,.95,2.14,2.02,2.06,.91-.07,2.07-1.73,2.19-3.12,.04-.51-1.55-1.82-2.19-1.8Z"/>
      <path d="M243.48,259.99c-1.08-.05-2.08,1.08-2.11,2.38-.03,1.29,.54,1.89,1.79,1.89,1.11,0,2.92-1.52,2.8-2.36-.07-.5-1.86-1.88-2.48-1.92Z"/>
      <path d="M152.74,237.63c-.88-.07-1.99,.97-2.01,1.89-.02,1.18,.99,2.29,2.15,2.35,1,.05,2.25-1.01,2.28-1.95,.03-.77-1.51-2.21-2.43-2.29Z"/>
      <path d="M263.48,267.28c-1.22,.06-1.88,.75-1.85,1.95,.02,1,1.13,2.36,1.91,2.36,.89,0,2.14-1.37,2.13-2.34-.02-1.07-1.08-2.04-2.19-1.98Z"/>
      <path d="M146.9,260.25c.35-.02,1.87-1.74,1.84-2.09-.1-1.11-1.1-2.09-2.14-2.09-1.37,0-2.41,.96-2.32,2.13,.07,.91,1.61,2.11,2.62,2.04Z"/>
      <path d="M161.02,251.72c-.09,1.27,.63,1.94,2.23,2.07,.87,.07,1.46-.74,1.54-2.09,.07-1.31-.33-1.7-1.83-1.76-1.24-.05-1.85,.51-1.95,1.78Z"/>
      <path d="M256.9,250.12c-.91-.02-1.81,1.1-1.73,2.17,.05,.72,1.01,1.58,1.77,1.59,1.3,.02,2.05-.59,2.03-1.67-.02-1.1-.98-2.06-2.07-2.09Z"/>
    </g>
    <g>
      <path class="cls-3" d="M183.24,278.13c-.3-.76-.64-1.5-1.02-2.23-.35-.67-.74-1.33-1.31-1.82-1.15-.97-3.07-1.06-4.51-1.27-1.85-.27-3.63,.04-5.48-.53-.67-.21-1.26-.61-1.79-1.05-3-2.48-3.85-6.2-5.42-9.58-.04-.09-.08-.17-.12-.26-.22-.46-.46-.92-.71-1.36-.34-.59-.76-1.1-1.23-1.55-.18-.44-.39-.9-.65-1.37-2.36-4.32-6.72-6.34-11.34-7.35-.12-.03-.24-.04-.37-.06-3.27-1.11-6.88-1.49-10.51-1.08-9.3,1.04-17.53,6.61-21.98,14.84-.21,.39-.37,.78-.51,1.17-3.03,5.93-2.94,13.48-.65,19.87,1.05,2.93,2.96,5.22,4.25,7.98,1.16,2.47,1.9,3.85,4.29,5.52,4.53,3.18,8.24,5.84,13.53,7.58,5.23,1.72,10.77,1.86,16.04,.2,3.41-1.08,8.43-3.7,10.76-6.37,.87-.99,1.45-2.2,1.99-3.4,.99-2.2,1.18-4.15,3.33-5.11,1.4-.63,3.03-.94,4.48-1.48,1.64-.6,3.38-.91,5.1-1.17,1.29-.19,3.52-.54,4.58-1.35,.9-.68,.9-2.01,.75-3.12-.27-1.93-.77-3.83-1.5-5.64Z"/>
      <path class="cls-1" d="M165.67,284.49c.01-.67-.03-1.32-.13-1.96-.15-.91-.41-1.79-.78-2.64-.07-.16-.85-1.61-.78-1.72-.57,.91-.89,2.09-1.43,3.06-1.13,2.03-2.61,3.59-4.3,4.82-5.06,5.32-14.09,7.36-21.2,6.4-4.85-.66-8.83-2.7-11.81-5.7-2.9-2.17-5.26-5.03-6.77-8.49,.23,.53,.19,1.67,.35,2.28,.27,1.07,.56,2.13,.9,3.19,2.95,9.29,11.44,17.94,21.43,18.85,3.37,.31,6.82,.1,10.08-.86,2.93-.86,5.98-2.03,8.16-4.2,1.67-1.67,3.27-3.19,4.3-5.36,1.08-2.26,1.94-5.03,1.99-7.66Z"/>
      <path class="cls-5" d="M184.22,282.48c-.08-.39-.18-.77-.31-1.15-.54-1.59-.93-3.17-1.68-4.7-.99-2-2.3-4.69-4.92-3.58-.27,.11-.56,.33-.52,.61,.03,.22,.23,.35,.4,.49,1.42,1.09,2.5,4.35,1.41,5.91-.1,.14-.22,.25-.34,.37-3.08,.55-6.21,.82-9.36,.79-.02,0-.04,0-.08,0-.04-.02-.08-.03-.13-.03-.06-.01-.13-.01-.19,0-.39,.11,.71,3.48,.9,3.82,.96,1.72,4.12-.21,5.67-.41,1.38-.18,5.83-1.41,6.07,1.02,.06,.6-.43,1.27-.06,1.74,.64,.82,2.7-.66,3.1-1.3,.57-.9,.23-2.61,.02-3.59Z"/>
      <g class="cls-8">
        <path class="cls-7" d="M161.67,269.39c.23-.34,.39-.68,.44-.99,.13-.79-.64-2.05-.99-2.76-.88-1.76-2.06-3.37-3.48-4.74-2.87-2.78-6.66-4.53-10.62-5-7.84-.93-15.61,.8-21.64,6.13-2.35,2.08-4.05,4.66-5.17,7.58-.44,1.15-.74,2.36-.88,3.58-.15,1.36,.24,2.56,.8,3.81-.21-.47,.64-2.23,.82-2.72,.33-.94,.71-1.87,1.14-2.77,1.13-2.41,2.34-4.87,4.32-6.7,3.22-2.98,7.45-4.76,11.74-5.51s9.43-1.03,13.6,.97c.98,.47,1.9,1.05,2.74,1.74,2.45,2,5.28,5.75,5.2,9.08,0,.13,.08,.28,.21,.26,.06,0,.1-.05,.14-.09,.44-.45,1.18-1.16,1.65-1.88Z"/>
        <path class="cls-7" d="M139.09,252.72c-.02-.08-.07-.17-.16-.27-.9-1.01-3.49-.23-4.56,0-1.94,.42-3.82,1.13-5.56,2.1-1.15,.64-2.22,1.4-3.22,2.25-.44,.37-.94,.68-1.28,1.15-.08,.11-.6,1.51-.45,1.46,.88-.23,1.56-.9,2.24-1.5,3.28-2.89,7.61-4.55,11.97-4.6,.42,0,1.1-.19,1.01-.59Z"/>
        <path class="cls-7" d="M154.55,255.04c-1.44-1.53-3.44-2.42-5.47-2.85-1.14-.24-2.35-.35-3.52-.33-.5,0-1.35-.03-1.78,.3-.76,.59-.03,.77,.68,.71,1.89-.16,3.84,.11,5.64,.71,2.03,.68,3.27,1.88,4.86,3.21,.06,.05,.15,.11,.23,.09,.07-.02,.11-.1,.13-.17,.1-.33-.01-.69-.21-.97-.17-.24-.36-.47-.56-.69Z"/>
      </g>
      <path d="M185.86,281.91c-.52-2.76-1.78-5.6-3.16-8.04-1.22-2.15-3.08-3.78-5.25-4.91-1.33-.7-5.43-2.88-6.76-2.01-.41,.27-.7,.68-.95,1.09-.65,1.07-1.14,2.33-.87,3.55,.07,.31,.32,.67,.61,.55,.13-.05,.2-.18,.26-.3,.3-.56,.67-1.1,1.19-1.45,2.08-1.4,5.06,.84,6.59,2.15,2.27,1.95,3.72,4.41,4.85,7.16l.64,1.56c.16,.39,.32,.79,.43,1.2,.43,1.59,.16,2.79-.23,4.33-.21,.82-.19,1.69,.06,2.5,.19,.63,.85,1.68,1.67,1.21,.46-.26,.29-1.31,.35-1.78,.29-2.32,1.01-4.45,.56-6.82Z"/>
      <path d="M190.02,293.52c-.38-.1-.93,0-1.65,.43-2.82,1.68-8.1,.95-10.85-.66-1.21-.71-2.43-1.78-1.15-2.77s4.78-1.2,6.43-1.61c1.87-.47,1.08-3.36-.79-2.89-3.27,.82-6.51,1.53-9.71,2.56-.98,.32-2.01,.73-2.81-.2-.56-.65-.1-2.87-1.3-2.93-.5-.03-.7,.62-.74,1.12-.23,2.98-.52,6.21-1.84,8.96-1.89,3.9-5.41,6.8-9.43,8.29-3.87,1.44-8.49,2.5-12.64,2.16-6.62-.55-13.45-2.99-18.53-7.37-1.62-1.39-2.99-3.06-4.15-4.84-5.25-8.03-7.79-19.54-4.21-28.73,5.45-13.99,23.98-20.18,37.05-13.49,.98,.5,1.97,1.01,2.87,1.64,3.43,2.4,5.69,6.16,6.99,10.08s1.19,7.92,2.45,11.65c.06,.18,.14,.38,.3,.47,.38,.21,.78-.25,.92-.65,.3-.86,.37-1.8,.19-2.69,.39,1.93,4.37,1.78,5.75,1.91,.82,.08,3.69,.48,4.32-.17s.27-1.55-.9-1.7c-2.16-.27-4.28-.93-6.43-1.25-1.48-.22-2.02,0-2.64-1.18-1.44-2.77-.42-6.25-1.98-8.9-1.35-2.29-2.62-4.57-4.38-6.6-2.82-3.25-6.29-5.62-10.5-6.35-11.15-1.95-22.03,.17-30.43,7.79-4.47,4.05-6.75,10.44-7.41,16.42-1.07,9.74,2.46,19.37,9.04,26.54,1.87,2.04,4.16,3.59,6.52,5,6.77,4.03,14.89,5.76,22.69,4.45,7.53-1.26,16.21-5.28,18.22-13.33,.24-.98,.25-1.64,1.04-2.34,.48-.43,2.23-1.45,2.65-.71,1.69,2.95,4.81,4.94,8.15,5.46,2.58,.4,5.37,.06,7.79-.95,1.82-.76,2.06-2.33,1.1-2.59Z"/>
    </g>
  </g>
</svg>