<?xml version="1.0" encoding="UTF-8"?>
<svg id="Nose_Mouth" xmlns="http://www.w3.org/2000/svg" viewBox="0 0 500 500">
  <defs>
    <style>
      .cls-1 {
        fill: #f5a2ac;
      }

      .cls-2 {
        fill: #e97a91;
      }

      .cls-3 {
        fill: #fff;
      }

      .cls-4 {
        fill: #efeeed;
      }

      .cls-5 {
        fill: #8d8c8c;
      }

      .cls-6 {
        fill: #bbb;
      }

      .cls-7 {
        fill: #dcdbda;
      }
    </style>
  </defs>
  <g id="__Nose_Mouth_rose" data-name="1_Nose_Mouth_rose">
    <path class="cls-1" d="M190.81,252.21c4.29-2.08,9.03-3.7,13.43-5.65,3.61-1.6,11.41-5.24,10.58-10.35-.47-2.88-4.01-4.37-6.37-5.34-5.84-2.41-12.92-3.89-19.23-4.07-3.5-.1-14.3-.08-14.16,5.4,.07,2.87,2.39,9.65,5.76,14.64,2.83,4.19,6.4,7.11,9.99,5.37Z"/>
    <path class="cls-2" d="M190.81,252.21c4.29-2.08,9.03-3.7,13.43-5.65,3.61-1.6,11.41-5.24,10.58-10.35-.34-2.08-2.68-6.65-5.46-5.63-.86,.32-1.31,1.24-1.78,2.03-.56,.94-1.27,1.78-1.98,2.63-2.01,2.4-3.86,4.61-6.42,6.46-2.05,1.49-4.23,2.44-6.55,3.36-2.27,.9-4.87,1.15-7.14,.26-2.23-.88-4.42-2.91-5.62-4.96-1.02-1.74-2.22-4.28-4.24-5.05-.31,1.36,.83,2.84,1.33,4.11,1.03,2.59,2.29,5.11,3.85,7.42,2.83,4.19,6.4,7.11,9.99,5.37Z"/>
    <g>
      <path class="cls-3" d="M189.22,230.23c-.34-.53-.86-1.01-1.49-1.15-1.14-.25-2.31-.41-3.48-.44-1.17-.03-2.34,.1-3.49,.3-.58,.1-1.21,.66-1.49,1.15-.31,.54-.45,1.33-.25,1.93,.2,.6,.57,1.19,1.15,1.49,.2,.08,.4,.17,.6,.25,.44,.12,.89,.12,1.33,0,.04,0,.08-.01,.12-.02,1.07-.12,2.15-.13,3.23-.02,.32,.05,.64,.1,.96,.17,.65,.14,1.34,.09,1.93-.25,.52-.3,1.01-.9,1.15-1.49,.15-.64,.11-1.36-.25-1.93Z"/>
      <path class="cls-3" d="M183.69,234.84c-3.22,0-3.22,5,0,5s3.22-5,0-5Z"/>
    </g>
    <path d="M187.37,259.28c.27-1.15,.61-2.6,1.99-3.04,2.85-.9,5.52-2.23,8.27-3.37,3.07-1.28,5.99-2.87,9.04-4.2,3.72-1.62,8.68-4.27,10.7-7.95,2.2-4,1.21-8.32-2.75-10.65-2.18-1.28-5.44-3.55-8-3.8-1.92-.18-3.63-1.06-5.51-1.31-3.27-.43-6.49-1.04-9.84-.89-2.34,.1-4.67,.36-7,.48-4.2,.21-8,1.67-11.71,3.47-3.15,1.53-.03,8.76,.96,10.81,.92,1.91,1.65,3.64,2.93,5.32,1.52,2,3.14,3.94,4.51,6.05,.67,1.02,1.42,2.01,2.38,2.88,1.61,1.46,2.16,3.35,1.28,5.58-2.05,5.21-2.36,10.91-5.42,15.34-.09,.13-.18,.27-.27,.4-1.04,1.41-2.38,2.68-4.18,3.74-2.11,1.26-4.13,2.65-6.57,3.08-7.25,1.26-14.56,.27-20.42-4.53-.82-.68-1.85-1.38-2.27-2.51-1.6-4.22-5.87,1.03-2.79,2.38,.64,.28,.94,.82,1.37,1.27,4.92,5.03,12.7,7.14,19.65,6.83,2.53-.11,5.24-.7,7.72-1.17,3.59-.68,8.09-3.92,9.62-7.3,.36-.8,1-.6,1.52-.03,.28,.31,.37,.68,.42,1.09,.39,3.39,2.45,5.79,4.82,7.97,.74,.68,1.65,1.18,2.52,1.71,7.61,4.73,16.02,6.02,24.79,4.14,3.4-.73,6.25-2.38,9.17-4.17,.7-.43,1.02-1.38,1.28-2.23,.26-.87-.15-1.38-.87-1.69-1.31-.57-2.35-.02-3.11,1.01-1.78,2.41-4.62,2.77-7.13,3.51-1.81,.53-3.87,.54-5.77,.81-5.1,.73-10.48-1-14.95-3.38-.86-.46-1.58-1.3-2.52-1.58-1.44-1.49-3.25-2.73-4.33-4.77-.75-1.43-1.19-2.98-1.4-4.57-.07-.53-.11-1.06-.14-1.59-.19-4.44,1.01-8.84,2.04-13.12Zm-6.54-12.44c-3.37-4.99-5.69-11.77-5.76-14.64-.13-5.48,10.66-5.5,14.16-5.4,6.3,.18,13.39,1.66,19.23,4.07,2.36,.97,5.9,2.46,6.37,5.34,.83,5.11-6.97,8.75-10.58,10.35-4.41,1.95-9.14,3.57-13.43,5.65-3.59,1.74-7.16-1.18-9.99-5.37Z"/>
    <g>
      <path d="M247.52,274.23c-.9,.03-2.04,1.64-2.02,2.85,.02,1.19,.95,2.14,2.02,2.06,.91-.07,2.07-1.73,2.19-3.12,.04-.51-1.55-1.82-2.19-1.8Z"/>
      <path d="M243.48,259.99c-1.08-.05-2.08,1.08-2.11,2.38-.03,1.29,.54,1.89,1.79,1.89,1.11,0,2.92-1.52,2.8-2.36-.07-.5-1.86-1.88-2.48-1.92Z"/>
      <path d="M152.74,237.63c-.88-.07-1.99,.97-2.01,1.89-.02,1.18,.99,2.29,2.15,2.35,1,.05,2.25-1.01,2.28-1.95,.03-.77-1.51-2.21-2.43-2.29Z"/>
      <path d="M263.48,267.28c-1.22,.06-1.88,.75-1.85,1.95,.02,1,1.13,2.36,1.91,2.36,.89,0,2.14-1.37,2.13-2.34-.02-1.07-1.08-2.04-2.19-1.98Z"/>
      <path d="M146.9,260.25c.35-.02,1.87-1.74,1.84-2.09-.1-1.11-1.1-2.09-2.14-2.09-1.37,0-2.41,.96-2.32,2.13,.07,.91,1.61,2.11,2.62,2.04Z"/>
      <path d="M161.02,251.72c-.09,1.27,.63,1.94,2.23,2.07,.87,.07,1.46-.74,1.54-2.09,.07-1.31-.33-1.7-1.83-1.76-1.24-.05-1.85,.51-1.95,1.78Z"/>
      <path d="M256.9,250.12c-.91-.02-1.81,1.1-1.73,2.17,.05,.72,1.01,1.58,1.77,1.59,1.3,.02,2.05-.59,2.03-1.67-.02-1.1-.98-2.06-2.07-2.09Z"/>
    </g>
    <g>
      <path class="cls-7" d="M256.72,299.43c-4.02,1.5-8.51,.21-11.64-2.69-3.19-2.95-4.82-7.19-5.91-11.3-2.84-10.69-6.32-23.53-16.19-29.86-4.53-2.91-10.19-3.69-15.48-3.47-2.68,.11-5.24,.7-7.88,1.06-2.46,.33-5.32,1.02-7.36,2.55-1.13,.85-2.02,2.08-3.35,2.66-1.82,.79-2.34-.51-3.16-1.95-1.76-3.06-4.23-4.96-7.03-6.95-6.27-4.44-15.49-8.04-23.27-6.35-11.46,2.48-19.21,13.29-25.62,22.31-2.46,3.47-5.47,6.87-9.49,8.52-3.95,1.62-8.6,1.26-11.85-1.55-.19,.03-.39,0-.58-.07,.67,1.72,2.32,3.1,4.16,3.27,1.39,.13,1.72,1.77,.82,2.66-.22,.22-.38,.45-.5,.71,3.2,.94,6.59,.7,9.65-.73,1.34-.63,2.74,1.04,1.84,2.24-.49,.65,1.28,.53,1.44,.5,.88-.19,1.72-.64,2.52-1.02,1.77-.86,3.42-1.89,4.99-3.09,.78-.59,1.89-.35,2.31,.54,.63,1.32,.36,2.62,.39,4.02,.01,.48-.05,.76,.41,.77,.56,.02,1.24-.66,1.68-1.11,.17-.47,.53-.84,1.1-.94,.72-.13,1.7,.41,1.73,1.22,.09,1.99,.14,3.99,.18,5.99,.74-.19,1.45-.44,2.15-.78,1.04-.5,1.94-1.41,3.03-1.78,1.05-.36,2.16-.05,2.87,.8,.15,.18,1.05,2.15,1.41,1.32,.53-1.25,2.78-1.32,2.88,.27,.07,1.01,.14,2.02,.2,3.03,4.22-1.01,8.01-3.38,10.73-6.81,.88-1.11,2.89-.52,2.71,1.01-.15,1.26-.29,2.52-.44,3.77,1.59,.03,3.19-.6,4.29-1.74,1.54-1.6,2.17-3.89,2.8-5.95,.56-1.85,3.37-.79,2.81,1.05-.22,.72-1.79,3.72-1.39,4.34,.48,.75,2.43-.54,3.05-.94,1.26-.81,2.23-1.84,3.35-2.8,.8-.69,3.3-3.19,4.03-1.12,.12,.35-.11,.7-.09,1.05,.03,.56,.26,1.07,.49,1.58,.52,1.18,1.18,2.29,1.95,3.32,.44,.59,1.81,2.49,2.53,1.95,.59-.44,.17-3.8,.21-4.56,.12-1.92,3.12-1.93,3,0-.13,2.15-.34,4.52,.54,6.56,.63,1.46,1.91,2.61,3.41,3.13,.3-1.23,.61-2.46,.91-3.69,.37-1.5,2.46-1.35,2.89,0,1.35,4.17,4.07,7.71,7.67,10.13,.42-.92,.83-1.85,1.25-2.77,.66-1.45,2.74-.6,2.8,.76,.04,.91,1.58-.63,1.78-.74,.97-.55,2.12-.45,2.97,.25,.89,.73,1.41,1.89,2.21,2.73,.54,.56,1.12,1.04,1.75,1.48,.73-1.86,1.48-3.71,2.26-5.55,.32-.74,1.43-.91,2.05-.54,.5,.3,.71,.77,.7,1.27,.26,.58,.66,1.45,1.19,1.63,.43,.14,.47-.14,.65-.58,.52-1.3,.72-2.61,1.77-3.63,.71-.69,1.84-.52,2.36,.3,1.05,1.66,2.24,3.21,3.6,4.64,.61,.64,1.25,1.35,2,1.84,.13,.09,1.75,.81,1.52,.04-.43-1.44,1.47-2.52,2.51-1.46,2.37,2.41,5.46,3.82,8.79,4.06-.02-.28-.09-.55-.22-.83-.53-1.14,.34-2.57,1.69-2.2,1.78,.49,3.81-.23,5.04-1.61-.21,0-.4-.05-.57-.14Z"/>
      <path class="cls-6" d="M208.61,251.18c-4.34,.08-8.85,.24-12.79,2.28-3.39,1.76-5.93,4.7-8.3,7.64-1.09-3.47-2.97-6.68-5.51-9.3-1.51-1.57-3.27-2.88-5.06-4.1-1.86-1.26-3.76-2.67-5.9-3.39-1.22-.41-1.75,1.52-.53,1.93,1.96,.65,3.73,2.03,5.43,3.18,1.66,1.13,3.26,2.34,4.66,3.79,2.65,2.74,4.49,6.15,5.4,9.85,.19,.75,.96,.85,1.48,.54,.28,.07,.59,0,.84-.32,2.36-2.97,4.83-6.08,8.21-7.94,3.67-2.02,8-2.09,12.08-2.17,1.29-.02,1.29-2.02,0-2Z"/>
      <path class="cls-6" d="M256.72,299.43c-4.02,1.5-8.51,.21-11.64-2.69-3.19-2.95-4.82-7.19-5.91-11.3-.84-3.16-1.69-6.32-2.71-9.43-.45-1.38-1.06-2.57-1.4-3.99-.38-1.56-.83-3.11-1.52-4.56-.56-1.17-1.26-2.27-1.95-3.36-1.12-1.75-2.24-3.5-3.36-5.25-.22-.34-.7-.7-.94-.38-.13,.17-.06,.41,.01,.6,.6,1.58,1.4,3.07,2.2,4.56,2.03,3.79,3.98,7.65,5.45,11.7,1.38,3.83,2.13,7.93,2.99,11.88,.54,2.45,1.41,4.82,2.69,6.98,1.34,2.26,3.2,3.59,5.61,4.65,.82,.36,1.65,.65,2.43,1.09,.57,.32,1.08,.83,1.85,.58-2.1,.67-5.22,1.01-7-.54-.98-.86-2.52-1.69-3.18-2.83-.34-.58-.99-2.15-1.9-1.85-.7,.23-.52,1.33-.99,1.89-.34,.06-.63-.25-.83-.54-.96-1.39-1.58-2.99-2.57-4.36-1.39-1.91-4.99-3.82-6.82-1.31-.47,.64-.77,1.39-1.17,2.07-.16,.27-.37,.56-.68,.62-.3,.06-.6-.1-.86-.26-.66-.4-1.32-.8-1.99-1.19-.41-.25-.84-.5-1.31-.6-.47-.1-1.01-.03-1.36,.31-.44,.44-.61,1.28-1.23,1.29-.24,0-.46-.14-.66-.29-1.48-1.05-2.81-2.39-4.34-3.34-.11-.07-.23-.13-.35-.1-.14,.03-.23,.17-.3,.31-.74,1.46-1.05,3.12-1.9,4.51-.34,.55-.86,1.09-1.5,1.05-.48-.03-.87-.38-1.21-.73-1.62-1.68-2.92-3.66-3.81-5.81-.7-1.68-1.23-3.57-2.67-4.68-.33-.25-.72-.46-1.13-.44-1,.05-1.42,1.26-1.68,2.23-.08,.3-.3,.68-.6,.58-.13-.04-.21-.17-.28-.28-.77-1.28-1.38-2.66-1.8-4.09-.31-1.06-.54-2.17-1.08-3.14-.54-.97-1.49-1.8-2.6-1.82-1.74-.04-3.47,1.33-3.82,3.02-1.24-1.37-2.75-3.35-2.8-5.29-.06-1.91,.06-3.92,.21-5.84,.11-1.38,.22-2.76,.32-4.14-1.86,2.95-1.66,6.85-3.67,9.75-1.03,1.5-2.56,2.59-4.17,3.43,.26-1.71-.88-3.6-2.53-4.17-1.05-.36-2.23,.08-3.07,.8s-1.44,1.68-2.1,2.56c-.9,1.19-1.95,2.27-3.12,3.2-.11,.09-.23,.17-.36,.17-.31-.01-.39-.44-.35-.75,.1-1,.13-2.28-.79-2.68-.38-.16-.82-.1-1.21,.02-1.74,.54-2.89,2.12-4.13,3.45-1.59,1.7-3.5,3.1-5.6,4.11-.44,.21-.93,.4-1.39,.26-.61-.19-.91-.88-1.04-1.51-.32-1.6-.02-3.27-.2-4.9-.02-.15-.05-.31-.17-.39-.11-.07-.24-.05-.37-.03-1.77,.35-3.48,1.14-5.23,1.61-.24,.06-.49,.12-.72,.04-.58-.23-.44-1.08-.7-1.64-.2-.44-.68-.7-1.16-.77-.48-.07-.96,.02-1.44,.11l-2.28,.42c-.3,.06-.64,.11-.9-.06-.27-.17-.36-.51-.42-.82-.14-.78-.16-1.59-.38-2.35-.83-2.99-4.88-2.47-6.85-1.16-1.41,.93-2.55,2.22-3.93,3.18-.29,.2-.67,.39-.97,.21-.25-.7,.31-1.66-.27-2.12-.75-.6-1.91,.65-2.43,1.07-1.02,.83-2.75,1.08-3.97,1.54-2.21,.83-5.02-.57-6.75-1.94,.64,.5,1.29,.2,1.94,.1,.88-.14,1.76-.12,2.65-.17,2.63-.15,4.84-.74,6.88-2.39,1.95-1.58,3.61-3.5,4.96-5.6,2.19-3.4,4.32-6.98,6.96-10.08,2.79-3.28,5.97-6.21,9.2-9.05,1.27-1.12,2.54-2.24,3.65-3.5,.14-.16,.29-.36,.22-.56-.12-.38-.69-.21-1.01,.03-1.66,1.25-3.33,2.5-4.99,3.75-1.04,.78-2.08,1.56-3.01,2.46-1.15,1.12-2.12,2.41-3.02,3.74-.82,1.21-1.8,2.11-2.71,3.24-2.04,2.56-3.95,5.22-5.84,7.89-2.46,3.47-5.47,6.87-9.49,8.52-3.95,1.62-8.6,1.26-11.85-1.55-.19,.03-.39,0-.58-.07,.67,1.72,2.32,3.1,4.16,3.27,1.39,.13,1.72,1.77,.82,2.66-.22,.22-.38,.45-.5,.71,3.2,.94,6.59,.7,9.65-.73,1.34-.63,2.74,1.04,1.84,2.24-.49,.65,1.28,.53,1.44,.5,.88-.19,1.72-.64,2.52-1.02,1.77-.86,3.42-1.89,4.99-3.09,.78-.59,1.89-.35,2.31,.54,.63,1.32,.36,2.62,.39,4.02,.01,.48-.05,.76,.41,.77,.56,.02,1.24-.66,1.68-1.11,.17-.47,.53-.84,1.1-.94,.72-.13,1.7,.41,1.73,1.22,.09,1.99,.14,3.99,.18,5.99,.74-.19,1.45-.44,2.15-.78,1.04-.5,1.94-1.41,3.03-1.78,1.05-.36,2.16-.05,2.87,.8,.15,.18,1.05,2.15,1.41,1.32,.53-1.25,2.78-1.32,2.88,.27,.07,1.01,.14,2.02,.2,3.03,4.22-1.01,8.01-3.38,10.73-6.81,.88-1.11,2.89-.52,2.71,1.01-.15,1.26-.29,2.52-.44,3.77,1.59,.03,3.19-.6,4.29-1.74,1.54-1.6,2.17-3.89,2.8-5.95,.56-1.85,3.37-.79,2.81,1.05-.22,.72-1.79,3.72-1.39,4.34,.48,.77,2.74-.6,3.36-.81,1.61-.55,2.84-1.65,4.19-2.67,.13-.1,.29-.2,.45-.17,.1,.02,.19,.09,.27,.16,.78,.68,1.56,1.37,2.13,2.23,.19,.29,.35,.6,.58,.87,.19,.22,.42,.4,.64,.57,.58,.46,2.9,3.44,3.69,2.84,.59-.44,.17-3.8,.21-4.56,.12-1.92,3.12-1.93,3,0-.13,2.15-.34,4.52,.54,6.56,.63,1.46,1.91,2.61,3.41,3.13,.3-1.23,.61-2.46,.91-3.69,.37-1.5,2.46-1.35,2.89,0,1.35,4.17,4.07,7.71,7.67,10.13,.42-.92,.83-1.85,1.25-2.77,.66-1.45,2.74-.6,2.8,.76,.04,.91,1.58-.63,1.78-.74,.97-.55,2.12-.45,2.97,.25,.89,.73,1.41,1.89,2.21,2.73,.54,.56,1.12,1.04,1.75,1.48,.73-1.86,1.48-3.71,2.26-5.55,.32-.74,1.43-.91,2.05-.54,.5,.3,.71,.77,.7,1.27,.26,.58,.66,1.45,1.19,1.63,.43,.14,.47-.14,.65-.58,.52-1.3,.72-2.61,1.77-3.63,.71-.69,1.84-.52,2.36,.3,1.05,1.66,2.24,3.21,3.6,4.64,.61,.64,1.25,1.35,2,1.84,.13,.09,1.75,.81,1.52,.04-.43-1.44,1.47-2.52,2.51-1.46,2.37,2.41,5.46,3.82,8.79,4.06-.02-.28-.09-.55-.22-.83-.53-1.14,.34-2.57,1.69-2.2,1.78,.49,3.81-.23,5.04-1.61-.21,0-.4-.05-.57-.14Z"/>
      <g>
        <path class="cls-5" d="M190.75,288.75c-.32-.03-.64-.04-.93-.17-.23-.1-.45-.34-.66-.59-.48-.58-.93-1.17-1.38-1.78-.92-1.26-1.77-2.59-2.24-4.06-.17-.51-.69-.85-1.23-.7-.51,.14-.86,.71-.7,1.23,.57,1.78,1.55,3.36,2.67,4.84,.54,.72,1.07,1.49,1.69,2.14,.77,.79,1.72,.99,2.78,1.08,.54,.04,1-.49,1-1,0-.58-.46-.96-1-1Z"/>
        <path class="cls-5" d="M198.67,294.19c-.15-.55-.7-.81-1.23-.7-.17,.03-.42-.01-.62-.09-.34-.14-.66-.37-.96-.58-.6-.43-.96-.8-1.27-1.46-.67-1.42-1.08-2.95-1.32-4.5-.08-.53-.75-.83-1.23-.7-.57,.16-.78,.69-.7,1.23,.28,1.84,.82,3.77,1.74,5.4,.47,.83,1.24,1.41,2.03,1.93,.86,.58,1.82,.91,2.86,.7,.53-.11,.83-.73,.7-1.23Z"/>
        <path class="cls-5" d="M210.11,299.63c-.53-.76-1.18-1.35-1.91-1.9-.32-.24-.65-.47-.98-.7-.29-.2-.71-.49-.91-.65-1.4-1.1-2.15-2.63-2.9-4.22-.23-.49-.93-.61-1.37-.36-.5,.29-.59,.88-.36,1.37,.78,1.65,1.62,3.3,3.04,4.48,.65,.55,1.37,1.01,2.06,1.5,.35,.25,.55,.4,.87,.68,.27,.24,.59,.58,.74,.8,.31,.44,.87,.65,1.37,.36,.44-.26,.67-.92,.36-1.37Z"/>
        <g>
          <path class="cls-5" d="M220.98,299.97c.04,.05,.12,.14-.02-.02v.02h.02Z"/>
          <path class="cls-5" d="M223.03,302.14c-.09-.26-.24-.43-.46-.6-.01,0-.08-.06-.09-.07-.08-.06-.15-.12-.23-.19-.15-.12-.29-.25-.43-.39-.28-.27-.55-.57-.8-.87l-.04-.06h0s-.02-.03-.03-.04v.02c-.04-.08-.1-.15-.15-.23-.11-.16-.22-.32-.32-.48-.21-.34-.4-.7-.57-1.07-.1-.21-.38-.4-.6-.46-.24-.07-.56-.04-.77,.1-.49,.32-.59,.86-.36,1.37,.75,1.64,1.93,3.03,3.38,4.09,.2,.14,.55,.16,.77,.1,.23-.06,.48-.24,.6-.46,.12-.23,.18-.51,.1-.77Z"/>
        </g>
        <path class="cls-5" d="M239.93,301.65c-1.16-.62-1.99-1.44-2.98-2.37-1.01-.94-2.01-1.9-2.89-2.96-.34-.4-1.07-.37-1.41,0-.39,.43-.36,.98,0,1.41,.91,1.09,1.94,2.07,2.97,3.04,1.03,.95,2.06,1.94,3.31,2.6,.46,.25,1.11,.13,1.37-.36,.24-.46,.13-1.11-.36-1.37Z"/>
        <path class="cls-5" d="M251.07,303.66c-.51-.06-1.09-.33-1.6-.6-.6-.32-1.17-.69-1.78-.99-.63-.32-1.28-.55-1.95-.75-.58-.17-1.2-.33-1.63-.67-.43-.33-1-.42-1.41,0-.34,.34-.43,1.08,0,1.41,.66,.51,1.37,.83,2.16,1.07,.68,.21,1.32,.39,1.93,.71,1.41,.73,2.66,1.61,4.28,1.81,.54,.07,1-.51,1-1,0-.6-.46-.93-1-1Z"/>
        <path class="cls-5" d="M181.1,281c-.47-.25-1.1-.13-1.37,.36-.15,.27-.32,.54-.51,.79l-.02,.03c-.05,.06-.09,.12-.14,.17-.1,.12-.21,.24-.32,.35-.21,.21-.43,.41-.66,.6l-.04,.03s0,0-.02,.01c-.06,.05-.13,.09-.19,.14-.13,.09-.26,.18-.4,.26-.26,.16-.52,.3-.79,.42-.02,0-.09,.04-.11,.05-.06,.02-.11,.05-.17,.07-.13,.05-.27,.1-.4,.14-.3,.09-.61,.17-.91,.22-.06,.01-.12,.02-.19,.03,.19-.03-.02,0-.06,0-.17,.02-.34,.03-.52,.04-.52,.02-1.02,.45-1,1,.02,.52,.44,1.02,1,1,2.95-.11,5.74-1.78,7.18-4.36,.26-.46,.12-1.11-.36-1.37Z"/>
        <g>
          <path class="cls-5" d="M166.86,286.99s-.05,0-.07,.01h.02s.04,0,.06-.01Z"/>
          <path class="cls-5" d="M171.29,285.36c-.38-.35-1.04-.41-1.41,0-.13,.15-.27,.29-.42,.42-.07,.06-.14,.12-.21,.18l-.03,.02s-.05,.04-.08,.06c-.32,.23-.66,.42-1.02,.59,.01,0,.03-.01,.04-.01-.02,0-.05,.02-.07,.03-.02,0-.03,.01-.02,0-.01,0-.03,.01-.04,.02-.09,.03-.17,.07-.26,.09-.19,.06-.38,.12-.57,.16-.1,.02-.2,.04-.31,.06-.01,0-.02,0-.04,0,.02,0,.02,0-.04,0h-.01s-.03,0-.05,0c0,0,.02,0,.03,0-.2,.02-.4,.03-.6,.04-.52,0-1.02,.46-1,1,.02,.54,.44,1.01,1,1,1.92-.02,3.81-.84,5.11-2.26,.35-.39,.41-1.04,0-1.41Z"/>
          <path class="cls-5" d="M168.12,286.63h0s-.05,.02-.05,.02h.02l.02-.02Z"/>
        </g>
        <path class="cls-5" d="M163.65,285.57c-.25-.42-.93-.68-1.37-.36-2.8,2.11-6.06,3.44-9.53,3.93-.54,.07-.83,.76-.7,1.23,.16,.58,.69,.77,1.23,.7,3.61-.5,7.09-1.94,10.01-4.13,.43-.32,.65-.86,.36-1.37Z"/>
        <path class="cls-5" d="M145.82,284.73c-.41-.38-1-.38-1.41,0-.03,.03-.12,.13-.18,.18,.03-.02,.06-.05-.02,0-.04,.03-.08,.06-.12,.09-.18,.12-.36,.22-.55,.32-.04,.02-.09,.04-.14,.06l-.05,.02-.05,.02s-.09,.04-.14,.05c-.2,.07-.41,.14-.62,.19-.4,.11-.8,.18-1.21,.24-.01,0-.04,0-.06,.01,0,0-.03,0-.06,0-.12,.01-.23,.03-.35,.04-.22,.02-.43,.05-.65,.07-.52,.05-1.03,.42-1,1,.02,.5,.44,1.06,1,1,2-.2,4.07-.48,5.62-1.89,.39-.35,.39-1.06,0-1.41Z"/>
        <path class="cls-5" d="M131.74,278.39c-.29-.5-.88-.58-1.37-.36-1.87,.86-4.01,1.36-6.07,1.44-.52,.02-1.02,.44-1,1,.02,.52,.44,1.02,1,1,2.46-.1,4.84-.69,7.07-1.71,.49-.22,.61-.94,.36-1.37Z"/>
        <path class="cls-5" d="M120.46,278.13c-1.18,.1-2.37,.01-3.55-.04-1.2-.05-2.41-.1-3.61-.15-.54-.02-1,.48-1,1,0,.56,.46,.98,1,1,1.2,.05,2.41,.1,3.61,.15,1.18,.05,2.37,.14,3.55,.04,.54-.05,1-.43,1-1,0-.5-.46-1.05-1-1Z"/>
      </g>
      <path d="M259.58,295.95c-.41,.12-.81,.29-1.07,.41-1.46,.64-3.07,.93-4.65,.87-3.11-.12-6.07-1.6-8.01-4.05-5.22-6.59-5.44-15.78-9.05-23.04-3.49-7.02-6.73-13.92-14.07-17.8-5.36-2.84-11.73-3.45-17.69-2.86-6.58,.65-12.92,3.09-17.22,7.97-2.27-6.22-7.42-10.82-13.46-13.77-5.38-2.64-11.56-4.29-17.58-3.51-8.23,1.07-13.68,6.4-19.4,11.76-5.92,5.54-9.34,14.06-16.54,18.41-2.66,1.61-5.96,1.97-8.92,.99-1.51-.5-2.91-1.34-4.06-2.44-.21-.2-.52-.5-.86-.75-.79-.59-1.76-.97-2.13,.48-.98,3.85,1.12,7.91,4.65,9.4-.23,.55-.38,1.14-.43,1.79-.05,.67,.35,1.29,.97,1.54,3.53,1.41,7.41,1.53,11,.44,.13,.31,.3,.62,.52,.89,.96,1.23,2.56,1.56,4.04,1.29,2.4-.43,4.8-1.76,6.94-3.22-.02,.23-.03,.46-.03,.68,.01,.97,.19,1.95,.86,2.7,1.05,1.2,2.9,1.35,4.2,.56,.04,1.45,.07,2.89,.08,4.34,0,.99,.72,1.74,1.75,1.61,1.59-.2,3.16-.64,4.6-1.34,.72-.35,1.41-.76,2.07-1.21l.33-.23c.06-.03,.1-.05,.14-.07,.05,.1,.1,.2,.16,.3,.7,1.18,1.57,2.01,3.03,2.01,.15,0,.29-.01,.43-.03l.15,2.21c.06,.82,1,1.33,1.73,1.22,4.12-.63,7.93-2.41,11.07-5.05l-.1,.88c-.07,.59,.35,1.39,.97,1.54,2.72,.64,5.56,.2,7.78-1.58,.01,0,.02-.02,.03-.03,.16,.08,.33,.14,.51,.17,1.78,.26,3.63-.1,5.25-.91,1.98-.77,3.72-2.2,5.19-3.96,.77,2.28,1.93,4.33,3.59,5.8,1.23,1.33,2.84,2.31,4.6,2.69,.18,.04,.36,.04,.54,.02,0,.01,.01,.02,.02,.04,1.46,2.44,3.97,3.85,6.74,4.2,.63,.08,1.3-.52,1.45-1.1l.21-.86c2.02,3.58,4.97,6.58,8.61,8.61,.65,.36,1.71,.21,2.05-.54l.91-2.02c.13,.07,.25,.13,.39,.18,1.36,.5,2.47,.03,3.54-.83,.08-.07,.16-.15,.25-.22,.03,.04,.06,.07,.11,.12l.23,.33c.46,.65,.96,1.28,1.51,1.86,1.11,1.16,2.43,2.12,3.85,2.86,.92,.48,1.85,.03,2.2-.9,.51-1.35,1.05-2.7,1.59-4.04,.94,1.2,2.72,1.69,4.13,.94,.89-.47,1.4-1.33,1.75-2.23,.08-.21,.15-.43,.21-.65,1.49,2.11,3.27,4.2,5.37,5.44,1.29,.76,2.9,1.02,4.23,.2,.3-.18,.57-.41,.8-.66,2.98,2.28,6.66,3.52,10.46,3.44,.67-.01,1.26-.46,1.45-1.1,.18-.63,.25-1.23,.23-1.83,3.83-.17,7.21-3.23,7.64-7.18,.16-1.49-.88-1.47-1.83-1.2Zm-7.33,5.24c-1.35-.37-2.23,1.06-1.69,2.2,.13,.28,.19,.56,.22,.83-3.33-.24-6.42-1.65-8.79-4.06-1.04-1.06-2.93,.02-2.51,1.46,.23,.78-1.39,.05-1.52-.04-.75-.49-1.39-1.2-2-1.84-1.36-1.42-2.55-2.97-3.6-4.64-.52-.82-1.64-.99-2.36-.3-1.06,1.02-1.25,2.33-1.77,3.63-.18,.44-.22,.73-.65,.58-.53-.18-.93-1.05-1.19-1.63,0-.5-.21-.97-.7-1.27-.63-.38-1.74-.21-2.05,.54-.78,1.84-1.53,3.69-2.26,5.55-.62-.44-1.21-.92-1.75-1.48-.8-.84-1.32-2-2.21-2.73-.86-.7-2-.81-2.97-.25-.2,.11-1.74,1.65-1.78,.74-.06-1.36-2.14-2.21-2.8-.76-.42,.92-.83,1.85-1.25,2.77-3.6-2.42-6.32-5.97-7.67-10.13-.44-1.35-2.52-1.5-2.89,0-.3,1.23-.61,2.46-.91,3.69-1.5-.52-2.78-1.67-3.41-3.13-.88-2.03-.67-4.4-.54-6.56,.12-1.93-2.88-1.92-3,0-.05,.75,.37,4.11-.21,4.56-.71,.54-2.08-1.35-2.53-1.95-.97-1.29-1.58-2.67-2.28-4.11-.16-.33-1.53-3.14-1.62-3.05-1.95,1.74-3.59,3.71-5.82,5.14-.62,.4-2.57,1.69-3.05,.94-.39-.62,1.17-3.62,1.39-4.34,.56-1.84-2.25-2.9-2.81-1.05-.63,2.06-1.26,4.36-2.8,5.95-1.1,1.14-2.7,1.77-4.29,1.74,.15-1.26,.29-2.52,.44-3.77,.18-1.53-1.83-2.13-2.71-1.01-2.72,3.43-6.51,5.8-10.73,6.81-.07-1.01-.14-2.02-.2-3.03-.11-1.59-2.35-1.52-2.88-.27-.35,.83-1.26-1.14-1.41-1.32-.72-.86-1.83-1.16-2.87-.8-1.09,.37-1.98,1.28-3.03,1.78-.7,.34-1.42,.59-2.15,.78-.03-2-.09-3.99-.18-5.99-.04-.81-1.02-1.35-1.73-1.22-.57,.11-.93,.47-1.1,.94-.44,.45-1.12,1.13-1.68,1.11-.45-.02-.4-.3-.41-.77-.03-1.4,.24-2.69-.39-4.02-.43-.89-1.54-1.13-2.31-.54-1.57,1.19-3.22,2.23-4.99,3.09-.8,.39-1.64,.83-2.52,1.02-.16,.03-1.93,.15-1.44-.5,.91-1.2-.49-2.87-1.84-2.24-3.07,1.43-6.45,1.67-9.65,.73,.12-.25,.27-.49,.5-.71,.9-.88,.58-2.53-.82-2.66-1.84-.17-3.49-1.54-4.16-3.27,.2,.07,.4,.09,.58,.07,3.24,2.81,7.9,3.18,11.85,1.55,4.02-1.65,7.03-5.05,9.49-8.52,6.41-9.02,14.15-19.83,25.62-22.31,7.78-1.69,16.99,1.91,23.27,6.35,1.87,1.33,3.51,2.98,4.78,4.9,1.52,2.28,3.02,4.82,3.43,7.57,.02,.15,.04,.31,.06,.46,.02,.08,.04,.16,.06,.24,.45-.8,.97-1.57,1.62-2.23,2.47-3.4,6-5.89,10.29-7.02,7.43-1.96,17.32-2.11,24.02,2.19,9.87,6.34,13.35,19.17,16.19,29.86,1.09,4.11,2.73,8.35,5.91,11.3,3.13,2.9,7.62,4.19,11.64,2.69,.17,.09,.36,.14,.57,.14-1.23,1.38-3.25,2.09-5.04,1.61Z"/>
      <g>
        <path class="cls-4" d="M190.47,270.97c.03-.21,.07-.41,.12-.61,.13-.51-.17-1.11-.7-1.23-.52-.12-1.09,.16-1.23,.7-.28,1.08-.3,2.17-.11,3.26,.04,.23,.26,.48,.46,.6,.21,.13,.53,.18,.77,.1,.24-.08,.48-.23,.6-.46,.13-.25,.15-.49,.1-.77v-.05c-.07-.51-.07-1.03,0-1.54Z"/>
        <path class="cls-4" d="M196.9,279.51c-.8-2.09-1.05-4.19-.76-6.42,.07-.52-.51-1.02-1-1-.6,.03-.93,.44-1,1-.3,2.33-.01,4.75,.83,6.95,.19,.5,.67,.85,1.23,.7,.48-.13,.89-.72,.7-1.23Z"/>
        <path class="cls-4" d="M200.95,278.84c0-.14-.02-.27-.09-.39-.04-.12-.11-.23-.21-.32-.17-.17-.46-.3-.71-.29-.26,.01-.53,.1-.71,.29-.17,.18-.33,.45-.29,.71l.28,2.07c0,.14,.02,.27,.09,.39,.04,.12,.11,.23,.21,.32,.17,.17,.46,.3,.71,.29,.26-.01,.53-.1,.71-.29,.17-.18,.33-.45,.29-.71l-.28-2.07Z"/>
        <path class="cls-4" d="M207.93,287.3c-1.71-3.63-2.36-7.67-1.97-11.66,.05-.54-.5-1-1-1-.58,0-.95,.46-1,1-.42,4.35,.39,8.72,2.25,12.67,.23,.49,.93,.61,1.37,.36,.5-.29,.59-.88,.36-1.37Z"/>
        <path class="cls-4" d="M212.77,286.02l-.38-2.07c-.04-.23-.26-.48-.46-.6-.21-.13-.53-.18-.77-.1-.24,.08-.48,.23-.6,.46-.13,.25-.15,.49-.1,.77,.13,.69,.26,1.38,.38,2.07,.04,.23,.26,.48,.46,.6,.21,.13,.53,.18,.77,.1,.24-.08,.48-.23,.6-.46,.13-.25,.15-.49,.1-.77Z"/>
        <path class="cls-4" d="M215.32,285.92c-.02-.06-.03-.13-.04-.2-.02-.22-.03-.45,0-.67,0-.14-.02-.27-.09-.39-.04-.12-.11-.23-.21-.32-.09-.1-.2-.17-.32-.21-.12-.06-.25-.09-.39-.09-.26,.01-.53,.1-.71,.29l-.16,.2c-.09,.16-.14,.32-.14,.5-.03,.19-.03,.39-.02,.58,.02,.27,.06,.55,.13,.82,.03,.13,.09,.24,.18,.34,.07,.11,.16,.19,.28,.26,.11,.07,.24,.11,.37,.12,.13,.03,.27,.02,.4-.02,.24-.08,.48-.23,.6-.46,.13-.24,.17-.51,.1-.77Z"/>
        <path class="cls-4" d="M223.3,288.09c-.84-2.2-1.49-4.47-1.95-6.79-.1-.53-.74-.83-1.23-.7-.55,.15-.8,.7-.7,1.23,.46,2.31,1.11,4.58,1.95,6.79,.19,.5,.67,.85,1.23,.7,.48-.13,.89-.72,.7-1.23Z"/>
        <path class="cls-4" d="M226.46,287.13c-.17-.43-.34-.87-.5-1.3-.03-.13-.09-.24-.18-.34-.07-.11-.16-.19-.28-.26-.11-.07-.24-.11-.37-.12-.13-.03-.27-.02-.4,.02-.24,.08-.48,.23-.6,.46l-.1,.24c-.05,.18-.05,.35,0,.53,.17,.43,.34,.87,.5,1.3,.03,.13,.09,.24,.18,.34,.07,.11,.16,.19,.28,.26,.11,.07,.24,.11,.37,.12,.13,.03,.27,.02,.4-.02,.24-.08,.48-.23,.6-.46l.1-.24c.05-.18,.05-.35,0-.53Z"/>
        <path class="cls-4" d="M232.07,288.7c-.22-.29-.42-.59-.59-.9-.08-.14-.15-.28-.22-.42-.04-.08-.08-.16-.11-.24v-.02l-.03-.05c-.12-.31-.23-.64-.31-.96-.04-.17-.08-.35-.11-.53,0-.03-.06-.26-.04-.27,.02,.15,.02,.18,0,.07,0-.04-.01-.09-.01-.13-.03-.27-.09-.51-.29-.71-.17-.17-.46-.3-.71-.29-.49,.02-1.06,.44-1,1,.17,1.61,.72,3.17,1.71,4.47,.16,.22,.32,.38,.6,.46,.24,.07,.56,.04,.77-.1,.41-.26,.7-.92,.36-1.37Z"/>
        <path class="cls-4" d="M237.44,292.84c-.42-.66-.82-1.35-1.18-2.04-.18-.35-.36-.7-.52-1.06-.08-.17-.15-.33-.23-.5-.04-.1-.08-.19-.13-.29l-.04-.1v-.03h-.01v0c-.1-.25-.21-.45-.46-.59-.21-.13-.53-.18-.77-.1-.46,.15-.91,.71-.7,1.23,.65,1.56,1.41,3.07,2.32,4.49,.28,.44,.9,.66,1.37,.36,.44-.28,.66-.9,.36-1.37Z"/>
        <g>
          <path class="cls-4" d="M221.39,257.89c-1.21-1.29-2.85-2.2-4.59-2.52-.51-.09-1.1,.14-1.23,.7-.11,.49,.15,1.13,.7,1.23,.38,.07,.76,.17,1.13,.3,.09,.03,.19,.07,.28,.1,.02,0,.04,.01,.05,.02h.01c.18,.09,.36,.18,.54,.27,.17,.09,.33,.19,.49,.29,.13,.08,.25,.18,.38,.27,0,0,.01,0,.05,.04,.01,0,.02,.02,.03,.02h-.02s.07,.04,.1,.07c.08,.06,.15,.13,.23,.2,.15,.13,.29,.28,.43,.42,.36,.38,1.06,.39,1.41,0,.38-.41,.38-1.01,0-1.41Z"/>
          <path class="cls-4" d="M219.21,258.59s-.03-.02-.05-.04c0,0,.03,.03,.07,.05h-.01Z"/>
        </g>
      </g>
      <g>
        <path class="cls-4" d="M180.51,268.91c.04-.2,.08-.41,.1-.62,.06-.52,.54-.98,1.08-.91,.53,.07,.97,.53,.91,1.08-.12,1.11-.48,2.14-1.04,3.09-.12,.2-.42,.36-.64,.4-.24,.04-.56-.02-.76-.18-.2-.16-.37-.38-.4-.64-.04-.28,.03-.51,.18-.76l.02-.04c.24-.46,.42-.94,.54-1.44Z"/>
        <path class="cls-4" d="M171.49,274.66c1.48-1.68,2.45-3.56,2.95-5.75,.12-.51,.83-.78,1.29-.59,.55,.23,.71,.74,.59,1.29-.53,2.29-1.65,4.46-3.21,6.22-.36,.4-.93,.56-1.4,.22-.41-.29-.58-.99-.22-1.4Z"/>
        <path class="cls-4" d="M167.93,272.62c.04-.13,.12-.24,.22-.33,.08-.1,.18-.18,.31-.23,.22-.1,.54-.12,.76-.03,.24,.1,.46,.27,.56,.52,.09,.23,.15,.54,.03,.76l-.98,1.84c-.04,.13-.12,.24-.22,.33-.08,.1-.18,.18-.31,.23-.22,.1-.54,.12-.76,.03-.24-.1-.46-.27-.56-.52-.09-.23-.15-.54-.03-.76l.98-1.84Z"/>
        <path class="cls-4" d="M158.43,278.1c2.87-2.81,4.89-6.36,5.93-10.24,.14-.52,.82-.76,1.29-.59,.55,.2,.73,.76,.59,1.29-1.13,4.22-3.42,8.04-6.54,11.09-.39,.38-1.09,.25-1.41-.14-.37-.45-.25-1.03,.14-1.41Z"/>
        <path class="cls-4" d="M154.35,275.2l1.08-1.8c.12-.2,.41-.36,.64-.4,.24-.04,.56,.02,.76,.18,.2,.16,.37,.38,.4,.64,.04,.28-.03,.52-.18,.76-.36,.6-.72,1.2-1.08,1.8-.12,.2-.41,.36-.64,.4-.24,.04-.56-.02-.76-.18-.2-.16-.37-.38-.4-.64-.04-.28,.03-.52,.18-.76Z"/>
        <path class="cls-4" d="M151.99,274.22c.04-.05,.07-.11,.11-.17,.1-.2,.18-.41,.23-.63,.04-.13,.12-.24,.22-.33,.08-.1,.18-.18,.31-.23,.12-.06,.24-.09,.37-.08,.13-.02,.26,0,.39,.05,.24,.1,.46,.27,.56,.52l.08,.24c.03,.18,.01,.35-.05,.52-.04,.19-.1,.37-.19,.55-.11,.25-.25,.5-.41,.72-.07,.11-.17,.2-.29,.26-.1,.08-.22,.13-.35,.14-.13,.03-.26,.02-.39-.02-.13-.02-.26-.07-.37-.16-.2-.16-.37-.38-.4-.64-.03-.27,.01-.53,.18-.76Z"/>
        <path class="cls-4" d="M143.75,273.47c1.56-1.77,2.96-3.67,4.2-5.68,.28-.46,.98-.52,1.4-.22,.46,.34,.51,.94,.22,1.4-1.24,2.01-2.64,3.91-4.2,5.68-.36,.41-.93,.56-1.4,.22-.41-.29-.58-.99-.22-1.4Z"/>
        <path class="cls-4" d="M141.14,271.46c.31-.35,.62-.7,.93-1.05,.07-.11,.17-.2,.29-.26,.1-.08,.22-.13,.35-.14,.13-.03,.26-.02,.39,.02,.13,.02,.26,.07,.37,.16,.2,.16,.37,.38,.4,.64v.26c0,.18-.07,.35-.18,.5-.31,.35-.62,.7-.93,1.05-.07,.11-.17,.2-.29,.26-.1,.08-.22,.13-.35,.14-.13,.03-.26,.02-.39-.02-.13-.02-.26-.07-.37-.16-.2-.16-.37-.38-.4-.64v-.26c0-.18,.07-.35,.18-.5Z"/>
        <path class="cls-4" d="M135.33,270.97c.3-.19,.6-.4,.87-.64,.12-.1,.24-.21,.35-.31,.07-.06,.13-.13,.19-.19l.02-.02,.04-.04c.23-.25,.44-.52,.63-.79,.1-.15,.2-.3,.29-.45,.01-.02,.15-.22,.13-.23-.07,.14-.08,.16-.03,.06,.02-.04,.04-.08,.06-.12,.12-.25,.26-.44,.52-.56,.22-.1,.54-.12,.76-.03,.46,.19,.84,.79,.59,1.29-.72,1.45-1.78,2.72-3.16,3.59-.23,.15-.44,.25-.72,.22-.25-.02-.54-.16-.69-.36-.29-.39-.33-1.11,.14-1.41Z"/>
        <path class="cls-4" d="M128.86,272.97c.63-.48,1.24-.98,1.82-1.5,.29-.26,.58-.53,.86-.81,.13-.13,.26-.26,.39-.39,.07-.07,.15-.15,.22-.23l.07-.08,.02-.02h0v-.02h0c.18-.18,.36-.33,.64-.38,.24-.04,.56,.02,.76,.18,.38,.3,.61,.99,.22,1.4-1.16,1.24-2.39,2.38-3.74,3.4-.42,.32-1.08,.3-1.41-.14-.31-.42-.3-1.07,.14-1.41Z"/>
        <g>
          <path class="cls-4" d="M155.62,247.17c.2,.49,.85,.73,1.32,.49,.18-.09,.36-.17,.55-.25,.09-.04,.19-.07,.28-.11,.04-.01,.08-.03,.13-.04h-.02s.03,0,.04,0c.05-.02,.07-.02,.06-.02,.15-.04,.3-.08,.45-.12,.18-.04,.37-.07,.56-.1,.2-.03,.4-.05,.6-.06h.02s.04,0,.06,0c.1,0,.2,0,.3,0,.39,0,.78,.05,1.16,.12,.55,.1,1.02-.41,1.08-.91,.08-.57-.39-.99-.91-1.08-1.74-.31-3.6-.03-5.18,.76-.5,.25-.7,.81-.49,1.32Z"/>
          <path class="cls-4" d="M157.91,247.26s.04-.01,.06-.02c0,0-.04,.01-.08,.02h.02Z"/>
        </g>
      </g>
    </g>
  </g>
</svg>