<?xml version="1.0" encoding="UTF-8"?>
<svg id="Nose_Mouth" xmlns="http://www.w3.org/2000/svg" viewBox="0 0 500 500">
  <defs>
    <style>
      .cls-1 {
        fill: #f95781;
      }

      .cls-2 {
        fill: #f3ff1d;
      }

      .cls-3 {
        fill: #f5a2ac;
      }

      .cls-4 {
        fill: #f6d900;
      }

      .cls-5 {
        fill: #e97a91;
      }

      .cls-6 {
        fill: #fff;
      }

      .cls-7 {
        fill: #fbfaf9;
      }

      .cls-8 {
        fill: #d51e58;
      }

      .cls-9 {
        fill: #41e4fa;
      }

      .cls-10 {
        fill: #2b8ed5;
      }
    </style>
  </defs>
  <g id="__Nose_Mouth_rose" data-name="1_Nose_Mouth_rose">
    <path class="cls-3" d="M190.81,252.21c4.29-2.08,9.03-3.7,13.43-5.65,3.61-1.6,11.41-5.24,10.58-10.35-.47-2.88-4.01-4.37-6.37-5.34-5.84-2.41-12.92-3.89-19.23-4.07-3.5-.1-14.3-.08-14.16,5.4,.07,2.87,2.39,9.65,5.76,14.64,2.83,4.19,6.4,7.11,9.99,5.37Z"/>
    <path class="cls-5" d="M190.81,252.21c4.29-2.08,9.03-3.7,13.43-5.65,3.61-1.6,11.41-5.24,10.58-10.35-.34-2.08-2.68-6.65-5.46-5.63-.86,.32-1.31,1.24-1.78,2.03-.56,.94-1.27,1.78-1.98,2.63-2.01,2.4-3.86,4.61-6.42,6.46-2.05,1.49-4.23,2.44-6.55,3.36-2.27,.9-4.87,1.15-7.14,.26-2.23-.88-4.42-2.91-5.62-4.96-1.02-1.74-2.22-4.28-4.24-5.05-.31,1.36,.83,2.84,1.33,4.11,1.03,2.59,2.29,5.11,3.85,7.42,2.83,4.19,6.4,7.11,9.99,5.37Z"/>
    <g>
      <path class="cls-6" d="M189.22,230.23c-.34-.53-.86-1.01-1.49-1.15-1.14-.25-2.31-.41-3.48-.44-1.17-.03-2.34,.1-3.49,.3-.58,.1-1.21,.66-1.49,1.15-.31,.54-.45,1.33-.25,1.93,.2,.6,.57,1.19,1.15,1.49,.2,.08,.4,.17,.6,.25,.44,.12,.89,.12,1.33,0,.04,0,.08-.01,.12-.02,1.07-.12,2.15-.13,3.23-.02,.32,.05,.64,.1,.96,.17,.65,.14,1.34,.09,1.93-.25,.52-.3,1.01-.9,1.15-1.49,.15-.64,.11-1.36-.25-1.93Z"/>
      <path class="cls-6" d="M183.69,234.84c-3.22,0-3.22,5,0,5s3.22-5,0-5Z"/>
    </g>
    <path d="M191.57,266.16c-.92-.5-1.85-.99-2.71-1.67-2.12-1.66-4.17-3.83-6.5-5.18-1.54-.89-3.32-1.58-5.03-1.75-2.31-.23-4.66,.79-6.21,2.51-1.55,1.72-2.32,4.08-2.28,6.4,0,.31,.05,.67,.31,.84,.84,.57,2.37-1.34,2.68-1.91,.41-.74,.7-1.55,1.18-2.25,1.38-1.97,3.34-2.81,5.7-2.1,3.32,.99,6.02,3.44,8.6,5.63,1.98,1.68,4.4,2.64,6.25,4.52,1.11,1.13,2.08,2.53,2.52,4.06,.36,1.27,.34,2.81,2.07,3.1,2.19,.37,1.26-2.34,.79-3.53-.92-2.31-2.2-4.53-3.94-6.32-1.03-1.06-2.22-1.71-3.42-2.36Z"/>
    <path d="M214.62,230.07c-2.18-1.28-5.44-3.55-8-3.8-1.92-.18-3.63-1.06-5.51-1.31-3.27-.43-6.49-1.04-9.84-.89-2.34,.1-4.67,.36-7,.48-4.2,.21-8,1.67-11.71,3.47-3.15,1.53-.03,8.76,.96,10.81,.92,1.91,1.65,3.64,2.93,5.32,1.52,2,3.14,3.94,4.51,6.05,.67,1.02,1.42,2.01,2.38,2.88,1.31,1.19,1.89,2.75,1.6,4.49-.13,.81-.59,3.28-1.42,4.16,.95,.61,1.92,1.2,2.89,1.77,.31-1.42,.64-2.82,.97-4.22,.27-1.15,.61-2.6,1.99-3.04,2.85-.9,5.52-2.23,8.27-3.37,3.07-1.28,5.99-2.87,9.04-4.2,3.72-1.62,8.68-4.27,10.7-7.95,2.2-4,1.21-8.32-2.75-10.65Zm-10.37,16.49c-4.41,1.95-9.14,3.57-13.43,5.65-3.59,1.74-7.16-1.18-9.99-5.37-3.37-4.99-5.69-11.77-5.76-14.64-.13-5.48,10.66-5.5,14.16-5.4,6.3,.18,13.39,1.66,19.23,4.07,2.36,.97,5.9,2.46,6.37,5.34,.83,5.11-6.97,8.75-10.58,10.35Z"/>
    <g>
      <path d="M247.52,274.23c-.9,.03-2.04,1.64-2.02,2.85,.02,1.19,.95,2.14,2.02,2.06,.91-.07,2.07-1.73,2.19-3.12,.04-.51-1.55-1.82-2.19-1.8Z"/>
      <path d="M243.48,259.99c-1.08-.05-2.08,1.08-2.11,2.38-.03,1.29,.54,1.89,1.79,1.89,1.11,0,2.92-1.52,2.8-2.36-.07-.5-1.86-1.88-2.48-1.92Z"/>
      <path d="M152.74,237.63c-.88-.07-1.99,.97-2.01,1.89-.02,1.18,.99,2.29,2.15,2.35,1,.05,2.25-1.01,2.28-1.95,.03-.77-1.51-2.21-2.43-2.29Z"/>
      <path d="M263.48,267.28c-1.22,.06-1.88,.75-1.85,1.95,.02,1,1.13,2.36,1.91,2.36,.89,0,2.14-1.37,2.13-2.34-.02-1.07-1.08-2.04-2.19-1.98Z"/>
      <path d="M146.9,260.25c.35-.02,1.87-1.74,1.84-2.09-.1-1.11-1.1-2.09-2.14-2.09-1.37,0-2.41,.96-2.32,2.13,.07,.91,1.61,2.11,2.62,2.04Z"/>
      <path d="M161.02,251.72c-.09,1.27,.63,1.94,2.23,2.07,.87,.07,1.46-.74,1.54-2.09,.07-1.31-.33-1.7-1.83-1.76-1.24-.05-1.85,.51-1.95,1.78Z"/>
      <path d="M256.9,250.12c-.91-.02-1.81,1.1-1.73,2.17,.05,.72,1.01,1.58,1.77,1.59,1.3,.02,2.05-.59,2.03-1.67-.02-1.1-.98-2.06-2.07-2.09Z"/>
    </g>
    <g>
      <path d="M193.46,283.09c-.61-3.22-2.07-6.54-3.68-9.38-1.42-2.51-3.6-4.41-6.13-5.74-1.55-.81-6.34-3.37-7.89-2.35-.48,.31-.82,.79-1.11,1.28-.76,1.24-1.33,2.72-1.01,4.15,.08,.36,.38,.79,.72,.64,.15-.06,.23-.21,.31-.35,.35-.65,.78-1.28,1.39-1.69,2.43-1.63,5.91,.99,7.69,2.51,2.65,2.27,4.35,5.15,5.66,8.35l.75,1.82c.19,.46,.38,.92,.51,1.4,.5,1.85,.19,3.25-.27,5.06-.24,.96-.22,1.98,.07,2.92,.22,.73,.99,1.96,1.95,1.42,.54-.31,.34-1.53,.41-2.07,.34-2.71,1.17-5.19,.65-7.96Z"/>
      <path d="M198.31,296.65c-.44-.12-1.09,0-1.92,.5-3.29,1.96-9.45,1.11-12.66-.77-.71-.42-1.95-1.15-1.98-2.1-.02-.77,.97-1.02,.49-1.89-.21-.39-.61-.64-1.02-.8-.37-.14-.78-.23-1.17-.12-.52,.15-.88,.63-1.1,1.12-1.93,4.38,5.87,7.71,8.97,8.19,3.01,.47,6.27,.07,9.09-1.11,2.13-.89,2.4-2.72,1.28-3.02Z"/>
    </g>
    <g>
      <path class="cls-1" d="M178.08,286.55c-.31-.74-.63-1.48-.94-2.21-.14-.72-.3-1.44-.49-2.15-.42-1.57-1.05-4.3-2.49-5.35,.06-.27,.06-.54-.02-.81-.3-.93-1.2-1.45-2.15-1.22-3.63,.86-7.26,1.73-10.88,2.59-.89,.21-1.51,1.28-1.22,2.15,.3,.93,1.2,1.45,2.15,1.22,.26-.06,.51-.12,.77-.18,3.73,3.24,3.32,8.65,2.99,13.12-.11,1.45,1.54,2.01,2.63,1.51,1.87-.85,3.8-1.57,5.76-2.17,1.83-.56,4.3-.89,4.73-3.15,.23-1.21-.37-2.29-.83-3.36Z"/>
      <path class="cls-8" d="M178.77,287.47c-.05-.34-.11-.68-.18-1.02-.18-.95-.42-1.89-.69-2.82-.47,.41-1.05,.6-1.66,.83-.87,.33-1.75,.64-2.62,.95-1.65,.58-3.36,1.3-5.09,1.61-.61,.11-1.18-.03-1.6-.4-.15,.04-.3,.06-.45,.06-.01,0-.03,0-.04,0-.14,0-.36-.03-.5-.07-.03,0-.07-.02-.1-.03-.04-.01-.07-.03-.11-.05,.43,2.29,.23,4.85,.05,7.18-.11,1.45,1.54,2.01,2.63,1.51,1.87-.85,3.8-1.57,5.76-2.17,1.43-.44,2.94-.69,4.06-1.77,1.15-1.11,.76-2.35,.53-3.83Z"/>
      <path class="cls-1" d="M151.35,287.72c-.23-.85-1.26-1.56-2.15-1.22-.79,.3-1.58,.6-2.37,.89-.81,.31-1.71,.56-2.47,.99-.2,.11-.38,.25-.54,.39-.77,0-1.41,.53-1.69,1.28-.27,.72-.82,1.66-1.35,2.25-.7,.78-1.38,1.14-2.19,1.77-.91,.71-1.14,1.89-1.67,2.86-.5,.92-1.09,1.74-1.8,2.5-.53,.57-.68,1.43-.27,2.12,.36,.62,1.27,1.09,1.98,.8,5.69-2.26,10.5-6.39,13.43-11.79,.16-.3,.21-.59,.21-.86,.69-.4,1.11-1.15,.88-1.99Z"/>
      <path class="cls-8" d="M141.75,297.87c-1.88,.44-3.59,1.34-5.53,1.52-.32,.03-.61-.06-.87-.22-.08,.09-.14,.18-.22,.27-.53,.57-.68,1.43-.27,2.12,.36,.62,1.27,1.09,1.98,.8,3.25-1.29,6.2-3.21,8.69-5.61-1.21,.5-2.49,.82-3.77,1.12Z"/>
      <path class="cls-1" d="M135.83,281.31c-1.47-.95-3.07-1.69-4.73-2.24-.63-.7-1.38-1.28-2.22-1.66-.44-.2-.86-.31-1.35-.18-.41,.11-.85,.43-1.05,.8-.41,.77-.26,1.99,.63,2.4,.11,.05,.22,.11,.34,.17,.04,.24,.12,.48,.22,.71,.63,1.46,1.68,2.67,2.94,3.62,.83,.62,1.81,1.11,2.86,.74,.84-.29,1.61-.89,2.36-1.35,1.15-.7,1.11-2.31,0-3.02Z"/>
      <path class="cls-8" d="M136,281.9c-.87,.66-1.82,1.18-2.74,1.76-.22,.14-.43,.28-.64,.43-.09,.06-.21,.13-.29,.21,.08-.09,.12-.13,.13-.14-.03,.04-.18,.2-.24,.24-.18,.16-.35,.33-.52,.5-.08,.09-.16,.18-.24,.28-.04,.05-.07,.1-.11,.16-.01,.02-.03,.04-.04,.05,.66,.36,1.39,.55,2.15,.28,.84-.29,1.61-.89,2.36-1.35,.98-.6,1.09-1.84,.42-2.64-.08,.08-.16,.15-.25,.21Z"/>
      <path class="cls-8" d="M161.41,281.17c-.14-.42-.4-.83-.8-1.05-.42-.22-.88-.29-1.35-.18l-.43,.11-.06-.03c-.31-.08-.62-.08-.93,0-.46,.1-.96,.15-1.37,.39-.41,.24-.73,.66-.85,1.12-.13,.49-.04,.98,.19,1.42,.15,.28,.45,.57,.73,.71,.3,.16,.58,.25,.93,.25,.19,0,.38-.03,.55-.07,.73-.15,1.45-.35,2.18-.53,.42-.1,.83-.44,1.05-.8,.13-.2,.2-.42,.21-.65,.05-.23,.04-.47-.03-.7Z"/>
      <path class="cls-8" d="M165.65,295.22c-.14-.42-.4-.83-.8-1.05l-.42-.18c-.31-.08-.62-.08-.93,0-.19,.08-.39,.13-.59,.19-.19-.02-.39,0-.57,.05-.34,.11-.69,.23-1.03,.34-.43,.14-.81,.4-1.05,.8-.13,.2-.2,.42-.21,.65-.05,.23-.04,.47,.03,.7,.14,.42,.4,.83,.8,1.05l.42,.18c.31,.08,.62,.08,.93,0,.75-.12,1.49-.31,2.19-.59,.23-.05,.43-.16,.6-.31,.19-.12,.34-.29,.45-.49,.13-.2,.2-.42,.21-.65,.05-.23,.04-.47-.03-.7Z"/>
      <path class="cls-9" d="M160.34,285.43c-.19-.88-1.29-1.52-2.15-1.22-1.59,.55-3.18,1.1-4.78,1.65-.22,.08-.44,.2-.64,.37,0,0-.02,0-.02,0-.95,.25-1.4,1.02-1.57,1.93-.1,.56-.25,1.12-.42,1.67-.09,.27-.19,.54-.29,.81-.02,.05-.07,.16-.09,.2-.06,.14-.13,.27-.19,.41-.52,1.04-1.11,1.93-1.74,2.64-.4,.45-.83,.88-1.29,1.27-.09,.08-.18,.16-.28,.23l-.08,.07s-.03,.02-.06,.04c-.27,.2-.54,.38-.82,.56-.73,.47-1.07,1.37-.72,2.19,.32,.73,1.24,1.33,2.07,1.01,1.57-.6,3.14-1.2,4.72-1.8,.76-.29,1.55-.58,2.24-1.02,.78-.5,1.37-1.13,1.9-1.86,.97-1.33,1.77-2.81,2.63-4.22,.95-1.54,2.01-3.04,1.6-4.94Z"/>
      <path class="cls-10" d="M147.76,296.51c-.7,.34-1.52,.28-2.07-.24-.56,.5-.81,1.27-.5,1.99,.32,.73,1.24,1.33,2.07,1.01,1.57-.6,3.14-1.2,4.72-1.8,.76-.29,1.55-.58,2.24-1.02,.78-.5,1.37-1.13,1.9-1.86,.54-.75,1.03-1.55,1.51-2.35-2.99,2.06-6.79,2.81-9.87,4.28Z"/>
      <path class="cls-9" d="M189.78,278.45c-.55-1.05-1.14-2.08-1.71-3.12-.51-.93-.97-1.92-1.55-2.8-.69-1.06-1.74-1.39-2.95-1.19-2.26,.37-4.5,.91-6.74,1.37-.47,.1-.79,.36-.99,.7-.52,.1-1.03,.42-1.28,.85-.52,.9-.13,1.82,.63,2.4,1.61,1.22,2.39,3.33,3.02,5.17,.44,1.27,.84,2.56,1.22,3.85,.2,.66,.39,1.33,.57,1.99,.06,.24,.1,.52,.19,.75-.01-.05-.02-.02-.01,.06-.01,.02-.02,.04-.04,.07-1.09,1.52,.97,3.14,2.4,2.4,2.17-1.14,4.62-4.22,4.51-6.88,1.42-.25,2.7-.99,3.19-2.5,.36-1.11,.07-2.11-.46-3.11Z"/>
      <path class="cls-10" d="M189.78,278.45c-.14-.27-.29-.53-.43-.79-.09,.05-.18,.09-.27,.13-3.33,1.38-7.23,2.18-9.99,4.38-.2,.16-.41,.28-.64,.37,.34,1.04,.68,2.08,.99,3.13,.2,.66,.39,1.33,.57,1.99,.06,.24,.1,.52,.19,.75-.01-.05-.02-.02-.01,.06-.01,.02-.02,.04-.04,.07-1.09,1.52,.97,3.14,2.4,2.4,2.17-1.14,4.62-4.22,4.51-6.88,1.42-.25,2.7-.99,3.19-2.5,.36-1.11,.07-2.11-.46-3.11Z"/>
      <path class="cls-9" d="M130.95,285.43c-1.16-.82-2.35-1.96-3.22-3.07-.39-.5-.71-1.07-1.07-1.6,.24-.22,.42-.49,.51-.81,.25-.92-.31-1.89-1.22-2.15-1.19-.34-2.24,.22-3.22,.85-.82,.53-1.6,1.14-2.32,1.79-.71,.65-1.61,1.43-1.82,2.4-.17,.78,.1,1.46,.6,2.04,.13,.15,.27,.29,.41,.44,.06,.06,.08,.08,.09,.09,0,.01,.03,.05,.08,.12,.88,1.24,1.41,2.69,2.26,3.95,.54,.8,1.16,1.49,1.94,2.05,.28,.21,.65,.37,.9,.59,.17,.15,.4,.63,.48,.8,.3,.73,.85,1.29,1.69,1.29,.76,0,1.5-.54,1.69-1.29,.46-1.79,1.32-3.4,2.58-4.75,.82-.88,.58-2.09-.35-2.75Z"/>
      <path class="cls-10" d="M130.95,285.43s-.07-.05-.1-.08c-.33,.39-.51,.63-.83,1.06-.65,.88-1.29,1.79-1.85,2.73-.51,.86-.75,1.65-.99,2.74-.17,.76-.32,1.51-.49,2.27,.11,.02,.22,.06,.35,.06,.76,0,1.5-.54,1.69-1.29,.46-1.79,1.32-3.4,2.58-4.75,.82-.88,.58-2.09-.35-2.75Z"/>
      <path class="cls-10" d="M140.65,286.01c-.49-1.1-1.62-1.86-2.82-1.75-.5-.24-1.1-.27-1.6,.06-1.3,.87-2.52,1.86-3.61,2.97-.85,.87-1.59,1.96-1.77,3.15-.37,.56-.42,1.24-.1,1.87,.42,.84,.98,1.62,1.61,2.31,.32,.35,.7,.75,1.12,.98,.73,.39,1.59,.39,2.31-.03,.8-.45,1.56-1.1,2.26-1.68,.73-.61,1.37-1.3,1.91-2.09,1.15-1.69,1.52-3.91,.69-5.8Z"/>
      <path class="cls-2" d="M164.96,287.23c-.16-.87-.33-1.78-.72-2.58-.31-.63-.85-1.1-1.51-1.33-.62-.21-1.43-.17-1.97,.23-.38,.28-.68,.58-.8,1.05-.12,.42-.06,.98,.18,1.35h0c-.04,.16-.07,.31-.07,.48,0,.65,0,1.3,0,1.95-.47,.87-.88,1.78-1.24,2.71,0,.01-.02,.02-.03,.03-.08,.15-.13,.29-.18,.44-.04,.04-.07,.09-.11,.13-.23,.26-.47,.51-.74,.75-.07,.06-.48,.47-.15,.14-.12,.12-.29,.21-.43,.3-.74,.47-1.06,1.37-.72,2.19,.3,.72,1.26,1.35,2.07,1.01,1.2-.5,2.4-.99,3.59-1.49,1.25-.52,2.61-1.28,2.88-2.75,.03-.15,.03-.3,.03-.45,.19-.42,.29-.9,.26-1.39-.05-.93-.18-1.86-.35-2.77Z"/>
      <path class="cls-4" d="M164.96,287.23c-.16-.87-.33-1.78-.72-2.58-.31-.63-.85-1.1-1.51-1.33-.25-.09-.53-.12-.82-.11,.28,.23,.45,.53,.59,.89,.72,1.83,.7,3.9-.25,5.65-.95,1.75-2.69,2.84-4.49,3.54-.34,.13-.7,.11-1.02-.02-.41,.49-.54,1.16-.28,1.79,.3,.72,1.26,1.35,2.07,1.01,1.2-.5,2.4-.99,3.59-1.49,1.25-.52,2.61-1.28,2.88-2.75,.03-.15,.03-.3,.03-.45,.19-.42,.29-.9,.26-1.39-.05-.93-.18-1.86-.35-2.77Z"/>
      <path class="cls-4" d="M137.2,297.28c-.04-.99-.77-1.7-1.75-1.75-.52-.02-1.03-.08-1.54-.14-.48-.07-.97-.15-1.45-.26-.09-.02-.18-.02-.27-.03-.16-.36-.36-.67-.72-.88-.38-.22-.93-.31-1.35-.18-.84,.27-1.56,1.23-1.22,2.15,.55,1.51,1.26,2.96,2.17,4.29,.36,.52,.86,.87,1.51,.87,.58,0,1.24-.33,1.51-.87,.06-.13,.15-.25,.22-.36,.1-.12,.21-.22,.32-.33,.18-.12,.36-.24,.56-.33h0c.27-.11,.5-.28,.7-.5,.74-.19,1.35-.93,1.31-1.7Z"/>
      <path class="cls-2" d="M130.55,299.78c-.46-.42-.94-.81-1.42-1.2-.26-.8-.66-1.54-1.17-2.21,.07-.12,.12-.25,.15-.39,.21-.93-.28-1.89-1.22-2.15-.24-.07-.48-.14-.71-.24-.04-.02-.11-.05-.16-.08-.12-.06-.24-.12-.36-.19-.45-.25-.89-.53-1.31-.83-.2-.14-.39-.28-.59-.42-.12-.09-.24-.18-.36-.27l-.03-.02c-.39-.3-.77-.62-1.12-.96-.16-.15-.32-.31-.47-.48-.08-.09-.17-.18-.25-.28-.02-.02-.1-.13-.15-.19-.05-.07-.12-.17-.12-.17-.07-.1-.13-.21-.2-.31-.09-.16-.17-.32-.26-.49,0-.03-.07-.16-.09-.2-.05-.13-.09-.26-.13-.39-.08-.26-.14-.53-.19-.79-.02-.11-.04-.21-.06-.32,0,0-.02-.14-.04-.24,0-.07-.03-.25-.04-.27-.02-.16-.04-.33-.06-.49-.1-.91-.73-1.8-1.75-1.75-.86,.04-1.86,.78-1.75,1.75,.07,.58,.13,1.16,.23,1.74-.12,.16-.21,.34-.26,.54-.89,3.62,.2,7.46,2.68,10.2,2.49,2.75,6.3,4.13,9.96,4.06,1.45-.03,2.39-1.93,1.24-2.99Z"/>
      <path class="cls-4" d="M130.03,300.11c-.49-.73-.87-1.53-1.2-2.37-.35-.9-.65-2.25-1.18-3.03-.86-1.27-1.2,.13-1.21,.83,0,1.49,.26,3,.73,4.41-.05-.15-2.61-1.12-2.96-1.29-1.26-.63-2.46-1.46-3.48-2.42-.88-.83-1.65-1.76-2.39-2.71-.7-.91-1.5-2.41-2.42-3.09-.45,3.16,.8,6.44,2.99,8.77,1.94,2.07,4.55,3.41,7.28,4.1,1.13,.28,2.34,.55,3.47,.19s2.33-1.15,1.26-2.27c-.34-.36-.64-.73-.9-1.12Z"/>
      <g>
        <path class="cls-7" d="M167.77,278.21c-.09-.28-.27-.55-.54-.7-.27-.14-.6-.21-.9-.12-.79,.24-1.6,.43-2.42,.55-.27,.04-.57,.31-.7,.54-.15,.25-.21,.62-.12,.9,.09,.28,.27,.55,.54,.7l.28,.12c.21,.06,.41,.06,.62,0,.82-.13,1.62-.31,2.42-.55,.29-.09,.54-.28,.7-.54,.15-.25,.21-.62,.12-.9Z"/>
        <path class="cls-7" d="M183.04,274.37c-.19-.6-.81-1-1.44-.82-1.39,.4-2.78,.8-4.17,1.21-.59,.17-1.01,.83-.82,1.44,.19,.6,.81,1,1.44,.82,1.39-.4,2.78-.8,4.17-1.21,.59-.17,1.01-.83,.82-1.44Z"/>
        <path class="cls-7" d="M170.16,276.81c-1.5,0-1.5,2.33,0,2.33s1.5-2.33,0-2.33Z"/>
        <path class="cls-7" d="M125.79,280.22c-.16-.25-.4-.47-.7-.54l-.31-.04c-.21,0-.41,.05-.59,.16-.4,.22-.8,.44-1.21,.66-.14,.07-.25,.17-.33,.3-.1,.11-.17,.25-.21,.4-.05,.16-.06,.31-.02,.47,0,.16,.05,.3,.14,.43,.16,.25,.4,.47,.7,.54l.31,.04c.21,0,.41-.05,.59-.16,.4-.22,.8-.44,1.21-.66,.14-.07,.25-.17,.33-.3,.1-.11,.17-.24,.21-.4,.05-.16,.06-.31,.02-.47,0-.16-.05-.3-.14-.43Z"/>
        <path class="cls-7" d="M148.33,289.86l-.12-.28c-.1-.18-.24-.31-.42-.42-.28-.15-.59-.2-.9-.12l-1.21,.33c-.15,.04-.28,.11-.4,.21-.13,.08-.23,.19-.3,.33-.09,.13-.13,.28-.14,.43-.03,.16-.03,.31,.02,.47l.12,.28c.1,.18,.24,.31,.42,.42,.28,.15,.59,.2,.9,.12l1.21-.33c.15-.04,.28-.11,.4-.21,.13-.08,.23-.19,.3-.33,.09-.13,.13-.28,.14-.43,.03-.16,.03-.31-.02-.47Z"/>
      </g>
      <g>
        <polygon points="157.44 280.85 157.44 280.85 157.44 280.85 157.44 280.85 157.44 280.85"/>
        <path d="M157.06,281.16c.08-.07,.09-.09,.08-.09-.02,.03-.05,.05-.07,.08h0Z"/>
        <path d="M189.55,281.36c-.19,.75-.84,1.31-1.58,1.62-.53,.22-1.13,.26-1.64,.55-1.31,.75-1.23,2.36-1.56,3.6-.38,1.41-1.35,2.14-2.59,2.88-.59,.35-1.26,.72-1.94,.6-.15-2.92-.39-5.8-1.35-8.59-.49-1.43-1.12-2.8-1.88-4.11-.22-.37-1.99-3.44-2.36-3.33,3.03-.87,6.08-1.7,9.15-2.42,1.46-.35,.84-2.6-.62-2.25-4.8,1.14-9.55,2.44-14.25,3.94-3.86,1.23-7.79,2.24-11.67,3.43-2.37,.73-2.01,1.53-2.63,3.63-.2,.67-.21,1.39-.16,2.08,.03,.34,.06,.68,.11,1.02,.08,.5-10.96,3.38-12.02,3.53-.43-1.42-.2-2.48-1.16-3.74-1.05-1.38-2.5-2.47-4.01-3.3-1.84-1.01-3.76-1.9-5.65-2.82-2.84-1.39-6.83-2.39-9.72-.64-2.48,1.49-3.73,3.43-5.27,5.76-2.69,4.06-3.86,9.72-1.39,14.21,3.04,5.53,9.2,8.16,15.35,7.26,7.68-1.13,15.14-3.56,22.49-5.98,1.51-.5,3.01-1.02,4.5-1.58,.05,.08,.08,.16,.15,.23,2.66,2.77,6.82,1.74,9.86,.28,3.89-1.87,8.08-2.4,12.2-3.58,1.87-.54,3.22-1.46,4.43-2.77,.32-.35,.64-.72,.95-1.13,.85-1.1,1.71-1.95,2.05-3.36,.06-.26,.11-.53,.18-.79,.01-.03,.01-.04,.03-.07,.02,0,.04,0,.07,0,.58-.06,1.23-.37,1.75-.63,1.17-.6,2.12-1.63,2.46-2.92,.38-1.46-1.87-2.08-2.25-.62Zm-33.02,.5c.25-.62,.94-1.17,1.57-1.1,1.11,.13,2.18,.55,3.11,1.16-.91,.35-3.59,1.9-4.5,1.04-.32-.3-.34-.72-.19-1.11Zm-18.14,3.13c.58,.18,1,.59,1.3,1.12,.56,1.01,.65,2.42,.39,3.36-.42,1.52-1.45,2.74-2.61,3.77-.6,.54-1.25,1.03-1.9,1.51-.16,.12-.32,.24-.49,.35-.03,.02-.35,.19-.2,.18-.12,0-.65-.48-.8-.59-1.09-.81-2.09-1.72-3.05-2.68-.45-1.2,.29-2.11,1.04-3.03,1.27-1.56,2.63-3.18,4.52-3.85,.58-.21,1.22-.31,1.81-.13Zm-1.68-1.76c-1.72,.57-3.33,1.43-4.72,2.5-2.42-1.81-4.23-4.36-5.19-7.21,1.54,.04,2.98,.8,4.34,1.47,1.41,.7,4.81,1.74,5.57,3.24Zm-15.95-1.72c1.31-1.39,2.95-2.56,4.84-2.9,1,3.12,2.92,5.86,5.49,7.88-2.17,2-3.62,4.62-3.74,7.63-.48-.1-.88-.55-1.22-.87-.45-.43-.91-.85-1.36-1.28-.85-.8-1.74-1.59-2.48-2.51-1.41-1.75-2.16-3.93-2.89-6.02-.02-.06-.06-.11-.09-.16,.43-.63,.92-1.22,1.44-1.78Zm9.07,20.69c-5.08,.65-9.94-1.77-12.46-6.36-1.76-3.2-.55-8.06,1.19-11.31,.75,2.1,1.6,4.18,3.04,5.91,.84,1.01,1.85,1.88,2.8,2.78,.87,.82,1.73,1.9,2.97,2.08,.06,.73,.18,1.47,.39,2.23,.27,.94,.6,2.02,1.2,2.81,.17,.23,1.6,1.74,1.66,1.73-.27,.05-.54,.09-.8,.13Zm2.88-1.32c-1.61-.7-2.38-2.73-2.81-4.4-.16-.62-.27-1.26-.27-1.9,.99,1.19,2.69,1.79,3.96,2.62,1.08,.71,2.1,.31,3.05-.36-.8,1.65-1.83,3.34-3.66,3.87-.12,.03-.2,.1-.27,.17Zm9.3-1.63c-2.34,.69-4.82,1.78-7.29,1.9,1.6-1.07,2.57-2.92,3.37-4.65,.11-.23,.09-.5-.08-.68,.43-.34,.86-.69,1.26-1.06,1.39-1.27,2.58-2.88,3.06-4.72,.21-.8,5.46-1.54,6.2-1.76,.76-.22,1.52-.5,2.27-.78-.83,4.85-4.07,9.14-8.5,11.28-.22,.11-.3,.29-.29,.47Zm10.03-3.02c-.16,.02-.29,.1-.38,.21-.71,.21-1.41,.42-2.12,.63-1.37,.41-2.75,.8-4.13,1.2,3.61-2.66,6.06-6.78,6.66-11.26,1.25-.49,2.49-.98,3.77-1.3,1.15-.29,2.27-.73,3.4-1.13,.5,2.61-.64,5.2-1.99,7.38-1.17,1.9-2.85,3.97-5.21,4.28Zm4.38-1.26c.65-.69,1.23-1.47,1.73-2.27,1.59-2.52,2.82-5.5,2.19-8.51,.52-.16,1.04-.31,1.56-.41,1.39-.28,1.6,.25,2.06,1.51,.61,1.65,.64,3.54,.72,5.28,.02,.48-.1,.88-.32,1.23-1.01,1.54-4.13,1.84-5.74,2.43-.73,.26-1.46,.51-2.2,.76Zm8.13,.25c-.05,.2-.11,.4-.18,.59-.09,.27-.2,.54-.41,.74-.35,.34-.88,.39-1.36,.33-.96-.12-2.32-.91-1.61-1.63,.39-.4,3.7-.66,3.76-1.06-.05,.35-.12,.69-.21,1.03Zm13.25-4.4c-.15,.42-.38,.74-.73,.94-.59,.33-1.28,.4-1.95,.52-2.08,.39-3.96,1.4-5.99,1.95-.76,.21-1.78,.65-2.16-.08-.26-.49,.1-2.33,.08-2.96-.08-2.21-.1-4.66-.91-6.75-1.02-2.63-3.33-4.82-6.05-5.61,2.53-1.23,5.28-1.91,8.02-2.5,1.02-.22,3.16-1.1,4.15-.84,.94,.25,1.75,1.96,2.24,2.7,1.1,1.68,1.94,3.52,2.5,5.45,.41,1.41,1.5,5.25,.8,7.18Z"/>
      </g>
      <g>
        <g>
          <path d="M138.53,286.18c-.3,.01-.61,.26-.58,.58,.02,.19,0,.39-.01,.58-.03,.22-.08,.44-.16,.65v-.02s-.01,.05-.02,.08c-.03,.06-.06,.12-.09,.17-.06,.11-.13,.22-.2,.33-.18,.25-.05,.66,.21,.8,.3,.16,.61,.06,.8-.21,.48-.68,.72-1.55,.65-2.37-.02-.3-.25-.6-.58-.58Z"/>
          <path d="M137.77,287.99h0c-.05,.09-.02,.04,0,0Z"/>
        </g>
        <path d="M137.32,290.45c-.04-.14-.14-.28-.27-.35-.14-.07-.3-.11-.45-.06-.14,.04-.28,.13-.35,.27-.09,.18-.2,.35-.32,.51-.14,.17-.29,.33-.46,.47-.11,.09-.17,.28-.17,.41,0,.14,.06,.31,.17,.41,.11,.1,.26,.18,.41,.17l.16-.02c.1-.03,.18-.08,.26-.15,.18-.15,.35-.32,.5-.51,.18-.22,.33-.45,.46-.71,.07-.14,.1-.29,.06-.45Z"/>
        <path d="M149.85,283.65c-.09-.28-.41-.52-.72-.41-.89,.34-1.81,.59-2.75,.76-.3,.05-.5,.44-.41,.72,.1,.32,.4,.47,.72,.41,.94-.17,1.86-.42,2.75-.76,.28-.11,.51-.4,.41-.72Z"/>
        <path d="M150.51,281.67c-.09-.28-.41-.52-.72-.41-.82,.29-1.67,.51-2.53,.65-.3,.05-.5,.44-.41,.72,.11,.33,.39,.46,.72,.41,.86-.14,1.71-.36,2.53-.65,.29-.1,.51-.4,.41-.72Z"/>
        <path d="M158.91,300.04c-2.68,.78-5.32,1.7-7.91,2.75-.29,.12-.49,.39-.41,.72,.07,.28,.43,.53,.72,.41,2.59-1.05,5.23-1.97,7.91-2.75,.72-.21,.41-1.34-.31-1.13Z"/>
        <path d="M159.52,302.2c-.08-.27-.42-.53-.72-.41-1.35,.56-2.7,1.12-4.05,1.68-.29,.12-.5,.39-.41,.72,.08,.27,.42,.53,.72,.41,1.35-.56,2.7-1.12,4.05-1.68,.29-.12,.5-.39,.41-.72Z"/>
      </g>
    </g>
  </g>
</svg>