<?xml version="1.0" encoding="UTF-8"?><svg id="Body" xmlns="http://www.w3.org/2000/svg" viewBox="0 0 500 500"><defs><style>.cls-1{fill:#fbfaf9;}.cls-2{fill:#737372;}.cls-3{fill:#a7a7a7;}.cls-4{fill:#dcdbda;}.cls-5{fill:#c8c7c6;}</style></defs><g id="__white" data-name="1_white"><path class="cls-1" d="M424.58,458.13c-2.18-12.48-4.73-25-8.63-37.07-3.65-11.29-8.54-22.42-14.63-32.59-7.08-11.81-13.78-23.31-22.85-33.74-8.35-9.6-18.12-17.52-29.71-22.9-.98-.46-1.22-1.87-.72-2.74,.56-.96,1.67-1.15,2.63-.76,.01-.31,.1-.64,.32-.98,3.37-5.1,6.62-10.28,9.73-15.54,8.85-14.98,17.53-30.91,23.48-47.31,5.76-15.86,7.3-33.87,7.56-50.62,.37-24.31-2.25-50.56-13.38-72.48-2.21-4.36-4.55-8.64-6.8-12.98-1.74-3.37-3.31-6.89-5.71-9.79-2.56-3.1-4.82-6.49-7.35-9.63-2.41-2.99-5.89-5.14-8.77-7.71-4.05-3.61-8.94-6.92-14.47-7.52-5.98-.66-10.92,2.03-16.24,4.09-8.8,3.41-17.25,7.94-25.12,13.2-5.25,3.51-10.79,7.72-14.79,12.66-1.53,1.88-3.29,3.37-5.8,3.57-2.35,.19-.77-2.35-.56-2.27-5.83-2.06-11.89-3.36-17.98-4.42-5.13-.89-10.28-1.69-15.43-2.52-3.46-.56-6.39-.11-8.38-3.35-2.12-3.47-2.78-8.42-4.88-12.14-4.67-8.28-11.31-15.57-18.91-21.25-2.08-1.55-4.28-2.91-6.81-3.75-2.63-.88-5.3-1.57-7.94,.04-.81,.49-1.56,1.11-2.42,1.46-3.13,1.28-6.24,2.57-9.05,4.47-2.41,1.62-5,3.02-7.29,4.75-17.06,12.9-31.8,25.38-42.48,44.23-2.14,3.77-4.52,7.4-6.63,11.18-.69,1.24-1.64,2.32-2.2,3.62-1.53,3.56-3.53,6.87-5.37,10.26-1.62,2.98-3.15,6.01-4.45,9.13-.61,1.47-1.58,2.72-2.19,4.15-5.89,13.97-11.18,29.95-14.03,46.29,.29,.05,.58,.12,.86,.18-.41,1.1-.6,2.29-.59,3.44-.28-.05-.56-.12-.84-.17-.8,5.25-1.35,10.53-1.56,15.78,0,.06,1.37,.19,3.53,.36,0,1.14,0,2.27-.01,3.41-1.2-.09-2.41-.18-3.61-.28-.08,6.82,.42,13.56,1.63,20.12,.88-.18,1.76-.36,2.64-.55,.16,1.15,.35,2.3,.58,3.45-.84,.17-1.68,.35-2.52,.52,1.49,6.58,3.72,12.95,6.87,18.97,5.57,10.67,13.02,20.7,21.92,29.11,10.48,9.91,21.56,16.83,34.42,23.48,9.67,5,19.83,9.39,30.64,11.12,15.44,2.47,30.52,.37,45.91-1.16,15.93-1.59,31.66-5.08,46.77-10.35,13.44-4.68,26.38-10.77,38.66-17.96,3.07-1.8,6.1-3.66,9.09-5.59,1.21-.78,6.22-5.32,7.27-2.29,.97,2.8-13.75,10.6-16.15,12.04-4.34,2.6-8.78,5.04-13.3,7.3-17.3,8.65-35.9,14.51-54.85,18.24-8.99,1.77-17.94,2.33-26.89,3.79-9.45,1.54-19.1,2.24-28.67,1.53-15.47-1.15-28.16-7.3-41.77-14.17-5.61-2.83-11.14-5.95-16.41-9.44-.16,.27-.38,.5-.67,.66-12.23,6.99-24.2,16.34-33.27,26.91-16.39,19.09-27.97,41.91-35.9,65.67-8.51,25.49-13.09,52.07-16.55,78.67h48.29c0-.14,.03-.29,.06-.43,1.38-6.57,2.46-13.2,3.6-19.81,3.68-21.35,8.38-43.63,23.41-60.16,.73-.8,2.18-.54,2.82,.2,.77,.89,.52,2.02-.2,2.82-3.84,4.23-7.03,9.06-9.65,14.12-10.12,19.56-11.65,42.02-16.02,63.26h243.83c-.05-3.94-.14-7.88-.28-11.82-.8-22.3-3.51-45.16-13.88-65.26-1.18-2.29,2.27-4.31,3.45-2.02,2.98,5.76,5.41,11.8,7.32,18,6.09,19.72,7.11,40.54,7.38,61.1h75.97c-1-14.04-2.69-28.01-5.11-41.87ZM131.88,256.85c.09-.06,.19-.11,.27-.18,.08,.05,.16,.08,.24,.12-.17,.02-.34,.03-.52,.05ZM212.48,116.64c-2.09,3.56-9.83,4.12-13.4,5.14-5.07,1.46-10.45,2.65-15.71,3.12-2.42,.22-4.78,.78-7.16,1.36-2.99,.72-6.07,1.07-9.53,1.01-1.4,.16-3.09-.13-4.79-.64-1.75-.52-3.12-1.43-4.2-2.89-.98-1.32-1.27-2.11-.18-3.12,1.38-1.28,2.09-2.94,3.19-4.36,2.62-3.36,5.29-6.73,8.68-9.3,3.87-2.94,7.69-5.95,11.55-8.9,3.29-2.52,7-4.08,10.57-5.98,3.85-2.06,9.9-1.16,12.56,2.22,2.72,3.45,5.27,7.09,6.35,11.5,.75,3.07,3.95,7.63,2.06,10.84Zm126.47,33.43c-1.99-.85-3.74-2.16-5.58-3.29-2.07-1.28-4.21-2.46-6.21-3.86-3.28-2.31-6.58-4.61-9.7-7.13-1.56-1.25-3.67-3.59-4.08-5.56-.24-1.13-.16-2.3,.07-3.44,.05-.26,.12-.52,.19-.78,1.28-4.74,4.84-8.33,8.52-11.35,3.38-2.77,7.02-5.14,11.46-5.86,.75-.12,1.28-.61,1.89-.94,4.91-2.69,12.12,.68,15.01,4.94,2.27,3.36,3.31,7.37,4.81,11.13,2.98,7.43,8.63,14.44,8.83,22.74,.15,6.09-2.25,9.1-8.42,8.67-5.9-.42-11.56-3.04-16.8-5.27Z"/><g><path class="cls-4" d="M75.18,489.21c-.63-29.21,2.59-58.49,9.55-86.86,1.42-5.79,3.59-12.67,1.91-18.6-3.11,1.64-5.4,4.32-7.2,7.5-3.39,6.01-5.01,13.76-7.05,19.49-4.3,12.08-8.36,24.25-11.75,36.62-2.55,9.33-4.72,18.77-6.28,28.32-.84,5.15-3.76,16.56-2.23,24.34h21.39c1.24-3.28,1.74-7.12,1.66-10.79Z"/><path class="cls-4" d="M132.5,449.37c1.65-6.16,3.87-12.21,4.5-18.56,.19-1.96,.23-3.98-.35-5.86-.58-1.88-1.84-3.64-3.65-4.41-.68-.29-1.47-.44-2.16-.18-.48,.17-.87,.52-1.24,.86-2.79,2.55-5.29,5.45-7.34,8.62-1.82,2.81-3.27,5.84-4.24,9.04-2.42,8-5.6,15.59-6.97,23.9-1.87,11.34-4.13,22.7-6.23,34.05-.19,1.05-.36,2.14-.17,3.18h20.28c.96-1.84,1.32-4.15,1.53-6.27,1.5-14.87,2.18-29.93,6.04-44.36Z"/><path class="cls-4" d="M351.67,477.81c.1-5.76-.2-11.53-.93-17.25-1.45-11.53-4.59-22.83-9.17-33.5-1.01-2.35-4.38-4.3-6.61-5.33-.38-.17-.76-.35-1.17-.38-.63-.05-1.23,.23-1.76,.56-2.88,1.8-4.52,5.14-5.02,8.5-.82,5.5,.96,10.82,1.65,16.22,.68,5.35,.75,10.78,.21,16.15-1.07,10.65-4.56,21-10.09,30.15-1.36,2.25-1.25,4.9-.18,7.07h32.34c.7-1.48,.98-3.19,1.13-4.85,.53-5.83-.5-11.54-.39-17.35Z"/><path class="cls-4" d="M402.44,484.5c-.46,4.92-1.91,9.95-2.85,14.81-.04,.22-.08,.46-.1,.69,0,0,1.19,0,1.19,0h31.55c.66-5.07-1.25-11.33-1.9-16.16-1.85-13.92-3.85-27.67-8.15-41.31-3.07-23.23-12.5-43.68-22.91-64.27-8.91-17.61-26.5-36.43-44.52-44.55-1.22-.55-2.54-1.2-3.06-2.44-1.14-2.73,13.72-23.41,15.79-27.44,5.2-10.15,9.85-20.59,13.72-31.31,7.64-21.14,12.16-43.43,12.16-65.96,0-14.3-1.55-28.09-4.33-42.09-2.18-10.98-8.15-21.86-13.25-31.49-.15-.28-.31-.56-.56-.75-.87-.63-2.14,.43-2.15,1.5s.69,2.01,1.27,2.92c2.05,3.23,2.72,7.13,3.24,10.92,2.6,19,2.83,39.48,2.82,58.65-.02,39.02-17.62,85.13-50.6,107.84-2.21,1.52-4.59,3.01-5.97,5.32-4.52,7.59,5.17,15.48,10.67,18.77,3.01,1.8,4.8,4.47,7.08,7.09,4.49,5.18,9.27,9.92,13.68,15.16,4.48,5.32,8.87,10.71,13.07,16.25,8.38,11.06,16.02,22.75,21.85,35.36,.18,.38,.35,.76,.52,1.14,5.74,12.7,9.47,26.3,11.22,40.12,.86,6.86,1.24,13.78,1.11,20.69-.06,3.51-.26,7.03-.58,10.53Z"/><path class="cls-4" d="M120.36,297.66c-.65-.64-1.11-1.09-1.31-1.28-10.19-9.58-12.53-26.71-13.24-39.91-2.01-37.88,4.56-78.85,22.92-112.23,1.4-2.55,2.85-5.26,2.75-8.17-1.83-.7-3.62,1.05-4.75,2.65-10.13,14.4-18.07,28.11-23.84,44.94-2.55,7.44-4.98,15.76-5.67,23.61s-2.98,15.52-3.7,23.41c-1.25,13.65-1.6,28.96,4.14,41.62,3.11,6.86,6.67,13.82,10.71,20.3,5.42,8.72,11.96,19,20.68,24.73,1.77,1.16,3.99,2.16,5.95,1.34,4.25-1.79-9.98-16.41-14.63-21.01Z"/><path class="cls-4" d="M301.88,328.06c-4.32,1.76-8.38,4.26-12.69,6.14-7.34,3.2-14.94,5.83-22.69,7.85-5.5,1.44-11.08,2.57-16.71,3.39-5.08,.74-10.37,.72-15.36,1.8-12.04,2.61-24.9,3.8-37.12,2.2-11.99-1.56-23.56-5.34-34.64-10.09-6.7-2.87-12.61-7.11-18.76-10.99-1-.63-2.2-1.03-3.38-.86-.47,.07-.93,.22-1.38,.38-2.41,.85-5,1.96-6.13,4.24-.71,1.44-.72,3.17-.16,4.67,.82,2.2,3.07,4.14,4.93,5.5,23.11,16.87,49.29,28.39,78.44,25.14,15.23-1.7,29.85-6.12,44.41-10.73,17.49-5.53,35.22-11.65,48.52-24.94,1.25-1.24,2.52-2.74,2.47-4.5-.01-.36-.09-.73-.34-.98-.35-.35-.92-.35-1.42-.3-2.82,.24-5.45,1.02-8,2.06Z"/><path class="cls-4" d="M327.71,311.37c-8.3,2.2-15.92,6.17-24.32,8.35-18.93,4.91-38.31,8.76-57.68,10.96-13.7,1.56-27.51,2.17-41.3,1.79-6.98-.19-13.98-.66-20.86-1.95-9.66-1.81-19.73-5.15-28.69-9.18s-16.68-9.53-24.8-14.63c-1.34-.84-3.63-3.46-5.35-3.22-3.46,.47,.95,5.9,1.84,7.18,8.29,11.99,20.22,18.92,32.74,25.65,9.72,5.22,19.97,9.15,30.94,10.73,6.21,.89,12.49,1.68,18.75,1.36,18.65-.95,36.57-3.2,54.86-6.93,4.47-.91,8.95-1.82,13.29-3.22,2.99-.96,5.89-2.16,8.8-3.35l7.91-3.24c7.94-3.26,15.91-6.52,23.42-10.68,4.54-2.51,9.17-4.28,13.08-7.79,.81-.72,1.65-1.86,1.07-2.79-1.23,.32-2.47,.64-3.7,.96Z"/><path class="cls-4" d="M175.2,210.27c-3.13-.14-9.97,4.04-12.8,4.37-7.98,.93-17.53,0-24.46-4.09-3.59-2.11-7.2-4.69-8.87-8.51-.96-2.2-.17-11.66-4.76-10.89-4.49,.76-3.03,11.78-2.27,14.73,1.93,7.42,8.76,13.03,15.52,16.25,9.91,4.72,18.94,3.67,28.94-.51,2.74-1.14,14.15-6.39,9.92-10.89-.28-.3-.7-.44-1.22-.46Z"/><path class="cls-4" d="M280.77,231.11c-.2,.17-.4,.34-.61,.5-2.84,2.19-6.47,3.19-10.05,3.43-6.82,.45-15.94,.23-21.61-4.12-2.49-1.91-4.45-4.44-5.94-7.18-1.25-2.28-1.72-6.07-3.72-7.77-5.61-4.77-3.07,11.3-1.99,13.55,3.9,8.14,10.85,14.07,19.87,15.82,5.88,1.14,12.15,.86,17.8-1.19,5.96-2.16,11.4-6.94,14.82-12.2,.52-.8,1.01-1.65,1.16-2.59s-.13-2.01-.9-2.57c-.7-.51-1.66-.52-2.47-.23-2.24,.78-4.56,3.04-6.35,4.56Z"/></g><g><path class="cls-5" d="M166.69,97.46c1.94,.98,3.16,2.82,4.94,3.97,1.59,1.02,3.46,.53,4.93-.42,1.15-.75,2.25-1.58,3.44-2.22,.31-.24,.62-.48,.93-.72,3.29-2.52,7-4.08,10.57-5.98,3.85-2.06,9.9-1.16,12.56,2.22,.47,.6,.93,1.2,1.39,1.82,.52-.37,1.03-.76,1.57-1.09,1.22-.76,2.58-1.4,4.03-.99,1.11,.31,1.87,1.09,2.79,1.73,.11,.08,.31,.24,.48,.32-.06-.07,.6-.12,.66-.13,.61-.15,1.22-.31,1.82-.49,1.1-.34,2.17-.76,3.02-1.56,.07-.07,.15-.12,.23-.18-3.75-4.65-8.12-8.83-12.87-12.37-2.08-1.55-4.28-2.91-6.81-3.75-2.63-.88-5.3-1.57-7.94,.04-.81,.49-1.56,1.11-2.42,1.46-3.13,1.28-6.24,2.57-9.05,4.47-2.41,1.62-5,3.02-7.29,4.75-3.75,2.84-7.38,5.65-10.89,8.52,1.29-.18,2.59-.05,3.9,.62Z"/><path class="cls-5" d="M309.55,104.87c1.65,1.55,3.78,2.89,4.47,5.15,.06,0,.11,.01,.14,.02,.35,.03,.71,.05,1.06,.08,.93,.06,1.89,.19,2.82,.1,2.06-.2,4.01-1.08,6.05-1.43,2.19-.38,4.05-.08,6.07,.84,.05,.02,.09,.05,.13,.07,1.07-.4,2.18-.7,3.35-.89,.75-.12,1.28-.61,1.89-.94,4.91-2.69,12.12,.68,15.01,4.94,1.42,2.1,2.36,4.45,3.23,6.84,1.17-.25,2.43-.54,3.6-.18,1.32,.4,2.18,1.57,3.44,2.01,.83,.29,2.58-.23,3.55-.53,.9-.27,1.58-.79,2.2-1.43-.22-.29-.44-.58-.67-.86-2.56-3.1-4.82-6.49-7.35-9.63-2.41-2.99-5.89-5.14-8.77-7.71-4.05-3.61-8.94-6.92-14.47-7.52-5.98-.66-10.92,2.03-16.24,4.09-3.89,1.5-7.7,3.24-11.43,5.15,.68,.59,1.31,1.24,1.95,1.85Z"/><path class="cls-5" d="M130.55,221.95c-1.61,1.49-3.18,3.03-4.85,4.45-1.68,1.43-3.48,2.64-5.29,3.88-3.48,2.4-7.46,3.98-11.31,5.65-3.18,1.38-6.25,3-9.36,4.53-2.41,1.19-4.61,2.55-5.56,5.01,.17,4.7,.3,9.91,1.62,14.44,2.18-.2,5.18-.34,7.19-1.36,2.75-1.4,4.27-4.02,7.5-4.78,.74-.18,1.52-.26,2.19-.62s1.24-1.07,1.12-1.82c1.47,.11,2.97-.58,3.84-1.76,.72-.98,1.21-2.39,2.41-2.6,.53-.09,1.12,.08,1.6-.17,.28-.15,.47-.44,.64-.71,2.52-3.91,4.71-8.95,8.55-11.6,3.31-2.29,7.16-3.6,9.22-7.34,1.03-1.88,1.71-3.94,2.46-5.94,.68-1.79,1.39-3.56,2.19-5.3-.87-.09-1.75-.1-2.63,0-.16,.03-.33,.05-.49,.09-.32,.08-.62,.07-.91,.01-.49,.27-1.01,.5-1.56,.68-.94,.31-2.06,.35-2.96,.77-2.08,.99-3.94,2.93-5.6,4.47Z"/><path class="cls-5" d="M387.89,169.05c-1.85-8.55-4.46-16.88-8.11-24.71-1.66,.05-3.32-.03-5.01-.12-2.54-.13-4.68-.62-7.02-1.65-1.6-.71-3.13-1.62-4.75-2.29,.67,2.06,1.12,4.17,1.17,6.38,.04,1.59-.1,2.96-.43,4.12,.92-.56,2.08-.62,3.26,.23,.2,.15,.41,.3,.62,.44,1-.85,2.42-1.2,3.9-.44,8.38,4.29,13.11,10.67,16.1,18.05,.09-.01,.18-.01,.26-.02Z"/><path class="cls-5" d="M371.09,202.06c1.55-.23,5.98-.3,7.14-1.71,1.47-1.78-.9-5.33-1.82-6.96-1.46-2.57-3.34-4.97-4.59-7.65-.91-1.95-.54-5.05-2.43-5.73-3.22-1.16-3.42-5.66,0-6.75,4.63-1.47,6.6-3.27,3.56-7.52-2.48-3.46-6.05-6.22-9.48-8.68-1.2-.86-1.61-2.09-1.5-3.27-1.36,1.21-3.39,1.75-6.22,1.55-5.9-.42-11.56-3.04-16.8-5.27-1.99-.85-3.74-2.16-5.58-3.29-2.07-1.28-4.21-2.46-6.21-3.86-3.28-2.31-6.58-4.61-9.7-7.13-1.07-.86-2.4-2.24-3.26-3.66-2.09-.89-4.09-2.2-6-3.25-.72-.39-1.43-.78-2.16-1.15-.46-.23-1.12-.59-1.38-.65-.34-.08-1.38,.05-1.97,.09-.84,.05-1.71,0-2.51-.29-1.8-.67-2.7-2.36-2.47-4.22,.05-.39,.12-1.77,.37-1.98l-.07-.09-.09-.14c-.19-.29-.36-.61-.51-.92-.5-1.02-.79-2.03-1.03-3.13-.03-.14-.07-.27-.1-.41-.03-.03-.07-.05-.09-.07-.13-.08-.26-.17-.4-.25-2.11-1.17-3.99-1.4-6.41-1.43-3.76,2.8-7.4,5.94-10.26,9.47-1.53,1.88-3.29,3.37-5.8,3.57-2.35,.19-.77-2.35-.56-2.27-5.83-2.06-11.89-3.36-17.98-4.42-5.13-.89-10.28-1.69-15.43-2.52-3.46-.56-6.39-.11-8.38-3.35-.72-1.17-1.26-2.52-1.76-3.92-1.58,.58-3.24,.98-4.85,1.34-3.23,.73-6.5,1.26-9.74,1.96-.53,.11-1.06,.21-1.59,.31-.01,.78-.18,1.52-.58,2.2-2.09,3.56-9.83,4.12-13.4,5.14-5.07,1.46-10.45,2.65-15.71,3.12-2.42,.22-4.78,.78-7.16,1.36-2.99,.72-6.07,1.07-9.53,1.01-1.4,.16-3.09-.13-4.79-.64-1.75-.52-3.12-1.43-4.2-2.89-.3-.4-.52-.75-.67-1.07-1.83,.15-3.67,.13-5.5-.22-2.37-.45-4.6-1.87-6.63-2.56-1.03-.35-1.67-.43-2.64-.18-1.58,.4-3.01,1.41-4.28,2.4-2.41,3.27-4.68,6.73-6.78,10.44-2.14,3.77-4.52,7.4-6.63,11.18-.69,1.24-1.64,2.32-2.2,3.62-1.53,3.56-3.53,6.87-5.37,10.26-1.62,2.98-3.15,6.01-4.45,9.13-.61,1.47-1.58,2.72-2.19,4.15-3.66,8.69-7.09,18.15-9.85,28,3.37-.83,7.29-.36,10.5-.14,2.44,.16,5.39,.41,7.57,.06,1.1-.18,1.85-.41,2.58-.87,.44-.28,.81-.76,1.03-1.53,.23-.81,1.05-1.51,1.93-1.47,4.34,.23,3.32,5.82,6.09,8.48,1.37,1.32,6.88,3.6,2.82,5.97-.55,.32-1.18,.27-1.79,.28-.08,0-.33-.01-.52-.02,.14,.16-.05,.1-.18,.03-.02,0-.04,0-.06,.01-.06,.07-.12,.14-.15,.19-.65,.85-1.21,1.85-1.99,2.59-2.83,2.71-7.86,.25-10.93,4.53-1.96,.08-3.88-.61-5.84-.68-2.31-.09-8.59,1.76-10.19,3.53-1.03,1.14-1.76,2.53-2.85,3.61-.93,.93-2.03,1.51-3.25,1.8-.04,.4-.13,.76-.29,1.1-.39,3.35-.67,6.7-.8,10.04-.02,.49,5.36,.33,6.08,.06,2.39-.9,4.69-3.84,6.09-5.87,.2-.29,.41-.6,.72-.76,.54-.29,1.2-.06,1.8,.05,1.28,.24,2.65-.11,3.67-.93,1.72-1.39,2.72-4.16,4.93-4.12,.69,.01,1.37,.33,2.06,.26,1.11-.11,1.85-1.13,2.56-2,1.77-2.16,3.94-2.99,6.15-4.5,2.09-1.44,3.71-3.39,5.96-4.64,1.72-.96,3.9-.65,5.42-2.05,1.73-1.6,3.57,.58,5,1.39,2.3,1.29,4.87,1.94,7.47,2.23,7.34,.8,14.94-1.15,21-5.37,4.1-2.86,7.47-6.74,9.77-11.17,1.5-2.88,2.53-5.05,4.85-7.35,.34-.34,.76-.7,1.23-.63,.59,.09,.85,.78,1,1.36,.99,3.92,1.63,8.29,3.15,12.01,.57-.68,1.7-1.34,2.58-.79,.76,.47,1.07,1.42,1.14,2.3s-.04,1.79,.11,2.66c.04,.21,.1,.43,.24,.59,.37,.41,1.06,.21,1.5-.12s.86-.78,1.41-.83c1.12-.09,1.57,1.41,1.63,2.53l.41,8.3c1.18-.22,2.26-.93,2.94-1.92,.58-.85,.91-1.93,1.78-2.49s2.44,.14,2.05,1.1l3.71-3.01c.47-.38,1.2-.75,1.61-.31,.21,.23,.21,.57,.32,.87,.31,.9,1.51,1.17,2.41,.87s1.61-.97,2.41-1.48c2.42-1.53,2.21,2.45,4.68,2.03,.81-.14,1.29-.97,1.7-1.69,1.71-3.02,3.69-5.33,7.11-6.02,3.71-.75,4.58-1.92,7.23-5.03-1.49,8.31-.88,15.12,3.35,22.34,3.41,5.84,8.01,9.34,14.88,9.69,2.78,.14,7.94-1.19,10.03,1.19,.86,.97,1.15,3.71,1.95,5,.78,1.26,1.78,2.41,2.74,3.53,2.14,2.5,4.25,4.99,6.19,7.65,1.66,2.27,3.04,4.72,4.58,7.07,1.34,2.05,2.8,4.41,4.86,5.82,1.07,.73,2.4,1.08,3.64,1.43,1.63,.46,3.3,.81,4.96,1.14,3.22,.63,6.47,1.13,9.64,2,3.7,1.02,7.42,1.99,11.12,2.98,3.27,.88,6.63,1.66,9.83,2.77,2.73,.95,5.29,2.36,8.05,3.21,1.51,.47,3.26,.1,4.82,.01,4.5-.24,9.17,3.1,11.58-1.67,.38-.76,.79-1.62,1.6-1.9,.52-.18,1.12-.05,1.63-.25,1.17-.44,1.21-2.07,1.04-3.31-.44,.13-.81-.48-.66-.91s.58-.7,.97-.95c1.96-1.23,3.68-2.85,5.03-4.73-1.7-.24-3.42,.2-5.11,.5-8.56,1.47-17.55-1.12-25.92-2.71-6.22-1.18-12.47-2.2-18.69-3.4-3.04-.59-6.12-1.1-9.04-2.15-2.63-.95-5.18-2.12-7.62-3.49-4.4-2.47-8.38-5.56-12.47-8.51-3.45-2.49-11.22-10.41-3.97-12.6,3.85-1.16,8-7.47,11.51-5.94,2.16,.94,3.76,3.57,5.98,4.71,2.88,1.47,6.19,2.29,9.33,2.97,.61-.19,1.33-.03,1.84,.36,1.51,.28,3.03,.49,4.52,.63,2.81,.27,5.61,.25,8.42,.66,2.65,.39,5.25,.98,7.86,1.58,2.46,.57,5.01,.99,7.42,1.75,2.11,.67,4.14,1.57,6.17,2.43,1.82,.77,3.65,1.54,5.55,2.1,.22,.06,.44,.13,.66,.18,.23-.32,.59-.57,1.1-.69,2.62-.57,5.11,.23,7.6,.91,1.4-.96,2.87-1.81,4.24-2.81,2.44-1.77,2.74-2.32,.33-4.43-1.82-1.59-1.01-4.3,.71-5.5,1.54-1.07,3.15-1.99,4.82-2.77-.32-1.02-.55-2.12-.79-3.44-.38-2.11,.93-4.55,3.37-4.43,4.02,.19,6.31,.31,4.62-3.88-1.29-3.2-3.44-6.1-5.38-8.92-1.18-1.71-.07-4.82,2.09-5.14Z"/><path class="cls-5" d="M424.58,458.13c-2.18-12.48-4.73-25-8.63-37.07-3.65-11.29-8.54-22.42-14.63-32.59-7.08-11.81-13.78-23.31-22.85-33.74-3.74-4.29-7.77-8.24-12.11-11.78-.18,.26-.4,.49-.64,.7,0,0,0,0-.02,.02-.16,.16-.35,.3-.52,.46-.11,.1-.21,.21-.31,.32-.02,.02-.03,.04-.06,.07-.15,.3-.43,.92-.15,.18-.06,.17-.14,.33-.22,.49,.13,.46,.24,.92,.3,1.4,.41,3.69-1.94,5.03-4.7,5.14,0,.43,.03,.86,.1,1.28,.51,2.88-2.32,5.62-5.14,3.95-2.37-1.4-4.74-3.28-7.38-4.14-.61,1.37-1.67,2.33-3.28,2.36-5.03,.11-9.83,.77-14.63-.05,0,.35,.02,.71,.06,1.07,.22,1.87-1.77,3.53-3.5,3.5-.7-.01-1.36-.05-2.02-.12-1.3,2.85-2.45,5.91-5.25,7.55-1.8,1.06-4.24,1.34-6.26,.88-1.8-.41-4.17-2.49-5.98-1.97-2.76,.8-4.47,6.34-7.02,8.01-1.96,1.29-3.88,1.39-5.71,.78-2.65,4.31-4.08,9.4-7.68,13.18-3.32,3.49-7.04,3.71-10.14,1.58-2.46,3.41-4.23,7.46-7.71,9.96-3.38,2.43-6.11,1.5-8-.78-2.97,4.22-5.21,9.29-7.79,13.49-2.76,4.51-6.72,12.26-12.42,13.6-6.92,1.62-10.38-6.39-12.33-15.07-.91,.81-1.78,1.69-2.55,2.67-1,1.27-3.14,1.3-4.49,.42-2.37,5.08-4.75,10.16-7.66,14.97-1.58,2.6-5.53,2.06-6.4-.84-2.14-7.11-1.86-14.45-2.18-21.75-.25,.47-.5,.93-.74,1.41-.85,1.66-2.48,2.01-3.89,1.54-.88,3.22-5.66,3.79-6.74,.17-.15-.52-.29-1.04-.42-1.56-.65,2.23-1.36,4.45-2.15,6.64-.94,2.58-3.76,3.31-5.85,1.54-5.32-4.49-8.03-11.02-8.89-17.85-.1,.16-.2,.32-.3,.48-.97,1.51-3.17,2.34-4.79,1.26-5.09-3.42-5.65-9.18-7.4-14.59-.98-3.02-1.94-3.62-4.41-5.32-1.98-1.37-4.17-2.61-4.99-5.02-.31-.91-.33-2.58-.39-2.6-.7-.17-3.25,1.9-4,2.22-2.57,1.11-5.27,1.23-7.83-.08-3.24-1.65-3.07-3.62-7.11-2.81-3.9,.78-7.43,2.6-11.42,3.14-2.28,.31-4.34-.87-4.43-3.38-.08-2.32,.64-4.33,1.41-6.49,.32-.89,1.22-2.29,1.13-3.24-.04-.43,.06-.61,.12-.68-.11,.04-.4,.11-1.08,.05-4.08-.33-8.61,2.32-12.77,2.57-2.4,.14-3.82-2.34-3.37-4.43,.17-.79,.38-1.56,.62-2.31-15.83,18.83-27.09,41.17-34.86,64.42-8.51,25.49-13.09,52.07-16.55,78.67h48.29c0-.14,.03-.29,.06-.43,1.38-6.57,2.46-13.2,3.6-19.81,3.68-21.35,8.38-43.63,23.41-60.16,.73-.8,2.18-.54,2.82,.2,.77,.89,.52,2.02-.2,2.82-3.84,4.23-7.03,9.06-9.65,14.12-10.12,19.56-11.65,42.02-16.02,63.26h243.83c-.05-3.94-.14-7.88-.28-11.82-.8-22.3-3.51-45.16-13.88-65.26-1.18-2.29,2.27-4.31,3.45-2.02,2.98,5.76,5.41,11.8,7.32,18,6.09,19.72,7.11,40.54,7.38,61.1,0,0,46.96,0,46.96,0h29.01c-1-14.03-2.69-28.01-5.11-41.86Z"/><path class="cls-5" d="M344.74,281.78c-2.02-.21-4.19,.02-5.96,.12-1.93,.1-3.46-.06-5.26-.75-3.21-1.22-6.26-2.6-9.56-3.57-3.82-1.12-7.68-2.13-11.53-3.15-3.54-.94-7.06-1.99-10.65-2.72-3.39-.68-6.81-1.19-10.15-2.1-2.88-.78-5.35-1.83-7.4-4.04-2.06-2.22-3.69-4.84-5.29-7.4-1.48-2.36-3.03-4.62-4.67-6.86-3.52-4.81-8.43-8.69-9.64-14.7-1.08-.13-2.19-.03-3.26,.2,.27,2.17,.21,4.33,.33,6.55,.04,.72,.1,1.4,.35,2.08,0-.04,.24,.44,.3,.55,.02,.03,.03,.05,.04,.07,.02,.02,.04,.04,.07,.08,.08,.09,.16,.19,.24,.28,1.24,1.4,2.45,2.73,3.28,4.43,1.04,2.12,1.92,4.32,2.8,6.51,1.53,3.82,3.06,7.72,5.51,11.07,2.44,3.35,5.94,5.48,9.51,7.46,3.71,2.06,7.53,3.97,10.77,6.75,2.6,2.23,4.32,5.46,6.82,7.71,.28,.25,.51,.29,.89,.33,.76,.07,1.53,.04,2.28,0,1.86-.11,3.7-.37,5.55-.59,1.71-.2,3.46-.42,5.19-.33,1.65,.08,3.31,.46,4.93,.75,3.35,.6,6.48,1.93,9.69,3.01,3.38,1.14,4.79,.39,8.1,.61,.41,.03,.85,.09,1.23-.09,.82-.38,.82-1.54,1.3-2.3,.69-1.09,2.19-1.21,3.46-1.42s2.78-.98,2.68-2.27c-.74,.38-1.54-.68-1.27-1.46s1.09-1.22,1.85-1.56,1.59-.73,1.92-1.49c-1.17-1.11-2.75-1.59-4.42-1.76Z"/></g><g><path class="cls-3" d="M276.37,233.7c-1.99,.77-4.13,1.19-6.26,1.33-.58,.04-1.18,.07-1.79,.1,.01,.01,.03,.02,.04,.04,.86,.97,1.15,3.71,1.95,5,.78,1.26,1.78,2.41,2.74,3.53,.21,.24,.41,.48,.61,.72,.28-.09,.57-.17,.85-.27,1.84-.67,3.64-1.59,5.33-2.69-2.34-2.43-4.48-5.58-3.48-7.75Z"/><path class="cls-3" d="M261.35,236.82c.27,2.17,.21,4.33,.33,6.55,.04,.72,.1,1.4,.35,2.08,0-.04,.2,.37,.28,.51,2.38,.09,4.77-.07,7.11-.48-2.18-2.64-4.11-5.4-4.81-8.86-1.08-.13-2.19-.03-3.26,.2Z"/><path class="cls-3" d="M122.18,196.43c.23-.81,1.05-1.51,1.93-1.47,3.44,.18,3.52,3.73,4.78,6.52-.7-2.9-.31-11.05-4.58-10.34-2.3,.39-3.04,3.47-3.11,6.78,.42-.28,.77-.75,.99-1.5Z"/><path class="cls-3" d="M139.64,211.92c.13-.12,.25-.21,.38-.29-.71-.34-1.41-.69-2.08-1.09-1.23-.72-2.45-1.51-3.6-2.37-.2,.41-.6,.82-1.31,1.23-.55,.32-1.18,.27-1.79,.28-.08,0-.33-.01-.52-.02,.14,.16-.05,.1-.18,.03-.02,0-.04,0-.06,.01-.06,.07-.12,.14-.15,.19-.65,.85-1.21,1.85-1.99,2.59-.62,.6-1.35,.93-2.14,1.16,1.08,1.29,2.31,2.49,3.63,3.58,1.37-1.2,2.82-2.38,4.39-3.25,1.72-.96,3.9-.65,5.42-2.05Z"/><path class="cls-3" d="M141.58,223.74c.32-.84,.62-1.68,.94-2.51,.68-1.79,1.39-3.56,2.19-5.3-.87-.09-1.75-.1-2.63,0-.16,.03-.33,.05-.49,.09-.32,.08-.62,.07-.91,.01-.49,.27-1.01,.5-1.56,.68-.94,.31-2.06,.35-2.96,.77-1.08,.52-2.11,1.29-3.07,2.13,1.46,.95,2.97,1.8,4.48,2.52,1.35,.65,2.69,1.17,4.02,1.61Z"/><path class="cls-3" d="M271.77,123.43c-2.61-2.52-7.91-2.66-11.21-3.81-6.4-2.22-12.84-4.42-19.59-5.31-4.1-.54-8.79-.49-11.91,2.63-3.57,3.57-4.23,8.99,.75,11.48,1.88,.94,4,1.27,6.08,1.59,4.5,.69,9.87,.53,14.12,1.95,4.92,1.61,9.84,3.37,15.05,1.83,4.06-1.19,10.63-6.56,6.7-10.37Z"/><path class="cls-3" d="M415.95,421.06c-3.65-11.29-8.54-22.42-14.63-32.59-7.08-11.81-13.78-23.31-22.85-33.74-3.74-4.29-7.77-8.24-12.11-11.78-.18,.26-.4,.49-.64,.7,0,0,0,0-.02,.02-.16,.16-.35,.3-.52,.46-.11,.1-.21,.21-.31,.32-.02,.02-.03,.04-.06,.07-.15,.3-.43,.92-.15,.18-.06,.17-.14,.33-.22,.49,.13,.46,.24,.92,.3,1.4,.41,3.69-1.94,5.03-4.7,5.14,0,.43,.03,.86,.1,1.28,.51,2.88-2.32,5.62-5.14,3.95-1.97-1.16-3.94-2.65-6.06-3.62,2.14,2.31,4.26,4.63,6.31,7.05,4.48,5.32,8.87,10.71,13.07,16.25,8.38,11.06,16.02,22.75,21.85,35.36,.18,.38,.35,.76,.52,1.14,5.74,12.7,9.47,26.3,11.22,40.12,.86,6.86,1.24,13.78,1.11,20.69-.06,3.51-.26,7.03-.58,10.53-.46,4.92-1.91,9.95-2.85,14.81-.04,.22-.08,.46-.1,.69,.76,0,1.19,0,1.19,0h29.01c-1-14.03-2.69-28.01-5.11-41.86-2.18-12.48-4.73-25-8.63-37.07Z"/><path class="cls-3" d="M333.79,421.34c-.63-.05-1.23,.23-1.76,.56-2.88,1.8-4.52,5.14-5.02,8.5-.82,5.5,.96,10.82,1.65,16.22,.68,5.35,.75,10.78,.21,16.15-1.07,10.65-4.56,21-10.09,30.15-1.36,2.25-1.25,4.9-.18,7.07h31.12c-.05-3.94-.14-7.88-.28-11.82-.8-22.3-3.51-45.16-13.88-65.26-.18-.35-.24-.69-.23-1.01-.12-.06-.25-.12-.37-.18-.38-.17-.76-.35-1.17-.38Z"/><path class="cls-3" d="M132.5,449.37c1.65-6.16,3.87-12.21,4.5-18.56,.19-1.96,.23-3.98-.35-5.86-.58-1.88-1.84-3.64-3.65-4.41-.3-.13-.62-.22-.94-.27,.37,.79,.11,1.69-.5,2.36-3.84,4.23-7.03,9.06-9.65,14.12-10.12,19.56-11.65,42.02-16.02,63.26h19.04c.96-1.84,1.32-4.15,1.53-6.27,1.5-14.87,2.18-29.93,6.04-44.36Z"/><path class="cls-3" d="M75.18,489.21c-.63-29.21,2.59-58.49,9.55-86.86,1.42-5.79,3.59-12.67,1.91-18.6-.04,.02-.07,.04-.11,.06-6.68,11.93-12.09,24.59-16.41,37.53-8.51,25.49-13.09,52.07-16.55,78.67h19.95c1.24-3.28,1.74-7.12,1.66-10.79Z"/><path class="cls-3" d="M101.4,219.87c-1.03,1.14-1.76,2.53-2.85,3.61-.93,.93-2.03,1.51-3.25,1.8-.04,.4-.13,.76-.29,1.1-.39,3.35-.67,6.7-.8,10.04,0,.06,1.37,.19,3.53,.36,0,.07,0,.15,0,.22,2.63-1.32,5.27-2.67,7.95-3.89,.22-5.29,.61-10.61,1.18-15.91-2.28,.69-4.58,1.68-5.47,2.66Z"/><path class="cls-3" d="M122.36,147.36c-1.53,3.56-3.53,6.87-5.37,10.26-1.62,2.98-3.15,6.01-4.45,9.13-.61,1.47-1.58,2.72-2.19,4.15-3.66,8.69-7.09,18.15-9.85,28,2.9-.72,6.21-.46,9.12-.24,3.69-19.15,9.92-37.73,19.1-54.42,1.4-2.55,2.85-5.26,2.75-8.17-.91-.35-1.82-.09-2.63,.46-1.45,2.39-2.92,4.77-4.28,7.2-.69,1.24-1.64,2.32-2.2,3.62Z"/><path class="cls-3" d="M387.63,169.07c.09-.01,.18-.01,.26-.02-1.85-8.55-4.46-16.88-8.11-24.71-.9,.03-1.81,.01-2.72-.02,.2,1.08,.36,2.16,.51,3.24,.37,2.71,.68,5.45,.96,8.2,4.23,3.75,7.06,8.29,9.09,13.3Z"/><path class="cls-3" d="M94.18,245.48c.18,4.92,.68,9.78,1.56,14.55,.88-.18,1.76-.36,2.64-.55,.02,.13,.04,.26,.06,.39,.52-.12,1.05-.17,1.33-.22,1.19-.2,2.27-1.35,3.24-2.03,.92-.65,1.84-1.31,2.75-1.97-.3-5.96-.38-12-.24-18.07-1.94,.94-3.86,1.92-5.79,2.87-2.41,1.19-4.61,2.55-5.56,5.01Z"/></g><g><path class="cls-2" d="M220.1,121.75c-.15-2.68-.47-6.42-3.35-7.55-1.57-.61-3,.19-3.54,1.77-.27,.78-.27,1.63-.22,2.45,.15,2.51,.79,4.99,1.87,7.25,.3,.63,.63,1.24,1.07,1.78,.47,.58,1.13,1.1,1.88,1.06,1.08-.06,1.74-1.23,2.01-2.28,.36-1.44,.36-3.01,.28-4.49Z"/><path class="cls-2" d="M206.67,171.45c.54,.82,1.82,.72,2.38,0,.92-1.19,1.55-2.57,1.88-4.01,.74-2.31,.85-4.8,.28-7.17-.03-1.96-.94-4.36-3.32-3.92-1.38,.26-2.13,1.54-2.51,2.77-.37,1.2-.61,2.43-.66,3.69-.03,.99,.03,1.96,.19,2.91,.04,2,.61,3.99,1.77,5.73Z"/><path class="cls-2" d="M222.5,134.83c-.64-1.79-2.24-2.71-4.2-2.17-1.24,.34-2.03,1.57-2.48,2.77-1.47,3.9-1.62,9.45-.02,13.29,.84,2.03,3.6,.84,4.45-.54,1.23-2,1.9-4.98,2.24-7.3,.3-1.97,.7-4.13,0-6.06Z"/><path class="cls-2" d="M230.23,161.99c-.14-.93-1.47-1.4-2.2-.9-2.38,1.64-4.23,3.88-5.42,6.44-.05,.09-.08,.18-.13,.26-.05,.1-.1,.2-.14,.3-.59,1.2-.94,2.5-1.05,3.83-.07,.49-.14,.98-.16,1.48-.01,.27,.06,.52,.2,.74,.06,.46,.15,.92,.27,1.38,.24,.91,1.38,1.42,2.2,.9,4.81-3.08,7.31-8.82,6.44-14.43Z"/><path class="cls-2" d="M242.89,138.43c-.31-1.82-1.44-3.28-3.74-2.75-2.09,.47-3.58,2.31-4.67,4.03-2.49,3.96-3.25,8.85-2.25,13.39,.78,3.5,5.85-2.33,6.57-3.2,2.22-2.69,3.69-6,4.12-9.47,.08-.66,.08-1.35-.03-2Z"/><path class="cls-2" d="M258.39,120.28c-.15-.03-.29-.05-.44-.08l-.23-.03c-.45-.05-.9-.11-1.35-.16-1.12-.14-2.22-.29-3.3-.62-.28-.09-.53-.21-.77-.35-.34,.36-.64,.76-.91,1.19-.39,.5-.68,1.08-.9,1.69-.04,.09-.09,.19-.13,.28-1,2.21-1.79,4.53-2.2,6.92-.22,1.3-.07,2.74,1.25,3.39,1.05,.52,2.3,.24,3.27-.33,1.77-1.04,3.23-3,4.2-4.77,.54-.98,.98-2.03,1.29-3.1,.31-1.07,.59-2.27,.26-3.36,.01-.23,0-.45-.03-.68Z"/><path class="cls-2" d="M235.63,116.27c-1.69-.49-3.32-1.31-4.05-3-.08-.18-.12-.36-.17-.54-1.38,2.57-1.54,6.08-1.53,8.84,.02,3.12,.73,7.88,4.85,4.63,1.83-1.44,3.2-3.5,3.83-5.74,.32-1.13,.45-2.31,.49-3.49-1.17-.16-2.32-.39-3.42-.71Z"/><path class="cls-2" d="M259.59,149.52c-.17-.38-.38-.74-.66-1.09-.24-.3-.53-.58-.88-.75-.62-.3-1.35-.21-2.03-.12-.61,.08-1.24,.17-1.76,.49-.38,.24-.69,.59-.96,.94-1.92,2.45-4.55,7.94-3.4,11.19,1.19,3.37,5.56-.49,6.87-1.78,2.13-2.1,4.11-5.91,2.82-8.88Z"/><path class="cls-2" d="M272.74,124.62c-.23,.04-.45,.11-.67,.21-2.05,.91-3.18,3.67-4.53,5.36-1.66,2.08-3.15,5.33-2.44,8.03,.79,2.99,4.92-.4,5.91-1.49,2.08-2.28,5.09-7.29,4.01-10.51-.27-.8-.93-1.53-1.78-1.62-.17-.02-.34,0-.51,.02Z"/><path class="cls-2" d="M248.51,167.3c-.45-.53-1.2-.76-2.38-.46-1.42,.36-2.76,1.54-3.78,2.54-1.06,1.05-1.96,2.3-2.62,3.64-.61,1.23-2.3,4.32-1.73,5.72,1.09,2.66,4.59-.48,5.6-1.55,1.76-1.86,7.44-6.9,4.9-9.89Z"/><path class="cls-2" d="M288.25,134.39c-.5-.39-1.1-.67-1.57-.78-3.32-.77-5.7,2.11-7.4,4.49-.86,1.19-5.41,6.05-2.26,6.98,1.87,.55,4.37-1.49,5.88-2.27,2.61-1.35,4.78-3.46,6.2-6.04,.49-.89-.06-1.76-.84-2.36Z"/></g><g><path class="cls-2" d="M381.93,373.44c-.71-2.14-2.55-3.72-4.67-4.42-.4-.42-.92-.76-1.63-.94-5.85-1.51-11.67,3.79-10,9.81,1.71,6.22,9.4,8.1,14.02,3.78,2.19-2.05,3.25-5.33,2.29-8.22Z"/><path class="cls-2" d="M388.48,397.45c-1.96-2.92-5.85-3.9-9.06-2.78-.02,0-.05-.01-.07-.01-3.92-.33-8.07,2.15-9.26,6-1.37,4.45,2.75,7.2,6.42,8.56,3.68,1.35,7.89,.95,10.73-1.94,2.58-2.62,3.34-6.69,1.24-9.82Z"/><path class="cls-2" d="M358.23,382.56c-1.12-.87-2.69-1.25-4.09-.96-1.31-.1-2.68,.42-3.29,1.67-.6,1.21-.77,2.38-.52,3.7,.18,.94,.73,1.89,1.41,2.56,1.87,1.82,5.05,1.78,6.86-.12,1.87-1.98,1.85-5.14-.36-6.85Z"/><path class="cls-2" d="M406.31,431.88c-.26-.28-.58-.53-1-.73-6.52-3.15-16.48,2.58-14.78,10.47,1.51,7.04,12.67,11.99,18.32,6.86,5.03-4.56,4.7-14.69-2.53-16.6Z"/><path class="cls-2" d="M418.85,463.02c-.28-1.1-.98-1.96-1.9-2.59-.24-.28-.51-.53-.84-.71-.86-.45-1.74-.56-2.7-.35-.8,.17-1.64,.69-2.19,1.29-.8,.88-1.22,1.92-1.3,3.1-.06,.85,.2,1.73,.62,2.46,.56,.98,1.55,1.69,2.62,2.02,1.96,.61,4.14-.15,5.24-1.9,.6-.96,.73-2.24,.45-3.32Z"/><path class="cls-2" d="M398.46,472.9c-.57-2.12-2.41-3.54-4.39-4.26-1.84-.67-3.79-.66-5.46-.08-4.4,.39-6.06,6.2-3.34,9.47,2.68,3.22,8.26,3.84,11.4,.95,1.64-1.51,2.38-3.92,1.79-6.08Z"/><path class="cls-2" d="M373.44,447.73c-.86-.95-2.01-1.52-3.23-1.74-.25-.15-.51-.27-.78-.33-1.97-.45-3.64,.6-4.31,2.44-.44,1.23-.19,2.57,.35,3.71,.48,.99,1.34,1.76,2.34,2.18,2.28,.96,4.87,.1,6.16-2.02,.84-1.38,.49-3.1-.55-4.24Z"/><path class="cls-2" d="M371.7,422.38c-.18-.63-.51-1.24-.99-1.69-.48-.45-.97-.75-1.61-.93-.41-.11-.79-.14-1.17-.11-.26,.01-.51,.05-.77,.11-.18,.06-.36,.12-.53,.2-.06,.03-.12,.05-.17,.09-.06,.03-.12,.05-.17,.09-.13,.09-.25,.18-.37,.28-.12,.09-.25,.18-.36,.28-.45,.41-.76,1.02-.94,1.6-.2,.66-.17,1.37,0,2.03,.15,.59,.54,1.26,.99,1.68,.51,.48,.46,.4,.74,.57l.84,.35s.02,0,.03,0c.58,.18,1.35,.16,1.93,0,.6-.17,1.16-.49,1.61-.93,.48-.48,.54-.66,.76-1.18,.23-.55,.32-.69,.32-1.42,0-.34-.04-.69-.13-1.02Z"/><path class="cls-2" d="M416.65,417.14s-.02-.02-.03-.03c.41-1.63-.29-2.9-1.39-3.61-.17-1.62-.83-3.16-1.99-4.28,.06-1.44-.79-2.81-2.14-3.38-.7-.29-1.54-.42-2.28-.18-.73,.24-1.26,.63-1.73,1.17-.53,.3-1.01,.73-1.4,1.25-.32,.43-.56,.89-.78,1.36-.29,.24-.57,.52-.81,.83-1.97,2.57-1.65,6.42,.38,8.83,1.06,1.26,2.62,2.09,4.26,2.38,1.86,1.48,4.61,1.87,6.64,.45,.76-.53,1.36-1.17,1.61-2.09,.23-.84,.13-1.95-.35-2.7Z"/><path class="cls-2" d="M429.44,489.98c.23-.89,.14-1.87-.33-2.67-.14-.24-.3-.44-.48-.63,0-.01,0-.02,0-.04-.53-1.92-2.45-2.83-4.31-2.44-3.38,.7-6.5,3.53-6.21,7.21,.14,1.87,1.05,3.68,2.65,4.71,1.08,1.5,2.91,2.51,4.73,2.51,2.58,0,5.24-2.02,5.64-4.63,.24-1.55-.28-3.28-1.69-4.02Z"/><path class="cls-2" d="M398.07,377.81c-.43-1.42-1.59-2.3-2.87-2.49-.44-.76-1.13-1.36-2.04-1.57-1.81-.41-3.84,.54-4.31,2.44-.7,2.82,.25,6.29,3.38,7.15,3.26,.89,6.87-2.07,5.83-5.53Z"/><path class="cls-2" d="M98.92,378.53c-.57-.21-1.16-.31-1.75-.32-1.34-.73-3.06-.64-4.19,.53-2.61,2.7-2.79,7.2-.18,9.98,2.37,2.53,6.76,2.73,9.2,.17,3.16-3.3,.85-8.91-3.08-10.36Z"/><g><path class="cls-2" d="M83.86,392.12c-1.24-1.43-3.68-1.27-4.95,0-.75,.75-1.04,1.69-.98,2.62-1.02,1.38-1.68,2.88-2,4.54-.42,.54-.67,1.22-.67,2.02,0,1.74,1.61,3.69,3.5,3.5,.34-.03,.66-.09,.98-.16,.25-.05,.49-.12,.73-.19h0c2.2-.64,4.01-2.04,4.94-4.31,1.16-2.81,.38-5.79-1.56-8.02Z"/><path class="cls-2" d="M78.68,397.82h0Z"/></g><path class="cls-2" d="M112.59,406.69c-.97-3.72-5.04-4.8-8.41-4.8-.41,0-.77,.07-1.1,.18-.71-.07-1.45,.07-2.12,.42-2.98,1.57-4.17,5.4-3.04,8.49,1.31,3.58,5.14,5.32,8.78,4.43,3.77-.93,6.94-4.71,5.89-8.72Z"/><path class="cls-2" d="M94.95,415.96c-.82-.87-1.95-1.33-3.14-1.4-.35-.02-.68,.02-1,.09-1.7-.24-3.6,.68-4,2.48-.46,2.08,.14,4.14,1.85,5.46,1.83,1.42,4.49,1.22,6.15-.38,1.76-1.69,1.81-4.49,.14-6.25Z"/><path class="cls-2" d="M80.13,427.79c-.82-.53-1.87-.72-2.91-.53-6,1.09-8.56,8.77-4.28,13.16,4.22,4.34,11.75,2.29,13.07-3.68,.88-4-2.22-8.03-5.88-8.95Z"/><path class="cls-2" d="M101.17,440.85c-.12-.28-.24-.56-.35-.84-.31-.53-.73-.94-1.26-1.26-.31-.13-.6-.29-.92-.38-.1-.03-.85-.13-.95-.13-.16,0-.45,.06-.5,.06-.02,0-.35,.03-.5,.07-.11,.03-.75,.3-.85,.36-.28,.15-.55,.35-.77,.58l-.03,.03s-.53,.67-.56,.72c-.1,.16-.14,.31-.22,.49-.04,.11-.16,.33-.2,.5,0,.02,0,.03-.01,.05-.04,.21-.12,.75-.13,.96,0,.03,0,.06,0,.1,0,.02,0,.03,0,.05,.02,.2,.08,.76,.13,.95,0,.03,.02,.06,.03,.09,.06,.17,.28,.7,.36,.85,0,.01,.02,.03,.02,.04,.33,.59,.5,.68,.94,1.03-.04-.03,.26,.22,.38,.29,.08,.05,.75,.33,.85,.36,.01,0,.03,0,.04,.01,.12,.03,.83,.12,.96,.13,.34,.02,.68-.06,1.02-.13,.46-.11,.85-.32,1.19-.63,.38-.25,.68-.57,.9-.98,.26-.4,.39-.84,.42-1.3,.03-.14,.03-.27,.04-.41,.13-.57,.12-1.13-.03-1.7Z"/><path class="cls-2" d="M63.29,451.7c-1.77-.66-3.84,.74-4.31,2.44-.18,.67-.15,1.3,.03,1.88-.58,.61-.95,1.43-.94,2.35,0,1.05-.2,1.9-.58,2.88-.28,.72-.19,1.48,.1,2.17-1.18,2.14,.79,5.08,3.19,4.98,4.32-.18,8.15-3.28,8.56-7.73,.38-4.13-2.31-7.58-6.05-8.97Z"/><path class="cls-2" d="M86,462.05c-.18-.31-.42-.63-.67-.89-.21-.21-.52-.45-.77-.61-.05-.03-.1-.07-.16-.1-.85-.42-1.76-.61-2.7-.35-.11,.03-.23,.09-.34,.13-.22,.02-.44,.05-.66,.12-.9,.29-1.55,.82-2.09,1.61-.22,.31-.37,.73-.47,1.09-.11,.38-.16,.81-.13,1.21,.07,.97,.35,1.81,.95,2.58,.57,.74,1.3,1.28,2.21,1.56,.37,.12,.81,.16,1.2,.17,.4,.01,.82-.05,1.19-.19,.99-.36,1.85-.95,2.38-1.87,.4-.69,.58-1.42,.62-2.21,.04-.75-.19-1.61-.56-2.26Z"/><path class="cls-2" d="M73.36,477.06c-3.05-.71-5.96,.53-7.54,2.75-.77,.57-1.28,1.3-1.62,2.38-.35,1.13-.5,2.32-.37,3.48,.28,2.42,1.94,4.34,4.26,5.07,3.55,1.12,8.64-.31,10.46-3.71,2.2-4.12-.98-9-5.2-9.98Z"/><path class="cls-2" d="M94.18,486.81c-.14-.43-.38-.81-.72-1.13-.32-.34-.69-.58-1.13-.72-.42-.22-.87-.32-1.35-.3-.31,.04-.62,.08-.93,.12-.59,.17-1.11,.47-1.54,.9-.18,.24-.36,.47-.55,.71-.32,.55-.48,1.13-.48,1.77v.38c-.02,.48,.08,.93,.3,1.35,.14,.43,.38,.81,.72,1.13,.32,.34,.69,.58,1.13,.72,.42,.22,.87,.32,1.35,.3l.93-.13c.59-.17,1.11-.47,1.54-.9,.18-.24,.36-.47,.55-.71,.32-.55,.48-1.13,.48-1.77v-.38c.02-.48-.08-.93-.3-1.35Z"/><path class="cls-2" d="M58.77,488.97c-.49-.16-.98-.32-1.48-.48-1.74-.56-3.89,.65-4.3,2.43-.65,.62-1.06,1.5-1.12,2.51-.12,1.75,.64,3.51,1.88,4.72,1,.98,3.01,1.47,4.24,.55,2.06-1.55,3.42-3.71,3.34-6.37-.04-1.6-1.07-2.89-2.57-3.37Z"/><path class="cls-2" d="M128.56,438.93c-.91-.05-1.85,.18-2.7,.6-.62,.12-1.19,.41-1.61,.94-.5,.64-.91,1.22-1.15,1.97-.25,.64-.36,1.32-.28,2.04,.08,.73,.23,1.37,.6,1.95,.46,.94,1.17,1.73,2.04,2.32,2.9,1.95,6.65,.11,7.65-3,1.03-3.21-1.12-6.64-4.55-6.82Z"/><path class="cls-2" d="M144.26,462.79c-2.73-1.73-5.89-.68-8.13,1.31-.02,.02-.03,.04-.05,.05-.05,.04-.1,.07-.14,.11-2.49,2.15-1.56,6.2,.98,7.84,2.39,1.54,6.45,.81,8.39-1.21,2.32-2.42,1.76-6.31-1.06-8.1Z"/><path class="cls-2" d="M123.76,476.25c-.79-.24-1.6-.21-2.39-.02-.62,.15-.94,.38-1.39,.73-.42,.32-.38,.28-.7,.7-.11,.15-.27,.31-.36,.49-.22,.34-.33,.71-.38,1.09-.1,.32-.15,.66-.15,1.01,.1,.79,.11,1.27,.53,1.97,.19,.32,.44,.64,.71,.9,.78,.77,1.83,1.14,2.91,1.19,1.88,.09,3.68-1.21,4.17-3.04,.59-2.21-.81-4.38-2.94-5.02Z"/><path class="cls-2" d="M163.34,483.28c-1.06-1.19-2.45-1.85-3.94-2.17-.09-.08-.17-.16-.27-.23-3.12-2.32-7.86-.78-9.58,2.52-2.06,3.97,.44,8.85,4.46,10.27,3.72,1.31,8.97-.28,10.53-4.13,.87-2.14,.3-4.56-1.21-6.26Z"/><path class="cls-2" d="M336.38,440.91c-.75-1.86-2.6-3.18-4.63-3.18-4.21-.02-6.41,4.82-4.52,8.27,.92,1.68,2.81,2.83,4.73,2.82,2.05-.01,4.01-1.32,4.81-3.2,.68-1.6,.53-3.34-.39-4.7Z"/><path class="cls-2" d="M318.01,463.22c-.33-.61-.75-1.13-1.23-1.59-1.07-2.12-3.26-3.75-5.9-3.79-4.97-.08-8.44,4.97-6.74,9.61,1.77,4.87,7.99,6.65,12.14,3.55,2.45-1.83,3.19-5.06,1.73-7.79Z"/><path class="cls-2" d="M336.32,465.71c-.6-.59-1.4-1.07-2.23-1.26-.75-.17-1.45-.18-2.21,0-.42,.1-.88,.28-1.23,.52-.24,.16-.45,.34-.65,.53-.3,.26-.58,.54-.79,.89-.5,.65-.72,1.7-.69,2.5,.05,1.19,.49,2.25,1.29,3.12,.77,.84,1.97,1.36,3.1,1.36,1.22,0,2.36-.46,3.25-1.3,1.77-1.66,1.9-4.65,.14-6.37Z"/><path class="cls-2" d="M344.58,483.92c-1.8-1.39-4.21-1.82-6.17-1.13-1.95,.25-3.73,1.61-4.2,3.81-.87,4.08,3.46,7.25,7.21,6.14,3.61-1.07,6.98-5.85,3.15-8.81Z"/><g><path class="cls-2" d="M310.98,490.52s-.06,.02-.09,.04h0l.09-.04Z"/><path class="cls-2" d="M313.55,486.08c-.16-2.55-2.1-4.5-4.69-4.59-2.11-.07-4.01,1.24-4.82,3.15-.84,2-.29,4.52,1.34,5.98,1.27,1.13,3.31,1.39,4.66,.25,.29-.08,.57-.18,.85-.31,1.64-.85,2.78-2.54,2.65-4.48Z"/><path class="cls-2" d="M310.89,490.56c-.25,.11-.5,.21-.75,.32,.26-.09,.51-.19,.75-.32Z"/></g><path class="cls-2" d="M187.57,492.28c-.09-.35-.27-.75-.45-1.06-.14-.25-.4-.56-.59-.77-.05-.06-.1-.1-.15-.15-.32-.34-.69-.58-1.13-.72-.42-.22-.87-.32-1.35-.3-.45,0-.95,.11-1.4,.31-.31,0-.63,.02-.93,.12-.84,.27-1.68,.8-2.09,1.61-.37,.72-.64,1.49-.57,2.32,.06,.62,.14,1.04,.37,1.59,.23,.54,.46,.87,.85,1.35,.51,.61,1.25,1.01,1.99,1.27,.76,.26,1.68,.24,2.45,.02,.89-.26,1.62-.8,2.18-1.52,.39-.51,.7-1.04,.84-1.68,.18-.8,.18-1.56-.02-2.36Z"/><path class="cls-2" d="M252.49,459.06c-4.5,0-4.51,7,0,7s4.51-7,0-7Z"/><path class="cls-2" d="M283.22,486.4c-.12-.1-.24-.18-.35-.26-.82-1.23-2.31-1.96-3.83-1.5-2.18,.65-3.61,2.46-3.79,4.72-.17,2.13,1.45,4.2,3.46,4.78,2.04,.59,4.24-.24,5.3-2.09,.98-1.72,.81-4.33-.79-5.64Z"/><path class="cls-2" d="M243.35,488.1c-1.05-1.67-3.06-2.52-4.94-2.3-1.27-.14-2.6,.16-3.46,1.03-1.19,1.19-1.47,3.18-1.09,4.76,.22,.92,.67,1.72,1.27,2.37,.14,.3,.32,.58,.58,.81,.32,.34,.69,.58,1.13,.72,.42,.22,.87,.32,1.35,.3l.93-.13c.05-.01,.09-.04,.14-.06,.37-.03,.75-.09,1.13-.21,3.02-.92,4.71-4.54,2.97-7.31Z"/><path class="cls-2" d="M198.47,462.11c-2.01-1.16-4.98-.93-6.54,.91-.28,.33-.51,.68-.69,1.05-.19,.29-.36,.6-.46,.96-.77,2.62,.72,5.31,3.15,6.33,2.38,1,5.31-.11,6.41-2.47,1.14-2.43,.56-5.38-1.88-6.79Z"/></g><path d="M415.95,421.06c3.91,12.07,6.45,24.59,8.63,37.07,2.42,13.86,4.11,27.83,5.11,41.86h4c-.9-12.6-2.35-25.16-4.36-37.63-2.07-12.81-4.55-25.65-8.21-38.11-5.68-19.33-14.33-38.51-26.22-54.84-7.65-10.51-15.54-21.07-25.64-29.38-4.75-3.91-9.88-7.29-15.34-10.1,.19-.14,.37-.31,.52-.55,2.68-4.06,5.28-8.18,7.79-12.34,7.25-19.12,21.71-35.58,27.22-55.18,5.77-20.55,6.18-42.1,5.98-63.3-.09-9.36-1.98-18.53-3.46-27.74-1.74-10.87-6.08-21.2-10.94-31.01-4.7-9.47-9.26-18.83-15.81-27.25-3.76-4.84-8.31-9.33-13.22-13.03-2.42-1.82-4.87-3.6-7.25-5.48-1.79-1.41-2.97-3.08-5.37-3.53-1.62-.3-3.3-.32-4.94-.19-3.19,.25-6.29,1.14-9.32,2.14-4.33,1.43-8.58,3.08-12.76,4.91-8.37,3.66-16.38,8.12-23.9,13.3-2.62,1.81-4.98,3.93-7.41,5.95-1.09,.91-2.1,1.52-3.05,2.59-.77,.87-1.67,2.19-2.93,2.35-1.77,.23-4.77-1.22-6.49-1.7-4.21-1.17-8.42-2.39-12.73-3.14-6.95-1.21-13.92-2.27-20.89-3.39-.09-.01-.17-.02-.26-.02-2.6-12.63-10.66-20.1-18.84-29.36-.19-.22-.38-.43-.58-.65-.96-1.06-1.97-2.13-3.04-3.15-2.25-2.14-4.77-4.04-7.58-5.14-3.38-1.32-7.87-3.15-11.35-1.43-3.67,1.81-7.46,3.39-11.06,5.36-2.23,1.22-4.21,2.79-6.34,4.14-7.82,4.93-15.63,9.85-22.12,16.5-1.88,1.93-3.76,3.89-5.6,5.88-2.99,3.22-5.91,6.53-8.68,9.94-3.06,3.76-5.95,7.64-8.58,11.67-2.32,3.57-4.51,7.22-6.65,10.9-4.48,7.69-8.79,14.73-12.33,23.03-5.54,12.98-12.3,26.52-15.04,40.42-1.02,5.16-2.01,10.24-2.88,15.3-1.03-.18-2.06-.36-3.09-.52-.94-.15-1.87,.24-2.15,1.22-.24,.83,.29,2.01,1.22,2.15,1.15,.18,2.3,.38,3.45,.58-.84,5.33-1.49,10.65-1.8,16.01-2.1-.17-4.2-.33-6.3-.51-2.24-.19-2.23,3.31,0,3.5,2.05,.17,4.1,.33,6.15,.5-.18,6.51,.17,13.1,1.36,19.85h-.13c.07,.36,.13,.71,.2,1.05-1.28,.26-2.56,.53-3.83,.79-2.2,.46-1.27,3.83,.93,3.38,1.25-.26,2.5-.52,3.74-.77,.99,4.36,2.27,8.64,3.73,12.74,2.81,7.86,6.93,14.94,11.98,21.58,3.38,4.44,7.05,8.64,10.72,12.84,4.82,5.51,10.62,9.59,15.95,14.44-5.71,3.01-10.86,7.82-16.23,11.61-14.73,10.4-25.86,27.56-35.39,42.82-4.75,7.6-7.64,16.01-12.05,23.65-7.14,17.16-12.21,35.2-15.96,53.39-2.93,14.2-5.09,28.55-6.95,42.93h4c3.46-26.6,8.03-53.18,16.55-78.67,7.94-23.77,19.52-46.58,35.9-65.67,9.07-10.56,21.04-19.92,33.27-26.91,.29-.16,.51-.4,.67-.66,5.27,3.5,10.8,6.61,16.41,9.44,13.61,6.87,26.3,13.02,41.77,14.17,9.56,.71,19.22,0,28.67-1.53,8.95-1.46,17.9-2.02,26.89-3.79,18.95-3.73,37.56-9.59,54.85-18.24,4.52-2.26,8.96-4.7,13.3-7.3,2.4-1.44,17.12-9.24,16.15-12.04-1.05-3.03-6.06,1.51-7.27,2.29-2.99,1.93-6.02,3.79-9.09,5.59-12.28,7.18-25.22,13.27-38.66,17.96-15.11,5.27-30.84,8.77-46.77,10.35-15.38,1.53-30.47,3.63-45.91,1.16-10.81-1.73-20.98-6.13-30.64-11.12-12.86-6.65-23.94-13.57-34.42-23.48-8.9-8.41-16.34-18.44-21.92-29.11-3.15-6.03-5.38-12.39-6.87-18.97,5.88-1.22,11.77-2.44,17.65-3.64,4.32-.89,8.64-1.74,13.01-2.38,2.25-.33,4.52-.6,6.79-.79,1.49-.12,6.96,.77,6.36-2.24-.21-1.04-1.02-1.62-2.18-1.55-.08,0-.17,0-.25,0,0,.02,.01,.03,.02,.05-8.16,.31-16.21,1.81-24.2,3.44-5.97,1.22-11.93,2.46-17.9,3.7-1.21-6.56-1.71-13.31-1.63-20.12,15.96,1.28,31.93,2.41,47.91,3.38,.04,.01,.07,.02,.11,.03,1.48,.51,4.35,.04,3.76-2.13-.53-1.93-3.92-1.4-5.4-1.49-5.15-.32-10.29-.65-15.43-1-2.58-.18-30.85-2.03-30.84-2.29,.21-5.25,.76-10.53,1.56-15.78,7.44,1.42,14.78,3.29,22.01,5.57,8.83,2.78,17.71,5.8,27.06,6.02,2.25,.05,2.25-3.45,0-3.5-9.18-.21-17.9-3.32-26.58-6.03-7.2-2.26-14.52-4.1-21.93-5.5,2.85-16.34,8.14-32.32,14.03-46.29,.61-1.44,1.57-2.68,2.19-4.15,1.3-3.12,2.83-6.15,4.45-9.13,1.84-3.39,3.85-6.7,5.37-10.26,.56-1.3,1.5-2.38,2.2-3.62,2.11-3.78,4.5-7.41,6.63-11.18,10.69-18.85,25.43-31.33,42.48-44.23,2.29-1.73,4.88-3.13,7.29-4.75,2.81-1.9,5.93-3.19,9.05-4.47,.86-.35,1.62-.97,2.42-1.46,2.64-1.61,5.3-.92,7.94-.04,2.53,.84,4.73,2.2,6.81,3.75,7.61,5.68,14.24,12.97,18.91,21.25,2.1,3.73,2.76,8.67,4.88,12.14,1.98,3.24,4.92,2.79,8.38,3.35,5.14,.83,10.29,1.63,15.43,2.52,6.09,1.06,12.15,2.36,17.98,4.42-.21-.07-1.79,2.46,.56,2.27,2.51-.2,4.27-1.69,5.8-3.57,4-4.94,9.53-9.15,14.79-12.66,7.87-5.26,16.32-9.8,25.12-13.2,5.33-2.06,10.27-4.75,16.24-4.09,5.53,.61,10.42,3.91,14.47,7.52,2.89,2.57,6.36,4.72,8.77,7.71,2.53,3.14,4.79,6.53,7.35,9.63,2.4,2.91,3.97,6.42,5.71,9.79,2.24,4.34,4.58,8.63,6.8,12.98,11.13,21.92,13.75,48.17,13.38,72.48-.26,16.75-1.8,34.76-7.56,50.62-5.96,16.39-14.63,32.33-23.48,47.31-3.11,5.26-6.36,10.44-9.73,15.54-.22,.33-.31,.66-.32,.98-.96-.39-2.07-.2-2.63,.76-.51,.86-.27,2.28,.72,2.74,11.58,5.37,21.36,13.3,29.71,22.9,9.08,10.43,15.77,21.93,22.85,33.74,6.1,10.17,10.98,21.31,14.63,32.59Z"/><path d="M339.01,420.9c-1.18-2.29-4.63-.27-3.45,2.02,10.37,20.09,13.07,42.96,13.88,65.26,.14,3.94,.22,7.88,.28,11.82h4c-.27-20.55-1.29-41.37-7.38-61.1-1.91-6.2-4.35-12.24-7.32-18Z"/><path d="M131.55,422.62c.73-.8,.97-1.94,.2-2.82-.64-.74-2.09-1.01-2.82-.2-15.03,16.53-19.74,38.8-23.41,60.16-1.14,6.61-2.22,13.24-3.6,19.81-.03,.14-.05,.29-.06,.43h4.01c4.37-21.24,5.9-43.7,16.02-63.26,2.62-5.07,5.81-9.9,9.65-14.12Z"/><g><path d="M185.72,373.76c-.56-.29-1.41-.18-1.71,.45-1.15,2.44-2.3,4.87-3.45,7.31-.28,.59-.18,1.38,.45,1.71,.56,.29,1.41,.18,1.71-.45,1.15-2.44,2.3-4.87,3.45-7.31,.28-.59,.18-1.38-.45-1.71Z"/><path d="M217.31,397.31c-.74,.03-1.17,.55-1.25,1.25l-.68,5.63c-.08,.65,.63,1.28,1.25,1.25,.74-.03,1.17-.55,1.25-1.25l.68-5.63c.08-.65-.63-1.28-1.25-1.25Z"/><path d="M253.43,360.6c-.68,.03-1.25,.55-1.25,1.25v3.95c0,.65,.57,1.28,1.25,1.25,.68-.03,1.25-.55,1.25-1.25v-3.95c0-.65-.57-1.28-1.25-1.25Z"/><path d="M287.94,408.4c-.74-2.07-1.49-4.15-2.23-6.22-.22-.61-.86-1.09-1.54-.87-.6,.2-1.11,.88-.87,1.54,.74,2.07,1.49,4.15,2.23,6.22,.22,.61,.86,1.09,1.54,.87,.6-.2,1.11-.88,.87-1.54Z"/><path d="M169.72,445.35c-.15-.26-.45-.51-.75-.57-.32-.07-.68-.06-.96,.13-.26,.17-.51,.43-.57,.75-.19,.94-.39,1.88-.58,2.82-.07,.33-.05,.67,.13,.96,.15,.26,.45,.51,.75,.57,.32,.07,.68,.06,.96-.13,.26-.17,.51-.43,.57-.75l.58-2.82c.07-.33,.05-.67-.13-.96Z"/><path d="M269.32,449.05c-.1-.32-.29-.57-.57-.75-.09-.08-.17-.16-.25-.25-.06-.09-.11-.18-.16-.27-.04-.11-.07-.22-.09-.34,0-.11-.02-.21,0-.32,.03-.3-.16-.68-.37-.88s-.57-.38-.88-.37c-.32,.01-.66,.12-.88,.37l-.2,.25c-.11,.19-.17,.41-.17,.63-.03,.33,.02,.67,.08,1,.06,.32,.19,.63,.34,.91,.29,.58,.77,1.07,1.32,1.42,.27,.17,.66,.21,.96,.13,.29-.08,.6-.3,.75-.57,.15-.29,.23-.64,.13-.96Z"/><path d="M308.68,451.6c-.38-.75-.75-1.51-1.13-2.26-.13-.27-.46-.5-.75-.57-.3-.08-.7-.05-.96,.13-.27,.17-.5,.43-.57,.75-.08,.34-.03,.65,.13,.96,.38,.75,.75,1.51,1.13,2.26,.13,.27,.46,.5,.75,.57,.3,.08,.7,.05,.96-.13,.27-.17,.5-.43,.57-.75,.08-.34,.03-.65-.13-.96Z"/><path d="M225.51,473.91c-.11-.12-.25-.21-.4-.26-.15-.08-.31-.11-.48-.11-.32,.01-.66,.12-.88,.37-.22,.24-.37,.55-.37,.88v1.69c0,.32,.14,.66,.37,.88,.11,.12,.25,.21,.4,.26,.15,.08,.31,.11,.48,.11,.32-.01,.66-.12,.88-.37,.22-.24,.37-.55,.37-.88v-1.69c0-.32-.14-.66-.37-.88Z"/><path d="M381.03,196.1c-.52-1.33-1.05-2.67-1.57-4-.12-.31-.27-.57-.57-.75-.27-.16-.66-.22-.96-.13-.3,.1-.59,.29-.75,.57-.15,.28-.25,.66-.13,.96,.52,1.33,1.05,2.67,1.57,4,.12,.31,.27,.57,.57,.75,.27,.16,.66,.22,.96,.13,.3-.1,.59-.29,.75-.57,.15-.28,.25-.66,.13-.96Z"/><path d="M378.21,213.04c-.18-.57-.37-1.13-.55-1.7-.1-.31-.29-.58-.57-.75-.14-.09-.3-.14-.46-.15-.17-.04-.33-.03-.5,.02-.3,.1-.59,.29-.75,.57-.15,.29-.23,.64-.13,.96,.18,.57,.37,1.13,.55,1.7,.1,.31,.29,.58,.57,.75,.14,.09,.3,.14,.46,.15,.17,.04,.33,.03,.5-.02,.3-.1,.59-.29,.75-.57,.15-.29,.23-.64,.13-.96Z"/><path d="M385.05,232.21c-.38-1.5-.76-3.01-1.15-4.51-.16-.63-.9-1.08-1.54-.87-.66,.21-1.05,.86-.87,1.54,.38,1.5,.76,3.01,1.15,4.51,.16,.63,.9,1.08,1.54,.87,.66-.21,1.05-.86,.87-1.54Z"/><path d="M373.47,236.17c-.22-.22-.57-.38-.88-.37-.32,.01-.66,.12-.88,.37-.22,.24-.37,.55-.37,.88v2.26c0,.32,.14,.66,.37,.88s.57,.38,.88,.37c.32-.01,.66-.12,.88-.37,.22-.24,.37-.55,.37-.88v-2.26c0-.32-.14-.66-.37-.88Z"/><path d="M380.57,257.05l-.56-2.82c-.06-.29-.32-.6-.57-.75-.27-.16-.66-.22-.96-.13-.3,.1-.59,.29-.75,.57-.16,.31-.19,.62-.13,.96,.19,.94,.38,1.88,.56,2.82,.06,.29,.32,.6,.57,.75,.27,.16,.66,.22,.96,.13,.3-.1,.59-.29,.75-.57,.16-.31,.19-.62,.13-.96Z"/><path d="M364.27,264.16c-.04-.34-.11-.63-.37-.88-.22-.22-.57-.38-.88-.37-.32,.01-.66,.12-.88,.37-.21,.23-.41,.56-.37,.88,.19,1.51,.38,3.01,.58,4.52,.04,.34,.11,.63,.37,.88,.22,.22,.57,.38,.88,.37,.32-.01,.66-.12,.88-.37,.21-.23,.41-.56,.37-.88-.19-1.51-.38-3.01-.58-4.52Z"/><path d="M374.85,274.97c-.05-.15-.14-.29-.26-.4-.11-.12-.25-.21-.4-.26-.15-.08-.31-.11-.48-.11l-.33,.04c-.21,.06-.4,.17-.55,.32l-.2,.25c-.11,.19-.17,.41-.17,.63v1.13c0,.17,.03,.33,.11,.48,.05,.15,.14,.29,.26,.4,.11,.12,.25,.21,.4,.26,.15,.08,.31,.11,.48,.11l.33-.04c.21-.06,.4-.17,.55-.32l.2-.25c.11-.2,.17-.41,.17-.63v-1.13c0-.17-.03-.33-.11-.48Z"/><path d="M360.72,290.58c-.68,.03-1.25,.55-1.25,1.25v3.95c0,.65,.57,1.28,1.25,1.25,.68-.03,1.25-.55,1.25-1.25v-3.95c0-.65-.57-1.28-1.25-1.25Z"/><path d="M398.31,401.06c-1.13-1.13-2.26-2.26-3.39-3.39-.46-.46-1.31-.5-1.77,0-.46,.5-.49,1.27,0,1.77,1.13,1.13,2.26,2.26,3.39,3.39,.46,.46,1.31,.5,1.77,0,.46-.5,.49-1.27,0-1.77Z"/><path d="M410.17,417.44l-2.26-2.26c-.23-.23-.56-.37-.88-.37s-.67,.14-.88,.37c-.22,.24-.38,.55-.37,.88,.01,.33,.13,.64,.37,.88l2.26,2.26c.23,.23,.56,.37,.88,.37s.67-.14,.88-.37c.22-.24,.38-.55,.37-.88-.01-.33-.13-.64-.37-.88Z"/><path d="M402.43,429.58c-.57-.75-1.14-1.5-1.71-2.25-.08-.15-.19-.26-.32-.35-.12-.11-.26-.19-.43-.22-.3-.08-.7-.05-.96,.13-.27,.17-.5,.43-.57,.75-.07,.3-.07,.7,.13,.96,.57,.75,1.14,1.5,1.71,2.25,.08,.15,.19,.26,.32,.35,.12,.11,.26,.19,.43,.22,.3,.08,.7,.05,.96-.13,.27-.17,.5-.43,.57-.75,.07-.31,.07-.7-.13-.96Z"/><path d="M417.71,447.06c-.73-1.33-1.47-2.66-2.2-3.98-.32-.57-1.15-.81-1.71-.45-.58,.37-.79,1.1-.45,1.71l2.2,3.98c.32,.57,1.15,.81,1.71,.45,.58-.37,.79-1.1,.45-1.71Z"/><path d="M412.22,460.9c-.37-.94-.75-1.88-1.12-2.83-.12-.31-.27-.57-.57-.75-.27-.16-.66-.22-.96-.13-.3,.1-.59,.29-.75,.57-.15,.28-.25,.66-.13,.96,.37,.94,.75,1.88,1.12,2.83,.12,.31,.27,.57,.57,.75,.27,.16,.66,.22,.96,.13,.3-.1,.59-.29,.75-.57,.15-.28,.25-.66,.13-.96Z"/><path d="M422.29,473.18c-.05-.15-.14-.29-.26-.4-.11-.12-.25-.21-.4-.26-.15-.08-.31-.11-.48-.11l-.33,.04c-.21,.06-.4,.17-.55,.32l-.2,.25c-.11,.19-.17,.41-.17,.63v1.13c0,.17,.03,.33,.11,.48,.05,.15,.14,.29,.26,.4,.11,.12,.25,.21,.4,.26,.15,.08,.31,.11,.48,.11l.33-.04c.21-.06,.4-.17,.55-.32l.2-.25c.11-.2,.17-.41,.17-.63v-1.13c0-.17-.03-.33-.11-.48Z"/><path d="M417.22,486.34c-.38-1.13-.75-2.26-1.13-3.39-.1-.31-.29-.58-.57-.75-.27-.16-.66-.22-.96-.13-.62,.2-1.09,.87-.87,1.54,.38,1.13,.75,2.26,1.13,3.39,.1,.31,.29,.58,.57,.75,.27,.16,.66,.22,.96,.13,.62-.2,1.09-.87,.87-1.54Z"/><path d="M86.24,406.99c-.17-.27-.43-.5-.75-.57-.31-.07-.7-.07-.96,.13-1.37,1.02-2.53,2.27-3.37,3.77-.32,.57-.16,1.39,.45,1.71,.59,.31,1.37,.16,1.71-.45,.23-.41,.49-.8,.78-1.18,.52-.65,1.11-1.24,1.77-1.76l-.05,.04c.26-.19,.46-.4,.55-.73,.08-.3,.05-.7-.13-.96Z"/><path d="M84.1,421.38c-.04-.16-.11-.3-.22-.43-.09-.14-.21-.24-.35-.32-.29-.15-.64-.23-.96-.13l-.3,.13c-.19,.11-.34,.26-.45,.45l-1.13,1.69c-.09,.14-.14,.3-.15,.46-.04,.17-.03,.33,.02,.5,.04,.16,.11,.3,.22,.43,.09,.14,.21,.24,.35,.32,.29,.15,.64,.23,.96,.13l.3-.13c.19-.11,.34-.26,.45-.45l1.13-1.69c.09-.14,.14-.3,.15-.46,.04-.17,.03-.33-.02-.5Z"/><path d="M73.93,440.02c-.04-.16-.11-.3-.22-.43-.09-.14-.21-.24-.35-.32-.29-.15-.64-.23-.96-.13l-.3,.13c-.19,.11-.34,.26-.45,.45l-1.13,1.69c-.09,.14-.14,.3-.15,.46-.04,.17-.03,.33,.02,.5,.04,.16,.11,.3,.22,.43,.09,.14,.21,.24,.35,.32,.29,.15,.64,.23,.96,.13l.3-.13c.19-.11,.34-.26,.45-.45l1.13-1.69c.09-.14,.14-.3,.15-.46,.04-.17,.03-.33-.02-.5Z"/><path d="M85.17,446.2c-.04-.16-.11-.3-.22-.43-.09-.14-.21-.24-.35-.32l-.3-.13c-.22-.06-.44-.06-.66,0l-.3,.13c-.19,.11-.34,.26-.45,.45-.19,.38-.38,.75-.57,1.13-.09,.14-.14,.3-.15,.46-.04,.17-.03,.33,.02,.5,.04,.16,.11,.3,.22,.43,.09,.14,.21,.24,.35,.32l.3,.13c.22,.06,.44,.06,.66,0l.3-.13c.19-.11,.34-.26,.45-.45,.19-.38,.38-.75,.57-1.13,.09-.14,.14-.3,.15-.46,.04-.17,.03-.33-.02-.5Z"/><path d="M69.3,465.71c-.17-.27-.43-.5-.75-.57-.31-.07-.69-.06-.96,.13-.28,.19-.56,.4-.8,.64-.25,.24-.46,.5-.67,.78-.36,.47-.62,1.01-.82,1.57-.1,.29-.03,.7,.13,.96,.15,.26,.45,.51,.75,.57,.32,.07,.68,.06,.96-.13,.28-.18,.46-.43,.57-.75,0-.02,.02-.04,.02-.06,.12-.26,.26-.5,.42-.74,.21-.26,.45-.5,.71-.71,.26-.18,.47-.41,.56-.73,.08-.3,.05-.7-.13-.96Z"/><path d="M78.42,470.52c-.08-.3-.3-.59-.57-.75-.27-.16-.66-.22-.96-.13-.3,.1-.59,.29-.75,.57-.16,.3-.22,.63-.13,.96,.01,.04,.02,.08,.03,.12,0,.11,0,.23,0,.34-.02,.11-.05,.22-.09,.33-.07,.13-.13,.26-.22,.37l.04-.05c-.19,.23-.32,.5-.32,.81s.14,.67,.37,.88c.24,.22,.55,.38,.88,.37,.32-.01,.66-.12,.88-.37,.41-.46,.73-1.01,.87-1.62,.14-.61,.14-1.25-.03-1.86Z"/><path d="M65.97,486.04c-.15-.26-.45-.51-.75-.57-.32-.07-.68-.06-.96,.13-.27,.18-.49,.43-.57,.75-.2,.75-.4,1.5-.6,2.25-.08,.32-.04,.68,.13,.96,.15,.26,.45,.51,.75,.57,.32,.07,.68,.06,.96-.13,.27-.18,.49-.43,.57-.75l.6-2.25c.08-.32,.04-.68-.13-.96Z"/></g><g><path d="M340.06,228.14c-.06-.21-.17-.41-.31-.6-.02-.27-.1-.5-.21-.7-.12-.07-.23-.13-.34-.21-.04,.02-.09,.04-.13,.05-.45,.12-.88,.22-1.32,.38-.18,.06-.36,.11-.54,.13-17.08,7.04-35.34,10.3-53.12,15.07-4.96,1.33-9.89,2.8-14.75,4.49,0-.04,0-.07,0-.11-.28,.08-.51,.21-.72,.36-.53,.22-.85,.6-1,1.05-.05,.06-.1,.13-.15,.19-.29,.36-.37,.92-.07,1.35,.17,.25,.4,.38,.65,.44,.37,.37,.92,.55,1.59,.31,17.66-6.2,36.2-9.23,54.08-14.66,5.12-1.55,10.17-3.32,15.1-5.38,.88-.37,1.49-1.15,1.22-2.15Z"/><path d="M332.14,278.06c-9.68,1.13-19.43,.48-29.12-.18-9.75-.66-19.5-1.33-29.25-1.99-1.77-.12-2.14,2.03-1.11,3.02,.18,.53,.45,.9,1.35,.5,9.67,.66,19.34,1.32,29.01,1.98,9.35,.64,18.74,1.24,28.08,.28,.88-.21,1.74-.47,2.62-.66,.02-.04,.04-.07,.05-.11,.12-.35,.15-.69,.11-1,0-.03,0-.05,0-.08,0-.86-.81-1.86-1.75-1.75Z"/><path d="M331.87,253.73c-9.42,3.02-19.67,2.85-29.45,3.39l-31.1,1.71c-.76,.04-1.25,.47-1.5,1.02-.38,.4-.63,.85-.55,1.22,.14,.7,.58,.92,1.1,1.03,.25,.16,.57,.25,.96,.23,10.53-.58,21.07-1.16,31.6-1.74,9.93-.55,20.33-.42,29.89-3.49,2.14-.68,1.22-4.07-.93-3.38Z"/></g></g></svg>