<?xml version="1.0" encoding="UTF-8"?>
<svg id="Layer_15" data-name="Layer 15" xmlns="http://www.w3.org/2000/svg" viewBox="0 0 500 500">
  <path d="M315.5,492.36c.88-.28,1.32-.93,1.51-1.79h0l-.12-.04,.12-.07h0c.12-.44,.13-.88-.09-1.28-.4-.75-1.08-1.22-1.85-1.48-1.76-.57-3.57-.53-5.39-.32-.38,.04-.75,.19-1.06,.43-.11,.09-.3,.16-.18,.33,.1,.15,.24,0,.34-.05,.78-.47,1.69-.49,2.53-.52,1.26-.04,2.56,.01,3.76,.5,.6,.24,1.14,.59,1.47,1.2,.45,.85-.07,2.2-1.07,2.76-1.46,.82-2.95,.85-4.5,.35-.34-.11-.48-.25-.52-.57-.13-.92-.29-1.84-.43-2.77-.02-.15-.03-.35-.21-.33-.23,.03-.14,.22-.12,.39,.19,2,.57,3.98,.95,5.95,.03,.15,0,.43,.26,.39,.21-.04,.19-.26,.15-.46-.11-.55-.17-1.12-.3-1.67-.14-.58,.22-.54,.55-.44,.46,.14,.93,.21,1.41,.2,.99-.01,1.98-.08,2.82-.72h-.01Z"/>
  <path d="M305.33,492.26c-1-1.8-2.6-3.1-3.76-4.76-.14-.2-.32-.21-.46-.06-.14,.16,0,.31,.14,.4,.4,.27,.7,.63,1,1.01,1.01,1.27,2.16,2.43,2.97,3.85,.39,.68,.78,1.37,.98,2.14,.1,.38-.04,.49-.42,.42-.5-.08-.95-.31-1.37-.54-.88-.47-1.8-.89-2.57-1.54-.71-.61-1.45-1.18-1.9-2.03-.09-.18-.36-.38-.42-.09-.08,.37-.31,.65-.36,1.01-.45,.89-.9,1.78-1.35,2.67-.09,.18-.12,.39,.08,.48,.2,.1,.28-.1,.35-.25,.19-.43,.37-.87,.57-1.3,.22-.48,.44-.96,.7-1.42,.12-.21,.31-.48,.59-.13,.92,1.14,2.13,1.92,3.41,2.57,.7,.36,1.41,.71,2.14,.97,.28,.1,.7,.35,.98,.01,.26-.31,.08-.71-.03-1.05-.26-.87-.83-1.58-1.26-2.36Z"/>
  <path d="M318.73,494.33c-.27,.14-.49,.25-.6-.19-.05-.21-.3-.36-.41-.04-.15,.44-.51,.63-.84,.88-.28,.04-.7,.48-.78-.09-.07-.53-.46-.76-.69-1.14-.24-.4-.63-.46-1.01-.33-.36,.12-.71,.35-.92,.66-.21,.31-.34,.69-.05,1.07,.3,.39,.67,.3,1.04,.16,.18-.07,.34-.21,.51-.31,.22-.13,.41-.12,.56,.12,.28,.45,.65,.49,1.14,.31,.28-.1,.42-.33,.64-.49,.25-.18,.42-.39,.57,.1,.06,.2,.26,.51,.56,.18,.19-.21,.16-.63,.53-.63,.36,0,.33,.42,.51,.63,.13,.15,.3,.14,.46,.1,.14-.04,.21-.16,.18-.3-.11-.66-.82-1.01-1.41-.69Zm-4.34,.62c-.35,0-.57-.03-.6-.32-.03-.28,.62-.8,.99-.8,.32,0,.35,.28,.41,.49,.05,.17-.63,.61-.8,.62Z"/>
  <path d="M324.03,493.99s-.02,.03-.03,.04c-.27,.59-.87,.6-1.37,.77-.16,.05-.3,.01-.4-.09-.13-.14-.01-.27,.08-.39,.06-.08,.18-.16,.09-.28-.11-.15-.25-.05-.34,.02-.4,.31-.5,.12-.51-.28,0-.12-.06-.25-.09-.37v.01c.03-.54-.14-1.04-.27-1.56-.04-.16-.03-.44-.28-.36-.19,.06-.18,.3-.1,.48,.23,.51,.24,1.07,.31,1.61,.06,.51,.12,1.02,.35,1.48,.09,.17,.24,.45,.43,.32,.45-.32,1.03-.21,1.48-.52,.23-.16,.57-.28,.77,.15,.05,.1,.28,.21,.37,.03,.18-.35-.04-.7-.11-1.04-.02-.13-.23-.16-.37-.03Z"/>
  <path d="M331.88,494.97c-.81,.05-1.41-.36-1.63-1.14-.07-.24-.19-.47-.46-.48-.53-.03-.81,.37-1.08,.74-.16,.22-.05,.46,.1,.65,.04,.05,.13,.12,.18,.11,.81-.12,1.5,.2,2.18,.56,.07,.04,.18,.02,.27,0,.52-.1,1.04-.2,1.56-.3l-.02-.15c-.36-.1-.74-.02-1.1,0Zm-2.4-.44c-.17,.01-.28-.09-.26-.27,.03-.27,.26-.35,.47-.4,.22-.05,.2,.15,.22,.28,.02,.31-.2,.37-.43,.39Z"/>
  <path d="M327.93,494.53c-.14-.67-.9-1.09-1.54-.84-.28,.11-.55,.19-.87,.2-.12,0,.06,.45,.11,.69,.02,.13,.09,.27,.23,.27,.22,0,.27-.21,.34-.37,.25-.54,.74-.58,1.1-.11,.11,.15,.19,.31,.3,.45,.07,.09,.03,.3,.21,.27,.22-.03,.09-.24,.15-.39,0-.05-.02-.12-.03-.19Z"/>
  <path d="M308.15,494.71c-.16,0-.3,.1-.29,.26,.01,.18,.11,.36,.33,.35,.16,0,.25-.13,.24-.32-.02-.15-.07-.3-.29-.29Z"/>
  <path d="M323.9,492.62c.12-.06,.19-.15,.17-.32-.01-.13-.04-.28-.19-.28-.21,0-.15,.2-.19,.33-.04,.13,0,.25,.2,.28Z"/>
</svg>